<svg version="1.1" xmlns="http://www.w3.org/2000/svg" xmlns:xlink="http://www.w3.org/1999/xlink" viewBox="0 0 1000 1000"><g fill="none" fill-rule="nonzero" stroke="#000000" stroke-width="6" stroke-linecap="round" stroke-linejoin="round" stroke-miterlimit="0" stroke-dasharray="" stroke-dashoffset="0" font-family="none" font-weight="none" font-size="none" text-anchor="none" style="mix-blend-mode:normal"><g fill="none" font-family="none" font-weight="none" font-size="NaN" text-anchor="start"><g font-size="NaN"/></g><path d="M380.89131,593.44346c0,0 -3.38361,0.19569 -6.76721,0.39139l-11.34487,0.65614c-7.60988,0.26424 -21.25046,-2.82984 -29.201,-6.45497c-0.54203,-0.19019 -1.07367,-0.43531 -1.58762,-0.73725l-0.6774,-0.39796c0.11349,0.06667 0.22783,0.13057 0.34296,0.19172c0.10946,0.0708 0.22095,0.13957 0.33444,0.20624c-0.0649,-0.04397 -0.12987,-0.08853 -0.19491,-0.13367c0.03142,0.016 0.0629,0.0318 0.09443,0.04739c-0.03647,-0.01913 -0.07276,-0.03828 -0.10888,-0.05743c-0.44861,-0.31191 -0.90014,-0.65127 -1.35142,-1.01439c0.36428,0.33702 0.76097,0.64776 1.18882,0.92746c-0.10335,-0.05571 -0.20518,-0.11149 -0.30544,-0.16732c-0.97456,-0.57254 -1.80162,-1.30008 -2.46826,-2.13292c-3.20377,-2.9712 -6.20202,-6.94389 -7.81924,-10.55451c-1.52855,-3.41266 -2.47699,-7.9612 -2.64715,-12.13848c-0.25758,-1.17762 -0.28141,-2.4265 -0.02984,-3.68421c0.05046,-0.21918 0.10533,-0.44277 0.16448,-0.67045c0.00089,-0.0078 0.00179,-0.01559 0.00269,-0.02338c-0.06423,0.2271 -0.12009,0.45847 -0.16717,0.69383l0.21418,-1.07083l0.05451,0.0109c2.20757,-8.02116 9.40156,-20.73598 15.21266,-25.88723c5.59576,-4.96037 18.22903,-12.5908 25.17303,-15.36637l6.27896,-2.44136c9.47409,-3.0052 26.92868,-0.08575 34.90917,5.8389l3.80682,3.2213c4.12982,3.87111 9.67202,13.2462 10.51605,18.83601c0.77383,5.12491 -0.37278,15.20874 -2.01712,20.12597l-6.29447,17.26289c-0.5995,1.2366 -2.04088,3.58599 -3.06721,4.48916c-1.33574,1.17544 -4.79337,2.27155 -6.56372,2.59169l-16.0823,0.49019zM340.75382,571.5797c-0.10577,-0.06818 -0.21342,-0.13447 -0.32293,-0.19881l0.6774,0.39796c-0.11075,-0.06506 -0.22232,-0.12749 -0.33463,-0.18729c0.09777,0.05836 0.19753,0.1165 0.29921,0.17442c0.01176,0.00433 0.02357,0.00863 0.03543,0.01288c0.05731,0.03367 0.11411,0.06787 0.1704,0.10261c4.78721,2.64626 13.52257,4.78439 19.12593,4.70653c-0.76388,-0.92634 -1.43214,-1.80377 -1.90386,-2.51262l-1.12996,-1.79016c-2.16031,-4.19508 -3.3262,-13.00283 -2.33177,-17.6155l0.48454,-1.56728c1.0189,-2.79172 3.99514,-7.83448 6.15652,-9.86872c1.32552,-1.24755 3.97657,-3.74266 5.3021,-4.99021c2.46806,-2.32288 7.22119,-6.79642 7.22119,-6.79642l12.33656,13.1076c0,0 -2.46806,2.32288 -4.93612,4.64576c-1.32552,1.24755 -6.26164,5.89331 -7.58717,7.14086c-0.48967,0.46086 -1.23977,1.39133 -1.29618,2.07773l-0.48454,1.56728c-0.67071,0.77334 -0.4926,2.11887 0.35622,2.69106l1.12996,1.79016c0.6088,1.09111 2.28563,2.84115 3.27071,3.60679c0.39492,0.30695 0.95513,0.75286 1.44697,0.47169l12.52561,-0.38178l4.62066,-12.67239c1.14465,-2.73169 1.57148,-8.34706 1.12977,-11.27243c-0.37151,-2.46047 -2.25987,-6.39475 -4.34506,-7.78273l-3.80682,-3.2213c-3.65157,-3.91831 -12.03104,-5.31985 -16.75894,-2.80309l-6.27896,2.44136c-5.51624,2.06918 -15.34739,8.15169 -19.75581,12.05953c-3.66964,3.25295 -8.30807,10.73052 -9.55792,15.93683l0.00096,0.00019l-0.21418,1.07083c-0.01796,0.08982 -0.03721,0.17905 -0.05771,0.26769c-0.01023,1.21474 0.5707,2.56571 1.51174,4.6667c0.95651,2.13553 1.58259,3.47754 2.52069,4.27415c0.15375,0.0789 0.30617,0.16264 0.45706,0.25129c0.10502,0.06652 0.2127,0.1328 0.32293,0.19881zM328.93909,551.33067c-4.51156,-0.90238 -8.90955,1.73874 -10.31189,6.00205l17.52178,3.50463c0.34541,-4.47471 -2.69833,-8.6043 -7.20989,-9.50668zM335.99911,561.92105c0.03016,-0.15078 0.05636,-0.30142 0.07867,-0.45184c-0.02959,0.15304 -0.05585,0.30371 -0.07867,0.45184zM331.7957,587.1651c-0.04663,-0.02374 -0.09315,-0.04793 -0.13953,-0.07257c-0.01253,-0.00811 -0.02504,-0.01624 -0.03752,-0.0244c0.05379,0.02899 0.10799,0.05797 0.1626,0.08693c0.00482,0.00335 0.00964,0.0067 0.01445,0.01004zM340.76532,571.58712c-0.18054,-0.09589 -0.36301,-0.18502 -0.5471,-0.26747c0.23157,0.16435 0.48296,0.3003 0.76226,0.411c-0.07083,-0.04872 -0.14255,-0.09657 -0.21516,-0.14353z" fill="#ffffff"/><path d="M619.51072,586.49191l-16.0823,-0.49019c-1.77035,-0.32014 -5.22798,-1.41625 -6.56372,-2.59169c-1.02633,-0.90317 -2.46771,-3.25256 -3.06721,-4.48916l-6.29447,-17.26289c-1.64434,-4.91723 -2.79095,-15.00106 -2.01712,-20.12597c0.84403,-5.58981 6.38623,-14.9649 10.51605,-18.83601l3.80682,-3.2213c7.98049,-5.92465 25.43508,-8.8441 34.90917,-5.8389l6.27896,2.44136c6.944,2.77557 19.57727,10.406 25.17303,15.36637c5.8111,5.15125 13.00509,17.86607 15.21266,25.88723l0.05451,-0.0109l0.21418,1.07083c-0.04708,-0.23536 -0.10294,-0.46673 -0.16717,-0.69383c0.0009,0.00779 0.0018,0.01558 0.00269,0.02338c0.05915,0.22768 0.11402,0.45127 0.16448,0.67045c0.25157,1.25771 0.22774,2.50659 -0.02984,3.68421c-0.17016,4.17728 -1.1186,8.72582 -2.64715,12.13848c-1.61722,3.61062 -4.61547,7.58331 -7.81924,10.55451c-0.66664,0.83284 -1.4937,1.56038 -2.46826,2.13292c-0.10026,0.05583 -0.20209,0.11161 -0.30544,0.16732c0.42785,-0.2797 0.82454,-0.59044 1.18882,-0.92746c-0.45128,0.36312 -0.90281,0.70248 -1.35142,1.01439c-0.03612,0.01915 -0.07241,0.0383 -0.10888,0.05743c0.03153,-0.01559 0.06301,-0.03139 0.09443,-0.04739c-0.06504,0.04514 -0.13001,0.0897 -0.19491,0.13367c0.11349,-0.06667 0.22498,-0.13544 0.33444,-0.20624c0.11513,-0.06115 0.22947,-0.12505 0.34296,-0.19172l-0.6774,0.39796c-0.51395,0.30194 -1.04559,0.54706 -1.58762,0.73725c-7.95054,3.62513 -21.59112,6.71921 -29.201,6.45497l-11.34487,-0.65614c-3.3836,-0.1957 -6.76721,-0.39139 -6.76721,-0.39139zM659.24618,571.57968c0.11023,-0.06601 0.21791,-0.13229 0.32293,-0.19881c0.15089,-0.08865 0.30331,-0.17239 0.45706,-0.25129c0.9381,-0.79661 1.56418,-2.13862 2.52069,-4.27415c0.94104,-2.10099 1.52197,-3.45196 1.51174,-4.6667c-0.0205,-0.08864 -0.03975,-0.17787 -0.05771,-0.26769l-0.21418,-1.07083l0.00096,-0.00019c-1.24985,-5.20631 -5.88828,-12.68388 -9.55792,-15.93683c-4.40842,-3.90784 -14.23957,-9.99035 -19.75581,-12.05953l-6.27896,-2.44136c-4.7279,-2.51676 -13.10737,-1.11522 -16.75894,2.80309l-3.80682,3.2213c-2.08519,1.38798 -3.97355,5.32226 -4.34506,7.78273c-0.44171,2.92537 -0.01488,8.54074 1.12977,11.27243l4.62066,12.67239l12.52561,0.38178c0.49184,0.28117 1.05205,-0.16474 1.44697,-0.47169c0.98508,-0.76564 2.66191,-2.51568 3.27071,-3.60679l1.12996,-1.79016c0.84882,-0.57219 1.02693,-1.91772 0.35622,-2.69106l-0.48454,-1.56728c-0.05641,-0.6864 -0.80651,-1.61687 -1.29618,-2.07773c-1.32553,-1.24755 -6.26165,-5.89331 -7.58717,-7.14086c-2.46806,-2.32288 -4.93612,-4.64576 -4.93612,-4.64576l12.33656,-13.1076c0,0 4.75313,4.47354 7.22119,6.79642c1.32553,1.24755 3.97658,3.74266 5.3021,4.99021c2.16138,2.03424 5.13762,7.077 6.15652,9.86872l0.48454,1.56728c0.99443,4.61267 -0.17146,13.42042 -2.33177,17.6155l-1.12996,1.79016c-0.47172,0.70885 -1.13998,1.58628 -1.90386,2.51262c5.60336,0.07786 14.33872,-2.06027 19.12593,-4.70653c0.05629,-0.03474 0.11309,-0.06894 0.1704,-0.10261c0.01186,-0.00425 0.02367,-0.00855 0.03543,-0.01288c0.10168,-0.05792 0.20144,-0.11606 0.29921,-0.17442c-0.11231,0.0598 -0.22388,0.12223 -0.33463,0.18729l0.6774,-0.39796c-0.10951,0.06434 -0.21716,0.13063 -0.32293,0.19881zM663.85102,560.83735l17.52178,-3.50463c-1.40234,-4.26331 -5.80033,-6.90443 -10.31189,-6.00205c-4.51156,0.90238 -7.5553,5.03197 -7.20989,9.50668zM663.92222,561.46921c0.02231,0.15042 0.04851,0.30106 0.07867,0.45184c-0.02282,-0.14813 -0.04908,-0.2988 -0.07867,-0.45184zM668.21875,587.15506c0.05461,-0.02896 0.10881,-0.05794 0.1626,-0.08693c-0.01248,0.00816 -0.02499,0.01629 -0.03752,0.0244c-0.04638,0.02464 -0.0929,0.04883 -0.13953,0.07257c0.00481,-0.00334 0.00963,-0.00669 0.01445,-0.01004zM659.01952,571.73065c0.2793,-0.1107 0.53069,-0.24665 0.76226,-0.411c-0.18409,0.08245 -0.36656,0.17158 -0.5471,0.26747c-0.07261,0.04696 -0.14433,0.09481 -0.21516,0.14353z" fill="#ffffff"/><path d="M527.07839,610.97233c-0.49226,0.4318 -0.92706,0.88671 -1.28978,1.35961zM513.18571,673.54693c-0.10856,-0.01972 -0.21637,-0.04136 -0.3234,-0.06487c0.10855,-0.00706 0.21855,-0.01525 0.32984,-0.02455c0.1059,0.03182 0.21064,0.06179 0.31411,0.08985c-0.10649,0.00175 -0.21335,0.00161 -0.32055,-0.00043zM572.67192,582.10124c1.18618,0.31494 2.40268,0.37654 3.57855,0.20707c-1.19598,-0.06306 -2.45137,-0.23039 -3.59347,-0.46362c0.00434,0.08567 0.00931,0.1712 0.01493,0.25655zM571.03176,581.44475c0.09165,0.05981 0.1847,0.11817 0.27914,0.17502c0.09581,0.0428 0.19201,0.08378 0.28858,0.12297c-0.08641,-0.06745 -0.17341,-0.13774 -0.26092,-0.21073c-0.10423,-0.02857 -0.20656,-0.05767 -0.3068,-0.08725zM678.90532,476.57833c-0.00235,0.05389 -0.00518,0.10786 -0.00849,0.1619c-0.00596,0.0551 -0.0124,0.11002 -0.01933,0.16478c-0.00431,-0.05233 -0.00909,-0.1053 -0.01432,-0.15891c0.01471,-0.05639 0.02876,-0.11232 0.04214,-0.16777zM515.51734,597.00528l-2.78758,2.9385c0.47198,-0.44457 0.99108,-0.88519 1.55136,-1.31978c0.40447,-0.58239 0.81714,-1.12398 1.23622,-1.61873zM660.99269,474.99979c-0.00978,0.07359 -0.01869,0.14748 -0.02672,0.22168c-0.00472,0.077 -0.00846,0.15385 -0.01122,0.23052c0.16172,0.32655 0.32971,0.81252 0.5091,1.33453l7.14057,-9.49974c-3.28086,0.4793 -6.04236,2.74693 -7.15996,5.854l1.20182,-0.61892c-0.22459,0.7445 -1.04817,1.9774 -1.65358,2.47792zM474.21139,612.33194c-0.36272,-0.4729 -0.79752,-0.92781 -1.28978,-1.35961zM486.49374,673.54736c0.10348,-0.02805 0.20821,-0.05802 0.31411,-0.08985c0.11129,0.0093 0.22129,0.01749 0.32984,0.02455c-0.10703,0.02351 -0.21484,0.04514 -0.3234,0.06487c-0.1072,0.00204 -0.21406,0.00218 -0.32055,0.00043zM427.34301,581.84469c-1.1421,0.23323 -2.39749,0.40056 -3.59347,0.46362c1.17586,0.16947 2.39236,0.10788 3.57855,-0.20707c0.00561,-0.08536 0.01059,-0.17088 0.01493,-0.25655zM428.66144,581.532c-0.08751,0.07299 -0.17451,0.14328 -0.26092,0.21073c0.09656,-0.03919 0.19277,-0.08017 0.28858,-0.12297c0.09444,-0.05685 0.18749,-0.1152 0.27914,-0.17502c-0.10024,0.02958 -0.20257,0.05868 -0.3068,0.08725zM321.13682,476.74611c-0.00523,0.05361 -0.01,0.10659 -0.01432,0.15891c-0.00693,-0.05476 -0.01338,-0.10969 -0.01933,-0.16478c-0.00332,-0.05405 -0.00615,-0.10802 -0.00849,-0.1619c0.01338,0.05545 0.02743,0.11138 0.04214,0.16777zM485.71889,598.62401c0.56027,0.43459 1.07937,0.87521 1.55136,1.31978l-2.78758,-2.9385c0.41909,0.49475 0.83175,1.03634 1.23622,1.61873zM337.35372,472.52187l1.20182,0.61892c-1.1176,-3.10706 -3.8791,-5.3747 -7.15996,-5.854l7.14057,9.49974c0.17939,-0.52202 0.34738,-1.00798 0.5091,-1.33453c-0.00276,-0.07668 -0.0065,-0.15352 -0.01122,-0.23052c-0.00802,-0.0742 -0.01693,-0.14809 -0.02672,-0.22168c-0.60541,-0.50052 -1.42899,-1.73342 -1.65358,-2.47792zM321.11869,476.95272l-0.03596,-0.42455c-0.19929,-2.35281 0.52542,-4.57074 1.87216,-6.29596c0.95366,-2.22837 2.1945,-4.26579 3.53113,-5.27048c1.0102,-0.75932 2.0204,-1.51865 2.0204,-1.51865l2.53988,3.37903c3.58881,0.39548 6.60986,2.92518 7.63326,6.38255l61.65201,31.74982c8.81346,4.75064 22.71753,18.12283 27.80815,26.74438l2.33158,4.12408c2.47096,4.66234 4.78546,13.34426 5.62674,20.27186l4.58225,7.83302c2.48741,4.9209 3.63598,13.04452 3.30273,20.40418c0.86767,2.06807 0.96252,4.44871 0.12233,6.66547l12.49995,-1.7604c7.43546,-0.62351 19.42901,3.04633 26.9191,7.84565l-1.40244,-46.16284l-1.40399,-6.05231c-1.55276,-6.81794 -3.16403,-20.62816 -3.22254,-27.62044l-0.02706,-6.2207c0.01151,-3.81226 0.82472,-11.35155 1.62641,-15.07858l1.43986,-6.4618c0.98684,-4.42874 5.11609,-7.43033 9.63323,-7.00247c4.51714,0.42786 8.0094,4.15134 8.14718,8.6866l1.68497,55.46258l1.68497,-55.46258c0.13778,-4.53527 3.63004,-8.25875 8.14718,-8.6866c4.51714,-0.42786 8.64639,2.57373 9.63323,7.00247l1.43986,6.4618c0.8017,3.72703 1.6149,11.26632 1.62641,15.07858l-0.02706,6.2207c-0.05851,6.99228 -1.66978,20.8025 -3.22254,27.62044l-1.40399,6.05231l-1.40244,46.16284c7.49009,-4.79932 19.48364,-8.46916 26.9191,-7.84565l12.49995,1.7604c-0.84019,-2.21676 -0.74534,-4.5974 0.12233,-6.66547c-0.33325,-7.35966 0.81532,-15.48328 3.30273,-20.40418l4.58225,-7.83302c0.84128,-6.9276 3.15578,-15.60952 5.62674,-20.27186l2.33158,-4.12408c5.09062,-8.62155 18.99469,-21.99375 27.80815,-26.74438l61.65201,-31.74982c1.02341,-3.45737 4.04445,-5.98707 7.63326,-6.38255l2.53988,-3.37903c0,0 1.0102,0.75932 2.0204,1.51865c1.33663,1.00469 2.57746,3.04211 3.53113,5.27048c1.34674,1.72522 2.07145,3.94315 1.87216,6.29596l-0.03596,0.42455c0.00601,-0.07095 0.01118,-0.14178 0.01552,-0.21248c0.00762,-0.07042 0.01443,-0.14111 0.02044,-0.21207c-0.00392,0.01668 -0.00791,0.0334 -0.01195,0.05016c0.08363,-1.92004 -0.44536,-3.73622 -1.4196,-5.25022c0.73256,1.94231 1.23177,3.92451 1.37746,5.41799c-0.40082,1.5363 -1.29177,3.41442 -2.41494,5.24906c1.29456,-1.34951 2.17851,-3.10884 2.42926,-5.09014c0.00132,0.01596 0.00259,0.03186 0.00382,0.0477c-0.20587,2.43057 -1.35956,4.5534 -3.06657,6.0356c-1.51971,2.2892 -3.33721,4.39611 -4.92736,5.53618l-62.97784,32.43261c-6.69533,3.23615 -16.88537,13.03637 -20.38007,19.60045l-2.33158,4.12408c-0.43444,0.69619 -0.85196,1.54637 -1.24026,2.49667c0.5991,0.8669 1.05138,1.84721 1.31971,2.90759l2.95896,11.6929c0.61233,3.34505 0.14426,9.91455 -0.93615,13.139l-0.21436,0.52133c-1.54753,2.42213 -4.68912,5.71304 -6.84915,6.50115c-0.16528,0.06031 -0.3444,0.1131 -0.5355,0.1588c-2.15946,0.98514 -4.68703,1.11066 -7.01519,0.19826c0.09579,1.23602 0.32645,2.43161 0.69508,3.50079c2.32133,3.52413 7.20935,6.6004 11.02638,6.63028l19.69607,2.51498c3.58591,0.46582 10.68148,1.80228 14.19114,2.67292l3.21229,0.8043c1.89004,0.48135 5.60568,1.6491 7.43128,2.33551l3.1482,1.19822c4.28207,1.62977 6.65631,6.21637 5.51481,10.65364c-1.1415,4.43726 -5.43435,7.30873 -9.97131,6.66978l-86.7454,-12.21656c-4.01559,-1.00257 -10.21188,0.838 -13.69131,3.81174c-2.78632,3.63125 -4.29794,9.91588 -3.08523,13.87309l4.07882,20.91371c0.66637,3.97022 0.47023,11.8727 -0.39229,15.80497l-0.36283,1.46837c-1.11522,2.78359 -3.58538,6.52221 -5.60813,7.94978c-0.34767,0.24537 -0.76411,0.48033 -1.2306,0.7018c-1.79284,1.50569 -4.16793,2.3148 -6.68164,2.06414c-0.13266,-0.03034 -0.26774,-0.06419 -0.40503,-0.10142c1.15346,-0.01893 2.26293,-0.25856 3.283,-0.68171c-1.22357,0.29215 -2.47596,0.49819 -3.59711,0.59187c-0.28589,-0.08591 -0.58031,-0.18533 -0.88152,-0.2971l-0.02084,0.17603c0.18815,0.05451 0.37906,0.10312 0.57252,0.14562c-0.13847,0.009 -0.27458,0.01616 -0.408,0.02143c0.24526,0.02446 0.4892,0.03882 0.7314,0.04344c0.23835,0.0433 0.48032,0.07739 0.72558,0.10185l-1.45698,-0.14529c-0.06085,-0.00607 -0.12149,-0.01273 -0.18193,-0.01997l-0.77557,6.55218c-0.43765,3.66949 -1.44746,10.09932 -2.33829,15.04855c0.02731,0.13378 0.05422,0.26404 0.08069,0.39057l1.89471,9.10041l-4.05778,0.84483l-0.58798,2.82411l-6.48818,-1.35084l-6.48818,1.35084l-0.58798,-2.82411l-4.05778,-0.84483l1.89471,-9.10041c0.02647,-0.12653 0.05338,-0.2568 0.08069,-0.39057c-0.89083,-4.94923 -1.90063,-11.37906 -2.33829,-15.04855l-0.77557,-6.55218c-0.06044,0.00725 -0.12108,0.01391 -0.18193,0.01997l-1.45698,0.14529c0.24526,-0.02446 0.48723,-0.05854 0.72558,-0.10185c0.24221,-0.00462 0.48614,-0.01898 0.7314,-0.04344c-0.13342,-0.00526 -0.26953,-0.01242 -0.408,-0.02143c0.19346,-0.04249 0.38436,-0.09111 0.57252,-0.14562l-0.02084,-0.17603c-0.30121,0.11176 -0.59563,0.21119 -0.88152,0.2971c-1.12115,-0.09367 -2.37354,-0.29972 -3.59711,-0.59187c1.02007,0.42315 2.12954,0.66278 3.283,0.68171c-0.13729,0.03722 -0.27237,0.07107 -0.40503,0.10142c-2.51371,0.25066 -4.8888,-0.55845 -6.68164,-2.06414c-0.4665,-0.22147 -0.88293,-0.45642 -1.2306,-0.7018c-2.02275,-1.42758 -4.49291,-5.1662 -5.60813,-7.94978l-0.36283,-1.46837c-0.86251,-3.93227 -1.05865,-11.83475 -0.39229,-15.80497l4.07882,-20.91371c1.2127,-3.95721 -0.29891,-10.24184 -3.08523,-13.87309c-3.47943,-2.97373 -9.67572,-4.81431 -13.69131,-3.81174l-86.7454,12.21656c-4.53696,0.63895 -8.82981,-2.23252 -9.97131,-6.66978c-1.1415,-4.43726 1.23274,-9.02386 5.51481,-10.65364l3.1482,-1.19822c1.8256,-0.6864 5.54124,-1.85416 7.43128,-2.33551l3.21229,-0.8043c3.50966,-0.87064 10.60523,-2.2071 14.19114,-2.67292l19.69607,-2.51498c3.81703,-0.02988 8.70505,-3.10615 11.02638,-6.63028c0.36863,-1.06917 0.5993,-2.26477 0.69508,-3.50079c-2.32816,0.9124 -4.85573,0.78688 -7.01519,-0.19826c-0.1911,-0.0457 -0.37021,-0.09849 -0.5355,-0.1588c-2.16003,-0.78811 -5.30161,-4.07902 -6.84915,-6.50115l-0.21436,-0.52133c-1.0804,-3.22445 -1.54848,-9.79395 -0.93615,-13.139l2.95896,-11.6929c0.26834,-1.06038 0.72061,-2.04069 1.31971,-2.90759c-0.3883,-0.9503 -0.80582,-1.80049 -1.24026,-2.49667l-2.33158,-4.12408c-3.4947,-6.56408 -13.68474,-16.36431 -20.38007,-19.60045l-62.97784,-32.43261c-1.59015,-1.14008 -3.40764,-3.24699 -4.92736,-5.53618c-1.70701,-1.4822 -2.8607,-3.60502 -3.06657,-6.0356c0.00123,-0.01584 0.0025,-0.03174 0.00382,-0.0477c0.25075,1.9813 1.1347,3.74063 2.42926,5.09014c-1.12317,-1.83464 -2.01412,-3.71276 -2.41494,-5.24906c0.14569,-1.49348 0.6449,-3.47568 1.37746,-5.41799c-0.97425,1.514 -1.50323,3.33018 -1.4196,5.25022c-0.00405,-0.01677 -0.00803,-0.03349 -0.01195,-0.05016c0.00601,0.07095 0.01283,0.14165 0.02044,0.21207c0.00434,0.0707 0.00951,0.14153 0.01552,0.21248z" fill="#404040"/><path d="M495.18683,685.48798l2.12851,1.16326c1.06317,0.58104 1.96485,1.34766 2.68467,2.23896c0.71982,-0.8913 1.62149,-1.65792 2.68467,-2.23896l2.12851,-1.16326l-4.81317,-9.25002zM489.90378,702.99971l-3.21608,-1.17799l-6.36339,12.22924c-1.21617,2.31546 -3.17285,5.55684 -5.28444,8.82858l17.90694,-6.33185c1.9045,-1.71475 4.47701,-2.55148 7.05319,-2.25392c2.57617,-0.29756 5.14869,0.53918 7.05319,2.25392l17.90694,6.33185c-2.11159,-3.27174 -4.06827,-6.51312 -5.28444,-8.82858l-6.36339,-12.22924l-3.21608,1.17799c-3.6904,1.35173 -7.72955,0.13844 -10.09622,-2.79239c-2.36667,2.93082 -6.40582,4.14411 -10.09622,2.79239zM457.86672,767.29756c-7.88024,5.86723 -25.26608,14.21764 -34.77168,16.70084l-0.42808,0.1076c-10.27487,2.05154 -28.75666,-2.41062 -36.96357,-8.92433l-6.78138,-5.94846c-3.24197,-3.07963 -8.09065,-10.34344 -9.3573,-14.62815c-1.1499,-3.88979 -1.87213,-11.87185 -1.59577,-15.9194l0.7251,-8.25441c1.02677,-7.79082 7.53208,-20.07648 13.74339,-26.81088c0.5264,-0.74032 1.17473,-1.41289 1.94056,-1.98684l0.57432,-0.43043c0.287,-0.2151 0.58267,-0.41047 0.88537,-0.58634c7.0548,-4.62662 20.33625,-10.27755 27.85109,-11.74578l6.21053,-1.11844c4.22654,-3.17463 10.91476,-6.52918 14.98531,-7.59199l9.38845,-2.09624c5.8076,-1.18461 14.97394,-1.2547 22.91424,-0.43353c0.7116,-0.81646 1.42631,-1.56791 2.10052,-2.19718l21.27767,-18.74963c2.63846,-2.32498 6.31739,-2.85617 9.43449,-1.54695c3.1171,-1.30922 6.79603,-0.77802 9.43449,1.54695l21.27767,18.74963c0.67421,0.62927 1.38891,1.38073 2.10052,2.19718c7.94029,-0.82117 17.10663,-0.75108 22.91424,0.43353l9.38845,2.09624c4.07055,1.06281 10.75877,4.41736 14.98531,7.59199l6.21053,1.11844c7.51483,1.46822 20.79628,7.11916 27.85109,11.74578c0.3027,0.17587 0.59837,0.37124 0.88537,0.58634l0.57432,0.43043c0.76583,0.57396 1.41416,1.24652 1.94056,1.98684c6.21131,6.7344 12.71663,19.02006 13.74339,26.81088l0.7251,8.25441c0.27636,4.04754 -0.44587,12.0296 -1.59577,15.9194c-1.26664,4.2847 -6.11533,11.54851 -9.3573,14.62815l-6.78138,5.94846c-8.20691,6.51371 -26.6887,10.97587 -36.96357,8.92433l-0.42808,-0.1076c-9.50559,-2.48319 -26.89143,-10.83361 -34.77168,-16.70084l-42.13328,-31.98148zM424.97812,711.43983l-3.13084,10.24669c-0.68436,1.01442 -0.27739,1.50523 0.51746,3.60674c0.80217,2.12085 0.85542,2.38915 1.47067,2.94428c3.77142,1.60856 8.83653,1.45917 12.08456,0.06173c4.30257,-1.85115 11.49078,-7.22062 14.26547,-10.99682l5.99767,-7.66996c0.06005,-0.44876 0.11714,-0.92223 0.14448,-1.22504l0.86452,-9.08132l-28.59092,5.14888c-1.59729,2.18 -3.13801,5.05538 -3.62307,6.96483zM437.52496,746.29219c-6.92188,1.04412 -15.93348,0.22991 -21.33592,-1.77447c-0.54941,-0.22987 -1.07465,-0.51371 -1.56799,-0.84734c-3.6425,-2.81694 -7.49696,-7.79136 -9.0923,-12.00928c-1.60265,-4.23726 -1.92338,-10.64608 -0.89585,-15.23438l2.02188,-6.61726c-4.30519,1.80242 -8.58585,4.05555 -11.27134,6.0728c-0.17759,0.12093 -0.35472,0.24935 -0.53116,0.38478c-4.28214,3.28695 -8.15685,10.70994 -8.22728,15.73934l-0.7251,8.25441c-0.28671,2.36231 0.25213,6.96065 0.92637,9.24141c0.55749,1.88585 2.37021,5.03572 3.9655,6.19922l6.78138,5.94846c4.38427,4.53097 14.73721,7.03054 20.70588,4.99914l0.42808,-0.1076c7.80301,-1.86746 21.94137,-8.65812 28.27672,-13.58131l2.63373,-1.99915l-0.8125,0.2873c-4.11018,1.45335 -8.67101,-0.2481 -10.82503,-4.03835c-0.17057,-0.30014 -0.32217,-0.60655 -0.45506,-0.91773zM571.39881,704.475l-28.59092,-5.14888l0.86452,9.08132c0.02734,0.30281 0.08442,0.77628 0.14448,1.22504l5.99767,7.66996c2.77469,3.7762 9.96289,9.14567 14.26547,10.99682c3.24803,1.39744 8.31315,1.54683 12.08456,-0.06173c0.61524,-0.55513 0.6685,-0.82343 1.47067,-2.94428c0.79485,-2.1015 1.20182,-2.59232 0.51746,-3.60674l-3.13084,-10.24669c-0.48507,-1.90945 -2.02579,-4.78483 -3.62307,-6.96483zM562.01998,747.20992c-2.15402,3.79025 -6.71485,5.4917 -10.82503,4.03835l-0.8125,-0.2873l2.63373,1.99915c6.33535,4.92319 20.4737,11.71384 28.27672,13.58131l0.42808,0.1076c5.96867,2.0314 16.3216,-0.46817 20.70588,-4.99914l6.78138,-5.94846c1.59529,-1.16349 3.40801,-4.31337 3.9655,-6.19922c0.67424,-2.28076 1.21308,-6.87911 0.92637,-9.24141l-0.7251,-8.25441c-0.07043,-5.02941 -3.94514,-12.45239 -8.22728,-15.73934c-0.17644,-0.13544 -0.35358,-0.26385 -0.53116,-0.38478c-2.68549,-2.01725 -6.96615,-4.27038 -11.27134,-6.0728l2.02188,6.61726c1.02753,4.5883 0.70681,10.99712 -0.89585,15.23438c-1.59534,4.21792 -5.4498,9.19233 -9.0923,12.00928c-0.49334,0.33363 -1.01858,0.61747 -1.56799,0.84734c-5.40244,2.00438 -14.41404,2.81859 -21.33592,1.77447c-0.13289,0.31118 -0.28449,0.61758 -0.45506,0.91773z" fill="#808080"/><path d="M282.42461,495.89243c-0.02163,0.00954 -0.0432,0.01917 -0.06472,0.02886c0.05758,-0.02079 0.1156,-0.04147 0.17403,-0.06206c0.01298,-0.00661 0.02596,-0.01319 0.03893,-0.01976c-0.04947,0.01719 -0.09888,0.03485 -0.14824,0.05296zM289.15913,512.57507c-0.02298,0.00843 -0.04597,0.01677 -0.06898,0.025c0.06975,-0.03018 0.14046,-0.06006 0.21211,-0.08964c-0.04744,0.02192 -0.09515,0.04346 -0.14313,0.06464zM353.15642,512.10569c0.08221,-0.06081 0.1633,-0.12189 0.24324,-0.18322c-0.04655,0.10281 -0.09515,0.20499 -0.14582,0.30648c-0.08356,0.06607 -0.16809,0.13048 -0.25354,0.19323c0.05254,-0.10439 0.10459,-0.20991 0.15612,-0.31648zM276.70218,480.29737c0.00243,-0.00139 0.00486,-0.00279 0.00729,-0.00418c0.01342,-0.00529 0.02685,-0.01055 0.04028,-0.01577c-0.01589,0.00664 -0.03174,0.0133 -0.04757,0.01995zM325.73407,651.13555c-0.04399,-0.02253 -0.08807,-0.04467 -0.13225,-0.06641c0.04426,0.02235 0.08835,0.04449 0.13225,0.06641zM317.28972,667.03157c-0.0613,-0.03036 -0.12217,-0.06069 -0.18258,-0.09098c0.06068,0.03108 0.12154,0.06141 0.18258,0.09098zM346.04965,661.50592c0.02034,0.07012 0.04157,0.14016 0.06371,0.2101c0.03546,0.07126 0.07177,0.14187 0.10891,0.21182c-0.0193,-0.07054 -0.03833,-0.14174 -0.05708,-0.21356c-0.03945,-0.06983 -0.07797,-0.13929 -0.11554,-0.20835zM362.75062,654.99063c-0.05713,-0.1148 -0.11646,-0.2279 -0.17791,-0.33927c0.06312,0.24558 0.1628,0.49104 0.29183,0.72948c-0.03489,-0.13036 -0.07285,-0.26045 -0.11392,-0.3902zM325.31359,650.92016c0.04382,0.02303 0.08794,0.04608 0.13234,0.06915c-0.04384,-0.02337 -0.08795,-0.04642 -0.13234,-0.06915zM277.29549,479.98494c-0.20058,0.09641 -0.39596,0.19928 -0.58602,0.30825c-0.20381,0.08034 -0.40619,0.16866 -0.60677,0.26507zM352.18068,513.89132c0.42608,-0.5243 0.78343,-1.08206 1.07316,-1.66237c0.50878,-0.40229 0.98167,-0.86616 1.40775,-1.39046zM308.94668,511.37184c-4.85073,-1.47182 -14.05973,-0.96729 -19.18959,0.95954c-0.10694,0.04805 -0.21525,0.09423 -0.32491,0.1385l-0.54259,0.21904c0.09078,-0.03665 0.18063,-0.0746 0.26955,-0.11384c0.09124,-0.03349 0.18226,-0.06855 0.27304,-0.10519c-0.01394,0.0014 -0.02777,0.00286 -0.04149,0.00439c-0.02963,0.012 -0.05911,0.02405 -0.08843,0.03616c0.02467,-0.0114 0.04926,-0.0229 0.07378,-0.03449c-0.40543,0.04698 -0.71168,0.15409 -0.97392,0.33999c0.23032,-0.06229 0.45983,-0.13417 0.68803,-0.21585c-0.06777,0.02933 -0.13464,0.05894 -0.20057,0.08884c-0.20173,0.08144 -0.40468,0.15504 -0.6085,0.22095c-0.53987,0.45665 -0.91471,1.29534 -1.68192,2.70469c-1.19426,2.19386 -1.74325,2.83862 -1.10328,4.08629l1.38699,7.20786c0.21833,0.17744 0.45746,0.41465 0.72462,0.20993l13.69747,0.02598c4.85485,-3.53163 11.82196,-7.2522 16.23923,-8.47638l8.99599,-2.20191c0.43249,-0.10586 0.86651,-0.17851 1.2991,-0.21936zM259.30735,599.68607c0.01702,0.04558 0.03436,0.09095 0.05203,0.13609c-0.01749,-0.04554 -0.03483,-0.0909 -0.05203,-0.13609zM317.52763,667.15598c-0.05918,-0.03096 -0.11863,-0.06224 -0.17837,-0.09385c0.05896,0.03186 0.11842,0.06315 0.17837,0.09385zM276.30588,593.75513c0.01321,0.03491 0.02643,0.06966 0.03964,0.10425c-0.01302,-0.03488 -0.02623,-0.06963 -0.03964,-0.10425zM492.52878,643.24524l-49.68531,-9.34755c-8.61898,-1.68804 -25.90459,-1.95287 -34.57124,-0.52966l-4.6565,0.72913c-6.11482,0.89132 -17.63118,4.7841 -23.03273,7.78555l-4.62386,2.50568c-3.21585,1.68314 -8.91754,6.01113 -11.40338,8.65598l-1.24186,1.28368c0.0207,0.11932 0.01837,0.33114 -0.05047,0.68465c-0.06886,0.35357 -0.14621,0.55079 -0.21018,0.65361c0.0089,0.02225 0.01771,0.04452 0.02643,0.0668c0.66194,0.9707 1.78355,1.75442 2.82069,1.83105l11.90401,4.19754c4.25853,1.50163 6.74511,5.9264 5.81341,10.34476c-0.9317,4.41836 -4.99321,7.46235 -9.49548,7.11659l-18.53013,-1.42304c-9.77506,-0.83599 -28.00259,-5.90965 -37.45686,-10.36034c-0.20437,-0.08638 -0.40706,-0.1809 -0.60771,-0.28368l-0.42048,-0.21539c-0.199,-0.10194 -0.39259,-0.21027 -0.58065,-0.3246c-9.22305,-5.11579 -24.14461,-17.06597 -30.5987,-24.5865l-6.09274,-7.22409c-6.37355,-7.65619 -16.171,-24.30821 -20.13387,-34.11642c-0.07813,-0.1747 -0.15124,-0.353 -0.2191,-0.5348v0l-0.17474,-0.46812c-0.06786,-0.18179 -0.12947,-0.36439 -0.18492,-0.54756c-3.43335,-10.00587 -6.94371,-29.00475 -7.1459,-38.96459l-0.25998,-18.7291c-0.08101,-8.63919 1.93193,-25.66037 4.02589,-34.04235l0.40315,-1.58342c2.20564,-7.22924 9.98225,-17.46489 17.11659,-23.11761c0.77134,-0.87172 1.72561,-1.60729 2.84053,-2.14318v0c0.19458,-0.08771 0.3945,-0.17469 0.59949,-0.26088c-0.24162,0.13883 -0.47462,0.28752 -0.69871,0.44529c0.27384,-0.17281 0.54536,-0.33675 0.81418,-0.49133c-0.02265,0.0086 -0.04529,0.01729 -0.0679,0.02608c0.02718,-0.01137 0.05445,-0.02273 0.08181,-0.03407c0.15558,-0.08931 0.31024,-0.17547 0.46392,-0.25841c0.74306,-0.35715 1.51081,-0.60318 2.28444,-0.74467c8.37754,-2.71448 21.45554,-4.32393 28.72818,-3.31652l12.82561,2.09877c6.85538,1.24983 19.38576,6.5435 25.06076,10.58734l3.08292,2.2822c2.36046,2.25867 4.79281,5.99171 5.78242,9.11899c2.24205,3.20978 2.19393,7.63773 -0.39822,10.82745c-0.378,0.36821 -0.80086,0.73027 -1.26193,1.08399c0.25038,-0.55309 0.44109,-1.12445 0.57307,-1.70499c-0.25156,0.65269 -0.52567,1.28714 -0.81631,1.88821c-0.69477,0.51399 -1.46914,1.00926 -2.30225,1.47894c0.7561,-0.28441 1.47914,-0.67269 2.14613,-1.16246c-0.26246,0.5215 -0.53706,1.01472 -0.81962,1.46914c-2.35779,2.90133 -6.14885,3.95186 -9.52462,2.96054c-3.22651,0.85404 -6.43638,1.23353 -8.92554,0.90676c1.30691,0.88522 2.39191,2.12086 3.09992,3.63273c1.81869,3.88359 0.64468,8.51096 -2.80548,11.05779l-7.42377,5.48006c-3.98274,2.71452 -11.81636,5.56675 -17.87657,6.71158l-8.75395,9.10607c-1.49806,1.30088 -3.04023,4.60925 -3.434,6.54564c-0.42595,2.09462 -0.37547,6.14514 0.3651,8.15476l6.68386,22.38966c0.33803,1.60351 2.01709,4.17741 3.16665,5.33753c1.2553,1.26684 4.06879,3.22235 5.76887,3.77042l23.13638,8.91537c1.99605,0.8762 6.15564,1.43461 8.33003,1.31629c2.61844,-0.14248 7.75526,-0.97148 10.27064,-1.71321l19.02618,-5.39304c3.84097,-1.05999 11.1559,-4.07201 14.6563,-5.97545c3.93801,-2.14141 7.87602,-4.28281 7.87602,-4.28281l8.59891,15.81325c0,0 -3.93801,2.14141 -7.87602,4.28281c-4.37562,2.37937 -13.56205,6.09505 -18.34643,7.47994l-19.02618,5.39304c-3.48896,0.96021 -10.58815,2.17227 -14.20138,2.36889c-4.05728,0.22078 -11.95285,-1.12573 -15.78029,-2.49356l-23.13638,-8.91537c-3.38781,-1.4125 -9.50008,-5.29069 -12.08265,-7.89699c-2.68831,-2.71302 -6.40683,-9.23698 -7.6285,-12.85819l-6.68386,-22.38966c-1.10764,-4.18153 -1.61782,-12.65371 -0.75622,-16.89064c0.66238,-3.25725 3.15335,-8.31921 5.61161,-12.08838c-3.02812,-0.6902 -6.62555,-1.97099 -8.4398,-3.32089c-2.12292,-1.57956 -4.60181,-5.49282 -5.99997,-8.6492c-0.26343,3.24989 -0.39874,6.24354 -0.35473,8.54793l0.25998,18.7291c0.05444,8.58853 3.10882,25.0324 6.1739,33.40861c0.00742,0.01948 0.01479,0.03901 0.02209,0.05857v0c0.01269,0.03479 0.02548,0.0697 0.03837,0.10472c-0.01256,-0.03494 -0.02535,-0.06985 -0.03837,-0.10472l0.17474,0.46812c0.0073,0.01956 0.01453,0.03914 0.02169,0.05872c3.17322,8.33585 11.64093,22.75902 17.22752,29.2825l6.09274,7.22409c5.29109,6.40735 17.84701,16.44141 25.51681,20.4404c0.0365,0.01809 0.07294,0.03645 0.10931,0.05508l0.42048,0.21539c0.03651,0.0187 0.07283,0.03761 0.10897,0.05674c4.69241,2.36053 12.27284,4.88392 19.32189,6.6053c-0.00692,-0.63579 0.05407,-1.26608 0.17872,-1.88084c-0.06249,-1.58686 0.01171,-3.11251 0.25172,-4.34492c0.5808,-2.98229 2.70598,-7.19177 4.75924,-9.73609l1.26422,-1.3068c3.51278,-3.55581 11.39495,-9.53893 15.76433,-11.96625l4.62386,-2.50568c6.80754,-3.61469 21.21962,-8.48627 28.82414,-9.74317l4.6565,-0.72913c10.1968,-1.53049 30.53872,-1.21883 40.68385,0.62332l49.68531,9.34755z" fill="#808080"/><path d="M717.42715,495.83947c0.01297,0.00657 0.02595,0.01315 0.03893,0.01976c0.05843,0.02059 0.11645,0.04127 0.17403,0.06206c-0.02152,-0.00969 -0.04309,-0.01932 -0.06472,-0.02886c-0.04936,-0.01811 -0.09877,-0.03577 -0.14824,-0.05296zM710.69774,512.51043c0.07165,0.02958 0.14236,0.05946 0.21211,0.08964c-0.02301,-0.00823 -0.046,-0.01657 -0.06898,-0.025c-0.04798,-0.02118 -0.09569,-0.04272 -0.14313,-0.06464zM646.84358,512.1057c0.05153,0.10657 0.10358,0.21209 0.15612,0.31648c-0.08545,-0.06275 -0.16998,-0.12716 -0.25354,-0.19323c-0.05067,-0.10149 -0.09927,-0.20367 -0.14582,-0.30648c0.07994,0.06133 0.16103,0.12241 0.24324,0.18322zM723.25025,480.27742c0.01343,0.00522 0.02686,0.01048 0.04028,0.01577c0.00243,0.00139 0.00486,0.00279 0.00729,0.00418c-0.01583,-0.00665 -0.03168,-0.01331 -0.04757,-0.01995zM674.39818,651.06914c-0.04418,0.02174 -0.08826,0.04388 -0.13225,0.06641c0.0439,-0.02192 0.08799,-0.04406 0.13225,-0.06641zM682.89286,666.94059c-0.06041,0.03029 -0.12128,0.06062 -0.18258,0.09098c0.06104,-0.02957 0.1219,-0.0599 0.18258,-0.09098zM653.95035,661.50593c-0.03757,0.06906 -0.07609,0.13852 -0.11554,0.20835c-0.01875,0.07182 -0.03778,0.14302 -0.05708,0.21356c0.03714,-0.06995 0.07345,-0.14056 0.10891,-0.21182c0.02214,-0.06994 0.04337,-0.13998 0.06371,-0.2101zM637.24938,654.99064c-0.04107,0.12975 -0.07903,0.25984 -0.11392,0.3902c0.12903,-0.23844 0.22871,-0.4839 0.29183,-0.72948c-0.06145,0.11137 -0.12078,0.22447 -0.17791,0.33927zM674.55407,650.98931c0.0444,-0.02307 0.08852,-0.04612 0.13234,-0.06915c-0.04439,0.02273 -0.0885,0.04578 -0.13234,0.06915zM723.8973,480.55826c-0.20058,-0.09641 -0.40296,-0.18473 -0.60677,-0.26507c-0.19006,-0.10897 -0.38544,-0.21184 -0.58602,-0.30825zM645.33841,510.83849c0.42608,0.5243 0.89897,0.98817 1.40775,1.39046c0.28973,0.58031 0.64708,1.13807 1.07316,1.66237zM672.16072,516.24698c0.43259,0.04085 0.86661,0.1135 1.2991,0.21936l8.99599,2.20191c4.41727,1.22418 11.38438,4.94475 16.23923,8.47638l13.69747,-0.02598c0.26716,0.20472 0.50629,-0.03249 0.72462,-0.20993l1.38699,-7.20786c0.63997,-1.24767 0.09098,-1.89243 -1.10328,-4.08629c-0.76721,-1.40935 -1.14205,-2.24804 -1.68192,-2.70469c-0.20382,-0.06591 -0.40677,-0.13951 -0.6085,-0.22095c-0.06593,-0.0299 -0.1328,-0.05951 -0.20057,-0.08884c0.2282,0.08168 0.45771,0.15356 0.68803,0.21585c-0.26224,-0.1859 -0.56849,-0.29301 -0.97392,-0.33999c0.02452,0.01159 0.04911,0.02309 0.07378,0.03449c-0.02932,-0.01211 -0.0588,-0.02416 -0.08843,-0.03616c-0.01372,-0.00153 -0.02755,-0.00299 -0.04149,-0.00439c0.09078,0.03664 0.1818,0.0717 0.27304,0.10519c0.08892,0.03924 0.17877,0.07719 0.26955,0.11384l-0.54259,-0.21904c-0.10966,-0.04427 -0.21797,-0.09045 -0.32491,-0.1385c-5.12986,-1.92683 -14.33886,-2.43136 -19.18959,-0.95954zM740.64062,599.82216c0.01767,-0.04514 0.03501,-0.09051 0.05203,-0.13609c-0.0172,0.04519 -0.03454,0.09055 -0.05203,0.13609zM682.65074,667.06213c-0.05974,0.03161 -0.11919,0.06289 -0.17837,0.09385c0.05995,-0.0307 0.11941,-0.06199 0.17837,-0.09385zM723.65448,593.85938c0.01321,-0.03459 0.02643,-0.06934 0.03964,-0.10425c-0.01341,0.03462 -0.02662,0.06937 -0.03964,0.10425zM504.14318,625.55561l49.68531,-9.34755c10.14513,-1.84215 30.48705,-2.15381 40.68385,-0.62332l4.6565,0.72913c7.60452,1.2569 22.0166,6.12848 28.82414,9.74317l4.62386,2.50568c4.36938,2.42732 12.25155,8.41044 15.76433,11.96625l1.26422,1.3068c2.05326,2.54432 4.17844,6.7538 4.75924,9.73609c0.24001,1.23241 0.31421,2.75806 0.25172,4.34492c0.12465,0.61476 0.18564,1.24505 0.17872,1.88084c7.04905,-1.72138 14.62948,-4.24477 19.32189,-6.6053c0.03614,-0.01913 0.07246,-0.03804 0.10897,-0.05674l0.42048,-0.21539c0.03637,-0.01863 0.07281,-0.03699 0.10931,-0.05508c7.6698,-3.99899 20.22572,-14.03305 25.51681,-20.4404l6.09274,-7.22409c5.58659,-6.52348 14.0543,-20.94665 17.22752,-29.2825c0.00716,-0.01958 0.01439,-0.03916 0.02169,-0.05872l0.17474,-0.46812c-0.01302,0.03487 -0.02581,0.06978 -0.03837,0.10472c0.01289,-0.03502 0.02568,-0.06993 0.03837,-0.10472v0c0.0073,-0.01956 0.01467,-0.03909 0.02209,-0.05857c3.06508,-8.37621 6.11946,-24.82008 6.1739,-33.40861l0.25998,-18.7291c0.04401,-2.30439 -0.0913,-5.29804 -0.35473,-8.54793c-1.39816,3.15638 -3.87705,7.06964 -5.99997,8.6492c-1.81425,1.3499 -5.41168,2.63069 -8.4398,3.32089c2.45826,3.76917 4.94923,8.83113 5.61161,12.08838c0.8616,4.23693 0.35142,12.70911 -0.75622,16.89064l-6.68386,22.38966c-1.22167,3.62121 -4.94019,10.14517 -7.6285,12.85819c-2.58257,2.6063 -8.69484,6.48449 -12.08265,7.89699l-23.13638,8.91537c-3.82744,1.36783 -11.72301,2.71434 -15.78029,2.49356c-3.61323,-0.19662 -10.71242,-1.40868 -14.20138,-2.36889l-19.02618,-5.39304c-4.78438,-1.38489 -13.97081,-5.10057 -18.34643,-7.47994c-3.93801,-2.1414 -7.87602,-4.28281 -7.87602,-4.28281l8.59891,-15.81325c0,0 3.93801,2.1414 7.87602,4.28281c3.5004,1.90344 10.81533,4.91546 14.6563,5.97545l19.02618,5.39304c2.51538,0.74173 7.6522,1.57073 10.27064,1.71321c2.17439,0.11832 6.33398,-0.44009 8.33003,-1.31629l23.13638,-8.91537c1.70008,-0.54807 4.51357,-2.50358 5.76887,-3.77042c1.14956,-1.16012 2.82862,-3.73402 3.16665,-5.33753l6.68386,-22.38966c0.74057,-2.00962 0.79105,-6.06014 0.3651,-8.15476c-0.39377,-1.93639 -1.93594,-5.24476 -3.434,-6.54564l-8.75395,-9.10607c-6.06021,-1.14483 -13.89383,-3.99706 -17.87657,-6.71158l-7.42377,-5.48006c-3.45016,-2.54683 -4.62417,-7.1742 -2.80548,-11.05779c0.70801,-1.51187 1.79301,-2.74751 3.09992,-3.63273c-2.48916,0.32677 -5.69903,-0.05272 -8.92554,-0.90676c-3.37577,0.99132 -7.16683,-0.05921 -9.52462,-2.96054c-0.28256,-0.45442 -0.55716,-0.94764 -0.81962,-1.46914c0.66699,0.48977 1.39003,0.87805 2.14613,1.16246c-0.83311,-0.46968 -1.60748,-0.96495 -2.30225,-1.47894c-0.29064,-0.60107 -0.56475,-1.23552 -0.81631,-1.88821c0.13198,0.58054 0.32269,1.1519 0.57307,1.70499c-0.46107,-0.35372 -0.88393,-0.71578 -1.26193,-1.08399c-2.59215,-3.18972 -2.64027,-7.61767 -0.39822,-10.82745c0.98961,-3.12728 3.42196,-6.86032 5.78242,-9.11899l3.08292,-2.2822c5.675,-4.04384 18.20538,-9.33751 25.06076,-10.58734l12.82561,-2.09877c7.27264,-1.00741 20.35064,0.60204 28.72818,3.31652c0.77363,0.14149 1.54138,0.38752 2.28444,0.74467c0.15368,0.08294 0.30834,0.1691 0.46392,0.25841c0.02736,0.01134 0.05463,0.0227 0.08181,0.03407c-0.02261,-0.00879 -0.04525,-0.01748 -0.0679,-0.02608c0.26882,0.15458 0.54034,0.31852 0.81418,0.49133c-0.22409,-0.15777 -0.45709,-0.30646 -0.69871,-0.44529c0.20499,0.08619 0.40491,0.17317 0.59949,0.26088v0c1.11492,0.53589 2.06919,1.27146 2.84053,2.14318c7.13434,5.65272 14.91095,15.88837 17.11659,23.11761l0.40315,1.58342c2.09396,8.38198 4.1069,25.40316 4.02589,34.04235l-0.25998,18.7291c-0.20219,9.95984 -3.71255,28.95872 -7.1459,38.96459c-0.05545,0.18317 -0.11706,0.36577 -0.18492,0.54756l-0.17474,0.46812v0c-0.06786,0.1818 -0.14097,0.3601 -0.2191,0.5348c-3.96287,9.80821 -13.76032,26.46023 -20.13387,34.11642l-6.09274,7.22409c-6.45409,7.52053 -21.37565,19.47071 -30.5987,24.5865c-0.18806,0.11433 -0.38165,0.22266 -0.58065,0.3246l-0.42048,0.21539c-0.20065,0.10278 -0.40334,0.1973 -0.60771,0.28368c-9.45427,4.45069 -27.6818,9.52435 -37.45686,10.36034l-18.53013,1.42304c-4.50227,0.34576 -8.56378,-2.69823 -9.49548,-7.11659c-0.9317,-4.41836 1.55488,-8.84313 5.81341,-10.34476l11.90401,-4.19754c1.03714,-0.07663 2.15875,-0.86035 2.82069,-1.83105c0.00872,-0.02228 0.01753,-0.04455 0.02643,-0.0668c-0.06397,-0.10282 -0.14132,-0.30004 -0.21018,-0.65361c-0.06884,-0.35351 -0.07117,-0.56533 -0.05047,-0.68465l-1.24186,-1.28368c-2.48584,-2.64485 -8.18753,-6.97284 -11.40338,-8.65598l-4.62386,-2.50568c-5.40155,-3.00145 -16.91791,-6.89423 -23.03273,-7.78555l-4.6565,-0.72913c-8.66665,-1.42321 -25.95226,-1.15838 -34.57124,0.52966l-49.68531,9.34755z" fill="#808080"/><path d="M500,476.15289l-9.21933,10.48338l9.21933,3.7929l9.21933,-3.7929zM536.25483,517.66895c0.09185,-0.03649 0.18189,-0.07355 0.27003,-0.11117c-0.07527,0.05724 -0.15166,0.11347 -0.22917,0.16866c-0.08673,0.04612 -0.17391,0.09068 -0.26153,0.13369c0.07313,-0.06228 0.14672,-0.12604 0.22068,-0.19118zM242.76886,544.11095c0.00102,-0.00414 0.00204,-0.00829 0.00306,-0.01243c0.00262,-0.01143 0.00522,-0.02286 0.0078,-0.0343c-0.00364,0.01562 -0.00726,0.03119 -0.01085,0.04673zM225.26831,539.90414c-0.00332,0.0133 -0.00662,0.02662 -0.00989,0.03995c-0.00103,0.0045 -0.00206,0.00901 -0.00309,0.01351c0.00397,-0.0162 0.00796,-0.03244 0.01197,-0.04871c0.00033,-0.00158 0.00067,-0.00317 0.001,-0.00475zM211.7254,475.81918c0.00598,-0.04413 0.01165,-0.08837 0.017,-0.13272c0.00205,-0.09211 0.0027,-0.18396 0.00197,-0.27552c-0.0089,0.1376 -0.01524,0.27372 -0.01897,0.40824zM465.3673,415.94749c-0.01288,-0.00391 -0.02575,-0.00786 -0.0386,-0.01183c0.01218,0.00276 0.02433,0.00555 0.03644,0.00836c0.00072,0.00115 0.00144,0.00231 0.00216,0.00347zM469.30526,398.4507c-0.02591,-0.00926 -0.05178,-0.01844 -0.07762,-0.02755c0.07508,0.01049 0.15021,0.02194 0.22537,0.03438c0.03488,0.01051 0.06965,0.02122 0.10431,0.03213c-0.08313,-0.0134 -0.16716,-0.02638 -0.25206,-0.03896zM467.07596,418.20114c0.00159,-0.02542 0.00329,-0.0508 0.0051,-0.07616c0.00037,0.00038 0.00075,0.00076 0.00112,0.00113c0.00064,0.0632 0.00059,0.12711 -0.00016,0.19169c-0.00227,-0.03882 -0.00429,-0.07771 -0.00606,-0.11666zM485.02494,418.49405c0.00667,-0.08164 0.01279,-0.16256 0.01835,-0.24274c0.00198,0.03465 0.00375,0.06936 0.00534,0.10411c-0.00451,0.07191 -0.00987,0.1436 -0.01605,0.21504c-0.00249,-0.02543 -0.00503,-0.0509 -0.00763,-0.07641zM449.65777,483.09839c-0.0134,-0.01839 -0.02673,-0.03681 -0.03997,-0.05527c0.03775,0.04486 0.076,0.08995 0.11476,0.13524c0.00795,0.01219 0.01591,0.02436 0.02387,0.03649c-0.03315,-0.03848 -0.06604,-0.0773 -0.09866,-0.11647zM535.69175,517.87787l0.06864,0.11101c-1.2054,0.54235 -2.48351,0.79816 -3.7477,0.78786c1.34561,-0.225 2.60894,-0.52765 3.67906,-0.89888zM464.03179,472.26773c-0.06087,-0.07808 -0.12277,-0.15488 -0.18567,-0.23041c-0.05789,-0.07942 -0.11727,-0.15819 -0.17815,-0.23627zM465.36913,415.95045c-0.00061,-0.00099 -0.00122,-0.00198 -0.00183,-0.00296c0.00649,0.00197 0.01298,0.00394 0.01948,0.0059c0.01905,0.00315 0.03809,0.00624 0.05714,0.00926c-0.02611,-0.00631 -0.05237,-0.01252 -0.07878,-0.01863c-0.12639,-0.20269 -0.19366,-0.23047 -0.445,-0.14524c0.13447,0.04865 0.27067,0.09431 0.40855,0.13688c-0.16433,-0.0373 -0.33417,-0.0709 -0.50891,-0.10086c-0.0034,0.00127 -0.00682,0.00255 -0.01028,0.00384c0.18662,0.04337 0.37323,0.0806 0.55962,0.1118zM470.03028,398.57227c-0.19251,-0.04474 -0.38501,-0.08294 -0.57727,-0.11474c-0.18658,-0.05624 -0.37619,-0.10685 -0.5687,-0.15159zM211.7608,475.52132c0.0095,-0.09291 0.0176,-0.18628 0.02429,-0.28009c-0.0087,0.09215 -0.0168,0.18552 -0.02429,0.28009zM449.4721,482.86798c0.06087,0.07808 0.12277,0.15488 0.18567,0.23041c0.05789,0.07942 0.11727,0.15819 0.17815,0.23627zM535.80116,518.05482l-0.04077,-0.06595c0.09169,-0.04125 0.18296,-0.08417 0.27377,-0.12875c-0.07822,0.06662 -0.15592,0.13155 -0.233,0.19469zM280.21975,442.68934c-8.16049,-0.70962 -24.15874,0.96121 -31.9965,3.34166l-2.35344,0.69158c-6.72245,1.90227 -19.00831,8.03047 -24.57173,12.2564l-0.30076,0.22372c-4.27669,2.71222 -8.53852,10.07652 -9.19015,15.53063c-0.00263,0.16844 -0.00995,0.33778 -0.02208,0.50789l-0.06361,0.89202c0.00657,-0.09216 0.01173,-0.18409 0.0155,-0.27578c-0.00568,0.09047 -0.01084,0.18192 -0.0155,0.27434c0,0.00048 0,0.00096 0,0.00144c-0.00009,0.00121 -0.00017,0.00242 -0.00026,0.00363c-0.32148,6.40278 1.77963,17.40805 4.41516,22.75357l13.26279,28.53354c1.6619,-4.31898 3.48221,-8.52473 4.94655,-11.26924l3.47167,-6.41299l1.81757,-5.74384c2.53871,-7.94095 9.16986,-23.14521 13.2623,-30.40852l3.74022,-6.59247c2.22863,-3.87813 7.40708,-11.11857 10.35691,-14.4809l5.3118,-5.98761c2.54052,-2.86375 6.54086,-3.75158 9.97366,-2.425l0.7666,-1.19404zM463.96584,517.86013c-0.08762,-0.04301 -0.1748,-0.08757 -0.26153,-0.13369c-0.07751,-0.05519 -0.1539,-0.11142 -0.22917,-0.16866c0.08814,0.03762 0.17818,0.07468 0.27003,0.11117c0.07396,0.06514 0.14754,0.1289 0.22068,0.19118zM757.22029,544.06422c0.00258,0.01143 0.00517,0.02286 0.0078,0.0343c0.00102,0.00415 0.00203,0.00829 0.00306,0.01243c-0.00359,-0.01553 -0.00721,-0.03111 -0.01085,-0.04673zM774.73269,539.9089c0.00401,0.01628 0.008,0.03251 0.01197,0.04871c-0.00103,-0.0045 -0.00206,-0.00901 -0.00309,-0.01351c-0.00327,-0.01333 -0.00656,-0.02665 -0.00989,-0.03995c0.00033,0.00158 0.00067,0.00317 0.001,0.00475zM788.25563,475.41094c-0.00074,0.09156 -0.00009,0.18341 0.00197,0.27552c0.00535,0.04435 0.01102,0.08859 0.017,0.13272c-0.00373,-0.13452 -0.01008,-0.27064 -0.01897,-0.40824zM806.19033,474.41205c-0.00007,-0.00176 -0.00014,-0.00352 -0.00021,-0.00528c0.00004,0.0003 0.00007,0.00061 0.00011,0.00091c0.00003,0.00145 0.00006,0.00291 0.0001,0.00436zM534.63486,415.94402c0.01212,-0.00281 0.02427,-0.00559 0.03644,-0.00836c-0.01285,0.00397 -0.02572,0.00791 -0.0386,0.01183c0.00072,-0.00116 0.00144,-0.00232 0.00216,-0.00347zM530.44267,398.48966c0.03466,-0.01091 0.06943,-0.02162 0.10431,-0.03213c0.07516,-0.01243 0.15029,-0.02389 0.22537,-0.03438c-0.02584,0.00911 -0.05171,0.01829 -0.07762,0.02755c-0.08491,0.01257 -0.16894,0.02556 -0.25206,0.03896zM532.91797,418.3178c-0.00074,-0.06458 -0.0008,-0.12849 -0.00016,-0.19169c0.00037,-0.00038 0.00075,-0.00075 0.00112,-0.00113c0.0018,0.02536 0.0035,0.05075 0.0051,0.07616c-0.00177,0.03895 -0.00379,0.07784 -0.00606,0.11666zM514.96743,418.57046c-0.00619,-0.07144 -0.01154,-0.14312 -0.01605,-0.21504c0.00158,-0.03476 0.00336,-0.06946 0.00534,-0.10411c0.00556,0.08018 0.01168,0.1611 0.01835,0.24274c-0.0026,0.02552 -0.00515,0.05099 -0.00763,0.07641zM550.24357,483.21486c0.00796,-0.01213 0.01592,-0.0243 0.02387,-0.03649c0.03876,-0.0453 0.07701,-0.09038 0.11476,-0.13524c-0.01324,0.01846 -0.02657,0.03688 -0.03997,0.05527c-0.03262,0.03917 -0.06551,0.07799 -0.09866,0.11647zM467.98732,518.77674c-1.26419,0.0103 -2.5423,-0.24551 -3.7477,-0.78786l0.06864,-0.11101c1.07013,0.37122 2.33345,0.67388 3.67906,0.89888zM536.33202,471.80105c-0.06087,0.07808 -0.12025,0.15685 -0.17815,0.23627c-0.0629,0.07552 -0.1248,0.15232 -0.18567,0.23041zM535.19049,415.83864c-0.00345,-0.00129 -0.00688,-0.00258 -0.01028,-0.00384c-0.17473,0.02996 -0.34458,0.06356 -0.50891,0.10086c0.13788,-0.04257 0.27409,-0.08823 0.40855,-0.13688c-0.25134,-0.08523 -0.31861,-0.05745 -0.445,0.14524c-0.02641,0.00611 -0.05267,0.01232 -0.07878,0.01863c0.01904,-0.00303 0.03809,-0.00611 0.05714,-0.00926c0.0065,-0.00196 0.01299,-0.00392 0.01948,-0.0059c-0.00061,0.00098 -0.00122,0.00197 -0.00183,0.00296c0.18639,-0.03121 0.373,-0.06843 0.55962,-0.1118zM531.11569,398.30593c-0.19251,0.04474 -0.38212,0.09535 -0.5687,0.15159c-0.19226,0.0318 -0.38476,0.07 -0.57727,0.11474zM788.21491,475.24123c0.00669,0.09381 0.01479,0.18718 0.02429,0.28009c-0.0075,-0.09457 -0.01559,-0.18794 -0.02429,-0.28009zM550.16409,483.33466c0.06087,-0.07808 0.12025,-0.15685 0.17815,-0.23627c0.0629,-0.07552 0.1248,-0.15232 0.18567,-0.23041zM463.96584,517.86013c0.09081,0.04458 0.18208,0.08749 0.27377,0.12875l-0.04077,0.06595c-0.07708,-0.06314 -0.15478,-0.12808 -0.233,-0.19469zM691.46715,449.09094c-6.28891,2.96987 -19.15364,8.20882 -25.72387,10.48976l-17.02563,5.89268c-4.16587,1.43489 -12.6236,3.86649 -16.91839,4.85041c-5.44987,1.24854 -16.20239,-0.02664 -21.40119,-2.09703l-16.39114,-7.33083c-3.79341,-1.95132 -10.05277,-7.40676 -12.11157,-11.13568c-1.03895,-1.88176 -3.57786,-5.2601 -5.16887,-6.70642l-16.20188,-15.4604c-3.12544,-3.05428 -10.19391,-7.99259 -14.13694,-9.87661l-0.50503,-0.24873c-2.47085,-1.47421 -7.35554,-2.17876 -10.61266,-1.64829c-0.02644,0.00639 -0.05294,0.01268 -0.07949,0.01885l-0.57263,0.13309c-0.12387,0.20465 -0.30916,0.56561 -0.7566,1.13396c-0.44744,0.56835 -0.75482,0.83319 -0.92468,1.00164l0.00505,0.58787c-0.00142,-0.16581 -0.00732,-0.33054 -0.01758,-0.49406c0.00128,-0.02822 0.00244,-0.05648 0.00346,-0.08477c-0.0029,0.0029 -0.00575,0.00577 -0.00856,0.00861c-0.00032,-0.00445 -0.00064,-0.0089 -0.00096,-0.01334c-0.00006,0.00482 -0.00011,0.00965 -0.00016,0.01448c-0.1782,0.18045 -0.18469,0.25028 -0.02302,0.4988c0.00944,-0.10189 0.01717,-0.20427 0.02318,-0.30711c0.00135,0.11729 0.00496,0.2368 0.01077,0.35834c0.0042,0.00625 0.00849,0.0126 0.01287,0.01906c0.00056,0.06571 0.00042,0.13127 -0.00042,0.19666c0.2302,3.41282 2.09523,8.27938 4.13285,10.48044l7.74178,9.69967c3.50622,4.54306 8.60501,14.59945 10.19756,20.11277l0.0069,0.02545c1.02662,5.23918 -0.33154,14.03406 -2.82227,20.16391c-0.2864,1.23479 -0.83951,2.42842 -1.67013,3.49388v0c-0.04768,0.05799 -0.09626,0.11638 -0.1457,0.17514c0.4657,-0.64901 0.83298,-1.34084 1.10413,-2.05702c-0.38649,0.80381 -0.79403,1.54073 -1.21889,2.19226c-0.09131,0.10672 -0.18539,0.21464 -0.28213,0.32366c0.08774,-0.09348 0.17386,-0.1892 0.25826,-0.28717c-0.02643,0.04027 -0.05292,0.08021 -0.07948,0.11981c-0.37782,0.48463 -0.79536,0.92006 -1.24443,1.30526c-0.27195,0.27699 -0.55697,0.55864 -0.8535,0.84376c4.1422,3.15317 8.80678,6.14449 12.08281,7.58858l13.00636,5.95589c3.02528,1.48191 9.42217,2.90175 12.78785,3.01518c3.57276,0.12041 10.57515,-0.65455 14.00822,-1.65243l10.02335,-2.75815c8.65832,-2.32935 24.83385,-9.54582 32.35105,-14.43293l58.14052,-37.32724c-3.47975,1.00702 -6.75493,2.15854 -8.99917,3.21836zM727.6938,446.52843l5.3118,5.98761c2.94982,3.36232 8.12828,10.60277 10.35691,14.4809l3.74022,6.59247c4.09244,7.26331 10.72359,22.46757 13.2623,30.40852l1.81757,5.74384l3.47167,6.41299c1.46434,2.74452 3.28465,6.95027 4.94655,11.26924l13.26279,-28.53354c2.63553,-5.34552 4.73664,-16.35079 4.41516,-22.75357c-0.00009,-0.00121 -0.00017,-0.00242 -0.00026,-0.00363c0,-0.00048 0,-0.00096 0,-0.00144c-0.00466,-0.09242 -0.00983,-0.18387 -0.0155,-0.27434c0.00377,0.09169 0.00893,0.18362 0.0155,0.27578l-0.06361,-0.89202c-0.01213,-0.17011 -0.01945,-0.33945 -0.02208,-0.50789c-0.65164,-5.45411 -4.91346,-12.81841 -9.19015,-15.53063l-0.30076,-0.22372c-5.56341,-4.22593 -17.84927,-10.35413 -24.57173,-12.2564l-2.35344,-0.69158c-7.83776,-2.38045 -23.83601,-4.05128 -31.9965,-3.34166l-2.8267,0.22005l0.7666,1.19404c3.43279,-1.32658 7.43313,-0.43875 9.97366,2.425zM478.00358,463.15561l3.02848,-1.61699c2.44093,-1.232 7.57256,-2.94998 10.26325,-3.43596l3.91974,-0.61524c1.65473,-0.25972 3.30298,-0.04901 4.78494,0.55371c1.48196,-0.60271 3.13021,-0.81343 4.78494,-0.55371l3.91974,0.61524c2.69069,0.48597 7.82232,2.20395 10.26325,3.43596l3.02848,1.61699c3.60087,1.98712 9.76445,6.67335 13.22259,9.98872c0.21583,-0.23205 0.41778,-0.46085 0.6036,-0.6847c0.04755,-0.06441 0.09608,-0.12839 0.1456,-0.1919c0.01277,-0.0114 0.02548,-0.02291 0.03816,-0.03451c0.0272,-0.03432 0.05399,-0.0685 0.08036,-0.10254c-0.019,0.02677 -0.03784,0.05362 -0.05651,0.08054c0.24197,-0.22497 0.46636,-0.4859 0.6716,-0.77492c-0.17447,0.17489 -0.34304,0.35826 -0.50513,0.55002c0.04661,-0.06228 0.09174,-0.12405 0.13534,-0.18526c0.18003,-0.23093 0.36909,-0.45069 0.56627,-0.65917c1.28603,-2.04935 1.69336,-5.23774 0.74978,-7.21935l-0.0069,-0.02545c-0.93363,-3.79956 -4.38047,-10.5978 -6.89368,-13.59648l-7.74178,-9.69967c-3.0512,-4.1456 -6.30292,-12.49095 -7.55558,-18.83962c-0.32082,-0.91174 -0.4991,-1.8911 -0.50786,-2.91159l-0.00848,-0.98836c0.00142,0.16581 0.00732,0.33054 0.01758,0.49406c-0.00745,0.16368 -0.01052,0.32848 -0.0091,0.49429c0.00759,-0.09243 0.01598,-0.18553 0.02515,-0.27926c0.01834,0.21174 0.044,0.42136 0.07672,0.62861c-0.02726,-0.24035 -0.05034,-0.47552 -0.06909,-0.70502c0.08145,-0.7987 0.21903,-1.64152 0.40503,-2.50342c-0.23333,0.71846 -0.37866,1.4763 -0.42338,2.26068c-0.00916,-0.13202 -0.01681,-0.26203 -0.02292,-0.38995c-0.01383,-1.6115 0.39674,-3.12771 1.12736,-4.44247c0.8812,-2.81794 2.18589,-5.57888 3.65703,-7.44754c1.39612,-1.77338 3.60858,-3.58967 5.99497,-5.06775c1.13916,-1.11631 2.58944,-1.94387 4.25657,-2.33133c0.15413,-0.02911 0.31185,-0.05664 0.47296,-0.08261c-0.71631,0.22537 -1.38691,0.53417 -2.00343,0.91297c0.76522,-0.36916 1.52377,-0.69045 2.25549,-0.95193c0.23012,-0.03407 0.46669,-0.06512 0.7092,-0.0932c-0.20992,0.01436 -0.42055,0.03617 -0.63158,0.06565c0.11516,-0.04059 0.22963,-0.07968 0.34333,-0.11722c1.123,-0.261 2.24576,-0.29937 3.32201,-0.14393c6.38437,-0.13852 14.83497,1.14278 19.3979,3.15833l0.50503,0.24873c5.12096,2.5801 14.42617,9.08108 18.61042,13.00195l16.20188,15.4604c2.50621,2.46339 6.80184,7.95261 8.5002,11.02869c0.67851,1.22892 2.32628,3.04349 3.70268,3.40434l16.39114,7.33083c2.40203,1.32903 7.36646,1.5939 10.03271,0.98307c3.82133,-0.87545 11.34815,-3.02654 15.05072,-4.31496l17.02563,-5.89268c6.1155,-2.10967 18.0751,-6.99367 23.92479,-9.75612c6.8048,-3.2135 21.16986,-6.95091 28.66682,-7.60888l5.9356,-0.46207c9.79386,-0.68808 29.02806,1.32071 38.4684,4.01757l2.35344,0.69158c8.20221,2.48346 23.32224,10.02535 30.24006,15.08377l0.30076,0.22372c6.28289,5.12063 13.38317,17.28959 15.77025,26.41229c0.35656,0.86608 0.58292,1.80301 0.65318,2.78833c0.00796,0.14634 0.01489,0.29499 0.02081,0.44587c-0.03809,-0.31541 -0.09226,-0.62535 -0.16164,-0.92904c0.06374,0.35592 0.11841,0.70498 0.1636,1.04646c-0.00035,-0.03734 -0.00094,-0.07472 -0.00176,-0.11214c0.00178,0.04554 0.00347,0.09129 0.00506,0.13724c0.01336,0.1019 0.02588,0.20311 0.03753,0.30363c-0.01066,-0.14955 -0.02493,-0.29799 -0.04269,-0.44523c-0.00331,-0.14827 -0.01025,-0.29723 -0.02092,-0.44679l0.06361,0.89202c0.03703,0.51934 0.02923,1.03153 -0.02011,1.53277c-0.11493,8.87531 -2.87887,23.01027 -6.02633,30.09185l-24.70016,53.13988c-0.16311,0.35092 -0.34694,0.68764 -0.54958,1.00904c-0.30947,2.47502 -0.72935,4.72236 -1.25021,6.49485l-2.60386,8.15168c-0.67191,1.96002 -2.42026,5.6921 -3.56934,7.41572c-0.80222,1.20333 -2.40665,3.60998 -3.20887,4.81331c-2.46806,3.70209 -8.26781,12.40171 -8.26781,12.40171l-14.97691,-9.9846c0,0 2.46806,-3.70209 4.93612,-7.40418c0.80222,-1.20333 5.73834,-8.60751 6.54056,-9.81083c0.45536,-0.68303 1.19156,-2.11289 1.39976,-2.90816l2.60386,-8.15168c0.57943,-1.61367 0.99015,-3.8406 1.215,-6.23122l-12.21707,-38.60809l-31.52705,-58.23788l-61.96049,39.77973c-8.71268,5.53276 -27.36273,13.85319 -37.30009,16.64087l-10.02335,2.75815c-4.76654,1.25844 -14.46333,2.45333 -19.39013,2.28728c-5.13388,-0.17302 -14.9688,-2.5804 -19.67576,-4.63925l-13.00636,-5.95589c-2.92923,-1.38077 -6.76583,-3.72253 -10.65155,-6.40306c0.29161,2.64941 0.17822,5.89292 -0.4851,7.73042c-0.18894,0.5234 -0.48508,1.10608 -0.85632,1.7146c-0.62521,1.98778 -1.93987,3.76902 -3.85132,4.95084l-1.0093,0.62404c0.16956,-0.10484 0.33443,-0.21439 0.49453,-0.32839c0.17353,-0.09228 0.34521,-0.19081 0.51477,-0.29565c-0.09279,0.04301 -0.18803,0.08535 -0.2856,0.12699c0.90782,-0.69035 1.65227,-1.52764 2.22046,-2.45727c-0.79796,0.94648 -1.66707,1.84318 -2.49049,2.56844c-0.18088,0.07186 -0.3688,0.14152 -0.56309,0.20892l-9.31578,-15.06708c-0.07226,0.059 -0.14341,0.11897 -0.21344,0.17986c-0.38394,0.50711 -1.00281,1.13369 -1.33917,1.45403c-0.0741,0.10089 -0.14593,0.20315 -0.2155,0.3067c0.05622,0.37974 0.19709,1.76047 0.10516,2.48712l-0.41667,-1.23998c-0.04264,-0.14946 -0.09406,-0.30801 -0.15324,-0.47391c-1.46268,2.73608 -1.46969,6.1553 0.27937,8.98417c1.68846,2.73088 4.60042,4.24361 7.59019,4.26797c-3.68142,0.61557 -7.97876,0.64991 -10.62087,-0.08301l-21.39182,-8.80076l-21.39182,8.80076c-2.6421,0.73292 -6.93945,0.69858 -10.62087,0.08301c2.98977,-0.02436 5.90173,-1.53709 7.59019,-4.26797c1.74906,-2.82887 1.74205,-6.2481 0.27937,-8.98417c-0.05919,0.16591 -0.1106,0.32445 -0.15324,0.47391l-0.41667,1.23998c-0.09193,-0.72665 0.04894,-2.10737 0.10516,-2.48712c-0.06956,-0.10355 -0.1414,-0.20581 -0.2155,-0.3067c-0.33636,-0.32034 -0.95523,-0.94692 -1.33917,-1.45403c-0.07003,-0.0609 -0.14117,-0.12086 -0.21344,-0.17986l-9.31578,15.06708c-0.19428,-0.0674 -0.3822,-0.13705 -0.56309,-0.20892c-0.82342,-0.72526 -1.69254,-1.62197 -2.49049,-2.56844c0.56819,0.92963 1.31264,1.76692 2.22046,2.45727c-0.09757,-0.04165 -0.19281,-0.08398 -0.2856,-0.12699c0.16956,0.10484 0.34124,0.20337 0.51477,0.29565c0.1601,0.114 0.32497,0.22355 0.49453,0.32839l-1.0093,-0.62404c-1.91145,-1.18183 -3.22612,-2.96306 -3.85132,-4.95084c-0.37124,-0.60852 -0.66738,-1.1912 -0.85632,-1.7146c-0.66332,-1.8375 -0.77671,-5.08101 -0.4851,-7.73042c-3.88572,2.68054 -7.72232,5.02229 -10.65155,6.40306l-13.00636,5.95589c-4.70696,2.05885 -14.54189,4.46622 -19.67576,4.63925c-4.9268,0.16605 -14.62359,-1.02884 -19.39013,-2.28728l-10.02335,-2.75815c-9.93736,-2.78767 -28.5874,-11.10811 -37.30009,-16.64087l-61.96049,-39.77973l-31.52705,58.23788l-12.21707,38.60809c0.22486,2.39062 0.63557,4.61755 1.215,6.23122l2.60386,8.15168c0.2082,0.79526 0.9444,2.22512 1.39976,2.90816c0.80222,1.20333 5.73834,8.60751 6.54056,9.81083c2.46806,3.70209 4.93612,7.40418 4.93612,7.40418l-14.97691,9.9846c0,0 -5.79975,-8.69962 -8.26781,-12.40171c-0.80222,-1.20333 -2.40665,-3.60998 -3.20887,-4.81331c-1.14908,-1.72362 -2.89742,-5.4557 -3.56934,-7.41572l-2.60386,-8.15168c-0.52086,-1.7725 -0.94074,-4.01984 -1.25021,-6.49485c-0.20265,-0.32141 -0.38647,-0.65813 -0.54958,-1.00904l-24.70016,-53.13988c-3.14746,-7.08158 -5.9114,-21.21654 -6.02633,-30.09185c-0.04935,-0.50124 -0.05715,-1.01343 -0.02011,-1.53277l0.06361,-0.89202c-0.01066,0.14955 -0.01761,0.29851 -0.02092,0.44679c-0.01777,0.14724 -0.03203,0.29568 -0.04269,0.44523c0.01166,-0.10052 0.02417,-0.20174 0.03753,-0.30363c0.0016,-0.04595 0.00328,-0.09169 0.00506,-0.13724c-0.00082,0.03742 -0.0014,0.0748 -0.00176,0.11214c0.04519,-0.34147 0.09986,-0.69054 0.1636,-1.04646c-0.06937,0.30369 -0.12355,0.61363 -0.16164,0.92904c-0.00004,0.0003 -0.00007,0.00061 -0.00011,0.00091c-0.00003,0.00145 -0.00006,0.00291 -0.0001,0.00436c0.00007,-0.00176 0.00014,-0.00352 0.00021,-0.00528v0c0.00592,-0.15088 0.01285,-0.29953 0.02081,-0.44587c0.07026,-0.98533 0.29663,-1.92226 0.65318,-2.78833c2.38708,-9.1227 9.48736,-21.29166 15.77025,-26.41229l0.30076,-0.22372c6.91782,-5.05842 22.03785,-12.60031 30.24006,-15.08377l2.35344,-0.69158c9.44034,-2.69687 28.67454,-4.70565 38.4684,-4.01757l5.9356,0.46207c7.49696,0.65796 21.86202,4.39538 28.66682,7.60888c5.84969,2.76246 17.80929,7.64645 23.92479,9.75612l17.02563,5.89268c3.70256,1.28842 11.22939,3.43951 15.05072,4.31496c2.66625,0.61083 7.63068,0.34596 10.03271,-0.98307l16.39114,-7.33083c1.3764,-0.36085 3.02417,-2.17541 3.70268,-3.40434c1.69836,-3.07608 5.99398,-8.56529 8.5002,-11.02869l16.20188,-15.4604c4.18425,-3.92088 13.48946,-10.42185 18.61042,-13.00195l0.50503,-0.24873c4.56293,-2.01555 13.01353,-3.29685 19.3979,-3.15833c1.07625,-0.15544 2.19901,-0.11707 3.32201,0.14393c0.11371,0.03754 0.22818,0.07663 0.34333,0.11722c-0.21103,-0.02948 -0.42166,-0.05129 -0.63158,-0.06565c0.24251,0.02808 0.47908,0.05912 0.7092,0.0932c0.73172,0.26148 1.49027,0.58277 2.25549,0.95193c-0.61652,-0.3788 -1.28712,-0.6876 -2.00343,-0.91297c0.16111,0.02597 0.31882,0.0535 0.47296,0.08261c1.66713,0.38746 3.11741,1.21502 4.25657,2.33133c2.3864,1.47808 4.59885,3.29437 5.99497,5.06775c1.47113,1.86866 2.77582,4.6296 3.65703,7.44754c0.73063,1.31476 1.1412,2.83097 1.12736,4.44247c-0.00611,0.12792 -0.01376,0.25793 -0.02292,0.38995c-0.04472,-0.78439 -0.19005,-1.54223 -0.42338,-2.26068c0.186,0.86191 0.32358,1.70473 0.40503,2.50342c-0.01875,0.2295 -0.04183,0.46467 -0.06909,0.70502c0.03272,-0.20725 0.05838,-0.41687 0.07672,-0.62861c0.00917,0.09372 0.01756,0.18682 0.02515,0.27926c0.00142,-0.16581 -0.00165,-0.33061 -0.0091,-0.49429c0.01026,-0.16353 0.01616,-0.32825 0.01758,-0.49406l-0.00848,0.98836c-0.00876,1.02049 -0.18703,1.99986 -0.50786,2.91159c-1.25267,6.34867 -4.50438,14.69402 -7.55558,18.83962l-7.74178,9.69967c-2.51321,2.99868 -5.96005,9.79692 -6.89368,13.59648l-0.0069,0.02545c-0.94358,1.9816 -0.53625,5.16999 0.74978,7.21935c0.19719,0.20848 0.38624,0.42824 0.56627,0.65917c0.04361,0.06121 0.08874,0.12298 0.13534,0.18526c-0.16209,-0.19176 -0.33066,-0.37512 -0.50513,-0.55002c0.20524,0.28902 0.42963,0.54995 0.6716,0.77492c-0.01867,-0.02692 -0.03751,-0.05376 -0.05651,-0.08054c0.02637,0.03404 0.05316,0.06823 0.08036,0.10254c0.01267,0.0116 0.02539,0.02311 0.03816,0.03451c0.04952,0.06352 0.09805,0.12749 0.1456,0.1919c0.18582,0.22386 0.38777,0.45265 0.6036,0.6847c3.45814,-3.31537 9.62172,-8.0016 13.22259,-9.98872zM357.6742,483.19983c7.51721,4.88712 23.69274,12.10358 32.35105,14.43293l10.02335,2.75815c3.43308,0.99787 10.43546,1.77284 14.00822,1.65243c3.36568,-0.11343 9.76257,-1.53327 12.78785,-3.01518l13.00636,-5.95589c3.27603,-1.44409 7.94061,-4.4354 12.08281,-7.58858c-0.29653,-0.28512 -0.58155,-0.56678 -0.8535,-0.84376c-0.44908,-0.3852 -0.86662,-0.82063 -1.24443,-1.30526c-0.02656,-0.0396 -0.05306,-0.07954 -0.07948,-0.11981c0.08441,0.09796 0.17052,0.19369 0.25826,0.28717c-0.09674,-0.10902 -0.19082,-0.21693 -0.28213,-0.32366c-0.42486,-0.65153 -0.8324,-1.38845 -1.21889,-2.19226c0.27115,0.71618 0.63843,1.40801 1.10413,2.05702c-0.04945,-0.05876 -0.09802,-0.11715 -0.1457,-0.17514v0c-0.83061,-1.06545 -1.38373,-2.25909 -1.67013,-3.49388c-2.49072,-6.12985 -3.84889,-14.92472 -2.82227,-20.16391l0.0069,-0.02545c1.59256,-5.51333 6.69134,-15.56971 10.19756,-20.11277l7.74178,-9.69967c2.03763,-2.20106 3.90265,-7.06763 4.13285,-10.48044c-0.00084,-0.06539 -0.00098,-0.13095 -0.00042,-0.19666c0.00438,-0.00646 0.00867,-0.01281 0.01287,-0.01906c0.00581,-0.12154 0.00942,-0.24105 0.01077,-0.35834c0.00601,0.10284 0.01374,0.20521 0.02318,0.30711c0.16167,-0.24851 0.15518,-0.31835 -0.02302,-0.4988c-0.00005,-0.00483 -0.0001,-0.00966 -0.00016,-0.01448c-0.00032,0.00445 -0.00064,0.0089 -0.00096,0.01334c-0.00281,-0.00284 -0.00566,-0.00571 -0.00856,-0.00861c0.00102,0.02829 0.00218,0.05655 0.00346,0.08477c-0.01026,0.16353 -0.01616,0.32825 -0.01758,0.49406l0.00505,-0.58787c-0.16986,-0.16845 -0.47724,-0.43329 -0.92468,-1.00164c-0.44744,-0.56835 -0.63273,-0.92931 -0.7566,-1.13396l-0.57263,-0.13309c-0.02655,-0.00617 -0.05305,-0.01245 -0.07949,-0.01885c-3.25712,-0.53047 -8.14181,0.17408 -10.61266,1.64829l-0.50503,0.24873c-3.94303,1.88402 -11.0115,6.82233 -14.13694,9.87661l-16.20188,15.4604c-1.59101,1.44632 -4.12992,4.82466 -5.16887,6.70642c-2.0588,3.72892 -8.31816,9.18436 -12.11157,11.13568l-16.39114,7.33083c-5.1988,2.07039 -15.95132,3.34558 -21.40119,2.09703c-4.29479,-0.98392 -12.75252,-3.41552 -16.91839,-4.85041l-17.02563,-5.89268c-6.57023,-2.28094 -19.43496,-7.51989 -25.72387,-10.48976c-2.24424,-1.05982 -5.51943,-2.21134 -8.99917,-3.21836z" fill="#404040"/><path d="M233.24527,558.97933c0,0 -0.61917,-4.47327 -1.23834,-8.94655l-1.38005,-9.97031c-1.35133,-10.01818 -1.60658,-30.08568 -0.5105,-40.135l0.63614,-5.65078c0.87923,-7.4971 4.36443,-22.07885 7.0359,-29.13871c2.10451,-5.56156 3.69004,-16.93711 2.94241,-22.83761l-0.35957,-3.39624c-0.73324,-8.08663 -5.96894,-22.93039 -10.4714,-29.68754l-47.6833,-73.95042l-5.32621,2.0662l-6.51007,-16.78151l1.84355,-0.71517c-3.6508,-5.53614 -8.33039,-12.50877 -11.06555,-16.46527l-3.70346,-5.3582c-1.81254,-2.62342 -5.52173,-7.81011 -7.41837,-10.37338l-3.87817,-5.24324c-2.4477,-3.30926 -2.33842,-7.85737 0.26538,-11.04525c2.60381,-3.18789 7.03852,-4.20306 10.76986,-2.46539l148.79649,69.29388c7.57285,3.63389 23.54503,7.33295 31.94437,7.39811l15.37606,0.29731c0.33909,0.1038 0.91744,-0.10363 1.23192,-0.23554c0.83444,-0.35001 2.43905,-1.16595 3.19765,-1.65945l23.56551,-14.7822c3.55547,-2.21263 10.23033,-7.2194 13.36951,-9.99113c4.96137,-4.38062 17.14522,-6.98993 23.70395,-5.97036l0.06216,0.01454c4.68968,1.40625 10.47676,4.98401 13.94617,8.66461c0.51033,0.54139 1.01548,1.13272 1.50952,1.76273l25.39482,-4.34877c9.92116,-1.64827 29.56269,-2.04905 40.03221,-0.85285c0.1401,0.01212 0.28061,0.02754 0.42145,0.04633v0l0.2547,0.03397l0.2547,-0.03397v0c0.14084,-0.01879 0.28135,-0.03421 0.42145,-0.04633c10.46952,-1.1962 30.11105,-0.79542 40.03221,0.85285l25.39482,4.34877c0.49404,-0.63001 0.99919,-1.22134 1.50952,-1.76273c3.46941,-3.6806 9.25649,-7.25836 13.94617,-8.66461l0.06216,-0.01454c6.55873,-1.01956 18.74259,1.58974 23.70395,5.97036c3.13918,2.77173 9.81404,7.7785 13.36951,9.99113l23.56551,14.7822c0.7586,0.4935 2.36321,1.30944 3.19765,1.65945c0.31448,0.13191 0.89284,0.33934 1.23192,0.23554l15.37606,-0.29731c8.39934,-0.06516 24.37153,-3.76422 31.94437,-7.39811l148.79649,-69.29388c3.73134,-1.73767 8.16605,-0.7225 10.76986,2.46539c2.60381,3.18789 2.71308,7.73599 0.26538,11.04525l-3.87817,5.24324c-1.89665,2.56327 -5.60583,7.74996 -7.41837,10.37338l-3.70346,5.3582c-2.73516,3.9565 -7.41474,10.92914 -11.06555,16.46527l1.84355,0.71517l-6.51007,16.78151l-5.32621,-2.0662l-47.6833,73.95042c-4.50246,6.75714 -9.73816,21.60091 -10.4714,29.68754l-0.35957,3.39624c-0.74763,5.9005 0.8379,17.27605 2.94241,22.83761c2.67147,7.05986 6.15667,21.64161 7.0359,29.13871l0.63614,5.65078c1.09608,10.04931 0.84083,30.11681 -0.5105,40.135c-0.61917,4.47327 -2.61839,18.91686 -2.61839,18.91686l-17.83001,-2.46796c0,0 1.99922,-14.44358 2.61839,-18.91686c1.26706,-8.89867 1.49381,-26.72537 0.4535,-35.65339l-0.63614,-5.65078c-0.6843,-6.39148 -3.70899,-18.77006 -5.98391,-24.78195c-2.84187,-7.51019 -4.73122,-23.10503 -4.00735,-31.10316l0.35957,-3.39624c1.19572,-10.13277 7.81748,-28.90619 13.24353,-37.54684l44.47119,-68.96886l-0.79788,-0.07564l-29.68586,23.04746c-5.16193,5.76914 -10.30815,11.99312 -13.31164,16.25467l-46.78388,66.00764c-0.18487,0.8366 -0.39239,1.59342 -0.6175,2.22181l-0.55286,1.30188c-1.17452,2.25964 -4.37373,6.06397 -6.39841,7.60867l-2.04787,1.3241c-3.62334,2.34274 -8.39952,1.78439 -11.38479,-1.33091c-2.98527,-3.11531 -3.3396,-7.91094 -0.84459,-11.43116l5.02739,-7.09318c-0.02215,-0.06991 -0.04763,-0.13609 -0.07653,-0.19774l-0.51931,-2.64778c-0.23478,-2.17111 -2.123,-5.76874 -3.77645,-7.19526l-4.16479,-4.26944l-26.66254,28.65305c-2.06492,1.81588 -5.6166,3.57563 -9.24609,4.77803c-1.84825,1.43158 -4.2493,2.14632 -6.74789,1.79984v0c-0.03863,-0.00554 -0.07769,-0.01121 -0.11717,-0.01702c0.03896,0.00592 0.07802,0.01159 0.11717,0.01702l-1.79605,-0.24905c-0.49246,-0.06829 -0.97005,-0.17521 -1.43014,-0.31729c-2.96379,-0.58456 -6.54231,-1.42095 -8.95342,-2.10867c-0.16845,-0.04247 -0.33668,-0.09002 -0.50453,-0.14275c-0.00523,-0.00294 -0.01048,-0.00587 -0.01575,-0.00879c-0.05063,-0.01508 -0.10059,-0.03007 -0.14986,-0.04496c0.05491,0.0184 0.11012,0.03632 0.16561,0.05375l-0.36814,-0.11563c-0.25917,-0.08141 -0.51206,-0.17346 -0.75832,-0.27551c-1.4912,-0.28567 -3.40344,0.05567 -4.41679,0.9023l-8.87702,4.71497c-7.80509,4.12438 -24.02336,10.92243 -32.43653,13.59609l-2.63417,0.83097c-5.52291,1.73117 -14.27944,3.86775 -22.69789,5.63264c-1.97111,2.17897 -4.28209,4.14662 -6.46023,5.43846l-0.15272,0.07476c-6.91104,3.17531 -21.39091,5.60382 -28.95975,4.85701l-20.40632,-2.52068l-20.40632,2.52068c-7.56884,0.74681 -22.04872,-1.6817 -28.95975,-4.85701l-0.15272,-0.07476c-2.17814,-1.29184 -4.48912,-3.25949 -6.46023,-5.43846c-8.41844,-1.76489 -17.17497,-3.90147 -22.69789,-5.63264l-2.63417,-0.83097c-8.41318,-2.67366 -24.63144,-9.47171 -32.43653,-13.59609l-8.87702,-4.71497c-1.01334,-0.84663 -2.92559,-1.18796 -4.41679,-0.9023c-0.24627,0.10206 -0.49915,0.1941 -0.75832,0.27551l-0.36814,0.11563c0.05549,-0.01743 0.1107,-0.03535 0.16561,-0.05375c-0.04927,0.01489 -0.09923,0.02988 -0.14986,0.04496c-0.00527,0.00291 -0.01052,0.00584 -0.01575,0.00879c-0.16784,0.05272 -0.33608,0.10027 -0.50453,0.14275c-2.41111,0.68771 -5.98963,1.52411 -8.95342,2.10867c-0.46009,0.14208 -0.93768,0.249 -1.43014,0.31729l-1.79605,0.24905c0.03915,-0.00543 0.07821,-0.0111 0.11717,-0.01702c-0.03948,0.0058 -0.07854,0.01148 -0.11717,0.01702v0c-2.4986,0.34648 -4.89965,-0.36827 -6.74789,-1.79984c-3.62949,-1.2024 -7.18116,-2.96215 -9.24609,-4.77803l-26.66254,-28.65305l-4.16479,4.26944c-1.65344,1.42652 -3.54166,5.02415 -3.77645,7.19526l-0.51931,2.64778c-0.0289,0.06165 -0.05439,0.12783 -0.07653,0.19774l5.02739,7.09318c2.49501,3.52022 2.14068,8.31586 -0.84459,11.43116c-2.98527,3.11531 -7.76146,3.67366 -11.38479,1.33091l-2.04787,-1.3241c-2.02469,-1.5447 -5.2239,-5.34903 -6.39841,-7.60867l-0.55286,-1.30188c-0.22511,-0.62839 -0.43264,-1.3852 -0.6175,-2.22181l-46.78388,-66.00764c-3.0035,-4.26155 -8.14971,-10.48552 -13.31164,-16.25467l-29.68586,-23.04746l-0.79788,0.07564l44.47119,68.96886c5.42605,8.64065 12.04782,27.41407 13.24353,37.54684l0.35957,3.39624c0.72387,7.99813 -1.16548,23.59297 -4.00735,31.10316c-2.27491,6.01189 -5.29961,18.39047 -5.98391,24.78195l-0.63614,5.65078c-1.04031,8.92802 -0.81356,26.75472 0.4535,35.65339c0.61917,4.47327 2.61839,18.91686 2.61839,18.91686zM601.47818,359.28463c4.28804,2.42727 9.34673,5.63859 12.13578,7.77966l2.20839,1.7158c1.14229,1.08974 2.35928,2.57837 3.39819,4.13394c3.30433,0.97218 6.58895,2.00502 9.53266,3.0041c-5.45974,-6.79603 -15.87354,-16.33112 -22.59816,-20.58672c-0.00929,-0.00571 -0.01857,-0.01145 -0.02784,-0.0172l-0.5361,-0.3325c0.0397,0.02462 0.07952,0.0489 0.11945,0.07283c-0.03996,-0.02448 -0.07978,-0.04876 -0.11945,-0.07283v0c-0.00927,-0.00575 -0.01853,-0.01152 -0.02778,-0.0173c-2.92255,-1.77613 -7.02132,-3.72931 -11.42137,-5.52784c3.00171,2.54835 5.86501,6.33845 7.33623,9.84805zM672.61407,384.83732c1.23528,0.04013 3.68713,0.30192 4.89346,0.56976c1.47491,0.32747 3.75193,1.57447 5.48173,2.74623l41.03059,-44.09376l-22.41093,10.43667c-9.34171,4.24314 -28.93937,8.78184 -39.19532,9.07738l-15.37606,0.29731c-1.40827,-0.03493 -3.67682,-0.34454 -5.66074,-0.78583c1.28397,1.464 2.41865,2.84923 3.35169,4.10713l12.72042,17.44286zM437.85829,450.93323l1.5052,-6.78579c0.37659,-1.12281 1.08036,-2.58601 1.94658,-4.05167l-18.52985,3.59852c-2.21755,0.41752 -4.92471,0.77277 -7.9083,1.0594c3.4891,1.37048 6.73711,2.55333 9.23218,3.334l2.63417,0.83097c2.90156,0.92165 6.77589,1.9615 11.00926,2.98602c0.02994,-0.33127 0.06682,-0.65552 0.11076,-0.97143zM355.2715,367.19221c0.93305,-1.2579 2.06772,-2.64312 3.35169,-4.10713c-1.98392,0.44129 -4.25246,0.7509 -5.66074,0.78583l-15.37606,-0.29731c-10.25595,-0.29555 -29.85361,-4.83424 -39.19532,-9.07738l-22.41093,-10.43667l41.03059,44.09376c1.72981,-1.17176 4.00682,-2.41875 5.48173,-2.74623c1.20632,-0.26784 3.65818,-0.52963 4.89346,-0.56976l15.16515,-0.20225zM525.26068,343.77306c-7.75117,-2.8523 -18.10624,-5.75138 -25.26068,-7.00476c-7.15444,1.25338 -17.50951,4.15246 -25.26068,7.00476c7.07552,-0.51981 17.08724,-0.32099 25.26068,0.39946c8.17344,-0.72045 18.18516,-0.91927 25.26068,-0.39946zM419.3487,426.0244l33.44178,-6.49443l-42.68333,-8.28915c-5.62149,5.72076 -13.79204,11.83052 -20.58971,15.33431c-0.43152,0.32954 -0.89713,0.6228 -1.39379,0.87381c9.34564,0.69255 23.63416,0.10205 31.22505,-1.42454zM511.00548,408.22455l17.2674,-4.8885c-5.16684,-2.31864 -10.35709,-5.07931 -13.49375,-7.31857l-14.77914,-10.83391l-14.77914,10.83391c-3.13666,2.23926 -8.32691,4.99993 -13.49375,7.31857l17.2674,4.8885l11.00548,2.13728zM454.71868,390.42416l1.29198,-0.3108c2.93565,-0.65414 7.2468,-2.35263 11.17567,-4.28011l-20.9777,0.63503c0.283,0.52701 0.58249,1.01863 0.8939,1.46099l0.85351,1.05103c0.13922,0.17144 0.27109,0.34644 0.39566,0.52464c1.73413,1.43553 4.40659,1.92812 6.36697,0.91921zM351.77977,406.72065c0.00036,0.00293 0.00073,0.00586 0.00109,0.00879c0.21368,0.1039 0.56835,0.26412 1.11545,0.63891c1.33078,0.91163 1.06651,1.22011 1.59827,0.79337l2.54461,-0.19917c3.77095,-0.21969 9.84019,-1.79816 14.69927,-3.66523c-4.94234,-0.57702 -10.36893,-1.06045 -15.32071,-1.36447c-1.84294,1.32176 -3.49362,2.65306 -4.63798,3.78782zM700.55817,405.71883c1.16537,1.29303 2.47811,3.20669 3.72773,5.33991l12.76652,-18.01235c-5.93007,4.04013 -12.45094,8.26481 -17.6981,11.43834zM393.84497,355.33142c-6.72463,4.2556 -17.13842,13.79069 -22.59816,20.58672c2.94371,-0.99908 6.22833,-2.03192 9.53266,-3.0041c1.03891,-1.55557 2.2559,-3.0442 3.39819,-4.13394l2.20839,-1.7158c2.78905,-2.14107 7.84774,-5.35239 12.13578,-7.77966c1.47123,-3.50959 4.33453,-7.29969 7.33623,-9.84805c-4.40005,1.79853 -8.49882,3.75171 -11.42137,5.52784c-0.00925,0.00578 -0.01851,0.01155 -0.02778,0.0173v0c-0.03967,0.02407 -0.07949,0.04835 -0.11945,0.07283c0.03993,-0.02393 0.07975,-0.04821 0.11945,-0.07283l-0.5361,0.3325c-0.00927,0.00575 -0.01855,0.01149 -0.02784,0.0172zM393.99114,355.23957c-0.03969,0.02492 -0.07913,0.0498 -0.11833,0.07464c0.0397,-0.02462 0.07915,-0.04951 0.11833,-0.07464zM474.68233,440.35717l-15.27227,7.12196c-0.67753,0.30388 -1.81018,0.93701 -2.67334,1.46627l-1.30556,5.88578c-0.17891,0.28795 -0.26252,0.52809 -0.26569,0.77771c3.16154,0.57514 6.04902,1.03502 8.38062,1.31834l36.45391,4.50294l36.45391,-4.50294c2.3316,-0.28332 5.21908,-0.7432 8.38062,-1.31834c-0.00317,-0.24962 -0.08678,-0.48976 -0.26569,-0.77771l-1.30556,-5.88578c-0.86316,-0.52926 -1.9958,-1.16239 -2.67334,-1.46627l-15.27227,-7.12196c-5.99771,-2.80811 -16.45752,-6.87209 -25.31767,-9.9371c-8.86015,3.06501 -19.31996,7.12899 -25.31767,9.9371zM573.26173,448.91865l2.63417,-0.83097c2.49507,-0.78067 5.74308,-1.96351 9.23218,-3.334c-2.98359,-0.28663 -5.69074,-0.64188 -7.9083,-1.0594l-18.52985,-3.59852c0.86622,1.46566 1.56999,2.92887 1.94658,4.05167l1.5052,6.78579c0.04394,0.31592 0.08081,0.64016 0.11076,0.97143c4.23337,-1.02452 8.1077,-2.06437 11.00926,-2.98602zM610.48257,426.57513c-6.79767,-3.50379 -14.96822,-9.61356 -20.58971,-15.33431l-42.68333,8.28915l33.44178,6.49443c7.59089,1.52659 21.87942,2.1171 31.22505,1.42454c-0.49665,-0.25101 -0.96226,-0.54428 -1.39379,-0.87381zM639.05596,449.00029c0.21383,0.02965 0.42694,0.05153 0.63906,0.06585c-0.1104,-0.01883 -0.22278,-0.03832 -0.337,-0.05843c-0.1021,-0.00121 -0.2028,-0.00367 -0.30205,-0.00742zM627.79974,446.31596c0.03771,0.01184 0.07544,0.02343 0.11318,0.03475c-0.03817,-0.01165 -0.0759,-0.02323 -0.11318,-0.03475zM447.11598,387.94832c0.09369,0.13251 0.18845,0.26055 0.28415,0.38375c-0.09084,-0.12966 -0.18555,-0.25763 -0.28415,-0.38375zM447.50962,388.47038c0.14687,0.18199 0.29583,0.35241 0.44643,0.50993c-0.14362,-0.17686 -0.29258,-0.34685 -0.44643,-0.50993zM447.8386,389.02243c-0.11762,-0.20522 -0.24411,-0.40713 -0.37953,-0.60519c-0.09141,-0.09533 -0.18451,-0.18825 -0.27922,-0.27875c0.18368,0.31745 0.4058,0.61295 0.65874,0.88394zM756.92236,340.02266c0.30865,-0.3412 0.6168,-0.68036 0.92407,-1.01705c-5.57728,3.77914 -12.11373,8.95553 -16.6512,13.22726zM627.23527,446.08171c0.24313,0.10678 0.49295,0.2037 0.74914,0.29013c0.05125,0.01492 0.10252,0.02936 0.15382,0.04333c-0.26562,-0.14502 -0.57183,-0.25569 -0.90296,-0.33347zM639.67959,449.00744c0.09286,0.02566 0.1864,0.04991 0.28059,0.07271c1.10973,0.04229 2.18859,-0.12149 3.19518,-0.46005c-1.24651,0.23664 -2.4272,0.37362 -3.47577,0.38734zM551.64829,389.50495c0.12457,-0.1782 0.25644,-0.35321 0.39566,-0.52464l0.85351,-1.05103c0.31141,-0.44236 0.61091,-0.93398 0.8939,-1.46099l-20.9777,-0.63503c3.92886,1.92747 8.24001,3.62596 11.17567,4.28011l1.29198,0.3108c1.96038,1.00891 4.63284,0.51632 6.36697,-0.91921zM642.9608,407.96254l2.54461,0.19917c0.53176,0.42674 0.26749,0.11826 1.59827,-0.79337c0.5471,-0.37479 0.90177,-0.53501 1.11545,-0.63891c0.00037,-0.00293 0.00073,-0.00586 0.00109,-0.00879c-1.14437,-1.13475 -2.79505,-2.46605 -4.63798,-3.78782c-4.95177,0.30402 -10.37836,0.78745 -15.32071,1.36447c4.85908,1.86708 10.92832,3.44555 14.69927,3.66523zM300.64568,404.48473c-5.24715,-3.17353 -11.76803,-7.39821 -17.6981,-11.43834l12.76652,18.01235c1.24962,-2.13322 2.56236,-4.04688 3.72773,-5.33991zM606.12719,355.31422c-0.0392,-0.02484 -0.07864,-0.04972 -0.11833,-0.07464c0.03918,0.02514 0.07863,0.05002 0.11833,0.07464zM360.64199,449.00771c-0.11422,0.02012 -0.22661,0.0396 -0.337,0.05843c0.21211,-0.01432 0.42523,-0.0362 0.63906,-0.06585c-0.09925,0.00375 -0.19996,0.00621 -0.30205,0.00742zM372.08708,446.35071c0.03775,-0.01132 0.07547,-0.02291 0.11318,-0.03475c-0.03728,0.01152 -0.07501,0.02311 -0.11318,0.03475zM552.59987,388.33207c0.09571,-0.1232 0.19047,-0.25124 0.28415,-0.38375c-0.0986,0.12613 -0.19331,0.25409 -0.28415,0.38375zM552.04395,388.98031c0.15061,-0.15752 0.29956,-0.32794 0.44643,-0.50993c-0.15386,0.16308 -0.30281,0.33307 -0.44643,0.50993zM552.82014,388.13849c-0.09471,0.0905 -0.18781,0.18342 -0.27922,0.27875c-0.13542,0.19807 -0.26191,0.39997 -0.37953,0.60519c0.25294,-0.27098 0.47506,-0.56649 0.65874,-0.88394zM258.80477,352.23287c-4.53748,-4.27172 -11.07392,-9.44811 -16.6512,-13.22726c0.30727,0.33669 0.61542,0.67585 0.92407,1.01705zM371.86176,446.41517c0.0513,-0.01397 0.10258,-0.02841 0.15382,-0.04333c0.25619,-0.08643 0.50601,-0.18335 0.74914,-0.29013c-0.33113,0.07777 -0.63734,0.18845 -0.90296,0.33347zM356.84464,448.62009c1.00659,0.33856 2.08544,0.50235 3.19518,0.46005c0.09419,-0.0228 0.18773,-0.04705 0.28059,-0.07271c-1.04857,-0.01373 -2.22926,-0.1507 -3.47577,-0.38734zM500,362.86525l0.81325,-0.59616c-0.26741,-0.03206 -0.53859,-0.06326 -0.81325,-0.09361c-0.27466,0.03035 -0.54584,0.06156 -0.81325,0.09361z" fill="#bfbfbf"/><path d="M390.19827,728.24463c-2.29657,-8.6837 -2.51609,-26.22761 -0.68628,-35.02244l0.6469,-2.90155c2.17482,-9.16711 10.20292,-25.72029 16.25225,-32.94214c1.82006,-2.17284 4.42667,-4.72294 7.40606,-7.33642l-17.15338,6.39505c-8.07763,2.92509 -22.46361,11.6819 -28.77197,17.51361l-10.56602,9.58466c-0.90734,0.7138 -2.17448,2.53349 -2.67973,3.56837c-0.31581,0.64685 -0.69301,1.82169 -0.41958,2.51313l3.19757,25.79693c-0.12623,0.49608 0.33976,1.1163 0.64722,1.48071c0.73801,0.87474 2.38229,2.41169 3.35283,3.01968l12.89178,8.75105c4.62677,3.17204 12.54047,7.4265 19.9527,10.88853c-1.7836,-4.22116 -3.25945,-8.24299 -4.07036,-11.30918zM442.35306,614.66823l0.60328,-1.28201c2.7906,-5.69945 10.31971,-15.62001 15.05822,-19.84112l9.45048,-8.15964c2.03086,-1.50217 5.36574,-3.00622 8.67661,-4.06005l-5.36241,-37.32688c-0.54591,-3.79997 1.37866,-7.52791 4.79268,-9.28354c3.41402,-1.75563 7.56584,-1.15244 10.33913,1.50212l6.97972,6.68092c2.43914,2.56836 5.09086,7.06231 7.10923,11.66033c2.01837,-4.59802 4.67009,-9.09197 7.10923,-11.66033l6.97972,-6.68092c2.77329,-2.65456 6.92511,-3.25776 10.33913,-1.50212c3.41402,1.75563 5.33859,5.48357 4.79268,9.28354l-5.36241,37.32688c3.31087,1.05383 6.64575,2.55788 8.67661,4.06005l9.45048,8.15964c4.73851,4.22111 12.26762,14.14166 15.05822,19.84112l0.60328,1.28201c0.71155,2.08278 1.0292,4.69939 1.00714,7.4753c5.03889,0.93413 9.67708,2.07224 13.05718,3.2931l37.91283,14.1345c9.61324,3.67034 26.90214,14.19416 34.57779,21.04764l10.56602,9.58466c2.05714,1.97534 5.51046,6.44148 6.76119,9.0033c1.44017,2.94984 2.3266,9.34375 2.10769,12.62436l-3.19757,25.79693c-0.55878,2.99358 -2.79285,8.55061 -4.75292,10.87379c-1.52951,1.81286 -5.06213,4.93842 -7.00098,6.30534l-12.89178,8.75105c-8.56295,5.76178 -26.90053,14.83698 -36.67517,18.15039l-6.72813,2.25019l-4.49906,6.55887c0.14277,3.83345 -0.33106,7.95106 -1.50904,11.15612c-1.6683,4.53912 -5.83974,9.69318 -10.11459,12.77863l-1.43885,0.91998c-8.3768,5.26202 -26.06772,12.35221 -36.35906,14.64233c-0.21065,0.05551 -0.42482,0.10384 -0.6423,0.14466l-0.61287,0.11504c-0.25716,0.04827 -0.51382,0.08508 -0.76945,0.1108c-9.59903,1.42557 -26.29845,1.39513 -36.44499,-0.04054c-10.14653,1.43567 -26.84595,1.46611 -36.44499,0.04054c-0.25563,-0.02572 -0.51229,-0.06253 -0.76945,-0.1108l-0.61287,-0.11504c-0.21748,-0.04082 -0.43165,-0.08915 -0.6423,-0.14466c-10.29134,-2.29012 -27.98226,-9.38031 -36.35906,-14.64233l-1.43885,-0.91998c-4.27484,-3.08546 -8.44628,-8.23951 -10.11459,-12.77863c-1.17798,-3.20506 -1.65181,-7.32267 -1.50904,-11.15612l-4.49906,-6.55887l-6.72813,-2.25019c-9.77464,-3.31341 -28.11222,-12.38861 -36.67517,-18.15039l-12.89178,-8.75105c-1.93885,-1.36692 -5.47148,-4.49248 -7.00098,-6.30534c-1.96007,-2.32318 -4.19414,-7.88022 -4.75292,-10.87379l-3.19757,-25.79693c-0.21891,-3.28061 0.66752,-9.67453 2.10769,-12.62436c1.25073,-2.56182 4.70405,-7.02796 6.76119,-9.0033l10.56602,-9.58466c7.67565,-6.85348 24.96454,-17.3773 34.57779,-21.04764l37.91283,-14.1345c3.3801,-1.22086 8.01829,-2.35897 13.05718,-3.2931c-0.02206,-2.77591 0.29559,-5.39252 1.00714,-7.4753zM498.41778,593.90756c0.45865,2.43465 0.61397,6.19519 0.49424,9.81988c0.33914,0.75995 0.70321,1.52108 1.08797,2.27517c0.38476,-0.75409 0.74884,-1.51522 1.08797,-2.27517c-0.11973,-3.62469 0.03559,-7.38523 0.49424,-9.81988l0.06069,-0.28058c-0.58027,-1.22775 -1.13111,-2.53973 -1.6429,-3.89848c-0.5118,1.35875 -1.06263,2.67073 -1.6429,3.89848zM528.1827,612.18402c0.12152,0.58918 0.18546,1.19941 0.18567,1.82454l0.0001,0.31406c-0.00014,-0.4318 -0.03069,-0.85649 -0.08962,-1.27204c0.04069,0.42374 0.07019,0.83296 0.0878,1.22559c-0.16441,1.83132 -0.65596,3.84633 -1.40065,5.92935c0.02787,-0.0026 0.05565,-0.00516 0.08334,-0.00766l4.94913,-0.37648c2.31074,-0.15199 5.11385,-0.12613 8.17993,0.04512c-2.18264,-4.13751 -6.81969,-10.10684 -9.95634,-12.69705l-3.8762,-3.34675c0.87184,2.95804 1.52499,5.86855 1.83685,8.36132zM518.20359,788.43235c6.10936,-1.18759 17.80332,-5.12236 23.38791,-7.86954l9.35762,-4.53595c0.85208,-0.3729 2.36525,-1.40304 3.07315,-2.00528c0.13626,-0.11592 0.38609,-0.1558 0.24333,-0.38107l0.65134,-2.34723c0.71577,-2.57942 2.54261,-4.70634 4.98445,-5.80323l0.1812,-0.0814c4.43557,-1.92133 12.27736,-7.2743 15.77322,-10.61205c0.88733,-0.8472 1.81669,-1.93397 3.06489,-3.61944c0.42927,-0.57493 0.92326,-1.09318 1.46976,-1.54594l0.28335,-0.41307c4.09875,-5.85879 9.89815,-18.6635 11.72622,-25.57573c1.75192,-6.62431 2.13521,-19.84325 0.51934,-26.50328l-0.6469,-2.90155c-1.46167,-7.14361 -7.80084,-19.71187 -12.4823,-25.30072c-4.76635,-5.6902 -16.09053,-14.686 -22.79824,-17.86605l-4.08223,-2.0016c-2.97772,-1.51042 -7.70552,-3.01041 -13.05307,-4.31566c-3.41115,-0.84036 -5.99336,-3.57722 -6.67197,-6.9704l-4.77,0.36285c-0.33288,0.01886 -0.68344,0.04803 -1.04933,0.08681l7.1804,27.9215c1.17096,4.55334 -1.36012,9.24078 -5.80965,10.75922c-4.44954,1.51845 -9.31812,-0.64379 -11.17502,-4.96304l-2.19111,-5.09665c-0.74987,-1.89714 -2.91052,-5.26776 -4.32131,-6.74123l-3.23531,-3.58581c-1.72746,-1.96611 -4.7704,-4.64324 -7.81331,-6.98331c-3.04291,2.34008 -6.08585,5.0172 -7.81331,6.98331l-3.23531,3.58581c-1.41079,1.47347 -3.57145,4.84409 -4.32131,6.74123l-2.19111,5.09665c-1.8569,4.31926 -6.72549,6.48149 -11.17502,4.96304c-4.44954,-1.51845 -6.98061,-6.20588 -5.80965,-10.75922l7.1804,-27.9215c-0.3659,-0.03878 -0.71645,-0.06795 -1.04933,-0.08681l-4.77,-0.36285c-0.67861,3.39318 -3.26081,6.13005 -6.67197,6.9704c-5.34755,1.30525 -10.07535,2.80525 -13.05307,4.31566l-4.08223,2.0016c-6.70771,3.18005 -18.03189,12.17585 -22.79824,17.86605c-4.68146,5.58885 -11.02062,18.15711 -12.4823,25.30072l-0.6469,2.90155c-1.61586,6.66003 -1.23258,19.87898 0.51934,26.50328c1.82807,6.91223 7.62747,19.71694 11.72622,25.57573l0.28335,0.41307c0.5465,0.45276 1.04048,0.97101 1.46976,1.54594c1.24821,1.68547 2.17756,2.77224 3.06489,3.61944c3.49586,3.33775 11.33765,8.69071 15.77322,10.61205l0.1812,0.0814c2.44184,1.09688 4.26867,3.22381 4.98445,5.80323l0.65134,2.34723c-0.14276,0.22527 0.10707,0.26515 0.24333,0.38107c0.70789,0.60223 2.22106,1.63238 3.07315,2.00528l9.35762,4.53595c5.58459,2.74718 17.27855,6.68195 23.38791,7.86954l18.20359,3.64833zM625.68408,728.66527l12.89178,-8.75105c0.97054,-0.60799 2.61482,-2.14494 3.35283,-3.01968c0.30745,-0.36441 0.77345,-0.98463 0.64722,-1.48071l3.19757,-25.79693c0.27343,-0.69145 -0.10377,-1.86628 -0.41958,-2.51313c-0.50525,-1.03487 -1.77238,-2.85456 -2.67973,-3.56837l-10.56602,-9.58466c-6.30836,-5.83171 -20.69434,-14.58852 -28.77197,-17.51361l-17.15338,-6.39505c2.9794,2.61348 5.586,5.16358 7.40606,7.33642c6.04932,7.22185 14.07743,23.77503 16.25225,32.94214l0.6469,2.90155c1.82981,8.79483 1.61028,26.33874 -0.68628,35.02244c-0.81091,3.06619 -2.28676,7.08802 -4.07036,11.30918c7.41223,-3.46203 15.32593,-7.71649 19.9527,-10.88853zM469.77794,607.16945c-3.13665,2.59021 -7.77369,8.55955 -9.95634,12.69705c3.06608,-0.17126 5.86919,-0.19711 8.17993,-0.04512l4.94913,0.37648c0.02769,0.0025 0.05547,0.00506 0.08334,0.00766c-0.7447,-2.08302 -1.23624,-4.09803 -1.40065,-5.92935c0.01762,-0.39263 0.04711,-0.80185 0.0878,-1.22559c-0.05893,0.41555 -0.08948,0.84024 -0.08962,1.27204l0.0001,-0.31406c0.00021,-0.62514 0.06415,-1.23536 0.18567,-1.82454c0.31186,-2.49277 0.965,-5.40329 1.83685,-8.36132z" fill="#bfbfbf"/><path d="M500,700.20732c2.36667,2.93083 6.40582,4.14412 10.09622,2.79239l3.21608,-1.17799l6.36339,12.22924c1.21617,2.31546 3.17285,5.55684 5.28444,8.82858l-17.90694,-6.33185c-1.9045,-1.71474 -4.47702,-2.55148 -7.05319,-2.25392c-2.57618,-0.29756 -5.14869,0.53917 -7.05319,2.25392l-17.90694,6.33185c2.11159,-3.27174 4.06827,-6.51312 5.28444,-8.82858l6.36339,-12.22924l3.21608,1.17799c3.6904,1.35172 7.72955,0.13843 10.09622,-2.79239z" fill="#808080"/></g></svg>