<svg version="1.1" xmlns="http://www.w3.org/2000/svg" xmlns:xlink="http://www.w3.org/1999/xlink" viewBox="0 0 1000 1000"><g fill="none" fill-rule="nonzero" stroke="#000000" stroke-width="6" stroke-linecap="round" stroke-linejoin="round" stroke-miterlimit="none" stroke-dasharray="" stroke-dashoffset="0" font-family="none" font-weight="none" font-size="none" text-anchor="none" style="mix-blend-mode:normal"><g fill="none" stroke-miterlimit="NaN" font-family="none" font-weight="none" font-size="NaN" text-anchor="start"><g stroke-miterlimit="NaN" font-size="NaN"/></g><path d="M303.62857,587.15116l4.06432,13.12958c1.59237,5.58067 7.35866,15.19343 11.53257,19.22554l8.49658,8.58144c1.6781,1.87835 5.79105,4.40145 8.2259,5.0462l3.0515,0.97794c0.96522,0.41317 2.95856,0.6134 3.98667,0.40046l1.89241,-0.20884c0.69,-0.38939 1.59336,-0.88302 2.11058,-1.15246l1.08079,-0.56032c0.47568,-0.24492 1.43721,-0.71398 1.92429,-0.93538c0.38126,-0.17331 0.76253,-0.34661 0.76253,-0.34661l7.44845,16.3866c0,0 -0.38126,0.17331 -0.76253,0.34661c-0.27546,0.1252 -0.82008,0.38827 -1.08801,0.52887l-1.08079,0.56032c-0.47055,0.24226 -1.39624,0.75465 -1.85289,1.02218c-1.36642,0.80053 -4.39607,1.70242 -5.95932,1.97441l-2.50113,0.27601c-2.91482,0.22218 -8.64206,-0.35312 -11.45446,-1.1506l-3.0515,-0.97794c-4.39427,-1.54384 -12.15603,-6.30531 -15.52351,-9.52293l-8.49658,-8.58144c-5.49633,-5.73472 -13.46461,-19.01835 -15.93656,-26.56727l-4.06432,-13.12958z" fill="#d62d0e" stroke-miterlimit="0"/><path d="M713.56644,592.47395l-4.06432,13.12958c-2.47195,7.54892 -10.44023,20.83255 -15.93656,26.56727l-8.49658,8.58144c-3.36748,3.21762 -11.12924,7.97909 -15.52351,9.52293l-3.0515,0.97794c-2.8124,0.79748 -8.53964,1.37278 -11.45446,1.1506l-2.50113,-0.27601c-1.56325,-0.27199 -4.5929,-1.17388 -5.95932,-1.97441c-0.45665,-0.26753 -1.38234,-0.77992 -1.85289,-1.02218l-1.08079,-0.56032c-0.26793,-0.1406 -0.81255,-0.40367 -1.08801,-0.52887c-0.38127,-0.1733 -0.76253,-0.34661 -0.76253,-0.34661l7.44845,-16.3866c0,0 0.38127,0.1733 0.76253,0.34661c0.48708,0.2214 1.44861,0.69046 1.92429,0.93538l1.08079,0.56032c0.51722,0.26944 1.42058,0.76307 2.11058,1.15246l1.89241,0.20884c1.02811,0.21294 3.02145,0.01271 3.98667,-0.40046l3.0515,-0.97794c2.43485,-0.64475 6.5478,-3.16785 8.2259,-5.0462l8.49658,-8.58144c4.17391,-4.03211 9.9402,-13.64487 11.53257,-19.22554l4.06432,-13.12958z" fill="#d62d0e" stroke-miterlimit="0"/><path d="M351.15956,576.70504l13.16804,46.34575c2.24997,8.23238 9.85144,23.11276 15.20294,29.76076l3.30125,4.18639c3.36551,4.40626 11.64751,11.38 16.48001,14.09686c5.22198,2.93583 16.11317,7.78388 21.80229,9.6607l6.38185,2.12937c8.93957,3.00419 27.2307,7.22878 36.58226,8.44917l35.9218,4.76658l35.9218,-4.76658c9.35156,-1.22039 27.64269,-5.44498 36.58226,-8.44917l6.38185,-2.12937c5.68912,-1.87681 16.58031,-6.72487 21.80229,-9.6607c4.8325,-2.71686 13.1145,-9.69061 16.48001,-14.09686l3.30125,-4.18639c5.3515,-6.648 12.95297,-21.52838 15.20294,-29.76076l13.16804,-46.34575l17.31468,4.91955l-13.16804,46.34575c-2.89251,9.86687 -12.08425,27.86033 -18.38349,35.98691l-3.30125,4.18639c-4.58236,5.67263 -15.43684,15.06806 -21.79294,18.6415c-5.96662,3.35447 -18.43976,8.85926 -24.92637,11.04499l-6.38185,2.12937c-8.09485,2.68317 -23.19739,6.31029 -33.93198,8.25403c0.13732,2.23598 -0.5616,4.35745 -1.84711,6.03058l17.11098,3.22416c4.39848,0.82879 7.51951,4.76386 7.32499,9.23551c-0.04476,1.02899 -0.26196,2.01443 -0.62414,2.92727l9.18213,0.91473c2.29417,0.23093 6.89284,0.53863 9.19733,0.61539l2.44202,0.08386c1.08113,0.0395 3.24354,0.04349 4.32482,0.00798l2.45485,-0.07524c4.90075,-0.1502 9.02002,3.65005 9.26451,8.547c0.24449,4.89695 -3.47578,9.0886 -8.36712,9.42728l-40.20226,2.78364l-1.80293,8.6206c0,0 -1.14239,-0.23892 -2.28478,-0.47784c-0.99151,-0.20737 -2.98569,-0.55628 -3.98944,-0.69266l-2.29899,-0.31847c-2.15481,-0.30116 -6.48035,-0.74998 -8.65108,-0.89764l-35.50295,-2.45826l-35.50295,2.45826c-2.17073,0.14766 -6.49628,0.59648 -8.65108,0.89764l-2.29899,0.31847c-1.00375,0.13638 -2.99793,0.4853 -3.98944,0.69266c-1.14239,0.23892 -2.28478,0.47784 -2.28478,0.47784l-1.80293,-8.6206l-40.20226,-2.78364c-4.89134,-0.33868 -8.61161,-4.53033 -8.36712,-9.42728c0.24449,-4.89695 4.36376,-8.6972 9.26451,-8.547l2.45485,0.07524c1.08127,0.03551 3.24368,0.03153 4.32482,-0.00798l2.44202,-0.08386c2.30449,-0.07676 6.90315,-0.38446 9.19733,-0.61539l9.18213,-0.91473c-0.36218,-0.91285 -0.57938,-1.89829 -0.62414,-2.92727c-0.19453,-4.47165 2.92651,-8.40672 7.32499,-9.23551l17.11098,-3.22416c-1.28551,-1.67313 -1.98442,-3.7946 -1.84711,-6.03058c-10.73459,-1.94373 -25.83714,-5.57086 -33.93198,-8.25403l-6.38185,-2.12937c-6.4866,-2.18574 -18.95974,-7.69052 -24.92637,-11.04499c-6.3561,-3.57343 -17.21058,-12.96887 -21.79294,-18.6415l-3.30125,-4.18639c-6.29924,-8.12658 -15.49099,-26.12004 -18.38349,-35.98691l-13.16804,-46.34575z" fill="#d62d0e" stroke-miterlimit="0"/><path d="M611.68177,481.1955l9.59196,-236.28567c0.19618,-4.69083 0.10244,-14.06763 -0.18747,-18.7536l-0.47857,-7.8921c-0.0385,-0.72997 -0.20605,-2.17953 -0.32373,-2.90096c-0.12794,-0.78435 -0.43755,-2.34193 -0.62509,-3.1142l-1.65598,-6.93243c-0.31053,-1.31279 -1.03191,-3.91051 -1.44275,-5.19544l-0.91504,-2.88376l17.15699,-5.44405l0.91504,2.88376c0.5042,1.59883 1.40079,4.82753 1.79319,6.45741l1.65598,6.93243c0.25781,1.09213 0.70218,3.2908 0.88284,4.39831c0.19093,1.17042 0.44802,3.52606 0.52554,4.70943l0.47857,7.8921c0.30597,5.14076 0.4088,15.42736 0.20566,20.57321l-9.59196,236.28567z" fill="#d62d0e" stroke-miterlimit="0"/><path d="M370.33305,481.92561l-9.59196,-236.28567c-0.20314,-5.14585 -0.10031,-15.43245 0.20566,-20.57321l0.47857,-7.8921c0.07752,-1.18337 0.33461,-3.53901 0.52554,-4.70943c0.18066,-1.10751 0.62503,-3.30618 0.88284,-4.39831l1.65598,-6.93243c0.3924,-1.62988 1.28899,-4.85858 1.79319,-6.45741l0.91504,-2.88376l17.15699,5.44405l-0.91504,2.88376c-0.41084,1.28493 -1.13222,3.88265 -1.44275,5.19544l-1.65598,6.93243c-0.18754,0.77227 -0.49715,2.32985 -0.62509,3.1142c-0.11768,0.72143 -0.28523,2.17099 -0.32373,2.90096l-0.47857,7.8921c-0.28991,4.68597 -0.38365,14.06277 -0.18747,18.7536l9.59196,236.28567z" fill="#d62d0e" stroke-miterlimit="0"/><path d="M292.28271,472.72218l14.68635,-154.33292c0.88162,-8.65916 -0.22048,-25.62447 -2.20868,-34.41087c-0.00541,-0.02259 -0.01075,-0.04522 -0.01601,-0.06789l-0.09963,-0.42966c-0.00526,-0.02267 -0.01042,-0.04534 -0.0155,-0.06801c-2.08142,-8.76478 -8.5579,-24.48393 -13.1603,-31.8715l-16.13176,-26.27828c-0.92017,-1.69611 -2.1763,-5.29239 -2.51226,-7.19256l-0.12863,-1.05333c-0.06191,-1.358 0.18819,-4.03912 0.5002,-5.36224l0.09087,-0.28611c0.13132,-0.40211 0.41854,-1.19745 0.57446,-1.59067l0.09259,-0.22811c0.11585,-0.2763 0.36262,-0.82208 0.49353,-1.09157l0.11091,-0.22183l15.89257,7.94629c0.04766,-0.4915 0.09204,-1.01577 0.11214,-1.34762l0.12583,1.0304l16.11968,26.2586c5.18999,8.56281 12.62858,26.57947 15.24511,36.80977c0.04587,0.1582 0.0877,0.31855 0.12536,0.48095l0.09963,0.42966c0.03765,0.1624 0.07066,0.32479 0.09909,0.48704c2.15263,10.33786 3.4019,29.78964 2.50985,39.76271l-14.68635,154.33292zM322.24962,279.72115c0.00993,0.04132 0.01978,0.08249 0.02954,0.12352c-0.00958,-0.04131 -0.01942,-0.08248 -0.02954,-0.12352zM304.66757,283.57696c-0.00759,-0.03216 -0.01521,-0.06421 -0.02283,-0.09613c0.00744,0.03212 0.01506,0.06417 0.02283,0.09613zM322.17954,279.41501c0.00929,0.04114 0.01857,0.08244 0.02783,0.12392c-0.00898,-0.04131 -0.01825,-0.08261 -0.02783,-0.12392zM304.72256,283.81412c0.00709,0.03212 0.01435,0.06425 0.0218,0.09637c-0.0072,-0.03202 -0.01447,-0.06414 -0.0218,-0.09637z" fill="#d62d0e" stroke-miterlimit="0"/><path d="M689.79824,474.42735l-14.68635,-154.33292c-0.89205,-9.97307 0.35722,-29.42485 2.50985,-39.76271c0.02843,-0.16225 0.06144,-0.32464 0.09909,-0.48704l0.09963,-0.42966c0.03766,-0.1624 0.07949,-0.32275 0.12536,-0.48095c2.61653,-10.2303 10.05512,-28.24696 15.24511,-36.80977l16.11968,-26.2586l0.12583,-1.0304c0.0201,0.33185 0.06448,0.85612 0.11214,1.34762l15.89257,-7.94629l0.11091,0.22183c0.13091,0.26949 0.37768,0.81527 0.49353,1.09157l0.09259,0.22811c0.15592,0.39322 0.44314,1.18856 0.57446,1.59067l0.09087,0.28611c0.31201,1.32312 0.56211,4.00424 0.5002,5.36224l-0.12863,1.05333c-0.33596,1.90017 -1.59209,5.49645 -2.51226,7.19256l-16.13176,26.27828c-4.6024,7.38757 -11.07888,23.10672 -13.1603,31.8715c-0.00508,0.02267 -0.01024,0.04534 -0.0155,0.06801l-0.09963,0.42966c-0.00526,0.02267 -0.0106,0.0453 -0.01601,0.06789c-1.9882,8.7864 -3.0903,25.75171 -2.20868,34.41087l14.68635,154.33292zM677.72084,279.84467c0.00976,-0.04103 0.01961,-0.0822 0.02954,-0.12352c-0.01012,0.04104 -0.01996,0.08221 -0.02954,0.12352zM695.35526,283.48083c-0.00762,0.03192 -0.01524,0.06397 -0.02283,0.09613c0.00777,-0.03196 0.01539,-0.06401 0.02283,-0.09613zM677.79263,279.53893c0.00926,-0.04148 0.01854,-0.08278 0.02783,-0.12392c-0.00958,0.04131 -0.01885,0.08261 -0.02783,0.12392zM695.25564,283.91049c0.00745,-0.03212 0.01471,-0.06425 0.0218,-0.09637c-0.00733,0.03223 -0.0146,0.06435 -0.0218,0.09637z" fill="#d62d0e" stroke-miterlimit="0"/><path d="M533.1541,471.26291l-4.10522,-105.45271c-0.38414,-9.89248 -1.56406,-29.65287 -2.35983,-39.52077l-0.27616,-3.42866c-0.65547,-8.15011 -2.30559,-24.41593 -3.30023,-32.53164l-0.27352,-2.23396c-0.89722,-7.43931 -1.55808,-22.36811 -1.32174,-29.8576l0.28346,-8.4956c0.12045,-3.20416 0.82856,-9.56043 1.41621,-12.71254l0.50986,-2.67215c0.2734,-1.43195 0.79463,-4.3005 1.04245,-5.7371l0.25466,-1.4752c0.12082,-0.69884 0.3498,-2.0986 0.45796,-2.79951l0.22876,-1.48001l17.78876,2.74955l-0.22876,1.48001c-0.1206,0.77909 -0.37514,2.3351 -0.50908,3.11201l-0.25466,1.4752c-0.26164,1.51455 -0.81117,4.53888 -1.09906,6.04866l-0.50986,2.67215c-0.4835,2.46177 -1.03712,7.43136 -1.10725,9.93918l-0.28346,8.4956c-0.24014,6.79135 0.35902,20.32625 1.19833,27.06981l0.27352,2.23396c1.0154,8.30112 2.70317,24.93815 3.37555,33.27407l0.27616,3.42866c0.80883,10.05402 2.01098,30.18686 2.40431,40.26569l4.10522,105.45271z" fill="#d62d0e" stroke-miterlimit="0"/><path d="M448.85952,470.56272l4.10522,-105.45271c0.39333,-10.07883 1.59548,-30.21167 2.40431,-40.26569l0.27616,-3.42866c0.67238,-8.33592 2.36015,-24.97295 3.37555,-33.27407l0.27352,-2.23396c0.83931,-6.74356 1.43847,-20.27846 1.19833,-27.06981l-0.28346,-8.4956c-0.07013,-2.50782 -0.62375,-7.47741 -1.10725,-9.93918l-0.50986,-2.67215c-0.28789,-1.50978 -0.83742,-4.53411 -1.09906,-6.04866l-0.25466,-1.4752c-0.13394,-0.77691 -0.38848,-2.33292 -0.50908,-3.11201l-0.22876,-1.48001l17.78876,-2.74955l0.22876,1.48001c0.10816,0.70091 0.33714,2.10067 0.45796,2.79951l0.25466,1.4752c0.24782,1.4366 0.76905,4.30515 1.04245,5.7371l0.50986,2.67215c0.58765,3.15211 1.29576,9.50838 1.41621,12.71254l0.28346,8.4956c0.23634,7.48949 -0.42452,22.41829 -1.32174,29.8576l-0.27352,2.23396c-0.99464,8.11571 -2.64476,24.38153 -3.30023,32.53164l-0.27616,3.42866c-0.79577,9.8679 -1.97569,29.62829 -2.35983,39.52077l-4.10522,105.45271z" fill="#d62d0e" stroke-miterlimit="0"/><path d="M337.4957,478.5571l-2.84949,-251.08844c-0.08527,-8.56025 0.96156,-25.60598 2.09365,-34.09147l1.29468,-9.60244c0.50335,-3.64441 2.00983,-10.82842 3.01295,-14.36803l0.97856,-3.41091c0.56507,-1.90278 1.99561,-5.59184 2.86109,-7.37812l0.6822,-1.37531c0.55248,-1.07233 1.81201,-3.12203 2.51905,-4.09939l0.95663,-1.28071l14.42105,10.77188l-0.95663,1.28071c-0.24959,0.30334 -0.65704,0.96641 -0.8149,1.32613l-0.6822,1.37531c-0.53689,1.04091 -1.37902,3.21256 -1.68424,4.3433l-0.97856,3.41091c-0.84573,2.90482 -2.08393,8.80951 -2.47641,11.80937l-1.29468,9.60244c-1.06831,7.83459 -2.03501,23.57563 -1.9334,31.48207l2.84949,251.08844z" fill="#d62d0e" stroke-miterlimit="0"/><path d="M644.50546,478.35284l2.84949,-251.08844c0.10161,-7.90644 -0.86509,-23.64748 -1.9334,-31.48207l-1.29468,-9.60244c-0.39248,-2.99986 -1.63068,-8.90455 -2.47641,-11.80937l-0.97856,-3.41091c-0.30522,-1.13074 -1.14735,-3.30239 -1.68424,-4.3433l-0.6822,-1.37531c-0.15786,-0.35972 -0.56531,-1.02279 -0.8149,-1.32613l-0.95663,-1.28071l14.42105,-10.77188l0.95663,1.28071c0.70704,0.97736 1.96657,3.02706 2.51905,4.09939l0.6822,1.37531c0.86548,1.78628 2.29602,5.47534 2.86109,7.37812l0.97856,3.41091c1.00312,3.53961 2.5096,10.72362 3.01295,14.36803l1.29468,9.60244c1.13209,8.48549 2.17892,25.53122 2.09365,34.09147l-2.84949,251.08844z" fill="#d62d0e" stroke-miterlimit="0"/><path d="M413.38067,477.28627l-4.28462,-63.49657c-0.67299,-10.16843 -0.49003,-30.43026 0.36301,-40.70557c0.00219,-0.02861 0.00452,-0.05724 0.00699,-0.08589l0.0085,-0.09876c-0.00074,0.00864 -0.00148,0.01729 -0.0022,0.02593c0.00073,-0.00865 0.00146,-0.01729 0.0022,-0.02593c0.00247,-0.02865 0.00507,-0.05726 0.00779,-0.08582c0.91591,-10.26989 4.19906,-30.2648 6.60026,-40.16854l11.93536,-48.95183c2.29175,-9.3649 5.71056,-28.27509 6.85514,-37.90721c0.00107,-0.00924 0.00216,-0.01849 0.00326,-0.02774v0c0.00057,-0.00479 0.00115,-0.00958 0.00172,-0.01438c-0.00058,0.00479 -0.00115,0.00958 -0.00172,0.01438l0.00727,-0.0611c-0.00057,0.00479 -0.00114,0.00959 -0.0017,0.01438c0.00057,-0.0048 0.00113,-0.00959 0.0017,-0.01438c0.0011,-0.00925 0.00221,-0.01849 0.00334,-0.02773c1.14657,-9.63189 2.25853,-28.81644 2.22726,-38.45763l-0.0607,-25.33342c-0.00299,-1.41764 0.02809,-4.25253 0.06218,-5.66976l0.033,-1.35633c0.01838,-0.73885 0.07407,-2.21584 0.11139,-2.95397l0.06929,-1.35613l17.97655,0.91854l-0.06929,1.35613c-0.03198,0.618 -0.07861,1.85464 -0.09326,2.47329l-0.033,1.35633c-0.03196,1.297 -0.06041,3.89138 -0.0569,5.18877l0.0607,25.33342c0.01621,10.17694 -1.15704,30.42378 -2.3507,40.60427c-0.00189,0.01668 -0.00383,0.03336 -0.00581,0.05005c-0.00063,0.00526 -0.00126,0.01052 -0.00189,0.01579c0.00063,-0.00526 0.00127,-0.01052 0.00189,-0.01579l-0.00727,0.0611c0.00063,-0.00526 0.00125,-0.01053 0.00186,-0.01579c-0.00062,0.00527 -0.00124,0.01053 -0.00186,0.01579c-0.00198,0.01669 -0.00401,0.03336 -0.00609,0.05001c-1.22747,10.17647 -4.83587,30.13369 -7.23863,40.02293l-11.93536,48.95183c-2.2671,9.24282 -5.33359,27.92262 -6.15874,37.49444c-0.00109,0.01339 -0.00222,0.02678 -0.00337,0.04018l-0.0085,0.09876v0c-0.00115,0.0134 -0.00234,0.02679 -0.00355,0.04017c-0.82314,9.572 -0.99477,28.50104 -0.34094,37.99535l4.28462,63.49657zM409.46605,372.99824c0.00075,-0.00863 0.00151,-0.01727 0.00227,-0.02592c-0.00077,0.00864 -0.00152,0.01728 -0.00227,0.02592zM427.4082,374.44357c-0.00067,0.00766 -0.00134,0.01534 -0.00201,0.02301c0.00068,-0.00767 0.00135,-0.01534 0.00201,-0.02301z" fill="#d62d0e" stroke-miterlimit="0"/><path d="M568.66015,476.07441l4.28462,-63.49657c0.65383,-9.49431 0.4822,-28.42335 -0.34094,-37.99535c-0.00121,-0.01338 -0.0024,-0.02677 -0.00355,-0.04017v0l-0.0085,-0.09876c-0.00115,-0.0134 -0.00228,-0.02679 -0.00337,-0.04018c-0.82515,-9.57182 -3.89164,-28.25162 -6.15874,-37.49444l-11.93536,-48.95183c-2.40276,-9.88924 -6.01116,-29.84646 -7.23863,-40.02293c-0.00208,-0.01665 -0.00411,-0.03332 -0.00609,-0.05001c-0.00062,-0.00526 -0.00124,-0.01052 -0.00186,-0.01579c0.00061,0.00526 0.00123,0.01053 0.00186,0.01579l-0.00727,-0.0611c0.00062,0.00527 0.00126,0.01053 0.00189,0.01579c-0.00063,-0.00527 -0.00126,-0.01053 -0.00189,-0.01579c-0.00198,-0.01669 -0.00392,-0.03337 -0.00581,-0.05005c-1.19366,-10.18049 -2.36691,-30.42733 -2.3507,-40.60427l0.0607,-25.33342c0.00351,-1.29739 -0.02494,-3.89177 -0.0569,-5.18877l-0.033,-1.35633c-0.01465,-0.61865 -0.06128,-1.85529 -0.09326,-2.47329l-0.06929,-1.35613l17.97655,-0.91854l0.06929,1.35613c0.03732,0.73813 0.09301,2.21512 0.11139,2.95397l0.033,1.35633c0.03409,1.41723 0.06517,4.25212 0.06218,5.66976l-0.0607,25.33342c-0.03127,9.64119 1.08069,28.82574 2.22726,38.45763c0.00113,0.00924 0.00224,0.01848 0.00334,0.02773c0.00057,0.00479 0.00113,0.00958 0.0017,0.01438c-0.00056,-0.00479 -0.00113,-0.00959 -0.0017,-0.01438l0.00727,0.0611c-0.00057,-0.0048 -0.00114,-0.00959 -0.00172,-0.01438c0.00057,0.0048 0.00115,0.00959 0.00172,0.01438v0c0.0011,0.00925 0.00219,0.0185 0.00326,0.02774c1.14458,9.63212 4.56339,28.54231 6.85514,37.90721l11.93536,48.95183c2.4012,9.90374 5.68435,29.89865 6.60026,40.16854c0.00272,0.02856 0.00532,0.05717 0.00779,0.08582c0.00074,0.00864 0.00147,0.01728 0.0022,0.02593c-0.00072,-0.00864 -0.00146,-0.01729 -0.0022,-0.02593l0.0085,0.09876c0.00247,0.02865 0.0048,0.05728 0.00699,0.08589c0.85304,10.27531 1.036,30.53714 0.36301,40.70557l-4.28462,63.49657zM590.53168,372.97232c0.00076,0.00865 0.00152,0.01729 0.00227,0.02592c-0.00075,-0.00864 -0.0015,-0.01728 -0.00227,-0.02592zM572.59381,374.46658c-0.00067,-0.00767 -0.00134,-0.01535 -0.00201,-0.02301c0.00066,0.00767 0.00133,0.01534 0.00201,0.02301z" fill="#d62d0e" stroke-miterlimit="0"/><path d="M700.1754,495.58321l10.71335,-48.29842c2.06231,-9.2234 4.56834,-27.8323 5.03866,-37.37998c0.00067,-0.01546 0.00139,-0.03091 0.00215,-0.04638c0.00048,-0.00934 0.00095,-0.01869 0.00142,-0.02805c-0.00049,0.00935 -0.00096,0.0187 -0.00142,0.02805l0.00592,-0.12089c0.00076,-0.01546 0.00156,-0.03092 0.00239,-0.04636c0.46493,-9.54794 -0.21067,-28.31267 -1.36181,-37.69346l-16.00115,-132.25004c-0.12764,-1.08228 -0.30652,-3.25312 -0.35777,-4.34169l-0.04021,-0.9127c-0.02453,-0.63138 -0.03191,-1.89438 -0.01476,-2.526l0.02975,-0.9196l17.99058,0.58211l-0.02975,0.9196c-0.0126,0.28798 -0.00923,0.86378 0.00673,1.15159l0.04021,0.9127c0.02957,0.74558 0.15202,2.23153 0.2449,2.9719l16.00115,132.25004c1.20832,10.12004 1.93763,30.34533 1.47286,40.67428c-0.00134,0.03601 -0.00289,0.07206 -0.00466,0.10815l-0.00592,0.12089c0.00052,-0.01066 0.00103,-0.02133 0.00151,-0.03199c-0.0005,0.01067 -0.001,0.02134 -0.00151,0.03199c-0.00177,0.03609 -0.00374,0.07212 -0.00593,0.10809c-0.5468,10.32493 -3.249,30.38215 -5.44046,40.33568l-10.71335,48.29842zM733.91232,410.65004c0.00056,-0.01066 0.0011,-0.02132 0.00162,-0.03199c-0.00054,0.01065 -0.00108,0.02132 -0.00162,0.03199zM715.93549,409.73753c-0.00046,0.00935 -0.0009,0.0187 -0.00133,0.02805c0.00044,-0.00936 0.00089,-0.01871 0.00133,-0.02805z" fill="#d62d0e" stroke-miterlimit="0"/><path d="M282.25172,499.48114l-10.71335,-48.29842c-2.19146,-9.95353 -4.89366,-30.01075 -5.44046,-40.33568c-0.00219,-0.03597 -0.00416,-0.072 -0.00593,-0.10809c-0.00051,-0.01065 -0.00101,-0.02132 -0.00151,-0.03199c0.00048,0.01066 0.00099,0.02133 0.00151,0.03199l-0.00592,-0.12089c-0.00177,-0.03609 -0.00332,-0.07214 -0.00466,-0.10815c-0.46477,-10.32895 0.26454,-30.55424 1.47286,-40.67428l16.00115,-132.25004c0.09288,-0.74037 0.21533,-2.22632 0.2449,-2.9719l0.04021,-0.9127c0.01596,-0.28781 0.01933,-0.86361 0.00673,-1.15159l-0.02975,-0.9196l17.99058,-0.58211l0.02975,0.9196c0.01715,0.63162 0.00977,1.89462 -0.01476,2.526l-0.04021,0.9127c-0.05125,1.08857 -0.23013,3.25941 -0.35777,4.34169l-16.00115,132.25004c-1.15114,9.38079 -1.82674,28.14552 -1.36181,37.69346c0.00083,0.01544 0.00163,0.0309 0.00239,0.04636l0.00592,0.12089c-0.00046,-0.00935 -0.00093,-0.0187 -0.00142,-0.02805c0.00047,0.00936 0.00094,0.01871 0.00142,0.02805c0.00076,0.01547 0.00148,0.03092 0.00215,0.04638c0.47032,9.54768 2.97635,28.15658 5.03866,37.37998l10.71335,48.29842zM266.08606,410.61805c0.00052,0.01067 0.00106,0.02133 0.00162,0.03199c-0.00054,-0.01067 -0.00108,-0.02134 -0.00162,-0.03199zM284.06584,409.76558c-0.00043,-0.00935 -0.00087,-0.0187 -0.00133,-0.02805c0.00044,0.00934 0.00089,0.01869 0.00133,0.02805z" fill="#d62d0e" stroke-miterlimit="0"/><path d="M226.2834,416.37387c-0.0029,-0.03003 -0.00578,-0.06015 -0.00865,-0.09036c0.00273,0.0301 0.00562,0.06022 0.00865,0.09036zM244.16732,414.32011c-0.00225,-0.02427 -0.0046,-0.04856 -0.00705,-0.07286c0.00232,0.02423 0.00467,0.04851 0.00705,0.07286zM244.19273,414.56946c-0.00245,-0.0243 -0.00499,-0.04856 -0.00763,-0.0728c0.00253,0.02433 0.00507,0.0486 0.00763,0.0728zM226.25094,416.05166c0.00304,0.03014 0.00622,0.06023 0.00955,0.09027c-0.00321,-0.03017 -0.0064,-0.06026 -0.00955,-0.09027zM259.39443,515.05377l-23.46716,-59.24892c-3.68135,-9.40883 -8.39512,-28.65374 -9.60312,-39.09048c-0.01564,-0.11276 -0.02924,-0.22627 -0.04075,-0.3405l-0.03246,-0.32221c-0.01151,-0.11422 -0.02083,-0.22817 -0.02799,-0.34178c-0.89821,-10.46795 -0.11815,-30.26638 1.61234,-40.22047l8.97378,-50.37424c1.29815,-7.22858 4.83704,-21.4512 7.07778,-28.44524l3.71335,-11.53495c0.39525,-1.19426 1.31527,-3.53195 1.85857,-4.6665c0.56181,-1.17321 1.87211,-3.4154 2.59648,-4.49593l7.57299,-11.04923c1.67221,-2.41614 5.34851,-6.98115 7.3526,-9.13001l3.5524,-3.77442l13.1076,12.33656l-3.5524,3.77442c-1.54831,1.62556 -4.35471,5.11038 -5.61281,6.96965l-7.57299,11.04923c-0.35439,0.4934 -0.94696,1.54614 -1.20927,2.09391c-0.28082,0.58643 -0.76964,1.78607 -0.95911,2.40814l-3.71335,11.53495c-2.07407,6.40926 -5.31948,19.4524 -6.49082,26.08628l-8.97378,50.37424c-1.61125,8.80307 -2.29674,26.37785 -1.40372,35.52759c0.00266,0.02443 0.00522,0.04889 0.00769,0.07338l0.03246,0.32221c0.00247,0.02449 0.00484,0.04898 0.0071,0.07344c0.95012,9.14399 5.12766,26.22881 8.46256,34.53354l23.46716,59.24892z" fill="#fd6041" stroke-miterlimit="0"/><path d="M279.09375,514.6674l-20.94919,-72.96155c-2.77929,-9.78069 -6.1411,-29.57587 -6.80555,-39.98563c-0.00539,-0.06896 -0.01002,-0.13815 -0.01386,-0.20757l-0.01175,-0.21211c-0.00385,-0.06942 -0.0069,-0.1387 -0.00916,-0.20783c-0.48983,-10.41944 0.66414,-30.46486 2.34571,-40.49276l5.3263,-31.23767c1.73763,-10.10802 6.74923,-29.93574 10.0232,-39.65544l3.83258,-11.32726c1.3673,-3.99764 4.67457,-11.74866 6.63918,-15.48909c1.92991,-3.67435 6.23801,-10.75275 8.60086,-14.16485l6.77469,-9.73958c2.0518,-2.93458 6.49004,-8.53873 8.87648,-11.20829l4.41274,-4.9123l13.39057,12.02882l-4.41274,4.9123c-2.02631,2.24274 -5.77145,6.97171 -7.49028,9.45795l-6.77469,9.73958c-2.05833,2.94397 -5.77168,9.07618 -7.44203,12.25636c-1.63565,3.11411 -4.41014,9.5517 -5.52432,12.88814l-3.83258,11.32726c-3.07361,9.04064 -7.73848,27.49659 -9.32975,36.9119l-5.3263,31.23767c-1.57525,9.07204 -2.61836,27.24572 -2.11185,36.61457c0.00134,0.0215 0.00261,0.04301 0.00381,0.06455l0.01175,0.21211c0.00119,0.02154 0.00231,0.04307 0.00335,0.06458c0.53178,9.36744 3.5766,27.31459 6.1446,36.15702l20.94919,72.96155zM251.31338,401.30054c0.00107,0.01926 0.00219,0.03851 0.00338,0.05774c-0.00114,-0.01928 -0.00226,-0.03853 -0.00338,-0.05774zM269.29756,400.51668c-0.0009,-0.01618 -0.00184,-0.03235 -0.00282,-0.04851c0.00093,0.0162 0.00187,0.03237 0.00282,0.04851zM269.28837,400.35309c-0.00081,-0.01617 -0.00166,-0.03234 -0.00256,-0.04852c0.00085,0.01615 0.0017,0.03232 0.00256,0.04852zM251.32514,401.51265c-0.00101,-0.01922 -0.00202,-0.03847 -0.00302,-0.05776c0.00094,0.01924 0.00195,0.0385 0.00302,0.05776z" fill="#d62d0e" stroke-miterlimit="0"/><path d="M294.75082,507.46653l-11.0942,-162.9033c-0.5272,-7.84366 -0.72092,-23.51352 -0.39002,-31.42357c0.00057,-0.01484 0.00118,-0.02969 0.00183,-0.04455l0.00175,-0.04019c-0.00026,0.00593 -0.00051,0.01186 -0.00076,0.01778c0.00025,-0.00593 0.0005,-0.01186 0.00076,-0.01778c0.00111,-0.02548 0.00232,-0.05094 0.00364,-0.07636c0.37793,-8.04138 2.386,-23.77176 4.03375,-31.57425l0.92218,-4.32507c1.17019,-5.48004 3.80749,-16.36821 5.27459,-21.77634l2.87248,-10.57595l17.37069,4.71796l-2.87248,10.57595c-1.40538,5.16783 -3.92588,15.57379 -5.04099,20.81192l-0.92218,4.32507c-1.52389,7.07255 -3.34543,21.34435 -3.65669,28.63042c-0.00062,0.01628 -0.00129,0.03256 -0.00199,0.04886v0c-0.00024,0.00529 -0.00047,0.01059 -0.0007,0.01589c0.00024,-0.00529 0.00047,-0.01059 0.0007,-0.01589l-0.00175,0.04019c0.00027,-0.00611 0.00053,-0.01221 0.00078,-0.01831c-0.0001,0.00236 -0.00021,0.00473 -0.00031,0.00709c-0.00016,0.00374 -0.00031,0.00748 -0.00047,0.01122c-0.0004,0.00912 -0.00081,0.01824 -0.00123,0.02736c-0.32396,7.40302 -0.14259,22.08731 0.36482,29.43553l11.0942,162.9033zM283.26843,313.09511c0.0002,-0.00444 0.0004,-0.00888 0.00061,-0.01332c0.00009,-0.00202 0.00017,-0.00404 0.00026,-0.00606c-0.00029,0.00646 -0.00058,0.01292 -0.00086,0.01938zM301.25228,313.85722c0.0002,-0.00481 0.00039,-0.00962 0.00058,-0.01443c-0.00026,0.00622 -0.00052,0.01243 -0.00078,0.01864c0.00006,-0.0014 0.00013,-0.00281 0.00019,-0.00421zM283.2703,313.0543c-0.00033,0.0069 -0.00065,0.01381 -0.00097,0.02071c-0.00006,0.00144 -0.00012,0.00287 -0.00018,0.00431c0.00038,-0.00833 0.00076,-0.01667 0.00115,-0.02502z" fill="#d62d0e" stroke-miterlimit="0"/><path d="M317.83453,509.57577l-8.88568,-159.53479c-0.53072,-9.58307 -0.89463,-28.76243 -0.72782,-38.35874l0.30288,-17.11336c0.02123,-1.0288 0.12999,-3.0829 0.22353,-4.10765c0.0825,-0.90379 0.26518,-2.70958 0.36493,-3.61163l2.36153,-21.30991c0.43042,-3.88209 1.36581,-11.63726 1.87078,-15.51036l0.99911,-7.65986l17.84881,2.32811l-0.99911,7.65986c-0.49414,3.78676 -1.40869,11.36919 -1.82911,15.16484l-2.36153,21.30991c-0.09059,0.81553 -0.25535,2.44823 -0.32994,3.26538c-0.06355,0.69618 -0.14247,2.09082 -0.15182,2.78984l-0.30288,17.11336c-0.16703,9.26631 0.18436,27.78591 0.70278,37.03921l8.88568,159.53479z" fill="#d62d0e" stroke-miterlimit="0"/><path d="M333.3674,490.12364l6.6849,-199.41417c0.3327,-9.61993 -0.31721,-28.81526 -1.29981,-38.39066l-0.53212,-5.24023c-0.69237,-6.91926 -3.01995,-20.59735 -4.65516,-27.35617l-2.12017,-8.81991c-0.56386,-2.38137 -1.99239,-7.05212 -2.85706,-9.3415l-0.94115,-2.51782c-0.37546,-1.02828 -1.26335,-3.02392 -1.77577,-3.99126l-1.26277,-2.4284l15.9699,-8.30435l1.26277,2.4284c0.75034,1.46105 2.08357,4.45765 2.66646,5.9932l0.94115,2.51782c1.04083,2.80833 2.78979,8.52674 3.49791,11.43683l2.12017,8.81991c1.75694,7.35255 4.28775,22.22493 5.06162,29.74477l0.53212,5.24023c1.02349,10.18009 1.71439,30.5862 1.3818,40.8122l-6.6849,199.41417z" fill="#d62d0e" stroke-miterlimit="0"/><path d="M357.78997,501.82296l-8.76915,-266.00374c-0.0692,-2.10949 -0.26053,-6.32607 -0.38266,-8.43316l-0.12494,-2.16169c-0.05896,-1.02601 -0.20296,-3.07618 -0.28801,-4.10036l-0.1786,-2.15953l17.93876,-1.48359l0.1786,2.15953c0.09355,1.13536 0.25318,3.40801 0.31926,4.5453l0.12494,2.16169c0.12788,2.21845 0.32932,6.65782 0.40288,8.87874l8.76915,266.00374z" fill="#fd6041" stroke-miterlimit="0"/><path d="M387.99427,483.81869l-5.97944,-107.82868c-0.5521,-9.95761 -1.77393,-29.8656 -2.44365,-39.81598l-0.02184,-0.32456c-0.65863,-9.78782 -2.09149,-29.355 -2.86573,-39.13436l-1.55251,-19.61166l17.94386,-1.42048l1.55251,19.61166c0.77827,9.83231 2.21889,29.50541 2.88124,39.34621l0.02184,0.32456c0.67313,10.00338 1.90147,30.01738 2.45667,40.028l5.97944,107.82868z" fill="#d62d0e" stroke-miterlimit="0"/><path d="M407.09095,494.51982l-17.50976,-290.09456c-0.17797,-2.94986 -0.49984,-8.85144 -0.64373,-11.80316l-0.14253,-2.92533c-0.07247,-1.48898 -0.20029,-4.46767 -0.25563,-5.95738l-0.1086,-2.92726l17.98763,-0.66733l0.1086,2.92726c0.05326,1.43755 0.1766,4.31192 0.24668,5.74875l0.14253,2.92533c0.1412,2.89958 0.45738,8.6969 0.63236,11.59464l17.50976,290.09456z" fill="#fd6041" stroke-miterlimit="0"/><path d="M420.84579,471.45632l6.91084,-194.99654c0.3505,-9.70638 -0.00487,-29.0998 -0.71076,-38.78682l-0.55285,-7.65761c-0.41474,-5.83485 -1.88064,-17.42406 -2.9318,-23.17841l-0.45152,-2.48738c-0.81129,-4.50743 -2.93697,-13.40207 -4.25136,-17.78927l-1.36485,-4.58037c-0.61538,-2.08903 -2.08436,-6.18159 -2.93797,-8.18512l-1.88721,-4.46825l16.58167,-7.00344l1.88721,4.46825c1.03361,2.46472 2.83698,7.48888 3.60674,10.04831l1.36485,4.58037c1.44267,4.86537 3.79842,14.72269 4.71149,19.71463l0.45152,2.48738c1.12473,6.2324 2.71197,18.78097 3.17449,25.09714l0.55285,7.65761c0.72774,10.17021 1.10083,30.53047 0.74619,40.72052l-6.91084,194.99654z" fill="#d62d0e" stroke-miterlimit="0"/><path d="M435.94392,494.53482l10.3957,-282.59951c0.13306,-3.53583 0.13523,-10.60756 0.00433,-14.14346l-0.18958,-5.24098c-0.02998,-0.91148 -0.16518,-2.72884 -0.26447,-3.63539c-0.13923,-1.27128 -0.29809,-3.82212 -0.32681,-5.10069l-0.04716,-2.4966c-0.01397,-0.98185 0.03745,-2.94346 0.10285,-3.92323l0.11101,-1.55417l17.95426,1.28245l-0.11101,1.55417c-0.04562,0.57441 -0.07578,1.72482 -0.06032,2.30083l0.04716,2.4966c0.01192,0.87307 0.12798,2.6131 0.22304,3.48105c0.135,1.23269 0.31187,3.70517 0.35969,4.94431l0.18958,5.24098c0.13678,3.864 0.13441,11.59192 -0.00474,15.45584l-10.3957,282.59951z" fill="#fd6041" stroke-miterlimit="0"/><path d="M478.05391,341.33703c0.00062,0.02313 0.00123,0.0462 0.00183,0.06921l-0.00388,-0.1384c0.00069,0.02301 0.00137,0.04608 0.00204,0.0692zM496.04868,340.90242c-0.00069,-0.02302 -0.00138,-0.04608 -0.00209,-0.0692c-0.00059,-0.02312 -0.00119,-0.04619 -0.00179,-0.06921l0.00388,0.1384zM456.91345,500.59783l18.78185,-121.70897c1.45453,-9.30523 2.62846,-27.97876 2.36058,-37.48265c-0.00065,-0.02312 -0.00131,-0.04619 -0.00198,-0.0692c-0.00062,-0.02301 -0.00125,-0.04608 -0.00189,-0.0692c-0.26439,-9.50398 -2.48146,-28.08256 -4.45443,-37.29181l-13.35661,-62.9431c-0.6582,-3.1415 -2.36489,-9.31662 -3.41338,-12.35024l-1.48598,-4.33546c-0.28639,-0.86099 -0.97592,-2.53488 -1.37907,-3.34778l-0.03232,-0.06669c-0.47056,-0.9719 -1.43938,-2.9018 -1.93764,-3.85979l-0.52648,-1.01325c-0.23416,-0.45161 -0.71575,-1.34769 -0.96318,-1.79216l-0.55506,-0.99911l15.73483,-8.74157l0.55506,0.99911c0.30763,0.55464 0.90808,1.67188 1.2009,2.23448l0.52648,1.01325c0.55537,1.0698 1.63683,3.22408 2.16293,4.30857l0.03232,0.06669c0.62584,1.31019 1.73025,3.99122 2.20882,5.36207l1.48598,4.33546c1.20948,3.55418 3.20633,10.77918 3.99372,14.45001l13.35661,62.9431c2.106,10.01298 4.5154,30.20776 4.83894,40.52441c0.00072,0.02312 0.00144,0.04618 0.00214,0.0692c0.26174,10.29679 -1.01603,30.6631 -2.56186,40.80091l-18.78185,121.70897z" fill="#d62d0e" stroke-miterlimit="0"/><path d="M506.98923,501.77536l-5.47105,-197.72163c-0.26674,-9.78126 -1.62215,-29.28667 -2.71083,-39.01081l-0.57069,-5.11595c-0.79393,-7.15245 -2.98272,-21.36481 -4.37759,-28.42472l-1.57731,-8.0062c-0.62304,-3.16589 -1.9789,-9.47406 -2.71173,-12.61635l-0.74902,-3.21469c-0.35684,-1.53444 -1.12435,-4.5898 -1.53503,-6.11072l-0.86035,-3.19161l17.37962,-4.68494l0.86035,3.19161c0.44967,1.67069 1.29259,5.02624 1.68585,6.71111l0.74902,3.21469c0.76665,3.29331 2.18756,9.9041 2.84182,13.22157l1.57731,8.0062c1.45974,7.42966 3.76279,22.38391 4.60611,29.9085l0.57069,5.11595c1.12251,10.09802 2.52996,30.35226 2.8149,40.50848l5.47105,197.72163z" fill="#d62d0e" stroke-miterlimit="0"/><path d="M541.66969,355.96259c-0.00023,0.01205 -0.00043,0.02409 -0.00061,0.03612c0.00021,-0.01206 0.00041,-0.0241 0.00061,-0.03612zM559.66561,356.34331c0.00033,-0.01397 0.00063,-0.02795 0.00089,-0.04194c-0.0003,0.01396 -0.00059,0.02794 -0.00089,0.04194zM512.51486,508.96251l24.84632,-115.74513c1.98295,-9.13882 4.12005,-27.55836 4.3047,-37.04332c0.00024,-0.01827 0.00053,-0.03654 0.00087,-0.05483c0.00025,-0.01202 0.0005,-0.02406 0.00075,-0.03611c-0.00027,0.01203 -0.00052,0.02407 -0.00075,0.03611l0.00295,-0.15665c0.00035,-0.01829 0.00075,-0.03656 0.0012,-0.05482c0.17245,-9.48519 -1.26992,-27.97212 -2.90752,-37.17909l-12.95976,-73.81003c-1.23711,-7.05166 -4.01329,-21.09528 -5.55236,-28.08724l-1.55639,-7.07548c-0.75827,-3.45194 -2.4235,-10.31977 -3.33046,-13.73566l-1.86119,-7.01807l17.39856,-4.6141l1.86119,7.01807c0.95423,3.60218 2.71003,10.84355 3.5116,14.48275l1.55639,7.07548c1.57836,7.18011 4.42908,21.6008 5.70144,28.84139l12.95976,73.81003c1.74138,10.03717 3.31335,30.16112 3.17593,40.53978c-0.00015,0.04851 -0.00067,0.0971 -0.00159,0.14578l-0.00295,0.15665c0.00026,-0.01399 0.00049,-0.02797 0.00069,-0.04195c-0.00022,0.014 -0.00046,0.02799 -0.00069,0.04195c-0.00092,0.04867 -0.00222,0.09725 -0.0039,0.14573c-0.25328,10.37648 -2.5815,30.42701 -4.6994,40.39153l-24.84632,115.74513z" fill="#d62d0e" stroke-miterlimit="0"/><path d="M576.56068,289.14733c0.00017,0.00862 0.00035,0.01724 0.00054,0.02586c-0.00018,-0.00863 -0.00036,-0.01725 -0.00054,-0.02586zM552.81466,475.82195l21.40277,-148.75204c1.36468,-9.38118 2.53106,-28.18904 2.34638,-37.76753c-0.00036,-0.01459 -0.00068,-0.02918 -0.00096,-0.04379c-0.00016,-0.00861 -0.00031,-0.01723 -0.00047,-0.02586c0.00015,0.00862 0.0003,0.01724 0.00047,0.02586l-0.00217,-0.11125c-0.00029,-0.0146 -0.00054,-0.0292 -0.00075,-0.04379c-0.18849,-9.57842 -2.08646,-28.32659 -3.81545,-37.6475l-12.42869,-67.5885c-0.39334,-2.18996 -1.47384,-6.49617 -2.16099,-8.61242l-1.07691,-3.36392c-0.12849,-0.43158 -0.46453,-1.2631 -0.65539,-1.67085c-0.36818,-0.78656 -1.05664,-2.38062 -1.38035,-3.18651l-0.62149,-1.55705c-0.24184,-0.61099 -0.69327,-1.84477 -0.90286,-2.46756l-0.33304,-0.99911l17.0763,-5.6921l0.33304,0.99911c0.12344,0.37632 0.39546,1.11977 0.54404,1.4869l0.62149,1.55705c0.22341,0.56483 0.70776,1.67818 0.96527,2.22831c0.43483,0.92894 1.17446,2.83972 1.49595,3.81375l1.07691,3.36392c0.84507,2.66993 2.20567,8.09247 2.7212,10.84508l12.42869,67.5885c1.82877,10.02642 3.86931,30.17352 4.10717,40.49783c0.00099,0.03272 0.0018,0.06548 0.00244,0.09829v0c0.00017,0.00977 0.00035,0.01955 0.00052,0.02934c-0.00015,-0.00978 -0.00033,-0.01956 -0.00052,-0.02934l0.00217,0.11125c-0.00019,-0.00979 -0.0004,-0.01956 -0.00062,-0.02934c0.00021,0.00979 0.00042,0.01957 0.00062,0.02934v0c0.00064,0.03281 0.0011,0.06558 0.00139,0.09831c0.1644,10.32574 -1.08997,30.53703 -2.52687,40.62706l-21.40277,148.75204z" fill="#d62d0e" stroke-miterlimit="0"/><path d="M728.58376,500.30557l-17.04445,-275.69691c-0.2704,-4.37452 -0.85112,-13.12091 -1.16144,-17.49278l-0.3117,-4.39202c-0.15437,-2.17579 -0.48301,-6.52588 -0.65728,-8.70017l-0.35172,-4.38944l17.94249,-1.43771l0.35172,4.38944c0.17745,2.21515 0.51226,6.64695 0.66963,8.86362l0.3117,4.39202c0.31313,4.41275 0.89927,13.24093 1.1723,17.65634l17.04445,275.69691z" fill="#ffffff" stroke-miterlimit="0"/><path d="M703.15011,293.69367c-0.0001,-0.00415 -0.00019,-0.00829 -0.00029,-0.01244c0.0001,0.00415 0.0002,0.00829 0.00029,0.01244zM709.99735,495.1811l-21.65955,-160.51628c-1.35311,-10.08013 -2.93965,-30.2966 -3.18217,-40.52673c-0.00038,-0.01413 -0.00073,-0.02827 -0.00105,-0.04241v0c-0.0001,-0.00452 -0.0002,-0.00904 -0.00029,-0.01356c0.00009,0.00452 0.00019,0.00904 0.00029,0.01356l-0.00118,-0.0527c-0.00032,-0.01415 -0.0006,-0.02829 -0.00085,-0.04242c-0.21456,-10.23075 0.4676,-30.4979 1.36922,-40.6284l5.06698,-56.49125c0.45894,-5.08347 1.73881,-15.20463 2.55974,-20.24232l0.79403,-4.85485c0.42888,-2.60387 1.46878,-7.77499 2.07979,-10.34223l1.15175,-4.81516l17.50617,4.18736l-1.15175,4.81516c-0.54074,2.24792 -1.45174,6.77804 -1.82199,9.06025l-0.79403,4.85485c-0.77402,4.71411 -1.97186,14.18661 -2.39569,18.945l-5.06698,56.49125c-0.87119,9.63434 -1.51992,28.91413 -1.30147,38.63615c0.00021,0.0082 0.0004,0.0164 0.00058,0.02461v0v0c0.00009,0.00414 0.00018,0.00829 0.00027,0.01244c-0.00009,-0.00414 -0.00018,-0.00829 -0.00027,-0.01244l0.00118,0.0527c0.00018,0.00821 0.00036,0.01641 0.00052,0.02461c0.21592,9.72207 1.72496,28.95366 3.02552,38.53949l21.65955,160.51628z" fill="#d62d0e" stroke-miterlimit="0"/><path d="M662.4041,489.66488l-3.0302,-213.37055c-0.13965,-10.17363 0.51353,-30.49092 1.30636,-40.63457l0.3163,-4.02226c0.64289,-8.11371 2.66728,-24.24847 4.04878,-32.26951l1.09297,-6.32343c0.84895,-4.87746 3.02638,-14.52415 4.35486,-19.29338l1.26168,-4.5089c0.70606,-2.50169 2.35765,-7.42471 3.30319,-9.84606l1.73457,-4.41274l16.75225,6.585l-1.73457,4.41274c-0.78903,1.9914 -2.14967,6.04714 -2.72127,8.11149l-1.26168,4.5089c-1.21643,4.32562 -3.19244,13.07996 -3.95202,17.5087l-1.09297,6.32343c-1.32001,7.60859 -3.2406,22.91604 -3.84118,30.61489l-0.3163,4.02226c-0.76978,9.72728 -1.39617,29.2112 -1.25278,38.96784l3.0302,213.37055z" fill="#d62d0e" stroke-miterlimit="0"/><path d="M647.5723,237.98581c-0.00047,0.00402 -0.00094,0.00804 -0.00142,0.01206c0.00047,-0.00402 0.00095,-0.00804 0.00142,-0.01206zM647.56772,238.02485c-0.00046,0.00403 -0.00093,0.00805 -0.0014,0.01207c0.00047,-0.00402 0.00093,-0.00805 0.0014,-0.01207zM625.99127,484.15578l1.21566,-207.59419c0.06639,-10.16928 1.30257,-30.4096 2.47629,-40.57246c0.00154,-0.01368 0.0031,-0.02736 0.0047,-0.04104c0.00051,-0.00438 0.00103,-0.00876 0.00155,-0.01315c-0.00052,0.00438 -0.00103,0.00876 -0.00155,0.01315l0.00597,-0.05111c0.0016,-0.01368 0.00323,-0.02736 0.00489,-0.04102c1.20067,-10.15971 4.66366,-30.13986 6.94332,-40.05055l5.44886,-23.61589c0.78056,-3.29945 2.89416,-9.71638 4.22718,-12.83386l1.15387,-2.65765c0.78208,-1.75414 2.621,-5.11196 3.67782,-6.71563l1.686,-2.50472l14.93221,10.05132l-1.686,2.50472c-0.62917,0.90104 -1.67871,2.81748 -2.09908,3.83287l-1.15387,2.65765c-1.04027,2.3488 -2.63974,7.20484 -3.19894,9.71209l-5.44886,23.61589c-2.18258,9.4291 -5.47862,28.44711 -6.60625,38.10963c-0.00091,0.00799 -0.00184,0.01598 -0.00277,0.02397l-0.00597,0.05111c-0.00093,0.00799 -0.00188,0.01598 -0.00283,0.02396c-1.13019,9.66222 -2.30703,28.92783 -2.35686,38.60611l-1.21566,207.59419z" fill="#d62d0e" stroke-miterlimit="0"/><path d="M599.80394,472.23499l-14.66201,-286.5524c-0.26935,-5.38528 -1.38267,-16.0961 -2.22663,-21.42165l-0.97657,-6.2084c-0.34141,-2.21031 -1.26576,-6.57985 -1.84868,-8.73908l-0.91842,-3.43973c-0.01295,-0.16827 -0.13196,-0.46783 -0.23802,-0.59911l-0.14648,-0.27107l-0.23676,-0.26461l13.41434,-12.00231l0.4718,0.52731c0.56388,0.67655 1.57336,2.11277 2.01897,2.87244l0.31405,0.5812c0.55218,1.08688 1.4486,3.34325 1.79284,4.51274l0.91842,3.43973c0.69268,2.61827 1.81233,7.91102 2.23928,10.58551l0.97657,6.2084c0.90505,5.79356 2.11593,17.44298 2.42175,23.29883l14.66201,286.5524z" fill="#d62d0e" stroke-miterlimit="0"/><path d="M583.11524,472.12276l18.1698,-85.41695c2.00715,-9.38909 4.75059,-28.31628 5.50404,-37.95674c0.0008,-0.01063 0.00161,-0.02126 0.00244,-0.0319l0.00569,-0.07278c-0.00045,0.00569 -0.00089,0.01138 -0.00132,0.01707c0.00044,-0.00569 0.00088,-0.01138 0.00132,-0.01707c0.00083,-0.01064 0.00168,-0.02127 0.00255,-0.03189c0.75451,-9.64037 0.98703,-28.76395 0.46401,-38.35092l-7.38244,-137.87886c-0.1846,-3.48187 -0.75519,-10.42908 -1.14117,-13.89441l-0.39722,-3.58328c-0.18347,-1.67163 -0.6488,-5.00116 -0.93066,-6.65905l-0.60276,-3.56888l17.74864,-2.99764l0.60276,3.56888c0.32091,1.91099 0.85713,5.74772 1.07244,7.67347l0.39722,3.58328c0.41057,3.72024 1.02308,11.17786 1.22501,14.91524l7.38244,137.87886c0.53478,10.16909 0.28863,30.44693 -0.49106,40.68788c-0.00145,0.02027 -0.00296,0.04054 -0.00455,0.06083c-0.0005,0.00629 -0.001,0.01259 -0.0015,0.0189c0.00051,-0.00629 0.00101,-0.0126 0.0015,-0.0189l-0.00569,0.07278c0.00049,-0.00631 0.00098,-0.01261 0.00146,-0.01891c-0.00049,0.00631 -0.00097,0.01261 -0.00146,0.01891c-0.00159,0.02028 -0.00324,0.04055 -0.00496,0.06079c-0.82194,10.23764 -3.73137,30.30719 -5.84064,40.26949l-18.1698,85.41695z" fill="#fd6041" stroke-miterlimit="0"/><path d="M606.79288,348.7001c-0.00045,0.00569 -0.0009,0.01138 -0.00135,0.01707c0.00045,-0.00569 0.0009,-0.01138 0.00135,-0.01707z" fill="none" stroke-miterlimit="NaN"/><path d="M751.24516,280.31251c0.0013,0.0125 0.00259,0.02501 0.00389,0.03754c-0.00127,-0.01251 -0.00257,-0.02502 -0.00389,-0.03754zM721.04493,484.39741l12.82056,-164.53387c0.74834,-9.36278 0.49668,-28.00092 -0.5,-37.46523c-0.0019,-0.01705 -0.00375,-0.03412 -0.00556,-0.0512c-0.00113,-0.01084 -0.00226,-0.02169 -0.00339,-0.03256c0.00111,0.01085 0.00224,0.0217 0.00339,0.03256l-0.0149,-0.14085c0.00115,0.01086 0.00231,0.02171 0.0035,0.03255c-0.00116,-0.01086 -0.00233,-0.02171 -0.0035,-0.03255v0c-0.00181,-0.01708 -0.00357,-0.03416 -0.00528,-0.05123c-1.00579,-9.46335 -4.65973,-27.74154 -7.35066,-36.74046l-14.33621,-48.29324c-1.90334,-6.45701 -6.68651,-18.99862 -9.56634,-25.08322l-2.95634,-6.27736c-1.36355,-2.92562 -4.5382,-8.52304 -6.3493,-11.19483l-3.98084,-5.92355l14.93979,-10.04006l3.98084,5.92355c2.16974,3.25176 6.01672,10.03461 7.69397,13.56569l2.95634,6.27736c3.14679,6.71207 8.4156,20.52703 10.53762,27.62993l14.33621,48.29324c2.88198,9.77397 6.84511,29.59103 7.98576,39.89153c0.00515,0.04286 0.01,0.08582 0.01456,0.12889l0.0149,0.14085c-0.00133,-0.01251 -0.00268,-0.02502 -0.00405,-0.03752c0.00136,0.01252 0.00271,0.02503 0.00405,0.03752v0c0.00456,0.04307 0.00881,0.0861 0.01274,0.12909c1.03998,10.31115 1.3113,30.51879 0.53833,40.67944l-12.82056,164.53387z" fill="#d62d0e" stroke-miterlimit="0"/><path d="M736.0263,167.86076l26.72051,96.37641c2.69915,9.81932 6.12144,29.68817 6.90922,40.05152c0.00465,0.05323 0.00884,0.10661 0.01258,0.16014l0.01185,0.1699c-0.00106,-0.01524 -0.00216,-0.03046 -0.0033,-0.04568c0.00111,0.01525 0.00221,0.03047 0.0033,0.04568c0.00373,0.05352 0.00699,0.10697 0.00977,0.16033c0.65843,10.37238 0.02734,30.52393 -1.28262,40.62286l-13.45677,101.98186c-0.85113,6.42072 -3.0749,19.17121 -4.44753,25.50098l-1.32924,6.11202c-0.71363,3.26317 -2.40141,9.72143 -3.37555,12.91653l-1.84645,6.0311l-17.21144,-5.26936l1.84645,-6.0311c0.8723,-2.83601 2.37137,-8.57219 2.99814,-11.47236l1.32924,-6.11202c1.30089,-5.96348 3.39643,-17.97874 4.19107,-24.03051l13.45677,-101.98186c1.24088,-9.23213 1.81661,-27.68065 1.16596,-37.11865c-0.00145,-0.01913 -0.00285,-0.03828 -0.00419,-0.05744l-0.01185,-0.1699c-0.00134,-0.01917 -0.00261,-0.03832 -0.00383,-0.05747c-0.66578,-9.43695 -3.79684,-27.62694 -6.30726,-36.59744l-26.72051,-96.37641zM769.66861,304.44883c0.00103,0.01521 0.00205,0.03044 0.00307,0.0457c-0.00099,-0.01523 -0.00201,-0.03046 -0.00307,-0.0457zM751.72408,305.87109c-0.00088,-0.01301 -0.00176,-0.02604 -0.00264,-0.03909c0.00085,0.01303 0.00173,0.02606 0.00264,0.03909zM751.71223,305.70119c0.00091,0.01304 0.00185,0.02606 0.00281,0.03908c-0.00093,-0.01304 -0.00187,-0.02607 -0.00281,-0.03908z" fill="#d62d0e" stroke-miterlimit="0"/><path d="M780.8612,295.79517c-0.00338,-0.01904 -0.00682,-0.03805 -0.01032,-0.05704c0.00345,0.01905 0.00689,0.03806 0.01032,0.05704zM763.11019,298.78244c-0.00288,-0.016 -0.00576,-0.03197 -0.00864,-0.04792c0.00284,0.01599 0.00572,0.03196 0.00864,0.04792zM719.21201,138.33862l50.00629,118.16669c3.93686,9.37462 9.65567,28.62058 11.56684,38.87533c0.01368,0.06798 0.02662,0.13628 0.03881,0.20491v0v0l0.03724,0.20961c0.01219,0.06863 0.02357,0.13721 0.03415,0.20574c1.73847,10.28543 2.99974,30.32343 2.53331,40.48044l-1.61225,33.12264c-0.52912,10.29237 -3.80262,30.5186 -6.547,40.45244l-4.87627,17.46495c-0.33198,1.08451 -1.15402,3.19302 -1.69353,4.19027c-0.47066,0.86999 -1.55755,2.5196 -2.14877,3.31274l-22.91321,29.83427c-0.416,0.51832 -1.29555,1.51354 -1.77862,1.96977c-0.22321,0.21081 -0.66962,0.63242 -0.89283,0.84323c-3.63507,3.43312 -14.09385,13.31086 -14.09385,13.31086l-12.35922,-13.08624c0,0 3.63507,-3.43312 7.27013,-6.86624c0.21287,-0.20104 6.83504,-6.45532 7.64159,-7.21706l22.85041,-29.7525c0.17833,-0.20886 0.46216,-0.67248 0.59267,-0.91371c0.06166,-0.11397 0.18053,-0.33357 0.18831,-0.46593l4.87627,-17.46495c2.52846,-8.95147 5.48107,-27.19499 5.90522,-36.48703l1.61225,-33.12264c0.47561,-9.19437 -0.67087,-27.35915 -2.29962,-36.5984c-0.00392,-0.0212 -0.00777,-0.04243 -0.01155,-0.06369v0v0l-0.03724,-0.20961c-0.00378,-0.02126 -0.00748,-0.04252 -0.0111,-0.06377c-1.65377,-9.2348 -6.83505,-26.68267 -10.44891,-35.15041l-50.00629,-118.16669z" fill="#fd6041" stroke-miterlimit="0"/><path d="M714.0858,282.92157c-0.00363,-0.01849 -0.00731,-0.03695 -0.01104,-0.05539c0.00369,0.01849 0.00738,0.03696 0.01104,0.05539zM696.39183,286.22984c-0.00309,-0.01557 -0.00618,-0.03111 -0.00927,-0.04662c0.00305,0.01556 0.00614,0.0311 0.00927,0.04662zM673.42082,179.51014l28.37465,64.31881c4.07989,9.31573 10.11851,28.47515 12.20914,38.69043c0.01443,0.0658 0.02816,0.13193 0.0412,0.19836v0c0.00357,0.01845 0.00714,0.03693 0.0107,0.05545c-0.00351,-0.01848 -0.00708,-0.03697 -0.0107,-0.05545l0.03999,0.20382c0.01304,0.06644 0.0253,0.13285 0.03681,0.19922c1.92419,10.24794 3.5726,30.26871 3.31511,40.43542l-2.06551,73.74072c-0.23701,8.07029 -1.8096,24.10312 -3.14519,32.06566l-2.53645,14.99719c-0.0836,0.42862 -0.27828,1.27999 -0.41024,1.69612c-0.13052,0.41158 -0.45736,1.21113 -0.63344,1.60551l-9.54244,20.03526c-1.77091,3.6935 -5.78422,10.81477 -8.02663,14.24255l-4.16297,6.32771l-15.03751,-9.8931l4.16297,-6.32771c1.92056,-2.89993 5.32717,-8.94467 6.81323,-12.08947l9.21622,-19.35032l2.40931,-14.24543c1.25255,-7.34025 2.70265,-22.12423 2.9002,-29.56797l2.06551,-73.74072c0.28549,-9.21509 -1.21349,-27.38477 -3.00969,-36.60244c-0.00425,-0.02088 -0.00843,-0.04179 -0.01254,-0.06274v0c-0.003,-0.01553 -0.00601,-0.03109 -0.00903,-0.04667c0.00297,0.01555 0.00598,0.03111 0.00903,0.04667l-0.03999,-0.20382c-0.00411,-0.02094 -0.00814,-0.04188 -0.0121,-0.06282c-1.81985,-9.21303 -7.29738,-26.60212 -11.04363,-35.0262l-28.37465,-64.31881z" fill="#d62d0e" stroke-miterlimit="0"/><path d="M720.67958,315.87052c0.00193,0.0111 0.00388,0.02221 0.00586,0.03332c-0.00195,-0.01109 -0.0039,-0.0222 -0.00586,-0.03332zM738.40764,312.75364c-0.00228,-0.01284 -0.00459,-0.02566 -0.00692,-0.03848c0.00231,0.01284 0.00462,0.02567 0.00692,0.03848zM720.66579,315.7929c-0.00199,-0.01111 -0.00399,-0.02221 -0.00598,-0.0333c0.00197,0.01111 0.00397,0.02221 0.00598,0.0333zM679.37525,146.20607l48.14508,127.06353c3.59219,9.53499 8.97034,29.00785 10.8371,39.20721c0.0085,0.04407 0.0167,0.08827 0.02458,0.1326v0l0.02564,0.14423c0.00788,0.04434 0.01542,0.08865 0.02263,0.13295c1.76249,10.21789 3.42453,30.35131 3.33833,40.54015l-0.62463,60.30955c-0.11345,10.2087 -1.51719,30.54487 -2.80748,40.67234l-1.93089,15.06471c-0.33647,2.56446 -1.28432,7.64209 -1.91067,10.15152c-0.60443,2.42163 -2.00073,7.21078 -2.78615,9.57991l-4.27433,12.83583c-1.01859,3.04831 -3.28067,9.06032 -4.52417,12.02401l-2.35901,5.60613l-16.59098,-6.98135l2.35901,-5.60613c1.11552,-2.64244 3.13409,-8.00725 4.03714,-10.72963l4.27433,-12.83583c0.68249,-2.03899 1.87923,-6.16578 2.39994,-8.25195c0.49879,-1.99837 1.26675,-6.03695 1.52095,-8.0809l1.93089,-15.06471c1.23863,-9.60303 2.56982,-28.88821 2.66239,-38.57036l0.62463,-60.30955c0.1165,-9.3785 -1.41594,-27.92365 -3.07477,-37.28471c-0.00317,-0.01724 -0.00628,-0.0345 -0.00936,-0.05177l-0.02564,-0.14423c-0.00307,-0.01728 -0.00609,-0.03455 -0.00906,-0.05183c-1.66879,-9.35929 -6.62125,-27.29651 -9.96263,-36.06036l-48.14508,-127.06353z" fill="#fd6041" stroke-miterlimit="0"/><path d="M538.57543,502.1379l-16.13962,-136.66502c-1.1778,-10.12286 -1.76852,-30.33672 -1.19577,-40.67434c0.00187,-0.04005 0.00401,-0.08014 0.00641,-0.12028v0c0.00072,-0.01173 0.00145,-0.02347 0.00218,-0.03522c-0.00075,0.01173 -0.00147,0.02348 -0.00218,0.03522l0.00794,-0.13259c-0.0007,0.01175 -0.00138,0.02349 -0.00204,0.03523c0.00068,-0.01176 0.00136,-0.0235 0.00204,-0.03523c0.0024,-0.04014 0.00507,-0.0802 0.00799,-0.12019c0.6655,-10.33207 3.66523,-30.33084 6.04312,-40.24068l10.87923,-44.99746c1.70952,-7.06287 5.52677,-21.08017 7.63449,-28.0346l2.0665,-6.81219c1.07657,-3.54253 3.42738,-10.56138 4.70162,-14.0377l2.46309,-6.70931l16.89732,6.20326l-2.46309,6.70931c-1.18885,3.23299 -3.37588,9.76283 -4.37406,13.05968l-2.0665,6.81219c-2.03641,6.70661 -5.71814,20.22632 -7.36348,27.03942l-10.87923,44.99746c-2.23019,9.14946 -5.0025,27.64055 -5.57641,37.15788c-0.0009,0.01643 -0.00184,0.03288 -0.00282,0.04933v0c-0.00063,0.01022 -0.00126,0.02045 -0.00189,0.03069c0.00065,-0.01022 0.00128,-0.02045 0.00189,-0.03069l-0.00794,0.13259c0.00061,-0.01023 0.00121,-0.02047 0.00179,-0.0307c-0.0006,0.01024 -0.00119,0.02047 -0.00179,0.0307c-0.00099,0.01645 -0.00201,0.03289 -0.00309,0.04931c-0.56642,9.51777 -0.02149,28.20759 1.10044,37.55786l16.13962,136.66502z" fill="#fd6041" stroke-miterlimit="0"/><path d="M501.50043,332.5618c0.00106,-0.00819 0.0021,-0.01638 0.00313,-0.02456c-0.00105,0.00819 -0.00209,0.01638 -0.00313,0.02456zM483.65837,330.18157c0.00118,-0.00927 0.00236,-0.01853 0.00354,-0.02779c-0.00119,0.00926 -0.00238,0.01853 -0.00354,0.02779zM483.6483,330.25932c0.00121,-0.00925 0.00241,-0.01851 0.00363,-0.02778c-0.00122,0.00925 -0.00243,0.01851 -0.00363,0.02778zM486.11965,516.89887l-4.45588,-145.88787c-0.29706,-10.18719 0.68724,-30.41873 1.97305,-40.65896c0.00367,-0.03089 0.00749,-0.0618 0.01148,-0.09273l0.01361,-0.10555c0.00399,-0.03093 0.00813,-0.06179 0.01242,-0.0926c1.35452,-10.23137 5.53575,-30.05058 8.40788,-39.82903l10.96952,-37.15692c1.32911,-4.45844 4.60893,-13.14049 6.55963,-17.3641l1.78843,-3.84539c1.07038,-2.27218 3.51441,-6.64711 4.88807,-8.74986l2.40064,-3.63566l15.02086,9.91835l-2.40064,3.63566c-1.02699,1.5329 -2.82086,4.74401 -3.58774,6.42223l-1.78843,3.84539c-1.69203,3.60881 -4.50073,11.04377 -5.61741,14.86992l-10.96952,37.15692c-2.7018,9.10196 -6.5979,27.57351 -7.82625,37.08547c-0.00174,0.01403 -0.00352,0.02807 -0.00533,0.0421v0v0v0c-0.00107,0.00818 -0.00213,0.01636 -0.0032,0.02456c0.00108,-0.00818 0.00214,-0.01637 0.0032,-0.02456v0l-0.01361,0.10555c-0.00181,0.01404 -0.00365,0.02806 -0.00553,0.04208c-1.22531,9.51236 -2.14348,28.36798 -1.83952,37.85761l4.45588,145.88787z" fill="#d62d0e" stroke-miterlimit="0"/><path d="M539.23671,484.76009c0.00175,0.00003 0.00351,0.00005 0.00526,0.00007c-0.00175,-0.00002 -0.00351,-0.00005 -0.00526,-0.00007zM539.4947,466.76194c0.00185,0.00003 0.00371,0.00005 0.00556,0.00008c-0.00185,-0.00003 -0.00371,-0.00005 -0.00556,-0.00008zM333.06324,480.87904c-0.01147,0.00275 -0.02294,0.00553 -0.03439,0.00832c0.01147,-0.00278 0.02294,-0.00555 0.03439,-0.00832zM337.16389,498.40597c-0.01,0.00241 -0.01998,0.00483 -0.02996,0.00724c0.00999,-0.0024 0.01998,-0.00481 0.02996,-0.00724zM252.15947,512.37769l42.09361,-18.45128c9.34083,-4.07525 28.50637,-10.52605 38.56342,-12.98734c0.03897,-0.00989 0.07805,-0.01955 0.11727,-0.02896c0.01146,-0.00273 0.02293,-0.00546 0.03442,-0.00819c-0.01147,0.00271 -0.02295,0.00544 -0.03442,0.00819l0.12947,-0.03107c0.03921,-0.00941 0.07842,-0.01855 0.11764,-0.02741c10.0788,-2.37065 30.08464,-5.3197 40.25764,-5.92712l125.54612,-7.27892c10.11235,-0.58336 30.3401,-1.02464 40.49371,-0.88386c0.00545,0.00007 0.01091,0.00014 0.01636,0.00022l0.02201,0.00032c-0.00185,-0.00003 -0.00371,-0.00005 -0.00556,-0.00008c0.00186,0.00003 0.00371,0.00005 0.00556,0.00008c0.00546,0.00008 0.01091,0.00016 0.01636,0.00025c10.15347,0.15031 30.36026,1.17121 40.45173,2.04418l88.56018,7.68679c8.84132,0.78302 26.27999,3.77229 34.87734,5.97854l9.09137,2.35002c3.99527,1.0488 11.76963,3.76514 15.54872,5.43268l4.99544,2.22677c1.67374,0.83398 4.7097,2.94908 6.07192,4.2302l0.62592,0.64147c0.9114,1.049 2.50457,3.31683 3.03813,4.59742c0.20811,0.49947 0.41621,0.99894 0.41621,0.99894l-16.42069,6.84176c0.0322,0.048 0.06052,0.09267 0.0832,0.13267l-0.11608,-0.11897l-0.16188,0.06745c0,0 -0.07013,-0.16832 -0.16968,-0.40725l-0.17827,-0.1827c-0.06536,-0.18193 -0.32403,-0.36215 -0.51734,-0.36042l-4.99544,-2.22677c-3.0834,-1.3915 -9.44584,-3.61452 -12.72489,-4.44604l-9.09137,-2.35002c-7.86555,-2.04923 -23.83011,-4.78581 -31.92911,-5.47316l-88.56018,-7.68679c-9.76874,-0.85084 -29.33107,-1.83915 -39.15804,-1.9787c-0.00385,-0.00005 -0.0077,-0.0001 -0.01155,-0.00016v0l-0.02201,-0.00032c-0.00385,-0.00006 -0.0077,-0.00011 -0.01155,-0.00017c-9.82693,-0.14218 -29.40955,0.285 -39.19866,0.85549l-125.54612,7.27892c-9.40165,0.52744 -27.89723,3.25513 -37.16887,5.47614c-0.01601,0.00393 -0.03204,0.00782 -0.04809,0.01168v0c-0.00998,0.00238 -0.01998,0.00476 -0.02998,0.00714c0.00999,-0.00236 0.01999,-0.00474 0.02998,-0.00714l-0.12947,0.03107c-0.01605,0.00385 -0.0321,0.00766 -0.04815,0.01142c-9.26988,2.22835 -26.98917,8.19104 -35.60635,11.98752l-42.09361,18.45128z" fill="#6afad6" stroke-miterlimit="0"/><path d="M456.22295,481.4333c-0.00469,0.00008 -0.00939,0.00015 -0.01409,0.00023c0.0047,-0.00008 0.00939,-0.00016 0.01409,-0.00023zM739.34704,525.13656l-244.22603,-24.10144c-9.61876,-0.95654 -28.87592,-1.75633 -38.59354,-1.60441c-0.00845,0.00016 -0.01691,0.0003 -0.02537,0.00043v0c-0.0043,0.00006 -0.0086,0.00013 -0.0129,0.00019c0.0043,-0.00006 0.0086,-0.00012 0.0129,-0.00019l-0.05469,0.00085c0.0043,-0.00007 0.0086,-0.00014 0.0129,-0.00021c-0.0043,0.00007 -0.0086,0.00014 -0.0129,0.00021c-0.00846,0.00013 -0.01691,0.00025 -0.02537,0.00036c-9.71765,0.14951 -28.94074,1.54612 -38.52522,2.80049l-97.92056,12.74045c-6.30506,0.815 -18.80403,3.06296 -24.99795,4.49593l-8.39129,1.93395c-1.98786,0.4527 -5.90693,1.55881 -7.83814,2.21222l-0.34943,0.11722c-1.6982,0.56014 -5.00241,1.90666 -6.60841,2.69304l-1.84173,0.89032c-0.68663,0.32191 -2.00391,1.065 -2.63455,1.48618l-1.74845,1.13788l-9.81821,-15.08651l1.74845,-1.13788c1.1178,-0.71671 3.42713,-2.01942 4.61866,-2.60544l1.84173,-0.89032c2.12659,-1.018 6.48559,-2.79437 8.71799,-3.55273l0.34943,-0.11722c2.34882,-0.7823 7.10889,-2.12577 9.52013,-2.68694l8.39129,-1.93395c6.62206,-1.52075 19.98109,-3.9234 26.71806,-4.8053l97.92056,-12.74045c10.08804,-1.30523 30.31412,-2.77494 40.54967,-2.94834c0.01472,-0.0003 0.02945,-0.00056 0.04419,-0.00079c0.00469,-0.00007 0.00939,-0.00014 0.01409,-0.00021c-0.0047,0.00007 -0.00939,0.00014 -0.01409,0.00021l0.05469,-0.00085c0.01474,-0.00023 0.02948,-0.00042 0.0442,-0.00058c10.236,-0.14411 30.49793,0.69765 40.6216,1.6894l244.22603,24.10144z" fill="#07c8cf" stroke-miterlimit="0"/><path d="M390.15887,490.95413c-0.00109,0.00004 -0.00217,0.00009 -0.00326,0.00013c0.00109,-0.00005 0.00217,-0.00009 0.00326,-0.00013zM390.8746,508.9399zM390.87148,508.94002c0.00104,-0.00004 0.00208,-0.00008 0.00312,-0.00012c0,0 0.00104,-0.00004 0,0c-0.00104,0.00004 -0.00208,0.00008 -0.00312,0.00012z" fill="#ffffff" stroke-miterlimit="0"/><path d="M609.84439,490.95426c-0.00109,-0.00004 -0.00217,-0.00009 -0.00326,-0.00013c0.00109,0.00004 0.00217,0.00008 0.00326,0.00013zM609.1254,508.9399zM609.12852,508.94002c-0.00104,-0.00004 -0.00208,-0.00008 -0.00312,-0.00012c0,0 -0.00104,-0.00004 0,0c0.00104,0.00004 0.00208,0.00008 0.00312,0.00012z" fill="#ffffff" stroke-miterlimit="0"/><path d="M470.26612,522.77214c0.0018,-0.00008 0.00359,-0.00016 0.00539,-0.00024c-0.0018,0.00008 -0.00359,0.00016 -0.00539,0.00024zM258.71666,528.11215l166.55456,-19.61095l-0.09664,-1.29623l4.50207,-0.33564c2.30185,-0.17132 6.9088,-0.46239 9.21391,-0.58214l4.50572,-0.23351c3.8826,-0.20097 11.07514,-0.49864 15.94183,-0.66485c3.83884,-0.26461 7.34121,-0.47477 10.10173,-0.59774c0.0056,-0.00026 0.0112,-0.00051 0.0168,-0.00076c0.0019,-0.00008 0.0038,-0.00017 0.00571,-0.00025c-0.0019,0.00008 -0.0038,0.00017 -0.00571,0.00025l0.02256,-0.00099c0.0056,-0.00025 0.0112,-0.00049 0.01681,-0.00073c7.41018,-0.3229 20.20002,-0.49007 30.50399,-0.44295c10.30397,-0.04712 23.09381,0.12005 30.50399,0.44295c0.0056,0.00024 0.0112,0.00048 0.01681,0.00073l0.02256,0.00099c-0.0019,-0.00008 -0.0038,-0.00017 -0.00571,-0.00025c0.0019,0.00008 0.0038,0.00017 0.00571,0.00025c0.0056,0.00025 0.0112,0.0005 0.0168,0.00076c2.76052,0.12297 6.26289,0.33313 10.10173,0.59774c4.86669,0.16621 12.05923,0.46388 15.94183,0.66485l4.50572,0.23351c2.30511,0.11975 6.91206,0.41082 9.21391,0.58214l4.50207,0.33564l-0.09664,1.29623l166.55456,19.61095l-2.10487,17.87651l-170.347,-20.05749c-7.00172,-0.82659 -19.06338,-1.87457 -28.93673,-2.55832c-0.75409,-0.02548 -1.44762,-0.04755 -2.05777,-0.0653l-28.3587,-0.82668c-2.59455,-0.07643 -5.87494,-0.12243 -9.47827,-0.14071c-3.60334,0.01828 -6.88372,0.06428 -9.47827,0.14071l-28.3587,0.82668c-0.61015,0.01775 -1.30368,0.03982 -2.05777,0.0653c-9.87334,0.68375 -21.93501,1.73173 -28.93673,2.55832l-170.347,20.05749z" fill="#6afad6" stroke-miterlimit="0"/><path d="M606.83842,523.90789c0.00328,0.00008 0.00656,0.00016 0.00984,0.00024c-0.00328,-0.00008 -0.00656,-0.00016 -0.00984,-0.00024zM265.34651,546.27917l300.84252,-21.42318c10.13085,-0.71629 30.39219,-1.1897 40.59069,-0.94949c0.01,0.00021 0.02001,0.00044 0.03002,0.00069v0l0.0385,0.00094c0.01001,0.00025 0.02002,0.00051 0.03002,0.00078c10.19804,0.25908 30.41195,1.72329 40.49562,2.93441l65.32467,7.87939c3.56366,0.44524 10.57813,1.88535 14.02894,2.88022l3.85036,1.12783c1.49911,0.45504 4.4156,1.57752 5.83297,2.24495l0.60649,0.29286c1.00082,0.49134 2.94802,1.57211 3.8944,2.16153l0.71865,0.45412c0.5773,0.3734 1.69492,1.17195 2.23524,1.59711l0.67301,0.54119l-11.27975,14.02738l-0.67301,-0.54119c-0.13269,-0.11603 -0.41816,-0.32 -0.57093,-0.40793l-0.71865,-0.45412c-0.50632,-0.32854 -1.55928,-0.91297 -2.10592,-1.16886l-0.60649,-0.29286c-0.73658,-0.37265 -2.26953,-0.96264 -3.06589,-1.17998l-3.85036,-1.12783c-2.73087,-0.81585 -8.29317,-1.95782 -11.12458,-2.28394l-65.32467,-7.87939c-9.65933,-1.17026 -29.02677,-2.57305 -38.79172,-2.81061c-0.0063,-0.00014 -0.0126,-0.00029 -0.0189,-0.00044v0c-0.00304,-0.00008 -0.00609,-0.00015 -0.00913,-0.00023c0.00304,0.00008 0.00609,0.00015 0.00913,0.00023l-0.0385,-0.00094v0v0c-0.0063,-0.00015 -0.0126,-0.00031 -0.01889,-0.00048c-9.76488,-0.24051 -29.17776,0.21298 -38.88278,0.90922l-300.84252,21.42318z" fill="#6afad6" stroke-miterlimit="0"/><path d="M403.79254,518.30328c0.00791,-0.00095 0.01583,-0.00189 0.02376,-0.00284c-0.00792,0.00094 -0.01584,0.00188 -0.02376,0.00284zM724.46212,579.57239l-148.77539,-33.96687c-9.47417,-2.16866 -28.57138,-5.54815 -38.254,-6.77056c-0.00661,-0.00082 -0.01322,-0.00164 -0.01983,-0.00248c-0.00322,-0.00041 -0.00644,-0.00082 -0.00966,-0.00123c0.00322,0.00041 0.00644,0.00082 0.00966,0.00123l-0.04078,-0.00515c0.00322,0.00041 0.00644,0.00082 0.00966,0.00122c-0.00323,-0.00041 -0.00645,-0.00081 -0.00967,-0.00122c-0.00661,-0.00084 -0.01321,-0.00168 -0.01982,-0.00253c-9.68226,-1.22529 -29.01974,-2.7039 -38.73555,-2.96083l-54.47945,-1.47139c-9.53704,-0.26971 -28.50217,0.61152 -38.05782,1.76521c-0.01256,0.00157 -0.02513,0.00311 -0.03771,0.00463c-0.00706,0.00085 -0.01413,0.00169 -0.0212,0.00254c0.00707,-0.00084 0.01413,-0.00169 0.0212,-0.00254l-0.09077,0.01096c0.00707,-0.00085 0.01413,-0.00171 0.02119,-0.00258c-0.00707,0.00086 -0.01413,0.00172 -0.02119,0.00258c-0.01258,0.00152 -0.02516,0.00301 -0.03773,0.00448c-9.55553,1.15467 -28.18506,4.81434 -37.38361,7.34704l-96.66684,26.48382c-0.84778,0.21914 -2.49078,0.80484 -3.286,1.17141l-1.50447,0.6673l-0.95646,0.81522c-0.02467,0.0069 -0.04871,0.04546 -0.06415,0.06283c-0.22203,0.24978 -0.44405,0.49956 -0.44405,0.49956l-13.45337,-11.95855c0,0 0.22203,-0.24978 0.44405,-0.49956c0.42861,-0.48218 1.35731,-1.37675 1.84132,-1.80342l1.08397,-0.9239c0.45496,-0.37363 1.39468,-1.08183 1.89102,-1.39824c0.51858,-0.33059 1.60782,-0.90076 2.16487,-1.16169l1.69915,-0.75365c1.4222,-0.61696 4.33617,-1.65574 5.82793,-2.07757l96.66684,-26.48382c9.8303,-2.68064 29.71921,-6.58836 39.94106,-7.85161c0.02597,-0.00336 0.05197,-0.00661 0.07802,-0.00976v0l0.09077,-0.01096c-0.00792,0.00096 -0.01584,0.00192 -0.02375,0.0029c0.00792,-0.00097 0.01584,-0.00193 0.02375,-0.0029v0c0.02605,-0.00314 0.05208,-0.00617 0.0781,-0.00909c10.22866,-1.20688 30.47601,-2.14705 40.66186,-1.88407l54.47945,1.47139c10.15538,0.27975 30.36634,1.82502 40.49461,3.0949c0.01067,0.00131 0.02134,0.00264 0.03201,0.00399c0.00347,0.00044 0.00695,0.00088 0.01043,0.00132c-0.00347,-0.00044 -0.00695,-0.00088 -0.01043,-0.00132l0.04078,0.00515c-0.00347,-0.00044 -0.00695,-0.00087 -0.01043,-0.00131c0.00348,0.00043 0.00696,0.00087 0.01044,0.00131c0.01067,0.00135 0.02133,0.00271 0.03199,0.0041c10.1257,1.29019 30.0855,4.82247 39.9911,7.0784l148.77539,33.96687z" fill="#07c8cf" stroke-miterlimit="0"/><path d="M654.35262,559.48707c0.00692,0.00136 0.01384,0.0027 0.02076,0.00405c-0.00691,-0.00135 -0.01383,-0.0027 -0.02076,-0.00405zM503.4194,551.88776c0.00339,-0.00019 0.00679,-0.00038 0.01018,-0.00058c-0.00339,0.00019 -0.00679,0.00039 -0.01018,0.00058zM654.30523,559.47789c-0.00693,-0.00133 -0.01385,-0.00267 -0.02077,-0.004c0.00692,0.00134 0.01385,0.00267 0.02077,0.004zM270.79286,568.57l191.19231,-30.31982c10.03689,-1.58588 30.1933,-3.74717 40.38863,-4.33199c0.01129,-0.00068 0.02258,-0.00133 0.03388,-0.00197c0.00367,-0.0002 0.00734,-0.00041 0.01101,-0.00061c-0.00367,0.0002 -0.00734,0.00041 -0.01101,0.00061l0.04298,-0.00242c0.0113,-0.00064 0.02259,-0.00125 0.03388,-0.00184c10.19655,-0.56317 30.46818,-0.67783 40.61964,-0.22848l74.10321,3.32199c10.17828,0.4683 30.30749,2.85171 40.42324,4.78235c0.02547,0.00471 0.05095,0.00953 0.07643,0.01447v0l0.08892,0.01722c0.02548,0.00494 0.05092,0.00997 0.0763,0.01511c10.10509,1.98569 29.6686,7.28987 39.28574,10.65551l30.07501,10.5649c1.11958,0.40132 3.31138,1.3173 4.38359,1.83195l0.82511,0.40253c0.65064,0.32584 1.91798,1.03793 2.53468,1.42417l0.78575,0.50358l-9.71257,15.15474l-0.78575,-0.50358c-0.16904,-0.11734 -0.52623,-0.31803 -0.71436,-0.40138l-0.82511,-0.40253c-0.59643,-0.2994 -1.82497,-0.81282 -2.45708,-1.02684l-30.07501,-10.5649c-9.00019,-3.17437 -27.3305,-8.14358 -36.78184,-9.97455c-0.01235,-0.00234 -0.0247,-0.00471 -0.03705,-0.0071v0l-0.08892,-0.01722c-0.01235,-0.00239 -0.02469,-0.00481 -0.03702,-0.00725c-9.45151,-1.8301 -28.31162,-4.06384 -37.84616,-4.47924l-74.10321,-3.32199c-9.7013,-0.44064 -29.07707,-0.33091 -38.81493,0.21873c-0.00691,0.0004 -0.01383,0.0008 -0.02075,0.00119v0v0c-0.00339,0.00019 -0.00678,0.00038 -0.01018,0.00057c0.00339,-0.00019 0.00679,-0.00038 0.01018,-0.00057l-0.04298,0.00242c-0.00692,0.00039 -0.01384,0.00077 -0.02075,0.00114c-9.73802,0.54678 -29.00368,2.61242 -38.59422,4.13912l-191.19231,30.31982z" fill="#6afad6" stroke-miterlimit="0"/><path d="M722.10215,604.05911l-146.53695,-28.16817c-9.38599,-1.81577 -28.28156,-4.07327 -37.90984,-4.53208c-0.01202,-0.00053 -0.02404,-0.00108 -0.03607,-0.00165v0l-0.08535,-0.00407c0.00666,0.00032 0.01331,0.00063 0.01996,0.00093c-0.00666,-0.00031 -0.01331,-0.00062 -0.01996,-0.00093c-0.01203,-0.00057 -0.02405,-0.00117 -0.03607,-0.00179c-9.6283,-0.45855 -28.6529,-0.00752 -38.16899,0.90778l-132.08173,12.54615c-9.51581,0.89033 -28.28942,4.15473 -37.54723,6.52879l-6.99839,1.78413c-5.71622,1.44334 -16.84688,5.21953 -22.26132,7.55238l-10.02566,4.29245c-0.20406,0.04579 -0.54627,0.24859 -0.68443,0.40559l-0.29723,0.23325c-0.15156,0.20163 -0.26707,0.3553 -0.26707,0.3553l-14.38848,-10.81534c0,0 0.24409,-0.32474 0.48819,-0.64948c0.59574,-0.79256 2.00898,-2.18137 2.76538,-2.82355l0.58674,-0.46045c1.10615,-0.81949 3.4623,-2.21573 4.71229,-2.79248l10.02566,-4.29245c6.06527,-2.58215 18.51492,-6.80582 24.89931,-8.44735l6.99839,-1.78413c9.93931,-2.51995 30.08517,-6.02296 40.29172,-7.00601l132.08173,-12.54615c10.14312,-0.95209 30.41078,-1.43315 40.69094,-0.96943c0.02424,0.00096 0.04849,0.00202 0.07276,0.00318c0.00743,0.00036 0.01486,0.00073 0.02229,0.00109c-0.00743,-0.00037 -0.01486,-0.00074 -0.02229,-0.00109l0.08535,0.00407c0.02427,0.00115 0.04851,0.0024 0.07273,0.00375c10.27768,0.51563 30.40783,2.92119 40.41451,4.8332l146.53695,28.16817z" fill="#07c8cf" stroke-miterlimit="0"/><path d="M453.85979,639.05834c-10.20799,-8.23225 -34.85691,2.93431 -41.59272,-10.25954c-7.85644,-15.3889 45.86994,-39.86289 44.08829,-8.42946c-0.34786,6.13724 -0.85839,12.75426 -2.49556,18.689z" fill="#ffffff" stroke-miterlimit="3"/><path d="M546.1402,639.05834c-1.63717,-5.93474 -2.1477,-12.55176 -2.49556,-18.689c-1.78165,-31.43343 51.94473,-6.95944 44.08829,8.42946c-6.73581,13.19385 -31.38473,2.02729 -41.59272,10.25954z" fill="#ffffff" stroke-miterlimit="3"/><path d="M427.40683,614.37999c4.07889,-5.33814 14.6612,-6.41855 18.46717,0c3.64487,6.14685 -0.73167,13.18789 -3.9929,18.02351c-9.84914,1.34307 -23.39577,-6.34773 -14.47427,-18.02351z" fill="#a5321f" stroke-miterlimit="3"/><path d="M558.1189,632.4035c-3.26123,-4.83562 -7.63777,-11.87666 -3.9929,-18.02351c3.80597,-6.41855 14.38828,-5.33814 18.46717,0c8.9215,11.67578 -4.62513,19.36658 -14.47427,18.02351z" fill="#a5321f" stroke-miterlimit="3"/><path d="M436.3354,616.4319c9.76877,4.66237 -6.242,10.71141 -3.77107,3.10559" fill="#000000" stroke-miterlimit="3"/><path d="M567.43567,619.53749c2.47093,7.60582 -13.53984,1.55678 -3.77107,-3.10559" fill="#000000" stroke-miterlimit="3"/><path d="M478.70453,682.09295" fill="#000000" stroke-miterlimit="3"/><path d="M521.29547,682.09295" fill="#000000" stroke-miterlimit="3"/><path d="M507.9858,649.70608c-2.25303,3.20168 -4.80559,5.97643 -7.51657,8.59932l7.79385,7.92685c-2.81002,-2.53211 -5.60772,-4.93955 -8.26309,-7.47581c-2.65536,2.53626 -5.45307,4.94371 -8.26309,7.47581l7.79385,-7.92685c-2.71098,-2.6229 -5.26354,-5.39765 -7.51657,-8.59932l7.9858,8.12208z" fill="#000000" stroke-miterlimit="3"/><path d="M677.76881,620.457l8.41568,14.99692c2.89812,5.31127 6.7927,16.59044 7.78916,22.55834l1.50618,9.73031c0.07849,0.97656 0.09947,2.93902 -0.09868,3.89579c-0.41612,2.00916 -3.22929,5.2061 -4.82446,6.55997l-9.82256,5.45298c-2.67459,1.01648 -8.28947,1.82239 -10.94665,0.84341c-2.05509,-0.75715 -5.47375,-3.45896 -6.95655,-5.07998l-3.90348,-5.00556c-1.48848,-2.18916 -3.43012,-6.9865 -3.88328,-9.59468l-0.20681,-1.92833c0.01153,-0.05051 -0.00667,-0.14345 -0.03641,-0.18588l-0.02472,-0.08597c-0.02822,-0.05795 -0.0462,-0.09487 -0.0462,-0.09487l0.01659,-0.00808l-0.06376,-0.22172c0.02219,0.05552 0.04982,0.13189 0.07949,0.21406l16.15091,-7.86479c0,0 0.09705,0.1993 0.1941,0.3986c0.26741,0.54915 0.68951,1.6954 0.8745,2.27775l0.11808,0.41064c0.21241,0.79968 0.5298,2.42009 0.63477,3.24081l0.20681,1.92833c-0.15291,0.19139 -0.06284,0.41393 0.18014,0.44508l2.14942,2.75628l1.60189,-0.88929l-0.68749,-4.44139c-0.60953,-4.4072 -3.4587,-12.65875 -5.69834,-16.50309l-8.41568,-14.99692z" fill="#6afad6" stroke-miterlimit="0"/></g></svg>