<svg version="1.1" xmlns="http://www.w3.org/2000/svg" xmlns:xlink="http://www.w3.org/1999/xlink" viewBox="0,0,1000,1000"><g fill="#ffffff" fill-rule="nonzero" stroke="#000000" stroke-width="6" stroke-linecap="round" stroke-linejoin="round" stroke-miterlimit="0" stroke-dasharray="" stroke-dashoffset="0" font-family="none" font-weight="none" font-size="none" text-anchor="none" style="mix-blend-mode:normal"><g><g><path d="M529.31931,185.36046l91.63732,59.42071c8.53895,5.54855 24.79176,17.67672 32.61387,24.33352c0.01563,0.01317 0.03122,0.02641 0.04678,0.03971c0.00482,0.00413 0.00965,0.00827 0.01448,0.0124c-0.00482,-0.00414 -0.00965,-0.00827 -0.01448,-0.0124l0.05579,0.04768c0.01556,0.0133 0.03107,0.02664 0.04651,0.04002c7.79438,6.68925 22.307,20.85365 29.11835,28.42369l30.63733,34.11541c2.41728,2.72809 6.67848,8.60031 8.52241,11.74446l1.90079,3.29121c0.83665,1.49728 2.22895,4.61724 2.78461,6.23992l0.31852,0.97507c0.28206,0.8757 0.78067,2.64555 0.99722,3.5397l0.1691,0.71106c0.12436,0.53936 0.33585,1.62532 0.423,2.17193l0.11101,0.72852l-17.79459,2.71156l-0.11101,-0.72852c-0.02387,-0.18191 -0.09388,-0.5414 -0.14002,-0.71898l-0.1691,-0.71106c-0.12353,-0.53589 -0.42144,-1.59335 -0.59582,-2.11491l-0.31852,-0.97507c-0.21931,-0.74965 -0.85011,-2.16319 -1.2616,-2.82707l-1.90079,-3.29121c-1.33455,-2.35939 -4.49828,-6.71923 -6.32747,-8.71968l-30.63733,-34.11541c-6.40705,-7.14899 -20.09176,-20.5048 -27.44242,-26.7861c-0.00816,-0.00693 -0.01631,-0.01387 -0.02446,-0.02083v0l-0.05579,-0.04768c-0.00814,-0.00696 -0.01627,-0.01393 -0.02439,-0.02091c-7.35,-6.28208 -22.67509,-17.71845 -30.73513,-22.93324l-91.63732,-59.42071zM641.93609,282.84928c-0.00437,-0.00373 -0.00873,-0.00745 -0.01309,-0.01117c0.00436,0.00373 0.00873,0.00745 0.01309,0.01117zM653.67307,269.20209c-0.00483,-0.00413 -0.00967,-0.00825 -0.01451,-0.01237c0.00484,0.00413 0.00968,0.00825 0.01451,0.01237z"/><path d="M443.43343,197.45615l-66.89406,45.43561c-8.41959,5.73119 -24.38488,18.23278 -32.0435,25.08762c-0.0163,0.01444 -0.03255,0.02896 -0.04877,0.04354l-0.05774,0.05191c0.00501,-0.00451 0.01003,-0.009 0.01504,-0.0135c-0.00502,0.0045 -0.01003,0.009 -0.01504,0.0135v0c-0.01622,0.01458 -0.03237,0.02921 -0.04846,0.04388c-7.62792,6.88899 -21.75115,21.43941 -28.34239,29.20417l-8.53028,10.06966c-4.49864,5.37245 -11.99113,17.08035 -14.98498,23.41579l-3.06056,6.57363c-1.34897,2.99231 -3.28832,9.21342 -3.87871,12.44221l-0.49384,2.90042c-0.25191,1.57876 -0.51491,4.75622 -0.52599,6.35492l0.00412,1.18221c0.02014,0.99981 0.18217,2.98994 0.35686,3.97443c0.10711,0.60363 0.21422,1.20726 0.21422,1.20726l17.72315,-3.14484c0,0 -0.10711,-0.60363 -0.21422,-1.20726c-0.03953,-0.22276 -0.09599,-0.66601 -0.08012,-0.89231l-0.00412,-1.18221c-0.01953,-0.82495 0.11584,-2.46043 0.27073,-3.27094l0.49384,-2.90042c0.31025,-2.06091 1.53633,-5.99396 2.45216,-7.86609l3.06056,-6.57363c2.41542,-5.28291 8.61605,-14.97212 12.40126,-19.37842l8.53028,-10.06966c6.18801,-7.32066 19.4837,-21.01787 26.66606,-27.47499c0.00834,-0.00745 0.01668,-0.01491 0.025,-0.0224v0c0.0045,-0.00406 0.00901,-0.00811 0.01351,-0.01218c-0.0045,0.00406 -0.009,0.00812 -0.01351,0.01218l0.05774,-0.05191c0.00832,-0.00748 0.01663,-0.01498 0.02492,-0.02249c7.18196,-6.45756 22.21115,-18.2267 30.1464,-23.60399l66.89406,-45.43561zM356.48166,281.40833c-0.00451,0.00405 -0.00902,0.0081 -0.01354,0.01215c0.00452,-0.00405 0.00903,-0.0081 0.01354,-0.01215zM344.44709,268.02292c-0.005,0.00451 -0.01001,0.00902 -0.01502,0.01353c0.005,-0.00451 0.01,-0.00902 0.01502,-0.01353z"/><path d="M730.03531,395.82715l14.67035,96.87295c0.19565,1.37862 0.40198,4.14962 0.41267,5.54201l-0.0017,1.03085c-0.01442,0.87175 -0.14938,2.60701 -0.26993,3.47051l-0.16224,1.04797l-17.7881,-2.75384l0.16224,-1.04797c0.04169,-0.18447 0.07072,-0.55764 0.05805,-0.74634l0.0017,-1.03085c0.01415,-0.70925 -0.09074,-2.11783 -0.20977,-2.81716l-14.67035,-96.87295z"/><path d="M275.80207,393.42492l-11.09531,87.29909c-0.30358,1.80305 -0.10758,5.36494 0.392,7.12379l0.7784,3.23171c-0.05134,0.10213 0.06847,0.19306 0.11768,0.26512c0.31602,0.46277 1.00219,1.34134 1.39343,1.74275l0.7536,0.80925c0.09475,0.12047 0.32504,0.31583 0.44473,0.41072c0.38507,0.30528 0.77015,0.61057 0.77015,0.61057l-11.18241,14.10509c0,0 -0.38507,-0.30528 -0.77015,-0.61057c-0.65046,-0.51568 -1.8601,-1.65014 -2.43513,-2.24891l-0.7536,-0.80925c-0.83416,-0.91449 -2.38739,-2.83672 -3.08538,-3.85886c-0.9648,-1.41284 -2.28005,-4.55493 -2.75245,-6.20091l-0.7784,-3.23171c-0.73622,-3.37185 -1.11063,-10.17598 -0.74883,-13.60825l11.09531,-87.29909z"/><path d="M455.57335,518.73741l50.80412,-2.63252c3.51071,-0.17392 10.48384,-0.95366 13.94626,-1.55948l4.30219,-0.74269c1.30281,-0.2168 3.86885,-0.81906 5.13207,-1.20452l1.84798,-0.5517c0.81702,-0.23796 2.4687,-0.64172 3.30336,-0.80752l0.60814,-0.11657c0.53142,-0.09606 1.60022,-0.24561 2.1376,-0.2991l0.62444,-0.05551l1.59372,17.92931l-0.62444,0.05551c-0.08707,0.00201 -0.25841,0.02599 -0.34268,0.04795l-0.60814,0.11657c-0.39181,0.06929 -1.16321,0.25787 -1.5428,0.37715l-1.84798,0.5517c-1.78136,0.52348 -5.39097,1.37067 -7.21922,1.69438l-4.30219,0.74269c-3.99329,0.68126 -12.03171,1.58012 -16.07685,1.79772l-50.80412,2.63252z"/><path d="M580.08357,428.64387l21.47479,2.50488c5.14428,0.6576 15.01497,3.44994 19.74138,5.58468l4.78641,2.22569c2.19396,1.08324 6.20952,3.80006 8.03113,5.43364l0.81225,0.76339c1.17463,1.13639 3.30666,3.59736 4.26406,4.92194l0.65031,0.92766c0.58749,0.87919 1.63628,2.71075 2.05419,3.68179c0.2359,0.54812 0.4718,1.09625 0.4718,1.09625l-16.53377,7.1158c0,0 -0.2359,-0.54812 -0.4718,-1.09625c-0.05389,-0.12521 -0.16198,-0.36715 -0.25956,-0.46522l-0.65031,-0.92766c-0.39014,-0.59768 -1.31627,-1.66669 -1.85225,-2.13802l-0.81225,-0.76339c-0.70126,-0.73753 -2.34797,-1.85165 -3.29342,-2.22824l-4.78641,-2.22569c-3.38149,-1.63545 -10.50009,-3.64924 -14.2372,-4.02759l-21.47479,-2.50488z"/><path d="M362.56004,442.13088l39.67204,-9.06491c1.71192,-0.31143 5.15464,-0.44402 6.88544,-0.26519l1.09961,0.16354c1.1303,0.2467 3.30098,0.99942 4.34136,1.50544l0.01678,0.0096c0.52467,0.31178 1.54018,0.98629 2.03101,1.34902l0.24414,0.18663c0.3558,0.28445 1.04764,0.87692 1.36968,1.19896c0.11101,0.11101 0.22202,0.22202 0.22202,0.22202l-12.70237,12.70237c0.51073,0.19204 1.37437,0.49011 1.82936,0.63012l-1.09961,-0.16354c-0.06041,-0.08758 -0.17433,-0.08319 -0.22783,0.00877l-39.67204,9.06491zM405.65546,450.1064c-0.00439,-0.00255 -0.00913,-0.0044 -0.01381,-0.00529c0.00456,0.00175 0.00916,0.00352 0.01381,0.00529z"/><path d="M449.88996,181.04943l5.38189,-4.91018c3.47189,-3.0813 11.18933,-8.03973 15.43489,-9.91686l16.59494,-7.06649c2.34553,-0.9295 7.19947,-2.15138 9.71624,-2.31655c2.61982,-0.17194 7.76998,0.56374 10.2895,1.30661l11.07593,3.64775c8.76563,3.28685 21.73357,14.93913 25.93589,23.30454l5.40895,11.95355c0.57239,1.53288 1.33447,4.7022 1.30329,6.33443c-0.03611,1.89053 -1.31705,5.45137 -2.20819,7.12843l-9.5525,14.52634c-4.48753,6.50221 -16.01961,16.59394 -23.2105,19.86141c-6.90651,3.13825 -21.4798,6.24904 -29.06499,6.40112l-0.4278,0.00302c-8.86132,-0.36555 -23.74697,-7.23988 -29.77129,-13.74866l-0.73969,-0.88089c-4.44501,-5.47776 -10.67196,-17.78112 -12.45389,-24.60672l-2.11156,-8.68219c-0.49495,-2.682 -0.37304,-8.02062 0.24382,-10.67723l0.55245,-1.891c0.6056,-1.52778 2.18155,-4.4081 3.36337,-5.53983c0.54751,-0.5243 1.71146,-1.49377 2.31543,-1.95198l0.64501,-0.47736c0.04694,-0.06085 0.09469,-0.12114 0.14325,-0.18085c0.38526,-0.59242 0.78211,-1.15735 1.13556,-1.62042zM464.05094,184.91739c-0.00843,-0.02038 -0.01693,-0.04074 -0.02552,-0.06109c0.00028,0.00142 0.00055,0.00284 0.00082,0.00425c-1.97267,-4.49843 -9.43122,13.67886 -4.89605,11.82922c0.16756,-0.31486 0.31813,-0.60969 0.43492,-0.82226l-0.21275,0.72823c1.72425,-0.75664 3.09488,-1.99156 4.02159,-3.48264l-1.35216,1.23364c0.8355,-1.15883 2.05429,-3.03794 2.43755,-4.03842c-0.00744,0.12501 -0.01684,0.24595 -0.02832,0.36218c0.4864,-1.82215 0.40613,-3.81006 -0.35317,-5.68731c-0.00032,-0.00164 -0.00064,-0.00327 -0.00096,-0.00491c-0.00859,-0.02035 -0.01724,-0.04065 -0.02596,-0.0609zM463.62197,192.88682c-0.84834,1.39101 -2.31415,3.15137 -3.62196,3.92853l-0.90817,0.67212l-0.07918,0.27104c-0.25809,0.33825 -0.27379,1.02619 -0.03142,1.37588l2.11156,8.68219c1.06695,4.88828 5.44117,13.53097 8.74843,17.28538l0.73969,0.88089c2.90531,4.12551 10.83516,7.78759 15.85969,7.32415l0.4278,-0.00302c5.71291,0.05833 16.54489,-2.426 21.74553,-4.78912c4.91626,-2.2339 12.79808,-8.7548 15.61729,-13.36384l8.25172,-12.54827l-4.56294,-10.08391c-2.018,-5.38123 -9.60164,-12.19546 -15.16728,-13.62848l-11.07593,-3.64775c-0.83797,-0.36289 -2.5726,-0.50147 -3.48009,-0.44192c-1.01054,0.06632 -2.9362,0.46084 -3.84298,0.91625l-16.59494,7.06649c-2.9067,1.16846 -8.08426,4.49502 -10.35511,6.65313z"/><path d="M308.95661,461.78444l-0.59863,-5.16379c-0.25941,-4.18683 1.36379,-12.12235 3.2464,-15.87104l5.22433,-9.14689c1.34812,-1.90773 4.63967,-5.16863 6.76513,-6.11143c1.96878,-0.8733 6.23405,-1.30804 8.3911,-1.18386l20.14591,2.78102c2.69764,0.54598 7.73003,2.57959 9.84537,4.33205c2.2174,1.83701 5.11697,6.726 6.06951,9.45162l1.49064,5.54205c0.74478,3.94591 0.43848,9.58413 -0.83134,13.2971c-1.25885,3.68089 -4.8388,8.60483 -7.77328,11.29326c0.1576,-0.10071 0.3131,-0.20692 0.46624,-0.31868l-0.55887,0.40783c-0.49713,0.36278 -1.01901,0.66715 -1.55747,0.9144c-5.59259,3.09662 -15.07374,6.21522 -20.56834,6.62413l-6.92885,0.30137c-3.05591,-0.02983 -8.87343,-1.36849 -11.63503,-2.67731l-1.98754,-1.07501c-1.49917,-0.99572 -4.19288,-3.3667 -5.10779,-4.90795c-0.39212,-0.66057 -1.12119,-2.01208 -1.46396,-2.69956l-0.89181,-1.8086c0.49348,0.65723 1.36636,1.72392 2.22361,2.54649c-1.68797,-1.70612 -3.32698,-4.74657 -3.96534,-6.52721zM326.57191,457.42615c0.09876,0.13362 0.18936,0.26042 0.27047,0.37847l0.89181,1.8086c0.05141,0.10643 0.12031,0.24125 0.19753,0.38806l0.78112,0.42249c0.49814,0.45429 1.64287,0.7177 2.28946,0.52682l6.92885,-0.30137c3.50914,0.03476 9.70409,-2.13302 12.73585,-4.4183c0.00362,-0.00132 0.00722,-0.00263 0.0108,-0.00395c0.8239,-0.30284 0.36589,-0.49875 0.99572,-2.34039c0.62981,-1.84156 0.96893,-2.1586 0.48064,-2.79713l-1.49064,-5.54205c0.16559,-0.20015 -0.0549,-0.16983 -0.17063,-0.2657c-0.21778,-0.18042 -0.51982,-0.494 -0.82348,-0.36234l-18.27649,-2.52296l-4.15835,7.28054c-0.88027,1.08861 -1.37843,3.52406 -0.99633,4.87088z"/><path d="M691.04339,461.78444l0.59863,-5.16379c0.25941,-4.18683 -1.36379,-12.12235 -3.2464,-15.87104l-5.22433,-9.14689c-1.34812,-1.90773 -4.63967,-5.16863 -6.76513,-6.11143c-1.96878,-0.8733 -6.23405,-1.30804 -8.3911,-1.18386l-20.14591,2.78102c-2.69764,0.54598 -7.73003,2.57959 -9.84537,4.33205c-2.2174,1.83701 -5.11697,6.726 -6.06951,9.45162l-1.49064,5.54205c-0.74478,3.94591 -0.43848,9.58413 0.83134,13.2971c1.25885,3.68089 4.8388,8.60483 7.77328,11.29326c-0.1576,-0.10071 -0.3131,-0.20692 -0.46624,-0.31868l0.55887,0.40783c0.49713,0.36278 1.01901,0.66715 1.55747,0.9144c5.59259,3.09662 15.07374,6.21522 20.56834,6.62413l6.92885,0.30137c3.05591,-0.02983 8.87343,-1.36849 11.63503,-2.67731l1.98754,-1.07501c1.49917,-0.99572 4.19288,-3.3667 5.10779,-4.90795c0.39212,-0.66057 1.12119,-2.01208 1.46396,-2.69956l0.89181,-1.8086c-0.49348,0.65723 -1.36636,1.72392 -2.22361,2.54649c1.68797,-1.70612 3.32698,-4.74657 3.96534,-6.52721zM673.42809,457.42615c-0.09876,0.13362 -0.18936,0.26042 -0.27047,0.37847l-0.89181,1.8086c-0.05141,0.10643 -0.12031,0.24125 -0.19753,0.38806l-0.78112,0.42249c-0.49814,0.45429 -1.64287,0.7177 -2.28946,0.52682l-6.92885,-0.30137c-3.50914,0.03476 -9.70409,-2.13302 -12.73585,-4.4183c-0.00362,-0.00132 -0.00722,-0.00263 -0.0108,-0.00395c-0.8239,-0.30284 -0.36589,-0.49875 -0.99572,-2.34039c-0.62981,-1.84156 -0.96893,-2.1586 -0.48064,-2.79713l1.49064,-5.54205c-0.16559,-0.20015 0.0549,-0.16983 0.17063,-0.2657c0.21778,-0.18042 0.51982,-0.494 0.82348,-0.36234l18.27649,-2.52296l4.15835,7.28054c0.88027,1.08861 1.37843,3.52406 0.99633,4.87088z"/><path d="M267.60605,399.34666c-3.26161,-2.51615 -7.79462,-8.95056 -9.06601,-12.86881l-1.57699,-6.52526c-0.39863,-2.99195 0.13552,-8.90605 1.61688,-11.51695c1.21947,-2.14931 4.71975,-5.57045 6.75232,-6.98312l19.34885,-11.85467c1.55083,-0.78281 4.8185,-1.92805 6.5481,-2.00537c1.79299,-0.08015 5.25926,0.8616 6.91829,1.56469l8.7845,4.6802c3.69411,2.30467 7.92259,6.71679 10.03107,10.57078c2.10848,3.85399 3.5437,9.79427 3.49236,14.14804l-0.38597,4.81086c-0.53093,3.87401 -3.26471,11.00097 -5.80116,13.96881c-2.48329,2.90564 -8.88764,6.78246 -12.51414,8.00539l-7.79378,2.19564c-3.38608,0.75263 -10.12559,0.61845 -13.47903,-0.26835l-2.37821,-0.77339c-1.39565,-0.49236 -4.05688,-1.75187 -5.32246,-2.51904l-1.0608,-0.67946c-0.75815,-0.75197 -1.68942,-1.81798 -2.47756,-2.8769zM283.35389,389.27998c0.11677,0.04446 0.22607,0.07888 0.31588,0.09758l2.37821,0.77339c0.74926,0.44739 2.265,0.47757 3.03148,0.06035l7.79378,-2.19564c1.21704,-0.14157 2.92553,-1.4546 3.71155,-2.37431c0.73286,-0.8575 1.67081,-2.57184 1.54231,-3.71378l0.38597,-4.81086c0.3863,-1.1011 -0.15569,-1.90227 -1.34126,-4.06931c-1.18557,-2.16704 -1.56797,-3.05552 -2.70356,-3.32401l-6.51519,-3.47116l-17.21719,10.54864c-0.00549,-0.00011 -0.01093,-0.00008 -0.0163,0.0001l1.31676,5.44846c-0.11924,0.84913 0.60123,1.87181 1.44095,2.04536l3.6598,2.40015c0.67739,0.68491 1.49341,1.62641 2.21682,2.58504z"/><path d="M732.39395,399.34666c3.26161,-2.51615 7.79462,-8.95056 9.06601,-12.86881l1.57699,-6.52526c0.39863,-2.99195 -0.13552,-8.90605 -1.61688,-11.51695c-1.21947,-2.14931 -4.71975,-5.57045 -6.75232,-6.98312l-19.34885,-11.85467c-1.55083,-0.78281 -4.8185,-1.92805 -6.5481,-2.00537c-1.79299,-0.08015 -5.25926,0.8616 -6.91829,1.56469l-8.7845,4.6802c-3.69411,2.30467 -7.92259,6.71679 -10.03107,10.57078c-2.10848,3.85399 -3.5437,9.79427 -3.49236,14.14804l0.38597,4.81086c0.53093,3.87401 3.26471,11.00097 5.80116,13.96881c2.48329,2.90564 8.88764,6.78246 12.51414,8.00539l7.79378,2.19564c3.38608,0.75263 10.12559,0.61845 13.47903,-0.26835l2.37821,-0.77339c1.39565,-0.49236 4.05688,-1.75187 5.32246,-2.51904l1.0608,-0.67946c0.75815,-0.75197 1.68942,-1.81798 2.47756,-2.8769zM716.64611,389.27998c-0.11677,0.04446 -0.22607,0.07888 -0.31588,0.09758l-2.37821,0.77339c-0.74926,0.44739 -2.265,0.47757 -3.03148,0.06035l-7.79378,-2.19564c-1.21704,-0.14157 -2.92553,-1.4546 -3.71155,-2.37431c-0.73286,-0.8575 -1.67081,-2.57184 -1.54231,-3.71378l-0.38597,-4.81086c-0.3863,-1.1011 0.15569,-1.90227 1.34126,-4.06931c1.18557,-2.16704 1.56797,-3.05552 2.70356,-3.32401l6.51519,-3.47116l17.21719,10.54864c0.00549,-0.00011 0.01093,-0.00008 0.0163,0.0001l-1.31676,5.44846c0.11924,0.84913 -0.60123,1.87181 -1.44095,2.04536l-3.6598,2.40015c-0.67739,0.68491 -1.49341,1.62641 -2.21682,2.58504z"/><path d="M384.5518,299.43572l3.10357,-1.22227c2.01069,-0.76565 6.13886,-1.91261 8.25633,-2.29393l0.89467,-0.15066c3.83526,-0.30925 11.01007,1.2926 14.34962,3.2037l5.19225,3.59929c3.89665,3.10507 9.39202,10.9641 10.33901,15.84451c0.78956,4.06905 0.68303,12.25157 -0.04646,16.3327l-5.18255,25.91929c-0.46816,1.90863 -1.88135,5.54659 -2.96774,7.18202c-1.36854,2.06018 -5.33523,4.95735 -7.57234,6.03418l-8.49573,3.20962c-4.58385,1.3934 -11.23627,1.60011 -15.95967,0.4362c-4.7234,-1.16391 -10.51817,-4.43776 -13.92983,-7.80136l-7.42123,-8.35329c-0.973,-1.38045 -2.56179,-4.36742 -2.80258,-6.0283c-0.1872,-1.29122 0.06609,-3.89307 0.3191,-5.17652l4.48097,-16.37502c1.86791,-6.4741 7.80951,-18.14959 12.03479,-23.70245c-1.15193,-4.37615 1.13974,-8.97683 5.40784,-10.65772zM399.44013,313.57878l-6.02942,7.48367c-3.23243,3.86109 -7.70236,12.60329 -8.93985,17.48441l-3.66487,13.3927l5.18342,5.83442c0.73629,1.30531 2.01064,1.59678 4.77995,2.27917c2.7693,0.68239 4.03318,1.01637 5.29164,0.2026l7.73071,-2.9206c0.01862,-0.06879 0.02598,-0.13546 0.0159,-0.19603l5.18255,-25.91929c0.55484,-2.34212 0.48487,-7.01331 0.02667,-9.3747c-0.30077,-1.55004 -1.43659,-3.85328 -2.92335,-4.48003l-5.19225,-3.59929c-0.17323,-0.52397 -0.72609,-0.64741 -1.10573,-0.24687z"/><path d="M615.4482,299.43572l-3.10357,-1.22227c-2.01069,-0.76565 -6.13886,-1.91261 -8.25633,-2.29393l-0.89467,-0.15066c-3.83526,-0.30925 -11.01007,1.2926 -14.34962,3.2037l-5.19225,3.59929c-3.89665,3.10507 -9.39202,10.9641 -10.33901,15.84451c-0.78956,4.06905 -0.68303,12.25157 0.04646,16.3327l5.18255,25.91929c0.46816,1.90863 1.88135,5.54659 2.96774,7.18202c1.36854,2.06018 5.33523,4.95735 7.57234,6.03418l8.49573,3.20962c4.58385,1.3934 11.23627,1.60011 15.95967,0.4362c4.7234,-1.16391 10.51817,-4.43776 13.92983,-7.80136l7.42123,-8.35329c0.973,-1.38045 2.56179,-4.36742 2.80258,-6.0283c0.1872,-1.29122 -0.06609,-3.89307 -0.3191,-5.17652l-4.48097,-16.37502c-1.86791,-6.4741 -7.80951,-18.14959 -12.03479,-23.70245c1.15193,-4.37615 -1.13974,-8.97683 -5.40784,-10.65772zM600.55987,313.57878l6.02942,7.48367c3.23243,3.86109 7.70236,12.60329 8.93985,17.48441l3.66487,13.3927l-5.18342,5.83442c-0.73629,1.30531 -2.01064,1.59678 -4.77995,2.27917c-2.7693,0.68239 -4.03318,1.01637 -5.29164,0.2026l-7.73071,-2.9206c-0.01862,-0.06879 -0.02598,-0.13546 -0.0159,-0.19603l-5.18255,-25.91929c-0.55484,-2.34212 -0.48487,-7.01331 -0.02667,-9.3747c0.30077,-1.55004 1.43659,-3.85328 2.92335,-4.48003l5.19225,-3.59929c0.17323,-0.52397 0.72609,-0.64741 1.10573,-0.24687z"/><path d="M406.29622,426.91461c2.2758,-4.88018 9.10624,-12.63277 13.66088,-15.50518l12.52103,-7.12216c2.46074,-1.11806 7.65575,-2.33011 10.319,-1.93964c2.45058,0.35928 6.84619,2.54507 8.84254,4.02165l8.83586,7.56577c3.45826,3.44314 6.74564,9.31659 7.71579,14.00492c0.97015,4.68833 0.28368,11.38408 -1.52412,15.91692l-3.4369,7.03243c-1.58102,2.51395 -5.7001,6.66454 -8.46211,7.70887c-2.13711,0.80806 -6.63833,1.33224 -8.92445,1.25464l-17.52795,-1.44323c-3.70584,-0.41576 -10.69098,-2.60699 -13.97029,-4.38244l-2.20642,-1.28036c-2.17774,-1.43382 -5.80311,-5.03622 -7.25075,-7.2048l-0.79847,-1.35605c-0.74853,-1.56123 -1.67749,-4.84444 -1.8579,-6.56642l-0.00499,-0.2585c-0.0047,-0.75173 0.06548,-2.25146 0.14036,-2.99946l0.10198,-0.90001c0.29856,-2.63478 1.71366,-4.8925 3.73689,-6.3285zM421.46538,437.34765l1.91438,1.11089c1.45602,0.97238 4.66258,1.97828 6.41313,2.01178l17.52795,1.44323c0.06962,0.03188 0.15081,0.04622 0.23797,0.04811l2.9364,-6.00834c0.90434,-1.01664 0.58413,-1.87907 0.06953,-4.36589c-0.51459,-2.48682 -0.56294,-3.40551 -1.79648,-3.97976l-8.33517,-7.13706l-11.57632,6.58479c-2.25158,0.99908 -5.21067,4.35766 -5.91817,6.71716z"/><path d="M593.70378,426.91461c-2.2758,-4.88018 -9.10624,-12.63277 -13.66088,-15.50518l-12.52103,-7.12216c-2.46074,-1.11806 -7.65575,-2.33011 -10.319,-1.93964c-2.45058,0.35928 -6.84619,2.54507 -8.84254,4.02165l-8.83586,7.56577c-3.45826,3.44314 -6.74564,9.31659 -7.71579,14.00492c-0.97015,4.68833 -0.28368,11.38408 1.52412,15.91692l3.4369,7.03243c1.58102,2.51395 5.7001,6.66454 8.46211,7.70887c2.13711,0.80806 6.63833,1.33224 8.92445,1.25464l17.52795,-1.44323c3.70584,-0.41576 10.69098,-2.60699 13.97029,-4.38244l2.20642,-1.28036c2.17774,-1.43382 5.80311,-5.03622 7.25075,-7.2048l0.79847,-1.35605c0.74853,-1.56123 1.67749,-4.84444 1.8579,-6.56642l0.00499,-0.2585c0.0047,-0.75173 -0.06548,-2.25146 -0.14036,-2.99946l-0.10198,-0.90001c-0.29856,-2.63478 -1.71366,-4.8925 -3.73689,-6.3285zM578.53462,437.34765l-1.91438,1.11089c-1.45602,0.97238 -4.66258,1.97828 -6.41313,2.01178l-17.52795,1.44323c-0.06962,0.03188 -0.15081,0.04622 -0.23797,0.04811l-2.9364,-6.00834c-0.90434,-1.01664 -0.58413,-1.87907 -0.06953,-4.36589c0.51459,-2.48682 0.56294,-3.40551 1.79648,-3.97976l8.33517,-7.13706l11.57632,6.58479c2.25158,0.99908 5.21067,4.35766 5.91817,6.71716z"/><path d="M453.09364,315.49582c1.45723,-0.56251 4.49073,-1.38864 6.03281,-1.65013c1.62431,-0.18913 4.85755,-0.20425 6.48271,-0.02957l0.48906,0.06566c2.58781,0.56464 7.24639,2.78078 9.31716,4.43229l2.18192,2.0515c3.08304,3.19426 7.23669,10.6969 8.30731,15.00528l0.4669,2.36331c0.89832,5.40107 0.08021,16.0014 -1.63622,21.20066l-4.70149,12.91584c-0.81207,1.74696 -2.91199,4.95506 -4.40738,6.15826c-1.69229,1.36163 -5.85861,2.62117 -8.02656,2.89947l-6.74152,0.1062c-3.95171,-0.25524 -9.28528,-1.93934 -12.46916,-4.06489c-2.36598,-1.57952 -4.99602,-4.42742 -6.91226,-7.23742c-0.67442,-0.76712 -1.22874,-1.66296 -1.62184,-2.66951l-0.07007,-0.17942c-0.13689,-0.35051 -0.25031,-0.70439 -0.34101,-1.05992c-1.79483,-6.01955 -2.71966,-16.6475 -1.85637,-22.27853l2.54991,-14.00521c1.34467,-4.30564 6.62039,-10.82342 10.55144,-13.03555zM457.79534,333.02442l-2.49884,13.72471c-0.78863,3.41399 -0.21097,9.74358 1.1267,13.25413c0.04456,0.10275 0.0874,0.20674 0.12848,0.31193c0.00077,0.00216 0.05424,0.1387 0.0553,0.14114c0.00709,0.01869 0.00778,0.02046 0.01478,0.03829c0.06017,0.15407 0.11581,0.3088 0.16698,0.46403c0.2575,0.22234 0.74565,0.45376 1.59472,1.0206c1.50264,1.00316 1.56964,1.36486 2.19137,1.03758l3.53944,-0.05576l3.70678,-10.1832c1.20024,-2.81333 1.64613,-8.59084 0.89179,-11.55502l-0.4669,-2.36331c-0.11514,-1.69356 -1.60444,-4.38364 -2.9786,-5.38017l-1.92022,-1.80545l-0.13305,-0.01786c-0.38179,-0.09476 -1.12453,-0.08966 -1.53053,0.0052c-0.4885,0.04611 -1.33217,0.27622 -1.74724,0.48322zM459.11781,313.84688c-0.00565,0.00082 -0.01131,0.00165 -0.01696,0.00248c-0.00565,0.00081 -0.01131,0.00163 -0.01696,0.00245z"/><path d="M546.90636,315.49582c-1.45723,-0.56251 -4.49073,-1.38864 -6.03281,-1.65013c-1.62431,-0.18913 -4.85755,-0.20425 -6.48271,-0.02957l-0.48906,0.06566c-2.58781,0.56464 -7.24639,2.78078 -9.31716,4.43229l-2.18192,2.0515c-3.08304,3.19426 -7.23669,10.6969 -8.30731,15.00528l-0.4669,2.36331c-0.89832,5.40107 -0.08021,16.0014 1.63622,21.20066l4.70149,12.91584c0.81207,1.74696 2.91199,4.95506 4.40738,6.15826c1.69229,1.36163 5.85861,2.62117 8.02656,2.89947l6.74152,0.1062c3.95171,-0.25524 9.28528,-1.93934 12.46916,-4.06489c2.36598,-1.57952 4.99602,-4.42742 6.91226,-7.23742c0.67442,-0.76712 1.22874,-1.66296 1.62184,-2.66951l0.07007,-0.17942c0.13689,-0.35051 0.25031,-0.70439 0.34101,-1.05992c1.79483,-6.01955 2.71966,-16.6475 1.85637,-22.27853l-2.54991,-14.00521c-1.34467,-4.30564 -6.62039,-10.82342 -10.55144,-13.03555zM542.20466,333.02442l2.49884,13.72471c0.78863,3.41399 0.21097,9.74358 -1.1267,13.25413c-0.04456,0.10275 -0.0874,0.20674 -0.12848,0.31193c-0.00077,0.00216 -0.05424,0.1387 -0.0553,0.14114c-0.00709,0.01869 -0.00778,0.02046 -0.01478,0.03829c-0.06017,0.15407 -0.11581,0.3088 -0.16698,0.46403c-0.2575,0.22234 -0.74565,0.45376 -1.59472,1.0206c-1.50264,1.00316 -1.56964,1.36486 -2.19137,1.03758l-3.53944,-0.05576l-3.70678,-10.1832c-1.20024,-2.81333 -1.64613,-8.59084 -0.89179,-11.55502l0.4669,-2.36331c0.11514,-1.69356 1.60444,-4.38364 2.9786,-5.38017l1.92022,-1.80545l0.13305,-0.01786c0.38179,-0.09476 1.12453,-0.08966 1.53053,0.0052c0.4885,0.04611 1.33217,0.27622 1.74724,0.48322zM540.88219,313.84688c0.00565,0.00082 0.01131,0.00165 0.01696,0.00248c0.00565,0.00081 0.01131,0.00163 0.01696,0.00245z"/><path d="M409.93546,530.74936c-2.27695,-2.0871 -3.17574,-7.90841 -2.87195,-11.01608l1.48744,-5.03255c1.72153,-5.23998 7.40637,-14.31573 11.36969,-18.1515l13.67164,-12.4584c1.87272,-1.48237 6.01905,-3.75057 8.35674,-4.21128c2.29583,-0.45246 6.91474,0.01021 9.17827,0.62315l8.90157,3.05067c7.57588,3.33216 16.77615,14.77966 18.40054,22.89499l1.00802,8.85502c0.04682,2.20312 -0.57967,6.53365 -1.61076,8.47059c-1.05275,1.97761 -4.40295,4.93575 -6.31682,6.12045l-15.25454,7.51238c-5.29858,2.3672 -16.35229,3.98807 -22.10742,3.24173l-5.75541,-0.96669c-2.53622,-0.56303 -7.20813,-2.60531 -9.34383,-4.08456l-1.19468,-0.923c-0.49918,-0.45095 -1.1213,-1.12778 -1.74642,-1.87823c-2.43612,-0.22649 -4.88199,-0.86416 -6.17208,-2.04668zM422.09818,517.48028c1.46169,1.33981 2.05495,5.85772 2.22714,7.35496l1.48744,-5.03255c0.19348,-0.81214 0.56113,-1.76673 1.04197,-2.76637c-0.24304,-0.29021 -0.48603,-0.55796 -0.72445,-0.79388c0.28141,0.18984 0.55219,0.39554 0.81089,0.61615c0.00058,-0.00117 0.00115,-0.00235 0.00173,-0.00352c-0.26432,-0.22561 -0.54128,-0.43564 -0.8293,-0.62909c-0.36432,-0.35855 -0.71769,-0.64215 -1.0439,-0.81734c-0.61614,-0.33089 -1.60821,-0.52894 -2.72789,-0.62761c-0.53915,-0.07546 -1.09007,-0.10231 -1.64705,-0.07686c-1.31166,-0.01352 0.35452,1.81467 1.40341,2.77611zM426.94291,516.85507c1.27343,1.0869 2.25369,2.53524 2.76563,4.23163l0.345,0.26654c0.23812,0.35476 0.89836,0.64337 1.32048,0.57723l5.75541,0.96669c2.95861,0.71724 8.54535,-0.10198 11.17348,-1.63843l12.96915,-6.3869l-0.72714,-6.38759c0.30269,-3.49524 -2.87314,-7.44679 -6.35166,-7.90309l-8.70083,-2.98187l-13.44789,12.2545c-1.71276,1.40066 -3.79175,4.3386 -5.10163,7.0013z"/><path d="M590.06454,530.74936c2.27695,-2.0871 3.17574,-7.90841 2.87195,-11.01608l-1.48744,-5.03255c-1.72153,-5.23998 -7.40637,-14.31573 -11.36969,-18.1515l-13.67164,-12.4584c-1.87272,-1.48237 -6.01905,-3.75057 -8.35674,-4.21128c-2.29583,-0.45246 -6.91474,0.01021 -9.17827,0.62315l-8.90157,3.05067c-7.57588,3.33216 -16.77615,14.77966 -18.40054,22.89499l-1.00802,8.85502c-0.04682,2.20312 0.57967,6.53365 1.61076,8.47059c1.05275,1.97761 4.40295,4.93575 6.31682,6.12045l15.25454,7.51238c5.29858,2.3672 16.35229,3.98807 22.10742,3.24173l5.75541,-0.96669c2.53622,-0.56303 7.20813,-2.60531 9.34383,-4.08456l1.19468,-0.923c0.49918,-0.45095 1.1213,-1.12778 1.74642,-1.87823c2.43612,-0.22649 4.88199,-0.86416 6.17208,-2.04668zM577.90182,517.48028c-1.46169,1.33981 -2.05495,5.85772 -2.22714,7.35496l-1.48744,-5.03255c-0.19348,-0.81214 -0.56113,-1.76673 -1.04197,-2.76637c0.24304,-0.29021 0.48603,-0.55796 0.72445,-0.79388c-0.28141,0.18984 -0.55219,0.39554 -0.81089,0.61615c-0.00058,-0.00117 -0.00115,-0.00235 -0.00173,-0.00352c0.26432,-0.22561 0.54128,-0.43564 0.8293,-0.62909c0.36432,-0.35855 0.71769,-0.64215 1.0439,-0.81734c0.61614,-0.33089 1.60821,-0.52894 2.72789,-0.62761c0.53915,-0.07546 1.09007,-0.10231 1.64705,-0.07686c1.31166,-0.01352 -0.35452,1.81467 -1.40341,2.77611zM573.05709,516.85507c-1.27343,1.0869 -2.25369,2.53524 -2.76563,4.23163l-0.345,0.26654c-0.23812,0.35476 -0.89836,0.64337 -1.32048,0.57723l-5.75541,0.96669c-2.95861,0.71724 -8.54535,-0.10198 -11.17348,-1.63843l-12.96915,-6.3869l0.72714,-6.38759c-0.30269,-3.49524 2.87314,-7.44679 6.35166,-7.90309l8.70083,-2.98187l13.44789,12.2545c1.71276,1.40066 3.79175,4.3386 5.10163,7.0013z"/><path d="M248.89499,513.83495c0.26014,-0.50913 0.63116,-1.09218 1.06607,-1.69531c0.06559,-0.14302 0.13519,-0.28492 0.20882,-0.42556c1.31117,-2.37193 4.37555,-6.3588 6.29572,-8.19019c1.97471,-1.66956 6.24281,-4.41607 8.57132,-5.51322l4.60971,-2.05939c5.2653,-2.15616 16.18304,-3.66246 21.83548,-3.01259l4.18163,0.61466c4.96851,1.02854 11.24858,4.2066 15.22229,7.72274c3.97371,3.51613 7.89263,9.36262 9.51835,14.16897l2.94039,10.7085c0.36428,2.06275 0.43664,6.22701 -0.22495,8.20487c-0.7076,2.11539 -3.59343,5.51842 -5.31318,6.95941l-8.56831,5.73058c-7.96941,4.46933 -24.06262,4.75652 -32.18641,0.57438l-3.65043,-2.25722c-4.94036,-3.19792 -12.74002,-11.02922 -16.52514,-16.47012c-1.35539,0.0956 -2.75179,-0.11523 -4.08776,-0.67177c-4.45032,-1.85389 -6.64942,-6.88533 -4.98733,-11.41079zM269.96312,515.79619l1.58731,2.69534c2.01775,3.68546 7.67656,9.46768 11.31764,11.56446l3.65043,2.25722c3.22992,2.83836 9.58643,2.72493 12.71302,-0.22687l5.97818,-3.99827l-2.16287,-7.8769c-0.20798,-1.87175 -1.5486,-3.20692 -4.0889,-5.4547c-2.5403,-2.24778 -4.02874,-3.41589 -5.91189,-3.39447l-4.18163,-0.61466c-3.11354,-0.63864 -9.05137,0.18059 -11.87566,1.63846l-4.60971,2.05939c-0.65206,0.25838 -1.57487,0.78557 -2.41593,1.35101zM256.40543,503.57701l0.05836,-0.05174c-0.00973,0.00863 -0.01944,0.01727 -0.02912,0.02593c-0.00976,0.00858 -0.0195,0.01718 -0.02923,0.02581z"/><path d="M751.10501,513.83495c-0.26014,-0.50913 -0.63116,-1.09218 -1.06607,-1.69531c-0.06559,-0.14302 -0.13519,-0.28492 -0.20882,-0.42556c-1.31117,-2.37193 -4.37555,-6.3588 -6.29572,-8.19019c-1.97471,-1.66956 -6.24281,-4.41607 -8.57132,-5.51322l-4.60971,-2.05939c-5.2653,-2.15616 -16.18304,-3.66246 -21.83548,-3.01259l-4.18163,0.61466c-4.96851,1.02854 -11.24858,4.2066 -15.22229,7.72274c-3.97371,3.51613 -7.89263,9.36262 -9.51835,14.16897l-2.94039,10.7085c-0.36428,2.06275 -0.43664,6.22701 0.22495,8.20487c0.7076,2.11539 3.59343,5.51842 5.31318,6.95941l8.56831,5.73058c7.96941,4.46933 24.06262,4.75652 32.18641,0.57438l3.65043,-2.25722c4.94036,-3.19792 12.74002,-11.02922 16.52514,-16.47012c1.35539,0.0956 2.75179,-0.11523 4.08776,-0.67177c4.45032,-1.85389 6.64942,-6.88533 4.98733,-11.41079zM730.03688,515.79619l-1.58731,2.69534c-2.01775,3.68546 -7.67656,9.46768 -11.31764,11.56446l-3.65043,2.25722c-3.22992,2.83836 -9.58643,2.72493 -12.71302,-0.22687l-5.97818,-3.99827l2.16287,-7.8769c0.20798,-1.87175 1.5486,-3.20692 4.0889,-5.4547c2.5403,-2.24778 4.02874,-3.41589 5.91189,-3.39447l4.18163,-0.61466c3.11354,-0.63864 9.05137,0.18059 11.87566,1.63846l4.60971,2.05939c0.65206,0.25838 1.57487,0.78557 2.41593,1.35101zM743.59457,503.57701l-0.05836,-0.05174c0.00973,0.00863 0.01944,0.01727 0.02912,0.02593c0.00976,0.00858 0.0195,0.01718 0.02923,0.02581z"/><path d="M307.04065,603.43043c0.06379,-10.2008 4.57336,-29.58285 9.01913,-38.7641l5.14611,-10.30861c1.88389,-3.49824 6.80884,-9.56241 9.9967,-11.93077c3.17323,-2.35749 10.35735,-5.34295 14.2266,-6.16156l20.4636,-3.69126c5.55236,-0.88087 16.56932,-0.4256 21.9678,1.13868c5.24109,1.51867 14.77112,6.51239 19.10657,9.82694l17.18791,13.5625c2.97124,2.45096 7.99027,8.16733 9.89277,11.51531c1.92724,3.39151 4.2054,10.74355 4.71913,14.61156l3.07734,28.37139c0.12359,2.00776 -0.16903,5.99021 -0.76411,7.90944c-0.62431,2.0135 -2.82828,5.57395 -4.1878,7.18916l-15.19385,16.17055c-4.7395,4.87587 -15.75312,12.38084 -22.10907,14.79447c-6.30551,2.39447 -19.42118,4.25345 -26.15811,3.91079l-9.08302,-0.60135c-8.7809,-0.68471 -25.36006,-5.46333 -33.15832,-9.55725l-9.88624,-5.33866c-2.72588,-1.57951 -7.46899,-5.57895 -9.48621,-7.99889l-1.86057,-2.37344c-0.88526,-1.2826 -2.34459,-4.02329 -2.73556,-5.52893c-0.21797,-0.83943 -0.56172,-2.53818 -0.69883,-3.39456l-0.47659,-3.11111c-0.31726,-2.07102 0.10076,-4.10802 1.07839,-5.8217zM325.07209,625.81087l0.91161,1.16289c0.73585,1.09201 2.6723,2.72484 3.8729,3.26568l9.88624,5.33866c6.01447,3.36509 18.91178,7.08249 25.79462,7.4348l9.08302,0.60135c4.81162,0.42192 14.06444,-1.06333 18.57887,-2.77765c4.464,-1.69517 12.19556,-6.73369 15.38129,-10.29252l15.19385,-16.17055c0.1417,0.01749 0.08822,-0.11379 0.11318,-0.1943c0.05419,-0.17477 0.17442,-0.46589 0.06161,-0.6377l-3.07734,-28.37139c-0.13061,-2.07245 -1.44893,-5.85596 -2.47382,-7.65955c-1.04963,-1.84712 -3.67356,-5.02724 -5.39314,-6.27769l-17.18791,-13.5625c-2.87676,-2.37641 -9.38307,-5.63054 -12.96611,-6.66876c-3.42565,-0.99262 -10.27402,-1.46338 -13.76286,-0.71338l-20.4636,3.69126c-1.89005,0.22026 -5.16291,1.76374 -6.68737,2.89631c-1.50983,1.1217 -3.89644,3.78367 -4.62642,5.5215l-5.14611,10.30861c-3.73232,7.20098 -7.29444,22.51093 -7.12424,30.6199l0.12291,21.15007c0.00263,0.45203 -0.02846,0.89794 -0.09117,1.33497z"/><path d="M692.95935,603.43043c-0.06379,-10.2008 -4.57336,-29.58285 -9.01913,-38.7641l-5.14611,-10.30861c-1.88389,-3.49824 -6.80884,-9.56241 -9.9967,-11.93077c-3.17323,-2.35749 -10.35735,-5.34295 -14.2266,-6.16156l-20.4636,-3.69126c-5.55236,-0.88087 -16.56932,-0.4256 -21.9678,1.13868c-5.24109,1.51867 -14.77112,6.51239 -19.10657,9.82694l-17.18791,13.5625c-2.97124,2.45096 -7.99027,8.16733 -9.89277,11.51531c-1.92724,3.39151 -4.2054,10.74355 -4.71913,14.61156l-3.07734,28.37139c-0.12359,2.00776 0.16903,5.99021 0.76411,7.90944c0.62431,2.0135 2.82828,5.57395 4.1878,7.18916l15.19385,16.17055c4.7395,4.87587 15.75312,12.38084 22.10907,14.79447c6.30551,2.39447 19.42118,4.25345 26.15811,3.91079l9.08302,-0.60135c8.7809,-0.68471 25.36006,-5.46333 33.15832,-9.55725l9.88624,-5.33866c2.72588,-1.57951 7.46899,-5.57895 9.48621,-7.99889l1.86057,-2.37344c0.88526,-1.2826 2.34459,-4.02329 2.73556,-5.52893c0.21797,-0.83943 0.56172,-2.53818 0.69883,-3.39456l0.47659,-3.11111c0.31726,-2.07102 -0.10076,-4.10802 -1.07839,-5.8217zM674.92791,625.81087l-0.91161,1.16289c-0.73585,1.09201 -2.6723,2.72484 -3.8729,3.26568l-9.88624,5.33866c-6.01447,3.36509 -18.91178,7.08249 -25.79462,7.4348l-9.08302,0.60135c-4.81162,0.42192 -14.06444,-1.06333 -18.57887,-2.77765c-4.464,-1.69517 -12.19556,-6.73369 -15.38129,-10.29252l-15.19385,-16.17055c-0.1417,0.01749 -0.08822,-0.11379 -0.11318,-0.1943c-0.05419,-0.17477 -0.17442,-0.46589 -0.06161,-0.6377l3.07734,-28.37139c0.13061,-2.07245 1.44893,-5.85596 2.47382,-7.65955c1.04963,-1.84712 3.67356,-5.02724 5.39314,-6.27769l17.18791,-13.5625c2.87676,-2.37641 9.38307,-5.63054 12.96611,-6.66876c3.42565,-0.99262 10.27402,-1.46338 13.76286,-0.71338l20.4636,3.69126c1.89005,0.22026 5.16291,1.76374 6.68737,2.89631c1.50983,1.1217 3.89644,3.78367 4.62642,5.5215l5.14611,10.30861c3.73232,7.20098 7.29444,22.51093 7.12424,30.6199l-0.12291,21.15007c-0.00263,0.45203 0.02846,0.89794 0.09117,1.33497z"/><path d="M399.24006,551.13101l7.69926,-19.97179c0.26552,-0.68715 0.81742,-2.05304 1.10378,-2.73177l0.25856,-0.61149c0.1581,-0.3724 0.48511,-1.11243 0.65402,-1.48006l0.2784,-0.60363l16.34533,7.53858l-0.2784,0.60363c-0.10949,0.23601 -0.31976,0.71186 -0.42055,0.95171l-0.25856,0.61149c-0.23119,0.54527 -0.67489,1.64338 -0.88739,2.19621l-7.69926,19.97179z"/><path d="M600.75994,551.13101l-7.69926,-19.97179c-0.26552,-0.68715 -0.81742,-2.05304 -1.10378,-2.73177l-0.25856,-0.61149c-0.1581,-0.3724 -0.48511,-1.11243 -0.65402,-1.48006l-0.2784,-0.60363l-16.34533,7.53858l0.2784,0.60363c0.10949,0.23601 0.31976,0.71186 0.42055,0.95171l0.25856,0.61149c0.23119,0.54527 0.67489,1.64338 0.88739,2.19621l7.69926,19.97179z"/><path d="M442.18454,487.16305l-2.34025,-28.58701c-0.08639,-1.06645 -0.21796,-3.20187 -0.26315,-4.27086l-0.04047,-0.97716c-0.02311,-0.58014 -0.04778,-1.74089 -0.04934,-2.32149l-0.00108,-0.97992l17.99999,-0.01991l0.00108,0.97992c-0.00047,0.39932 0.01649,1.19758 0.03393,1.59652l0.04047,0.97716c0.03586,0.88793 0.14514,2.66148 0.21856,3.5471l2.34025,28.58701z"/><path d="M557.81546,487.16305l2.34025,-28.58701c0.08639,-1.06645 0.21796,-3.20187 0.26315,-4.27086l0.04047,-0.97716c0.02311,-0.58014 0.04778,-1.74089 0.04934,-2.32149l0.00108,-0.97992l-17.99999,-0.01991l-0.00108,0.97992c0.00047,0.39932 -0.01649,1.19758 -0.03393,1.59652l-0.04047,0.97716c-0.03586,0.88793 -0.14514,2.66148 -0.21856,3.5471l-2.34025,28.58701z"/><path d="M431.2258,418.75331l-30.13935,-37.99918c-0.5954,-0.76063 -1.87142,-2.20669 -2.55205,-2.89211l-1.15423,-1.17737c-0.09271,-0.10341 -0.30027,-0.28563 -0.40724,-0.37399c-1.25218,-1.03431 -2.95444,-3.82901 -3.62987,-5.31657l-0.10667,-0.32437c-0.29373,-1.45956 -0.57221,-4.43906 -0.21367,-5.87319c0.05551,-0.22202 0.11101,-0.44405 0.11101,-0.44405c0,0 16.54305,4.13576 17.42593,4.35648c0.10166,-1.01095 -0.06861,-2.55752 -0.19786,-3.47952c-0.46254,-0.81514 -1.29002,-2.27158 -1.92564,-2.79661c0.47082,0.3889 1.36568,1.21909 1.7976,1.65083l1.15423,1.17737c1.00216,1.03109 2.90268,3.18486 3.80104,4.30754l30.13935,37.99918z"/><path d="M568.7742,418.75331l30.13935,-37.99918c0.5954,-0.76063 1.87142,-2.20669 2.55205,-2.89211l1.15423,-1.17737c0.09271,-0.10341 0.30027,-0.28563 0.40724,-0.37399c1.25218,-1.03431 2.95444,-3.82901 3.62987,-5.31657l0.10667,-0.32437c0.29373,-1.45956 0.57221,-4.43906 0.21367,-5.87319c-0.05551,-0.22202 -0.11101,-0.44405 -0.11101,-0.44405c0,0 -16.54305,4.13576 -17.42593,4.35648c-0.10166,-1.01095 0.06861,-2.55752 0.19786,-3.47952c0.46254,-0.81514 1.29002,-2.27158 1.92564,-2.79661c-0.47082,0.3889 -1.36568,1.21909 -1.7976,1.65083l-1.15423,1.17737c-1.00216,1.03109 -2.90268,3.18486 -3.80104,4.30754l-30.13935,37.99918z"/><path d="M377.13553,367.33664l-59.11544,12.86271c-0.69382,0.1414 -2.05121,0.52985 -2.71479,0.77691l-0.92694,0.33124c-0.20309,0.06264 -0.59101,0.23018 -0.77585,0.33507l-0.89464,0.45688l-8.1866,-16.03058l0.89464,-0.45688c0.7098,-0.35198 2.16248,-0.97936 2.90535,-1.25476l0.92694,-0.33124c1.21596,-0.42459 3.6884,-1.13214 4.94489,-1.4151l59.11544,-12.86271z"/><path d="M622.86447,367.33664l59.11544,12.86271c0.69382,0.1414 2.05121,0.52985 2.71479,0.77691l0.92694,0.33124c0.20309,0.06264 0.59101,0.23018 0.77585,0.33507l0.89464,0.45688l8.1866,-16.03058l-0.89464,-0.45688c-0.7098,-0.35198 -2.16248,-0.97936 -2.90535,-1.25476l-0.92694,-0.33124c-1.21596,-0.42459 -3.6884,-1.13214 -4.94489,-1.4151l-59.11544,-12.86271z"/><path d="M308.24338,391.0562l20.87107,33.23458c0.59362,0.95123 1.71342,2.8926 2.23959,3.88273l0.44245,0.8383c0.29881,0.57294 0.85841,1.73709 1.1192,2.32831l0.3809,0.87512l-16.5044,7.18365l-0.3809,-0.87512c-0.12011,-0.2839 -0.38691,-0.83893 -0.5336,-1.11006l-0.44245,-0.8383c-0.36283,-0.69424 -1.14495,-2.05018 -1.56423,-2.71186l-20.87107,-33.23458z"/><path d="M691.75662,391.0562l-20.87107,33.23458c-0.59362,0.95123 -1.71342,2.8926 -2.23959,3.88273l-0.44245,0.8383c-0.29881,0.57294 -0.85841,1.73709 -1.1192,2.32831l-0.3809,0.87512l16.5044,7.18365l0.3809,-0.87512c0.12011,-0.2839 0.38691,-0.83893 0.5336,-1.11006l0.44245,-0.8383c0.36283,-0.69424 1.14495,-2.05018 1.56423,-2.71186l20.87107,-33.23458z"/><path d="M332.53265,473.00921l-30.03916,32.40292c-0.3967,0.37386 -1.01782,1.24449 -1.24224,1.74126l-0.56328,1.05151l-0.6457,2.32455c-0.1697,0.60835 -0.52893,1.81917 -0.71846,2.42163l-0.33304,1.05462l-17.16449,-5.42036l0.33304,-1.05462c0.1435,-0.45215 0.41331,-1.36156 0.53961,-1.81882l0.87624,-3.15449c-0.01146,0.04323 -0.03178,0.1198 -0.04669,0.17843c0.15125,-0.58886 0.59283,-1.64834 0.83472,-2.17571l1.0212,-1.90634c0.83123,-1.47389 2.78562,-4.21338 3.9088,-5.47899l30.03916,-32.40292z"/><path d="M667.46735,473.00921l30.03916,32.40292c0.3967,0.37386 1.01782,1.24449 1.24224,1.74126l0.56328,1.05151l0.6457,2.32455c0.1697,0.60835 0.52893,1.81917 0.71846,2.42163l0.33304,1.05462l17.16449,-5.42036l-0.33304,-1.05462c-0.1435,-0.45215 -0.41331,-1.36156 -0.53961,-1.81882l-0.87624,-3.15449c0.01146,0.04323 0.03178,0.1198 0.04669,0.17843c-0.15125,-0.58886 -0.59283,-1.64834 -0.83472,-2.17571l-1.0212,-1.90634c-0.83123,-1.47389 -2.78562,-4.21338 -3.9088,-5.47899l-30.03916,-32.40292z"/><path d="M546.51186,340.52517l31.79281,-8.53549c1.17402,-0.30891 3.54584,-0.81531 4.74365,-1.0128l0.95951,-0.15328c0.71775,-0.10852 2.15998,-0.26265 2.88445,-0.30828l0.98307,-0.05366l0.98112,17.97324l-0.98307,0.05366c-0.25859,0.00804 -0.77164,0.06287 -1.02609,0.10966l-0.95951,0.15328c-0.73833,0.1118 -2.19628,0.42309 -2.91589,0.62256l-31.79281,8.53549z"/><path d="M453.48814,340.52517l-31.79281,-8.53549c-1.17402,-0.30891 -3.54584,-0.81531 -4.74365,-1.0128l-0.95951,-0.15328c-0.71775,-0.10852 -2.15998,-0.26265 -2.88445,-0.30828l-0.98307,-0.05366l-0.98112,17.97324l0.98307,0.05366c0.25859,0.00804 0.77164,0.06287 1.02609,0.10966l0.95951,0.15328c0.73833,0.1118 2.19628,0.42309 2.91589,0.62256l31.79281,8.53549z"/><path d="M478.59499,338.88567l6.9258,-0.06974l0.00754,-0.37293l2.01557,0.04076c0.99637,0.02016 2.98919,0.05541 3.98564,0.07049l2.01569,0.03053c1.56548,0.02372 4.35377,0.05975 6.45476,0.084c2.10099,-0.02425 4.88928,-0.06028 6.45476,-0.084l2.01569,-0.03053c0.99646,-0.01508 2.98928,-0.05032 3.98564,-0.07049l2.01557,-0.04076l0.00754,0.37293l6.9258,0.06974l-0.18124,17.99909l-19.84227,-0.1998c-0.39389,-0.00397 -0.86429,-0.0091 -1.38149,-0.01501c-0.5172,0.00591 -0.98761,0.01104 -1.38149,0.01501l-19.84227,0.1998z"/><path d="M436.33446,609.75709l0.54393,-0.01006l-0.02168,-2.2113l1.06323,-0.01042c0.56344,-0.00541 1.69036,-0.00849 2.25382,-0.00615l1.06301,0.00462c1.09502,0.00487 3.28487,0.02988 4.37971,0.05001l54.38351,1.00581l54.38351,-1.00581c1.09484,-0.02014 3.2847,-0.04514 4.37971,-0.05001l1.06301,-0.00462c0.56347,-0.00234 1.69038,0.00074 2.25382,0.00615l1.06323,0.01042l-0.02168,2.2113l0.54393,0.01006l-0.33285,17.99692l-63.33269,-1.17133l-63.33269,1.17133z"/><path d="M438.03766,711.44612l0.58327,-0.01552l-0.05252,-3.09472l0.94667,-0.01607c0.52235,-0.0086 1.56713,-0.01495 2.08955,-0.0127l0.94625,0.00456c0.99564,0.00506 2.98658,0.03635 3.98188,0.06257l53.46725,1.4229l53.46725,-1.4229c0.9953,-0.02622 2.98624,-0.0575 3.98188,-0.06257l0.94625,-0.00456c0.52242,-0.00225 1.56719,0.0041 2.08955,0.0127l0.94667,0.01607l-0.05252,3.09472l0.58327,0.01552l-0.47886,17.99363l-61.48348,-1.63623l-61.48348,1.63623z"/><path d="M355.94125,617.37315l-1.34344,-3.07412c-1.45849,-4.23807 -1.53415,-12.73951 -0.15132,-17.00287l3.23726,-7.78222c1.22831,-2.01368 4.36843,-5.54357 6.54137,-6.38731c1.76073,-0.68369 5.55069,-0.76626 7.43593,-0.53596l17.79134,4.09953c1.74526,0.60625 5.03091,2.28922 6.27956,3.63635c1.36765,1.4755 2.75297,5.28949 3.14717,7.27898l0.96308,13.99618c-0.1204,1.98948 -0.95244,5.89305 -2.08485,7.51302c-1.09558,1.56729 -4.32344,3.6763 -6.07124,4.48678l-9.12382,2.94432c-2.77003,0.64746 -8.29357,0.58048 -11.04708,-0.13396l-0.25829,-0.09032c-1.28598,-0.52969 -3.17633,-1.63041 -4.85013,-2.77147c-1.4514,0.11953 -2.82331,0.04722 -3.70922,-0.21927c-2.05057,-0.61683 -5.20844,-3.75216 -6.75632,-5.95766zM370.55505,605.56531c1.82109,0.59101 4.27928,1.97556 5.83338,3.14446l0.23829,0.25099c0.05007,0.23617 0.33605,0.42104 0.57195,0.36974l0.0478,0.01672l4.30247,-1.38844l-0.32289,-4.69245l-8.91344,-2.05386l-1.24672,2.99705c-0.32729,0.3432 -0.49713,0.84574 -0.51085,1.35578z"/><path d="M644.05875,617.37315l1.34344,-3.07412c1.45849,-4.23807 1.53415,-12.73951 0.15132,-17.00287l-3.23726,-7.78222c-1.22831,-2.01368 -4.36843,-5.54357 -6.54137,-6.38731c-1.76073,-0.68369 -5.55069,-0.76626 -7.43593,-0.53596l-17.79134,4.09953c-1.74526,0.60625 -5.03091,2.28922 -6.27956,3.63635c-1.36765,1.4755 -2.75297,5.28949 -3.14717,7.27898l-0.96308,13.99618c0.1204,1.98948 0.95244,5.89305 2.08485,7.51302c1.09558,1.56729 4.32344,3.6763 6.07124,4.48678l9.12382,2.94432c2.77003,0.64746 8.29357,0.58048 11.04708,-0.13396l0.25829,-0.09032c1.28598,-0.52969 3.17633,-1.63041 4.85013,-2.77147c1.4514,0.11953 2.82331,0.04722 3.70922,-0.21927c2.05057,-0.61683 5.20844,-3.75216 6.75632,-5.95766zM629.44495,605.56531c-1.82109,0.59101 -4.27928,1.97556 -5.83338,3.14446l-0.23829,0.25099c-0.05007,0.23617 -0.33605,0.42104 -0.57195,0.36974l-0.0478,0.01672l-4.30247,-1.38844l0.32289,-4.69245l8.91344,-2.05386l1.24672,2.99705c0.32729,0.3432 0.49713,0.84574 0.51085,1.35578z"/><path d="M285.63973,545.72937l-3.02665,112.50775c-0.02785,0.93742 -0.01416,2.81177 0.02739,3.74868l0.04513,1.0866c0.01368,0.39276 0.07308,1.17584 0.1188,1.56617l0.11997,1.08713l-17.89138,1.97444l-0.11997,-1.08713c-0.07425,-0.6968 -0.18021,-2.09364 -0.21191,-2.79367l-0.04513,-1.0866c-0.04906,-1.24463 -0.06725,-3.73446 -0.03639,-4.97968l3.02665,-112.50775z"/><path d="M714.36027,545.72937l3.02665,112.50775c0.02785,0.93742 0.01416,2.81177 -0.02739,3.74868l-0.04513,1.0866c-0.01368,0.39276 -0.07308,1.17584 -0.1188,1.56617l-0.11997,1.08713l17.89138,1.97444l0.11997,-1.08713c0.07425,-0.6968 0.18021,-2.09364 0.21191,-2.79367l0.04513,-1.0866c0.04906,-1.24463 0.06725,-3.73446 0.03639,-4.97968l-3.02665,-112.50775z"/><path d="M248.42228,694.76258c-0.37911,-2.57936 -0.5197,-7.75487 -0.28118,-10.35101l0.13836,-1.28609c0.79657,-4.28959 4.73863,-11.6026 7.88412,-14.62602l3.16191,-2.60524c3.74608,-2.65485 12.11163,-5.58355 16.67432,-5.19346c4.10549,0.351 11.5815,3.38335 14.98172,5.71727l5.14965,3.86488c3.41613,2.99543 6.91852,8.26343 8.20085,12.53176c1.28233,4.26833 1.26312,10.59433 0.06343,14.97648l-2.15706,6.03517c-1.3458,2.92773 -5.20567,7.92923 -7.99787,9.51255c-2.4363,1.3815 -7.8237,2.6369 -10.62514,2.77473l-11.64538,-0.05768c-2.88034,-0.16597 -8.40498,-1.51543 -10.89701,-2.96135c-2.19501,-1.27358 -5.97031,-4.6012 -7.62532,-6.52644l-1.87368,-2.31354c-0.61091,-0.87263 -1.69399,-2.70879 -2.02463,-3.71866c-0.18535,-0.56611 -0.45415,-1.72638 -0.56324,-2.31214zM266.5614,694.16007l0.87427,1.07952c0.5132,0.75197 1.88594,1.83051 2.67076,2.28588c0.4878,0.28303 1.38803,0.67958 1.95273,0.53067l11.64538,0.05768c0.46327,0.14786 1.17605,-0.1669 1.60459,-0.40334l2.13644,-5.97748c0.68632,-0.89463 0.31218,-1.52725 -0.35238,-3.73928c-0.66456,-2.21202 -0.70102,-2.9461 -1.76674,-3.31436l-5.14965,-3.86488c-1.20669,-1.12362 -4.07671,-2.03949 -5.71033,-2.17916c-1.17642,-0.10058 -2.99546,0.14285 -3.69483,1.15081l-3.16191,2.60524c-0.94626,0.34795 -1.66303,1.67765 -1.43354,2.65939l-0.13836,1.28609c-0.19021,1.3891 -0.11507,4.15493 0.15027,5.53166z"/><path d="M751.57772,694.76258c0.37911,-2.57936 0.5197,-7.75487 0.28118,-10.35101l-0.13836,-1.28609c-0.79657,-4.28959 -4.73863,-11.6026 -7.88412,-14.62602l-3.16191,-2.60524c-3.74608,-2.65485 -12.11163,-5.58355 -16.67432,-5.19346c-4.10549,0.351 -11.5815,3.38335 -14.98172,5.71727l-5.14965,3.86488c-3.41613,2.99543 -6.91852,8.26343 -8.20085,12.53176c-1.28233,4.26833 -1.26312,10.59433 -0.06343,14.97648l2.15706,6.03517c1.3458,2.92773 5.20567,7.92923 7.99787,9.51255c2.4363,1.3815 7.8237,2.6369 10.62514,2.77473l11.64538,-0.05768c2.88034,-0.16597 8.40498,-1.51543 10.89701,-2.96135c2.19501,-1.27358 5.97031,-4.6012 7.62532,-6.52644l1.87368,-2.31354c0.61091,-0.87263 1.69399,-2.70879 2.02463,-3.71866c0.18535,-0.56611 0.45415,-1.72638 0.56324,-2.31214zM733.4386,694.16007l-0.87427,1.07952c-0.5132,0.75197 -1.88594,1.83051 -2.67076,2.28588c-0.4878,0.28303 -1.38803,0.67958 -1.95273,0.53067l-11.64538,0.05768c-0.46327,0.14786 -1.17605,-0.1669 -1.60459,-0.40334l-2.13644,-5.97748c-0.68632,-0.89463 -0.31218,-1.52725 0.35238,-3.73928c0.66456,-2.21202 0.70102,-2.9461 1.76674,-3.31436l5.14965,-3.86488c1.20669,-1.12362 4.07671,-2.03949 5.71033,-2.17916c1.17642,-0.10058 2.99546,0.14285 3.69483,1.15081l3.16191,2.60524c0.94626,0.34795 1.66303,1.67765 1.43354,2.65939l0.13836,1.28609c0.19021,1.3891 0.11507,4.15493 -0.15027,5.53166z"/><path d="M291.00088,698.24454l116.3809,60.38077c4.18396,2.17812 12.76709,6.05832 17.16626,7.76041l5.30685,2.06177c1.72956,0.67899 5.25521,1.83387 7.0513,2.30976l2.54988,0.68526c0.74201,0.19942 2.22712,0.59412 2.97023,0.78939l0.75515,0.19846c0.36552,0.09608 1.09709,0.28617 1.46314,0.38018l0.75627,0.19427l-4.47845,17.43397l-0.75627,-0.19427c-0.39022,-0.10026 -1.1701,-0.3029 -1.55977,-0.40529l-0.75515,-0.19846c-0.76724,-0.20165 -2.3006,-0.60917 -3.06671,-0.81504l-2.54988,-0.68526c-2.26192,-0.61466 -6.71105,-2.07204 -8.89827,-2.91476l-5.30685,-2.06177c-4.84732,-1.89028 -14.31593,-6.17079 -18.93723,-8.56102l-116.3809,-60.38077z"/><path d="M708.99912,698.24454l-116.3809,60.38077c-4.18396,2.17812 -12.76709,6.05832 -17.16626,7.76041l-5.30685,2.06177c-1.72956,0.67899 -5.25521,1.83387 -7.0513,2.30976l-2.54988,0.68526c-0.74201,0.19942 -2.22712,0.59412 -2.97023,0.78939l-0.75515,0.19846c-0.36552,0.09608 -1.09709,0.28617 -1.46314,0.38018l-0.75627,0.19427l4.47845,17.43397l0.75627,-0.19427c0.39022,-0.10026 1.1701,-0.3029 1.55977,-0.40529l0.75515,-0.19846c0.76724,-0.20165 2.3006,-0.60917 3.06671,-0.81504l2.54988,-0.68526c2.26192,-0.61466 6.71105,-2.07204 8.89827,-2.91476l5.30685,-2.06177c4.84732,-1.89028 14.31593,-6.17079 18.93723,-8.56102l116.3809,-60.38077z"/><path d="M419.77865,795.1795c-2.8267,-2.02745 -6.15421,-5.86292 -7.13096,-8.6856c-0.97676,-2.82268 -1.13438,-8.06903 0.23753,-11.23539c1.75444,-4.04922 7.59794,-10.36036 11.28378,-12.79698l10.48443,-6.20477c1.88884,-0.86252 5.8744,-1.97043 7.93024,-1.7783c2.06459,0.19295 5.7876,2.03735 7.48745,3.24557l14.95552,13.24603c1.39058,1.52896 3.65305,4.97101 4.08996,6.97875c0.4404,2.0238 -0.21119,6.12541 -0.85764,8.10627l-6.12434,13.52884c-1.23083,2.16612 -4.41015,5.93422 -6.57978,7.13745c-2.05481,1.13955 -6.64773,1.97009 -9.00471,1.98769l-8.36798,-0.60219c-1.97706,-0.3295 -5.76879,-1.56945 -7.35743,-2.77722c-1.09457,-0.83216 -2.97446,-2.82841 -3.81908,-3.9145l-1.54101,-2.13428c-0.53155,-0.92978 -2.05382,-2.26638 -3.04454,-2.67321zM430.52238,780.52583l0.45862,0.24796c2.64843,1.56075 7.18704,5.54581 9.07723,7.97012l1.10539,1.53096l5.25545,0.3782l3.91589,-8.65032l-9.55024,-8.4586l-7.44829,4.40795c-0.95304,0.40383 -2.00323,1.467 -2.81406,2.57372z"/><path d="M580.22135,795.1795c2.8267,-2.02745 6.15421,-5.86292 7.13096,-8.6856c0.97676,-2.82268 1.13438,-8.06903 -0.23753,-11.23539c-1.75444,-4.04922 -7.59794,-10.36036 -11.28378,-12.79698l-10.48443,-6.20477c-1.88884,-0.86252 -5.8744,-1.97043 -7.93024,-1.7783c-2.06459,0.19295 -5.7876,2.03735 -7.48745,3.24557l-14.95552,13.24603c-1.39058,1.52896 -3.65305,4.97101 -4.08996,6.97875c-0.4404,2.0238 0.21119,6.12541 0.85764,8.10627l6.12434,13.52884c1.23083,2.16612 4.41015,5.93422 6.57978,7.13745c2.05481,1.13955 6.64773,1.97009 9.00471,1.98769l8.36798,-0.60219c1.97706,-0.3295 5.76879,-1.56945 7.35743,-2.77722c1.09457,-0.83216 2.97446,-2.82841 3.81908,-3.9145l1.54101,-2.13428c0.53155,-0.92978 2.05382,-2.26638 3.04454,-2.67321zM569.47762,780.52583l-0.45862,0.24796c-2.64843,1.56075 -7.18704,5.54581 -9.07723,7.97012l-1.10539,1.53096l-5.25545,0.3782l-3.91589,-8.65032l9.55024,-8.4586l7.44829,4.40795c0.95304,0.40383 2.00323,1.467 2.81406,2.57372z"/><path d="M463.06353,774.49836l6.01271,-0.05368c1.41565,-0.27147 2.94094,-0.48216 3.91995,-0.51714l27.0038,0.24107l27.0038,-0.24107c0.97901,0.03498 2.5043,0.24567 3.91995,0.51714l6.01271,0.05368l-0.02055,2.3022c0.64473,0.3988 1.24275,0.79975 1.64926,1.11639l0.6771,0.59459l-2.36569,2.69398l-0.10081,11.29212l-36.77578,-0.32831l-36.77578,0.32831l-0.10081,-11.29212l-2.36569,-2.69398l0.6771,-0.59459c0.40651,-0.31664 1.00453,-0.71759 1.64926,-1.11639z"/><path d="M393.60203,291.91851l7.45728,-13.08253c3.97872,-6.93175 13.23519,-19.86555 18.51294,-25.86761l2.93389,-3.31649c6.83996,-7.69588 21.92199,-21.56266 30.16405,-27.73356l13.82836,-10.30343c2.39819,-1.76959 7.42889,-4.93654 10.06141,-6.3339l3.068,-1.61028c1.09918,-0.56126 3.35845,-1.5444 4.52743,-1.94001c0.84481,-0.2859 2.53578,-0.85368 3.38193,-1.13558l0.86335,-0.28762c0.43271,-0.14414 1.29881,-0.43039 1.7322,-0.57249l0.84647,-0.27753l5.60791,17.10413l-0.84647,0.27753c-0.41308,0.13542 -1.2386,0.40826 -1.65102,0.54566l-0.86335,0.28762c-0.82588,0.27512 -2.47632,0.82931 -3.30088,1.10836c-0.50039,0.16934 -1.47098,0.57021 -1.93229,0.82798l-3.068,1.61028c-2.02041,1.04478 -5.85645,3.45966 -7.67207,4.82976l-13.82836,10.30343c-7.52793,5.57922 -21.24637,18.19229 -27.43688,25.22614l-2.93389,3.31649c-4.69987,5.27671 -12.87831,16.7042 -16.35687,22.85499l-7.45728,13.08253z"/><path d="M606.39797,291.91851l-7.45728,-13.08253c-3.97872,-6.93175 -13.23519,-19.86555 -18.51294,-25.86761l-2.93389,-3.31649c-6.83996,-7.69588 -21.92199,-21.56266 -30.16405,-27.73356l-13.82836,-10.30343c-2.39819,-1.76959 -7.42889,-4.93654 -10.06141,-6.3339l-3.068,-1.61028c-1.09918,-0.56126 -3.35845,-1.5444 -4.52743,-1.94001c-0.84481,-0.2859 -2.53578,-0.85368 -3.38193,-1.13558l-0.86335,-0.28762c-0.43271,-0.14414 -1.29881,-0.43039 -1.7322,-0.57249l-0.84647,-0.27753l-5.60791,17.10413l0.84647,0.27753c0.41308,0.13542 1.2386,0.40826 1.65102,0.54566l0.86335,0.28762c0.82588,0.27512 2.47632,0.82931 3.30088,1.10836c0.50039,0.16934 1.47098,0.57021 1.93229,0.82798l3.068,1.61028c2.02041,1.04478 5.85645,3.45966 7.67207,4.82976l13.82836,10.30343c7.52793,5.57922 21.24637,18.19229 27.43688,25.22614l2.93389,3.31649c4.69987,5.27671 12.87831,16.7042 16.35687,22.85499l7.45728,13.08253z"/><path d="M470.48282,221.81362l-1.1617,-5.61223c-0.79864,-4.74994 -0.04961,-14.06108 1.49805,-18.62227l5.51263,-14.4413c0.64479,-1.18233 2.14698,-3.44934 3.2195,-4.2435c0.99882,-0.73959 3.40013,-1.52171 4.61816,-1.81334l10.90873,-1.21522c8.16182,-0.27172 21.49171,5.77955 26.65978,12.10253l6.12067,8.80288c0.58881,1.14061 1.58852,3.53151 1.66461,4.80185c0.07294,1.21771 -0.5685,3.61339 -0.97695,4.77304l-8.98413,17.96989c-1.24077,2.13908 -4.37204,5.89421 -6.43146,7.25453c-1.90024,1.25518 -6.15488,2.77284 -8.39181,3.21318l-8.8652,1.31811c-2.38614,0.24703 -7.10006,-0.08571 -9.42784,-0.66548l-0.64366,-0.19105c-1.69828,-0.56132 -4.90194,-2.08859 -6.40732,-3.05453l-1.24908,-0.85668c-0.53551,-0.41184 -1.38596,-1.15139 -2.07403,-1.8345c-2.06148,-1.80964 -4.71479,-5.42013 -5.58896,-7.6859zM487.62063,215.80497c0.38219,0.31085 0.75569,0.63353 1.08236,0.94298l0.87277,0.59859c0.28788,0.26397 0.96209,0.58538 1.34842,0.64283l0.64366,0.19105c0.40049,0.23005 1.22982,0.28859 1.65865,0.11708l8.8652,-1.31811c0.34231,0.05685 0.84269,-0.24616 1.11824,-0.42817c0.11636,-0.07686 0.32695,-0.09126 0.25224,-0.28452l6.70435,-13.40992l-3.20729,-4.6128c-1.49898,-3.26573 -6.44309,-5.51016 -9.88821,-4.48887l-5.77068,0.64285l-3.66475,9.60046c-0.98487,2.07322 -1.32894,6.35043 -0.68815,8.55442z"/><path d="M446.18306,635.76026c-0.15945,0.37814 -0.51137,0.96279 -0.96463,1.58808c-0.24329,0.73579 -0.51509,1.44036 -0.7268,1.91569l-0.49549,0.89023c-0.91232,1.4282 -3.12562,3.94246 -4.4266,5.02852l-8.37425,6.17064c-5.45416,3.93289 -17.34415,9.814 -23.77998,11.76222l-9.06277,2.64182c-8.57063,2.4262 -26.03736,4.38762 -34.92408,3.7846c-8.90625,-0.60434 -25.95442,-4.99268 -34.1062,-8.63141l-17.06218,-7.78357c-1.81213,-0.90669 -5.15534,-3.14664 -6.58317,-4.58257c-1.38203,-1.38986 -3.58764,-4.60307 -4.49838,-6.33975l-6.35422,-13.09918c-4.2104,-9.18687 -6.84716,-28.35621 -5.27352,-38.33868l1.11698,-6.19956c1.14856,-6.09179 5.05528,-17.73597 7.9026,-23.24227c3.03822,-5.87547 11.67293,-15.50652 17.03322,-19.38426l17.63122,-12.22261c2.13159,-1.31591 6.71556,-3.19231 9.19946,-3.48876c1.9168,-0.22876 5.76248,-0.21543 7.68437,-0.03198l28.05116,3.11125c4.43366,0.52146 13.09602,2.47475 17.30503,3.96225c4.46866,1.57927 12.58262,6.26322 16.2745,9.23609l14.97393,12.42614c4.47904,3.80777 12.02612,12.63177 14.97321,17.7181c3.00791,5.1913 6.64898,16.42375 7.44353,22.37139l1.37539,11.67549c0.4942,4.99231 -0.35954,14.81685 -1.70748,19.64908l-2.22095,7.42565c-0.09575,0.83961 -0.23022,1.57553 -0.40388,1.98735zM428.48336,630.99285c0.25593,-0.7559 0.54775,-1.49145 0.78334,-2.01093c0.01541,-0.09756 0.03138,-0.18983 0.04786,-0.27596l2.24814,-7.51657c1.00432,-3.03244 1.54245,-9.2251 1.07627,-12.38533l-1.37539,-11.67549c-0.39606,-4.1592 -3.04758,-11.83903 -5.14166,-15.45316c-2.1549,-3.71911 -7.54118,-10.19941 -10.89352,-12.89052l-14.97393,-12.42614c-2.38662,-2.07138 -7.79866,-5.06369 -10.77749,-6.11644c-3.23848,-1.14451 -9.87438,-2.69399 -13.29148,-3.04329l-28.05116,-3.11125c-0.8923,-0.12868 -2.6723,-0.09194 -3.56699,0.01484c-0.3276,0.0391 -0.8821,0.11138 -1.07748,0.40862l-17.63122,12.22261c-3.72709,2.42197 -9.25872,8.91259 -11.29947,12.8591c-2.23164,4.31567 -5.36455,13.37567 -6.17665,18.1661l-1.11698,6.19956c-1.51498,7.16021 0.36197,20.8057 3.7539,27.29096l6.35422,13.09918c0.15317,0.45658 0.73029,1.16518 1.06708,1.50388c0.29098,0.29263 0.8844,0.79298 1.29007,0.89802l17.06218,7.78357c6.62446,3.10202 20.55642,6.55396 27.85406,7.04915c7.31717,0.49651 21.64652,-0.9877 28.66809,-3.10666l9.06277,-2.64182c4.96431,-1.37495 14.03412,-5.86112 18.13962,-8.97235z"/><path d="M553.81694,635.76026c0.15945,0.37814 0.51137,0.96279 0.96463,1.58808c0.24329,0.73579 0.51509,1.44036 0.7268,1.91569l0.49549,0.89023c0.91232,1.4282 3.12562,3.94246 4.4266,5.02852l8.37425,6.17064c5.45416,3.93289 17.34415,9.814 23.77998,11.76222l9.06277,2.64182c8.57063,2.4262 26.03736,4.38762 34.92408,3.7846c8.90625,-0.60434 25.95442,-4.99268 34.1062,-8.63141l17.06218,-7.78357c1.81213,-0.90669 5.15534,-3.14664 6.58317,-4.58257c1.38203,-1.38986 3.58764,-4.60307 4.49838,-6.33975l6.35422,-13.09918c4.2104,-9.18687 6.84716,-28.35621 5.27352,-38.33868l-1.11698,-6.19956c-1.14856,-6.09179 -5.05528,-17.73597 -7.9026,-23.24227c-3.03822,-5.87547 -11.67293,-15.50652 -17.03322,-19.38426l-17.63122,-12.22261c-2.13159,-1.31591 -6.71556,-3.19231 -9.19946,-3.48876c-1.9168,-0.22876 -5.76248,-0.21543 -7.68437,-0.03198l-28.05116,3.11125c-4.43366,0.52146 -13.09602,2.47475 -17.30503,3.96225c-4.46866,1.57927 -12.58262,6.26322 -16.2745,9.23609l-14.97393,12.42614c-4.47904,3.80777 -12.02612,12.63177 -14.97321,17.7181c-3.00791,5.1913 -6.64898,16.42375 -7.44353,22.37139l-1.37539,11.67549c-0.4942,4.99231 0.35954,14.81685 1.70748,19.64908l2.22095,7.42565c0.09575,0.83961 0.23022,1.57553 0.40388,1.98735zM571.51664,630.99285c-0.25593,-0.7559 -0.54775,-1.49145 -0.78334,-2.01093c-0.01541,-0.09756 -0.03138,-0.18983 -0.04786,-0.27596l-2.24814,-7.51657c-1.00432,-3.03244 -1.54245,-9.2251 -1.07627,-12.38533l1.37539,-11.67549c0.39606,-4.1592 3.04758,-11.83903 5.14166,-15.45316c2.1549,-3.71911 7.54118,-10.19941 10.89352,-12.89052l14.97393,-12.42614c2.38662,-2.07138 7.79866,-5.06369 10.77749,-6.11644c3.23848,-1.14451 9.87438,-2.69399 13.29148,-3.04329l28.05116,-3.11125c0.8923,-0.12868 2.6723,-0.09194 3.56699,0.01484c0.3276,0.0391 0.8821,0.11138 1.07748,0.40862l17.63122,12.22261c3.72709,2.42197 9.25872,8.91259 11.29947,12.8591c2.23164,4.31567 5.36455,13.37567 6.17665,18.1661l1.11698,6.19956c1.51498,7.16021 -0.36197,20.8057 -3.7539,27.29096l-6.35422,13.09918c-0.15317,0.45658 -0.73029,1.16518 -1.06708,1.50388c-0.29098,0.29263 -0.8844,0.79298 -1.29007,0.89802l-17.06218,7.78357c-6.62446,3.10202 -20.55642,6.55396 -27.85406,7.04915c-7.31717,0.49651 -21.64652,-0.9877 -28.66809,-3.10666l-9.06277,-2.64182c-4.96431,-1.37495 -14.03412,-5.86112 -18.13962,-8.97235z"/><path d="M234.14507,693.13062c0.09686,-4.80644 2.8088,-13.64681 5.42388,-17.68074l5.55283,-7.69908c2.52964,-3.0993 8.74689,-7.80393 12.57176,-8.952c3.43759,-1.03182 10.5007,-1.32256 14.05593,-0.81567l7.57663,1.34486c8.51551,1.98502 21.45143,11.51417 25.87185,19.05831l5.91563,11.45577c0.38495,0.99397 1.02488,3.04158 1.05189,4.10103c0.04206,1.64962 -1.3406,4.76491 -2.17974,6.21565l-9.87996,11.72836c-3.47051,3.66519 -11.84234,8.63897 -16.82841,9.36795c-4.2281,0.61816 -12.6601,0.20007 -16.8416,-0.68307l-10.39023,-2.39171c-3.24084,-0.8254 -9.28904,-3.46824 -12.09641,-5.28566l-2.58561,-1.76008c-1.55786,-1.20071 -4.1889,-4.04974 -5.26208,-5.69805l-0.5491,-0.96314c-0.57471,-1.24214 -1.35124,-3.83796 -1.55305,-5.19164l-0.00201,-0.03183c-0.02495,-0.40322 -0.06322,-1.21021 -0.07654,-1.61398l-0.02103,-0.66534c-0.02782,-0.88037 0.07209,-1.73658 0.28347,-2.55019zM252.26064,696.77778l1.8174,1.23714c1.34655,1.01023 4.34919,2.32227 6.00529,2.62408l10.39023,2.39171c2.52734,0.66116 7.61606,0.79145 10.19983,0.41369c1.82581,-0.26694 4.70116,-1.55419 5.66598,-3.15411l6.14465,-7.29423l-3.27954,-6.35092c-1.76153,-4.42737 -8.27364,-9.22447 -13.02422,-9.59419l-7.57663,-1.34486c-1.46091,-0.38349 -4.29343,-0.09997 -5.73532,0.33282c-1.05461,0.31655 -2.69696,1.20852 -3.14745,2.24121l-5.55283,7.69908c-1.31037,1.40877 -2.32578,4.71878 -2.03081,6.62002z"/><path d="M765.85493,693.13062c-0.09686,-4.80644 -2.8088,-13.64681 -5.42388,-17.68074l-5.55283,-7.69908c-2.52964,-3.0993 -8.74689,-7.80393 -12.57176,-8.952c-3.43759,-1.03182 -10.5007,-1.32256 -14.05593,-0.81567l-7.57663,1.34486c-8.51551,1.98502 -21.45143,11.51417 -25.87185,19.05831l-5.91563,11.45577c-0.38495,0.99397 -1.02488,3.04158 -1.05189,4.10103c-0.04206,1.64962 1.3406,4.76491 2.17974,6.21565l9.87996,11.72836c3.47051,3.66519 11.84234,8.63897 16.82841,9.36795c4.2281,0.61816 12.6601,0.20007 16.8416,-0.68307l10.39023,-2.39171c3.24084,-0.8254 9.28904,-3.46824 12.09641,-5.28566l2.58561,-1.76008c1.55786,-1.20071 4.1889,-4.04974 5.26208,-5.69805l0.5491,-0.96314c0.57471,-1.24214 1.35124,-3.83796 1.55305,-5.19164l0.00201,-0.03183c0.02495,-0.40322 0.06322,-1.21021 0.07654,-1.61398l0.02103,-0.66534c0.02782,-0.88037 -0.07209,-1.73658 -0.28347,-2.55019zM747.73936,696.77778l-1.8174,1.23714c-1.34655,1.01023 -4.34919,2.32227 -6.00529,2.62408l-10.39023,2.39171c-2.52734,0.66116 -7.61606,0.79145 -10.19983,0.41369c-1.82581,-0.26694 -4.70116,-1.55419 -5.66598,-3.15411l-6.14465,-7.29423l3.27954,-6.35092c1.76153,-4.42737 8.27364,-9.22447 13.02422,-9.59419l7.57663,-1.34486c1.46091,-0.38349 4.29343,-0.09997 5.73532,0.33282c1.05461,0.31655 2.69696,1.20852 3.14745,2.24121l5.55283,7.69908c1.31037,1.40877 2.32578,4.71878 2.03081,6.62002z"/><path d="M282.6972,556.00298c-2.52138,1.48284 -8.14938,0.70198 -10.88552,-0.36387l-7.97363,-5.16565c-5.81702,-3.89258 -15.46824,-13.64081 -19.30244,-19.49648l-0.5121,-0.80807c-3.8845,-7.20096 -4.69031,-21.98248 -1.61162,-29.56304l4.78401,-9.75547c0.75832,-1.10531 2.46949,-3.21161 3.61705,-3.87656c0.9232,-0.53494 3.02914,-1.03778 4.08772,-1.21997l14.61677,-0.80325c6.01787,-0.20669 17.6439,1.7893 23.15214,4.21858c5.45493,2.40577 14.79842,9.45577 18.77598,13.89821l1.55131,1.79847c4.49404,6.24071 6.65154,19.80832 4.31501,27.13523l-0.43706,1.04434c-2.38547,5.06274 -9.53042,13.06981 -14.28989,16.01415l-3.96359,2.2172c-2.43659,1.26128 -7.58828,2.91752 -10.30339,3.31248l-2.33157,0.26244c-0.51777,0.02751 -1.21251,0.02496 -1.95982,-0.00752c-0.42262,0.4886 -0.86817,0.88752 -1.32939,1.15877zM276.07261,536.95231c2.06557,-0.54387 4.62241,-0.7573 6.33504,-0.66683l0.25785,0.07259c0.45845,0.12912 1.25754,0.35827 1.88863,0.5412l1.75046,-0.19703c0.96721,-0.01953 2.7318,-0.58683 3.52918,-1.13461l3.96359,-2.2172c2.43808,-1.08192 5.67454,-4.70891 6.47293,-7.25397l0.43706,-1.04434c1.75049,-2.43899 1.08027,-6.65368 -1.34043,-8.42937l-1.55131,-1.79847c-2.51715,-3.08702 -8.76638,-7.57894 -12.40946,-9.18563c-3.58978,-1.58319 -10.99031,-3.05405 -14.901,-2.71513l-9.43622,0.51856l-2.4957,5.08919c-2.17269,3.12796 -1.84554,9.12915 0.65431,12.00238l0.5121,0.80807c2.62791,4.34124 9.57055,11.35368 13.88529,14.02487z"/><path d="M717.3028,556.00298c2.52138,1.48284 8.14938,0.70198 10.88552,-0.36387l7.97363,-5.16565c5.81702,-3.89258 15.46824,-13.64081 19.30244,-19.49648l0.5121,-0.80807c3.8845,-7.20096 4.69031,-21.98248 1.61162,-29.56304l-4.78401,-9.75547c-0.75832,-1.10531 -2.46949,-3.21161 -3.61705,-3.87656c-0.9232,-0.53494 -3.02914,-1.03778 -4.08772,-1.21997l-14.61677,-0.80325c-6.01787,-0.20669 -17.6439,1.7893 -23.15214,4.21858c-5.45493,2.40577 -14.79842,9.45577 -18.77598,13.89821l-1.55131,1.79847c-4.49404,6.24071 -6.65154,19.80832 -4.31501,27.13523l0.43706,1.04434c2.38547,5.06274 9.53042,13.06981 14.28989,16.01415l3.96359,2.2172c2.43659,1.26128 7.58828,2.91752 10.30339,3.31248l2.33157,0.26244c0.51777,0.02751 1.21251,0.02496 1.95982,-0.00752c0.42262,0.4886 0.86817,0.88752 1.32939,1.15877zM723.92739,536.95231c-2.06557,-0.54387 -4.62241,-0.7573 -6.33504,-0.66683l-0.25785,0.07259c-0.45845,0.12912 -1.25754,0.35827 -1.88863,0.5412l-1.75046,-0.19703c-0.96721,-0.01953 -2.7318,-0.58683 -3.52918,-1.13461l-3.96359,-2.2172c-2.43808,-1.08192 -5.67454,-4.70891 -6.47293,-7.25397l-0.43706,-1.04434c-1.75049,-2.43899 -1.08027,-6.65368 1.34043,-8.42937l1.55131,-1.79847c2.51715,-3.08702 8.76638,-7.57894 12.40946,-9.18563c3.58978,-1.58319 10.99031,-3.05405 14.901,-2.71513l9.43622,0.51856l2.4957,5.08919c2.17269,3.12796 1.84554,9.12915 -0.65431,12.00238l-0.5121,0.80807c-2.62791,4.34124 -9.57055,11.35368 -13.88529,14.02487z"/><path d="M317.98422,472.30544c-0.51387,-0.95557 -1.46498,-2.90411 -1.90221,-3.89709l-2.3077,-5.29632c-1.87446,-4.96576 -2.54365,-15.10064 -1.33838,-20.26975l3.39404,-11.84558c0.75957,-1.68842 2.72939,-4.85127 4.23982,-5.88858c1.13193,-0.77737 3.75452,-1.6424 5.10109,-1.93987l9.71597,-1.22091c7.50464,-0.46752 20.58095,4.11419 26.15262,9.16342l7.02654,7.22086c0.84413,1.02815 2.32332,3.24123 2.74595,4.4976c0.61327,1.82307 0.19143,5.71791 -0.28924,7.60317l-4.12226,9.73513c-2.60158,5.39378 -10.47545,13.62727 -15.74776,16.46698l-4.83571,2.30732c-2.31576,1.02081 -7.14774,2.31254 -9.66397,2.58348l-2.54246,0.1968c-1.20516,0.01712 -3.60628,-0.16502 -4.7587,-0.50979c-0.956,-0.28601 -2.75253,-1.15314 -3.6175,-1.65253l-2.37597,-1.51061c-0.68228,-0.48434 -1.98476,-1.53518 -2.5413,-2.15851c-0.49108,-0.55001 -1.31542,-1.77382 -1.69363,-2.40748zM333.76977,463.65594l0.99413,-0.07695c0.88643,0.00755 2.53728,-0.43377 3.30169,-0.88264l4.83571,-2.30732c2.64358,-0.93729 6.10554,-4.55736 6.92392,-7.24014l2.28731,-5.4017l-3.97337,-4.08325c-2.09756,-2.8321 -7.6016,-4.76061 -11.00807,-3.85703l-5.29167,0.66495l-2.09975,7.32836c-0.87669,2.09719 -0.60856,6.15808 0.53627,8.12179l2.3077,5.29632c0.26523,0.61888 0.84441,1.80795 1.18615,2.43762z"/><path d="M682.01578,472.30544c0.51387,-0.95557 1.46498,-2.90411 1.90221,-3.89709l2.3077,-5.29632c1.87446,-4.96576 2.54365,-15.10064 1.33838,-20.26975l-3.39404,-11.84558c-0.75957,-1.68842 -2.72939,-4.85127 -4.23982,-5.88858c-1.13193,-0.77737 -3.75452,-1.6424 -5.10109,-1.93987l-9.71597,-1.22091c-7.50464,-0.46752 -20.58095,4.11419 -26.15262,9.16342l-7.02654,7.22086c-0.84413,1.02815 -2.32332,3.24123 -2.74595,4.4976c-0.61327,1.82307 -0.19143,5.71791 0.28924,7.60317l4.12226,9.73513c2.60158,5.39378 10.47545,13.62727 15.74776,16.46698l4.83571,2.30732c2.31576,1.02081 7.14774,2.31254 9.66397,2.58348l2.54246,0.1968c1.20516,0.01712 3.60628,-0.16502 4.7587,-0.50979c0.956,-0.28601 2.75253,-1.15314 3.6175,-1.65253l2.37597,-1.51061c0.68228,-0.48434 1.98476,-1.53518 2.5413,-2.15851c0.49108,-0.55001 1.31542,-1.77382 1.69363,-2.40748zM666.23023,463.65594l-0.99413,-0.07695c-0.88643,0.00755 -2.53728,-0.43377 -3.30169,-0.88264l-4.83571,-2.30732c-2.64358,-0.93729 -6.10554,-4.55736 -6.92392,-7.24014l-2.28731,-5.4017l3.97337,-4.08325c2.09756,-2.8321 7.6016,-4.76061 11.00807,-3.85703l5.29167,0.66495l2.09975,7.32836c0.87669,2.09719 0.60856,6.15808 -0.53627,8.12179l-2.3077,5.29632c-0.26523,0.61888 -0.84441,1.80795 -1.18615,2.43762z"/><path d="M294.98867,413.73577l-4.21388,-0.55754c-4.91046,-0.91389 -13.42479,-5.2861 -17.02865,-8.74443l-7.51689,-8.01172c-2.06918,-2.58816 -4.88486,-8.43648 -5.10877,-11.73214c-0.2053,-3.02179 1.20738,-8.82163 2.47871,-11.57613l9.05847,-16.99475c1.01668,-1.53807 3.44931,-4.29472 5.03896,-5.21239c1.39537,-0.80551 4.50583,-1.63709 6.10521,-1.86361l9.45767,-0.65351c7.39974,0.03149 19.68852,5.61766 24.57756,11.17233l3.46622,4.57376c1.80511,2.64857 4.28742,8.44238 4.64449,11.62356c0.35515,3.1641 -0.7472,9.33751 -1.89388,12.31194l-3.29126,7.42916c-1.32786,2.61121 -4.93659,7.06069 -7.21745,8.89896l-1.19612,0.86289c-1.05645,0.7351 -3.12419,1.93342 -4.54007,2.64553c-2.65351,2.7318 -9.04108,5.63895 -12.82031,5.82807zM294.9365,395.572c1.60843,-1.514 3.66489,-3.11441 5.05573,-3.86322c0.06336,-0.02455 0.13315,-0.05426 0.20759,-0.08809c-0.06736,0.02742 -0.13457,0.05571 -0.20162,0.08488c0.00007,-0.00004 0.00015,-0.00008 0.00022,-0.00012c0.07069,-0.03093 0.14156,-0.06089 0.2126,-0.08987c0.51544,-0.23565 1.24647,-0.66427 1.60697,-0.95126l1.19612,-0.86289c0.55639,-0.20856 1.20199,-1.00457 1.2912,-1.59202l3.29126,-7.42916c0.47996,-0.6973 0.55631,-2.18648 0.46351,-3.01324c-0.09088,-0.80968 -0.48212,-2.20737 -1.1026,-2.75944l-3.46622,-4.57376c-1.44057,-2.79742 -5.93606,-4.84095 -8.99097,-4.08706l-7.16059,0.49479l-7.85609,14.73895c-0.41303,0.40556 -0.44198,1.33847 -0.40456,1.88937c0.01882,0.27703 -0.10397,0.61286 0.27702,0.63616l7.51689,8.01172c1.15168,1.61026 4.28308,3.21828 6.2628,3.21603z"/><path d="M705.01133,413.73577l4.21388,-0.55754c4.91046,-0.91389 13.42479,-5.2861 17.02865,-8.74443l7.51689,-8.01172c2.06918,-2.58816 4.88486,-8.43648 5.10877,-11.73214c0.2053,-3.02179 -1.20738,-8.82163 -2.47871,-11.57613l-9.05847,-16.99475c-1.01668,-1.53807 -3.44931,-4.29472 -5.03896,-5.21239c-1.39537,-0.80551 -4.50583,-1.63709 -6.10521,-1.86361l-9.45767,-0.65351c-7.39974,0.03149 -19.68852,5.61766 -24.57756,11.17233l-3.46622,4.57376c-1.80511,2.64857 -4.28742,8.44238 -4.64449,11.62356c-0.35515,3.1641 0.7472,9.33751 1.89388,12.31194l3.29126,7.42916c1.32786,2.61121 4.93659,7.06069 7.21745,8.89896l1.19612,0.86289c1.05645,0.7351 3.12419,1.93342 4.54007,2.64553c2.65351,2.7318 9.04108,5.63895 12.82031,5.82807zM705.0635,395.572c-1.60843,-1.514 -3.66489,-3.11441 -5.05573,-3.86322c-0.06336,-0.02455 -0.13315,-0.05426 -0.20759,-0.08809c0.06736,0.02742 0.13457,0.05571 0.20162,0.08488c-0.00007,-0.00004 -0.00015,-0.00008 -0.00022,-0.00012c-0.07069,-0.03093 -0.14156,-0.06089 -0.2126,-0.08987c-0.51544,-0.23565 -1.24647,-0.66427 -1.60697,-0.95126l-1.19612,-0.86289c-0.55639,-0.20856 -1.20199,-1.00457 -1.2912,-1.59202l-3.29126,-7.42916c-0.47996,-0.6973 -0.55631,-2.18648 -0.46351,-3.01324c0.09088,-0.80968 0.48212,-2.20737 1.1026,-2.75944l3.46622,-4.57376c1.44057,-2.79742 5.93606,-4.84095 8.99097,-4.08706l7.16059,0.49479l7.85609,14.73895c0.41303,0.40556 0.44198,1.33847 0.40456,1.88937c-0.01882,0.27703 0.10397,0.61286 -0.27702,0.63616l-7.51689,8.01172c-1.15168,1.61026 -4.28308,3.21828 -6.2628,3.21603z"/><path d="M398.75584,381.91768l-7.61087,-1.9382c-4.95784,-1.4403 -13.6181,-6.47875 -17.32053,-10.07689l-11.35373,-11.79554c-1.58816,-1.89832 -4.03072,-6.13861 -4.54831,-8.5528c-0.48716,-2.27225 -0.20584,-6.87218 0.3016,-9.14391l6.70715,-23.57843c0.6411,-1.76589 2.38812,-5.06794 3.68652,-6.41913c1.28117,-1.33325 4.45517,-3.20688 6.16435,-3.92374l9.56422,-3.25853c7.73092,-2.00775 21.88996,0.72555 28.31807,5.4666l5.2617,4.52039c2.21534,2.13523 5.6743,7.10122 6.58168,10.03595c0.90201,2.91738 0.87891,8.9349 0.28014,11.93413l-3.99432,15.45449c-1.3318,4.47036 -5.90766,12.2924 -9.15172,15.6441l-2.74441,2.63516c1.56196,2.89185 1.43572,6.45431 -0.4229,9.25333c-2.11537,3.18567 -6.01288,4.68675 -9.71864,3.74303zM388.85595,359.26348c2.04215,-1.60003 5.20547,-2.87047 7.01059,-3.25828l0.42128,0.01016c0.01865,0.00136 0.03772,0.00281 0.05718,0.00434l2.82995,-2.71729c1.7091,-1.40429 3.80472,-4.98657 4.19123,-7.16456l3.99432,-15.45449c0.31492,-0.53592 0.12695,-1.54194 -0.0496,-2.11295c-0.17118,-0.55366 -0.56036,-1.45544 -1.11461,-1.6996l-5.2617,-4.52039c-2.26914,-2.73086 -7.66083,-3.77169 -10.78339,-2.08166l-8.2867,2.82328l-6.32733,22.24321c-0.13195,0.08277 -0.08567,0.21978 -0.0443,0.34482l11.30006,11.73977c0.5025,0.59361 1.22523,1.22855 2.06304,1.84363z"/><path d="M601.24416,381.91768l7.61087,-1.9382c4.95784,-1.4403 13.6181,-6.47875 17.32053,-10.07689l11.35373,-11.79554c1.58816,-1.89832 4.03072,-6.13861 4.54831,-8.5528c0.48716,-2.27225 0.20584,-6.87218 -0.3016,-9.14391l-6.70715,-23.57843c-0.6411,-1.76589 -2.38812,-5.06794 -3.68652,-6.41913c-1.28117,-1.33325 -4.45517,-3.20688 -6.16435,-3.92374l-9.56422,-3.25853c-7.73092,-2.00775 -21.88996,0.72555 -28.31807,5.4666l-5.2617,4.52039c-2.21534,2.13523 -5.6743,7.10122 -6.58168,10.03595c-0.90201,2.91738 -0.87891,8.9349 -0.28014,11.93413l3.99432,15.45449c1.3318,4.47036 5.90766,12.2924 9.15172,15.6441l2.74441,2.63516c-1.56196,2.89185 -1.43572,6.45431 0.4229,9.25333c2.11537,3.18567 6.01288,4.68675 9.71864,3.74303zM611.14405,359.26348c-2.04215,-1.60003 -5.20547,-2.87047 -7.01059,-3.25828l-0.42128,0.01016c-0.01865,0.00136 -0.03772,0.00281 -0.05718,0.00434l-2.82995,-2.71729c-1.7091,-1.40429 -3.80472,-4.98657 -4.19123,-7.16456l-3.99432,-15.45449c-0.31492,-0.53592 -0.12695,-1.54194 0.0496,-2.11295c0.17118,-0.55366 0.56036,-1.45544 1.11461,-1.6996l5.2617,-4.52039c2.26914,-2.73086 7.66083,-3.77169 10.78339,-2.08166l8.2867,2.82328l6.32733,22.24321c0.13195,0.08277 0.08567,0.21978 0.0443,0.34482l-11.30006,11.73977c-0.5025,0.59361 -1.22523,1.22855 -2.06304,1.84363z"/><path d="M432.15505,360.3674c0.18043,-0.78787 0.45428,-2.37859 0.5477,-3.18143l0.54358,-4.4224c0.59654,-4.10971 3.19385,-11.85843 5.19464,-15.49745l2.2039,-3.80893c3.94885,-5.5427 14.69128,-11.48828 21.48485,-11.89117l7.33277,0.25857c1.74231,0.31864 5.14531,1.39722 6.46915,2.5455c1.2559,1.08935 2.79773,4.09413 3.38028,5.66761l3.18813,14.30557c0.49716,3.27131 0.0688,9.74351 -1.27044,12.76076c-1.26884,2.85861 -5.34367,7.47751 -7.83348,9.37813l-9.41606,6.39703c-3.15781,1.93624 -10.00572,4.19489 -13.69582,4.5173l-3.11194,0.12592c-1.93347,-0.03969 -5.67868,-0.75571 -7.49044,-1.43204l-1.28387,-0.57064c-1.0337,-0.5884 -3.00549,-1.936 -3.76241,-2.84592c-0.59938,-0.72054 -1.47711,-2.3859 -1.85929,-3.24434l-0.311,-0.86018c-0.47473,-1.83873 -0.71382,-5.5618 -0.47819,-7.44614zM450.57022,359.36631c1.18047,-0.17868 2.59509,-0.74176 3.29464,-1.37613l9.41606,-6.39703c0.64009,-0.22576 1.23028,-1.19175 1.49655,-1.79164c0.19586,-0.44126 0.47953,-1.12084 0.1536,-1.54282l-1.92789,-8.65069l-1.50779,-0.05317c-2.11819,-0.71714 -4.75348,0.74141 -5.27058,2.9171l-2.2039,3.80893c-1.25737,1.99197 -2.71189,6.3313 -2.90903,8.67865z"/><path d="M567.84495,360.3674c-0.18043,-0.78787 -0.45428,-2.37859 -0.5477,-3.18143l-0.54358,-4.4224c-0.59654,-4.10971 -3.19385,-11.85843 -5.19464,-15.49745l-2.2039,-3.80893c-3.94885,-5.5427 -14.69128,-11.48828 -21.48485,-11.89117l-7.33277,0.25857c-1.74231,0.31864 -5.14531,1.39722 -6.46915,2.5455c-1.2559,1.08935 -2.79773,4.09413 -3.38028,5.66761l-3.18813,14.30557c-0.49716,3.27131 -0.0688,9.74351 1.27044,12.76076c1.26884,2.85861 5.34367,7.47751 7.83348,9.37813l9.41606,6.39703c3.15781,1.93624 10.00572,4.19489 13.69582,4.5173l3.11194,0.12592c1.93347,-0.03969 5.67868,-0.75571 7.49044,-1.43204l1.28387,-0.57064c1.0337,-0.5884 3.00549,-1.936 3.76241,-2.84592c0.59938,-0.72054 1.47711,-2.3859 1.85929,-3.24434l0.311,-0.86018c0.47473,-1.83873 0.71382,-5.5618 0.47819,-7.44614zM549.42978,359.36631c-1.18047,-0.17868 -2.59509,-0.74176 -3.29464,-1.37613l-9.41606,-6.39703c-0.64009,-0.22576 -1.23028,-1.19175 -1.49655,-1.79164c-0.19586,-0.44126 -0.47953,-1.12084 -0.1536,-1.54282l1.92789,-8.65069l1.50779,-0.05317c2.11819,-0.71714 4.75348,0.74141 5.27058,2.9171l2.2039,3.80893c1.25737,1.99197 2.71189,6.3313 2.90903,8.67865z"/><path d="M463.69971,410.47689c0.78633,0.70115 2.28707,2.17673 2.98921,2.96214c1.30931,1.46459 2.92326,5.03542 3.46388,6.9307l0.75479,3.77236c0.41575,2.88459 0.17504,8.62188 -0.78042,11.37066c-1.05944,3.04792 -5.20837,7.85048 -7.81191,9.77402l-7.30841,4.54905c-4.24754,2.34084 -13.36466,4.59927 -18.17124,4.00626c-4.70148,-0.58004 -12.95786,-4.67565 -16.56694,-7.752l-1.89888,-1.77808c-2.8728,-3.11796 -5.70513,-8.35907 -6.62129,-12.4537c-0.91617,-4.09462 -0.58747,-10.043 0.68264,-14.08794l3.35595,-8.4514c0.82643,-1.59546 2.8911,-4.52945 4.33953,-5.57749c1.41739,-1.02559 4.76331,-2.08199 6.49451,-2.38551l12.55212,-0.97668c4.0489,-0.14623 11.78132,1.39472 15.46485,3.0819l4.44057,2.26163c1.21217,1.00251 2.83931,2.65466 3.88667,4.10947zM450.40049,422.75395c-0.7501,-0.51285 -1.52866,-1.40536 -2.19577,-2.36922l-1.73572,-0.88402c-1.35796,-0.8805 -4.30767,-1.46833 -5.89942,-1.17566l-9.27819,0.72193l-2.13093,5.3664c-0.63483,0.75235 -0.32722,1.36527 0.1537,3.51464c0.48092,2.14937 0.46384,2.83493 1.35876,3.24501l1.89888,1.77808c1.27187,1.4941 4.53288,2.7877 6.46783,3.02643c1.82985,0.22576 5.02605,-0.23056 6.45539,-1.42324l7.30841,-4.54905c0.32907,0.09817 0.24689,-0.18746 0.32158,-0.40235c0.17868,-0.51404 0.39438,-1.42672 0.13242,-1.9293l-0.57032,-2.85044c-0.30622,-0.30925 -0.63804,-0.62847 -0.8615,-0.81832z"/><path d="M536.30029,410.47689c-0.78633,0.70115 -2.28707,2.17673 -2.98921,2.96214c-1.30931,1.46459 -2.92326,5.03542 -3.46388,6.9307l-0.75479,3.77236c-0.41575,2.88459 -0.17504,8.62188 0.78042,11.37066c1.05944,3.04792 5.20837,7.85048 7.81191,9.77402l7.30841,4.54905c4.24754,2.34084 13.36466,4.59927 18.17124,4.00626c4.70148,-0.58004 12.95786,-4.67565 16.56694,-7.752l1.89888,-1.77808c2.8728,-3.11796 5.70513,-8.35907 6.62129,-12.4537c0.91617,-4.09462 0.58747,-10.043 -0.68264,-14.08794l-3.35595,-8.4514c-0.82643,-1.59546 -2.8911,-4.52945 -4.33953,-5.57749c-1.41739,-1.02559 -4.76331,-2.08199 -6.49451,-2.38551l-12.55212,-0.97668c-4.0489,-0.14623 -11.78132,1.39472 -15.46485,3.0819l-4.44057,2.26163c-1.21217,1.00251 -2.83931,2.65466 -3.88667,4.10947zM549.59951,422.75395c0.7501,-0.51285 1.52866,-1.40536 2.19577,-2.36922l1.73572,-0.88402c1.35796,-0.8805 4.30767,-1.46833 5.89942,-1.17566l9.27819,0.72193l2.13093,5.3664c0.63483,0.75235 0.32722,1.36527 -0.1537,3.51464c-0.48092,2.14937 -0.46384,2.83493 -1.35876,3.24501l-1.89888,1.77808c-1.27187,1.4941 -4.53288,2.7877 -6.46783,3.02643c-1.82985,0.22576 -5.02605,-0.23056 -6.45539,-1.42324l-7.30841,-4.54905c-0.32907,0.09817 -0.24689,-0.18746 -0.32158,-0.40235c-0.17868,-0.51404 -0.39438,-1.42672 -0.13242,-1.9293l0.57032,-2.85044c0.30622,-0.30925 0.63804,-0.62847 0.8615,-0.81832z"/><path d="M457.95201,470.95819c0.38933,0.08955 0.97956,0.24659 1.54997,0.42462c0.04706,0.0097 0.09533,0.02008 0.14474,0.03112c-0.03851,-0.01356 -0.07443,-0.02612 -0.10711,-0.03747l0.22433,0.0644c1.52555,0.35948 4.00478,1.28393 5.2185,1.96086l0.74435,0.51633c1.55742,1.25811 4.12068,4.24733 5.12652,5.97842l1.99056,4.08598c1.77675,4.12107 3.05979,12.70266 2.56608,17.16319l-2.55486,16.19067c-0.49474,1.80354 -1.97934,5.23403 -3.2683,6.57306c-1.05882,1.09995 -3.68175,2.66766 -5.0774,3.29759l-23.03993,8.34623c-2.89608,0.92475 -8.83741,1.75039 -11.85715,1.41883c-3.27878,-0.36 -9.18687,-3.03523 -11.85673,-4.98109l-4.43248,-3.62917c-5.54288,-5.46003 -9.8086,-18.59496 -8.53143,-26.26987l0.79487,-3.02835c1.35299,-4.45292 5.86776,-12.33476 9.2723,-15.50281c3.16493,-2.94509 10.51284,-7.2603 14.56447,-8.77155l7.44933,-2.59095c3.51214,-1.1195 10.70517,-2.04064 14.38608,-1.84229l5.17159,0.41455c0.33403,0.03003 0.99984,0.10895 1.33164,0.15783zM454.58092,488.67997l-4.76043,-0.38159c-1.81857,-0.24248 -5.33593,0.20796 -7.03471,0.90087l-7.44933,2.59095c-2.36495,0.72049 -6.40707,3.26501 -8.21558,4.94789c-1.56891,1.45993 -3.75231,4.77709 -4.12405,6.89521l-0.79487,3.02835c-1.42239,2.61011 -0.16023,6.49655 2.52433,7.77288l4.43248,3.62917c0.45413,0.61196 1.68345,0.93519 2.41809,1.01585c0.99368,0.1091 2.86191,0.00024 3.76197,-0.45016l20.24689,-7.33445l2.04427,-12.95495c0.48265,-1.7269 -0.00133,-4.96401 -0.96797,-6.47423l-1.47321,-3.02402c-0.10156,-0.02332 -0.19499,-0.04581 -0.27749,-0.06693z"/><path d="M542.04799,470.95819c-0.38933,0.08955 -0.97956,0.24659 -1.54997,0.42462c-0.04706,0.0097 -0.09533,0.02008 -0.14474,0.03112c0.03851,-0.01356 0.07443,-0.02612 0.10711,-0.03747l-0.22433,0.0644c-1.52555,0.35948 -4.00478,1.28393 -5.2185,1.96086l-0.74435,0.51633c-1.55742,1.25811 -4.12068,4.24733 -5.12652,5.97842l-1.99056,4.08598c-1.77675,4.12107 -3.05979,12.70266 -2.56608,17.16319l2.55486,16.19067c0.49474,1.80354 1.97934,5.23403 3.2683,6.57306c1.05882,1.09995 3.68175,2.66766 5.0774,3.29759l23.03993,8.34623c2.89608,0.92475 8.83741,1.75039 11.85715,1.41883c3.27878,-0.36 9.18687,-3.03523 11.85673,-4.98109l4.43248,-3.62917c5.54288,-5.46003 9.8086,-18.59496 8.53143,-26.26987l-0.79487,-3.02835c-1.35299,-4.45292 -5.86776,-12.33476 -9.2723,-15.50281c-3.16493,-2.94509 -10.51284,-7.2603 -14.56447,-8.77155l-7.44933,-2.59095c-3.51214,-1.1195 -10.70517,-2.04064 -14.38608,-1.84229l-5.17159,0.41455c-0.33403,0.03003 -0.99984,0.10895 -1.33164,0.15783zM545.41908,488.67997l4.76043,-0.38159c1.81857,-0.24248 5.33593,0.20796 7.03471,0.90087l7.44933,2.59095c2.36495,0.72049 6.40707,3.26501 8.21558,4.94789c1.56891,1.45993 3.75231,4.77709 4.12405,6.89521l0.79487,3.02835c1.42239,2.61011 0.16023,6.49655 -2.52433,7.77288l-4.43248,3.62917c-0.45413,0.61196 -1.68345,0.93519 -2.41809,1.01585c-0.99368,0.1091 -2.86191,0.00024 -3.76197,-0.45016l-20.24689,-7.33445l-2.04427,-12.95495c-0.48265,-1.7269 0.00133,-4.96401 0.96797,-6.47423l1.47321,-3.02402c0.10156,-0.02332 0.19499,-0.04581 0.27749,-0.06693z"/></g></g></g></svg>