<svg version="1.1" xmlns="http://www.w3.org/2000/svg" xmlns:xlink="http://www.w3.org/1999/xlink" viewBox="0,0,1000,1000"><g fill="none" fill-rule="nonzero" stroke="#000000" stroke-width="6" stroke-linecap="round" stroke-linejoin="round" stroke-miterlimit="0" stroke-dasharray="" stroke-dashoffset="0" font-family="none" font-weight="none" font-size="none" text-anchor="none" style="mix-blend-mode:normal"><g><g><path d="M443.78949,284.57512c-8.23312,3.49118 -23.27097,12.5826 -30.41184,18.36478c-0.01894,0.01569 -0.03796,0.03132 -0.05706,0.04689v0c-0.01911,0.01542 -0.03825,0.0309 -0.05744,0.04643c0.01919,-0.01538 0.03834,-0.03086 0.05744,-0.04643l-0.25336,0.20649c-0.0191,0.01557 -0.03825,0.03104 -0.05744,0.04643c-7.10401,5.82741 -19.0425,18.72173 -24.12299,26.08116l-24.32968,34.88512c-5.277,7.51521 -13.8937,23.48315 -17.37551,32.17621c-0.008,0.02049 -0.01608,0.04097 -0.02425,0.06144c-0.00632,0.01569 -0.01264,0.03142 -0.01896,0.04717c0.00636,-0.0157 0.01268,-0.03142 0.01896,-0.04717l-0.08245,0.20675c0.00628,-0.01575 0.01252,-0.03151 0.0187,-0.04728c-0.00625,0.01578 -0.01249,0.03154 -0.0187,0.04728v0c-0.00816,0.02047 -0.01639,0.04089 -0.02469,0.06127c-3.45585,8.70342 -8.1922,26.21883 -9.53497,35.30299l-7.41447,49.07752c-1.41475,9.2173 -2.35806,27.67453 -1.90506,37.13141c0.00104,0.01891 0.00202,0.03783 0.00294,0.05677c0.00059,0.01274 0.00118,0.02551 0.00178,0.03828c-0.00057,-0.01276 -0.00116,-0.02552 -0.00178,-0.03828l0.00809,0.16629c-0.00062,-0.01277 -0.00127,-0.02552 -0.00194,-0.03827c0.00064,0.01278 0.00129,0.02553 0.00194,0.03827v0c0.00092,0.01894 0.00178,0.03787 0.00259,0.05679c0.4673,9.45619 3.19814,27.73463 5.50111,36.77103l12.06556,47.81369c2.22906,8.94533 8.60947,26.02219 12.84369,34.40397c0.00977,0.01895 0.01948,0.03795 0.02914,0.057c0.00712,0.01415 0.01425,0.02832 0.0214,0.04251c-0.00709,-0.01418 -0.01423,-0.02835 -0.0214,-0.04251l0.09401,0.1855c-0.00718,-0.01416 -0.01438,-0.02829 -0.02162,-0.0424c0.00721,0.01416 0.01442,0.02829 0.02162,0.0424c0.00965,0.01905 0.01923,0.03812 0.02874,0.0572c4.25578,8.37086 14.25464,23.61394 20.15054,30.70097l24.53778,29.67394c5.83714,7.11326 19.12091,19.63191 26.56754,25.03731l12.47579,9.12783c1.06279,0.82046 3.39619,2.07887 4.64092,2.581c1.37026,0.55277 4.17888,1.41024 5.63207,1.6782l22.14246,4.39066c3.99729,0.81282 12.07383,1.61893 16.15274,1.65182c4.16645,0.0336 8.3329,0.0672 8.92858,0.072c0.59569,-0.0048 4.76213,-0.0384 8.92858,-0.072c4.07892,-0.03289 12.15545,-0.839 16.15274,-1.65182l22.14246,-4.39066c1.45318,-0.26797 4.26181,-1.12543 5.63207,-1.6782c1.24473,-0.50213 3.57813,-1.76053 4.64092,-2.581l12.47579,-9.12783c7.44663,-5.4054 20.7304,-17.92405 26.56754,-25.03731l24.53778,-29.67394c5.89591,-7.08703 15.89477,-22.33011 20.15054,-30.70097c0.00951,-0.01909 0.01909,-0.03815 0.02874,-0.0572c0.0072,-0.01411 0.01441,-0.02824 0.02162,-0.0424c-0.00724,0.0141 -0.01445,0.02824 -0.02162,0.0424l0.09401,-0.1855c-0.00718,0.01416 -0.01431,0.02833 -0.0214,0.04251c0.00715,-0.01419 0.01429,-0.02836 0.0214,-0.04251c0.00965,-0.01905 0.01937,-0.03805 0.02914,-0.057c4.23422,-8.38179 10.61463,-25.45864 12.84369,-34.40397l12.06556,-47.81369c2.30297,-9.0364 5.03381,-27.31484 5.50111,-36.77103c0.0008,-0.01892 0.00167,-0.03785 0.00259,-0.05679v0c0.00065,-0.01274 0.0013,-0.0255 0.00194,-0.03827c-0.00067,0.01275 -0.00132,0.02551 -0.00194,0.03827l0.00809,-0.16629c-0.00062,0.01277 -0.00122,0.02553 -0.00178,0.03828c0.0006,-0.01278 0.00119,-0.02554 0.00178,-0.03828c0.00092,-0.01894 0.0019,-0.03786 0.00294,-0.05677c0.453,-9.45688 -0.49031,-27.91411 -1.90506,-37.13141l-7.41447,-49.07752c-1.34278,-9.08416 -6.07912,-26.59958 -9.53497,-35.30299c-0.0083,-0.02038 -0.01653,-0.0408 -0.02469,-0.06127v0c-0.00622,-0.01573 -0.01245,-0.03149 -0.0187,-0.04728c0.00619,0.01577 0.01242,0.03153 0.0187,0.04728l-0.08245,-0.20675c0.00628,0.01575 0.0126,0.03148 0.01896,0.04717c-0.00633,-0.01576 -0.01265,-0.03148 -0.01896,-0.04717c-0.00816,-0.02047 -0.01625,-0.04095 -0.02425,-0.06144c-3.48181,-8.69306 -12.09851,-24.661 -17.37551,-32.17621l-24.32968,-34.88512c-5.08049,-7.35942 -17.01898,-20.25375 -24.12299,-26.08116c-0.01919,-0.01538 -0.03833,-0.03086 -0.05744,-0.04643v0v0c-0.01896,-0.0156 -0.03798,-0.03123 -0.05706,-0.04689c0.01894,0.01569 0.03796,0.03132 0.05706,0.04689l-0.25336,-0.20649c0.0191,0.01557 0.03825,0.03104 0.05744,0.04643c-0.01918,-0.01553 -0.03833,-0.03101 -0.05744,-0.04643v0c-0.0191,-0.01557 -0.03812,-0.0312 -0.05706,-0.04689c-7.14087,-5.78219 -22.17873,-14.8736 -30.41184,-18.36478c-3.61329,-1.55261 -45.65654,-19.61836 -56.21051,-24.15335c-10.55398,4.53499 -52.59722,22.60074 -56.21051,24.15335zM499.92742,760.70557c0,0 -4.50058,-0.0363 -9.00116,-0.07259c-4.92224,-0.0397 -14.67642,-1.057 -19.50866,-1.995l-22.14246,-4.39066c-2.27273,-0.47085 -6.71265,-1.77325 -8.86502,-2.64153c-2.2779,-0.91892 -6.53269,-3.32447 -8.53547,-4.74691l-12.47579,-9.12783c-8.30488,-6.1191 -23.2102,-20.16591 -29.81064,-28.09362l-24.53778,-29.67394c-6.45978,-7.85476 -17.48052,-24.6497 -22.26977,-33.91201c-0.03182,-0.05949 -0.06306,-0.11947 -0.09371,-0.17995l-0.09401,-0.1855c0.00853,0.01683 0.0171,0.03361 0.02572,0.05036c-0.00859,-0.01681 -0.01717,-0.0336 -0.02572,-0.05036c-0.03065,-0.06048 -0.06055,-0.12114 -0.08971,-0.18198c-4.63769,-9.33912 -11.66536,-28.15769 -14.18013,-38.01172l-12.06556,-47.81369c-2.47066,-9.8804 -5.45285,-29.82698 -6.0206,-40.20095c-0.00342,-0.05193 -0.00639,-0.104 -0.00893,-0.15619l-0.00809,-0.16629c0.00072,0.0149 0.00149,0.02978 0.00228,0.04466c-0.00077,-0.01491 -0.00153,-0.02979 -0.00228,-0.04466c-0.00254,-0.05219 -0.00463,-0.1043 -0.00627,-0.15632c-0.44214,-10.38009 0.58938,-30.52197 2.08909,-40.59556l7.41447,-49.07752c1.54705,-10.04483 6.77899,-29.40734 10.55923,-39.13798c0.02543,-0.06849 0.05175,-0.13686 0.07896,-0.20509l0.08245,-0.20675c-0.00751,0.01883 -0.01495,0.03767 -0.02233,0.05653c0.00745,-0.01888 0.01489,-0.03772 0.02233,-0.05653c0.02721,-0.06823 0.05516,-0.13595 0.08385,-0.20314c3.95333,-9.66161 13.48153,-27.31079 19.27139,-35.6636l24.32968,-34.88512c5.81317,-8.26096 19.26324,-22.79964 27.3082,-29.55968c0.0864,-0.07604 0.1746,-0.15075 0.26458,-0.22409v0c0.0237,-0.01915 0.04749,-0.03834 0.07135,-0.05756c-0.02385,0.01905 -0.04764,0.03824 -0.07135,0.05756l0.25336,-0.20649c0.08998,-0.07334 0.18095,-0.14464 0.27286,-0.21393c8.24417,-6.51561 25.19754,-16.75577 34.46148,-20.78266c4.13514,-1.77685 58.60219,-25.18104 58.60219,-25.18104l4.71456,10.97188l4.71456,-10.97188c0,0 54.46705,23.40419 58.60219,25.18104c9.26394,4.02689 26.21731,14.26705 34.46148,20.78266c0.09191,0.06929 0.18288,0.14059 0.27286,0.21393v0v0c0.02354,0.01935 0.04713,0.03878 0.07078,0.05827c-0.02347,-0.01952 -0.04706,-0.03894 -0.07078,-0.05827l0.25336,0.20649c-0.02372,-0.01933 -0.0475,-0.03852 -0.07135,-0.05756c0.02387,0.01922 0.04765,0.03841 0.07135,0.05756v0c0.08998,0.07334 0.17818,0.14805 0.26458,0.22409c8.04496,6.76004 21.49503,21.29872 27.3082,29.55968l24.32968,34.88512c5.78986,8.35281 15.31806,26.00199 19.27139,35.6636c0.02868,0.06719 0.05663,0.13491 0.08385,0.20314c0.00744,0.0188 0.01488,0.03764 0.02233,0.05653c-0.00737,-0.01885 -0.01482,-0.03769 -0.02233,-0.05653l0.08245,0.20675c0.02721,0.06823 0.05353,0.1366 0.07896,0.20509c3.78023,9.73064 9.01217,29.09315 10.55923,39.13798l7.41447,49.07752c1.49971,10.0736 2.53123,30.21548 2.08909,40.59556c-0.00164,0.05202 -0.00373,0.10413 -0.00627,0.15632c-0.00076,0.01487 -0.00152,0.02975 -0.00228,0.04466c0.0008,-0.01488 0.00156,-0.02976 0.00228,-0.04466l-0.00809,0.16629c-0.00254,0.05219 -0.00552,0.10425 -0.00893,0.15619c-0.56774,10.37397 -3.54994,30.32055 -6.0206,40.20095l-12.06556,47.81369c-2.51477,9.85403 -9.54244,28.67261 -14.18013,38.01172c-0.02916,0.06084 -0.05906,0.1215 -0.08971,0.18198c-0.00855,0.01676 -0.01712,0.03355 -0.02572,0.05036c0.00862,-0.01675 0.01719,-0.03354 0.02572,-0.05036l-0.09401,0.1855c-0.03065,0.06048 -0.06189,0.12047 -0.09371,0.17995c-4.78924,9.26231 -15.80999,26.05726 -22.26977,33.91201l-24.53778,29.67394c-6.60044,7.92771 -21.50576,21.97452 -29.81064,28.09362l-12.47579,9.12783c-2.00278,1.42244 -6.25756,3.82799 -8.53547,4.74691c-2.15237,0.86828 -6.59229,2.17069 -8.86502,2.64153l-22.14246,4.39066c-4.83225,0.93801 -14.58642,1.95531 -19.50866,1.995c-4.50058,0.0363 -9.00116,0.07259 -9.00116,0.07259l-0.07258,-8.99971zM401.87813,289.09211c0.02364,-0.0195 0.04724,-0.03892 0.07078,-0.05827c-0.02372,0.01933 -0.04731,0.03875 -0.07078,0.05827zM330.3781,389.92633c-0.00762,0.01875 -0.01519,0.03755 -0.0227,0.05638c0.00754,-0.01876 0.01511,-0.03755 0.0227,-0.05638zM413.12429,303.14639c-0.01908,0.01566 -0.0381,0.03128 -0.05706,0.04689c0.0191,-0.01557 0.03812,-0.0312 0.05706,-0.04689zM310.22801,519.32148c-0.00069,-0.01487 -0.00138,-0.02976 -0.00206,-0.04467c0.00065,0.01488 0.00134,0.02977 0.00206,0.04467zM342.68696,645.87152c-0.00846,-0.01681 -0.01693,-0.03365 -0.02541,-0.05052c0.00841,0.01685 0.01688,0.03369 0.02541,0.05052zM669.6446,389.98271c-0.00751,-0.01883 -0.01508,-0.03762 -0.0227,-0.05638c0.00759,0.01882 0.01516,0.03762 0.0227,0.05638zM689.77405,519.27681c-0.00069,0.01491 -0.00137,0.0298 -0.00206,0.04467c0.00072,-0.0149 0.00141,-0.02979 0.00206,-0.04467zM657.33845,645.821c-0.00848,0.01687 -0.01695,0.03371 -0.02541,0.05052c0.00853,-0.01683 0.017,-0.03367 0.02541,-0.05052z" fill="#808080"/><path d="M347.00532,576.83429c0,0 0.18709,-2.56167 0.37417,-5.12335l1.84159,-25.21598c0.88171,-10.10981 7.19125,-28.79426 12.61908,-37.36889l4.63661,-7.10129c3.05089,-4.41111 10.70653,-11.58326 15.44507,-14.09156c4.41007,-2.33442 13.80367,-5.36637 18.72773,-6.17626l6.3218,-0.95724c8.55961,-0.88553 23.92496,3.49515 30.73071,8.76136l3.34218,2.84805c3.90252,3.52385 9.86954,11.89056 11.65002,16.83569c1.66056,4.61208 3.19576,14.17535 3.20586,19.07778l-0.01463,1.15881c-0.26865,6.1133 -3.82302,17.38884 -7.10874,22.55107l-5.66393,8.31257c-0.33002,0.4328 -1.02003,1.2769 -1.41939,1.64554c-0.02443,0.02255 -0.07329,0.06766 -0.09773,0.09021c-1.88734,1.74216 -7.5005,6.92354 -7.5005,6.92354l-12.20904,-13.22646c0,0 1.88734,-1.74216 3.77468,-3.48432c0.01776,-0.0164 2.01769,-1.86248 3.11768,-2.87786l5.12302,-7.51872c2.13969,-2.80029 4.13238,-9.1217 3.98537,-12.64282l0.01463,-1.15881c0.11363,-3.29734 -1.02561,-9.6494 -2.14301,-12.75288c-0.99749,-2.77043 -4.05002,-7.43807 -6.38909,-9.23301l-3.34218,-2.84805c-3.43593,-3.46127 -11.61647,-5.79355 -16.36108,-4.66456l-6.3218,0.95724c-3.45268,0.45851 -9.92368,2.65858 -13.00148,4.28779c-2.74933,1.45533 -7.21339,5.34078 -8.79434,8.02365l-4.63661,7.10129c-4.43679,6.53372 -9.30614,20.95333 -9.7387,28.83923c-0.18709,2.56167 -2.21576,30.33933 -2.21576,30.33933z" fill="#bfbfbf"/><path d="M652.99468,576.83429c0,0 -0.18709,-2.56167 -0.37417,-5.12335l-1.84159,-25.21598c-0.88171,-10.10981 -7.19125,-28.79426 -12.61908,-37.36889l-4.63661,-7.10129c-3.05089,-4.41111 -10.70653,-11.58326 -15.44507,-14.09156c-4.41007,-2.33442 -13.80367,-5.36637 -18.72773,-6.17626l-6.3218,-0.95724c-8.55961,-0.88553 -23.92496,3.49515 -30.73071,8.76136l-3.34218,2.84805c-3.90252,3.52385 -9.86954,11.89056 -11.65002,16.83569c-1.66056,4.61208 -3.19576,14.17535 -3.20586,19.07778l0.01463,1.15881c0.26865,6.1133 3.82302,17.38884 7.10874,22.55107l5.66393,8.31257c0.33002,0.4328 1.02003,1.2769 1.41939,1.64554c0.02443,0.02255 0.07329,0.06766 0.09773,0.09021c1.88734,1.74216 7.5005,6.92354 7.5005,6.92354l12.20904,-13.22646c0,0 -1.88734,-1.74216 -3.77468,-3.48432c-0.01776,-0.0164 -2.01769,-1.86248 -3.11768,-2.87786l-5.12302,-7.51872c-2.13969,-2.80029 -4.13238,-9.1217 -3.98537,-12.64282l-0.01463,-1.15881c-0.11363,-3.29734 1.02561,-9.6494 2.14301,-12.75288c0.99749,-2.77043 4.05002,-7.43807 6.38909,-9.23301l3.34218,-2.84805c3.43593,-3.46127 11.61647,-5.79355 16.36108,-4.66456l6.3218,0.95724c3.45268,0.45851 9.92368,2.65858 13.00148,4.28779c2.74933,1.45533 7.21339,5.34078 8.79434,8.02365l4.63661,7.10129c4.43679,6.53372 9.30614,20.95333 9.7387,28.83923c0.18709,2.56167 2.21576,30.33933 2.21576,30.33933z" fill="#808080"/><path d="M476.44041,558.58518c0,0 -1.10417,11.78119 -1.14701,12.23829c-0.72174,3.81414 1.19109,9.93263 3.94976,13.17676c0.14841,0.13699 0.29326,0.27986 0.43424,0.4286c0.04644,0.05674 0.09385,0.11338 0.1422,0.1699c-0.07386,-0.06985 -0.14864,-0.13822 -0.22429,-0.20511c0.11811,0.12508 0.23756,0.24475 0.35823,0.35866c0.06254,0.07034 0.12652,0.14049 0.1919,0.21043c-0.03737,-0.04613 -0.07526,-0.09199 -0.11368,-0.13756c0.04708,0.04328 0.09434,0.08567 0.14178,0.12716c0.13165,0.13891 0.25801,0.28091 0.37908,0.42576c2.77667,2.70664 7.58573,5.03631 11.96734,5.98886l7.48005,0.29821l7.48005,-0.29821c4.38161,-0.95255 9.19066,-3.28222 11.96734,-5.98886c0.12107,-0.14485 0.24743,-0.28686 0.37908,-0.42576c0.04743,-0.04149 0.09469,-0.08388 0.14178,-0.12716c-0.03842,0.04557 -0.07631,0.09143 -0.11368,0.13756c0.06538,-0.06994 0.12936,-0.14009 0.1919,-0.21043c0.12067,-0.1139 0.24012,-0.23358 0.35823,-0.35866c-0.07565,0.06689 -0.15043,0.13526 -0.22429,0.20511c0.04835,-0.05652 0.09576,-0.11315 0.1422,-0.1699c0.14098,-0.14874 0.28582,-0.29161 0.43424,-0.4286c2.75867,-3.24413 4.6715,-9.36261 3.94976,-13.17676c-0.04284,-0.4571 -1.14701,-12.23829 -1.14701,-12.23829l17.92146,-1.67966c0,0 1.10417,11.78119 1.14701,12.23829c0.20272,4.6843 -1.37893,11.45133 -3.77057,17.48009c0.0495,0.14849 0.10898,0.32693 0.16846,0.50537c0.55538,1.66613 0.47608,5.19857 0.20383,6.94407l-0.1419,0.52692c-0.72959,1.97464 -2.90486,5.47946 -4.35054,7.00965l-0.14078,0.1242c-1.2865,1.04773 -4.08739,2.77329 -5.60178,3.45112l-3.01038,1.20722c-3.13034,1.18481 -9.60185,2.56833 -12.94301,2.76704l-7.9646,0.31753c-1.23875,0.16961 -2.41196,0.26155 -3.49417,0.2655l-1.58262,-0.0631l-1.58262,0.0631c-1.08221,-0.00394 -2.25542,-0.09589 -3.49417,-0.2655l-7.9646,-0.31753c-3.34116,-0.19871 -9.81266,-1.58223 -12.94301,-2.76704l-3.01038,-1.20722c-1.51439,-0.67783 -4.31528,-2.40338 -5.60178,-3.45112l-0.14078,-0.1242c-1.44569,-1.53019 -3.62096,-5.03501 -4.35054,-7.00965l-0.1419,-0.52692c-0.27225,-1.74551 -0.35154,-5.27794 0.20383,-6.94407c0.05948,-0.17844 0.11896,-0.35688 0.16846,-0.50537c-2.39164,-6.02876 -3.97329,-12.79579 -3.77057,-17.48009c0.04284,-0.4571 1.14701,-12.23829 1.14701,-12.23829l17.92146,1.67966zM480.17353,584.9523c-0.08308,-0.08766 -0.16751,-0.17328 -0.25322,-0.25686c-0.07887,-0.09006 -0.15984,-0.17896 -0.24292,-0.26662zM479.81959,584.59872c0.03376,0.03193 0.06734,0.06417 0.10072,0.09672c0.03763,0.04297 0.07477,0.0862 0.11144,0.1297c-0.02613,-0.02402 -0.0522,-0.04831 -0.07822,-0.07287c-0.04541,-0.05108 -0.09006,-0.10227 -0.13393,-0.15355zM520.32261,584.42883c-0.08308,0.08766 -0.16406,0.17655 -0.24292,0.26662c-0.08571,0.08358 -0.17014,0.1692 -0.25322,0.25686zM520.04647,584.75227c-0.02602,0.02456 -0.05209,0.04885 -0.07822,0.07287c0.03667,-0.04349 0.07381,-0.08673 0.11144,-0.1297c0.03338,-0.03255 0.06695,-0.06479 0.10072,-0.09672c-0.04387,0.05128 -0.08852,0.10247 -0.13393,0.15355z" fill="#808080"/><path d="M419.01943,680.52709c0,0 -2.2686,-0.21297 -4.53721,-0.42594l-4.53721,-0.42594c-2.49651,-0.23437 -4.66868,-1.47113 -6.14271,-3.28384c-6.12923,-0.09267 -12.58976,-0.18265 -16.70343,-0.23026l-7.22422,-0.08363c-3.59773,-0.04167 -10.79338,-0.10167 -14.3913,-0.12001l-7.22497,-0.03686l0.09184,-17.99977l7.22497,0.03686c3.62705,0.01853 10.88096,0.07902 14.50782,0.12098l7.22422,0.08363c7.23903,0.08382 21.71639,0.29828 28.95473,0.42891l83.73805,1.51154l83.73805,-1.51154c7.23834,-0.13063 21.7157,-0.34509 28.95473,-0.42891l7.22422,-0.08363c3.62686,-0.04196 10.88077,-0.10245 14.50782,-0.12098l7.22497,-0.03686l0.09184,17.99977l-7.22497,0.03686c-3.59792,0.01833 -10.79357,0.07834 -14.3913,0.12001l-7.22422,0.08363c-4.11367,0.04761 -10.57421,0.13758 -16.70343,0.23026c-1.47403,1.81271 -3.6462,3.04948 -6.14271,3.28384l-4.53721,0.42594c-2.2686,0.21297 -4.53721,0.42594 -4.53721,0.42594l-0.09024,-0.96126l-80.89033,-1.46013l-80.89033,1.46013z" fill="#808080"/><path d="M436.68543,560.91834l-58.33445,-3.87675c-10.05097,-0.66864 -30.12386,-2.35217 -40.14579,-3.36706l-6.84747,-0.69389c-6.59554,-0.66904 -19.75969,-2.23373 -26.32829,-3.12939l-12.98263,-1.77159l2.43369,-17.83472l12.98263,1.77159c6.41402,0.87593 19.26869,2.40384 25.70934,3.05582l6.84747,0.69389c9.86676,1.00052 29.62908,2.65801 39.52465,3.31496l58.33445,3.87675z" fill="#bfbfbf"/><path d="M563.31457,560.91834l58.33445,-3.87675c10.05097,-0.66864 30.12386,-2.35217 40.14579,-3.36706l6.84747,-0.69389c6.59554,-0.66904 19.75969,-2.23373 26.32829,-3.12939l12.98263,-1.77159l-2.43369,-17.83472l-12.98263,1.77159c-6.41402,0.87593 -19.26869,2.40384 -25.70934,3.05582l-6.84747,0.69389c-9.86676,1.00052 -29.62908,2.65801 -39.52465,3.31496l-58.33445,3.87675z" fill="#bfbfbf"/><path d="M343.62879,447.71001l89.40346,4.20871c5.20705,0.2597 15.51831,1.58146 20.62251,2.64353l6.99748,1.47641c1.57325,0.34682 4.6596,1.24729 6.16221,1.8281c1.96349,0.75895 5.46192,3.04831 7.05608,4.42552l2.93403,2.7416c1.44714,1.46462 3.91313,4.7241 4.78314,6.58841c0.50813,1.08885 1.01626,2.1777 1.01626,2.1777l-16.3113,7.61194c0,0 -0.50813,-1.08885 -1.01626,-2.1777c-0.14625,-0.31339 -0.45242,-0.87234 -0.76117,-1.04845l-2.93403,-2.7416c-0.2315,-0.32871 -0.88932,-0.64612 -1.25642,-0.78802c-0.82798,-0.32004 -2.51703,-0.83625 -3.38859,-1.00527l-6.99748,-1.47641c-4.3905,-0.94123 -13.26694,-2.07908 -17.75289,-2.27568l-89.40346,-4.20871z" fill="#808080"/><path d="M656.37121,447.71001l-89.40346,4.20871c-5.20705,0.2597 -15.51831,1.58146 -20.62251,2.64353l-6.99748,1.47641c-1.57325,0.34682 -4.6596,1.24729 -6.16221,1.8281c-1.96349,0.75895 -5.46192,3.04831 -7.05608,4.42552l-2.93403,2.7416c-1.44714,1.46462 -3.91313,4.7241 -4.78314,6.58841c-0.50813,1.08885 -1.01626,2.1777 -1.01626,2.1777l16.3113,7.61194c0,0 0.50813,-1.08885 1.01626,-2.1777c0.14625,-0.31339 0.45242,-0.87234 0.76117,-1.04845l2.93403,-2.7416c0.2315,-0.32871 0.88932,-0.64612 1.25642,-0.78802c0.82798,-0.32004 2.51703,-0.83625 3.38859,-1.00527l6.99748,-1.47641c4.3905,-0.94123 13.26694,-2.07908 17.75289,-2.27568l89.40346,-4.20871z" fill="#808080"/><path d="M464.38064,487.4683l4.83781,14.13949c2.55996,7.57722 5.91273,23.11302 6.70554,31.07161l0.85239,8.90442c0.41316,4.63955 0.21246,13.89637 -0.4014,18.51365l-1.14329,8.18452l-17.82691,-2.49023l1.14329,-8.18452c0.52943,-3.56725 0.68454,-10.72133 0.31022,-14.30817l-0.85239,-8.90442c-0.63124,-6.91763 -3.54033,-20.39753 -5.81818,-26.9598l-4.83781,-14.13949z" fill="#808080"/><path d="M535.61936,487.4683l-4.83781,14.13949c-2.55996,7.57722 -5.91273,23.11302 -6.70554,31.07161l-0.85239,8.90442c-0.41316,4.63955 -0.21246,13.89637 0.4014,18.51365l1.14329,8.18452l17.82691,-2.49023l-1.14329,-8.18452c-0.52943,-3.56725 -0.68454,-10.72133 -0.31022,-14.30817l0.85239,-8.90442c0.63124,-6.91763 3.54033,-20.39753 5.81818,-26.9598l4.83781,-14.13949z" fill="#808080"/><path d="M510.07036,568.0826l-1.99776,0.28639l-0.32512,2.26791l-7.74748,-1.11065l-7.74748,1.11065l-0.32512,-2.26791l-1.99776,-0.28639l0.97835,-6.8246l-1.27165,-8.87051c-0.85857,-6.02783 -1.98707,-18.13834 -2.257,-24.22102l-0.25273,-5.81361c-0.13204,-3.16421 -0.09391,-9.49081 0.07626,-12.6532l0.32666,-5.87979l12.47046,0.6928l12.47046,-0.6928l0.32666,5.87979c0.17017,3.16239 0.20831,9.48899 0.07626,12.6532l-0.25273,5.81361c-0.26993,6.08268 -1.39843,18.19319 -2.257,24.22102l-1.27165,8.87051z" fill="#808080"/><path d="M377.69875,528.24551l20.27773,-6.30686c4.69934,-1.29296 14.17346,-1.60771 18.94825,-0.62949l6.19611,1.48429c1.35436,0.49003 3.95907,1.74741 4.9848,2.74559c0.90472,0.88041 2.17681,3.08097 2.70891,4.23182l2.9914,8.46214c0.83919,2.72826 1.5731,8.31632 1.2333,11.14797c-0.21777,1.81475 -0.43554,3.6295 -0.43554,3.6295l-17.87178,-2.14461c0,0 0.21777,-1.81475 0.43554,-3.6295c0.09574,-0.79785 0.04683,-2.28583 -0.33234,-3.00409l-1.71296,-4.84564l-2.39074,-0.5727c-2.37932,-0.73556 -7.08389,-0.57926 -9.40914,0.31259l-20.27773,6.30686z" fill="#808080"/><path d="M622.30125,528.24551l-20.27773,-6.30686c-4.69934,-1.29296 -14.17346,-1.60771 -18.94825,-0.62949l-6.19611,1.48429c-1.35436,0.49003 -3.95907,1.74741 -4.9848,2.74559c-0.90472,0.88041 -2.17681,3.08097 -2.70891,4.23182l-2.9914,8.46214c-0.83919,2.72826 -1.5731,8.31632 -1.2333,11.14797c0.21777,1.81475 0.43554,3.6295 0.43554,3.6295l17.87178,-2.14461c0,0 -0.21777,-1.81475 -0.43554,-3.6295c-0.09574,-0.79785 -0.04683,-2.28583 0.33234,-3.00409l1.71296,-4.84564l2.39074,-0.5727c2.37932,-0.73556 7.08389,-0.57926 9.40914,0.31259l20.27773,6.30686z" fill="#808080"/><path d="M375.5526,653.37449l40.60866,-6.08977l-0.12433,-3.29487l6.73272,-0.25407c3.25806,-0.12164 9.76431,-0.52434 13.0125,-0.8054l7.39272,-0.6367c6.24913,-0.5369 18.71375,-1.91501 24.92959,-2.75364c6.6385,-0.89565 19.97856,-1.73087 26.67711,-1.69274l5.21843,0.03847l5.21843,-0.03847c6.69855,-0.03813 20.03861,0.79709 26.67711,1.69274c6.21584,0.83863 18.68045,2.21674 24.92959,2.75364l7.39272,0.6367c3.24819,0.28106 9.75444,0.68376 13.0125,0.8054l6.73272,0.25407l-0.12433,3.29487l40.60866,6.08977l-2.66947,17.80095l-81.93603,-12.28733c-9.49527,-1.43531 -28.59349,-2.93017 -38.19644,-2.98972l-1.64545,-0.01213l-1.64545,0.01213c-9.60295,0.05954 -28.70117,1.5544 -38.19644,2.98972l-81.93603,12.28733z" fill="#bfbfbf"/><path d="M432.65323,685.79531l14.35231,0.02674l1.46335,-6.7936l8.27753,1.78299c3.90214,0.84712 11.77594,2.10691 15.74759,2.5196l8.30395,0.87638c4.71299,0.50115 12.16925,0.99503 19.20203,1.31795c7.03279,-0.32293 14.48904,-0.8168 19.20203,-1.31795l8.30395,-0.87638c3.97165,-0.41268 11.84545,-1.67248 15.74759,-2.5196l8.27753,-1.78299l1.46335,6.7936l14.35231,-0.02674l0.03353,17.99997l-53.88661,0.10038c-3.48097,0.0039 -8.35194,-0.13786 -13.49368,-0.36742c-5.14174,0.22956 -10.01272,0.37131 -13.49368,0.36742l-53.88661,-0.10038z" fill="#bfbfbf"/><path d="M459.22603,573.47019c0,0 -24.293,47.3192 -24.90431,48.50994c-4.02849,7.68524 -8.94904,24.00159 -9.8411,32.6327l-0.43594,3.89363c-0.78979,6.39052 0.16454,18.98079 1.76563,25.21726c1.54878,6.03271 7.01696,16.77216 11.16424,21.4204l6.19724,7.21562c3.10816,3.79947 10.8231,9.30648 15.33765,11.23046c4.97118,2.11859 15.25052,5.17042 20.58285,6.04696l6.21924,1.05879l0.38068,-1.71306c0,0 1.30662,0.29036 2.61324,0.58072c1.13857,0.25302 3.43075,0.67443 4.5858,0.83639l3.79274,0.54275c0.84008,0.1217 2.05628,0.2668 3.31601,0.40151c1.25973,-0.13471 2.47593,-0.27982 3.31601,-0.40151l3.79274,-0.54275c1.15505,-0.16196 3.44723,-0.58337 4.5858,-0.83639c1.30662,-0.29036 2.61324,-0.58072 2.61324,-0.58072l0.38068,1.71306l6.21924,-1.05879c5.33233,-0.87653 15.61167,-3.92837 20.58285,-6.04696c4.51454,-1.92398 12.22949,-7.43099 15.33765,-11.23046l6.19724,-7.21562c4.14728,-4.64824 9.61545,-15.3877 11.16424,-21.4204c1.60109,-6.23647 2.55543,-18.82674 1.76563,-25.21726l-0.43594,-3.89363c-0.89206,-8.6311 -5.81261,-24.94745 -9.8411,-32.6327c-0.61131,-1.19074 -24.90431,-48.50994 -24.90431,-48.50994l16.01304,-8.22086c0,0 24.293,47.3192 24.90431,48.50994c4.63867,9.19712 10.49682,28.6225 11.71629,38.85076l0.43594,3.89363c0.8237,8.02053 -0.21441,23.88693 -2.21926,31.69606c-2.05716,8.0129 -9.64302,22.31975 -14.94384,28.67219l-6.19724,7.21562c-4.61867,5.19709 -15.54037,13.33613 -21.93566,16.06163c-5.93864,2.53089 -18.26018,6.11888 -24.6189,7.23269l-10.45526,1.77996c-2.5781,0.40764 -7.76458,0.70569 -10.36891,0.53458c-0.81366,-0.05346 -1.91905,-0.1491 -3.10448,-0.26438c-1.18543,0.11528 -2.29082,0.21092 -3.10448,0.26438c-2.60433,0.17111 -7.79081,-0.12694 -10.36891,-0.53458l-10.45526,-1.77996c-6.35872,-1.11381 -18.68025,-4.7018 -24.6189,-7.23269c-6.39528,-2.7255 -17.31699,-10.86454 -21.93566,-16.06163l-6.19724,-7.21562c-5.30082,-6.35245 -12.88668,-20.65929 -14.94384,-28.67219c-2.00484,-7.80914 -3.04296,-23.67553 -2.21926,-31.69606l0.43594,-3.89363c1.21947,-10.22826 7.07762,-29.65364 11.71629,-38.85076c0.61131,-1.19074 24.90431,-48.50994 24.90431,-48.50994z" fill="#bfbfbf"/><path d="M443.72334,568.67698l-17.76781,18.20661c-6.16128,6.21642 -15.875,20.43193 -19.42744,28.43103l-1.13713,2.50797c-3.00162,6.45606 -6.42405,20.02036 -6.97998,27.11802c-0.55091,7.03368 0.88948,20.77512 3.0393,27.4953l4.16997,13.55963c0.73715,2.66749 3.32682,7.39555 5.05519,9.55547c1.97831,2.47227 6.36021,6.99278 8.79779,9.01381l7.63088,6.4159c1.89798,1.62423 6.00637,4.41295 8.1958,5.6156c2.57695,1.41551 5.15389,2.83101 5.15389,2.83101l-8.66601,15.77658c0,0 -2.57695,-1.41551 -5.15389,-2.83101c-2.96445,-1.62836 -8.51076,-5.45484 -11.11357,-7.61479l-7.63088,-6.4159c-3.08636,-2.6234 -8.73751,-8.38228 -11.26829,-11.54496c-2.78072,-3.47503 -6.82151,-11.28007 -8.20574,-15.51074l-4.16997,-13.55963c-2.49293,-8.37683 -4.46196,-25.47894 -3.77952,-34.1918c0.67742,-8.64888 5.01067,-25.21632 8.53139,-33.14546l1.13713,-2.50797c4.3184,-9.36024 15.78782,-26.14514 22.93885,-33.56979l17.76781,-18.20661z" fill="#bfbfbf"/><path d="M556.27666,568.67698l17.76781,18.20661c6.16128,6.21642 15.875,20.43193 19.42744,28.43103l1.13713,2.50797c3.00162,6.45606 6.42405,20.02036 6.97998,27.11802c0.55091,7.03368 -0.88948,20.77512 -3.0393,27.4953l-4.16997,13.55963c-0.73715,2.66749 -3.32682,7.39555 -5.05519,9.55547c-1.97831,2.47227 -6.36021,6.99278 -8.79779,9.01381l-7.63088,6.4159c-1.89798,1.62423 -6.00637,4.41295 -8.1958,5.6156c-2.57695,1.41551 -5.15389,2.83101 -5.15389,2.83101l8.66601,15.77658c0,0 2.57695,-1.41551 5.15389,-2.83101c2.96445,-1.62836 8.51076,-5.45484 11.11357,-7.61479l7.63088,-6.4159c3.08636,-2.6234 8.73751,-8.38228 11.26829,-11.54496c2.78072,-3.47503 6.82151,-11.28007 8.20574,-15.51074l4.16997,-13.55963c2.49293,-8.37683 4.46196,-25.47894 3.77952,-34.1918c-0.67742,-8.64888 -5.01067,-25.21632 -8.53139,-33.14546l-1.13713,-2.50797c-4.3184,-9.36024 -15.78782,-26.14514 -22.93885,-33.56979l-17.76781,-18.20661z" fill="#bfbfbf"/><path d="M410.81393,566.61167l-31.7357,42.53521c-3.90916,5.21446 -10.80326,16.22222 -13.78821,22.01551l-5.26476,10.1608c-0.36115,0.66455 -0.92827,2.05732 -1.16263,2.77629c-0.03565,0.10936 -0.15968,0.24635 -0.03088,0.34478l1.36017,9.90669c0.07023,1.35115 1.07834,3.69733 1.82615,4.81906c1.30662,1.95993 2.61324,3.91986 2.61324,3.91986l-14.97691,9.9846c0,0 -1.30662,-1.95993 -2.61324,-3.91986c-1.86542,-2.79813 -4.11137,-9.03911 -4.68195,-12.35526l-1.36017,-9.90669c-0.17655,-2.12555 0.0898,-6.34684 0.74987,-8.37179c0.46136,-1.41534 1.62272,-4.15005 2.29432,-5.47867l5.26476,-10.1608c3.34842,-6.42989 11.02007,-18.67914 15.34331,-24.49851l31.7357,-42.53521z" fill="#bfbfbf"/><path d="M589.18607,566.61167l31.7357,42.53521c3.90916,5.21446 10.80326,16.22222 13.78821,22.01551l5.26476,10.1608c0.36115,0.66455 0.92827,2.05732 1.16263,2.77629c0.03565,0.10936 0.15968,0.24635 0.03088,0.34478l-1.36017,9.90669c-0.07023,1.35115 -1.07834,3.69733 -1.82615,4.81906c-1.30662,1.95993 -2.61324,3.91986 -2.61324,3.91986l14.97691,9.9846c0,0 1.30662,-1.95993 2.61324,-3.91986c1.86542,-2.79813 4.11137,-9.03911 4.68195,-12.35526l1.36017,-9.90669c0.17655,-2.12555 -0.0898,-6.34684 -0.74987,-8.37179c-0.46136,-1.41534 -1.62272,-4.15005 -2.29432,-5.47867l-5.26476,-10.1608c-3.34842,-6.42989 -11.02007,-18.67914 -15.34331,-24.49851l-31.7357,-42.53521z" fill="#bfbfbf"/><path d="M338.94948,585.78401c0,0 -0.42459,-2.85145 -0.84919,-5.70289l-3.06202,-20.56364c-1.2984,-9.80195 0.95591,-28.6168 4.52846,-38.20377c0.08452,-0.186 0.172,-0.37424 0.26237,-0.5646c4.43486,-9.34238 15.80382,-23.79414 23.48326,-29.70386l14.44196,-10.74764c7.31007,-5.35003 23.30358,-13.28034 31.98703,-15.8606l12.19876,-3.51917c2.39611,-0.61603 7.26893,-1.18332 9.73437,-0.99049c2.6414,0.20659 7.6225,1.84415 9.97905,3.05988l5.3274,3.02909c5.44052,3.36554 13.60248,12.52072 16.32391,18.31036l4.15173,9.75395c0.24477,0.6398 0.66862,1.94227 0.7979,2.61451c0.03918,0.20375 0.11755,0.61126 0.15673,0.81502c0.54443,2.83101 2.09933,10.91653 2.09933,10.91653l-17.67612,3.39925c0,0 -0.54443,-2.83101 -1.08885,-5.66202c-0.03244,-0.16868 -0.78427,-4.07818 -1.06438,-5.53476l-3.93845,-9.25288c-1.15831,-3.32532 -5.4877,-8.18155 -8.65878,-9.71246l-5.3274,-3.02909c-0.54648,-0.4349 -1.79772,-0.70837 -2.48564,-0.76217c-0.86387,-0.06757 -2.529,0.03039 -3.34153,0.34001l-12.19876,3.51917c-7.17999,1.99611 -20.295,8.49913 -26.23003,13.00603l-14.44196,10.74764c-6.01537,4.28199 -14.59625,15.16954 -17.74008,22.37934l0.10818,-0.26199c-0.0814,0.18589 -0.1619,0.37706 -0.24147,0.57323c-0.08202,0.19516 -0.15985,0.38743 -0.23332,0.5766l0.10818,-0.26199c-2.85899,7.32742 -4.45982,21.09723 -3.21815,28.37585l3.06202,20.56364c0.42459,2.85145 0.84919,5.70289 0.84919,5.70289zM339.56673,521.31371c-0.08726,0.19203 -0.17135,0.38168 -0.25218,0.56881l0.4748,-1.14983c-0.07475,0.18964 -0.14897,0.38337 -0.22262,0.58102zM356.31855,527.86472c-0.04558,0.10453 -0.09002,0.20829 -0.13329,0.31124c-0.04197,0.10349 -0.08369,0.20837 -0.12514,0.3146z" fill="#808080"/><path d="M643.68145,527.86472c0.04558,0.10453 0.09002,0.20829 0.13329,0.31124c0.04197,0.10349 0.08369,0.20837 0.12514,0.3146zM660.21065,520.73269l0.4748,1.14983c-0.08083,-0.18714 -0.16492,-0.37678 -0.25218,-0.56881c-0.07365,-0.19765 -0.14787,-0.39137 -0.22262,-0.58102zM643.24681,583.13295c0,0 0.42459,-2.85145 0.84919,-5.70289l3.06202,-20.56364c1.24167,-7.27862 -0.35916,-21.04843 -3.21815,-28.37585l0.10818,0.26199c-0.07347,-0.18917 -0.1513,-0.38144 -0.23332,-0.5766c-0.07957,-0.19618 -0.16007,-0.38734 -0.24147,-0.57323l0.10818,0.26199c-3.14384,-7.2098 -11.72471,-18.09735 -17.74008,-22.37934l-14.44196,-10.74764c-5.93503,-4.5069 -19.05004,-11.00991 -26.23003,-13.00603l-12.19876,-3.51917c-0.81253,-0.30962 -2.47765,-0.40757 -3.34153,-0.34001c-0.68792,0.0538 -1.93916,0.32727 -2.48564,0.76217l-5.3274,3.02909c-3.17108,1.53091 -7.50047,6.38714 -8.65878,9.71246l-3.93845,9.25288c-0.28011,1.45658 -1.03194,5.36608 -1.06438,5.53476c-0.54443,2.83101 -1.08885,5.66202 -1.08885,5.66202l-17.67612,-3.39925c0,0 1.55491,-8.08552 2.09933,-10.91653c0.03918,-0.20375 0.11755,-0.61126 0.15673,-0.81502c0.12928,-0.67224 0.55313,-1.9747 0.7979,-2.61451l4.15173,-9.75395c2.72144,-5.78964 10.88339,-14.94482 16.32391,-18.31036l5.3274,-3.02909c2.35655,-1.21573 7.33765,-2.85328 9.97905,-3.05988c2.46544,-0.19283 7.33826,0.37446 9.73437,0.99049l12.19876,3.51917c8.68344,2.58027 24.67696,10.51057 31.98703,15.8606l14.44196,10.74764c7.67943,5.90972 19.0484,20.36148 23.48326,29.70386c0.09037,0.19036 0.17785,0.3786 0.26237,0.5646c3.57255,9.58696 5.82686,28.40182 4.52846,38.20377l-3.06202,20.56364c-0.42459,2.85145 -0.84919,5.70289 -0.84919,5.70289z" fill="#bfbfbf"/><path d="M455.74844,443.79362c0.01935,0.00515 0.03858,0.01032 0.0577,0.01552c-0.00957,-0.00225 -0.01914,-0.00452 -0.02871,-0.0068c-0.01203,-0.00298 -0.02404,-0.00597 -0.03605,-0.009c0.00235,0.00009 0.0047,0.00018 0.00706,0.00027zM387.65562,439.95436c-0.02863,0.01366 -0.05715,0.02745 -0.08557,0.04137c0.0286,-0.01385 0.05712,-0.02765 0.08557,-0.04137zM395.17033,456.31243c-0.02298,0.01106 -0.04588,0.0221 -0.06872,0.03314c0.02297,-0.01096 0.04588,-0.02201 0.06872,-0.03314zM322.11967,490.63082l31.47109,-28.04067c7.56518,-6.6818 24.0202,-17.65258 33.43727,-22.32848c0.10599,-0.05579 0.21352,-0.10974 0.32258,-0.16177c0.02857,-0.01348 0.05724,-0.02697 0.086,-0.04049c-0.0287,0.01333 -0.05737,0.02683 -0.086,0.04049l0.30502,-0.14553c0.10906,-0.05203 0.21865,-0.10168 0.3287,-0.14896c9.55924,-4.37792 28.43931,-10.26592 38.3926,-11.94239l13.96978,-2.29058c4.71765,-0.68677 13.85644,-0.38306 18.95377,0.5901c0.22956,0.03735 0.45945,0.08382 0.68925,0.13965c0.00129,0.00041 0.00258,0.00083 0.00386,0.00124v0v0v0c-0.15584,-0.03655 -0.3117,-0.06881 -0.46746,-0.09684c0.16437,0.03281 0.32419,0.06635 0.47915,0.1006c0.80445,0.25907 1.66898,0.62176 2.56881,1.06812c-0.76263,-0.46787 -1.60827,-0.82888 -2.5214,-1.05759c0.00408,0.00091 0.00816,0.00182 0.01223,0.00274c-0.01254,-0.00305 -0.02508,-0.00606 -0.03761,-0.00906c-0.01251,-0.0031 -0.02504,-0.00617 -0.03758,-0.00921l0.07519,0.01827c0.99995,0.24296 1.91992,0.64422 2.73977,1.17068c5.38224,2.73649 11.93613,8.3679 14.45502,12.70529l2.51763,5.15705c0.75824,1.84401 1.72535,5.68315 1.67909,7.67234c-0.02152,0.92548 -0.06457,2.77645 -0.08609,3.70193c-0.07259,3.12137 -0.24731,10.63452 -0.24731,10.63452l-17.99513,-0.41849c0,0 0.07259,-3.12137 0.14518,-6.24274c0.01972,-0.84791 0.14323,-6.15904 0.18035,-7.75517l-2.36908,-4.85275c-0.44472,-1.71927 -2.36329,-3.49357 -4.22491,-4.09132c-0.34739,-0.04245 -0.696,-0.10557 -1.04441,-0.19023c-0.00295,-0.00081 -0.00591,-0.00161 -0.00887,-0.00242c0.3357,0.07893 0.6715,0.13793 1.00614,0.17776c-0.36097,-0.1121 -0.71931,-0.17953 -1.06384,-0.19328c-0.06888,-0.01833 -0.13924,-0.03638 -0.21102,-0.05412c0.06761,0.01868 0.1356,0.03664 0.20397,0.05385c-0.00052,-0.00002 -0.00105,-0.00004 -0.00157,-0.00006c0.01254,0.00305 0.02508,0.00606 0.03761,0.00906c0.01251,0.0031 0.02504,0.00617 0.03758,0.00921l-0.07519,-0.01827c-0.09407,-0.02286 -0.18743,-0.04711 -0.28007,-0.07274c-3.2129,-0.77401 -9.15021,-0.9734 -12.20055,-0.3853l-13.96978,2.29058c-8.80807,1.39945 -25.52623,6.62113 -33.81612,10.54207c-0.02216,0.01079 -0.04439,0.02151 -0.06668,0.03214v0c-0.02294,0.01081 -0.04594,0.02166 -0.06899,0.03257c0.02302,-0.01075 0.04602,-0.0216 0.06899,-0.03257l-0.30502,0.14553c-0.02229,0.01063 -0.0446,0.02117 -0.06694,0.03161c-8.26326,3.97675 -22.84019,13.68634 -29.46954,19.65226l-31.47109,28.04067z" fill="#bfbfbf"/><path d="M665.90596,504.07011l-31.47109,-28.04067c-6.62935,-5.96592 -21.20628,-15.6755 -29.46954,-19.65226c-0.02233,-0.01044 -0.04465,-0.02097 -0.06694,-0.03161l-0.30502,-0.14553c0.02297,0.01096 0.04597,0.02182 0.06899,0.03257c-0.02305,-0.0109 -0.04605,-0.02176 -0.06899,-0.03257v0c-0.02229,-0.01063 -0.04452,-0.02135 -0.06668,-0.03214c-8.28988,-3.92094 -25.00805,-9.14262 -33.81612,-10.54207l-13.96978,-2.29058c-3.05034,-0.5881 -8.98765,-0.38871 -12.20055,0.3853c-0.09264,0.02563 -0.186,0.04989 -0.28007,0.07274l-0.07519,0.01827c0.01254,-0.00305 0.02506,-0.00612 0.03758,-0.00921c0.01254,-0.00299 0.02508,-0.00601 0.03761,-0.00906c-0.00052,0.00002 -0.00105,0.00004 -0.00157,0.00006c0.06837,-0.01721 0.13636,-0.03516 0.20397,-0.05385c-0.07178,0.01775 -0.14215,0.03579 -0.21102,0.05412c-0.34453,0.01375 -0.70287,0.08118 -1.06384,0.19328c0.33464,-0.03982 0.67044,-0.09882 1.00614,-0.17776c-0.00296,0.0008 -0.00592,0.00161 -0.00887,0.00242c-0.34841,0.08465 -0.69701,0.14778 -1.04441,0.19023c-1.86162,0.59776 -3.78018,2.37205 -4.22491,4.09132l-2.36908,4.85275c0.03712,1.59613 0.16063,6.90726 0.18035,7.75517c0.07259,3.12137 0.14518,6.24274 0.14518,6.24274l-17.99513,0.41849c0,0 -0.17472,-7.51315 -0.24731,-10.63452c-0.02152,-0.92548 -0.06457,-2.77645 -0.08609,-3.70193c-0.04626,-1.98919 0.92085,-5.82833 1.67909,-7.67234l2.51763,-5.15705c2.51889,-4.33739 9.07279,-9.96879 14.45502,-12.70529c0.81985,-0.52646 1.73982,-0.92771 2.73977,-1.17068l0.07519,-0.01827c-0.01254,0.00305 -0.02506,0.00612 -0.03758,0.00921c-0.01254,0.00299 -0.02508,0.00601 -0.03761,0.00906c0.00407,-0.00091 0.00815,-0.00182 0.01223,-0.00274c-0.91313,0.2287 -1.75877,0.58972 -2.5214,1.05759c0.89982,-0.44636 1.76436,-0.80905 2.56881,-1.06812c0.15496,-0.03425 0.31478,-0.06779 0.47915,-0.1006c-0.15576,0.02804 -0.31162,0.06029 -0.46746,0.09684v0v0v0c0.00129,-0.00041 0.00258,-0.00083 0.00386,-0.00124c0.2298,-0.05584 0.45968,-0.1023 0.68925,-0.13965c5.09733,-0.97316 14.23612,-1.27687 18.95377,-0.5901l13.96978,2.29058c9.95329,1.67647 28.83336,7.56447 38.3926,11.94239c0.11005,0.04728 0.21963,0.09692 0.3287,0.14896l0.30502,0.14553c-0.02863,-0.01366 -0.0573,-0.02715 -0.086,-0.04049c0.02876,0.01351 0.05743,0.02701 0.086,0.04049c0.10906,0.05203 0.2166,0.10598 0.32258,0.16177c9.41707,4.6759 25.87209,15.64668 33.43727,22.32848l31.47109,28.04067zM604.89839,456.34557c-0.02284,-0.01103 -0.04574,-0.02208 -0.06872,-0.03314c0.02284,0.01113 0.04575,0.02218 0.06872,0.03314zM612.42995,439.99574c-0.02842,-0.01392 -0.05694,-0.02771 -0.08557,-0.04137c0.02845,0.01373 0.05698,0.02752 0.08557,0.04137zM544.25861,443.79335c-0.012,0.00302 -0.02402,0.00602 -0.03605,0.009c-0.00957,0.00228 -0.01914,0.00455 -0.02871,0.0068c0.01911,-0.0052 0.03835,-0.01037 0.0577,-0.01552c0.00235,-0.00009 0.00471,-0.00019 0.00706,-0.00027z" fill="#bfbfbf"/><path d="M464.52226,428.51158l-53.26216,-3.76455c-6.88692,-0.51198 -20.41368,-2.92245 -27.05352,-4.82094l-11.19609,-3.24539c-0.96836,-0.30689 -2.85481,-1.05072 -3.74905,-1.53197c-0.85738,-0.46141 -2.46125,-1.56068 -3.22755,-2.16171l-11.53085,-9.4508c-2.43523,-2.02297 -6.90499,-6.47154 -8.93951,-8.89712l-3.48432,-4.21022l13.8671,-11.47622l3.48432,4.21022c1.4498,1.78463 4.69109,5.01056 6.4826,6.45186l11.53085,9.4508c0.06955,0.08404 0.2532,0.18199 0.34748,0.23273c0.05742,0.0309 0.16063,0.1001 0.23027,0.09409l11.19609,3.24539c5.7131,1.68224 17.36873,3.75927 23.31125,4.15407l53.26216,3.76455z" fill="#bfbfbf"/><path d="M535.47774,428.51158l53.26216,-3.76455c6.88692,-0.51198 20.41368,-2.92245 27.05352,-4.82094l11.19609,-3.24539c0.96836,-0.30689 2.85481,-1.05072 3.74905,-1.53197c0.85738,-0.46141 2.46125,-1.56068 3.22755,-2.16171l11.53085,-9.4508c2.43523,-2.02297 6.90499,-6.47154 8.93951,-8.89712l3.48432,-4.21022l-13.8671,-11.47622l-3.48432,4.21022c-1.4498,1.78463 -4.69109,5.01056 -6.4826,6.45186l-11.53085,9.4508c-0.06955,0.08404 -0.2532,0.18199 -0.34748,0.23273c-0.05742,0.0309 -0.16063,0.1001 -0.23027,0.09409l-11.19609,3.24539c-5.7131,1.68224 -17.36873,3.75927 -23.31125,4.15407l-53.26216,3.76455z" fill="#bfbfbf"/><path d="M453.20247,408.66338c0,0 -2.50403,-0.42365 -5.00805,-0.84731l-10.21576,-1.7284c-8.87269,-1.69938 -24.4315,-9.47399 -31.11762,-15.54922l-7.66754,-7.27596c-3.42535,-3.51984 -8.30312,-11.74365 -9.37408,-16.53292c-0.95296,-4.26155 -1.30034,-12.89348 -0.82465,-17.23481l1.67227,-13.37588c0.19639,-1.03448 0.7488,-3.06658 1.22354,-4.00407c0.41093,-0.81147 1.48817,-2.27891 2.07547,-2.97489l9.45822,-10.16159c2.19177,-2.28976 7.05568,-6.2861 9.77339,-7.91673c2.1777,-1.30662 4.3554,-2.61324 4.3554,-2.61324l9.26092,15.43487c0,0 -2.1777,1.30662 -4.3554,2.61324c-1.63769,0.98261 -4.58975,3.31744 -5.85856,4.7456l-8.29769,8.91476l-1.44661,11.57092c-0.41646,2.79469 -0.08659,8.31702 0.52985,11.07371c0.49844,2.22897 2.40674,5.97365 4.19807,7.40406l7.66754,7.27596c4.51398,4.55288 15.37909,9.98208 21.73021,10.85841c2.50403,0.42365 15.22382,2.57571 15.22382,2.57571z" fill="#808080"/><path d="M546.79753,408.66338c0,0 2.50403,-0.42365 5.00805,-0.84731l10.21576,-1.7284c8.87269,-1.69938 24.4315,-9.47399 31.11762,-15.54922l7.66754,-7.27596c3.42535,-3.51984 8.30312,-11.74365 9.37408,-16.53292c0.95296,-4.26155 1.30034,-12.89348 0.82465,-17.23481l-1.67227,-13.37588c-0.19639,-1.03448 -0.7488,-3.06658 -1.22354,-4.00407c-0.41093,-0.81147 -1.48817,-2.27891 -2.07547,-2.97489l-9.45822,-10.16159c-2.19177,-2.28976 -7.05568,-6.2861 -9.77339,-7.91673c-2.1777,-1.30662 -4.3554,-2.61324 -4.3554,-2.61324l-9.26092,15.43487c0,0 2.1777,1.30662 4.3554,2.61324c1.63769,0.98261 4.58975,3.31744 5.85856,4.7456l8.29769,8.91476l1.44661,11.57092c0.41646,2.79469 0.08659,8.31702 -0.52985,11.07371c-0.49844,2.22897 -2.40674,5.97365 -4.19807,7.40406l-7.66754,7.27596c-4.51398,4.55288 -15.37909,9.98208 -21.73021,10.85841c-2.50403,0.42365 -15.22382,2.57571 -15.22382,2.57571z" fill="#808080"/><path d="M445.24537,288.21888c-0.02636,0.02216 -0.05237,0.04422 -0.07802,0.06617c0.01841,-0.01834 0.03692,-0.03663 0.05552,-0.05485c0.02188,-0.02036 0.04384,-0.04059 0.06586,-0.06069c-0.01443,0.01632 -0.02889,0.03278 -0.04337,0.04937zM554.71126,288.16951c0.02203,0.0201 0.04398,0.04033 0.06586,0.06069c0.0186,0.01822 0.03711,0.0365 0.05552,0.05485c-0.02565,-0.02195 -0.05166,-0.04401 -0.07802,-0.06617c-0.01448,-0.01659 -0.02894,-0.03305 -0.04337,-0.04937zM433.7124,402.30283c0,0 -1.48669,-3.32375 -2.97339,-6.6475l-7.93732,-17.7452c-4.08651,-9.39327 -8.15178,-29.0302 -8.13055,-39.27387l0.19374,-15.718c0.12947,-1.98364 0.92434,-5.84928 1.77929,-7.64082c0.88197,-1.84817 3.51845,-4.94959 5.05765,-6.30557l12.14112,-9.50119c2.00009,-1.52786 4.60643,-3.18759 7.54804,-4.85383c0.47919,-1.04301 1.01465,-2.0863 1.56859,-3.05286c0.46283,-1.19504 1.18944,-2.30966 2.17774,-3.25314c0.00996,-0.00858 0.01997,-0.01718 0.03004,-0.0258c-0.7971,0.79411 -1.41493,1.70244 -1.85231,2.67358c0.64903,-1.07821 1.31209,-2.0314 1.93034,-2.73975c0.44387,-0.37315 0.98699,-0.77547 1.59479,-1.18799c-0.54626,0.31699 -1.0668,0.69645 -1.55142,1.13862c0.00623,-0.00704 0.01245,-0.01406 0.01866,-0.02105c-0.02839,0.0271 -0.05657,0.05435 -0.08453,0.08173c-0.02865,0.02666 -0.05717,0.05354 -0.08556,0.08064l0.17009,-0.16238c0.64917,-0.61973 1.36685,-1.12325 2.12735,-1.51116c2.50986,-1.62232 5.83294,-3.30809 7.93371,-3.94041l4.45315,-1.09686c4.48488,-1.07615 13.58044,-2.26995 18.19112,-2.3876l11.81251,-0.23045c2.7765,-0.04646 6.30978,0.06026 10.17476,0.28116c3.86497,-0.22091 7.39826,-0.32763 10.17476,-0.28116l11.81251,0.23045c4.61068,0.11765 13.70625,1.31145 18.19112,2.3876l4.45315,1.09686c2.10077,0.63232 5.42385,2.31809 7.93371,3.94041c0.7605,0.38791 1.47818,0.89143 2.12735,1.51116l0.17009,0.16238c-0.02839,-0.0271 -0.05691,-0.05399 -0.08556,-0.08064c-0.02796,-0.02738 -0.05613,-0.05463 -0.08453,-0.08173c0.00622,0.00699 0.01244,0.014 0.01866,0.02105c-0.48462,-0.44217 -1.00516,-0.82163 -1.55142,-1.13862c0.6078,0.41251 1.15092,0.81483 1.59479,1.18799c0.61825,0.70834 1.28131,1.66154 1.93034,2.73975c-0.43738,-0.97114 -1.05522,-1.87946 -1.85231,-2.67358c0.01007,0.00862 0.02008,0.01721 0.03004,0.0258c0.9883,0.94348 1.71491,2.0581 2.17774,3.25314c0.55394,0.96656 1.08941,2.00985 1.56859,3.05286c2.94161,1.66625 5.54795,3.32597 7.54804,4.85383l12.14112,9.50119c1.5392,1.35599 4.17568,4.4574 5.05765,6.30557c0.85495,1.79154 1.64981,5.65718 1.77929,7.64082l0.19374,15.718c0.02124,10.24366 -4.04404,29.8806 -8.13055,39.27387c-1.48669,3.32375 -10.91071,24.3927 -10.91071,24.3927l-16.43118,-7.34957c0,0 9.42402,-21.06895 10.91071,-24.3927c3.48898,-7.54299 6.77053,-23.39422 6.5631,-31.70245l-0.19374,-15.718c0.01513,-0.00774 0.0258,-0.01456 0.03292,-0.02072l-7.18991,-5.62656c-0.12901,1.61265 -0.24695,3.08681 -0.32356,4.04454c-0.29036,3.6295 -0.74267,9.2834 -0.74267,9.2834l-17.94268,-1.43541c0,0 0.29036,-3.6295 0.58072,-7.259c0.20938,-2.6173 0.7901,-9.8763 0.99949,-12.4936l0.09917,-1.23959c0.05029,-0.54641 0.07867,-1.2808 0.08673,-2.07334c-5.79844,-2.7857 -12.02776,-5.1258 -16.38161,-5.95347l-0.60288,-0.12377c-6.19764,-1.29231 -16.85264,-2.48393 -25.75221,-3.00484c-8.89957,0.52091 -19.55457,1.71253 -25.75221,3.00484l-0.60288,0.12377c-4.35385,0.82766 -10.58317,3.16777 -16.38161,5.95347c0.00806,0.79254 0.03645,1.52693 0.08673,2.07334c0.20938,2.6173 0.88927,11.1159 1.09866,13.7332c0.29036,3.6295 0.58072,7.259 0.58072,7.259l-17.94268,1.43541c0,0 -0.45231,-5.6539 -0.74267,-9.2834c-0.07662,-0.95773 -0.19455,-2.43189 -0.32356,-4.04454l-7.18991,5.62656c0.00712,0.00616 0.0178,0.01298 0.03292,0.02072l-0.19374,15.718c-0.20743,8.30823 3.07412,24.15945 6.5631,31.70245c1.48669,3.32375 10.91071,24.3927 10.91071,24.3927z" fill="#bfbfbf"/><path d="M513.23517,284.00998l-3.80495,12.16131l12.61424,40.31744c3.05107,9.84031 7.01699,29.94238 7.93183,40.20415l0.31327,3.61895c0.69697,8.35788 0.35477,25.03815 -0.73682,33.35366c-1.04024,7.92438 -3.44662,23.72359 -4.81086,31.59866l-1.72599,9.95619c-1.21769,7.01859 -3.93876,21.00016 -5.44214,27.96314l-2.96953,13.74469l-14.60423,-3.15524l-14.60423,3.15524l-2.96953,-13.74469c-1.50338,-6.96299 -4.22444,-20.94456 -5.44214,-27.96314l-1.72599,-9.95619c-1.36424,-7.87507 -3.77061,-23.67428 -4.81086,-31.59866c-1.09159,-8.31551 -1.43379,-24.99578 -0.73682,-33.35366l0.31327,-3.61895c0.91484,-10.26176 4.88075,-30.36384 7.93183,-40.20415l12.61424,-40.31744l-3.80495,-12.16131l8.43566,-2.63929l0.85586,-2.7355l3.94365,1.23386l3.94365,-1.23386l0.85586,2.7355zM495.13435,341.86353c-2.81068,8.89494 -6.39953,27.0858 -7.17771,36.38173l-0.31327,3.61895c-0.66563,7.38293 -0.31404,22.10874 0.65077,29.45851c1.01616,7.7409 3.36494,23.17445 4.69944,30.86686l1.72599,9.95619c1.17876,6.80514 3.81023,20.32975 5.28043,27.14256c1.4702,-6.81281 4.10167,-20.33743 5.28043,-27.14256l1.72599,-9.95619c1.33451,-7.69241 3.68328,-23.12596 4.69944,-30.86686c0.96481,-7.34977 1.31641,-22.07558 0.65077,-29.45851l-0.31327,-3.61895c-0.77817,-9.29593 -4.36703,-27.48679 -7.17771,-36.38173l-4.86565,-15.55151z" fill="#808080"/><path d="M517.11555,345.71309l-7.7503,136.20382c-0.11447,2.00837 -0.23543,4.42538 -0.35683,7.08511c0.47061,10.52324 0.93918,24.37172 1.06491,32.18681c0.00003,0.00163 0.00005,0.00327 0.00008,0.0049l0.00011,0.00704c0.00003,0.00163 0.00005,0.00327 0.00008,0.0049c0.15977,10.08808 0.06942,30.24253 -0.18083,40.32082l-0.89556,35.93207l-8.99721,-0.22424l-8.99721,0.22424l-0.89556,-35.93207c-0.25025,-10.07829 -0.3406,-30.23274 -0.18083,-40.32082c0.00003,-0.00163 0.00005,-0.00327 0.00008,-0.0049l0.00011,-0.00704c0.00003,-0.00163 0.00005,-0.00327 0.00008,-0.0049c0.12573,-7.81509 0.5943,-21.66357 1.06491,-32.18681c-0.1214,-2.65973 -0.24235,-5.07674 -0.35683,-7.08511l-7.7503,-136.20382l16.25461,-0.92492l0.00556,-0.09766l0.85538,0.04867l0.85538,-0.04867l0.00556,0.09766z" fill="#bfbfbf"/><path d="M454.43875,603.37779l3.13637,0.31393l1.16139,-6.00197l15.47399,2.99424c6.22751,1.21521 17.77959,2.66547 25.7895,3.29588c8.00991,-0.63041 19.56199,-2.08067 25.7895,-3.29588l15.47399,-2.99424l1.16139,6.00197l3.13637,-0.31393l1.79271,17.91051l-9.79058,0.97997c-5.22182,0.51071 -15.68544,0.79367 -20.92723,0.56591l-13.32797,-0.60937c-0.99392,-0.04689 -2.10631,-0.11652 -3.30819,-0.20545c-1.20188,0.08893 -2.31427,0.15856 -3.30819,0.20545l-13.32797,0.60937c-5.24179,0.22775 -15.70541,-0.0552 -20.92723,-0.56591l-9.79058,-0.97997z" fill="#808080"/></g></g></g></svg>