<svg version="1.1" xmlns="http://www.w3.org/2000/svg" xmlns:xlink="http://www.w3.org/1999/xlink" viewBox="0 0 1000 1000"><g fill="none" fill-rule="nonzero" stroke="#000000" stroke-width="6" stroke-linecap="round" stroke-linejoin="round" stroke-miterlimit="none" stroke-dasharray="" stroke-dashoffset="0" font-family="none" font-weight="none" font-size="none" text-anchor="none" style="mix-blend-mode:normal"><g fill="none" stroke-miterlimit="NaN" font-family="none" font-weight="none" font-size="NaN" text-anchor="start"><g stroke-miterlimit="NaN" font-size="NaN"/></g><path d="M535.27636,717.65485l6.94784,2.77012c3.04711,1.23922 9.33515,3.04134 12.57609,3.60424l7.00287,1.26592c6.79684,1.25164 20.50264,2.33067 27.4116,2.15806l3.44552,-0.07481c6.81176,-0.10647 20.23475,1.4311 26.84599,3.07516l6.87139,1.75316c3.05859,0.82309 8.8842,3.18761 11.65122,4.72904l2.24784,1.29099c1.35727,0.79179 3.96342,2.53719 5.2123,3.4908l0.98229,0.76064c0.74069,0.58702 2.14979,1.8422 2.81819,2.51037l0.88904,0.90897l-12.86821,12.58607l-0.88904,-0.90897c-0.22064,-0.24081 -0.70589,-0.67306 -0.9705,-0.8645l-0.98229,-0.76064c-0.74674,-0.5917 -2.32492,-1.64864 -3.15635,-2.11388l-2.24784,-1.29099c-1.66951,-1.00659 -5.23781,-2.45491 -7.1366,-2.89663l-6.87139,-1.75316c-5.41049,-1.42316 -16.41315,-2.6835 -22.00532,-2.52067l-3.44552,0.07481c-7.81068,0.14697 -23.31283,-1.07349 -31.00429,-2.44091l-7.00287,-1.26592c-4.11948,-0.76766 -12.13969,-3.06621 -16.04043,-4.59711l-6.94784,-2.77012z" fill="#d5fcab" stroke-miterlimit="0"/><path d="M471.38995,734.37489l-6.94784,2.77012c-3.90074,1.5309 -11.92095,3.82945 -16.04043,4.59711l-7.00287,1.26592c-7.69146,1.36742 -23.19361,2.58788 -31.00429,2.44091l-3.44552,-0.07481c-5.59217,-0.16283 -16.59483,1.09751 -22.00532,2.52067l-6.87139,1.75316c-1.89879,0.44172 -5.46709,1.89004 -7.1366,2.89663l-2.24784,1.29099c-0.83143,0.46524 -2.40961,1.52218 -3.15635,2.11388l-0.98229,0.76064c-0.26461,0.19144 -0.74986,0.62369 -0.9705,0.8645l-0.88904,0.90897l-12.86821,-12.58607l0.88904,-0.90897c0.6684,-0.66817 2.0775,-1.92335 2.81819,-2.51037l0.98229,-0.76064c1.24888,-0.95361 3.85503,-2.69901 5.2123,-3.4908l2.24784,-1.29099c2.76702,-1.54143 8.59263,-3.90595 11.65122,-4.72904l6.87139,-1.75316c6.61124,-1.64406 20.03423,-3.18163 26.84599,-3.07516l3.44552,0.07481c6.90896,0.17261 20.61476,-0.90642 27.4116,-2.15806l7.00287,-1.26592c3.24094,-0.5629 9.52898,-2.36502 12.57609,-3.60424l6.94784,-2.77012z" fill="#d5fcab" stroke-miterlimit="0"/><path d="M340.64888,605.71158c0.00204,0.00813 0.00409,0.01626 0.00614,0.02437c-0.00245,-0.00855 -0.00488,-0.01711 -0.00731,-0.02567c-0.00208,-0.00825 -0.00415,-0.01649 -0.0062,-0.02474c0.00245,0.00867 0.00491,0.01735 0.00737,0.02604zM790.20202,420.77636c0.01474,-0.03132 0.02932,-0.06276 0.04374,-0.09433c-0.0145,0.03136 -0.02908,0.0628 -0.04374,0.09433zM773.72057,413.53688c0.01155,-0.02494 0.02312,-0.04995 0.03469,-0.07506c-0.01167,0.02494 -0.02323,0.04996 -0.03469,0.07506zM805.90594,312.54399c-0.00204,-0.0214 -0.00416,-0.04282 -0.00636,-0.06424c0.00213,0.02137 0.00425,0.04278 0.00636,0.06424zM788.0175,314.55018c-0.00176,-0.01779 -0.00354,-0.03561 -0.00532,-0.05347c0.00172,0.01782 0.0035,0.03564 0.00532,0.05347zM601.0138,342.95797c-0.02776,0.01349 -0.05548,0.02714 -0.08316,0.04094c0.02765,-0.01357 0.05537,-0.02722 0.08316,-0.04094zM609.33169,358.92351c-0.03522,0.01733 -0.07059,0.03468 -0.10611,0.05206c0.03543,-0.0171 0.0708,-0.03445 0.10611,-0.05206zM601.21751,342.8564c0.02769,-0.01394 0.05527,-0.02787 0.08275,-0.04178c-0.02768,0.0138 -0.05527,0.02773 -0.08275,0.04178zM391.60112,669.16032c0.02724,0.01785 0.0546,0.03558 0.08209,0.05319c-0.0273,-0.01765 -0.05466,-0.03538 -0.08209,-0.05319zM787.9991,314.36925c-0.00187,-0.01785 -0.00375,-0.03566 -0.00564,-0.05343c0.00183,0.01783 0.00371,0.03564 0.00564,0.05343zM682.15142,288.62492c0.01472,-0.02487 0.02933,-0.04983 0.04385,-0.07489c-0.01456,0.02491 -0.02917,0.04987 -0.04385,0.07489zM609.06751,359.05437c-0.03525,0.01791 -0.0704,0.03571 -0.10543,0.05342c0.03531,-0.01761 0.07046,-0.03541 0.10543,-0.05342zM666.46323,279.7979c0.0118,-0.02017 0.02362,-0.0404 0.03546,-0.06069c-0.01189,0.02017 -0.02371,0.0404 -0.03546,0.06069zM401.09752,653.86779c0.02184,0.01414 0.04376,0.02831 0.06575,0.0425c-0.02183,-0.01424 -0.04375,-0.02841 -0.06575,-0.0425zM659.35849,605.68554c-0.00205,0.00825 -0.00412,0.0165 -0.0062,0.02474c-0.00242,0.00856 -0.00486,0.01712 -0.00731,0.02567c0.00205,-0.00812 0.00409,-0.01624 0.00614,-0.02437c0.00246,-0.00869 0.00492,-0.01737 0.00737,-0.02604zM209.75424,420.68203c0.01442,0.03157 0.029,0.06301 0.04374,0.09433c-0.01465,-0.03153 -0.02923,-0.06297 -0.04374,-0.09433zM226.24474,413.46183c0.01158,0.0251 0.02314,0.05012 0.03469,0.07506c-0.01146,-0.0251 -0.02303,-0.05011 -0.03469,-0.07506zM194.09406,312.54399c0.00204,-0.0214 0.00416,-0.04282 0.00636,-0.06424c-0.00213,0.02137 -0.00425,0.04278 -0.00636,0.06424zM211.98783,314.49671c-0.00179,0.01785 -0.00356,0.03568 -0.00532,0.05347c0.00183,-0.01783 0.0036,-0.03565 0.00532,-0.05347zM399.06936,342.99891c-0.02768,-0.0138 -0.05541,-0.02745 -0.08316,-0.04094c0.0278,0.01372 0.05552,0.02737 0.08316,0.04094zM390.77442,358.97556c-0.03552,-0.01737 -0.07089,-0.03473 -0.10611,-0.05206c0.03531,0.01761 0.07068,0.03496 0.10611,0.05206zM398.69975,342.81463c0.02748,0.01391 0.05506,0.02784 0.08275,0.04178c-0.02748,-0.01405 -0.05506,-0.02798 -0.08275,-0.04178zM194.0832,312.64991c-0.00228,0.02145 -0.00455,0.04284 -0.00681,0.0642c0.0022,-0.02143 0.00447,-0.04283 0.00681,-0.0642zM608.31679,669.21351c0.02749,-0.0176 0.05486,-0.03533 0.08209,-0.05319c-0.02743,0.01781 -0.0548,0.03553 -0.08209,0.05319zM515.61357,588.46892l0.82797,-0.48035c7.25471,-4.15393 20.16417,-14.46549 25.88818,-20.55806c5.52366,-5.87933 13.72172,-19.28261 16.24992,-26.94392l2.84384,-8.27085c1.36531,-3.66232 2.17243,-11.19702 1.81399,-15.0878c-0.37491,-4.06959 -2.39587,-11.83226 -4.17243,-15.51333l-5.17618,-11.17959c-2.69434,-5.96373 -9.71079,-16.17663 -14.66185,-21.66217c-9.0892,-3.29466 -21.91575,-6.88483 -29.25148,-8.0498l-9.97553,-1.62351l-9.97553,1.62351c-7.33573,1.16497 -20.16228,4.75514 -29.25148,8.0498c-4.95106,5.48554 -11.96751,15.69844 -14.66185,21.66217l-5.17618,11.17959c-1.77656,3.68106 -3.79752,11.44374 -4.17243,15.51333c-0.35844,3.89078 0.44868,11.42547 1.81399,15.0878l2.84384,8.27085c2.5282,7.66131 10.72625,21.06459 16.24992,26.94392c5.72401,6.09257 18.63347,16.40413 25.88818,20.55806l0.82797,0.48035c3.76964,2.21361 9.60297,4.90943 15.61357,7.33346c6.01061,-2.42403 11.84393,-5.11986 15.61357,-7.33346zM363.433,581.28341l5.44736,4.73766c6.31822,5.61059 20.70783,13.72599 28.72412,16.3962c8.26063,2.7516 25.19434,5.91964 33.89489,6.25362l0.40562,0.0176c9.0631,0.43671 26.94058,-1.27997 35.75496,-3.43337l6.93231,-1.65845l-0.06653,-0.0386c-8.33525,-4.89066 -23.35686,-16.75944 -29.97398,-23.80263c-6.81746,-7.25643 -16.82101,-24.03313 -20.15328,-33.41607l-2.84384,-8.27085c-1.79001,-5.5144 -3.24798,-16.81953 -2.71619,-22.59186c0.51531,-5.59352 3.46175,-16.29991 5.76237,-21.4248l3.44544,-7.44152c-1.52961,1.06185 -2.9066,2.06828 -4.06619,2.98067l-32.30897,25.22111c-6.90273,5.29723 -18.29202,18.04961 -22.77857,25.50476l-0.34141,0.55684c-4.29643,6.86999 -9.99814,21.72101 -11.54455,29.6746c-0.17499,0.90002 -0.324,1.90195 -0.44734,2.98187c2.26471,3.05931 4.87103,6.07636 6.87377,7.75321zM418.07504,466.00926l-4.484,1.97348l-40.95208,23.0407c-1.43125,1.19843 -2.70111,2.34492 -3.74011,3.39219l-3.74338,3.70825c-4.13194,3.98735 -10.48919,13.2697 -12.85153,18.50283c-2.29317,5.07991 -4.57445,15.64018 -4.36274,21.21075l0.07235,3.94883c1.77872,-4.02504 3.58764,-7.65997 5.19221,-10.32108l0.34141,-0.55684c5.44664,-8.74599 18.97057,-23.8885 27.04787,-30.28501l32.30897,-25.22111c5.78765,-4.48616 16.3308,-11.07038 25.33796,-16.00316c-7.49502,1.94386 -15.35624,4.46321 -20.16692,6.61015zM317.80474,288.55003c0.01451,0.02506 0.02913,0.05002 0.04385,0.07489c-0.01467,-0.02502 -0.02929,-0.04998 -0.04385,-0.07489zM391.03793,359.10779c-0.03504,-0.0177 -0.07018,-0.03551 -0.10543,-0.05342c0.03498,0.018 0.07012,0.03581 0.10543,0.05342zM333.50131,279.73721c0.01183,0.02029 0.02365,0.04052 0.03546,0.06069c-0.01175,-0.02029 -0.02357,-0.04052 -0.03546,-0.06069zM598.83673,653.91028c0.02199,-0.01419 0.0439,-0.02835 0.06575,-0.0425c-0.022,0.01409 -0.04391,0.02825 -0.06575,0.0425zM642.99343,570.54833c-1.54641,-7.95359 -7.24812,-22.80461 -11.54455,-29.6746l-0.34141,-0.55684c-4.48655,-7.45515 -15.87583,-20.20753 -22.77857,-25.50476l-32.30897,-25.22111c-1.15959,-0.91239 -2.53658,-1.91882 -4.06619,-2.98067l3.44544,7.44152c2.30062,5.12489 5.24706,15.83128 5.76237,21.4248c0.53178,5.77233 -0.92618,17.07747 -2.71619,22.59186l-2.84384,8.27085c-3.33228,9.38294 -13.33582,26.15964 -20.15328,33.41607c-6.61712,7.04318 -21.63873,18.91197 -29.97398,23.80263l-0.06653,0.0386l6.93231,1.65845c8.81438,2.15339 26.69186,3.87008 35.75496,3.43337l0.40562,-0.0176c8.70055,-0.33398 25.63426,-3.50202 33.89489,-6.25362c8.01629,-2.67021 22.4059,-10.78561 28.72412,-16.3962l5.44736,-4.73766c2.00275,-1.67685 4.60906,-4.69391 6.87377,-7.75321c-0.12334,-1.07992 -0.27235,-2.08185 -0.44734,-2.98187zM566.35053,668.65306c8.55716,-2.44253 24.46958,-9.64793 32.19747,-14.55793c0.02067,-0.01347 0.0414,-0.02687 0.06222,-0.04019v0c0.02199,-0.01392 0.04402,-0.0279 0.06611,-0.04193c-0.02207,0.01387 -0.04411,0.02785 -0.06611,0.04193l0.29226,-0.18714c0.02081,-0.01333 0.04166,-0.02656 0.06254,-0.03969c7.69298,-4.96452 20.89527,-16.40229 26.69412,-23.15242l1.40606,-1.61994c5.35444,-5.99662 12.63918,-19.6373 14.81154,-27.6583c0.01699,-0.07011 0.03485,-0.14021 0.0536,-0.21028c0.00982,-0.03467 0.0196,-0.0695 0.02935,-0.10449c-0.00283,0.01136 -0.00564,0.02272 -0.00843,0.03408c0.00478,-0.01838 0.00953,-0.03673 0.01426,-0.05505c-0.00194,0.007 -0.00389,0.01399 -0.00583,0.02097c0.00197,-0.0079 0.00395,-0.0158 0.00594,-0.0237c0.00207,-0.00732 0.00415,-0.01464 0.00624,-0.02195c-0.00211,0.00822 -0.00423,0.01645 -0.00635,0.02468v0c0.00589,-0.02121 0.01176,-0.04248 0.01763,-0.0638c-0.00378,0.01302 -0.00754,0.02606 -0.01127,0.03912c0.00917,-0.0357 0.01823,-0.07128 0.02719,-0.10673c-0.01147,0.04289 -0.02262,0.08578 -0.03343,0.12869c-0.01205,0.04257 -0.02382,0.0853 -0.03529,0.12819l0.06872,-0.25687c0.01866,-0.06976 0.03809,-0.13911 0.05829,-0.20803c0.04247,-0.16112 0.08422,-0.32532 0.12524,-0.49248c-8.08485,6.62451 -24.71025,16.13777 -34.09859,19.26501c-9.44446,3.14593 -28.85977,6.6843 -38.80316,7.1592l-0.40562,0.0176c-10.31347,0.40396 -30.67508,-1.55126 -40.72322,-3.91044l-14.84028,-3.55031c-3.58293,-0.87462 -8.30879,-2.4053 -13.31172,-4.24595c-5.00294,1.84065 -9.7288,3.37133 -13.31172,4.24595l-14.84028,3.55031c-10.04814,2.35918 -30.40975,4.3144 -40.72322,3.91044l-0.40562,-0.0176c-9.94339,-0.4749 -29.35871,-4.01327 -38.80316,-7.1592c-9.38834,-3.12724 -26.01374,-12.64049 -34.09859,-19.26501c0.04102,0.16715 0.08277,0.33135 0.12524,0.49248c0.02019,0.06893 0.03962,0.13828 0.05829,0.20803l0.06872,0.25687c-0.01147,-0.04289 -0.02324,-0.08562 -0.03529,-0.12819c-0.01081,-0.0429 -0.02196,-0.0858 -0.03343,-0.12869c0.00895,0.03546 0.01802,0.07103 0.02719,0.10673c-0.00373,-0.01305 -0.00749,-0.02609 -0.01127,-0.03912c0.00586,0.02132 0.01174,0.04259 0.01763,0.0638v0c-0.00212,-0.00823 -0.00424,-0.01646 -0.00635,-0.02468c0.00209,0.00731 0.00417,0.01463 0.00624,0.02195c0.00199,0.0079 0.00397,0.0158 0.00594,0.0237c-0.00195,-0.00698 -0.00389,-0.01397 -0.00583,-0.02097c0.00472,0.01832 0.00948,0.03667 0.01426,0.05505c-0.00279,-0.01136 -0.00559,-0.02272 -0.00843,-0.03408c0.00975,0.03499 0.01953,0.06982 0.02935,0.10449c0.01874,0.07007 0.03661,0.14017 0.0536,0.21028c2.17236,8.021 9.45711,21.66168 14.81154,27.6583l1.40606,1.61994c5.79886,6.75013 19.00114,18.1879 26.69412,23.15242c0.02088,0.01313 0.04173,0.02636 0.06254,0.03969l0.29226,0.18714c-0.022,-0.01409 -0.04403,-0.02806 -0.06611,-0.04193c0.02208,0.01403 0.04412,0.02801 0.06611,0.04193v0c0.02081,0.01333 0.04155,0.02672 0.06222,0.04019c7.72789,4.91001 23.64031,12.1154 32.19747,14.55793l66.35053,19.30519zM587.09601,475.40227l32.30897,25.22111c8.0773,6.39652 21.60123,21.53903 27.04787,30.28501l0.34141,0.55684c1.60457,2.66111 3.41349,6.29604 5.19221,10.32108l0.07235,-3.94883c0.21171,-5.57057 -2.06958,-16.13084 -4.36274,-21.21075c-2.36233,-5.23313 -8.71958,-14.51548 -12.85153,-18.50283l-3.74338,-3.70825c-1.039,-1.04727 -2.30886,-2.19376 -3.74011,-3.39219l-40.95208,-23.0407l-4.484,-1.97348c-4.81068,-2.14694 -12.6719,-4.66628 -20.16692,-6.61015c9.00716,4.93278 19.55032,11.51699 25.33796,16.00316zM493.3297,380.87631c0,0 -1.8128,-0.27429 -3.62561,-0.54858l-60.12656,-9.09754c-9.91503,-1.55407 -28.58806,-7.41676 -38.12368,-11.92789c-0.13948,-0.061 -0.27816,-0.12583 -0.41592,-0.19451l-0.36962,-0.18428c-0.13777,-0.06869 -0.273,-0.14043 -0.40566,-0.2151c-9.3415,-4.90048 -25.26154,-16.28493 -32.4698,-23.26805l-14.88114,-14.57023c-7.19728,-7.10347 -19.39445,-22.76122 -24.7828,-31.77193c-0.05759,-0.09175 -0.11378,-0.18488 -0.1685,-0.27938v0l-0.15567,-0.26879c-0.05473,-0.0945 -0.10754,-0.18958 -0.15846,-0.28519c-5.13393,-9.15806 -12.64469,-27.5299 -15.22409,-37.30777l-11.07942,-42.6904c-0.95311,-5.33349 -6.95421,-12.63481 -12.00219,-14.60266l-2.69815,-1.29935c-1.83885,-1.34866 -5.38568,-1.0224 -7.4334,-0.10973c-2.94633,1.31319 -8.08674,4.8913 -10.20535,7.32552l-6.60931,7.1674c-5.79755,6.15038 -14.31264,20.30413 -17.03017,28.30749l-15.3568,43.6489c-3.06642,8.62237 -7.02572,26.25305 -7.99422,35.54424c-0.00213,0.02243 -0.00435,0.04488 -0.00665,0.06733v0v0c-0.00188,0.01778 -0.00376,0.03559 -0.00564,0.05343c0.00193,-0.01779 0.00381,-0.0356 0.00564,-0.05343l-0.02403,0.23436c-0.0023,0.02246 -0.00469,0.04488 -0.00715,0.06728c-0.93724,9.29439 -0.63835,27.3617 0.61441,36.42696l3.81404,28.3058c1.13509,8.78299 5.93356,25.47203 9.6921,33.78563c0.0104,0.0223 0.02073,0.04466 0.03097,0.06708c0.01128,0.02506 0.02262,0.05018 0.03402,0.07536c-0.01121,-0.02515 -0.02255,-0.05027 -0.03402,-0.07536l0.15255,0.33396c0.01024,0.02242 0.02038,0.04486 0.03043,0.06732c3.82332,8.284 13.29663,22.83755 19.19237,29.44586l16.18343,18.33825c5.77027,6.63602 19.25185,17.49918 26.96316,21.72631l12.18332,6.79521c1.34425,0.82358 4.2628,1.78625 5.8153,2.05243c1.54774,0.26537 4.6096,0.32738 6.1458,-0.00471l13.72849,-2.37552c8.66567,-1.4332 24.95408,-7.23008 32.57682,-11.59376l4.0284,-2.26648c8.27691,-6.46812 19.55019,-13.73761 26.63426,-16.91734l15.77201,-6.94152l11.41939,-6.42484c9.0148,-5.02476 28.03986,-12.56137 38.05013,-15.07321l6.98431,-1.72299c6.38747,-1.53339 19.34341,-2.96015 25.90951,-2.77129c3.13239,0.0901 7.59028,0.77583 12.10347,1.74847c4.51319,-0.97264 8.97108,-1.65838 12.10347,-1.74847c6.5661,-0.18886 19.52204,1.2379 25.90951,2.77129l6.98431,1.72299c10.01027,2.51184 29.03533,10.04845 38.05013,15.07321l11.41939,6.42484l15.77201,6.94152c7.08407,3.17974 18.35734,10.44922 26.63426,16.91734l4.0284,2.26648c7.62274,4.36368 23.91115,10.16056 32.57682,11.59376l13.72849,2.37552c1.5362,0.33209 4.59806,0.27008 6.1458,0.00471c1.55251,-0.26619 4.47105,-1.22886 5.8153,-2.05243l12.18332,-6.79521c7.7113,-4.22713 21.19288,-15.09028 26.96316,-21.72631l16.18343,-18.33825c5.89573,-6.6083 15.36905,-21.16185 19.19237,-29.44586c0.01004,-0.02246 0.02019,-0.0449 0.03043,-0.06732l0.15255,-0.33396c-0.01146,0.0251 -0.0228,0.05022 -0.03402,0.07536c0.01139,-0.02518 0.02273,-0.05031 0.03402,-0.07536c0.01024,-0.02242 0.02057,-0.04478 0.03097,-0.06708c3.75855,-8.31359 8.55701,-25.00264 9.6921,-33.78563l3.81404,-28.3058c1.25276,-9.06526 1.55164,-27.13256 0.61441,-36.42696c-0.00246,-0.0224 -0.00485,-0.04483 -0.00715,-0.06728l-0.02403,-0.23436c-0.0023,-0.02246 -0.00452,-0.0449 -0.00665,-0.06733c-0.9685,-9.29119 -4.92781,-26.92187 -7.99422,-35.54424l-15.3568,-43.6489c-2.71754,-8.00336 -11.23262,-22.1571 -17.03017,-28.30749l-6.60931,-7.1674c-2.11861,-2.43422 -7.25901,-6.01233 -10.20535,-7.32552c-2.04772,-0.91268 -5.59455,-1.23893 -7.4334,0.10973l-2.69815,1.29935c-5.04798,1.96784 -11.04907,9.26917 -12.00219,14.60266l-11.07942,42.6904c-2.57941,9.77787 -10.09016,28.14971 -15.22409,37.30777c-0.05092,0.09562 -0.10373,0.19069 -0.15846,0.28519l-0.15567,0.26879v0c-0.05473,0.0945 -0.11091,0.18763 -0.1685,0.27938c-5.38835,9.01071 -17.58553,24.66845 -24.7828,31.77193l-14.88114,14.57023c-7.20826,6.98312 -23.12829,18.36757 -32.4698,23.26805c-0.13266,0.07468 -0.26789,0.14642 -0.40566,0.2151l-0.36962,0.18428c-0.13777,0.06869 -0.27645,0.13351 -0.41592,0.19451c-9.53562,4.51113 -28.20865,10.37382 -38.12368,11.92789l-60.12656,9.09754c-1.8128,0.27429 -3.62561,0.54858 -3.62561,0.54858l-2.69287,-17.79743c0,0 1.8128,-0.27429 3.62561,-0.54858l60.12656,-9.09754c8.66999,-1.25743 25.01677,-6.40132 33.13676,-10.4015c0.02136,-0.01086 0.04279,-0.02165 0.06427,-0.03236l0.36962,-0.18428c0.02149,-0.01071 0.04299,-0.02133 0.06452,-0.03185c8.08148,-4.07742 22.02747,-14.03666 28.24951,-20.20399l14.88114,-14.57023c6.44382,-6.25226 17.29013,-20.18632 21.93128,-28.147c0.01208,-0.02125 0.02425,-0.04246 0.03652,-0.06365l0.15567,-0.26879c-0.01175,0.02029 -0.02342,0.04061 -0.03499,0.06096c0.01171,-0.02036 0.02337,-0.04068 0.03499,-0.06096v0c0.01227,-0.02119 0.02461,-0.04231 0.03703,-0.06336c4.59503,-7.98739 11.28302,-24.3297 13.49909,-33.03043l11.07942,-42.6904c2.71165,-8.78731 13.51921,-21.9365 21.61512,-26.29838l2.69815,-1.29935c5.61094,-2.23895 17.06633,-2.78666 22.57105,-0.33318c4.6061,2.05296 12.62349,7.91968 16.11024,11.56413l6.60931,7.1674c6.89315,7.61193 17.28178,24.87987 20.77726,34.53588l15.3568,43.6489c3.34179,9.5914 7.73431,29.13206 8.90027,39.51599c0.00995,0.07747 0.01895,0.15528 0.02696,0.23343l0.02403,0.23436c-0.0022,-0.02142 -0.00447,-0.04282 -0.00681,-0.06419c0.00228,0.02144 0.00455,0.04284 0.00681,0.0642v0v0c0.00801,0.07815 0.015,0.15617 0.02098,0.23405c0.96566,10.40447 0.63018,30.42993 -0.69556,40.49993l-3.81404,28.3058c-1.39209,9.97538 -6.82576,28.90989 -11.03154,38.56209c-0.04965,0.12255 -0.10221,0.24459 -0.15769,0.36604l-0.15255,0.33396c0.01442,-0.03157 0.02864,-0.06317 0.04267,-0.09482c-0.01424,0.03172 -0.02846,0.06333 -0.04267,0.09482c-0.05548,0.12145 -0.11332,0.24107 -0.17345,0.35884c-4.54234,9.49846 -15.29709,26.00228 -21.92586,33.58551l-16.18343,18.33825c-6.87142,7.68891 -22.71712,20.45702 -31.6914,25.53622l-12.18332,6.79521c-2.73284,1.45041 -8.49261,3.55064 -11.54134,4.07337c-3.05349,0.52354 -9.19287,0.45448 -12.25668,-0.00939l-13.72849,-2.37552c-2.36533,-0.42473 -5.22054,-1.12101 -8.32295,-2.00247c0.8025,1.41632 1.48915,2.73852 2.01564,3.90482c3.10551,6.87945 5.98253,21.39776 5.95386,28.94642l-0.21944,11.97651c-0.2289,6.50906 -3.15641,18.94886 -6.05141,24.78215c-0.54032,1.08872 -1.25819,2.32834 -2.09942,3.65158c0.20083,9.11686 -0.61509,19.75599 -2.16167,26.41882c-0.03869,0.19532 -0.08406,0.39067 -0.13627,0.58581c-0.00962,0.03439 -0.01931,0.06887 -0.02909,0.10345c0.01002,-0.04022 0.01975,-0.08045 0.02919,-0.12068c-0.01215,0.04915 -0.02434,0.09806 -0.03657,0.14672c-0.01263,0.04456 -0.0254,0.08928 -0.0383,0.13415c0.01094,-0.03647 0.02166,-0.07307 0.03217,-0.10978c-0.00869,0.03446 -0.01739,0.0688 -0.02612,0.10301c0.01147,-0.04289 0.02262,-0.08578 0.03343,-0.12869c0.01205,-0.04257 0.02382,-0.0853 0.03529,-0.12819l-0.06872,0.25687c-0.05135,0.19194 -0.10853,0.38077 -0.1713,0.56634c-3.02161,9.97522 -12.05725,26.86862 -18.48874,34.4493l-1.40606,1.61994c-6.64585,7.58809 -21.56933,20.52887 -30.33414,26.3446c-0.10131,0.07084 -0.20451,0.13994 -0.30957,0.20722v0v0l-0.29226,0.18714c-0.10506,0.06728 -0.211,0.1321 -0.31773,0.19447c-8.94947,5.52735 -26.94718,13.66716 -36.61982,16.52837l-38.65161,11.24598c4.94466,1.22632 10.04255,2.40951 13.38186,3.07982l9.95146,2.00414c1.22176,0.25014 3.68338,0.63458 4.92234,0.77685c1.36745,0.15702 4.10603,0.43463 5.47724,0.55441l8.09039,0.70914c1.76611,0.15521 5.30195,0.41687 7.07163,0.52412c1.83008,0.11091 3.66016,0.22183 3.66016,0.22183l-1.08891,17.96703c0,0 -1.83008,-0.11091 -3.66016,-0.22183c-1.89049,-0.11457 -5.66768,-0.39493 -7.55443,-0.5599l-8.09039,-0.70914c-1.49172,-0.13116 -4.47122,-0.43234 -5.95892,-0.60317c-1.61619,-0.18558 -4.82706,-0.69638 -6.42264,-1.01363l-9.95146,-2.00414c-6.57936,-1.32912 -19.60486,-4.52961 -26.05098,-6.40099l-16.5048,-4.8022l-16.5048,4.8022c-6.44613,1.87138 -19.47162,5.07187 -26.05098,6.40099l-9.95146,2.00414c-1.59559,0.31725 -4.80645,0.82804 -6.42264,1.01363c-1.4877,0.17083 -4.4672,0.47201 -5.95892,0.60317l-8.09039,0.70914c-1.88676,0.16497 -5.66395,0.44533 -7.55443,0.5599c-1.83008,0.11091 -3.66016,0.22183 -3.66016,0.22183l-1.08891,-17.96703c0,0 1.83008,-0.11091 3.66016,-0.22183c1.76967,-0.10725 5.30551,-0.36891 7.07163,-0.52412l8.09039,-0.70914c1.37122,-0.11978 4.10979,-0.39739 5.47724,-0.55441c1.23895,-0.14227 3.70058,-0.52671 4.92234,-0.77685l9.95146,-2.00414c3.33931,-0.67031 8.4372,-1.8535 13.38186,-3.07982l-38.65161,-11.24598c-9.67264,-2.86121 -27.67035,-11.00102 -36.61982,-16.52837c-0.10674,-0.06238 -0.21267,-0.12719 -0.31773,-0.19447l-0.29226,-0.18714v0v0c-0.10506,-0.06728 -0.20826,-0.13637 -0.30957,-0.20722c-8.76481,-5.81572 -23.68829,-18.75651 -30.33414,-26.3446l-1.40606,-1.61994c-6.43149,-7.58068 -15.46713,-24.47408 -18.48874,-34.4493c-0.06277,-0.18557 -0.11995,-0.3744 -0.1713,-0.56634l-0.06872,-0.25687c0.01147,0.04289 0.02324,0.08562 0.03529,0.12819c0.01081,0.0429 0.02196,0.0858 0.03343,0.12869c-0.00873,-0.03421 -0.01744,-0.06855 -0.02612,-0.10301c0.01051,0.03671 0.02123,0.0733 0.03217,0.10978c-0.0129,-0.04487 -0.02567,-0.08959 -0.0383,-0.13415c-0.01223,-0.04866 -0.02442,-0.09757 -0.03657,-0.14672c0.00944,0.04023 0.01918,0.08046 0.02919,0.12068c-0.00978,-0.03458 -0.01947,-0.06906 -0.02909,-0.10345c-0.0522,-0.19514 -0.09758,-0.39049 -0.13627,-0.58581c-1.54658,-6.66284 -2.3625,-17.30196 -2.16167,-26.41882c-0.84123,-1.32324 -1.5591,-2.56286 -2.09942,-3.65158c-2.895,-5.83329 -5.82251,-18.27309 -6.05141,-24.78215l-0.21944,-11.97651c-0.02867,-7.54866 2.84834,-22.06697 5.95386,-28.94642c0.52649,-1.1663 1.21314,-2.4885 2.01564,-3.90482c-3.10242,0.88146 -5.95762,1.57774 -8.32295,2.00247l-13.72849,2.37552c-3.06382,0.46387 -9.2032,0.53294 -12.25668,0.00939c-3.04872,-0.52273 -8.8085,-2.62296 -11.54134,-4.07337l-12.18332,-6.79521c-8.97427,-5.0792 -24.81997,-17.84731 -31.6914,-25.53622l-16.18343,-18.33825c-6.62877,-7.58324 -17.38351,-24.08705 -21.92586,-33.58551c-0.06012,-0.11777 -0.11797,-0.23739 -0.17345,-0.35884c-0.01421,-0.03149 -0.02843,-0.0631 -0.04267,-0.09482c0.01402,0.03165 0.02825,0.06325 0.04267,0.09482l-0.15255,-0.33396c-0.05548,-0.12145 -0.10803,-0.24349 -0.15769,-0.36604c-4.20578,-9.6522 -9.63945,-28.58671 -11.03154,-38.56209l-3.81404,-28.3058c-1.32574,-10.07 -1.66121,-30.09546 -0.69556,-40.49993c0.00597,-0.07788 0.01296,-0.15589 0.02098,-0.23405l0.02403,-0.23436c0.00801,-0.07815 0.017,-0.15597 0.02696,-0.23343c1.16596,-10.38393 5.55848,-29.92459 8.90027,-39.51599l15.3568,-43.6489c3.49548,-9.65601 13.88411,-26.92395 20.77726,-34.53588l6.60931,-7.1674c3.48674,-3.64445 11.50413,-9.51117 16.11024,-11.56413c5.50472,-2.45348 16.96011,-1.90577 22.57105,0.33318l2.69815,1.29935c8.09591,4.36188 18.90347,17.51107 21.61512,26.29838l11.07942,42.6904c2.21607,8.70072 8.90405,25.04304 13.49909,33.03043c0.01242,0.02105 0.02476,0.04217 0.03703,0.06336v0c0.01162,0.02028 0.02329,0.0406 0.03499,0.06096c-0.01158,-0.02035 -0.02324,-0.04067 -0.03499,-0.06096l0.15567,0.26879c0.01227,0.02119 0.02444,0.0424 0.03652,0.06365c4.64115,7.96068 15.48746,21.89474 21.93128,28.147l14.88114,14.57023c6.22205,6.16733 20.16804,16.12657 28.24951,20.20399c0.02153,0.01052 0.04304,0.02114 0.06452,0.03185l0.36962,0.18428c0.02149,0.01071 0.04291,0.0215 0.06427,0.03236c8.11999,4.00018 24.46678,9.14407 33.13676,10.4015l60.12656,9.09754c1.8128,0.27429 3.62561,0.54858 3.62561,0.54858z" fill="#d5fcab" stroke-miterlimit="0"/><path d="M441.8811,462.92701c-1.09037,5.45186 -10.45888,6.41754 -15.08429,8.20763c-10.51414,4.06911 -21.88599,11.32846 -30.39042,18.85537c-20.05441,17.74931 -32.16905,41.79343 -49.3567,61.77906c-14.13128,16.43173 -25.93545,6.5619 -28.50488,-11.42413c-0.95291,-6.67037 -0.49699,-13.7427 0.22183,-20.40816c2.90015,-26.89232 23.86894,-76.42708 49.68944,-88.3984c27.57348,-12.78407 79.77804,-12.20015 73.42502,31.38864z" fill="#ffffff" stroke-miterlimit="3"/><path d="M558.1189,462.92702c-6.35302,-43.58879 45.85154,-44.17271 73.42502,-31.38864c25.8205,11.97132 46.78929,61.50608 49.68944,88.3984c0.71882,6.66546 1.17474,13.73779 0.22183,20.40816c-2.56943,17.98603 -14.3736,27.85586 -28.50488,11.42413c-17.18765,-19.98563 -29.30229,-44.02975 -49.3567,-61.77906c-8.50443,-7.52691 -19.87628,-14.78626 -30.39042,-18.85537c-4.62541,-1.79009 -13.99392,-2.75577 -15.08429,-8.20763z" fill="#ffffff" stroke-miterlimit="3"/><path d="M590.79093,395.11361l-90.79093,-10.62195l-90.79093,10.62195l-1.24116,-10.60876c-0.86846,0.14537 -1.68509,0.28979 -2.44008,0.43217l-25.46439,4.76716c-4.04639,0.75657 -12.10458,2.4357 -16.11638,3.35825l-4.09578,0.94089c-1.9629,0.44996 -5.86824,1.43125 -7.81069,1.96258l-4.06222,1.10914l-4.74113,-17.36438l4.06222,-1.10914c2.11977,-0.57781 6.38067,-1.64844 8.5218,-2.14126l4.09578,-0.94089c4.19087,-0.96178 12.60796,-2.71569 16.83418,-3.50782l25.46439,-4.76716c10.01847,-1.86262 30.16173,-4.08531 40.4607,-4.46896c0.02762,-0.0012 0.05527,-0.00227 0.08295,-0.00322l0.09586,-0.00329c-0.00838,0.00029 -0.01676,0.00059 -0.02513,0.0009c0.00838,-0.0003 0.01676,-0.0006 0.02513,-0.0009c0.02768,-0.00095 0.05534,-0.00177 0.08297,-0.00247c10.30104,-0.32324 30.54928,0.51342 40.67187,1.68491l16.39004,1.91753l16.39004,-1.91753c10.12259,-1.17148 30.37083,-2.00815 40.67187,-1.68491c0.02763,0.0007 0.05529,0.00152 0.08297,0.00247c0.00837,0.0003 0.01675,0.0006 0.02513,0.0009c-0.00837,-0.00031 -0.01675,-0.00061 -0.02513,-0.0009l0.09586,0.00329c0.02768,0.00095 0.05533,0.00202 0.08295,0.00322c10.29897,0.38365 30.44223,2.60634 40.4607,4.46896l25.46439,4.76716c4.22622,0.79214 12.64331,2.54605 16.83418,3.50782l4.09578,0.94089c2.14113,0.49282 6.40203,1.56345 8.5218,2.14126l4.06222,1.10914l-4.74113,17.36438l-4.06222,-1.10914c-1.94245,-0.53133 -5.8478,-1.51262 -7.81069,-1.96258l-4.09578,-0.94089c-4.0118,-0.92255 -12.06999,-2.60168 -16.11638,-3.35825l-25.46439,-4.76716c-0.75499,-0.14239 -1.57163,-0.2868 -2.44008,-0.43217zM442.75926,362.77221c0.00837,-0.00028 0.01675,-0.00055 0.02513,-0.00083c-0.00838,0.00026 -0.01675,0.00054 -0.02513,0.00083zM557.2156,362.77138c0.00839,0.00028 0.01676,0.00055 0.02513,0.00083c-0.00838,-0.00029 -0.01676,-0.00056 -0.02513,-0.00083z" fill="#d5fcab" stroke-miterlimit="0"/><path d="M438.37179,460.94727l-0.51157,-3.67818c-0.62069,-5.32927 -4.36819,-15.01851 -7.495,-19.37848l-1.63847,-2.39545c-3.16632,-5.43874 -12.62554,-10.80825 -18.91845,-10.73901l-4.18221,-0.25831c-4.84702,-0.41177 -14.11532,1.21444 -18.62102,3.04455c-4.9149,1.99632 -14.10948,7.0986 -18.36312,10.26866l-16.10063,11.83661c-2.41929,1.73565 -6.67745,5.81388 -8.56971,8.1125c-1.87223,2.27428 -4.98754,7.19732 -6.17098,9.8952l-5.00661,11.01843c-3.81723,8.30749 -9.09125,25.6407 -10.54804,34.66641l-1.64923,9.9505c-0.83232,4.61684 -0.76316,13.83752 0.13832,18.44136l0.18196,1.0042c-0.06568,2.70992 2.53009,5.93425 5.19154,6.44867l3.33664,1.38879c0.85753,0.61492 2.58661,0.50589 3.58025,0.24239c1.79304,-0.47548 5.18242,-1.85038 6.75694,-2.83211l12.16808,-7.2045c7.83992,-4.59239 21.91409,-15.7945 28.14834,-22.40422l39.58564,-41.57768c2.56673,-2.68132 8.0221,-7.69359 10.91075,-10.02454l3.46227,-2.77838c1.01342,-0.80199 2.9898,-2.19351 4.31433,-3.04739zM457.61066,469.85154l-0.49565,1.56319c-1.27093,4.00831 -5.148,6.60233 -9.33799,6.24775c-0.5481,-0.04638 -1.08244,-0.1416 -1.59855,-0.28142c-0.33242,0.24154 -0.63412,0.47054 -0.85533,0.65226l-3.46227,2.77838c-2.43237,1.93903 -7.00239,6.13785 -9.14004,8.39765l-39.58564,41.57768c-7.14766,7.44559 -23.15473,20.18617 -32.01413,25.48115l-12.16808,7.2045c-2.68078,1.53776 -8.32672,3.94993 -11.3137,4.74203c-3.78638,1.00408 -11.40288,0.26234 -15.11089,-1.02303l-3.33664,-1.38879c-6.21354,-3.17957 -14.20671,-13.10827 -15.98632,-19.8574l-0.18196,-1.0042c-1.04543,-6.14096 -1.13766,-18.43789 -0.18447,-24.59384l1.64923,-9.9505c1.72542,-10.17396 7.68452,-29.75869 11.9182,-39.16945l5.00661,-11.01843c1.74057,-3.73723 6.0416,-10.70632 8.6617,-13.88908c2.60007,-3.15842 8.52916,-8.72393 11.80477,-11.17496l16.10063,-11.83661c5.1919,-3.77398 16.30449,-10.02745 22.2512,-12.44287c6.35591,-2.58162 19.65033,-4.64443 26.5044,-4.33348l4.18221,0.25831c10.181,1.08674 26.51393,10.35809 32.66585,18.54269l1.63847,2.39545c4.09232,6.19446 9.32549,19.72493 10.46633,27.06094l1.01683,7.31093c0.90519,2.36494 1.11433,5.84451 0.90523,7.75116z" fill="#d5fcab" stroke-miterlimit="0"/><path d="M542.38934,469.85155c-0.2091,-1.90665 0.00004,-5.38622 0.90523,-7.75116l1.01683,-7.31093c1.14084,-7.33601 6.37401,-20.86648 10.46633,-27.06094l1.63847,-2.39545c6.15192,-8.1846 22.48485,-17.45595 32.66585,-18.54269l4.18221,-0.25831c6.85407,-0.31095 20.14849,1.75186 26.5044,4.33348c5.94671,2.41542 17.0593,8.66889 22.2512,12.44287l16.10063,11.83661c3.27561,2.45103 9.2047,8.01654 11.80477,11.17496c2.6201,3.18276 6.92113,10.15185 8.6617,13.88908l5.00661,11.01843c4.23368,9.41076 10.19278,28.99549 11.9182,39.16945l1.64923,9.9505c0.95319,6.15595 0.86096,18.45288 -0.18447,24.59384l-0.18196,1.0042c-1.77961,6.74913 -9.77278,16.67783 -15.98632,19.8574l-3.33664,1.38879c-3.70801,1.28537 -11.32451,2.02711 -15.11089,1.02303c-2.98698,-0.7921 -8.63292,-3.20427 -11.3137,-4.74203l-12.16808,-7.2045c-8.8594,-5.29498 -24.86647,-18.03556 -32.01413,-25.48115l-39.58564,-41.57768c-2.13765,-2.2598 -6.70767,-6.45862 -9.14004,-8.39765l-3.46227,-2.77838c-0.22121,-0.18172 -0.52291,-0.41072 -0.85533,-0.65226c-0.51611,0.13982 -1.05045,0.23504 -1.59855,0.28142c-4.18999,0.35458 -8.06706,-2.23944 -9.33799,-6.24775l-0.49565,-1.56319zM561.62819,460.94729c1.32453,0.85388 3.30091,2.2454 4.31433,3.04739l3.46227,2.77838c2.88865,2.33095 8.34402,7.34322 10.91075,10.02454l39.58564,41.57768c6.23425,6.60972 20.30842,17.81183 28.14834,22.40422l12.16808,7.2045c1.57452,0.98173 4.9639,2.35663 6.75694,2.83211c0.99364,0.2635 2.72272,0.37253 3.58025,-0.24239l3.33664,-1.38879c2.66145,-0.51442 5.25722,-3.73875 5.19154,-6.44867l0.18196,-1.0042c0.90148,-4.60384 0.97064,-13.82452 0.13832,-18.44136l-1.64923,-9.9505c-1.45679,-9.02571 -6.73081,-26.35892 -10.54804,-34.66641l-5.00661,-11.01843c-1.18344,-2.69788 -4.29875,-7.62092 -6.17098,-9.8952c-1.89226,-2.29862 -6.15042,-6.37685 -8.56971,-8.1125l-16.10063,-11.83661c-4.25364,-3.17006 -13.44822,-8.27234 -18.36312,-10.26866c-4.5057,-1.83011 -13.774,-3.45632 -18.62102,-3.04455l-4.18221,0.25831c-6.29291,-0.06924 -15.75213,5.30027 -18.91845,10.73901l-1.63847,2.39545c-3.12681,4.35997 -6.87431,14.04921 -7.495,19.37848l-0.51157,3.67818z" fill="#d5fcab" stroke-miterlimit="0"/><path d="M458.08158,485.87014c-0.52808,0.55102 -1.63672,1.59792 -2.23275,2.07444c-0.24722,0.19765 -0.73227,0.60395 -0.96833,0.81481l-2.14756,1.9011c-1.31246,1.15995 -3.87557,3.54622 -5.12622,4.77255l-35.36441,34.62049c-7.36825,7.18279 -23.34326,20.00536 -31.95003,25.64515l-6.89085,4.49459c-5.11663,3.31135 -15.87432,8.93023 -21.53158,11.19735c-6.34811,2.54397 -19.59841,3.9113 -26.38217,3.03022l-16.01592,-2.46044c-1.82635,-0.44164 -5.3031,-1.82289 -6.75179,-3.00888c-1.23995,-1.01509 -3.17651,-3.55848 -3.99263,-4.94078l-5.13663,-9.99956c-3.42454,-7.10425 -6.07289,-22.05676 -5.2967,-29.90503l0.07579,-0.60836c0.92705,-7.28058 4.08921,-21.55191 6.32431,-28.54266l6.41334,-19.87302c3.23307,-9.78192 12.82231,-27.67172 19.17848,-35.77961l3.48114,-4.37664c4.55844,-5.61443 15.24823,-15.066 21.45413,-18.77852c6.01106,-3.59596 18.77893,-9.10949 25.49746,-11.09105l19.41383,-5.61375c3.26398,-0.90501 9.91213,-1.96535 13.29808,-2.04615c3.67058,-0.08758 10.80839,1.21392 14.27164,2.43608l9.27327,3.51152c8.90916,3.68887 22.5378,15.78652 27.25727,24.1953l0.46066,0.88298c3.7811,7.38945 8.77534,22.99041 9.98849,31.20192l1.77058,12.6776c-0.04854,2.41002 -0.69494,6.07389 -1.62901,7.64241c-0.93407,1.56852 -3.84749,3.88235 -5.94331,5.07319l-0.01145,0.00428zM446.26022,472.26272c0.37238,-0.51487 1.0432,-1.11219 1.77822,-1.67451l-1.18353,-8.47425c-0.87116,-6.71244 -4.93127,-19.39535 -8.12021,-25.36582l-0.46066,-0.88298c-2.71479,-5.84093 -11.55126,-13.68475 -17.67294,-15.68763l-9.27327,-3.51152c-1.79041,-0.76724 -5.52236,-1.32115 -7.46789,-1.27472c-2.23016,0.05321 -6.59474,0.68737 -8.72738,1.34286l-19.41383,5.61375c-5.62862,1.58877 -16.23787,6.24398 -21.25679,9.24641c-4.82408,2.88588 -13.16516,10.09179 -16.60762,14.53643l-3.48114,4.37664c-5.46747,6.75731 -13.5353,21.80875 -16.13566,30.10288l-6.41334,19.87302c-2.01325,6.17362 -4.80948,18.79346 -5.59245,25.23967l-0.07579,0.60836c-0.84508,5.16606 0.87784,14.89365 3.44585,19.45519l4.45192,8.66661l14.16716,2.17642c4.39019,0.83551 12.80759,-0.28588 16.95324,-1.94722c4.8365,-1.9382 14.04143,-6.70074 18.39366,-9.56549l6.89085,-4.49459c7.88995,-5.12026 22.48583,-16.83586 29.19178,-23.43121l35.36441,-34.62049c1.41394,-1.38222 4.30749,-4.07613 5.78709,-5.38783l2.14756,-1.9011c0.40696,-0.35837 1.23569,-1.05756 1.65923,-1.39617c0.07472,-0.05974 0.2209,-0.17869 0.27688,-0.25725l2.08382,-2.24623c-0.18062,0.21145 -0.52268,0.62202 -0.70915,0.88074z" fill="#d5fcab" stroke-miterlimit="0"/><path d="M553.73976,472.26269c-0.18647,-0.25872 -0.52853,-0.66929 -0.70915,-0.88074l2.08382,2.24623c0.05598,0.07856 0.20216,0.19751 0.27688,0.25725c0.42354,0.33861 1.25227,1.0378 1.65923,1.39617l2.14756,1.9011c1.4796,1.3117 4.37315,4.00561 5.78709,5.38783l35.36441,34.62049c6.70595,6.59535 21.30183,18.31095 29.19178,23.43121l6.89085,4.49459c4.35223,2.86475 13.55716,7.62729 18.39366,9.56549c4.14565,1.66134 12.56305,2.78273 16.95324,1.94722l14.16716,-2.17642l4.45192,-8.66661c2.56801,-4.56154 4.29093,-14.28913 3.44585,-19.45519l-0.07579,-0.60836c-0.78297,-6.44621 -3.5792,-19.06605 -5.59245,-25.23967l-6.41334,-19.87302c-2.60036,-8.29413 -10.66819,-23.34557 -16.13566,-30.10288l-3.48114,-4.37664c-3.44246,-4.44464 -11.78354,-11.65055 -16.60762,-14.53643c-5.01892,-3.00243 -15.62817,-7.65764 -21.25679,-9.24641l-19.41383,-5.61375c-2.13264,-0.65549 -6.49722,-1.28965 -8.72738,-1.34286c-1.94553,-0.04643 -5.67748,0.50748 -7.46789,1.27472l-9.27327,3.51152c-6.12168,2.00288 -14.95815,9.8467 -17.67294,15.68763l-0.46066,0.88298c-3.18894,5.97047 -7.24905,18.65338 -8.12021,25.36582l-1.18353,8.47425c0.73502,0.56232 1.40584,1.15964 1.77822,1.67451zM541.13129,485.02167l-0.01145,-0.00428c-2.09582,-1.19084 -5.00924,-3.50467 -5.94331,-5.07319c-0.93407,-1.56852 -1.58047,-5.23239 -1.62901,-7.64241l1.77058,-12.6776c1.21315,-8.21151 6.20739,-23.81247 9.98849,-31.20192l0.46066,-0.88298c4.71947,-8.40878 18.34811,-20.50643 27.25727,-24.1953l9.27327,-3.51152c3.46325,-1.22216 10.60106,-2.52366 14.27164,-2.43608c3.38595,0.0808 10.0341,1.14114 13.29808,2.04615l19.41383,5.61375c6.71853,1.98156 19.4864,7.49509 25.49746,11.09105c6.2059,3.71252 16.89569,13.16409 21.45413,18.77852l3.48114,4.37664c6.35617,8.10789 15.94541,25.99769 19.17848,35.77961l6.41334,19.87302c2.2351,6.99075 5.39726,21.26208 6.32431,28.54266l0.07579,0.60836c0.77619,7.84827 -1.87216,22.80078 -5.2967,29.90503l-5.13663,9.99956c-0.81612,1.3823 -2.75268,3.92569 -3.99263,4.94078c-1.44869,1.18599 -4.92544,2.56724 -6.75179,3.00888l-16.01592,2.46044c-6.78376,0.88108 -20.03406,-0.48625 -26.38217,-3.03022c-5.65726,-2.26712 -16.41495,-7.886 -21.53158,-11.19735l-6.89085,-4.49459c-8.60677,-5.63979 -24.58178,-18.46236 -31.95003,-25.64515l-35.36441,-34.62049c-1.25065,-1.22633 -3.81376,-3.6126 -5.12622,-4.77255l-2.14756,-1.9011c-0.23606,-0.21086 -0.72111,-0.61716 -0.96833,-0.81481c-0.59603,-0.47652 -1.70467,-1.52342 -2.23275,-2.07444z" fill="#d5fcab" stroke-miterlimit="0"/><path d="M497.38439,730.03207c0.76464,0.35077 1.66255,0.8484 2.61561,1.43634c0.95306,-0.58795 1.85096,-1.08558 2.61561,-1.43634l-2.61561,-4.18119zM694.75945,811.4242c-0.53125,0.5025 -1.05475,0.94798 -1.55307,1.31504c0.57299,-0.38237 1.09247,-0.82472 1.55307,-1.31504zM306.79362,812.73924c-0.49832,-0.36706 -1.02182,-0.81254 -1.55307,-1.31504c0.4606,0.49032 0.98007,0.93267 1.55307,1.31504zM464.18778,703.91922l-81.54703,-11.34834c-10.12818,-1.41923 -30.11713,-5.55133 -39.9779,-8.26419l-7.50925,-2.07356c-6.06602,-1.68507 -17.93693,-5.80727 -23.73427,-8.26222c-2.88315,-1.2209 -6.1399,-1.2105 -9.44086,0.32938c-2.45014,2.94668 -3.89077,6.4153 -2.8825,9.59783l15.48089,104.71179c0.22556,1.54487 0.70519,4.16195 1.14722,6.32494l44.15328,-25.50988c8.90921,-5.11137 27.61474,-13.15663 37.51547,-16.14039c9.92888,-2.8887 30.03077,-6.33609 40.28658,-6.90036l31.72626,-1.64903c-0.08525,-0.21027 -0.15988,-0.40524 -0.22144,-0.57715c-0.06915,-0.30092 -0.14127,-0.67241 -0.21215,-1.08361c0.0469,0.35228 0.11513,0.70556 0.20557,1.05836l-0.00537,-0.02093c-0.09418,-0.36738 -0.16428,-0.73529 -0.21128,-1.10204c-0.24528,-1.43975 -0.47312,-3.33752 -0.50857,-4.40715l-0.04419,-4.49366c0.03635,-1.94668 0.44707,-4.73129 1.04761,-7.52635l-1.87861,-2.3121c-1.69224,-2.30832 -4.17091,-7.37966 -4.67733,-10.19307c-0.45457,-2.52538 0.27712,-6.93229 1.28786,-10.15826zM531.59175,734.10901l-0.04419,4.49366c-0.03545,1.06963 -0.26328,2.9674 -0.50857,4.40715c-0.047,0.36675 -0.1171,0.73465 -0.21128,1.10204l-0.00537,0.02093c0.09044,-0.3528 0.15868,-0.70608 0.20557,-1.05836c-0.07088,0.41119 -0.143,0.78268 -0.21215,1.08361c-0.06155,0.17191 -0.13619,0.36688 -0.22144,0.57715l31.72626,1.64903c10.25582,0.56427 30.35771,4.01166 40.28658,6.90036c9.90073,2.98375 28.60625,11.02902 37.51547,16.14039l44.15328,25.50988c0.44203,-2.163 0.92166,-4.78007 1.14722,-6.32494l15.48089,-104.71179c1.00827,-3.18252 -0.43236,-6.65115 -2.8825,-9.59783c-3.30096,-1.53988 -6.55771,-1.55028 -9.44086,-0.32938c-5.79735,2.45495 -17.66825,6.57715 -23.73427,8.26222l-7.50925,2.07356c-9.86077,2.71286 -29.84972,6.84496 -39.9779,8.26419l-81.54703,11.34834c1.01074,3.22597 1.74243,7.63288 1.28786,10.15826c-0.50642,2.81342 -2.98509,7.88475 -4.67733,10.19307l-1.87861,2.3121c0.60054,2.79505 1.01126,5.57966 1.04761,7.52635zM491.33585,685.88366l4.30891,0.68751c1.22559,0.23551 2.73592,0.66599 4.35523,1.22441c1.61931,-0.55842 3.12964,-0.9889 4.35523,-1.22441l4.30891,-0.68751c3.66636,-0.25394 8.43621,0.66274 12.44283,2.16516c1.27473,-0.3265 2.54084,-0.59403 3.67279,-0.76774l90.09845,-12.53839c9.54675,-1.31879 28.38066,-5.21212 37.66782,-7.78666l7.50925,-2.07356c5.50271,-1.50945 16.25218,-5.26171 21.50648,-7.48669c6.78751,-2.87424 19.27555,-1.47998 26.14927,1.6828c0.39475,0.20288 0.77314,0.43426 1.13232,0.69194c-0.43091,-0.53248 -0.92983,-1.02385 -1.49514,-1.46124l3.77429,2.92022c2.26634,1.7535 3.46583,4.37475 3.49256,7.03369c2.72332,5.94738 4.48855,13.1283 4.09541,18.26749l-15.48089,104.71179c-0.38279,2.56195 -1.35445,7.64646 -1.94333,10.16902l-0.30698,1.30595c-0.70445,1.8562 -2.22437,4.19623 -3.93279,6.25016c-0.96956,1.94721 -2.64358,3.55059 -4.83488,4.39036l-0.78823,0.30207c0.2367,-0.09071 0.46736,-0.19033 0.69176,-0.29833c-0.40229,0.17179 -0.81685,0.31415 -1.24041,0.42581c-3.27532,0.57096 -9.41708,-0.15552 -12.60166,-1.53257l-47.15518,-27.24424c-7.9625,-4.63638 -24.72123,-11.845 -33.63786,-14.4718c-8.91462,-2.65114 -26.89064,-5.73178 -36.09376,-6.17892l-58.18584,-3.02432c-0.942,-0.15202 -2.04377,-0.46247 -3.20043,-0.87981c-1.15665,0.41734 -2.25843,0.72779 -3.20043,0.87981l-58.18584,3.02432c-9.20312,0.44714 -27.17914,3.52778 -36.09376,6.17892c-8.91663,2.6268 -25.67536,9.83542 -33.63786,14.4718l-47.15518,27.24424c-3.18459,1.37706 -9.32634,2.10353 -12.60166,1.53257c-0.42357,-0.11166 -0.83812,-0.25401 -1.24041,-0.42581c0.22439,0.108 0.45506,0.20762 0.69176,0.29833l-0.78823,-0.30207c-2.19131,-0.83977 -3.86533,-2.44315 -4.83488,-4.39036c-1.70842,-2.05393 -3.22834,-4.39396 -3.93279,-6.25016l-0.30698,-1.30595c-0.58888,-2.52256 -1.56054,-7.60708 -1.94333,-10.16902l-15.48089,-104.71179c-0.39314,-5.13919 1.37209,-12.32011 4.09541,-18.26749c0.02673,-2.65894 1.22621,-5.28019 3.49256,-7.03369l3.77429,-2.92022c-0.5653,0.43738 -1.06423,0.92876 -1.49514,1.46124c0.35918,-0.25768 0.73757,-0.48906 1.13232,-0.69194c6.87372,-3.16278 19.36176,-4.55704 26.14927,-1.6828c5.2543,2.22499 16.00376,5.97724 21.50648,7.48669l7.50925,2.07356c9.28716,2.57454 28.12107,6.46786 37.66782,7.78666l90.09845,12.53839c1.13196,0.17371 2.39807,0.44124 3.67279,0.76774c4.00663,-1.50242 8.77647,-2.41909 12.44283,-2.16516z" fill="#d5fcab" stroke-miterlimit="0"/><path d="M376.44189,512.61646c-18.08456,9.78345 -43.87239,-6.1524 -44.08829,-26.23114c-0.37388,-34.77073 51.43339,-65.03972 75.14419,-32.2205c5.46782,7.56827 7.06122,16.95876 9.98225,25.62112c-18.78349,8.6693 -26.81588,25.13651 -41.03815,32.83052z" fill="#000000" stroke-miterlimit="3"/><path d="M582.51996,479.78594c2.92103,-8.66236 4.51443,-18.05285 9.98225,-25.62112c23.7108,-32.81922 75.51807,-2.55023 75.14419,32.2205c-0.2159,20.07874 -26.00373,36.01459 -44.08829,26.23114c-14.22227,-7.69401 -22.25466,-24.16122 -41.03815,-32.83052z" fill="#000000" stroke-miterlimit="3"/><path d="M447.20497,548.55257c-3.82156,-11.94238 11.49411,-12.64506 19.96451,-13.5315c6.47712,-0.67784 19.3473,-1.52708 32.83052,-1.42823c13.48323,-0.09885 26.3534,0.75039 32.83052,1.42823c8.4704,0.88644 23.78607,1.58912 19.96451,13.5315l-4.16127,4.41582c0.27839,6.70986 -3.04731,13.83028 -6.93012,19.31976c-10.69385,15.11889 -24.75762,25.12348 -41.70364,23.30564c-16.94602,1.81785 -31.00979,-8.18675 -41.70364,-23.30564c-3.88281,-5.48949 -7.20852,-12.6099 -6.93012,-19.31976z" fill="#000000" stroke-miterlimit="3"/><path d="M401.06478,623.53039c19.50706,4.87677 40.64627,4.89117 60.44809,1.88554c5.55289,-0.84285 15.35431,-5.63386 20.51908,-5.1575c9.31359,0.85902 7.15039,29.66703 -0.99823,31.00044c-26.80905,4.38693 -12.16246,-19.2132 -27.8394,-24.84472c-20.48987,-7.36044 -10.39062,19.27178 -24.06832,21.18456c-2.44671,0.34216 -4.80049,-1.17093 -7.20941,-1.71917c-3.47104,-0.78996 -15.62963,-1.25651 -17.08075,-6.71029c-1.37882,-5.18207 -1.19509,-10.93574 -3.77107,-15.63886z" fill="#ffffff" stroke-miterlimit="3"/><path d="M598.93523,623.53039c-2.57598,4.70312 -2.39225,10.45679 -3.77107,15.63886c-1.45112,5.45378 -13.60971,5.92033 -17.08075,6.71029c-2.40892,0.54824 -4.7627,2.06133 -7.20941,1.71917c-13.6777,-1.91278 -3.57845,-28.545 -24.06832,-21.18456c-15.67694,5.63152 -1.03035,29.23165 -27.8394,24.84472c-8.14862,-1.33341 -10.31182,-30.14142 -0.99823,-31.00044c5.16477,-0.47636 14.96619,4.31465 20.51908,5.1575c19.80182,3.00563 40.94103,2.99123 60.44809,-1.88554z" fill="#ffffff" stroke-miterlimit="3"/><path d="M437.00089,665.67768c1.83164,-3.66327 5.27668,-11.06575 9.42768,-12.53327c10.68824,-3.77867 21.45817,12.81579 12.31145,20.40816c-5.78539,4.80225 -16.42664,-0.71909 -22.40461,-2.66193c-1.03412,-0.33609 -3.24328,0.08038 -3.10559,-0.99823c0.23872,-1.87 2.51405,-2.80982 3.77107,-4.21473z" fill="#ffffff" stroke-miterlimit="3"/><path d="M566.77018,669.89241c0.13769,1.07861 -2.07147,0.66214 -3.10559,0.99823c-5.97797,1.94284 -16.61922,7.46418 -22.40461,2.66193c-9.14672,-7.59237 1.62321,-24.18683 12.31145,-20.40816c4.151,1.46752 7.59604,8.87 9.42768,12.53327c1.25702,1.40491 3.53235,2.34473 3.77107,4.21473z" fill="#ffffff" stroke-miterlimit="3"/><path d="M476.04259,678.5437c0.12039,-0.57327 2.37188,-11.44615 2.55102,-11.64596c4.19971,-4.68429 14.03845,-1.87656 16.19343,3.38287c1.71295,4.18061 2.59008,11.29849 -3.6047,12.7551c-0.79792,0.18762 -11.43373,-3.25777 -11.92325,-3.38287c-3.76667,-0.96259 -5.05114,0.11395 -3.2165,-1.10914z" fill="#ffffff" stroke-miterlimit="3"/><path d="M520.74091,679.65284c-0.48952,0.1251 -11.12533,3.57049 -11.92325,3.38287c-6.19478,-1.45661 -5.31765,-8.57449 -3.6047,-12.7551c2.15498,-5.25943 11.99372,-8.06716 16.19343,-3.38287c0.17914,0.19981 2.43063,11.07269 2.55102,11.64596c1.83464,1.22309 0.55017,0.14655 -3.2165,1.10914z" fill="#ffffff" stroke-miterlimit="3"/><path d="M379.7693,471.80013c-4.93181,-22.80963 29.79002,-8.88788 18.07897,10.20408c-8.46064,13.79297 -26.83519,-5.20053 -18.07897,-10.20408z" fill="#ffffff" stroke-miterlimit="3"/><path d="M602.15173,482.00421c-11.71105,-19.09196 23.01078,-33.01371 18.07897,-10.20408c8.75622,5.00355 -9.61833,23.99705 -18.07897,10.20408z" fill="#ffffff" stroke-miterlimit="3"/></g></svg>