<svg version="1.1" xmlns="http://www.w3.org/2000/svg" xmlns:xlink="http://www.w3.org/1999/xlink" viewBox="0,0,1000,1000"><g fill="none" fill-rule="nonzero" stroke="#000000" stroke-width="6" stroke-linecap="round" stroke-linejoin="round" stroke-miterlimit="none" stroke-dasharray="" stroke-dashoffset="0" font-family="none" font-weight="none" font-size="none" text-anchor="none" style="mix-blend-mode:normal"><g><g><path d="M317.70907,535.62969l23.15485,45.95432c4.11553,8.24308 14.27707,23.43827 20.32308,30.39038l6.77253,7.8455c2.52537,2.97724 8.28216,8.14603 11.47463,10.39291c3.14317,2.21218 9.87476,5.73816 13.51116,6.98379l9.60967,3.40862c8.56126,3.08096 26.20273,6.74265 35.28294,7.32338l62.16207,4.26158l62.16207,-4.26158c9.08021,-0.58073 26.72168,-4.24241 35.28294,-7.32338l9.60967,-3.40862c3.6364,-1.24563 10.36799,-4.77161 13.51116,-6.98379c3.19247,-2.24688 8.94926,-7.41567 11.47463,-10.39291l6.77253,-7.8455c6.04601,-6.95211 16.20755,-22.1473 20.32308,-30.39038l23.15485,-45.95432l16.07475,8.09953l-23.15485,45.95432c-4.6716,9.19632 -16.05776,26.22277 -22.77232,34.05289l-6.77253,7.8455c-3.29636,3.76683 -10.64702,10.46984 -14.74026,13.35068c-4.14254,2.91554 -13.09335,7.49565 -17.85365,9.22838l-9.60967,3.40862c-9.74089,3.41094 -29.7755,7.56935 -40.06922,8.31682l-4.42426,0.30331l6.69218,0.72031c4.57493,0.49242 8.04165,4.35637 8.03684,8.95772c-0.00207,1.97603 -0.64408,3.81474 -1.73843,5.30787c1.53668,0.09997 3.26632,0.17372 4.32253,0.17402l1.85896,0.00705c0.3722,0.00443 0.93755,-0.01163 1.49391,-0.03869l3.32621,-0.28748c4.93227,-0.42628 9.28276,3.21104 9.73699,8.14081c0.23954,2.59975 -0.65192,5.04411 -2.27074,6.84468l9.41095,0.81336c4.65458,0.40228 8.22741,4.2992 8.22504,8.97113c-0.00236,4.67193 -3.57913,8.56523 -8.23411,8.9628l-4.93428,0.42143c1.81572,1.65193 2.94541,4.03191 2.94606,6.65758c0.00116,4.67282 -3.574,8.56925 -8.22968,8.9692l-18.16809,1.56076c0.20852,0.72259 0.32895,1.48192 0.34929,2.26524c0.10964,4.22229 -2.721,7.89915 -6.71921,8.94128l1.03236,0.15449l-2.66395,17.80178l-2.13813,-0.31996c-1.05691,-0.15818 -3.17157,-0.46873 -4.22933,-0.6211l-2.13976,-0.30827c-2.12765,-0.30654 -6.3846,-0.90796 -8.5139,-1.20283l-46.42064,-6.42901l-46.42064,6.42901c-2.1293,0.29488 -6.38625,0.8963 -8.5139,1.20283l-2.13976,0.30827c-1.05776,0.15237 -3.17243,0.46292 -4.22933,0.6211l-2.13813,0.31996l-2.66395,-17.80178l1.03236,-0.15449c-3.99821,-1.04213 -6.82886,-4.71899 -6.71921,-8.94128c0.02034,-0.78333 0.14077,-1.54265 0.34929,-2.26524l-18.16809,-1.56076c-4.65568,-0.39995 -8.23083,-4.29638 -8.22968,-8.9692c0.00065,-2.62567 1.13034,-5.00565 2.94606,-6.65758l-4.93428,-0.42143c-4.65498,-0.39757 -8.23175,-4.29087 -8.23411,-8.9628c-0.00236,-4.67193 3.57046,-8.56884 8.22504,-8.97113l9.41095,-0.81336c-1.61881,-1.80057 -2.51028,-4.24493 -2.27074,-6.84468c0.45423,-4.92977 4.80473,-8.56709 9.73699,-8.14081l3.32621,0.28748c0.55636,0.02706 1.12171,0.04311 1.49391,0.03869l1.85896,-0.00705c1.05621,-0.0003 2.78584,-0.07405 4.32253,-0.17402c-1.09435,-1.49314 -1.73637,-3.33184 -1.73843,-5.30787c-0.00481,-4.60135 3.46191,-8.4653 8.03684,-8.95772l6.69218,-0.72031l-4.42426,-0.30331c-10.29372,-0.74747 -30.32833,-4.90588 -40.06922,-8.31682l-9.60967,-3.40862c-4.7603,-1.73273 -13.71111,-6.31284 -17.85365,-9.22838c-4.09324,-2.88084 -11.4439,-9.58385 -14.74026,-13.35068l-6.77253,-7.8455c-6.71456,-7.83012 -18.10072,-24.85657 -22.77232,-34.05289l-23.15485,-45.95432z" fill="#e11552" stroke-miterlimit="0"/><path d="M346.78188,398.23369c8.10068,-2.85936 20.61767,-13.08711 25.03397,-20.45551l6.61437,-10.40101l-19.41213,-73.99799c-1.01047,-3.85185 0.63049,-7.90983 4.03433,-9.97663c3.40384,-2.0668 7.76126,-1.65101 10.7128,1.02222l37.64444,34.09488c4.38898,-5.42366 8.84504,-10.57193 12.16145,-13.93652c-0.01631,0.01615 -0.03257,0.03238 -0.04878,0.04868l0.13927,-0.14004c0.03863,-0.03884 0.07752,-0.07725 0.11668,-0.11524c7.38727,-7.32254 23.05643,-19.97773 31.60771,-25.51271l25.06914,-16.13593c3.46375,-2.22947 7.999,-1.8228 11.01086,0.98732c3.01186,2.81012 3.73147,7.30635 1.74711,10.91611l-14.75851,26.84722c5.12761,2.45172 13.15708,6.92953 17.18714,9.62381l4.3583,2.9343l4.3583,-2.9343c4.03006,-2.69428 12.05953,-7.17209 17.18714,-9.62381l-14.75851,-26.84722c-1.98437,-3.60976 -1.26475,-8.10599 1.74711,-10.91611c3.01186,-2.81012 7.54711,-3.21679 11.01086,-0.98732l25.06914,16.13593c8.55127,5.53498 24.22044,18.19018 31.60771,25.51271c0.03915,0.03799 0.07805,0.0764 0.11668,0.11524l0.13927,0.14004c-0.01621,-0.0163 -0.03247,-0.03253 -0.04878,-0.04868c3.31641,3.36459 7.77247,8.51286 12.16145,13.93652l37.64444,-34.09488c2.95154,-2.67323 7.30896,-3.08902 10.7128,-1.02222c3.40384,2.0668 5.0448,6.12478 4.03433,9.97663l-19.41213,73.99799l6.61437,10.40101c4.4163,7.3684 16.93329,17.59615 25.03397,20.45551l8.53343,3.26866l61.47159,-46.8715c3.29661,-2.35473 10.55747,-5.54435 14.52173,-6.37923l0.39018,-0.06954c1.16197,-0.03216 2.48822,0.12386 3.88306,0.42722c2.3809,-2.63374 4.54943,-5.02668 6.27933,-6.92762l61.20456,-67.25511c2.68394,-2.94927 6.98864,-3.78076 10.57789,-2.04321c3.58924,1.73756 5.60717,5.62983 4.95862,9.56444l-0.67913,4.12014c-0.40581,2.38626 -1.54134,7.08041 -2.27108,9.38831l-1.24526,3.86977c-1.3817,4.2536 -4.73503,12.52155 -6.70666,16.53589l-41.73134,84.37969l75.0424,-19.39829c4.24159,-1.09644 8.6565,1.02064 10.45713,5.01451c1.80063,3.99387 0.46381,8.70411 -3.16638,11.15665l-60.719,41.02147c-6.2097,4.16141 -19.37632,11.0576 -26.33323,13.79239l-4.90342,1.90635c-6.05386,1.51777 -15.85371,-0.45388 -20.76338,-3.95383c-1.04884,-0.8876 -1.88052,-2.00356 -2.43131,-3.26234c-1.01555,-2.71439 -1.552,-6.47398 -1.57218,-10.23067c-0.43919,0.69871 -0.87121,1.35242 -1.29318,1.95431l-0.83706,1.16733c-2.47882,3.37094 -6.61581,7.7171 -11.13536,11.85954l143.60292,116.01984c3.66283,2.95928 4.42534,8.24177 1.7489,12.11609c-2.67643,3.87432 -7.88691,5.0306 -11.95093,2.65207l-136.45926,-79.86479l47.26125,70.76537c2.48062,3.7143 1.86191,8.68592 -1.45343,11.67891c-3.31534,2.99299 -8.32413,3.10172 -11.76623,0.25542l-95.05246,-78.59984c-1.40931,2.55267 -4.02284,4.35018 -7.09625,4.61963l-2.3091,0.20244l35.76038,87.04138c1.74255,4.2414 0.0177,9.1148 -4.00498,11.31571c-4.02268,2.2009 -9.05694,1.02556 -11.6892,-2.72906l-64.32195,-91.74812l-7.6537,0.671c0.5921,0.79572 1.1628,1.52882 1.7044,2.18606l13.04954,16.03342c2.57066,3.15847 2.70013,7.64955 0.31568,10.95086c-2.38445,3.30131 -6.68857,4.59013 -10.495,3.1426l-2.33426,-0.88769c-1.14892,-0.43696 -3.45052,-1.30085 -4.6032,-1.72778l-2.34164,-0.86738c-2.32351,-0.86071 -6.97792,-2.5619 -9.30882,-3.4024l-5.70919,-2.05877c-4.92707,-1.78673 -14.97454,-4.69149 -20.09494,-5.80952l-8.52971,-1.87849c-9.41566,-2.08324 -28.43865,-4.99931 -38.04598,-5.83214l-12.97286,-1.13733l-12.97286,1.13733c-9.60733,0.83284 -28.63032,3.74891 -38.04598,5.83214l-8.52971,1.87849c-5.1204,1.11803 -15.16787,4.02279 -20.09494,5.80952l-5.70919,2.05877c-2.3309,0.84049 -6.98531,2.54169 -9.30882,3.4024l-2.34164,0.86738c-1.15268,0.42693 -3.45428,1.29081 -4.6032,1.72778l-2.33426,0.88769c-3.80643,1.44753 -8.11055,0.15871 -10.495,-3.1426c-2.38445,-3.30131 -2.25498,-7.79239 0.31568,-10.95086l13.04954,-16.03342c0.54159,-0.65724 1.11229,-1.39034 1.7044,-2.18606l-7.6537,-0.671l-64.32195,91.74812c-2.63226,3.75462 -7.66651,4.92996 -11.6892,2.72906c-4.02268,-2.2009 -5.74753,-7.0743 -4.00498,-11.31571l35.76038,-87.04138l-2.3091,-0.20244c-3.07341,-0.26945 -5.68694,-2.06696 -7.09625,-4.61963l-95.05246,78.59984c-3.4421,2.84631 -8.45089,2.73758 -11.76623,-0.25542c-3.31534,-2.99299 -3.93405,-7.96461 -1.45343,-11.67891l47.26125,-70.76537l-136.45926,79.86479c-4.06402,2.37853 -9.2745,1.22226 -11.95093,-2.65207c-2.67643,-3.87432 -1.91393,-9.15681 1.7489,-12.11609l143.60292,-116.01984c-4.51955,-4.14243 -8.65654,-8.4886 -11.13536,-11.85954l-0.83706,-1.16733c-0.42197,-0.60189 -0.85399,-1.2556 -1.29318,-1.95431c-0.02018,3.75668 -0.55664,7.51627 -1.57218,10.23067c-0.55078,1.25878 -1.38247,2.37474 -2.43131,3.26234c-4.90967,3.49995 -14.70953,5.4716 -20.76338,3.95383l-4.90342,-1.90635c-6.95692,-2.73478 -20.12353,-9.63097 -26.33323,-13.79239l-60.719,-41.02147c-3.63019,-2.45254 -4.96701,-7.16278 -3.16638,-11.15665c1.80063,-3.99387 6.21554,-6.11095 10.45713,-5.01451l75.0424,19.39829l-41.73134,-84.37969c-1.97163,-4.01434 -5.32495,-12.28229 -6.70666,-16.53589l-1.24526,-3.86977c-0.72973,-2.3079 -1.86527,-7.00205 -2.27108,-9.38831l-0.67913,-4.12014c-0.64855,-3.93461 1.36937,-7.82688 4.95862,-9.56444c3.58924,-1.73756 7.89394,-0.90607 10.57789,2.04321l61.20456,67.25511c1.7299,1.90094 3.89843,4.29388 6.27933,6.92762c1.39484,-0.30335 2.72109,-0.45938 3.88306,-0.42722l0.39018,0.06954c3.96426,0.83488 11.22512,4.0245 14.52173,6.37923l61.47159,46.8715zM398.06856,336.49614c0.6978,-1.09112 1.51037,-2.29824 2.4122,-3.58948l-16.37487,-14.83086l7.49874,28.58479zM464.78713,342.06564c1.50301,-1.44924 3.35961,-3.13741 5.43474,-4.95514l-5.41505,-10.80531l-14.89159,27.08931l1.6336,1.47957zM601.46839,444.0026c-0.28797,1.08169 -0.62385,2.5811 -0.94902,4.1887l44.49332,-33.92573c-9.36822,-4.41426 -22.51069,-14.94897 -29.56626,-23.5465zM757.88479,371.29071l-5.14833,28.11687l38.84671,-78.54704l-29.97306,32.93614c-1.42972,1.57104 -3.16041,3.47968 -5.06317,5.58282c1.06311,3.84959 1.68479,8.84523 1.33786,11.91121zM709.29702,463.11831c-2.6504,1.47458 -6.32922,3.19575 -10.35643,4.90231l64.95667,38.01684l-53.73782,-43.41592c-0.29369,0.17463 -0.58135,0.3404 -0.86242,0.49677zM677.09635,475.74387l-2.81428,0.68758c-4.51478,1.08435 -11.11793,2.1174 -17.95601,2.90276l63.55116,52.5511l-34.87092,-52.21303c-1.18014,-1.76705 -1.66266,-3.82848 -1.47724,-5.82923c-2.39524,0.78792 -4.59469,1.44274 -6.43271,1.90083zM581.27847,479.25583l0.79111,0.14967l-0.09095,-0.12973zM286.8947,437.59195c-1.29994,-2.42612 -2.83247,-4.25989 -5.05429,-4.85537c1.48371,1.63655 3.2127,3.35958 5.0411,5.04496c0.00464,-0.06295 0.00903,-0.12615 0.01318,-0.18958zM304.6971,401.11669c2.09859,2.403 5.04901,3.88718 9.86414,5.08369c0.08034,0.01996 0.16029,0.0397 0.23986,0.0592l-16.88695,-12.87613c2.5899,2.94436 4.95112,5.63571 6.78295,7.73324zM332.09619,423.13424c-6.218,2.03662 -15.08141,2.22323 -21.87577,0.5349c-6.79436,-1.68833 -14.78225,-5.78999 -19.08096,-10.71224c-6.38217,-7.30791 -19.22087,-21.85814 -25.67748,-29.10036l-0.36453,-0.40889c-0.91431,-1.02559 -1.95599,-2.19113 -3.09014,-3.45788l3.32423,18.15477c0.58759,3.46629 2.06243,8.1361 3.94091,12.87061l15.86123,4.10009c6.81427,2.33517 15.5267,10.21358 18.91384,16.73392c0.56403,1.21282 0.85064,2.5361 0.83899,3.87361c-0.19716,3.75115 -1.51453,8.40132 -3.45499,12.71169c7.07203,3.5797 19.1022,8.23872 25.7442,9.82373l2.81428,0.68758c8.17567,2.03587 24.1329,3.81568 33.6993,3.83755l9.14288,-7.56034c1.12105,-0.927 2.41365,-1.54336 3.76318,-1.84586l-41.2803,-31.47583zM238.3899,353.79668l-29.97306,-32.93614l38.84671,78.54704l-5.14833,-28.11687c-0.34692,-3.06598 0.27476,-8.06162 1.33786,-11.91121c-1.90277,-2.10314 -3.63346,-4.01178 -5.06317,-5.58282zM236.10274,506.03747l64.95667,-38.01684c-4.0272,-1.70656 -7.70603,-3.42773 -10.35643,-4.90231c-0.28107,-0.15637 -0.56873,-0.32214 -0.86242,-0.49677zM314.99369,479.67228l-34.87092,52.21303l63.55116,-52.5511c-6.83808,-0.78535 -13.44123,-1.81841 -17.95601,-2.90276l-2.81428,-0.68758c-1.83802,-0.45809 -4.03748,-1.11291 -6.43271,-1.90083c0.18541,2.00075 -0.2971,4.06217 -1.47724,5.82923zM360.35196,530.17867l11.91839,-17.00026l-4.76241,-0.41752zM426.54655,435.75943c2.31345,-3.29988 6.53856,-4.65958 10.34237,-3.32832c3.80381,1.33126 6.25896,5.02891 6.00979,9.05124l-0.99751,16.10268c-0.0627,0.91989 -0.16014,1.93036 -0.28798,3.0117l21.03671,-0.59899c1.60986,-1.28444 3.66313,-2.02268 5.86768,-1.95991l31.4824,0.89642l31.4824,-0.89642c2.20455,-0.06277 4.25782,0.67547 5.86768,1.95991l21.03671,0.59899c-0.12784,-1.08133 -0.22529,-2.0918 -0.28798,-3.0117l-0.99751,-16.10268c-0.24917,-4.02233 2.20597,-7.71998 6.00979,-9.05124c3.80381,-1.33126 8.02892,0.02845 10.34237,3.32832l8.76034,12.49565c0.57232,-3.19925 1.28964,-6.68162 1.84373,-8.81992l5.91116,-22.53303c-2.14677,-0.08472 -4.26045,-0.93487 -5.90387,-2.52492l-36.01966,-34.85002l-25.05852,22.69571l7.55237,15.07016c0.98926,1.99358 2.7282,6.08263 3.47788,8.1781l0.63952,1.81003c0.41122,1.19023 1.0993,3.60891 1.37615,4.83737l0.41686,1.91171c0.83357,3.82277 -0.89816,7.74616 -4.28429,9.70641c-3.38613,1.96025 -7.65081,1.50823 -10.55078,-1.11829l-21.61435,-19.5763l-21.61435,19.5763c-2.89997,2.62652 -7.16465,3.07855 -10.55078,1.11829c-3.38613,-1.96025 -5.11786,-5.88364 -4.28429,-9.70641l0.41686,-1.91171c0.27685,-1.22845 0.96493,-3.64714 1.37615,-4.83737l0.63952,-1.81003c0.74968,-2.09547 2.48862,-6.18452 3.47788,-8.1781l7.55237,-15.07016l-25.05852,-22.69571l-36.01966,34.85002c-1.64342,1.59005 -3.7571,2.4402 -5.90387,2.52492l5.91116,22.53303c0.55409,2.1383 1.27141,5.62068 1.84373,8.81992zM419.05469,520.50262c2.58951,-0.81618 5.52852,-1.68876 8.37081,-2.48875l-6.4356,-0.56421c-0.64736,1.04225 -1.29433,2.06316 -1.93521,3.05296zM615.89411,318.0758l-16.37487,14.83086c0.90184,1.29124 1.7144,2.49836 2.4122,3.58948l6.46393,10.16444zM515.58021,325.26581c-0.02274,0.01452 -0.04539,0.02901 -0.06795,0.04346c0.01104,0.00868 0.02208,0.01737 0.03312,0.02605zM477.30329,355.00186l-12.38404,11.9819l20.46513,18.53544l4.54869,-9.07656l-11.35387,-22.65575c-0.45058,0.42166 -0.87688,0.82746 -1.27591,1.21497zM436.43243,317.17663c-0.0027,0.00272 -0.0054,0.00544 -0.00811,0.00816c-0.01792,0.01801 -0.04753,0.04781 -0.06885,0.06929c-0.00025,0.00025 -0.0005,0.00051 -0.00076,0.00076c-0.00003,0.00003 -0.00006,0.00006 -0.00009,0.00009c-0.0032,0.00322 -0.0062,0.00624 -0.00893,0.009c-0.01488,0.01492 -0.02858,0.02866 -0.04269,0.04284c-3.16654,3.18386 -7.43981,8.12465 -11.57935,13.27151l11.47861,10.39627l19.07654,-34.70216c-0.31724,-2.18567 0.17966,-4.43416 1.42329,-6.29439c-7.27773,5.51497 -15.63639,12.54316 -20.26967,17.19863zM413.25741,346.15527l-15.42308,24.25259l7.16774,27.32302l22.28752,-40.54324l-13.34973,-12.09096c-0.23917,0.3644 -0.46696,0.71765 -0.68244,1.0586zM611.93648,462.12147l0.49534,0.0141c0.00039,-0.13337 0.00375,-0.26656 0.01005,-0.39946zM670.01,458.94576l2.81428,-0.68758c6.64201,-1.58501 18.67217,-6.24403 25.7442,-9.82373c-1.94046,-4.31037 -3.25783,-8.96054 -3.45499,-12.71169c-0.01165,-1.3375 0.27496,-2.66079 0.83899,-3.87361c3.38714,-6.52034 12.09956,-14.39875 18.91384,-16.73392l15.86123,-4.10009c1.87848,-4.73451 3.35333,-9.40433 3.94091,-12.87061l3.32423,-18.15477c-1.13415,1.26676 -2.17582,2.4323 -3.09014,3.45788l-0.36453,0.40889c-6.45661,7.24223 -19.29531,21.79245 -25.67748,29.10036c-4.29872,4.92225 -12.2866,9.02391 -19.08096,10.71224c-6.79436,1.68833 -15.65777,1.50172 -21.87577,-0.5349l-3.21886,-1.23296l-41.2803,31.47583c1.34953,0.3025 2.64213,0.91886 3.76318,1.84586l9.14288,7.56034c9.5664,-0.02187 25.52362,-1.80168 33.6993,-3.83755zM198.62759,411.34527l17.42985,11.77553c5.34717,3.64636 16.7367,9.61177 22.77905,11.93084l4.90342,1.90635c0.77185,1.13592 0.65884,0.68529 1.01055,0.61782c0.50032,-1.42823 0.74534,-2.36163 -0.40231,-3.45969l-6.21056,-12.55759zM258.44932,449.97655c0.39242,-0.53882 0.71631,-1.10662 0.97328,-1.693c0.47924,-0.4245 0.92028,-0.90698 1.31271,-1.4458zM685.43876,406.20039c4.81512,-1.19651 7.76554,-2.6807 9.86414,-5.08369c1.83183,-2.09754 4.19305,-4.78889 6.78295,-7.73324l-16.88695,12.87613c0.07957,-0.0195 0.15952,-0.03923 0.23986,-0.0592zM713.1053,437.59195c0.00415,0.06343 0.00854,0.12663 0.01318,0.18958c1.82841,-1.68538 3.55739,-3.40841 5.0411,-5.04496c-2.22182,0.59548 -3.75434,2.42926 -5.05429,4.85537zM418.72153,479.25583l-0.70016,0.01994l-0.09095,0.12973zM399.48064,448.19131c-0.32517,-1.60761 -0.66106,-3.10701 -0.94902,-4.1887l-13.97804,-53.28352c-7.05557,8.59753 -20.19804,19.13224 -29.56626,23.5465zM535.21287,342.06564l13.2383,12.80842l1.6336,-1.47957l-14.89159,-27.08931l-5.41505,10.80531c2.07512,1.81773 3.93172,3.50591 5.43474,4.95514zM586.74259,346.15527c-0.21548,-0.34095 -0.44327,-0.69421 -0.68244,-1.0586l-13.34973,12.09096l22.28752,40.54324l7.16774,-27.32302zM563.69698,317.30677c-0.01411,-0.01418 -0.02781,-0.02793 -0.04269,-0.04284c-0.00273,-0.00276 -0.00573,-0.00578 -0.00893,-0.009c-0.00003,-0.00003 -0.00006,-0.00006 -0.00009,-0.00009c-0.00025,-0.00025 -0.0005,-0.00051 -0.00076,-0.00076c-0.02132,-0.02148 -0.05093,-0.05128 -0.06885,-0.06929c-0.0027,-0.00272 -0.00541,-0.00544 -0.00811,-0.00816c-4.63328,-4.65547 -12.99194,-11.68366 -20.26967,-17.19863c1.24363,1.86023 1.74053,4.10872 1.42329,6.29439l19.07654,34.70216l11.47861,-10.39627c-4.13954,-5.14686 -8.41282,-10.08765 -11.57935,-13.27151zM522.69671,355.00186c-0.39903,-0.38751 -0.82534,-0.79331 -1.27591,-1.21497l-11.35387,22.65575l4.54869,9.07656l20.46513,-18.53544zM484.41979,325.26581l0.03484,0.06951c0.01104,-0.00869 0.02208,-0.01737 0.03312,-0.02605c-0.02256,-0.01445 -0.04521,-0.02894 -0.06795,-0.04346zM580.94531,520.50262c-0.64088,-0.98979 -1.28785,-2.0107 -1.93521,-3.05296l-6.4356,0.56421c2.84229,0.79998 5.7813,1.67256 8.37081,2.48875zM639.64804,530.17867l-7.15598,-17.41778l-4.76241,0.41752zM388.06352,462.12147l-0.50539,-0.38536c0.0063,0.1329 0.00966,0.26609 0.01005,0.39946zM761.86241,421.55852l-6.21056,12.55759c-1.14764,1.09806 -0.90263,2.03146 -0.40231,3.45969c0.3517,0.06748 0.2387,0.5181 1.01055,-0.61782l4.90342,-1.90635c6.04236,-2.31906 17.43188,-8.28448 22.77905,-11.93084l17.42985,-11.77553zM739.26469,446.83776c0.39242,0.53882 0.83346,1.0213 1.31271,1.4458c0.25698,0.58638 0.58086,1.15418 0.97328,1.693zM500,396.53041l-0.76739,1.53126l0.76739,0.69503l0.76739,-0.69503zM619.16999,480.33473l-14.76074,-0.42029l3.00469,4.28586l14.46879,2.7373zM380.83001,480.33473l-2.71275,6.60287l14.46879,-2.7373l3.00469,-4.28586zM433.0787,494.85894c-0.67446,1.61923 -1.50813,3.43234 -2.45828,5.366l69.37958,6.08252l69.37958,-6.08252c-0.95014,-1.93366 -1.78382,-3.74676 -2.45828,-5.366l-66.9213,-12.6606zM500,356.35488l7.3246,-14.61566c-2.49883,-2.00577 -4.998,-3.95514 -7.3246,-5.70807c-2.3266,1.75293 -4.82577,3.70231 -7.3246,5.70807z" fill="#09c473" stroke-miterlimit="0"/><path d="M459.9346,278.39556c0,0 -24.95633,-33.72867 -25.48137,-34.43826l4.66724,50.8192c0.17743,2.40564 1.26591,7.0448 2.17696,9.27832l1.02459,2.64683c0.29952,0.89377 1.20128,2.51269 1.80353,3.23783l1.88645,2.49655c2.89507,3.83137 2.27214,9.2608 -1.41545,12.33692c-3.68759,3.07612 -9.14071,2.71522 -12.39075,-0.82004l-5.38756,-5.86038l4.53241,8.67916c2.40535,4.60858 7.00438,13.93017 9.19806,18.64318l1.89738,4.07885c2.41173,2.00499 4.7684,4.46639 5.92399,6.34889l0.41735,0.82541c1.03362,2.71183 1.59393,8.28693 1.12063,11.15021l-0.67091,2.44503c-1.01902,3.71369 -4.28789,6.36754 -8.13171,6.6018c-3.84382,0.23426 -7.41077,-2.003 -8.87323,-5.56546l-1.93664,-4.71754c-0.46968,-1.14569 -1.20395,-2.85945 -1.94859,-4.56032l-103.33686,-39.69082l27.66945,35.68115c2.44055,3.20347 6.52485,10.08344 8.1686,13.75993l1.05437,2.41349c0.74872,2.60427 1.11724,6.53667 0.64773,8.92221c-0.04363,2.71569 -1.31116,5.38022 -3.66825,7.11321l-1.60468,1.1798c0.27118,-0.19938 0.52794,-0.41109 0.77008,-0.63379c0.28478,-0.1647 0.56343,-0.34663 0.83461,-0.54601c-0.17368,0.09177 -0.35548,0.18085 -0.54472,0.26719c0.67107,-0.67498 1.21706,-1.43874 1.63288,-2.25805c-0.61224,0.85588 -1.27708,1.67828 -1.93113,2.38928c-1.39188,0.59083 -3.13854,1.043 -4.99807,1.33627c1.59492,0.09138 3.22152,-0.23928 4.70018,-1.01941c-0.15608,0.16232 -0.31098,0.31752 -0.46382,0.46452c-2.71695,1.99757 -6.18353,2.24424 -9.05145,0.94576c-2.22634,0.01179 -4.32367,-0.22396 -5.88862,-0.741l-119.99766,-60.50171l3.311,9.59139c3.01283,8.79881 10.75998,25.51324 15.58311,33.63934c0.0101,0.01673 0.02015,0.03351 0.03015,0.05033v0l0.08994,0.15124c0.01,0.01682 0.01995,0.03366 0.02983,0.05052c4.83726,8.1177 15.82467,22.90511 22.11735,29.75335l44.06274,48.19391c3.01852,3.30153 3.15399,8.31895 0.31801,11.77855c-2.83598,3.4596 -7.78247,4.31112 -11.61204,1.99897l-84.46067,-50.99409l22.34085,20.4689c6.53503,5.99675 20.234,17.22282 27.39793,22.45214l7.28676,5.32761c3.49346,2.56268 10.74824,7.27574 14.50956,9.42611l7.94642,4.55971c3.47142,1.99193 5.21036,6.03695 4.2674,9.92661c-0.27053,1.11594 -0.74317,2.14215 -1.37409,3.04255l11.0041,-2.27546c3.79869,-0.7855 7.67328,0.95127 9.61448,4.30966c1.9412,3.35839 1.5122,7.5827 -1.06452,10.48228l-41.48656,46.68472l121.07741,-74.55164c2.28326,-1.35758 7.10675,-3.49201 9.64699,-4.26885l0.93137,-0.26913c1.646,-0.16938 3.81792,0.09056 6.02291,0.63217c2.84615,-0.29843 5.78648,0.76249 7.78691,3.10197c0.02528,0.03818 0.05054,0.07696 0.07577,0.11633c-1.65327,-1.70396 -3.84172,-2.62295 -6.0708,-2.71831c2.41704,0.75559 4.71114,1.80642 6.21669,2.9531c0.6722,1.11442 1.31666,2.63214 1.85512,4.27095c-0.2001,-1.46455 -0.7627,-2.895 -1.69888,-4.14934c0.02854,0.02271 0.05676,0.04546 0.08467,0.06824c1.46714,1.71581 2.17637,3.82424 2.15957,5.91737c0.60633,2.27509 0.96853,4.58221 0.89561,6.23234l-3.93873,23.41898l4.49594,-9.55087c2.17959,-3.89775 7.0714,-8.49215 12.11773,-11.81381c1.31004,-1.83619 3.30752,-3.18496 5.7013,-3.62429c0.43425,-0.04663 0.88672,-0.07942 1.35315,-0.09885c-0.29973,0.11362 -0.59084,0.24236 -0.87261,0.38516c0.34926,-0.14206 0.69358,-0.27274 1.03193,-0.39126c0.27736,-0.00969 0.55943,-0.01474 0.84532,-0.01525c-0.23716,-0.01923 -0.47629,-0.02908 -0.71693,-0.02924c0.44051,-0.15094 0.8706,-0.2809 1.28795,-0.3881c-0.49885,0.09156 -0.98049,0.2226 -1.44228,0.38933c-0.4909,0.00813 -0.98769,0.05665 -1.48653,0.1482l2.92882,-0.53753c2.26382,-0.41549 4.48513,0.05525 6.30698,1.16596c1.64995,0.35705 3.20839,0.83365 4.51949,1.41199c3.77451,1.66498 8.30841,5.41241 10.78113,8.78284l1.48011,2.36916c2.87717,-0.59409 5.73366,-0.84316 7.81939,-0.56941l1.78953,0.41995c6.72856,2.06616 16.71499,10.37163 19.97285,16.61094l4.79075,10.90973l4.79075,-10.90973c3.25786,-6.2393 13.24429,-14.54477 19.97285,-16.61094l1.78953,-0.41995c2.08573,-0.27376 4.94222,-0.02468 7.81939,0.56941l1.48011,-2.36916c2.47272,-3.37043 7.00661,-7.11787 10.78113,-8.78284c1.3111,-0.57834 2.86954,-1.05494 4.51949,-1.41199c1.82185,-1.11071 4.04315,-1.58144 6.30698,-1.16596l2.92882,0.53753c-0.49885,-0.09156 -0.99563,-0.14008 -1.48653,-0.1482c-0.46179,-0.16673 -0.94343,-0.29777 -1.44228,-0.38933c0.41736,0.1072 0.84744,0.23716 1.28795,0.3881c-0.24065,0.00016 -0.47977,0.01001 -0.71693,0.02924c0.2859,0.00051 0.56796,0.00556 0.84532,0.01525c0.33835,0.11851 0.68267,0.2492 1.03193,0.39126c-0.28177,-0.1428 -0.57288,-0.27154 -0.87261,-0.38516c0.46643,0.01943 0.91889,0.05222 1.35315,0.09885c2.39379,0.43934 4.39126,1.78811 5.7013,3.62429c5.04633,3.32166 9.93814,7.91606 12.11773,11.81381l4.49594,9.55087l-3.93873,-23.41898c-0.07292,-1.65013 0.28928,-3.95725 0.89561,-6.23234c-0.0168,-2.09312 0.69243,-4.20156 2.15957,-5.91737c0.0279,-0.02278 0.05613,-0.04552 0.08467,-0.06824c-0.93619,1.25434 -1.49879,2.68479 -1.69888,4.14934c0.53847,-1.6388 1.18292,-3.15653 1.85512,-4.27095c1.50555,-1.14669 3.79965,-2.19751 6.21669,-2.9531c-2.22908,0.09536 -4.41753,1.01434 -6.0708,2.71831c0.02523,-0.03937 0.05049,-0.07816 0.07577,-0.11633c2.00042,-2.33948 4.94076,-3.4004 7.78691,-3.10197c2.20499,-0.54161 4.3769,-0.80155 6.02291,-0.63217l0.93137,0.26913c2.54024,0.77684 7.36373,2.91127 9.64699,4.26885l121.07741,74.55164l-41.48656,-46.68472c-2.57672,-2.89958 -3.00572,-7.12389 -1.06452,-10.48228c1.9412,-3.35839 5.81579,-5.09516 9.61448,-4.30966l11.0041,2.27546c-0.63092,-0.9004 -1.10355,-1.92661 -1.37409,-3.04255c-0.94296,-3.88965 0.79598,-7.93468 4.2674,-9.92661l7.94642,-4.55971c3.76132,-2.15037 11.0161,-6.86343 14.50956,-9.42611l7.28676,-5.32761c7.16393,-5.22932 20.8629,-16.45539 27.39793,-22.45214l22.34085,-20.4689l-84.46067,50.99409c-3.82957,2.31214 -8.77606,1.46062 -11.61204,-1.99897c-2.83598,-3.4596 -2.70052,-8.47702 0.31801,-11.77855l44.06274,-48.19391c6.29268,-6.84824 17.28008,-21.63565 22.11735,-29.75335c0.00988,-0.01686 0.01982,-0.0337 0.02983,-0.05052l0.08994,-0.15124v0c0.01,-0.01682 0.02005,-0.0336 0.03015,-0.05033c4.82314,-8.1261 12.57029,-24.84053 15.58311,-33.63934l3.311,-9.59139l-119.99766,60.50171c-1.56495,0.51704 -3.66228,0.75279 -5.88862,0.741c-2.86792,1.29848 -6.3345,1.05181 -9.05145,-0.94576c-0.15284,-0.147 -0.30774,-0.3022 -0.46382,-0.46452c1.47865,0.78013 3.10526,1.11079 4.70018,1.01941c-1.85953,-0.29327 -3.60619,-0.74544 -4.99807,-1.33627c-0.65405,-0.711 -1.31889,-1.5334 -1.93113,-2.38928c0.41582,0.8193 0.96181,1.58307 1.63288,2.25805c-0.18924,-0.08634 -0.37104,-0.17542 -0.54472,-0.26719c0.27118,0.19938 0.54983,0.38132 0.83461,0.54601c0.24213,0.2227 0.49889,0.43441 0.77008,0.63379l-1.60468,-1.1798c-2.35709,-1.73299 -3.62461,-4.39751 -3.66825,-7.11321c-0.46951,-2.38554 -0.10099,-6.31795 0.64773,-8.92221l1.05437,-2.41349c1.64375,-3.67649 5.72805,-10.55646 8.1686,-13.75993l27.66945,-35.68115l-103.33686,39.69082c-0.74464,1.70088 -1.47891,3.41463 -1.94859,4.56032l-1.93664,4.71754c-1.46245,3.56246 -5.02941,5.79971 -8.87323,5.56546c-3.84382,-0.23426 -7.11269,-2.88812 -8.13171,-6.6018l-0.67091,-2.44503c-0.4733,-2.86328 0.08701,-8.43838 1.12063,-11.15021l0.41735,-0.82541c1.15559,-1.8825 3.51225,-4.3439 5.92399,-6.34889l1.89738,-4.07885c2.19368,-4.71301 6.79271,-14.0346 9.19806,-18.64318l4.53241,-8.67916l-5.38756,5.86038c-3.25004,3.53526 -8.70316,3.89616 -12.39075,0.82004c-3.68759,-3.07612 -4.31052,-8.50555 -1.41545,-12.33692l1.88645,-2.49655c0.60224,-0.72515 1.50401,-2.34406 1.80353,-3.23783l1.02459,-2.64683c0.91105,-2.23351 1.99953,-6.87267 2.17696,-9.27832l4.66724,-50.8192c-0.52503,0.70959 -25.48137,34.43826 -25.48137,34.43826l-14.46975,-10.70637c0,0 44.09644,-59.59668 44.62148,-60.30627c2.40118,-3.24521 6.66949,-4.49452 10.44152,-3.05618c3.77203,1.43835 6.12483,5.21242 5.75563,9.23246l-6.48352,70.59568l26.2081,-28.50814c3.05631,-3.32454 8.10313,-3.86938 11.79857,-1.27376c3.69544,2.59563 4.89517,7.52795 2.80475,11.53092l-36.13745,69.19996c-0.48685,0.93173 -1.06701,2.06419 -1.69926,3.31382l115.72523,-44.44909c3.77003,-1.44804 8.04302,-0.20746 10.45144,3.03436c2.40843,3.24182 2.3625,7.69102 -0.11233,10.88243l-47.42513,61.1571c-0.17339,0.21822 -0.35716,0.46098 -0.54874,0.72395l128.35271,-64.71425c3.27087,-1.64914 7.21491,-1.15134 9.97343,1.25881c2.75852,2.41015 3.78108,6.25172 2.58577,9.71431l-10.54376,30.54343c-3.34431,9.61692 -11.81622,27.9006 -17.07317,36.87263c-0.0275,0.04821 -0.05549,0.09628 -0.08398,0.14418l-0.08994,0.15124c0.00808,-0.01359 0.01612,-0.02719 0.02412,-0.0408c-0.00805,0.01362 -0.01609,0.02722 -0.02412,0.0408v0c-0.02849,0.04791 -0.05735,0.09545 -0.08659,0.14263c-5.37341,8.90276 -17.39363,25.07622 -24.24687,32.60633l-2.02882,2.21904l89.92341,-54.29228c2.10559,-1.27082 6.34901,-3.75742 8.48685,-4.97321l2.08551,-1.18559c1.09517,-0.62214 3.30108,-1.83815 4.41184,-2.43202l2.11768,-1.13138c3.99989,-2.13696 8.96491,-0.96412 11.58578,2.73679c2.62087,3.70091 2.07879,8.7737 -1.26492,11.83724l-87.09102,79.79364c-6.91034,6.32203 -21.3773,18.17746 -28.93391,23.71085l-6.70407,4.90158l78.82399,3.56993c8.89415,0.43769 26.3204,3.425 34.85251,5.97463l15.0996,4.5766c0.8548,0.29549 2.51924,0.99857 3.29286,1.4658c1.9703,1.18998 4.21487,5.37254 4.95212,7.59854l0.97783,7.6158c0.19348,4.67289 -1.32835,10.96095 -3.72731,14.6803c-2.39896,3.71936 -7.49973,7.69902 -11.83652,9.44992l-2.08454,0.6389c-7.90353,2.27531 -23.8885,3.02313 -31.96994,1.49562l-113.00647,-23.36783l46.44729,52.26701c1.7061,1.93842 4.83437,6.03222 6.25653,8.18761l1.20773,1.84954c0.79193,1.23531 2.20733,3.79893 2.83079,5.12725l0.94682,2.06208c1.6546,3.60356 0.75581,7.86543 -2.21308,10.49395c-2.96888,2.62851 -7.30826,3.00427 -10.68478,0.92523l-164.89862,-101.53391l13.66996,81.2792c0.74581,4.43445 -1.89586,8.7389 -6.18735,10.08192c-4.29149,1.34302 -8.91571,-0.68756 -10.8309,-4.75606l-32.36814,-68.7607c-0.65309,-2.31333 -3.21144,-4.6585 -5.75428,-5.55651c-0.4936,0.11125 -1.13112,0.45922 -2.26961,0.96142c-1.95506,0.8624 -2.57815,0.9404 -2.77997,1.85102l-1.25582,2.01016c0.60007,0.63532 1.13619,1.22753 1.53592,1.70369l1.07633,1.30569c0.81148,1.01476 2.26733,3.15779 2.91171,4.28607l0.85265,1.54586l-15.30966,8.44434c-1.33887,3.08388 -2.48134,5.9909 -3.18926,8.21009l-15.73428,48.4789c-1.15303,3.5526 -4.3805,6.02384 -8.11086,6.2104c-3.73037,0.18656 -7.1883,-1.95032 -8.69004,-5.37015l-5.20509,-11.85329l-5.20509,11.85329c-1.50174,3.41983 -4.95967,5.55671 -8.69004,5.37015c-3.73037,-0.18656 -6.95783,-2.6578 -8.11086,-6.2104l-15.73428,-48.4789c-0.70792,-2.21919 -1.85039,-5.12621 -3.18926,-8.21009l-15.30966,-8.44434l0.85265,-1.54586c0.64438,-1.12828 2.10023,-3.27131 2.91171,-4.28607l1.07633,-1.30569c0.39973,-0.47616 0.93585,-1.06837 1.53592,-1.70369l-1.25582,-2.01016c-0.20182,-0.91062 -0.82491,-0.98863 -2.77997,-1.85102c-1.1385,-0.5022 -1.77601,-0.85017 -2.26961,-0.96142c-2.54284,0.89801 -5.10119,3.24317 -5.75428,5.55651l-32.36814,68.7607c-1.91519,4.06849 -6.53941,6.09908 -10.8309,4.75606c-4.29149,-1.34302 -6.93316,-5.64747 -6.18735,-10.08192l13.66996,-81.2792l-164.89862,101.53391c-3.37652,2.07905 -7.7159,1.70329 -10.68478,-0.92523c-2.96888,-2.62851 -3.86767,-6.89038 -2.21308,-10.49395l0.94682,-2.06208c0.62346,-1.32832 2.03886,-3.89195 2.83079,-5.12725l1.20773,-1.84954c1.42217,-2.15539 4.55043,-6.24919 6.25653,-8.18761l46.44729,-52.26701l-113.00647,23.36783c-8.08144,1.5275 -24.06641,0.77969 -31.96994,-1.49562l-2.08454,-0.6389c-4.33678,-1.75091 -9.43756,-5.73057 -11.83652,-9.44992c-2.39896,-3.71936 -3.92078,-10.00741 -3.72731,-14.6803l0.97783,-7.6158c0.73725,-2.226 2.98182,-6.40856 4.95212,-7.59854c0.77361,-0.46723 2.43805,-1.17031 3.29286,-1.4658l15.0996,-4.5766c8.53211,-2.54962 25.95836,-5.53694 34.85251,-5.97463l78.82399,-3.56993l-6.70407,-4.90158c-7.55661,-5.5334 -22.02357,-17.38882 -28.93391,-23.71085l-87.09102,-79.79364c-3.34371,-3.06354 -3.88579,-8.13633 -1.26492,-11.83724c2.62087,-3.70091 7.58589,-4.87375 11.58578,-2.73679l2.11768,1.13138c1.11075,0.59386 3.31667,1.80987 4.41184,2.43202l2.08551,1.18559c2.13784,1.21578 6.38126,3.70239 8.48685,4.97321l89.92341,54.29228l-2.02882,-2.21904c-6.85325,-7.53011 -18.87346,-23.70357 -24.24687,-32.60633c-0.02923,-0.04718 -0.0581,-0.09473 -0.08659,-0.14263v0c-0.00803,-0.01358 -0.01607,-0.02718 -0.02412,-0.0408c0.008,0.01361 0.01604,0.02721 0.02412,0.0408l-0.08994,-0.15124c-0.02849,-0.04791 -0.05648,-0.09597 -0.08398,-0.14418c-5.25696,-8.97202 -13.72886,-27.25571 -17.07317,-36.87263l-10.54376,-30.54343c-1.1953,-3.46259 -0.17275,-7.30416 2.58577,-9.71431c2.75852,-2.41015 6.70256,-2.90795 9.97343,-1.25881l128.35271,64.71425c-0.19157,-0.26296 -0.37534,-0.50573 -0.54874,-0.72395l-47.42513,-61.1571c-2.47483,-3.19142 -2.52075,-7.64061 -0.11233,-10.88243c2.40843,-3.24182 6.68142,-4.48239 10.45144,-3.03436l115.72523,44.44909c-0.63225,-1.24962 -1.21242,-2.38209 -1.69926,-3.31382l-36.13745,-69.19996c-2.09042,-4.00296 -0.89069,-8.93529 2.80475,-11.53092c3.69544,-2.59563 8.74226,-2.05078 11.79857,1.27376l26.2081,28.50814l-6.48352,-70.59568c-0.3692,-4.02004 1.9836,-7.79411 5.75563,-9.23246c3.77203,-1.43835 8.04034,-0.18904 10.44152,3.05618c0.52503,0.70959 44.62148,60.30627 44.62148,60.30627l-14.46975,10.70637zM479.38056,527.79686l8.43724,25.99599l2.35268,-5.35765l-11.44221,-26.05675c-0.41047,-1.56176 -1.67691,-3.18674 -3.22838,-4.40014c1.6179,3.69157 3.01105,7.17812 3.88066,9.81854zM521.27173,522.37846l-11.44221,26.05675l2.35268,5.35765l8.43724,-25.99599c0.86962,-2.64042 2.26277,-6.12697 3.88066,-9.81854c-1.55147,1.2134 -2.81791,2.83838 -3.22838,4.40014zM225.81738,383.62623c-0.00813,-0.01358 -0.01624,-0.02714 -0.02433,-0.04068c0.00808,0.01359 0.01619,0.02715 0.02433,0.04068zM418.17954,474.90762c-0.07746,-0.09058 -0.15632,-0.17925 -0.23653,-0.266c-0.07324,-0.09271 -0.14858,-0.18439 -0.22603,-0.27498zM272.43474,495.0183l-92.81622,4.20363c-7.78069,0.31751 -23.00357,2.92711 -30.44576,5.2192l-11.31875,3.43064l-0.37135,2.89226c-0.5191,0.877 -0.0786,0.95869 1.00036,2.63152c1.07897,1.67284 0.97171,2.10782 1.98474,1.9966l2.08454,0.6389c5.68675,1.89005 17.21186,2.42922 23.05023,1.07834zM241.33308,374.50136c0.00692,0.01159 0.01384,0.02316 0.02075,0.03472c-0.0069,-0.01159 -0.01381,-0.02317 -0.02075,-0.03472zM358.33732,390.48812c-0.09417,0.09472 -0.19081,0.18769 -0.28989,0.27882c-0.10133,0.0586 -0.20343,0.11502 -0.30625,0.16927c0.0989,-0.10285 0.19827,-0.20856 0.29789,-0.31686c0.10133,-0.04301 0.20078,-0.08676 0.29825,-0.13123zM417.943,474.64163c0.05167,0.06541 0.10229,0.13134 0.15187,0.19776c-0.05108,-0.04065 -0.10317,-0.08119 -0.15624,-0.12161c-0.0485,-0.0804 -0.09714,-0.1587 -0.14589,-0.23479c0.05059,0.05215 0.10069,0.10503 0.15026,0.15864zM441.0975,485.33913c0.05151,-0.00085 0.10295,-0.00126 0.15433,-0.00123c-0.0427,0.01463 -0.0855,0.02946 -0.12839,0.04448c-0.05328,0.00186 -0.10639,0.00389 -0.15932,0.0061c0.04428,-0.01678 0.08874,-0.03324 0.13339,-0.04936zM774.20695,383.58555c-0.00809,0.01354 -0.01621,0.0271 -0.02433,0.04068c0.00814,-0.01353 0.01625,-0.02709 0.02433,-0.04068zM582.28303,474.36665c-0.07746,0.09058 -0.1528,0.18226 -0.22603,0.27498c-0.08021,0.08675 -0.15908,0.17541 -0.23653,0.266zM834.39747,517.1094c5.83837,1.35088 17.36348,0.81171 23.05023,-1.07834l2.08454,-0.6389c1.01303,0.11121 0.90578,-0.32377 1.98474,-1.9966c1.07897,-1.67284 1.51947,-1.75452 1.00036,-2.63152l-0.37135,-2.89226l-11.31875,-3.43064c-7.44219,-2.29209 -22.66507,-4.90169 -30.44576,-5.2192l-92.81622,-4.20363zM758.64617,374.53608c0.00691,-0.01155 0.01383,-0.02313 0.02075,-0.03472c-0.00694,0.01155 -0.01386,0.02312 -0.02075,0.03472zM641.96093,390.61935c0.09962,0.1083 0.19899,0.21401 0.29789,0.31686c-0.10282,-0.05425 -0.20492,-0.11067 -0.30625,-0.16927c-0.09908,-0.09113 -0.19572,-0.1841 -0.28989,-0.27882c0.09748,0.04447 0.19692,0.08822 0.29825,0.13123zM582.20726,474.48299c-0.04876,0.0761 -0.0974,0.1544 -0.14589,0.23479c-0.05307,0.04042 -0.10516,0.08096 -0.15624,0.12161c0.04957,-0.06642 0.1002,-0.13235 0.15187,-0.19776c0.04958,-0.05361 0.09967,-0.10649 0.15026,-0.15864zM559.03589,485.38849c-0.05293,-0.0022 -0.10604,-0.00424 -0.15932,-0.0061c-0.04289,-0.01502 -0.08569,-0.02985 -0.12839,-0.04448c0.05137,-0.00003 0.10282,0.00037 0.15433,0.00123c0.04465,0.01612 0.08911,0.03257 0.13339,0.04936z" fill="#b7ed7d" stroke-miterlimit="0"/><path d="M316.28134,274.0277l6.49661,-11.08276c0.99564,-1.45986 3.33787,-4.08284 4.81599,-5.0436c1.539,-1.00033 5.04783,-2.05119 6.86673,-2.33393l8.32684,-0.65848c7.35697,-0.02622 19.57791,5.46731 24.44188,10.98706l3.99877,5.29327c1.49476,2.21564 3.64925,7.03307 4.02615,9.67521c0.38219,2.67922 -0.40206,7.9708 -1.26617,10.54003l-6.34154,15.84012c-0.54748,1.26001 -1.37073,2.75069 -2.36009,4.32538c3.40693,0.4263 6.61559,1.05284 8.87029,1.8079l2.88776,1.046c7.81988,3.52687 17.41687,15.44606 19.19398,23.8384l1.19635,8.97653c0.13615,2.46818 -0.46141,7.31998 -1.53887,9.5365c-1.10408,2.27128 -4.69431,5.76463 -6.80288,7.17024l-22.4392,12.40583c-2.17493,0.96258 -6.75049,2.08658 -9.10576,1.83063c-2.30881,-0.2509 -6.47784,-2.23658 -8.38029,-3.58285l-3.46575,-2.91787c-0.35335,9.13984 -1.46605,19.22016 -2.99918,25.35735l-3.59993,13.9678c-0.8241,2.89661 -3.27053,8.33379 -5.01526,10.78732c-2.08344,2.92982 -7.87661,6.9383 -11.22069,8.27698l-6.75224,2.22605c-4.11459,0.94913 -9.96264,0.74921 -13.57927,-0.67461c-3.57402,-1.40704 -7.90455,-5.05513 -10.30598,-8.36745l-0.11306,0.0521l-0.8343,-1.81029c0.13748,0.2983 0.28921,0.58551 0.45403,0.86118c-0.12442,-0.2645 -0.23597,-0.53507 -0.33418,-0.81078c-1.98362,-6.32497 -1.94332,-17.88706 0.19315,-23.97784l7.48531,-18.14034c-1.82149,1.67579 -3.46284,3.21523 -4.75785,4.46994l-13.91055,13.46401c-0.3826,0.36524 -1.10897,1.13253 -1.45822,1.52976c-1.41782,1.61259 -5.24766,3.57029 -7.30567,4.22666l-10.00824,2.02262c-4.86658,0.59587 -11.53211,-0.47242 -15.77051,-2.65113c-4.2384,-2.17871 -8.98635,-6.9774 -11.33405,-11.2817l-3.45292,-7.69576c-0.85165,-2.56135 -1.49246,-7.85444 -0.75927,-10.43795c0.57174,-2.01462 2.61145,-5.63951 3.88508,-7.30494l14.85367,-17.59684c-5.86166,-1.56272 -11.48414,-3.46323 -15.20385,-5.27758l-13.49184,-6.776c-0.93618,-0.58708 -2.72188,-1.90366 -3.40809,-2.76348c-0.88842,-1.11319 -1.80213,-3.86196 -2.1218,-5.26259l-1.21862,-13.076c-0.30118,-9.54047 6.7378,-25.18286 14.07797,-31.28477l4.89375,-3.58441c4.70352,-3.30391 15.01866,-7.86786 20.67133,-8.90386c5.47704,-1.00381 16.46567,-0.88822 21.94961,0.08025l20.35514,3.88467c3.73142,0.79023 10.77828,3.47084 14.01241,5.49136c0.84438,0.52752 1.8638,1.26422 2.94949,2.1126c1.19455,-3.43089 2.51394,-6.58124 3.75383,-8.78594zM326.46638,300.95689c-0.24107,3.64853 -2.66559,6.78857 -6.13445,7.94482c-3.46886,1.15625 -7.29248,0.09886 -9.6744,-2.67536l-3.72143,-4.33436c-1.46377,-1.78394 -4.93872,-4.70287 -6.8953,-5.92525c-1.83069,-1.14372 -5.71479,-2.74687 -7.84949,-3.07616l-20.35514,-3.88467c-3.82969,-0.80898 -11.48105,-0.76154 -15.33038,-0.05605c-3.6737,0.6733 -10.33428,3.42138 -13.28009,5.7202l-4.89375,3.58441c-4.45094,2.53443 -7.84683,10.08096 -6.79179,15.09306l0.80579,8.64628l9.59074,4.81676c6.26557,3.26366 19.5945,6.66046 26.65786,6.7936l22.28961,0.75c4.77239,0.16058 8.58863,4.02033 8.6951,8.79423c0.10647,4.7739 -3.53389,8.79995 -8.29437,9.17315c-1.69062,0.12982 -2.94738,0.26646 -3.97013,0.45551l-21.83363,3.85062l-17.45481,20.67836l2.93184,6.5344c0.17267,1.31302 0.9625,1.52185 3.1405,2.64142c2.178,1.11958 2.80748,1.64034 3.97572,1.0166l8.49422,-1.71664c0.48579,-0.51039 0.98814,-1.02428 1.3249,-1.3529l13.91055,-13.46401c5.47367,-5.29289 16.82424,-15.42705 22.70113,-20.26832l11.47881,-9.4468c2.68703,-2.21136 6.35184,-2.64269 9.42481,-1.25329c-0.00861,-4.2472 2.98644,-7.9887 7.24287,-8.83634c4.59145,-0.91435 9.11712,1.84404 10.40856,6.34399l1.97197,6.87122c0.43635,2.22877 2.72944,5.76533 4.58618,7.07312l9.86068,8.30187l19.99115,-11.05239l-1.0739,-8.05774c0.13391,-3.93697 -3.60706,-8.58315 -7.48194,-9.29237l-2.88776,-1.046c-3.35475,-1.36741 -10.26157,-2.02283 -13.81365,-1.31084l-9.37311,1.49626c-4.04633,0.64593 -8.0182,-1.52289 -9.6624,-5.27611c-1.6442,-3.75321 -0.54563,-8.14328 2.6725,-10.67975l6.41677,-5.05758c2.39007,-1.68939 5.72472,-6.14902 6.6693,-8.91926l6.34154,-15.84012c0.28364,-0.29766 0.21105,-0.93013 0.15714,-1.30807c-0.0592,-0.41502 -0.20224,-1.11878 -0.56892,-1.36717l-3.99877,-5.29327c-1.37276,-2.73596 -5.70302,-4.68249 -8.66051,-3.89305l-6.68161,0.52837l-5.71487,9.74917c-2.46603,3.96825 -5.11957,12.60481 -5.30707,17.27313zM327.40459,357.97666l-19.17025,46.45833c-1.45613,2.61576 -1.71945,6.72217 -0.25762,10.06902c0.21509,0.06933 -0.20159,-0.16374 1.15261,0.3694c1.33601,0.52597 0.94467,0.86933 1.34972,0.32844l6.75224,-2.22605c0.81936,-0.0339 1.73017,-0.97064 2.18729,-1.61346c0.79582,-1.11912 1.98405,-3.49971 2.25405,-4.84822l3.59993,-13.9678c2.18245,-8.16702 3.33153,-24.72424 2.29816,-33.11444z" fill="#e11552" stroke-miterlimit="0"/><path d="M432.08228,369.71006c1.90016,-6.36921 8.44002,-17.49767 13.07973,-22.25693l6.6123,-6.46945c1.43468,-1.1839 4.59164,-3.12123 6.38997,-3.56981c1.74671,-0.4357 5.33876,-0.26732 7.11488,0.05926l7.25899,1.93967c4.05371,1.57234 8.94533,6.23252 12.29936,10.97257c1.75548,1.35195 3.01824,3.35087 3.39487,5.71162l0.13843,0.86768v0c0.13813,0.86584 0.14784,1.72252 0.04319,2.55062c-0.12101,5.60241 -1.69438,13.48851 -3.68437,17.64935l-2.11416,3.98554c7.78423,-0.37026 17.00054,0.38677 22.40337,2.11261l10.12731,3.51955c2.62677,1.13172 7.26367,4.32942 8.9392,6.63822c1.60515,2.21182 3.30837,7.33686 3.68307,10.04933l0.43543,5.80903c-0.16878,7.10239 -6.14303,18.29977 -11.9485,22.39476l-4.15563,2.35592c-2.85112,1.40264 -8.89106,2.98252 -12.05715,2.78861c-2.88439,-0.17666 -8.33394,-1.88579 -10.91279,-3.19461l-4.17654,-2.32741l4.16105,16.8125c1.31414,5.83802 1.32808,17.62626 0.08721,23.5543c0.01667,-0.06326 0.03271,-0.12684 0.0481,-0.19075l-0.06051,0.2513c-0.28086,1.16644 -0.77713,2.22461 -1.43641,3.14246c-3.40355,6.14003 -10.48433,13.16266 -15.99171,15.43842l-8.48983,2.72173c-1.23915,0.22265 -3.76939,0.47795 -4.98301,0.18722c-1.62898,-0.39024 -4.30281,-2.60153 -5.49167,-3.82137l-4.11025,-6.13802c-3.10218,-5.18816 -5.57444,-16.3883 -4.94453,-22.40027l0.61668,-3.93237c-4.98886,6.85486 -11.89775,14.26947 -16.95004,17.79195l-10.15403,6.78684c-1.85961,1.03501 -5.82784,2.48562 -7.94789,2.55567c-2.21876,0.07331 -6.43013,-1.28331 -8.40938,-2.30886l-7.58772,-4.85215c-3.59623,-2.66749 -7.49481,-7.50818 -9.2537,-11.62178c-1.11985,-2.61905 -1.80043,-6.36581 -2.02275,-9.88095c-0.4326,-1.43206 -0.51355,-2.99191 -0.16439,-4.55598l0.24425,-1.09414c0.16167,-0.72423 0.40643,-1.40843 0.72199,-2.04479c2.58249,-6.87221 8.45669,-16.3923 12.98815,-20.71048l3.65734,-3.28384c0.39181,-0.32848 0.834,-0.66773 1.31751,-1.01333c-7.02464,-1.33234 -16.2336,-4.16359 -21.10877,-6.65137l-1.93241,-1.02159c-3.4295,-2.21964 -7.32633,-6.45463 -8.94723,-9.95806c-1.62091,-3.50343 -2.32604,-9.2151 -1.79764,-13.26592l0.35504,-1.60416c1.41646,-4.41376 6.55246,-11.69202 10.66257,-13.79212c3.12882,-1.5987 9.81075,-3.51638 13.29598,-3.96821l19.2272,-2.07873c4.09976,-0.3682 12.1989,0.23748 16.19829,1.21137l3.0734,0.80768c0.41259,0.1194 0.88905,0.27888 1.40545,0.46773zM448.70712,387.75879c1.17649,4.13281 -0.73267,8.52084 -4.55847,10.47723c-3.8258,1.95639 -8.50097,0.93537 -11.16283,-2.43787l-2.31402,-2.93245c-0.1007,-0.12766 -0.24575,-0.31272 -0.39532,-0.50418l-1.54959,-1.02671c-0.77992,-0.58926 -2.5188,-1.36803 -3.47775,-1.55754l-3.0734,-0.80768c-2.38307,-0.7034 -7.22733,-1.06567 -9.68852,-0.72455l-19.2272,2.07873c-1.87873,0.12808 -5.36513,1.24517 -7.04068,2.10131c-0.69426,0.35474 -1.52852,0.79906 -1.27794,1.65303l-0.35504,1.60416c-0.46864,0.45407 -0.13133,0.32548 0.55921,1.81801c0.69054,1.49253 0.37416,1.66638 1.02363,1.60314l1.93241,1.02159c4.37936,2.42793 13.76108,5.07972 18.76343,5.30359l17.50069,1.13255c3.52418,0.49808 9.80588,3.2465 12.5634,5.49684l0.28951,0.2753c1.737,2.38771 3.69243,6.67859 3.56487,9.07009c-0.12756,2.3915 -2.52835,6.45002 -4.50949,8.6394l-0.02892,0.02215c-2.64636,1.34639 -8.16306,2.62431 -11.3125,1.89752l-4.58739,0.81876c-2.59566,0.28839 -7.01534,2.4459 -8.83935,4.31502l-3.65734,3.28384c-3.30803,2.69289 -7.31423,9.51778 -8.34354,14.0962c-0.10672,0.27291 -0.1616,0.49499 -0.17227,0.69833c-0.03884,0.74015 0.50815,1.23184 1.27346,3.02171c0.97105,2.27105 1.23528,3.15665 2.40046,3.53395l5.84337,3.73668l8.55591,-5.71868c5.35404,-3.37065 13.16079,-12.57321 15.6135,-18.40512l8.10143,-17.87958c1.50159,-2.57062 5.3505,-6.43584 7.82684,-7.89333c0.44494,-0.21538 0.90688,-0.39374 1.38111,-0.53327c2.32851,-0.35213 5.99844,-0.32552 7.79721,0.34619c1.51619,0.56619 3.75342,2.3938 5.35388,4.07334l-2.78419,-11.24936c-0.40144,-1.62201 -0.33521,-3.26566 0.12394,-4.77604c-2.26191,-0.53518 -4.29105,-1.93938 -5.57848,-4.01477c-2.1132,-3.40656 -1.71856,-7.80011 0.96788,-10.77556l1.43388,-1.58813c0.53743,-0.58248 1.52253,-1.81895 1.9702,-2.47294l1.20501,-1.72023c1.06813,-1.50991 2.99539,-4.65769 3.85452,-6.29556l4.15572,-7.83423c1.39968,-2.16192 2.16259,-6.80462 1.64268,-9.69369c-0.00783,-0.07566 -0.00367,-0.04664 -0.01383,-0.10319c-0.06684,-0.41895 -0.10361,-0.83575 -0.11191,-1.2482c-0.34513,-0.83032 -1.24442,-1.07106 -2.45386,-0.88195l-5.1425,-1.37413l-4.99871,4.89072c-3.17447,2.88611 -7.32565,9.9499 -8.30235,14.12758l-1.83747,6.73637c-0.36115,0.69621 -0.35349,2.0846 0.01533,2.77678zM476.31541,400.2462c0.16278,0.19348 0.31856,0.39514 0.46673,0.60482l3.6712,5.19527c1.16821,1.84733 4.29774,4.65936 6.25905,5.62405l11.17941,6.2298c0.72639,0.53305 2.35881,0.89709 3.25114,0.95174c0.61063,0.0374 1.63903,-0.01751 2.07954,-0.48096l4.15563,-2.35592c2.3036,-0.50222 3.74166,-3.19753 2.87611,-5.39062l-0.43543,-5.80903c0.14978,-0.28815 -0.13926,-0.59904 -0.30146,-0.82254c-0.09181,-0.12651 -0.06455,-0.35191 -0.28006,-0.20797l-10.12731,-3.51955c-5.10555,-1.99317 -15.42765,-2.30499 -20.6442,-0.62365zM466.50775,431.69056c-0.00384,0.09321 -0.00894,0.18386 -0.01531,0.27177l-4.96808,31.68006c-0.73281,2.67771 0.32631,7.47583 2.11823,9.59624l0.42233,0.63069l2.20097,-0.7056c2.22383,-0.2098 4.47954,-2.28398 5.22906,-4.55584c0.04164,-0.36509 0.10608,-0.73165 0.1943,-1.09804c0.00491,-0.02025 0.03079,-0.12706 0.04766,-0.1972c-0.08866,0.37826 -0.15203,0.75661 -0.19118,1.13327c0.11628,-0.39153 0.18708,-0.78773 0.20461,-1.18015c0.96834,-3.89917 0.94356,-11.10944 -0.10884,-14.83259zM489.19038,471.70485c-0.25856,0.75697 -0.59996,1.54778 -1.01154,2.35888c0.43873,-0.71743 0.78295,-1.50803 1.01154,-2.35888z" fill="#e11552" stroke-miterlimit="0"/><path d="M590.73658,404.96649c0.04948,-0.08271 0.09609,-0.14639 0.13942,-0.19409l-0.4511,-2.01439c-1.30259,-6.22165 -1.57348,-18.71555 -0.54178,-24.9878l3.60288,-20.14856c0.44483,-1.98504 1.84498,-5.7726 2.94886,-7.47901c1.13668,-1.75711 4.14802,-4.62214 5.85298,-5.83984l9.68319,-6.23322c7.09581,-3.7326 21.33005,-3.81474 28.46847,-0.16428l8.03429,5.04161c1.24723,1.11178 3.51777,3.62984 4.00887,5.20234c0.32288,1.03386 0.38879,3.22205 0.34446,4.30996l-1.74071,12.07268c-0.18428,1.15594 -0.46806,2.46569 -0.83126,3.87687c2.72567,-1.55713 5.28928,-2.87387 7.35971,-3.73859l9.53005,-3.86877c2.04922,-0.75068 6.27621,-1.69406 8.45689,-1.73628c2.27136,-0.04398 6.68444,0.87138 8.82256,1.64473l5.61771,2.29592c5.24029,2.84654 11.67688,11.53537 12.87319,17.37765l0.29321,3.16615c0.02449,3.08363 -1.2308,9.00879 -2.94238,11.56071c-1.51641,2.26094 -5.65639,5.6974 -8.02868,7.04144l-11.39485,5.64497c-4.35648,2.02778 -12.42264,3.92281 -18.73304,4.57757c4.04222,2.74098 9.48892,7.63953 11.91473,10.83425l10.81627,15.02175c0.50505,0.90298 1.41173,2.78101 1.58103,3.79487c0.15724,0.94165 -0.03272,2.86538 -0.18002,3.81407l-6.24779,23.50615c-0.57191,1.75721 -2.1543,5.07153 -3.32172,6.50041c-1.43416,1.75536 -5.33013,4.04332 -7.4605,4.84671l-6.2945,1.71832c-3.82165,0.7343 -9.31525,0.48288 -12.92595,-0.69934c-2.48526,-0.81373 -5.53584,-2.63818 -8.06076,-4.61439c-1.03448,-0.57375 -1.97216,-1.36211 -2.74284,-2.35621l-0.26938,-0.34748c0.60703,0.78301 1.31767,1.43838 2.09762,1.96177c-0.77605,-0.65305 -1.48164,-1.3109 -2.07885,-1.94367c-2.82447,-3.99443 -6.11765,-11.7597 -7.63476,-17.64686c-4.34867,7.34698 -12.33648,17.65345 -17.55119,22.43173l-8.74715,7.85159c-1.52167,1.25441 -4.83988,3.3347 -6.69283,4.00456c-2.42549,0.87684 -7.54537,0.71753 -10.07217,0.14496l-5.54031,-1.82439c-3.63741,-1.5597 -8.06798,-4.93085 -10.22579,-7.97726c-2.13634,-3.01609 -3.82699,-8.89453 -4.16065,-12.78915c-0.0257,0.21788 -0.04369,0.43828 -0.05367,0.66093l0.03466,-0.77343c0.03332,-0.7435 0.15594,-1.46188 0.35705,-2.14525c0.2113,-1.05654 0.49248,-2.19098 0.82927,-3.36604c-5.18359,2.3282 -10.69896,4.36282 -14.47579,5.20295l-10.3665,2.16221c-1.5523,0.2277 -4.67632,0.32235 -6.20993,0.00511c-2.06097,-0.42633 -5.57746,-2.76567 -7.13073,-4.20612l-4.29929,-5.01285c-3.91348,-5.53495 -6.01205,-17.60115 -4.19714,-24.13239l1.1038,-2.89275c1.74655,-4.30573 6.62278,-12.04989 9.89008,-15.35218c3.37296,-3.40909 11.46472,-8.20651 15.99706,-9.77933l11.17562,-3.53897c3.72475,-1.04194 11.27751,-1.53094 15.10552,-0.978l2.72804,0.48901c1.60562,0.29762 4.70546,1.06608 6.38816,1.57973c0.0653,0.0194 0.13055,0.03959 0.19573,0.06055c0,0 0,0 0,0.00001c-0.05469,-0.01752 -0.10942,-0.03449 -0.16419,-0.05091c0.05642,0.0173 0.1112,0.0343 0.16421,0.05098c0.04352,0.21369 0.13879,0.21552 0.19057,0.00363l5.03081,-1.40505c0.03329,-0.05729 0.07639,-0.13022 0.13126,-0.22195zM590.41644,423.93004c-1.84051,0.37677 -4.94944,0.44214 -7.55541,0.2305c-0.98376,0.0243 -1.98831,-0.11359 -2.97808,-0.43192c-0.00019,-0.00006 -0.00038,-0.00013 -0.00057,-0.00019c0.97891,0.31365 1.97215,0.4509 2.94535,0.42939c-1.12897,-0.09286 -2.16182,-0.23786 -2.95378,-0.43218c-1.04768,-0.34656 -3.16801,-0.8748 -4.24983,-1.05852l-2.72804,-0.48901c-1.65856,-0.43054 -4.90631,-0.22027 -6.4955,0.42055l-11.17562,3.53897c-2.55516,0.67157 -6.77973,3.40337 -8.6356,5.27912c-1.96153,1.98254 -4.96449,6.46912 -5.86833,9.10929l-1.1038,2.89275c-1.35667,1.78057 -0.83516,4.77911 1.04302,5.99708l2.45478,2.86221l8.21321,-1.71308c5.17431,-0.98317 14.59479,-5.08246 18.84095,-8.19858l25.27393,-17.86225c3.66525,-2.5904 8.67883,-2.08442 11.75258,1.18611c3.07375,3.27053 3.26805,8.30583 0.45548,11.8035l-17.17349,21.35668c-2.09615,2.26522 -4.06402,7.45365 -4.22192,10.89182c-0.00139,0.03489 -0.00268,0.06756 -0.00376,0.096c0.1425,0.20627 -0.0023,-0.13345 0.9092,1.15341c0.90615,1.2793 0.59162,1.45688 1.16712,1.28447l4.55002,1.49829c0.04209,-0.03804 0.07704,-0.0786 0.10166,-0.12167l8.74715,-7.85159c4.7943,-4.19198 12.31083,-14.14136 15.03306,-19.89876l11.96454,-24.47442c1.76553,-3.61153 5.71203,-5.61426 9.66928,-4.90687c0.16254,0.02905 0.32347,0.06239 0.48269,0.09989l-0.09854,-0.12433c-1.3226,-2.20047 -2.71042,-5.78137 -2.79337,-7.86665c-0.08171,-2.05425 0.85475,-5.51824 1.82225,-7.66202c0.42904,-0.73866 0.96096,-1.41231 1.57962,-2.00078l-10.16206,9.50301c-3.3389,3.12236 -8.48812,3.2457 -11.97268,0.28678c-3.48456,-2.95892 -4.19742,-8.06005 -1.65751,-11.86086l10.04542,-15.03228c3.14231,-4.50179 6.9577,-14.45219 7.63078,-19.90078l0.966,-6.69971l-3.36465,-2.11136c-2.30273,-2.27397 -6.8818,-2.24755 -9.15814,0.05285l-9.68319,6.23322c-0.21957,0.02116 -0.37595,0.31673 -0.48245,0.48137c-0.1393,0.21533 -0.38522,0.60258 -0.34327,0.87061l-3.60288,20.14856c-0.89329,4.49296 -0.69939,13.43593 0.3878,17.88594l0.53344,2.38209c0.45164,4.09313 -0.45648,9.85217 -2.33939,12.99995c-1.8829,3.14778 -6.52758,6.67173 -10.34757,8.2097zM639.47152,398.88791c2.74414,-2.14588 8.72721,-4.41548 12.37771,-4.63646l6.36232,0.38276c3.88857,0.38549 11.20887,-1.09792 14.64061,-2.96681l11.39485,-5.64497c0.40983,-0.0433 0.7984,-0.54115 1.03177,-0.88195l-0.28683,-3.09726c0.5335,-1.31491 -0.3463,-2.50257 -1.7596,-2.37531l-5.61771,-2.29592c-0.38266,-0.25687 -1.21302,-0.31901 -1.66433,-0.31027c-0.54198,0.0105 -1.56085,0.14414 -2.03482,0.41777l-9.53005,3.86877c-5.48206,2.14426 -15.21184,8.36377 -19.45955,12.43904zM645.48341,422.97492c0.13427,0.48476 0.22914,0.98571 0.28112,1.49908l2.72588,26.92011c0.17499,3.42773 2.41586,9.03414 4.63419,11.94921c0.08981,0.27149 0.20722,0.43531 0.40819,0.5629c-0.11455,-0.17242 -0.23579,-0.34209 -0.36376,-0.5087c0.05566,0.07175 0.18423,0.23676 0.18853,0.24163c0.02751,0.03711 0.0298,0.04016 0.05562,0.07315c0.05706,0.0736 0.1128,0.14781 0.16722,0.2226c0.3514,0.20101 0.93948,0.3191 2.01166,0.67015c1.76992,0.57951 2.02723,0.90225 2.58462,0.44113l4.67389,-1.27591l4.90672,-18.46064l-8.34041,-11.58324c-1.41917,-2.17252 -5.1831,-5.4568 -7.52786,-6.56856l-1.87513,-0.99573c-1.25185,-0.70944 -2.88629,-1.87532 -4.5305,-3.18716z" fill="#e11552" stroke-miterlimit="0"/><path d="M295.27833,476.25171c-1.55337,-5.34208 -1.9116,-16.11762 -0.71646,-21.55107l0.24112,-0.95073c1.31746,-3.44511 4.35881,-7.80036 7.0461,-9.60317c2.68729,-1.80281 7.87062,-2.9652 11.558,-2.87766l3.96326,0.56098c1.28321,0.41615 3.12273,1.30488 4.77734,2.37242l6.60388,0.39768c1.68019,-1.153 3.64819,-2.18708 4.96982,-2.66995l20.11168,-4.96526c2.46811,-0.34548 7.39962,-0.10837 9.64664,0.93861c2.30463,1.07383 5.67976,4.85274 6.98602,7.05183l6.31027,13.88155c1.08846,3.06889 1.81209,9.40939 0.91101,12.52595c-0.4761,1.64669 -1.66715,4.33189 -2.76545,6.44449l0.68013,0.21465c2.60768,1.15409 7.15312,4.47062 8.54019,6.94211c1.39053,2.47765 1.84362,8.10048 1.46176,10.93385l-1.57445,6.28077c-1.97415,6.56521 -9.54928,17.0837 -15.15025,21.03698l-3.14583,2.00813c-4.08346,2.34723 -12.87661,4.6404 -17.5863,4.58635l-4.88647,-0.28335c-1.49966,-0.25863 -4.08755,-1.05788 -5.85671,-1.97838c-2.99128,4.0775 -7.28737,8.66071 -10.3357,10.81079l-14.42819,9.47772c-1.25777,0.62476 -3.89817,1.63122 -5.2917,1.67635c-1.53804,0.0498 -4.49062,-0.9948 -5.89146,-1.66602l-8.86879,-5.85566c-3.71595,-2.8146 -7.72948,-7.93114 -9.59114,-12.31467c-1.86166,-4.38353 -2.75657,-10.82453 -2.20163,-15.45296l1.03863,-5.58026c0.96689,-4.25282 4.74289,-11.84186 7.552,-15.17808l2.21651,-2.43058c1.48837,-1.52867 4.71556,-4.00297 6.7875,-5.23001zM318.07386,488.78747c0.04363,2.41728 -0.47947,6.49425 -1.54504,8.00448c-1.06556,1.51023 -4.73117,3.36995 -7.02316,4.13929h-0.00005c-0.36312,0.03827 -0.98392,0.10225 -1.497,0.15446l-1.07852,0.54166c-0.62419,0.2294 -1.63809,0.99766 -2.0278,1.53652l-2.21651,2.43058c-1.40148,1.28102 -2.97949,4.45254 -3.15604,6.34304l-1.03863,5.58026c-0.55495,1.33464 -0.02888,2.52771 1.07332,5.12299c1.1022,2.59528 1.59544,3.80229 2.9412,4.32971l4.54571,3.00133l10.13406,-6.65696c2.30505,-1.31271 5.58723,-5.09154 6.56436,-7.55766l1.56545,-3.31867c1.79084,-3.13557 6.75672,-7.99102 9.93176,-9.71092l0.92536,-0.41133c2.69051,-0.88738 8.16107,-1.22916 10.94111,-0.68356l2.39528,0.72388c3.52835,1.06631 6.04269,4.17284 6.36216,7.83069c0.06158,-0.04473 0.12067,-0.08996 0.17709,-0.13566l3.14583,-2.00813c3.14035,-1.62672 6.82817,-6.74747 7.37565,-10.2415l0.87238,-3.48008l-2.77501,-0.87581c-0.35132,-0.44197 -0.98776,-0.39663 -1.27287,0.09068l-3.82877,1.83983c-4.10857,1.97428 -9.04445,0.56511 -11.49139,-3.28075c-2.44694,-3.84586 -1.6322,-8.91388 1.89682,-11.79905l2.63667,-2.15562c0.82668,-0.60972 2.17583,-2.10386 2.69829,-2.98828l3.4335,-5.20143c0.59757,-0.81232 1.37649,-2.62059 1.65623,-3.58809c0.01477,-0.05108 0.07208,-0.0731 0.10854,-0.08137c-0.02265,0.0017 -0.05915,0.00336 -0.11418,0.00385l-5.06767,-11.14804l-16.34493,4.03531c-2.44898,1.80587 -6.66215,3.24128 -9.11371,3.52658l-10.66064,-0.64198c-1.53927,-0.3967 -3.8305,-1.38849 -5.76623,-2.60509l-1.46375,-0.20719c-0.88178,2.95744 -0.68005,8.61663 0.42083,11.43222l4.41739,13.56373c0.3166,0.98319 0.8789,2.96965 1.12458,3.97291z" fill="#e11552" stroke-miterlimit="0"/><path d="M518.54265,305.93516c-1.88391,-2.94805 -3.46824,-9.38183 -3.16865,-12.86756l2.10615,-9.34825c1.75257,-7.1467 8.25115,-19.91676 12.99718,-25.54012l11.70145,-13.34496c1.88103,-1.9345 6.19493,-5.06046 8.72378,-5.99116c2.72143,-1.00158 8.44176,-1.13505 11.30503,-0.63548l6.75718,1.65605c4.17886,1.34862 9.36875,4.64596 12.28312,7.9079c2.91437,3.26194 5.60861,8.78901 6.47986,13.09279l1.11444,8.66511c0.04012,1.93774 -0.44484,5.77542 -1.3375,7.48322c-0.64459,1.23319 -2.41321,3.37589 -3.40541,4.35431l-9.602,8.507c-5.9079,5.13479 -19.11254,13.10273 -26.4093,15.93588l-11.78077,4.44582c-1.25621,0.42959 -3.83052,1.01813 -5.1486,1.17707l-0.77977,0.06932c-0.92406,0.04037 -2.7642,-0.04699 -3.68028,-0.17472l-0.23863,-0.0443c-2.23148,-0.25973 -4.18456,-1.32005 -5.59716,-2.86574c-0.21433,-0.14962 -0.40898,-0.29499 -0.57858,-0.43333zM534.09955,291.84975l7.63308,-2.88057c5.8246,-2.11858 16.23867,-8.40263 20.82813,-12.5681l8.09458,-7.17149l-0.78056,-6.06912c0.17595,-1.10246 -0.47217,-1.63037 -2.04987,-3.39623c-1.57769,-1.76585 -2.02955,-2.46911 -3.1448,-2.41796l-6.75718,-1.65605c-0.21584,-0.25506 -0.54975,-0.04821 -0.80347,0.04516c-0.4463,0.16425 -1.19763,0.5169 -1.4067,0.96607l-11.70145,13.34496c-3.49191,3.77163 -7.97758,12.5862 -8.97133,17.62913z" fill="#e11552" stroke-miterlimit="0"/><path d="M526.34182,310.61367c-0.69622,-2.98132 -0.74645,-8.18467 0.66026,-10.43542c1.4067,-2.25075 6.10585,-4.48578 9.09077,-5.16641l14.83799,-0.43466c7.78699,-0.06997 22.47373,3.47054 29.37348,7.08102l0.06247,0.03432c3.98829,2.55601 8.41517,7.43061 10.54821,11.71465c2.13304,4.28404 3.35486,10.75445 2.99083,15.47749l-1.0236,7.03613c-0.73476,3.25515 -3.56429,9.14628 -6.00961,11.40227c-2.08581,1.92432 -7.01437,4.60238 -9.70015,5.52628l-7.41,2.21568c-5.6707,1.23101 -15.06934,-0.46993 -21.80672,-3.37274c-1.60042,-0.29948 -3.13911,-1.03671 -4.42623,-2.21968l-0.65203,-0.59927c0.87739,0.8064 1.87167,1.40567 2.92272,1.80035c-1.05809,-0.55 -2.01326,-1.13073 -2.83149,-1.73297c-4.64056,-4.75369 -10.86242,-15.34274 -12.63108,-21.57931l-2.4128,-9.51596c-0.29081,-1.19916 -0.69278,-3.50844 -0.86766,-4.94374c-0.01857,-0.13684 -0.03412,-0.27476 -0.04658,-0.4137c0,-0.00001 0,-0.00002 0,-0.00003c0.01149,0.12655 0.02556,0.25225 0.04213,0.37705c-0.01618,-0.13436 -0.03029,-0.26075 -0.04206,-0.37749c0.0395,-0.26205 -0.08405,-0.73219 -0.24728,-0.94069zM545.21769,312.75226c0.05187,0.25638 0.10525,0.48947 0.15502,0.66921l2.4128,9.51596c0.79451,3.87244 4.58401,10.23795 7.76637,13.13223c0.21798,0.25318 0.45581,0.48753 0.7101,0.70282c2.27357,1.92488 5.86302,2.32642 8.34384,1.04699l7.41,-2.21568c0.80898,-0.12108 2.05615,-0.9614 2.65131,-1.51048c0.23565,-0.21741 0.61222,-0.40933 0.40258,-0.76383l1.0236,-7.03613c0.51713,-1.33395 -0.06211,-2.3942 -1.29152,-4.86338c-1.22941,-2.46918 -1.72637,-3.57039 -3.1025,-3.96168l-0.06247,-0.03432c-4.6752,-2.749 -14.76467,-5.18126 -20.17893,-4.86451z" fill="#e11552" stroke-miterlimit="0"/><path d="M538.84794,307.8324c-1.40993,2.55734 -3.98246,7.79352 -5.14506,10.47237l-4.71185,10.80958c-3.31851,7.2679 -12.84679,19.56308 -19.05657,24.59036l-9.80232,7.65941c-1.16369,0.73426 -3.6316,1.96789 -4.98163,2.19524c-1.56148,0.26297 -4.71123,-0.34247 -6.23376,-0.82047l-9.79795,-4.47666c-4.13827,-2.24134 -8.88778,-6.74658 -11.31705,-10.82936c-2.42927,-4.08278 -4.12292,-10.40628 -4.11849,-15.11254l0.49271,-7.15594c0.43518,-3.24205 2.6061,-9.28081 4.66954,-11.81019c2.02729,-2.48507 7.36411,-5.85076 10.37348,-6.97626l13.07469,-4.00967c-7.42433,-3.69262 -17.22701,-10.44424 -21.81454,-15.24786l-1.07683,-1.16557c-3.17991,-3.87148 -6.05307,-10.2111 -6.94757,-15.37527c-0.8945,-5.16416 -0.32097,-12.1008 1.37157,-16.81625l4.52579,-10.62085c0.90635,-1.49892 3.09436,-4.26569 4.61353,-5.10219c1.24925,-0.68788 4.07381,-1.23559 5.50244,-1.36184l13.23561,0.23941c9.27924,0.6012 24.65116,8.227 30.74384,15.2516l3.74975,4.75388c3.52208,4.58488 8.84769,14.66281 10.65121,20.15585l1.57552,5.01451c0.71602,2.27988 2.09775,6.85513 2.76346,9.15053l0.00026,0.00091c0.80183,3.99414 -0.05105,11.71049 -1.70587,15.43315zM523.70488,298.01296c0.59775,-0.37859 0.69474,-1.25728 0.19409,-1.75783l-0.00001,-0.00003c-0.63728,-2.19933 -1.96081,-6.58187 -2.64734,-8.76599l-1.57552,-5.01451c-1.17463,-3.98577 -4.98041,-11.18764 -7.61155,-14.40373l-3.74975,-4.75388c-3.026,-4.53594 -11.49434,-8.73697 -16.9367,-8.40206l-8.41161,-0.15215l-2.58096,6.05684c-0.97971,1.55561 -0.76555,3.39352 -0.19492,6.68788c0.57063,3.29435 0.9871,5.09722 2.43294,6.2327l1.07683,1.16557c3.81725,4.32508 13.11361,10.45493 18.59272,12.25969l8.27565,2.93608c3.36433,1.3577 9.19277,5.37816 11.65686,8.04093l0.69021,0.81277c0.04763,0.07616 0.09539,0.1541 0.14322,0.23367c0.00399,-0.0073 0.00797,-0.01458 0.01195,-0.02184zM513.83076,318.84708c-2.08522,0.25442 -4.15984,0.29819 -5.73882,0.0521l-1.72223,-0.5165c-1.24017,-0.57414 -3.71693,-0.56646 -4.95351,0.01536l-16.91969,5.18884c-0.62567,-0.01072 -1.3273,0.6845 -1.70343,1.14557c-0.33998,0.41676 -0.83366,1.11728 -0.65965,1.66838l-0.49271,7.15594c-0.41208,1.34278 0.23528,2.32822 1.62987,4.67206c1.39459,2.34384 1.95182,3.38289 3.32854,3.66134l5.81853,2.65847l6.43398,-5.02743c4.63731,-3.4485 11.45673,-12.2482 13.63884,-17.59939z" fill="#e11552" stroke-miterlimit="0"/><path d="M642.46027,330.70124c-0.01444,-3.90131 1.35611,-11.44983 2.74112,-15.09704l2.60136,-6.36755c2.30816,-5.07928 8.92173,-12.81592 14.15777,-16.94703c0.53059,-0.50829 1.13249,-0.95938 1.80139,-1.33771l0.28082,-0.15883c1.1511,-0.65106 2.38463,-1.02105 3.62134,-1.13196c3.31369,-0.76545 7.04556,-0.98835 9.68853,-0.37494c3.68564,0.8554 8.56295,4.12613 11.30133,7.28207l3.87921,5.524c0.89976,1.90716 2.10733,5.99152 1.70909,8.03084c-0.2718,1.39181 -1.6078,3.91352 -2.40245,5.09606l-6.6525,8.08981c0.39464,0.24115 0.75971,0.48393 1.0898,0.72657l8.37685,7.08138c1.35554,1.5724 3.57064,5.11693 3.78227,7.1563c0.20603,1.98543 -1.1346,5.81996 -2.07597,7.60623l-9.8286,13.30372c-2.18194,2.44135 -7.44454,6.11088 -10.643,6.74202c-3.0551,0.60285 -9.09024,-0.48913 -11.97329,-1.69242l-9.07956,-4.67696c-2.87391,-1.76217 -7.36116,-6.48435 -8.9745,-9.44437l-0.16471,-0.36428c-0.91433,-2.13722 -2.18755,-6.59135 -2.55002,-8.89624c0.00209,0.01626 0.00423,0.03253 0.00641,0.04881l-0.0083,-0.06192c-0.00627,-0.04679 -0.01217,-0.09355 -0.01771,-0.14026c-0.24314,-1.94876 -0.53419,-5.57719 -0.59321,-7.43071zM663.75183,317.79182l1.14351,-0.46635c1.51929,-0.47131 3.93909,-2.25389 4.83961,-3.56516l4.85283,-5.90131l-0.66449,-0.94623c0.00484,-0.01547 0.00986,-0.02985 0.01502,-0.0432c-0.12494,0.02684 -0.33091,0.02583 -0.65517,-0.04943c-0.31108,-0.0722 -0.49812,-0.15626 -0.60711,-0.23106c-0.03863,0.0218 -0.07067,0.03994 -0.0844,0.04785c0.01036,-0.00583 0.03212,-0.0178 0.03183,-0.01743c-0.11278,0.06379 -0.22635,0.12488 -0.34064,0.18329c-3.0857,1.82894 -6.78762,6.09304 -7.81697,9.24131zM660.75612,336.31868c0.07027,0.78664 0.14854,1.53028 0.22321,2.08559c0.00193,0.01389 0.00382,0.02779 0.00569,0.04171c0.00024,0.00181 0.00475,0.03532 0.00502,0.03728c0.00117,0.00884 0.00193,0.01453 0.00302,0.0227c-0.0025,-0.01859 -0.00505,-0.03717 -0.00766,-0.05572c0.09703,1.04301 0.64871,2.97035 1.11244,3.88088l0.16471,0.36428c-0.06312,0.46845 0.34483,0.89775 0.81588,0.8586l9.07956,4.67696c0.00316,0.04333 0.00748,0.07524 0.01303,0.09807l5.752,-7.78575l-3.2665,-2.76134c-0.8792,-1.16972 -3.16131,-1.92342 -4.56422,-1.5074l-6.20221,0.39634c-1.08423,0.06928 -2.14147,-0.05749 -3.13398,-0.35218z" fill="#e11552" stroke-miterlimit="0"/><path d="M654.16679,323.448c0.53053,1.91805 0.98975,4.95012 0.76363,6.34681c-0.22599,1.39587 -1.64416,4.15678 -2.74742,5.80499c-0.81847,0.85616 -2.57736,2.41741 -3.52455,3.12811l-4.47525,3.22081c-4.14208,2.68648 -13.22043,5.45892 -18.15669,5.54487l-16.99961,-0.52771c-1.67698,-0.29124 -4.96092,-1.27982 -6.26504,-2.34717c-1.22912,-1.00597 -2.82699,-3.80498 -3.45842,-5.27706l-6.71745,-23.77446c-0.39286,-2.1531 -0.46292,-6.50052 0.25169,-8.5588c0.70999,-2.04497 3.42778,-5.40208 5.05209,-6.84736l16.04781,-11.79061c1.2261,-0.64897 3.81143,-1.74577 5.18311,-1.78785c1.37417,-0.04216 4.02626,0.89775 5.29168,1.4725l12.44804,8.03989c3.74283,2.65996 9.43138,9.47904 11.3771,13.63817l0.53828,1.29773c0.95274,2.29795 2.91823,6.86804 3.93098,9.14018zM635.58688,325.95846c-1.10713,-2.53085 -2.62415,-6.07094 -3.43757,-8.03118l-0.53828,-1.29773c-0.54349,-1.84209 -2.80176,-4.54917 -4.51654,-5.41415l-7.37041,-4.76037l-9.11567,6.69744l4.51913,15.99414l11.45746,0.35567c2.02835,0.30215 5.57017,-0.77949 7.08365,-2.16328zM652.19907,335.5823l-0.00888,0.00969c0.00148,-0.00161 0.00296,-0.00323 0.00444,-0.00484c0.00148,-0.00161 0.00296,-0.00323 0.00444,-0.00484z" fill="#e11552" stroke-miterlimit="0"/><path d="M299.78744,349.93121c-1.74687,-0.82426 -4.24216,-3.41747 -5.0181,-5.09119c-0.62537,-1.34893 -1.00169,-3.88529 -1.0617,-5.39629l0.20648,-6.83063c0.37528,-5.97628 4.36986,-17.22857 7.69148,-22.45938c-0.14601,0.17088 -0.28676,0.34846 -0.42182,0.53267l0.51975,-0.70891c0.98014,-1.33687 2.25982,-2.32434 3.67893,-2.93775c5.71456,-3.76121 14.26804,-6.56856 19.91306,-6.14428l4.80954,0.80931c3.62631,0.75345 10.33077,3.58117 13.23367,5.87703c3.08078,2.43655 7.24281,8.89515 8.57943,12.59431l1.16691,3.84886c0.87382,3.99531 0.69583,9.72962 -0.54115,13.49122c-0.80316,2.44239 -2.64241,5.43075 -4.65962,7.96679c-0.63192,1.22415 -1.55535,2.3211 -2.75183,3.17886l-0.54135,0.3881c0.89342,-0.6405 1.63459,-1.41436 2.21583,-2.27495c-0.74088,0.84643 -1.48525,1.61109 -2.19281,2.24707c-5.16564,3.25011 -16.00751,6.57232 -22.01064,6.70826l-6.96642,-0.0971c-1.37523,-0.12521 -3.52728,-0.72282 -5.54876,-1.43814c-1.34924,-0.19774 -2.67381,-0.70622 -3.86537,-1.54432l-0.18215,-0.12812c-0.71425,-0.50238 -1.3332,-1.08977 -1.85278,-1.73884c-1.60197,-0.05357 -3.3404,-0.35232 -4.40061,-0.85258zM311.97672,331.50452c1.93643,0.83286 3.85569,3.58495 5.08367,6.14678l5.79402,0.08076c3.09628,0.25433 8.47237,-1.38711 11.3641,-3.39337c0.1158,-0.08323 0.28296,-0.2039 0.32516,-0.23513c0.00532,-0.00393 0.00865,-0.00645 0.00965,-0.00729c0.05276,-0.03503 0.04773,-0.03146 0.09148,-0.06345c0.13131,-0.09413 0.26428,-0.18423 0.39879,-0.27031c0.10073,-0.25942 0.02636,-0.72949 0.40117,-1.86927c0.59356,-1.80498 0.93519,-2.04193 0.41464,-2.64571l-1.16691,-3.84886c-0.16191,-1.24347 -1.54939,-2.93136 -2.5196,-3.69868c-1.14808,-0.908 -3.5878,-2.14119 -5.0547,-2.24478l-4.80954,-0.80931c-1.81974,-0.83477 -4.20727,-0.1515 -5.69913,1.39858c-0.12146,0.19527 -0.25127,0.38741 -0.3895,0.57594c-0.00003,0.00003 -0.00005,0.00007 -0.00008,0.0001c-0.03342,0.0447 -0.25823,0.34818 -0.406,0.55026c0.17871,-0.25494 0.34237,-0.51609 0.49116,-0.78238c-0.23921,0.29443 -0.44735,0.61435 -0.6164,0.95621c-1.90977,2.55547 -3.37277,6.84286 -3.71197,10.1599zM302.06838,309.65184c0.14079,-0.13724 0.28624,-0.27398 0.43615,-0.41011c-0.14914,0.13113 -0.29463,0.26785 -0.43615,0.41011zM334.62975,334.07047c0.18872,-0.06637 0.29536,-0.1268 0.36002,-0.21079c-0.12108,0.06719 -0.24112,0.13745 -0.36002,0.21079z" fill="#fcf14a" stroke-miterlimit="0"/><path d="M416.02321,412.48596l-0.12774,-8.47111c0.22899,-5.87426 4.25934,-16.35959 7.97686,-20.93305c-0.03161,0.03337 -0.06301,0.06704 -0.09422,0.101l0.0943,-0.10261c0.76511,-0.83259 1.65081,-1.48822 2.60572,-1.96471c3.15037,-2.05744 7.09789,-3.70369 10.17846,-4.01787c4.01715,-0.4097 9.94145,1.11023 13.73878,3.30036l4.31034,3.07144c2.79394,2.31505 7.03925,7.98689 7.98084,11.48107c0.94016,3.48888 0.13116,10.51698 -1.11199,13.91984l-4.20218,9.34318c-0.95553,1.48573 -3.24092,4.21961 -4.8045,4.99871c-1.56961,0.7821 -5.14331,0.9542 -6.91154,0.81756l-9.42758,-2.17546c-1.46771,-0.47044 -3.43908,-1.49431 -5.32362,-2.69202c-2.10124,1.81329 -4.98684,2.60491 -7.83018,1.97481c-4.07074,-0.90211 -6.98888,-4.4821 -7.05175,-8.65113zM435.05609,398.18896c1.4262,1.13949 2.67655,2.43575 3.39767,3.43684c0.0273,0.07285 0.06206,0.15411 0.10252,0.24081c-0.03186,-0.07894 -0.06491,-0.15767 -0.09918,-0.23618c0.00001,0.00001 0.00002,0.00002 0.00003,0.00004c0,0 0.00007,0.0001 0.00008,0.00011c0.03643,0.08283 0.07151,0.16591 0.10525,0.24922c0.22326,0.4748 0.61264,1.10646 0.88511,1.41706l0.73704,0.95961c-0.13435,0.25922 -0.08866,0.28859 0.09138,0.05874l3.27103,0.75481l1.61147,-3.58297c0.47977,-0.42791 0.30078,-1.2863 0.14804,-1.85313c-0.15132,-0.56154 -0.41967,-1.38296 -1.04649,-1.50547l-4.31034,-3.07144c-0.21777,-0.67094 0.03083,-0.20503 -1.46678,-0.05229c-0.58564,0.05973 -0.92152,0.01742 -1.11909,-0.01412c-0.07714,0.09085 -0.15638,0.18056 -0.23773,0.26909c0,0 -0.00016,0.00018 -0.00047,0.00051c-0.0098,0.01066 -0.04503,0.04894 -0.07089,0.07705c0.00132,-0.00144 0.00263,-0.00288 0.00394,-0.00433c0.10262,-0.11264 0.20184,-0.22719 0.29768,-0.34352c-0.30029,-0.04835 -0.27283,-0.06747 -0.3305,0.36056c-0.74096,0.6817 -1.42627,1.69952 -1.96975,2.83901zM423.88087,383.07279c0.66187,-0.58483 1.41387,-1.16051 2.22567,-1.71023c-0.80736,0.43881 -1.56006,1.00934 -2.22567,1.71023z" fill="#fcf14a" stroke-miterlimit="0"/><path d="M358.36462,492.2083c-0.68901,1.61514 -2.32029,4.71255 -3.30073,6.16913c-1.51787,2.255 -5.90439,5.37095 -8.39329,6.48754l-4.97481,1.74693c-3.88206,1.1206 -11.75107,1.47468 -15.60145,0.27121c-3.6183,-1.13093 -9.81507,-5.25347 -12.48649,-7.94771l-3.51962,-3.85403c-2.37009,-3.13005 -4.54079,-8.24784 -4.86163,-11.90042c-0.32084,-3.65257 0.92443,-9.07042 2.71256,-12.56572l0.16146,-0.25477c3.02276,-4.14313 10.8776,-10.10044 15.86185,-11.26118c4.56812,-1.06383 13.69409,-0.34618 18.16793,1.07458l5.56479,2.01215c3.68269,1.52853 9.91737,6.12071 12.46936,9.18436l1.16451,1.53797c1.34228,2.48807 2.63539,6.59582 2.4422,8.8521c-0.19319,2.25628 -2.16578,6.08441 -3.91149,8.30808l-0.99972,0.93488zM342.42922,484.0955c0.18947,-0.96071 1.00151,-2.41318 1.77141,-3.58483c-0.85507,-0.67177 -1.84959,-1.22529 -2.62613,-1.39728l-5.56479,-2.01215c-1.94488,-0.90016 -5.88518,-0.95534 -7.96461,-0.47108c-1.66331,0.38735 -4.1096,1.74336 -4.74041,3.36547l-0.16146,0.25477c-0.50768,0.12741 -0.11211,-0.08422 0.01435,1.35551c0.12646,1.43972 -0.29994,1.30029 0.22218,1.33725l3.51962,3.85403c0.85831,1.17087 3.18721,2.47496 4.56487,2.90556c1.14558,0.35806 3.21119,0.53944 4.26779,-0.07419l4.60176,-1.61593c0.47536,-0.76352 1.12206,-1.96186 1.38328,-2.64969l1.21754,-2.96099c-0.14645,0.41582 -0.41789,1.24975 -0.50538,1.69356z" fill="#fcf14a" stroke-miterlimit="0"/><path d="M499.40011,304.23341l0.90035,-4.53074c1.02704,-4.13809 4.95646,-11.39944 7.85885,-14.5227l9.33911,-9.14553c1.23914,-0.93243 3.92246,-2.52834 5.43663,-2.79641c1.65435,-0.29288 4.99317,0.47559 6.59138,1.04968l16.26315,8.69686c1.56751,1.11881 4.35547,3.78776 5.1228,5.53671c0.79524,1.81259 0.79552,5.81967 0.49891,7.79551l-4.53716,15.45099c-0.90856,2.1283 -3.43062,5.98109 -5.34514,7.25222c-1.43745,0.95438 -4.68101,2.09908 -6.37048,2.46508l-11.43566,1.75531c-2.62609,0.29641 -7.81818,-0.03945 -10.38419,-0.67173l-1.23318,-0.35661c-2.17669,-0.8261 -6.00552,-3.29257 -7.65766,-4.93294l-0.98498,-1.15119c-0.68841,-1.04943 -1.77503,-3.10588 -2.2111,-4.60391c-1.13839,-2.29637 -1.79259,-5.46131 -1.85163,-7.29059zM517.84756,303.75288c0.2086,0.51859 0.39713,1.04318 0.56222,1.55481c0.66861,0.27193 1.92642,0.34463 2.58215,0.14106l9.4015,-1.44308l2.24411,-7.64217l-6.57911,-3.51824l-5.30519,5.19522c-1.28399,0.97634 -2.68299,3.56161 -2.79799,5.17053z" fill="#fcf14a" stroke-miterlimit="0"/><path d="M641.45096,397.7414l1.45395,3.45358c0.59832,1.45421 1.60671,4.42667 1.99193,5.95119c0.67122,2.65636 -0.08123,8.03381 -1.00121,10.62762l-2.03392,4.37279c-2.02478,3.73722 -7.63783,9.7968 -11.45326,11.65194c-3.58103,1.74117 -11.29347,2.90913 -15.27098,2.65246l-2.98405,-0.32537c-6.86553,-1.44341 -16.70652,-9.24021 -19.68198,-15.5936l-2.4203,-6.85571c-0.4483,-1.79937 -0.83356,-5.47701 -0.42663,-7.27758c0.50126,-2.21796 3.34951,-5.81979 5.06565,-7.34623l6.40469,-4.24847c5.59356,-3.32236 17.64021,-5.81801 24.09331,-4.99131l9.20323,1.64755c1.90669,0.7889 4.92314,2.42568 5.7709,3.54107c0.45005,0.59212 1.00168,1.82408 1.39195,3.14993c-0.0365,-0.15038 -0.07144,-0.28844 -0.10328,-0.40986zM627.25459,410.87077c-0.248,-0.8349 -0.60971,-1.90465 -0.88331,-2.5601l-4.35504,-0.77963c-3.04142,-0.87299 -8.52711,0.26346 -10.97139,2.2729l-2.65118,1.75863l1.05109,2.97729c0.07778,2.29516 2.40766,4.14108 4.65977,3.69184l2.98405,0.32537c1.46177,0.33641 4.10931,-0.29508 5.44897,-0.94645c1.10526,-0.5374 2.72048,-1.83147 3.00326,-3.05536z" fill="#fcf14a" stroke-miterlimit="0"/><path d="M625.23897,320.08419l2.99062,-3.14985c2.91425,-2.58112 9.69356,-5.62746 13.55862,-6.09268l4.29427,-0.14313c3.58365,0.21695 10.2513,2.36201 12.87959,4.78455c2.52216,2.32472 5.34317,8.43511 6.02145,11.80911l1.16706,9.93268c-0.09554,1.58572 -0.59939,4.7814 -1.47224,6.07886c-0.75163,1.11729 -3.02479,2.68536 -4.20484,3.36587l-12.78677,4.98091c-1.85638,0.5023 -5.6681,0.95824 -7.52733,0.51172c-1.92527,-0.46238 -5.18873,-2.74065 -6.63323,-4.11385l-4.73818,-5.66857c-1.48901,-2.13634 -3.35402,-6.84945 -3.73001,-9.42621l-0.01881,-0.32755c-0.00549,-0.11737 -0.01004,-0.2447 -0.01369,-0.38029c-0.53492,-0.60443 -0.99398,-1.2874 -1.35796,-2.03806c-1.63527,-3.37252 -1.00925,-7.40544 1.57144,-10.12353zM643.09033,328.80827l-0.01958,0.18683c-0.07191,0.5633 -0.10443,1.61858 -0.07748,2.31276l1.79931,2.15263l2.66969,-1.03994l-0.35576,-3.02785c0.24238,-0.33596 -0.11922,-0.46722 -0.34377,-0.67419c-0.03771,-0.03475 -0.04439,-0.08503 -0.04082,-0.12639c-0.00932,0.02465 -0.02225,0.05639 -0.03981,0.09643z" fill="#fcf14a" stroke-miterlimit="0"/><path d="M695.69858,295.74107l22.6962,-12.80185c4.67835,-2.50145 14.64735,-5.39446 19.93799,-5.78601l0.96125,-0.04937c3.51807,0.1595 8.38185,1.52211 11.08912,3.28693c2.70728,1.76482 5.91682,5.66505 7.48251,8.81955l0.92198,2.41939c0.76307,2.86156 0.93717,8.27448 0.03592,11.65677l4.25415,7.48736c-0.10089,0.82751 0.56894,0.73822 1.23485,0.80889c3.89992,0.41388 10.9984,3.37663 14.2312,5.60283l12.28059,9.22766c0.91308,0.88902 2.60445,2.82555 3.08236,3.99574c0.5884,1.44072 0.50976,4.63769 0.31247,6.20209l-4.3587,14.7649c-1.10489,2.84668 -4.41556,7.85022 -6.91159,9.59087c-2.13114,1.48619 -6.9584,3.25584 -9.51384,3.74102l-1.45709,0.20584c0.03491,1.14606 0.00408,2.21325 -0.08874,3.01053l-1.74349,8.7264c-0.98213,3.94182 -4.55208,11.03243 -7.41074,13.91239c-2.76317,2.78376 -9.48539,6.53561 -13.22823,7.71832l-6.04009,1.65376c-3.92615,0.65437 -9.54258,0.14889 -12.82174,-1.37937c-3.27917,-1.52826 -7.27824,-5.50409 -9.30208,-8.93147l-2.15725,-4.68762c-0.34711,-1.29787 -0.6042,-3.32443 -0.61062,-5.28572l-1.73081,-3.13487c-1.71413,-3.33078 -6.52954,-8.76263 -9.63082,-10.86368l-1.84879,-1.33285c-5.92831,-4.45773 -15.0824,-15.59458 -18.30818,-22.2737l-2.9452,-6.42493c-1.92472,-4.70055 -3.13519,-14.42998 -2.42094,-19.45886l0.68117,-3.69581c0.72175,-2.76239 3.32837,-7.6693 5.21324,-9.81383l0.39109,-0.38415c1.04698,-0.91092 2.87114,-2.09172 4.6438,-3.06226c0.96064,-1.31458 2.13384,-2.60899 3.07907,-3.46487zM707.96655,309.48726c-1.35279,1.96069 -4.15655,4.15239 -5.97998,5.16762l-1.189,0.33392c-0.13301,-0.10949 -0.23719,-0.04914 -0.20835,0.12071l-0.39109,0.38415c-0.24346,-0.05396 -0.30592,0.06362 -0.12491,0.23514l-0.68117,3.69581c-0.63403,2.28641 -0.09311,6.63418 1.08184,8.69553l2.9452,6.42493c1.99712,4.71459 8.23303,12.3012 12.47183,15.17321l1.84879,1.33285c4.5727,3.43132 12.0038,11.81369 14.86221,16.76475l2.60838,4.72434c0.48744,1.4851 0.8889,3.91015 0.91995,6.16017l1.54736,3.36235c0.12308,0.00746 0.30698,0.05477 0.57098,0.17781c0.264,0.12304 0.4185,0.23343 0.50337,0.32289l6.00136,-1.64316c1.58389,-0.27573 4.07906,-1.90199 5.20656,-3.03789c1.03201,-1.0397 2.43476,-3.28449 2.53467,-4.75841l1.63934,-8.2051c-0.84587,-3.2221 0.4675,-8.76908 1.8039,-11.3645c0.35056,-0.47491 0.747,-0.91418 1.18358,-1.31147c2.24318,-1.81526 7.09885,-4.17481 9.98085,-4.81919l3.81505,-0.53893c0.50414,0.04899 1.26737,-0.36362 1.69413,-0.65398l2.65476,-8.99289l-7.53532,-5.66206c-1.12334,-1.047 -3.7994,-1.93251 -5.3179,-2.09366c-4.7525,-0.50437 -12.19285,-5.90623 -14.98549,-9.81626l-4.83131,-8.50318c-1.3302,-3.30022 -2.07368,-10.03509 -0.7955,-13.56134l-0.71415,-1.87404c-0.11252,-0.02289 -0.28424,-0.09542 -0.53304,-0.25761c-0.41595,-0.27115 -0.52401,-0.3582 -0.52267,-0.38006l-0.77471,0.03979c-3.24397,0.0468 -9.25301,1.79062 -12.01809,3.48765z" fill="#e11552" stroke-miterlimit="0"/><path d="M670.70404,497.19536l6.74229,-14.72216c1.18396,-2.26835 4.23225,-6.30409 6.25751,-7.86233c2.20571,-1.69708 7.41331,-3.46139 10.17771,-3.83727l5.01058,-0.3276c3.7953,0.04812 9.02794,1.35531 12.24591,3.17143c3.21797,1.81612 7.04155,5.61999 9.04438,8.84417l1.75164,3.38199c1.43397,3.16017 2.91585,9.80428 2.60509,13.25594c-0.14883,1.65306 -0.83137,3.95597 -1.718,6.21952c0.54918,-0.13879 1.05847,-0.25302 1.51112,-0.33682l19.63571,-3.2075c1.89882,-0.23958 5.70203,-0.2539 7.58005,0.10818c2.65388,0.51166 7.08909,3.53862 8.97873,5.49208l2.90245,3.71412c2.06806,3.29192 3.75753,8.55159 3.64912,12.07961c-0.10841,3.52802 -2.11762,8.67404 -4.3839,11.83278l-0.88246,0.99651c-3.23069,3.26968 -10.89367,7.83237 -15.41332,8.6311c-0.70109,0.1239 -1.16929,-0.24098 -0.69594,0.63085l-1.48781,5.3147c2.42132,2.5824 5.36939,7.29994 6.47537,10.08636l8.09093,23.34087c0.66153,2.36364 1.17141,7.19063 0.72652,9.59983c-0.54049,2.92684 -3.94093,7.7406 -6.16478,9.74498l-4.86971,3.51562c-3.78723,2.25514 -9.71231,3.88932 -13.8622,3.64561c-4.14901,-0.24366 -9.87207,-2.58631 -13.36904,-5.26391c0.01203,0.01119 0.02409,0.02236 0.03619,0.0335l-0.03974,-0.0366c-0.24388,-0.22458 -0.47253,-0.45951 -0.68591,-0.7035c-4.54283,-4.85162 -10.19089,-14.58237 -12.27525,-21.09509l-8.45871,16.57726c-2.07465,3.61946 -7.35159,8.92588 -11.59083,11.9398c-0.61907,0.53866 -1.32274,1.00099 -2.10326,1.36562l-0.15963,0.07457c-1.27322,0.5948 -2.61461,0.86595 -3.93139,0.84713c-2.49336,0.32472 -5.12005,0.31597 -6.92074,-0.1802c-2.79472,-0.77006 -6.65845,-3.47316 -8.85357,-5.84773c-0.34643,-0.46053 -0.64783,-0.95326 -0.90004,-1.47142c-1.85925,-4.38736 -2.78812,-12.89112 -1.85018,-17.53778l3.51684,-12.69059c0.6122,-2.15589 1.75895,-5.32188 3.00849,-8.42228c-5.47578,-0.64451 -11.92258,-2.2706 -15.51823,-4.1061l-2.4574,-1.37368c-5.74277,-3.31433 -15.61395,-11.81716 -19.74234,-17.00566l-1.38487,-1.79032c-4.21075,-6.56965 -5.56644,-20.40149 -2.71139,-27.66367l3.81371,-7.63996c1.1272,-1.61453 3.83869,-4.49994 5.64106,-5.23892c1.43742,-0.58935 4.55628,-0.81634 6.11657,-0.74945l17.63153,2.57936c1.76431,0.32067 4.0842,1.05942 6.479,2.00592c0.7507,-3.8012 1.75607,-7.48507 2.80215,-9.91886zM684.83378,521.70361c0.19774,3.52298 -1.68146,6.83652 -4.80645,8.4751c-3.12499,1.63857 -6.91923,1.29986 -9.70457,-0.86632c-0.39275,-0.3056 -0.79031,-0.61964 -1.10425,-0.87295l-2.61751,-2.11506c-1.6465,-1.53572 -5.53831,-3.23854 -7.78363,-3.40565l-12.91163,-1.88887l-1.58075,3.16669c-1.95046,2.36464 -1.52846,6.67022 0.844,8.61117l1.38487,1.79032c2.88337,3.8761 10.02717,10.02963 14.28761,12.30706l2.4574,1.37368c2.46829,1.62611 7.84256,2.71183 10.74853,2.17144l2.73388,-0.30484c1.17047,0.08585 3.0556,-0.75923 3.77026,-1.69016l3.76172,-3.37873c3.53793,-3.17773 8.9375,-3.0546 12.32691,0.28109c3.3894,3.33569 3.59876,8.73261 0.47796,12.32085l-2.60665,2.99707c-0.99614,1.10285 -2.67105,3.52776 -3.34982,4.84982l-1.76755,3.28931c-1.63137,2.97699 -4.14241,9.23269 -5.02209,12.51141l-3.51684,12.69059c-0.27564,0.47919 -0.38065,1.12321 -0.33925,1.82094c1.43694,-1.10687 2.77329,-2.66013 3.26928,-3.99913l19.74582,-38.69757c1.72445,-3.37956 5.38311,-5.3147 9.14715,-4.83813c3.76404,0.47657 6.82496,3.26248 7.65272,6.96518l5.10655,22.84233c0.70405,4.05471 4.41888,10.62453 7.62967,13.57133c0.12359,0.10227 0.24516,0.20838 0.36455,0.31833c0.00078,0.00073 0.02987,0.0275 0.03067,0.02823c0.00286,0.00265 0.0041,0.00379 0.00592,0.00547c-0.11726,-0.10788 -0.23661,-0.21205 -0.35791,-0.31254c0.10737,0.09759 0.21415,0.19108 0.32022,0.28025c0.28361,0.77943 0.44222,0.43226 2.23571,0.53759c1.79289,0.10529 1.90382,0.4732 2.27085,-0.27077l3.72621,-2.69009l-7.98026,-23.0216c-0.2117,-1.06596 -1.42895,-2.61839 -2.23768,-3.32889c-3.47173,-3.05002 -5.45102,-11.77442 -4.87052,-16.41078l1.79421,-6.40922c2.14897,-5.11378 9.47729,-12.54598 14.89708,-13.50378c1.60124,-0.28298 4.17996,-1.45539 5.07008,-2.83913l0.80508,-0.90913c-0.03772,-0.10788 -0.06252,-0.27923 -0.05452,-0.53963c0.01136,-0.36979 0.02443,-0.53672 0.03848,-0.59806l-1.98125,-2.5353c-0.10336,0.00936 -0.19752,0.02729 -0.27422,0.05677l-19.63571,3.2075c-1.7068,0.20822 -4.87511,1.32224 -6.33663,2.22804l-0.43208,0.24413c-3.11989,1.56654 -9.73069,3.16926 -13.2216,3.20542l-1.14528,-0.04423c-2.81154,-0.6154 -6.97833,-2.42344 -8.4723,-4.17434c-1.49397,-1.7509 -2.62377,-6.15029 -2.78905,-9.02365l0.01158,-0.09648c0.88129,-2.57816 3.57091,-6.85976 6.15829,-8.70365l4.34645,-5.67069c0.72078,-0.64802 1.17273,-2.27691 1.25817,-3.22587c0.08476,-0.94141 -0.06642,-2.60705 -0.66101,-3.36356l-1.75164,-3.38199c-0.0023,-0.64724 -0.35912,-0.57256 -1.90793,-1.44666c-1.54881,-0.8741 -1.66931,-1.21817 -2.22458,-0.8856l-5.01058,0.3276c-0.17651,-0.1836 -0.24563,0.04156 -0.37573,0.14166c-0.31056,0.23895 -0.82524,0.67994 -0.86843,1.09115l-6.74229,14.72216c-1.55472,3.07791 -2.78459,9.58878 -2.45974,13.02173zM721.23895,605.24118c-0.18568,-0.18209 -0.37374,-0.37353 -0.56382,-0.57372c0.17774,0.19765 0.36569,0.38912 0.56382,0.57372zM665.41651,606.9648c0.10434,0.17494 0.21368,0.34506 0.32773,0.51028c0.09117,0.17887 0.18888,0.35592 0.29322,0.53086z" fill="#e11552" stroke-miterlimit="0"/><path d="M230.80084,479.26636c-0.02617,-0.16932 -0.02879,-0.28839 -0.01674,-0.36822l-10.88523,-11.82393c-4.2701,-5.1265 -8.56676,-16.35472 -8.99572,-23.21007c-0.00707,-0.26376 -0.00254,-0.52756 0.01355,-0.79064c-0.04735,0.30005 -0.08002,0.60533 -0.09721,0.91515l0.10727,-1.93328c0.11805,-2.12748 0.96583,-4.04125 2.28696,-5.51191c1.31398,-2.52761 2.99336,-4.89311 4.7202,-6.41242c3.02681,-2.66306 8.71875,-4.81763 13.11517,-5.21583l2.80676,0.0095c5.28875,0.30577 14.92595,3.67811 18.89366,7.17651c3.42298,3.01811 8.85603,10.20242 10.97514,14.24495l11.15027,22.2387c1.38765,2.95152 3.20455,9.13928 3.46948,12.3889c0.3159,3.87481 -1.82776,11.15901 -3.78505,14.52745l-8.33645,12.42109c-1.6926,2.06978 -5.76998,5.42494 -8.30717,6.22998c-2.63013,0.83453 -8.07815,0.28149 -10.72225,-0.55834l-8.1641,-3.56099c-2.68007,-1.48244 -7.1812,-5.47719 -8.48262,-8.23475c-0.93442,-1.97994 -2.08015,-6.1768 -2.39699,-8.3439l-0.04775,-0.40099c-0.1765,-2.94278 0.73719,-8.62465 1.82738,-11.36374l0.94105,-2.01237c-0.01449,-0.069 -0.03635,-0.19565 -0.06961,-0.41083zM246.23467,489.31441c-0.35698,0.35558 -0.48645,1.16074 -0.25895,1.61031l0.04775,0.40099c0.02504,0.62038 0.34256,1.6716 0.63157,2.39563l5.74025,2.50377l7.21816,-10.75486c0.72098,-0.62211 0.86508,-2.11857 0.79046,-3.03387c-0.12559,-1.54048 -0.85329,-4.43907 -1.61973,-5.78377l-11.15027,-22.2387c-1.20312,-2.5835 -4.65204,-6.92735 -6.78879,-8.81136c-1.59203,-1.40372 -4.92676,-2.95861 -7.05023,-2.67794l-2.80676,-0.0095c-0.62686,-0.41521 -0.08979,-0.21538 -1.16427,0.72997c-1.08664,0.95605 -0.75221,0.46876 -0.92641,0.5924c0.13412,3.82826 1.78095,8.45789 4.24414,10.64534l11.1435,12.10448c1.91161,2.52805 3.86464,6.68344 4.30455,9.52987c0.43991,2.84643 -0.16756,7.39753 -1.22681,10.38472z" fill="#e11552" stroke-miterlimit="0"/><path d="M712.27309,340.75413c-0.78551,-1.96148 -0.49662,-6.26188 0.1576,-8.88311l0.9065,-1.98457c1.80191,-3.33973 6.86469,-8.62046 10.12555,-10.56145l6.43735,-3.27489c2.59216,-1.03663 8.00915,-2.01057 10.73353,-1.45517c2.75675,0.562 7.38689,3.65707 9.36539,5.67455l2.25712,2.77751c1.88074,2.93773 3.54912,7.6788 3.5145,10.74268c-0.03434,3.0398 -2.26749,8.25629 -4.13598,11.13051c0.14927,-0.14411 0.29464,-0.29434 0.43577,-0.45068l-0.38164,0.42275c-0.72313,0.80103 -1.55752,1.44186 -2.45853,1.92021c-3.88104,2.65077 -9.64972,5.28352 -13.3432,5.91312l-4.40163,0.47287c-2.24298,0.04647 -6.55656,-0.77064 -8.62715,-1.63421l-1.18088,-0.61693c-1.23062,-0.8611 -3.51575,-2.84296 -4.23102,-4.14944c-0.1001,-0.18284 -0.24411,-0.4696 -0.38036,-0.75015c-2.00671,-1.54811 -4.1647,-3.72493 -4.79291,-5.29361zM738.28704,334.39886c0.08571,-0.20742 -0.04261,-0.57282 -0.19261,-0.80428c0.11105,-0.18402 0.19224,-0.44146 0.12391,-0.59444c-0.17588,0.23138 -0.33896,0.46905 -0.48929,0.71209zM737.78316,333.47342c-0.04569,0.04575 -0.09222,0.0903 -0.13953,0.13368l0.03012,0.03707c0.06272,-0.08794 0.12722,-0.17503 0.19351,-0.26124c-0.03844,-0.00292 -0.06861,0.024 -0.0841,0.0905zM737.64363,333.6071l-0.74799,-0.92045l-4.55275,2.31613l1.6215,-0.1742c1.24026,0.10693 2.64745,-0.27574 3.67925,-1.22148z" fill="#fcf14a" stroke-miterlimit="0"/><path d="M698.23925,551.00833c-4.3527,0.04328 -11.74345,-3.03082 -14.78151,-6.1482l-0.70809,-1.01195c-2.20745,-4.03858 -3.33253,-12.55057 -2.25015,-17.02398l0.27167,-0.74956c2.1547,-4.45792 8.7978,-11.1831 13.55145,-12.47226c4.35448,-1.18091 13.00339,0.09968 17.13149,1.94784l7.74671,4.14446c1.82109,1.33463 4.95521,4.58665 5.66573,6.70604c0.765,2.28192 -0.05614,7.09815 -0.90282,9.38454l-3.54687,6.26303c-1.96847,2.68457 -7.08173,6.46097 -10.22652,7.55281l-0.42555,0.09371c-1.50362,0.30943 -4.37921,0.65345 -6.19849,0.75384c-0.19032,0.0142 -0.38232,0.0225 -0.57582,0.02471c-0.00051,0 -0.00102,0 -0.00152,-0.00001v0v0c0.16816,-0.00231 0.33518,-0.00921 0.50095,-0.0206c-0.18229,0.00952 -0.35326,0.01648 -0.51033,0.02056c-0.89857,-0.00291 -2.66229,0.15956 -3.53809,0.32627zM695.16003,533.27366c0.45894,0.4286 1.36555,0.87382 2.16688,1.10566c-2.13474,1.66887 -3.49456,4.27889 -3.46126,7.19757c0.05671,4.97024 0.07945,4.96998 0.02274,-0.00026c-0.03327,-2.91578 1.32382,-5.52352 3.4549,-7.1926c0.31587,0.0904 0.61472,0.14728 0.86253,0.15648l-0.36398,-0.52017c1.33134,-0.9031 2.91841,-1.45927 4.63266,-1.53701c-0.02434,0.00086 -0.04894,0.00177 -0.07379,0.00272c-1.68805,0.08603 -3.25116,0.63608 -4.56605,1.52403l-0.33693,-0.48151c-0.65909,-0.05809 -0.69682,-0.34353 -0.07545,-0.57087l0.01653,-0.04562c-0.40338,0.05076 -0.76983,0.10241 -1.07654,0.15283zM697.43881,532.91209c1.53908,-0.19368 3.61567,-0.37454 4.9619,-0.42603c0.11994,-0.00611 0.24051,-0.00988 0.36166,-0.01127c0.00029,0.00001 0.00058,0.00001 0.00087,0.00002c-0.09663,0.00133 -0.19289,0.00418 -0.28874,0.00853c0.10257,-0.00363 0.20058,-0.00646 0.29343,-0.00845c0.47241,0.00812 1.21344,-0.05154 1.89874,-0.14183l-1.70369,-0.91147c-0.89929,-0.84147 -2.78064,-0.75817 -3.92905,-0.44673c-0.74923,0.20319 -1.55186,0.33078 -1.33999,1.23328z" fill="#fcf14a" stroke-miterlimit="0"/><path d="M199.21881,440.93856c-2.37192,-0.48527 -5.90712,-1.79828 -7.2578,-3.0188c-1.35067,-1.22052 -3.01396,-4.60507 -3.73626,-6.91586l-0.36928,-2.70325c-0.21821,-4.15654 1.81232,-11.8156 4.06107,-15.31811l2.30579,-3.00762c2.84515,-3.14185 9.79312,-7.50548 13.98363,-8.04008c4.01408,-0.5121 11.65688,1.52632 15.19606,3.50745c-0.00763,-0.00503 -0.01527,-0.01006 -0.02292,-0.01507l0.01613,0.01058c1.13547,0.74426 2.04742,1.70144 2.71773,2.78442c1.53562,1.8468 2.87553,3.95642 3.39681,5.62653c0.43006,1.37783 0.58624,3.29827 0.52717,5.24785c0.27656,1.7018 0.068,3.50138 -0.70452,5.1864l-0.32177,0.70186c-0.00162,0.00353 -0.00324,0.00706 -0.00487,0.01059c-0.5006,1.08827 -1.19107,2.02916 -2.01407,2.80138c-2.68717,3.26023 -6.73973,6.89198 -9.64689,8.44618l-5.41612,2.46799c-1.49653,0.63995 -4.59132,1.58767 -6.18957,1.89545l-1.73395,0.29188c-0.72878,0.08393 -2.19411,0.17515 -2.92347,0.10637c-0.01374,-0.0013 -0.04096,-0.00504 -0.05482,-0.00353zM209.73223,419.9312c-0.296,0.0798 -0.58262,0.19512 -0.80705,0.36775zM223.40224,405.44245c0.87716,0.7422 1.80539,1.69568 2.67301,2.73453c-0.66365,-1.06139 -1.56039,-2.00045 -2.67301,-2.73453z" fill="#fcf14a" stroke-miterlimit="0"/><path d="M207.29449,440.90108l0.37672,0.12348c2.15244,0.70554 3.85851,2.14537 4.93153,3.95072c0.20249,0.24402 0.37073,0.47547 0.49363,0.68665c0.75372,1.29506 1.29136,4.577 1.37312,6.67256l-0.04385,0.32731c-0.07036,0.3203 -0.08528,0.96381 -0.02985,1.28702l0.30154,3.46454c0.23844,3.00381 0.15361,9.00348 -0.16966,11.99935l-1.42533,12.32925c-0.40842,3.33334 -1.82012,9.87183 -2.86695,13.06269c-1.28871,3.92813 -5.95352,10.54473 -9.00427,13.33995l-15.85491,13.36318c-1.4771,1.02105 -4.67232,2.64239 -6.44055,2.90396c-2.15957,0.31945 -6.38896,-0.9283 -8.3699,-1.89469l-6.98633,-4.69894c-3.48798,-2.70133 -7.29082,-7.58115 -9.03488,-11.70063c-1.74406,-4.11948 -2.60116,-10.24644 -2.11316,-14.63107l0.24083,-1.34076c1.41727,-7.33779 6.94348,-20.91803 11.05243,-27.1605l4.11965,-6.08405c3.11967,-4.3213 10.99069,-11.05728 15.74203,-13.47198l2.76817,-1.30357c3.24637,-1.35154 10.00485,-2.52818 13.51697,-2.35327l3.33513,0.31904c0.69261,0.08254 1.75179,0.27202 2.67027,0.46795c0.47356,0.07437 0.94738,0.18765 1.41763,0.34179zM196.64831,457.63191c-0.97093,0.09165 -2.02047,0.38148 -2.62512,0.77834l-2.76817,1.30357c-2.73387,1.1102 -6.98694,4.74996 -8.50613,7.27952l-4.11965,6.08405c-3.22502,4.58861 -7.34529,14.71387 -8.24055,20.25052l-0.24083,1.34076c-0.50194,1.12661 -0.02584,2.07344 0.97236,4.43118c0.9982,2.35775 1.34668,3.3586 2.50498,3.78232l3.29224,2.21433l12.7133,-10.7153c1.39125,-0.94869 2.97934,-3.59585 3.50154,-5.18758c0.76408,-2.32899 1.83042,-7.08125 2.08915,-9.51879l1.42533,-12.32925c0.26463,-2.08954 0.32381,-6.27527 0.11837,-8.37146z" fill="#e11552" stroke-miterlimit="0"/><path d="M202.3644,437.9112c0.72729,-0.75813 1.75421,-1.57936 2.88811,-2.35016c1.73278,-2.00487 4.33054,-3.22906 7.18393,-3.11146l0.68558,0.02826c3.18223,0.13115 5.91026,1.89936 7.40578,4.4594c0.97455,0.91308 1.82899,1.85409 2.41642,2.70661l0.41073,0.94172c0.66745,1.54455 1.85474,4.68937 2.37459,6.28965l2.73109,8.50495c1.96585,6.27977 4.09522,19.13779 4.25875,25.71603l0.29528,16.85359c0.00163,2.84824 -0.67904,8.46306 -1.45422,11.20336c-0.81838,2.893 -4.02914,6.67695 -7.14998,9.30944c-0.9128,1.04206 -2.08061,1.88825 -3.45755,2.43264l-0.01026,0.00406c1.36916,-0.54131 2.53155,-1.38102 3.44205,-2.41499c-1.21227,1.02028 -2.40994,1.86591 -3.44744,2.41711c-3.26568,0.85393 -8.17863,1.00049 -10.95258,0.06588c-2.77418,-0.93468 -6.59761,-4.02643 -8.68088,-6.68453l-0.70495,-1.16268c-2.45635,-4.30381 -5.34743,-13.54396 -5.78217,-18.4803l-1.86177,-30.2751c-0.10887,-5.67456 2.7584,-16.18183 5.73453,-21.01454zM211.03977,460.00285c-0.19826,1.20352 -0.25395,2.34815 -0.1188,3.25699l1.86177,30.2751c0.03035,2.06916 0.91341,5.40691 2.00276,7.94729c0.16822,-1.18613 0.27172,-2.40514 0.23191,-3.21713l-0.29528,-16.85359c-0.04398,-5.26547 -1.74377,-15.52948 -3.39958,-20.52802z" fill="#e11552" stroke-miterlimit="0"/><path d="M421.47294,597.79836c10.39136,-7.19402 19.82774,1.2323 26.17569,-1.77462c3.0733,-1.45578 9.85437,-40.06012 -7.86102,-32.05413c-6.12835,2.76954 -3.4321,21.19335 -3.064,25.5102c0.1705,1.99952 2.37177,5.0284 0.61003,5.98935c-4.69112,2.55879 -10.57379,1.5528 -15.86069,2.32919z" fill="#000000" stroke-miterlimit="3"/><path d="M578.52706,597.79836c-10.39136,-7.19402 -19.82774,1.2323 -26.17569,-1.77462c-3.0733,-1.45578 -9.85437,-40.06012 7.86102,-32.05413c6.12835,2.76954 3.4321,21.19335 3.064,25.5102c-0.1705,1.99952 -2.37177,5.0284 -0.61003,5.98935c4.69112,2.55879 10.57379,1.5528 15.86069,2.32919z" fill="#000000" stroke-miterlimit="3"/><path d="M492.45785,624.4177c0.33274,-1.77462 0.24276,-3.68397 0.99823,-5.32387c2.21261,-4.80299 4.56628,-6.14089 6.54392,-5.61753c1.97764,-0.52335 4.33131,0.81455 6.54392,5.61753c0.75546,1.6399 0.66548,3.54925 0.99823,5.32387c-2.35673,1.4503 -4.31603,2.27904 -5.92478,2.6317c-0.47622,0.14243 -1.01398,0.21428 -1.61737,0.20283c-0.60339,0.01145 -1.14115,-0.06039 -1.61737,-0.20283c-1.60875,-0.35265 -3.56804,-1.1814 -5.92478,-2.6317z" fill="#000000" stroke-miterlimit="3"/></g></g></g></svg>