<svg version="1.1" xmlns="http://www.w3.org/2000/svg" xmlns:xlink="http://www.w3.org/1999/xlink" viewBox="0 0 1000 1000"><g fill="none" fill-rule="nonzero" stroke="#000000" stroke-width="6" stroke-linecap="round" stroke-linejoin="round" stroke-miterlimit="0" stroke-dasharray="" stroke-dashoffset="0" font-family="none" font-weight="none" font-size="none" text-anchor="none" style="mix-blend-mode:normal"><g fill="none" font-family="none" font-weight="none" font-size="NaN" text-anchor="start"><g font-size="NaN"/></g><path d="M399.97478,256.00498c0.04574,-0.0389 0.09182,-0.07791 0.13821,-0.11705c-0.04635,0.03847 -0.09243,0.07749 -0.13821,0.11705zM479.90693,225.81918c0.02717,-0.00181 0.05441,-0.0036 0.08172,-0.00538c-0.02722,0.00167 -0.05446,0.00347 -0.08172,0.00538zM574.80053,263.12387c0.03017,0.01804 0.06048,0.03593 0.09093,0.05367c-0.03017,-0.01786 -0.06048,-0.03575 -0.09093,-0.05367zM668.57108,346.88314c0.01801,0.05046 0.03601,0.1012 0.05402,0.15221c-0.01752,-0.05079 -0.03553,-0.10153 -0.05402,-0.15221zM599.887,255.88793c0.0464,0.03913 0.09247,0.07815 0.13821,0.11705c-0.04579,-0.03956 -0.09186,-0.07857 -0.13821,-0.11705zM520.01136,225.81379c0.02731,0.00178 0.05455,0.00358 0.08172,0.00538c-0.02726,-0.00192 -0.0545,-0.00371 -0.08172,-0.00538zM425.10854,263.17754c0.03045,-0.01774 0.06076,-0.03563 0.09093,-0.05367c-0.03045,0.01792 -0.06076,0.03581 -0.09093,0.05367zM331.3749,347.03535c0.018,-0.05101 0.03601,-0.10175 0.05402,-0.15221c-0.01849,0.05068 -0.03649,0.10142 -0.05402,0.15221zM425.51663,262.93983c-0.03042,0.01743 -0.06094,0.03498 -0.09154,0.05262c0.03057,-0.01734 0.06109,-0.03488 0.09154,-0.05262zM324.93545,425.14088c0,0 -0.04902,-4.99976 -0.09804,-9.99952l-0.27695,-28.24724c-0.02739,-9.91729 3.15386,-28.82581 6.48044,-38.88072c0.05894,-0.20577 0.12558,-0.41093 0.20008,-0.61513v0c0.01872,-0.0502 0.03761,-0.10061 0.05669,-0.15124c-0.0193,0.05014 -0.0382,0.10056 -0.05669,0.15124l0.18793,-0.51513c0.0745,-0.2042 0.15562,-0.40408 0.24303,-0.59946c3.92967,-9.83488 13.67172,-26.34988 20.07881,-33.91972l29.51071,-34.37247c5.50233,-7.7778 12.78808,-16.49051 18.17846,-21.48565c0.17003,-0.17258 0.34832,-0.33971 0.53485,-0.50086l0.45982,-0.39725c-0.04579,0.03956 -0.09108,0.07948 -0.13588,0.11975c0.04546,-0.04022 0.09075,-0.08014 0.13588,-0.11975v0c0.18653,-0.16114 0.37778,-0.31328 0.57323,-0.45644c8.25943,-6.64747 24.74722,-16.0742 34.03727,-19.38009l5.04936,-1.75255c9.57588,-3.28303 29.05482,-7.30058 39.50767,-8.17292c0.10106,-0.01051 0.20267,-0.01937 0.30479,-0.02656l0.29358,-0.02066c-0.02726,0.00192 -0.05448,0.00396 -0.08166,0.00611c0.02729,-0.00206 0.05451,-0.0041 0.08166,-0.00611v0v0c0.10212,-0.00719 0.20397,-0.01264 0.30551,-0.01638c5.04175,-0.28886 12.25716,-0.14883 19.49398,0.28719c7.23682,-0.43602 14.45224,-0.57605 19.49398,-0.28719c0.10154,0.00374 0.20338,0.0092 0.30551,0.01638v0v0c0.02715,0.00201 0.05438,0.00405 0.08166,0.00611c-0.02718,-0.00216 -0.05441,-0.00419 -0.08166,-0.00611l0.29358,0.02066c0.10212,0.00719 0.20373,0.01605 0.30479,0.02656c10.45285,0.87234 29.93179,4.88989 39.50767,8.17292l5.04936,1.75255c9.29005,3.30589 25.77784,12.73261 34.03727,19.38009c0.19545,0.14316 0.3867,0.29529 0.57323,0.45644v0c0.04513,0.03961 0.09042,0.07953 0.13588,0.11975c-0.0448,-0.04027 -0.09009,-0.08019 -0.13588,-0.11975l0.45982,0.39725c0.18653,0.16114 0.36482,0.32827 0.53485,0.50086c5.39038,4.99514 12.67613,13.70785 18.17846,21.48565l29.51071,34.37247c6.40709,7.56984 16.14914,24.08484 20.07881,33.91972c0.08741,0.19539 0.16853,0.39526 0.24303,0.59946l0.18793,0.51513c-0.01849,-0.05068 -0.03739,-0.10109 -0.05669,-0.15124c0.01907,0.05062 0.03797,0.10104 0.05669,0.15124v0c0.0745,0.2042 0.14114,0.40936 0.20008,0.61513c3.32658,10.05491 6.50783,28.96343 6.48044,38.88072l-0.27695,28.24724c-0.04902,4.99976 -0.09804,9.99952 -0.09804,9.99952l-17.99913,-0.17647c0,0 0.04902,-4.99976 0.09804,-9.99952l0.27695,-28.24724c0.1542,-8.49482 -2.60262,-24.7667 -5.5726,-33.09972c-0.00625,-0.01683 -0.01246,-0.03369 -0.01862,-0.05058c-0.01357,-0.03818 -0.02726,-0.0765 -0.04108,-0.11496c0.01342,0.03835 0.02711,0.07667 0.04108,0.11496l-0.18793,-0.51513c0.01397,0.03829 0.02817,0.07642 0.0426,0.1144c-0.0142,-0.03832 -0.0284,-0.07646 -0.0426,-0.1144c-0.00616,-0.01689 -0.01227,-0.03378 -0.01832,-0.05068c-0.7843,-2.10111 -1.90764,-4.58376 -3.23876,-7.22373l1.05831,3.80827c1.11563,4.10601 2.54499,12.45551 2.80984,16.70206c0.24601,3.94448 0.44307,11.84126 0.40026,15.79317l-0.23932,20.61334c-0.07294,6.01792 -0.65679,18.03249 -1.16771,24.02913c-0.42701,4.98173 -1.42656,16.64325 -1.85357,21.62498c-0.42701,4.98173 -0.85401,9.96347 -0.85401,9.96347l-17.93424,-1.53722c0,0 0.42701,-4.98173 0.85401,-9.96347c0.42701,-4.98173 1.28102,-14.9452 1.70802,-19.92693l0.14555,-1.69805c0.48864,-5.66487 1.04022,-17.01531 1.10316,-22.70087l0.23932,-20.61334c0.04509,-3.61941 -0.14126,-10.8511 -0.36657,-14.46377c-0.20647,-3.3106 -1.27579,-9.81362 -2.18753,-13.00298l-3.18673,-11.46729c-2.48255,-9.02481 -9.30767,-26.34131 -13.65023,-34.63302l-6.57183,-12.62855c-0.84767,-1.66674 -2.00554,-3.59645 -3.36606,-5.65311l-4.16598,-4.85231c-5.58283,-6.59669 -18.51385,-17.40434 -26.22992,-21.96057c-0.01918,-0.01099 -0.03834,-0.02206 -0.05748,-0.03321l-0.40808,-0.23772c0.03045,0.01774 0.06097,0.03528 0.09154,0.05262c-0.0306,-0.01765 -0.06112,-0.03519 -0.09154,-0.05262v0v0c-0.01914,-0.01115 -0.03821,-0.02235 -0.05724,-0.03362c-7.76953,-4.46447 -23.54941,-10.38156 -32.04158,-11.98386l-25.07843,-4.9163c-4.3235,-0.8668 -10.76943,-1.57512 -17.30612,-1.99953c-6.5367,0.42441 -12.98263,1.13274 -17.30612,1.99953l-25.07843,4.9163c-8.49217,1.6023 -24.27205,7.5194 -32.04158,11.98386c-0.01902,0.01127 -0.0381,0.02247 -0.05724,0.03362l-0.40808,0.23772c-0.01914,0.01115 -0.0383,0.02222 -0.05748,0.03321c-7.71607,4.55623 -20.6471,15.36388 -26.22992,21.96057l-4.16598,4.85231c-1.36052,2.05666 -2.51839,3.98637 -3.36606,5.65311l-6.57183,12.62855c-4.34257,8.2917 -11.16768,25.60821 -13.65023,34.63302l-3.18673,11.46729c-0.91174,3.18936 -1.98106,9.69238 -2.18753,13.00298c-0.22531,3.61267 -0.41166,10.84436 -0.36657,14.46377l0.23932,20.61334c0.06294,5.68556 0.61452,17.036 1.10316,22.70087c0.42701,4.98173 1.42656,16.64325 1.85357,21.62498c0.42701,4.98173 0.85401,9.96347 0.85401,9.96347l-17.93424,1.53722c0,0 -0.42701,-4.98173 -0.85401,-9.96347c-0.42701,-4.98173 -1.42656,-16.64325 -1.85357,-21.62498c-0.51092,-5.99664 -1.09477,-18.01121 -1.16771,-24.02913l-0.23932,-20.61334c-0.04281,-3.95191 0.15426,-11.84869 0.40026,-15.79317c0.26485,-4.24655 1.69421,-12.59606 2.80984,-16.70206l1.05831,-3.80827c-1.33112,2.63998 -2.45446,5.12263 -3.23876,7.22373c-0.00605,0.0169 -0.01216,0.0338 -0.01832,0.05068c-0.0142,0.03795 -0.0284,0.07608 -0.0426,0.1144c0.01443,-0.03798 0.02863,-0.07612 0.0426,-0.1144l-0.18793,0.51513c0.01397,-0.03829 0.02766,-0.07661 0.04108,-0.11496c-0.01382,0.03846 -0.02751,0.07678 -0.04108,0.11496c-0.00616,0.01689 -0.01237,0.03375 -0.01862,0.05058c-2.96998,8.33302 -5.7268,24.60489 -5.5726,33.09972l0.27695,28.24724c0.04902,4.99976 0.09804,9.99952 0.09804,9.99952z" fill="#d6e6ff"/><path d="M350.15032,379.02724l0.31223,9.4445c0.15735,4.97578 -0.07429,14.91462 -0.46327,19.87767l-0.74032,9.27496c-0.7754,9.62463 -3.38962,28.72835 -5.22845,38.20745l-0.60723,3.11791c-1.71528,8.35838 -1.66064,25.06374 0.10928,33.41072l1.09776,5.44647c0.98858,5.3392 5.06968,15.14165 8.16219,19.60491l3.51562,5.24924c1.49424,2.26795 4.91533,6.44995 6.84217,8.36401l3.34592,3.37431c0.20744,0.23834 0.69848,0.62044 0.95896,0.7981c0.78864,0.53789 2.3099,1.68921 3.04806,2.29453l2.76175,2.28861c0.81383,0.68078 2.38137,2.10833 3.13509,2.85511l1.20337,1.20337l-12.72792,12.72792l-1.20337,-1.20337c-0.44965,-0.45659 -1.39585,-1.31829 -1.89239,-1.72339l-2.76175,-2.28861c-0.40835,-0.34477 -1.26372,-0.98254 -1.70522,-1.28366c-0.96965,-0.66134 -2.75716,-2.17558 -3.59816,-2.99457l-3.34592,-3.37431c-2.50213,-2.55249 -7.01026,-8.06332 -9.01626,-11.02167l-3.51562,-5.24924c-3.92335,-6.01227 -9.34919,-19.04469 -10.85168,-26.06485l-1.09776,-5.44647c-1.94729,-10.09577 -2.01337,-30.29983 -0.13216,-40.40812l0.60723,-3.11791c1.75596,-8.97885 4.23274,-27.0782 4.95357,-36.1987l0.74032,-9.27496c0.36289,-4.45665 0.57091,-13.38202 0.41603,-17.85074l-0.31223,-9.4445z" fill="#d6e6ff"/><path d="M667.83984,379.62196l-0.31223,9.4445c-0.15488,4.46872 0.05314,13.39409 0.41603,17.85074l0.74032,9.27496c0.72083,9.1205 3.19761,27.21985 4.95357,36.1987l0.60723,3.11791c1.88121,10.10829 1.81513,30.31235 -0.13216,40.40812l-1.09776,5.44647c-1.50249,7.02016 -6.92833,20.05258 -10.85168,26.06485l-3.51562,5.24924c-2.006,2.95835 -6.51413,8.46918 -9.01626,11.02167l-3.34592,3.37431c-0.841,0.81899 -2.62851,2.33323 -3.59816,2.99457c-0.4415,0.30112 -1.29687,0.93889 -1.70522,1.28366l-2.76175,2.28861c-0.49654,0.4051 -1.44274,1.2668 -1.89239,1.72339l-1.20337,1.20337l-12.72792,-12.72792l1.20337,-1.20337c0.75372,-0.74678 2.32126,-2.17433 3.13509,-2.85511l2.76175,-2.28861c0.73816,-0.60532 2.25942,-1.75664 3.04806,-2.29453c0.26048,-0.17766 0.75152,-0.55976 0.95896,-0.7981l3.34592,-3.37431c1.92684,-1.91406 5.34793,-6.09606 6.84217,-8.36401l3.51562,-5.24924c3.09251,-4.46326 7.17361,-14.26571 8.16219,-19.60491l1.09776,-5.44647c1.76992,-8.34698 1.82456,-25.05234 0.10928,-33.41072l-0.60723,-3.11791c-1.83883,-9.4791 -4.45305,-28.58282 -5.22845,-38.20745l-0.74032,-9.27496c-0.38898,-4.96305 -0.62062,-14.90189 -0.46327,-19.87767l0.31223,-9.4445z" fill="#d6e6ff"/><path d="M361.53052,544.15201l-1.57126,-0.2663c0,0 2.19158,-12.93115 2.31789,-13.67638c0.79586,-4.69584 5.11245,-7.95863 9.84729,-7.44328c4.73484,0.51535 8.24842,4.63039 8.01539,9.38749l-0.92831,18.95136c-0.49851,8.65509 1.7628,25.5286 4.52263,33.74702l0.90589,2.77643c2.078,6.60883 8.62625,18.51185 12.98067,23.89963c4.57847,5.665 14.76772,15.95987 20.41499,20.56026l11.26975,9.2411c3.15223,2.61513 9.94338,7.11006 13.58231,8.98986l5.42926,2.84416c0.92928,0.51007 2.87974,1.30459 3.90092,1.58906l1.384,0.41468c0.30615,0.11323 0.94056,0.21789 1.26472,0.25031c0.75211,0.07521 1.50421,0.15042 1.50421,0.15042l-1.79107,17.91067c0,0 -0.75211,-0.07521 -1.50421,-0.15042c-1.18006,-0.11801 -3.49797,-0.59766 -4.63993,-0.91831l-1.384,-0.41468c-1.83333,-0.57081 -5.37702,-2.01435 -7.08737,-2.88707l-5.42926,-2.84416c-4.42997,-2.34714 -12.75144,-7.85496 -16.64294,-11.01564l-11.26975,-9.2411c-6.32707,-5.21847 -17.84585,-16.7861 -23.00108,-23.16475c-5.37928,-6.65586 -13.36806,-21.518 -16.09338,-29.63067l-0.90589,-2.77643c-3.12399,-9.81464 -5.81845,-29.92016 -5.38891,-40.21103z" fill="#ffffff"/><path d="M638.76692,550.22424c0.42954,10.29087 -2.26492,30.39639 -5.38891,40.21103l-0.90589,2.77643c-2.72532,8.11267 -10.7141,22.97481 -16.09338,29.63067c-5.15523,6.37865 -16.67401,17.94628 -23.00108,23.16475l-11.26975,9.2411c-3.8915,3.16068 -12.21297,8.6685 -16.64294,11.01564l-5.42926,2.84416c-1.71035,0.87272 -5.25404,2.31626 -7.08737,2.88707l-1.384,0.41468c-1.14196,0.32065 -3.45987,0.8003 -4.63993,0.91831c-0.7521,0.07521 -1.50421,0.15042 -1.50421,0.15042l-1.79107,-17.91067c0,0 0.7521,-0.07521 1.50421,-0.15042c0.32416,-0.03242 0.95857,-0.13708 1.26472,-0.25031l1.384,-0.41468c1.02118,-0.28447 2.97164,-1.07899 3.90092,-1.58906l5.42926,-2.84416c3.63893,-1.8798 10.43008,-6.37473 13.58231,-8.98986l11.26975,-9.2411c5.64727,-4.60039 15.83652,-14.89526 20.41499,-20.56026c4.35442,-5.38778 10.90267,-17.2908 12.98067,-23.89963l0.90589,-2.77643c2.75983,-8.21842 5.02114,-25.09193 4.52263,-33.74702l-0.92831,-18.95136c-0.23303,-4.7571 3.28055,-8.87214 8.01539,-9.38749c4.73484,-0.51535 9.05143,2.74744 9.84729,7.44328c0.12631,0.74523 2.31789,13.67638 2.31789,13.67638l-1.57126,0.2663z" fill="#d6e6ff"/><path d="M443.54349,636.42586c0,0 5.69972,7.97468 6.3182,8.84002c2.36764,3.57031 8.68488,8.79997 12.63448,10.45932l0.651,0.30071c-0.52515,-2.44383 0.00051,-4.88652 1.28606,-6.83807c0.86226,-2.73933 2.11004,-5.3715 3.44277,-6.95574l2.09272,-1.77217c1.16807,-0.7589 3.65438,-2.06111 5.02232,-2.25653c0.13523,-0.01932 2.24113,-0.32016 2.37635,-0.33948c1.05295,-0.15042 2.1059,-0.30084 2.1059,-0.30084l2.27077,15.89538l0.18351,0.17586c0.87847,0.93151 2.9489,2.33068 4.14085,2.79832l7.27592,3.28827c1.65817,0.77899 4.07892,1.60025 6.65566,2.3202c2.57674,-0.71995 4.99749,-1.54121 6.65566,-2.3202l7.27592,-3.28827c1.19195,-0.46765 3.26237,-1.86681 4.14085,-2.79832l0.18351,-0.17586l2.27077,-15.89538c0,0 1.05295,0.15042 2.1059,0.30084c0.13523,0.01932 2.24113,0.32016 2.37635,0.33948c1.36794,0.19542 3.85425,1.49764 5.02232,2.25653l2.09272,1.77217c1.33272,1.58424 2.58051,4.21641 3.44277,6.95574c1.28555,1.95155 1.81121,4.39424 1.28606,6.83807l0.651,-0.30071c3.9496,-1.65935 10.26684,-6.88902 12.63448,-10.45932c0.61848,-0.86534 6.3182,-8.84002 6.3182,-8.84002l14.64415,10.46656c0,0 -5.69972,7.97468 -6.3182,8.84002c-3.95056,5.26971 -13.8158,13.43655 -19.73048,16.33367l-12.33183,5.69628c-5.78895,2.50898 -17.8881,4.7822 -24.17292,4.24787c-2.26455,-0.19253 -5.32696,-0.75493 -8.54722,-1.5094c-3.22026,0.75447 -6.28268,1.31687 -8.54722,1.5094c-6.28482,0.53433 -18.38397,-1.73889 -24.17292,-4.24787l-12.33183,-5.69628c-5.91468,-2.89713 -15.77992,-11.06396 -19.73048,-16.33367c-0.61848,-0.86534 -6.3182,-8.84002 -6.3182,-8.84002l14.64415,-10.46656zM535.76109,649.82943c0.64806,2.22689 1.02803,4.476 0.98035,6.24794l0.09768,-0.04512c0.41457,-2.20008 -0.01557,-4.38693 -1.07803,-6.20282zM519.27411,652.15491c0.01421,0.02685 0.02853,0.05458 0.04296,0.08316c0.02383,-0.10745 0.03033,-0.21417 0.01539,-0.31312c-0.01025,0.03632 -0.0203,0.07276 -0.03013,0.10931c-0.00969,0.04021 -0.0191,0.08043 -0.02822,0.12065zM464.23891,649.82943c-1.06246,1.81589 -1.4926,4.00274 -1.07803,6.20282l0.09768,0.04512c-0.04768,-1.77195 0.33229,-4.02105 0.98035,-6.24794zM480.69767,652.03426c-0.00983,-0.03655 -0.01987,-0.07299 -0.03013,-0.10931c-0.01494,0.09895 -0.00844,0.20567 0.01539,0.31312c0.01443,-0.02858 0.02875,-0.05631 0.04296,-0.08316c-0.00912,-0.04022 -0.01853,-0.08044 -0.02822,-0.12065z" fill="#ffffff"/><path d="M402.22041,573.99269l21.69304,45.28968c1.37316,2.90795 4.64101,8.41434 6.53572,11.01277l2.93824,4.0767c0.38246,0.56105 1.27765,1.56831 1.76567,2.04008c0.15754,0.15229 0.43416,0.42901 0.66832,0.43439l1.54899,0.62631c0.66158,0 1.25777,0 1.25777,0v18c0,0 -0.75211,0 -1.50421,0c-1.61133,0 -4.74753,-0.69283 -6.2724,-1.22009l-1.77746,-0.71868c-1.76524,-0.80305 -5.03862,-2.83372 -6.43168,-4.18039c-1.06257,-1.02719 -2.97897,-3.26848 -3.85751,-4.45703l-2.93824,-4.0767c-2.33311,-3.2675 -6.41664,-10.14831 -8.16706,-13.76162l-21.69304,-45.28968z" fill="#d6e6ff"/><path d="M614.01344,581.76843l-21.69304,45.28968c-1.75042,3.61331 -5.83395,10.49412 -8.16706,13.76162l-2.93824,4.0767c-0.87854,1.18855 -2.79494,3.42984 -3.85751,4.45703c-1.39306,1.34667 -4.66644,3.37734 -6.43168,4.18039l-1.77746,0.71868c-1.52487,0.52726 -4.66107,1.22009 -6.2724,1.22009c-0.7521,0 -1.50421,0 -1.50421,0v-18c0,0 0.59619,0 1.25777,0l1.54899,-0.62631c0.23416,-0.00538 0.51078,-0.2821 0.66832,-0.43439c0.48802,-0.47177 1.38321,-1.47903 1.76567,-2.04008l2.93824,-4.0767c1.89471,-2.59843 5.16256,-8.10482 6.53572,-11.01277l21.69304,-45.28968z" fill="#ffffff"/><path d="M437.58279,567.94808l14.29296,45.22266c1.33699,4.23856 4.29596,12.615 5.91794,16.75288l1.66835,4.26327c0.78154,2.00404 2.48136,5.95326 3.39965,7.89844l1.96018,4.16479l-16.28632,7.66523l-1.96018,-4.16479c-1.04189,-2.21961 -2.97967,-6.72166 -3.87556,-9.00411l-1.66835,-4.26327c-1.72696,-4.41996 -4.8864,-13.36391 -6.31888,-17.88789l-14.29296,-45.22266z" fill="#ffffff"/><path d="M579.58038,573.37263l-14.29296,45.22266c-1.43248,4.52398 -4.59192,13.46793 -6.31888,17.88789l-1.66835,4.26327c-0.89589,2.28245 -2.83367,6.7845 -3.87556,9.00411l-1.96018,4.16479l-16.28632,-7.66523l1.96018,-4.16479c0.91829,-1.94518 2.61811,-5.8944 3.39965,-7.89844l1.66835,-4.26327c1.62198,-4.13788 4.58095,-12.51432 5.91794,-16.75288l14.29296,-45.22266z" fill="#ffffff"/><path d="M478.80842,571.68122l8.21649,52.72251c0.28272,1.83833 1.00395,5.48418 1.44245,7.2917l0.4751,1.97564c0.19304,0.81866 0.65212,2.43524 0.91816,3.23316l0.63929,1.94607l-17.10092,5.61769l-0.63929,-1.94607c-0.37325,-1.14815 -1.0324,-3.46925 -1.3183,-4.64221l-0.4751,-1.97564c-0.51688,-2.1653 -1.38023,-6.5296 -1.7267,-8.72861l-8.21649,-52.72251z" fill="#ffffff"/><path d="M538.97689,574.45295l-8.21649,52.72251c-0.34647,2.19901 -1.20982,6.56331 -1.7267,8.72861l-0.4751,1.97564c-0.2859,1.17296 -0.94505,3.49406 -1.3183,4.64221l-0.63929,1.94607l-17.10092,-5.61769l0.63929,-1.94607c0.26604,-0.79792 0.72512,-2.4145 0.91816,-3.23316l0.4751,-1.97564c0.4385,-1.80752 1.15973,-5.45337 1.44245,-7.2917l8.21649,-52.72251z" fill="#ffffff"/><path d="M514.76493,576.96945l8.79415,36.38335c0.81485,3.38267 2.21437,10.19529 2.79903,13.62524l0.55384,3.26437c0.30188,1.79537 0.78632,5.40212 0.96887,7.21352l0.32905,3.31397l-17.91192,1.77849l-0.32905,-3.31397c-0.14649,-1.50257 -0.54816,-4.49312 -0.80334,-5.9811l-0.55384,-3.26437c-0.52737,-3.12436 -1.80177,-9.32796 -2.54881,-12.40719l-6.06291,-25.08361l-6.06291,25.08361c-0.74704,3.07923 -2.02144,9.28283 -2.54881,12.40719l-0.55384,3.26437c-0.25518,1.48798 -0.65685,4.47852 -0.80334,5.9811l-0.32905,3.31397l-17.91192,-1.77849l0.32905,-3.31397c0.18255,-1.81139 0.66699,-5.41815 0.96887,-7.21352l0.55384,-3.26437c0.58466,-3.42996 1.98418,-10.24258 2.79903,-13.62524l8.79415,-36.38335l14.76493,3.5688z" fill="#ffffff"/><path d="M557.12539,587.91838l-0.38959,8.52511c-0.20784,4.45631 -0.99861,13.33552 -1.58154,17.75843l-1.02566,7.72604c-0.38961,2.903 -1.40946,8.66643 -2.0397,11.52685l-1.18457,5.33995l-17.57282,-3.8982l1.18457,-5.33995c0.55433,-2.47953 1.43886,-7.47825 1.76906,-9.99743l1.02566,-7.72604c0.54014,-4.03688 1.26202,-12.14257 1.44376,-16.21137l0.38959,-8.52511z" fill="#ffffff"/><path d="M460.85585,587.09666l0.38959,8.52511c0.18174,4.0688 0.90362,12.17449 1.44376,16.21137l1.02566,7.72604c0.3302,2.51918 1.21473,7.5179 1.76906,9.99743l1.18457,5.33995l-17.57282,3.8982l-1.18457,-5.33995c-0.63024,-2.86042 -1.65009,-8.62385 -2.0397,-11.52685l-1.02566,-7.72604c-0.58293,-4.42291 -1.3737,-13.30212 -1.58154,-17.75843l-0.38959,-8.52511z" fill="#ffffff"/><path d="M433.81468,478.62786c0.15042,0 1.05295,0 1.20337,0c0.30084,0 2.1059,0 2.40674,0v18c-0.30084,0 -2.40674,0 -2.70758,0c-0.15042,0 -0.75211,0 -0.90253,0z" fill="#ffffff"/><path d="M566.18532,496.62786c-0.15042,0 -0.75211,0 -0.90253,0c-0.30084,0 -2.40674,0 -2.70758,0v-18c0.30084,0 2.1059,0 2.40674,0c0.15042,0 1.05295,0 1.20337,0z" fill="#ffffff"/><path d="M450.53366,496.84075l-39.63807,34.29467c-4.21622,3.6168 -11.7894,11.65951 -15.14635,16.08542l-6.2703,8.19477c-0.22632,0.25714 -0.55858,0.84256 -0.70683,1.15048c-0.1289,0.26771 -0.34729,0.80685 -0.38582,1.10282l-2.55493,11.19593c-0.41749,1.70235 -0.8067,5.15726 -0.77841,6.90983v4.51264h-18v-4.51264c0.02828,-2.76007 0.64306,-8.21732 1.22955,-10.91451l2.55493,-11.19593c0.31783,-1.26564 1.15066,-3.73128 1.71662,-4.90676c0.54661,-1.13527 1.88255,-3.26511 2.62958,-4.28006l6.2703,-8.19477c3.95226,-5.12663 12.78444,-14.5064 17.66436,-18.75953l39.63807,-34.29467z" fill="#d6e6ff"/><path d="M561.24364,483.22844l39.63807,34.29467c4.87992,4.25313 13.7121,13.6329 17.66436,18.75953l6.2703,8.19477c0.74703,1.01495 2.08297,3.14479 2.62958,4.28006c0.56596,1.17548 1.39879,3.64112 1.71662,4.90676l2.55493,11.19593c0.58649,2.69719 1.20127,8.15444 1.22955,10.91451v4.51264h-18v-4.51264c0.02829,-1.75257 -0.36092,-5.20748 -0.77841,-6.90983l-2.55493,-11.19593c-0.03853,-0.29597 -0.25692,-0.83511 -0.38582,-1.10282c-0.14825,-0.30792 -0.48051,-0.89334 -0.70683,-1.15048l-6.2703,-8.19477c-3.35695,-4.42591 -10.93013,-12.46862 -15.14635,-16.08542l-39.63807,-34.29467z" fill="#ffffff"/><path d="M465.49781,496.03386l-25.84382,41.03924c-3.87037,6.13213 -10.86981,18.8058 -13.99888,25.34734l-3.21229,6.69793c-1.52721,3.16724 -4.19475,9.66067 -5.33508,12.98685l-2.46315,7.1356l-17.01481,-5.87336l2.46315,-7.1356c1.32282,-3.80943 4.38277,-11.25807 6.1199,-14.8973l3.21229,-6.69793c3.36572,-7.0007 10.86441,-20.57836 14.99739,-27.15531l25.84382,-41.03924z" fill="#ffffff"/><path d="M549.73367,486.44208l25.84382,41.03924c4.13298,6.57695 11.63167,20.15461 14.99739,27.15531l3.21229,6.69793c1.73713,3.63923 4.79708,11.08787 6.1199,14.8973l2.46315,7.1356l-17.01481,5.87336l-2.46315,-7.1356c-1.14033,-3.32618 -3.80787,-9.81961 -5.33508,-12.98685l-3.21229,-6.69793c-3.12907,-6.54154 -10.12851,-19.21521 -13.99888,-25.34734l-25.84382,-41.03924z" fill="#d6e6ff"/><path d="M489.67803,511.59663l-4.07139,32.91733c-0.34294,2.7342 -0.76782,8.22282 -0.84977,10.97722l-0.09251,2.93986c-0.04496,1.27893 -0.00829,3.83496 0.07335,5.11207l0.17863,2.96612l-17.96745,1.08203l-0.17863,-2.96612c-0.09699,-1.68901 -0.14548,-5.06911 -0.09699,-6.76021l0.09251,-2.93986c0.10434,-3.16598 0.59284,-9.47629 0.97699,-12.62062l4.07139,-32.91733z" fill="#ffffff"/><path d="M528.18584,509.38712l4.07139,32.91733c0.38415,3.14433 0.87265,9.45464 0.97699,12.62062l0.09251,2.93986c0.04849,1.6911 0,5.0712 -0.09699,6.76021l-0.17863,2.96612l-17.96745,-1.08203l0.17863,-2.96612c0.08164,-1.27711 0.11831,-3.83314 0.07335,-5.11207l-0.09251,-2.93986c-0.08195,-2.7544 -0.50683,-8.24302 -0.84977,-10.97722l-4.07139,-32.91733z" fill="#ffffff"/><path d="M438.0012,496.05144v0.30084c-0.0302,0.67086 -0.18514,2.00156 -0.30988,2.66141l-0.06464,0.27381c-0.21662,0.7862 -0.77069,2.31481 -1.10813,3.05722l-0.67088,1.34175l-15.27006,-7.63503zM419.74799,495.63663l0.67088,-1.34175c-0.06296,0.18334 -0.18472,0.52071 -0.26974,0.7485c-0.02945,0.21449 -0.0631,0.48991 -0.09182,0.74791zM420.0012,496.35229v-0.30084h0.02823c-0.01162,0.11349 -0.02136,0.21667 -0.02823,0.30084zM420.02944,496.05144c0.00844,-0.08239 0.01785,-0.17022 0.02787,-0.26016l0.52031,0.26016z" fill="#ffffff"/><path d="M579.42239,496.05144l-15.27006,7.63503l-0.67088,-1.34175c-0.33744,-0.74241 -0.89151,-2.27102 -1.10813,-3.05722l-0.06464,-0.27381c-0.12474,-0.65985 -0.27968,-1.99055 -0.30988,-2.66141v-0.30084zM579.94269,495.79129c-0.02872,-0.258 -0.06237,-0.53342 -0.09182,-0.74791c-0.08502,-0.22779 -0.20678,-0.56516 -0.26974,-0.7485l0.67088,1.34175zM579.97057,496.05145h0.02823v0.30084c-0.00687,-0.08417 -0.01661,-0.18735 -0.02823,-0.30084zM579.42238,496.05144l0.52031,-0.26016c0.01002,0.08994 0.01943,0.17777 0.02787,0.26016z" fill="#ffffff"/><path d="M434.07921,502.27868c0,0 -1.17162,0.80067 -2.34323,1.60134l-4.89353,3.34419c-4.72555,3.0236 -15.04393,6.48673 -20.63677,6.92627l-4.95679,0.23879c-5.08524,-0.05709 -11.86117,-1.98835 -16.40582,-4.69962c-4.54465,-2.71127 -9.46282,-7.75653 -11.92865,-12.20429l-1.82248,-3.80334c-2.18673,-5.06105 -3.84391,-15.62248 -2.89084,-21.04847c0.94409,-5.37489 5.93763,-14.73555 9.59566,-18.79007l10.32774,-10.64162c4.54313,-4.3959 15.19364,-10.45988 21.38145,-11.73878c6.07249,-1.25506 18.11551,-0.28593 24.01955,1.61657l19.88337,6.99351c2.58695,1.08401 7.21071,4.11733 8.99427,6.27588c1.92435,2.32893 3.86121,7.9605 4.23112,10.96781l0.32427,7.074c-0.09516,4.50033 -1.80324,10.56193 -4.14733,14.47629c-1.94227,3.24336 -5.39024,6.79772 -8.74653,9.17728c-0.57961,0.49211 -1.23157,0.91828 -1.94988,1.26159c-0.00697,0.00315 -0.01395,0.0063 -0.02094,0.00945c-0.01091,0.00536 -0.02184,0.0107 -0.03279,0.01601c-0.01504,0.00707 -0.03008,0.01409 -0.04514,0.02107c0.00601,-0.00339 0.01201,-0.00678 0.01802,-0.01017c0.02003,-0.00897 0.04,-0.01793 0.0599,-0.02691v0c0.6084,-0.29863 1.16829,-0.65709 1.67598,-1.06488c-0.58571,0.40383 -1.16719,0.77041 -1.73589,1.09179c-0.15793,0.07068 -0.31989,0.14111 -0.48569,0.21127c0.1568,-0.06229 0.31274,-0.1293 0.46767,-0.2011c-0.00281,0.00158 -0.00562,0.00317 -0.00843,0.00475c0.0179,-0.00855 0.03575,-0.01716 0.05357,-0.02581c0.01792,-0.00842 0.03583,-0.01691 0.05373,-0.02547l-0.1073,0.05128c-0.25373,0.12127 -0.51031,0.2296 -0.76898,0.32526c-5.64717,2.31251 -15.38886,4.29604 -22.54495,4.71537zM444.24549,473.11687l0.1073,-0.05128c0.25523,-0.12199 0.51334,-0.23088 0.77356,-0.32696c0.71494,-0.50466 1.25518,-1.47122 2.24213,-3.11931c1.34646,-2.24843 1.96721,-3.16508 1.60895,-4.40422l-0.32427,-7.074c0.2238,-0.18014 -0.0179,-0.19578 -0.126,-0.32661c-0.24888,-0.30121 -0.66761,-0.78635 -1.0907,-0.76105l-19.88337,-6.99351c-3.52219,-1.41296 -10.69089,-1.73682 -14.40389,-0.96941c-3.38112,0.69881 -8.96714,3.50459 -11.63278,6.14302c0.37581,-0.23488 0.73866,-0.46166 0.99034,-0.61896c1.20337,-0.75211 3.67392,-2.2962 3.67392,-2.2962l9.53998,15.26397c0,0 -1.20337,0.75211 -2.40674,1.50421c-0.56978,0.35611 -2.97652,1.86032 -3.54629,2.21643c-0.15436,0.09647 -0.41644,0.27708 -0.59953,0.43546l2.28338,1.50201c1.76676,1.33074 5.74507,2.69785 7.95662,2.73421l6.42241,0.5159c4.73652,0.53083 13.57345,-1.059 18.09587,-3.21348c0.10486,-0.05524 0.21124,-0.10866 0.31911,-0.16022c0.00102,-0.00022 0.00205,-0.00044 0.00307,-0.00066c-0.06947,0.03429 -0.13831,0.06935 -0.2065,0.10519c0.07314,-0.03559 0.14509,-0.07132 0.21582,-0.1072c0.3155,-0.06875 0.58427,-0.18242 0.83129,-0.34984c-0.25296,0.09102 -0.50398,0.19411 -0.75238,0.30949c0.00534,-0.00275 0.01068,-0.00551 0.016,-0.00826c-0.0179,0.00855 -0.03575,0.01716 -0.05357,0.02581c-0.01792,0.00842 -0.03583,0.01691 -0.05373,0.02547zM401.55937,488.27863l-3.39952,-2.2362c-1.76837,-1.3318 -4.82005,-4.48388 -5.85448,-6.43604c-1.08884,-2.05483 -1.88731,-6.60279 -1.90138,-8.9346l0.01741,-0.25601c0.28004,-1.60395 1.14115,-3.88025 2.18278,-5.98417l-1.89042,1.94787c-2.10121,1.87976 -4.29753,6.59817 -4.78406,9.36807c-0.47755,2.7188 0.00812,7.75969 1.39487,10.15617l1.82248,3.80334c0.52154,1.78663 2.04334,2.80944 4.91811,4.52448c2.87476,1.71504 4.49769,2.56833 6.31763,2.17859l4.95679,-0.23879c2.59115,0.01457 6.8684,-1.26131 9.71037,-2.78001c-4.4974,-1.03879 -10.43276,-3.23735 -13.49056,-5.1127zM444.33679,473.07385c-0.02613,0.01347 -0.05244,0.02692 -0.07891,0.04035c-0.0031,0.00067 -0.00621,0.00134 -0.00932,0.00201c0.01685,-0.00832 0.03373,-0.01659 0.05066,-0.02481c0.01251,-0.00588 0.02503,-0.01173 0.03756,-0.01755z" fill="#ffffff"/><path d="M571.30645,494.39792c-7.15609,-0.41933 -16.89778,-2.40286 -22.54495,-4.71537c-0.25867,-0.09566 -0.51525,-0.20399 -0.76898,-0.32526l-0.1073,-0.05128c0.0179,0.00856 0.03581,0.01705 0.05373,0.02547c0.01782,0.00865 0.03567,0.01726 0.05357,0.02581c-0.00281,-0.00158 -0.00562,-0.00317 -0.00843,-0.00475c0.15493,0.0718 0.31087,0.13881 0.46767,0.2011c-0.1658,-0.07016 -0.32776,-0.14059 -0.48569,-0.21127c-0.5687,-0.32138 -1.15018,-0.68796 -1.73589,-1.09179c0.50769,0.40779 1.06758,0.76625 1.67598,1.06488v0c0.0199,0.00898 0.03987,0.01794 0.0599,0.02691c0.00601,0.00339 0.01201,0.00678 0.01802,0.01017c-0.01506,-0.00698 -0.0301,-0.014 -0.04514,-0.02107c-0.01095,-0.00531 -0.02188,-0.01065 -0.03279,-0.01601c-0.00699,-0.00315 -0.01397,-0.0063 -0.02094,-0.00945c-0.71831,-0.34331 -1.37027,-0.76948 -1.94988,-1.26159c-3.35629,-2.37956 -6.80426,-5.93392 -8.74653,-9.17728c-2.34409,-3.91436 -4.05217,-9.97596 -4.14733,-14.47629l0.32427,-7.074c0.36991,-3.00731 2.30677,-8.63888 4.23112,-10.96781c1.78356,-2.15855 6.40732,-5.19187 8.99427,-6.27588l19.88337,-6.99351c5.90404,-1.9025 17.94706,-2.87163 24.01955,-1.61657c6.18781,1.2789 16.83832,7.34288 21.38145,11.73878l10.32774,10.64162c3.65803,4.05452 8.65157,13.41518 9.59566,18.79007c0.95307,5.42599 -0.70411,15.98742 -2.89084,21.04847l-1.82248,3.80334c-2.46583,4.44776 -7.384,9.49302 -11.92865,12.20429c-4.54465,2.71127 -11.32058,4.64253 -16.40582,4.69962l-4.95679,-0.23879c-5.59284,-0.43954 -15.91122,-3.90267 -20.63677,-6.92627l-4.89353,-3.34419c-1.17161,-0.80067 -2.34323,-1.60134 -2.34323,-1.60134zM555.70078,473.0914c-0.01782,-0.00865 -0.03567,-0.01726 -0.05357,-0.02581c0.00532,0.00275 0.01066,0.00551 0.016,0.00826c-0.2484,-0.11538 -0.49942,-0.21847 -0.75238,-0.30949c0.24702,0.16742 0.51579,0.28109 0.83129,0.34984c0.07073,0.03588 0.14268,0.07161 0.21582,0.1072c-0.06819,-0.03584 -0.13703,-0.0709 -0.2065,-0.10519c0.00102,0.00022 0.00205,0.00044 0.00307,0.00066c0.10787,0.05156 0.21425,0.10498 0.31911,0.16022c4.52242,2.15448 13.35935,3.74431 18.09587,3.21348l6.42241,-0.5159c2.21155,-0.03636 6.18986,-1.40347 7.95662,-2.73421l2.28338,-1.50201c-0.18309,-0.15838 -0.44517,-0.33899 -0.59953,-0.43546c-0.56977,-0.35611 -2.97651,-1.86032 -3.54629,-2.21643c-1.20337,-0.7521 -2.40674,-1.50421 -2.40674,-1.50421l9.53998,-15.26397c0,0 2.47055,1.54409 3.67392,2.2962c0.25168,0.1573 0.61453,0.38408 0.99034,0.61896c-2.66564,-2.63843 -8.25166,-5.44421 -11.63278,-6.14302c-3.713,-0.76741 -10.8817,-0.44355 -14.40389,0.96941l-19.88337,6.99351c-0.42309,-0.0253 -0.84182,0.45984 -1.0907,0.76105c-0.1081,0.13083 -0.3498,0.14647 -0.126,0.32661l-0.32427,7.074c-0.35826,1.23914 0.26249,2.15579 1.60895,4.40422c0.98695,1.64809 1.52719,2.61465 2.24213,3.11931c0.26022,0.09608 0.51833,0.20497 0.77356,0.32696l0.1073,0.05128c-0.0179,-0.00856 -0.03581,-0.01705 -0.05373,-0.02547zM598.44061,488.27863c-3.0578,1.87535 -8.99316,4.07391 -13.49056,5.1127c2.84197,1.5187 7.11922,2.79458 9.71037,2.78001l4.95679,0.23879c1.81994,0.38974 3.44287,-0.46355 6.31763,-2.17859c2.87477,-1.71504 4.39657,-2.73785 4.91811,-4.52448l1.82248,-3.80334c1.38675,-2.39648 1.87242,-7.43737 1.39487,-10.15617c-0.48653,-2.7699 -2.68285,-7.48831 -4.78406,-9.36807l-1.89042,-1.94787c1.04163,2.10392 1.90274,4.38022 2.18278,5.98417l0.01741,0.25601c-0.01407,2.33181 -0.81254,6.87977 -1.90138,8.9346c-1.03443,1.95216 -4.08611,5.10424 -5.85448,6.43604l-3.39952,2.2362zM555.66322,473.07385c0.01253,0.00582 0.02505,0.01167 0.03756,0.01755c0.01693,0.00822 0.03381,0.01649 0.05066,0.02481c-0.00311,-0.00067 -0.00622,-0.00134 -0.00932,-0.00201c-0.02647,-0.01343 -0.05278,-0.02688 -0.07891,-0.04035z" fill="#ffffff"/><path d="M473.6059,456.09425c0.28082,0.98806 0.48813,1.90815 0.60055,2.71742c0.668,4.80851 -1.03163,14.11191 -3.00477,18.55199l-2.97024,6.00744c-4.74011,8.41739 -18.95589,18.71436 -28.43156,20.59394l-11.70381,1.6747c-3.60278,0.43699 -10.7737,0.19764 -14.30638,-0.63008c-3.92599,-0.91988 -10.74239,-4.91067 -13.71186,-7.64414l-4.61342,-4.62812l-5.23928,3.49286c0,0 -0.90252,-1.35379 -1.80505,-2.70758c-1.26839,-1.90257 -3.16461,-6.03362 -3.87332,-8.20818l-2.35949,-7.79839c-0.29734,-1.15054 -0.6914,-3.48844 -0.69093,-4.67578c0.00046,-1.15941 0.36992,-3.44479 0.64982,-4.57079l1.99054,-6.86923c1.38088,-4.60527 5.29293,-13.29814 7.82411,-17.38574l2.12383,-3.35981c4.30213,-6.33219 15.752,-15.4057 22.89974,-18.14702l15.4292,-5.33939c2.71788,-0.67275 8.23301,-0.8906 10.86111,0.04134c2.36936,0.84018 6.34508,3.83755 8.06284,5.68061l9.67095,11.86109c0.93511,0.29184 1.8074,0.59267 2.60371,0.90069c1.50902,0.60841 15.68581,6.32422 15.68581,6.32422zM450.50954,450.35932c-7.14189,-1.69661 -16.34617,-2.60076 -21.78804,-1.90698l-12.59203,1.37069c-1.75054,0.05446 -4.78935,1.31833 -6.23042,2.30443c-1.24946,0.85498 -3.08863,2.86276 -3.45221,4.34601l-2.84729,7.30057c-1.04059,1.85755 -0.76608,4.05127 -0.00821,7.67858c0.75787,3.62731 1.38466,5.74742 3.08196,7.03294l6.15271,6.17233c0.97775,1.22632 3.55226,2.47081 5.06995,2.82641c1.91101,0.44776 5.71852,0.69191 7.65048,0.33694l11.70381,-1.6747c5.47096,-0.25913 12.89381,-5.63576 14.8457,-10.75325l2.97024,-6.00744c1.15667,-1.89011 1.61517,-5.9114 1.31149,-8.09738c-0.3189,-2.2955 -1.90133,-6.32773 -3.495,-8.01859z" fill="#ffffff"/><path d="M520.702,441.9763c0,0 14.17679,-5.71581 15.68581,-6.32422c0.79631,-0.30802 1.6686,-0.60885 2.60371,-0.90069l9.67095,-11.86109c1.71776,-1.84306 5.69348,-4.84043 8.06284,-5.68061c2.6281,-0.93194 8.14323,-0.71409 10.86111,-0.04134l15.4292,5.33939c7.14774,2.74132 18.59761,11.81483 22.89974,18.14702l2.12383,3.35981c2.53118,4.0876 6.44323,12.78047 7.82411,17.38574l1.99054,6.86923c0.2799,1.126 0.64936,3.41138 0.64982,4.57079c0.00047,1.18734 -0.39359,3.52524 -0.69093,4.67578l-2.35949,7.79839c-0.70871,2.17456 -2.60493,6.30561 -3.87332,8.20818c-0.90253,1.35379 -1.80505,2.70758 -1.80505,2.70758l-5.23928,-3.49286l-4.61342,4.62812c-2.96947,2.73347 -9.78587,6.72426 -13.71186,7.64414c-3.53268,0.82772 -10.7036,1.06707 -14.30638,0.63008l-11.70381,-1.6747c-9.47567,-1.87958 -23.69145,-12.17655 -28.43156,-20.59394l-2.97024,-6.00744c-1.97314,-4.44008 -3.67277,-13.74348 -3.00477,-18.55199c0.11242,-0.80927 0.31973,-1.72936 0.60055,-2.71742zM547.11732,453.26988c-1.59367,1.69086 -3.1761,5.72309 -3.495,8.01859c-0.30368,2.18598 0.15482,6.20727 1.31149,8.09738l2.97024,6.00744c1.95189,5.11749 9.37474,10.49412 14.8457,10.75325l11.70381,1.6747c1.93196,0.35497 5.73947,0.11082 7.65048,-0.33694c1.51769,-0.3556 4.0922,-1.60009 5.06995,-2.82641l6.15271,-6.17233c1.6973,-1.28552 2.32409,-3.40563 3.08196,-7.03294c0.75787,-3.62731 1.03238,-5.82103 -0.00821,-7.67858l-2.84729,-7.30057c-0.36358,-1.48325 -2.20275,-3.49103 -3.45221,-4.34601c-1.44107,-0.9861 -4.47988,-2.24997 -6.23042,-2.30443l-12.59203,-1.37069c-5.44187,-0.69378 -14.64615,0.21037 -21.78804,1.90698z" fill="#ffffff"/><path d="M450.7791,430.62944c-1.07722,0.92507 -2.10609,3.36123 -2.69381,5.19836c0.08784,0.18354 0.17751,0.38268 0.26426,0.58602l9.16516,-6.87387c-0.48735,-0.27258 -1.03515,-0.53062 -1.53128,-0.75728c-1.83205,0.3311 -4.18885,0.97471 -5.20435,1.84677zM348.44895,408.35305l27.38421,-11.70218c9.50923,-3.99741 29.3004,-8.8233 39.58235,-9.65177l13.48503,-1.00651c3.31941,-0.18671 9.88624,0.34674 13.10298,1.18473c3.52263,0.91767 9.78383,4.40504 12.5855,6.73256l15.83599,14.10306c4.15188,3.86509 10.59033,12.92593 12.64362,18.21227c2.1108,5.4344 3.05896,16.75903 2.20667,22.52873l-2.74832,15.5256c-1.17617,5.68934 -5.93533,15.96096 -9.76841,20.32349c-3.67377,4.18121 -12.55796,10.5627 -17.60903,12.90299l-3.43349,1.51205c-7.72806,3.09937 -23.50559,4.06914 -31.55506,1.93955l-5.60076,-1.68385c-4.75707,-1.47352 -13.76752,-5.53835 -17.97656,-8.19979c-5.13332,-3.24588 -11.62299,-12.89381 -13.33718,-18.72994l-3.85607,-16.423c-0.39821,-3.16057 0.27551,-9.37646 1.91975,-12.08426c1.28645,-2.11857 4.79412,-5.55312 6.81757,-6.9892l20.33503,-13.05064c4.63855,-2.83946 14.66452,-6.42354 20.05194,-7.16816l0.94638,-0.11034c4.9016,-0.46383 14.50811,0.52306 19.21302,1.97378l4.65768,1.54772c2.14452,0.8253 6.02992,3.1504 7.77081,4.6502l0.16028,0.15164c1.94055,2.37074 4.19634,7.78889 4.51159,10.8363l-0.04343,1.80375c-0.43382,1.87738 -1.7932,5.5738 -3.22499,6.80335c-1.40249,1.2044 -5.1672,2.01353 -7.04529,2.18201l-2.47643,-0.27068c-2.48718,-0.64561 -7.09438,-2.87945 -8.61994,-4.91353c-0.45126,-0.60168 -0.90253,-1.20337 -0.90253,-1.20337l4.02075,-3.01557l-4.48463,-1.49021c-2.7866,-1.03865 -8.51277,-1.62691 -11.45234,-1.17652l-0.94638,0.11034c-3.40014,0.27995 -9.60734,2.4989 -12.4144,4.4379l-20.33503,13.05064c-0.2553,0.08442 -0.52268,0.33754 -0.7481,0.61057l3.66819,15.62283c0.28371,2.67293 3.17944,6.2053 5.43362,7.63066c3.17847,2.0098 9.92587,5.13273 13.53915,6.17572l5.60076,1.68385c4.90607,1.76545 14.46508,1.1779 19.11801,-1.1751l3.43349,-1.51205c3.35885,-1.36328 8.94998,-5.58857 11.34162,-8.31055c2.23232,-2.54066 5.14034,-8.22086 5.56595,-11.58014l2.74832,-15.5256c0.75738,-3.32358 -0.02828,-9.70034 -1.261,-12.87405c-1.29022,-3.32177 -5.0916,-9.01069 -7.83601,-11.28724l-15.83599,-14.10306c-1.06133,-1.11274 -3.66889,-2.36969 -5.15203,-2.75606c-1.78903,-0.46606 -5.38644,-0.85162 -7.22551,-0.65331l-13.48503,1.00651c-8.81974,0.59725 -25.74418,4.72411 -33.84889,8.25372l-27.38421,11.70218z" fill="#d6e6ff"/><path d="M549.22092,430.62944c-1.0155,-0.87206 -3.3723,-1.51567 -5.20435,-1.84677c-0.49613,0.22666 -1.04393,0.4847 -1.53128,0.75728l9.16516,6.87387c0.08675,-0.20334 0.17642,-0.40248 0.26426,-0.58602c-0.58772,-1.83713 -1.61659,-4.27329 -2.69381,-5.19836zM644.47783,424.90507l-27.38421,-11.70218c-8.10471,-3.52961 -25.02915,-7.65647 -33.84889,-8.25372l-13.48503,-1.00651c-1.83907,-0.19831 -5.43648,0.18725 -7.22551,0.65331c-1.48314,0.38637 -4.0907,1.64332 -5.15203,2.75606l-15.83599,14.10306c-2.74441,2.27655 -6.54579,7.96547 -7.83601,11.28724c-1.23272,3.17371 -2.01838,9.55047 -1.261,12.87405l2.74832,15.5256c0.42561,3.35928 3.33363,9.03948 5.56595,11.58014c2.39164,2.72198 7.98277,6.94727 11.34162,8.31055l3.43349,1.51205c4.65293,2.353 14.21194,2.94055 19.11801,1.1751l5.60076,-1.68385c3.61328,-1.04299 10.36068,-4.16592 13.53915,-6.17572c2.25418,-1.42536 5.14991,-4.95773 5.43362,-7.63066l3.66819,-15.62283c-0.22542,-0.27303 -0.4928,-0.52615 -0.7481,-0.61057l-20.33503,-13.05064c-2.80706,-1.939 -9.01426,-4.15795 -12.4144,-4.4379l-0.94638,-0.11034c-2.93957,-0.45039 -8.66574,0.13787 -11.45234,1.17652l-4.48463,1.49021l4.02075,3.01557c0,0 -0.45127,0.60169 -0.90253,1.20337c-1.52556,2.03408 -6.13276,4.26792 -8.61994,4.91353l-2.47643,0.27068c-1.87809,-0.16848 -5.6428,-0.97761 -7.04529,-2.18201c-1.43179,-1.22955 -2.79117,-4.92597 -3.22499,-6.80335l-0.04343,-1.80375c0.31525,-3.04741 2.57104,-8.46556 4.51159,-10.8363l0.16028,-0.15164c1.74089,-1.4998 5.62629,-3.8249 7.77081,-4.6502l4.65768,-1.54772c4.70491,-1.45072 14.31142,-2.43761 19.21302,-1.97378l0.94638,0.11034c5.38742,0.74462 15.41339,4.3287 20.05194,7.16816l20.33503,13.05064c2.02345,1.43608 5.53112,4.87063 6.81757,6.9892c1.64424,2.7078 2.31796,8.92369 1.91975,12.08426l-3.85607,16.423c-1.71419,5.83613 -8.20386,15.48406 -13.33718,18.72994c-4.20904,2.66144 -13.21949,6.72627 -17.97656,8.19979l-5.60076,1.68385c-8.04947,2.12959 -23.827,1.15982 -31.55506,-1.93955l-3.43349,-1.51205c-5.05107,-2.34029 -13.93526,-8.72178 -17.60903,-12.90299c-3.83308,-4.36253 -8.59224,-14.63415 -9.76841,-20.32349l-2.74832,-15.5256c-0.85229,-5.7697 0.09587,-17.09433 2.20667,-22.52873c2.05329,-5.28634 8.49174,-14.34718 12.64362,-18.21227l15.83599,-14.10306c2.80167,-2.32752 9.06287,-5.81489 12.5855,-6.73256c3.21674,-0.83799 9.78357,-1.37144 13.10298,-1.18473l13.48503,1.00651c10.28195,0.82847 30.07312,5.65436 39.58235,9.65177l27.38421,11.70218z" fill="#d6e6ff"/><path d="M442.65206,433.29916c0,0 -3.80144,-3.02418 -6.92589,-5.50978c-2.08751,-2.00841 -7.05059,-3.66673 -9.92615,-3.31665l-3.76111,0.10185c-5.70626,-0.1177 -15.49463,3.75353 -19.57674,7.74246l-3.74794,3.32824c-5.38667,4.50203 -12.17215,15.88359 -13.57095,22.76311l-2.26383,9.6436c-0.49584,1.19139 -0.125,3.40599 0.35137,4.58669c0.63643,1.5774 2.38094,4.34179 3.67009,5.45573l2.00537,1.94433c1.87398,2.11754 6.56839,4.43743 9.38882,4.63978l5.68061,0.84704c1.26594,0.21254 3.8106,0.30559 5.09199,0.23306c1.74012,-0.0985 9.71244,-0.54976 11.45256,-0.64826c3.98616,-0.22563 7.97232,-0.45126 7.97232,-0.45126l1.01724,17.97123c0,0 -3.98616,0.22563 -7.97232,0.45126c-1.74012,0.0985 -9.71244,0.54976 -11.45256,0.64826c-2.19885,0.12446 -6.58211,-0.09958 -8.76387,-0.40112l-5.68061,-0.84704c-5.48044,-1.0354 -15.11238,-5.79533 -19.2639,-9.51987l-2.00537,-1.94433c-2.49187,-2.552 -6.49888,-8.33745 -7.83293,-11.64395c-1.49411,-3.7032 -1.89018,-11.49955 -1.18245,-15.43522l2.26383,-9.6436c2.43019,-9.43143 12.00147,-25.48574 19.14257,-32.10862l3.74794,-3.32824c6.74815,-5.62857 22.26891,-11.76692 31.04151,-12.27669l3.76111,-0.10185c5.97137,0.11052 16.78112,3.7224 21.6195,7.22377c3.12445,2.4856 6.92589,5.50978 6.92589,5.50978l-11.20611,14.08628z" fill="#ffffff"/><path d="M546.14184,419.21287c0,0 3.80144,-3.02418 6.92589,-5.50978c4.83838,-3.50137 15.64813,-7.11325 21.6195,-7.22377l3.76111,0.10185c8.7726,0.50977 24.29336,6.64812 31.04151,12.27669l3.74794,3.32824c7.1411,6.62288 16.71238,22.67719 19.14257,32.10862l2.26383,9.6436c0.70773,3.93567 0.31166,11.73202 -1.18245,15.43522c-1.33405,3.3065 -5.34106,9.09195 -7.83293,11.64395l-2.00537,1.94433c-4.15152,3.72454 -13.78346,8.48447 -19.2639,9.51987l-5.68061,0.84704c-2.18176,0.30154 -6.56502,0.52558 -8.76387,0.40112c-1.74012,-0.0985 -9.71244,-0.54976 -11.45256,-0.64826c-3.98616,-0.22563 -7.97232,-0.45126 -7.97232,-0.45126l1.01724,-17.97123c0,0 3.98616,0.22563 7.97232,0.45126c1.74012,0.0985 9.71244,0.54976 11.45256,0.64826c1.28139,0.07253 3.82605,-0.02052 5.09199,-0.23306l5.68061,-0.84704c2.82043,-0.20235 7.51484,-2.52224 9.38882,-4.63978l2.00537,-1.94433c1.28915,-1.11394 3.03366,-3.87833 3.67009,-5.45573c0.47637,-1.1807 0.84721,-3.3953 0.35137,-4.58669l-2.26383,-9.6436c-1.3988,-6.87952 -8.18428,-18.26108 -13.57095,-22.76311l-3.74794,-3.32824c-4.08211,-3.98893 -13.87048,-7.86016 -19.57674,-7.74246l-3.76111,-0.10185c-2.87556,-0.35008 -7.83864,1.30824 -9.92615,3.31665c-3.12445,2.4856 -6.92589,5.50978 -6.92589,5.50978z" fill="#ffffff"/><path d="M368.28185,519.84517l-4.4643,-7.64184c-2.36942,-4.19864 -5.62751,-13.13573 -6.51618,-17.87418l-0.60686,-3.52572c-0.42379,-2.88661 -0.37378,-8.65203 0.10004,-11.53085l0.78971,-4.15539l17.68349,3.36066l-0.78971,4.15539c-0.3159,1.27657 -0.33809,3.83498 -0.04439,5.11684l0.60686,3.52572c0.47473,3.18256 2.63436,9.10651 4.31925,11.84789l4.4643,7.64184z" fill="#ffffff"/><path d="M616.17594,510.76553l4.4643,-7.64184c1.68489,-2.74138 3.84452,-8.66533 4.31925,-11.84789l0.60686,-3.52572c0.2937,-1.28186 0.27151,-3.84027 -0.04439,-5.11684l-0.78971,-4.15539l17.68349,-3.36066l0.78971,4.15539c0.47382,2.87882 0.52383,8.64424 0.10004,11.53085l-0.60686,3.52572c-0.88867,4.73845 -4.14676,13.67554 -6.51618,17.87418l-4.4643,7.64184z" fill="#ffffff"/><path d="M493.66533,494.68999c-0.38272,1.0274 -0.51581,2.9244 -0.34466,4.27382l0.40498,0.1361c1.36381,-0.38187 3.25331,-0.91093 3.69726,-1.03523c0.40363,-0.11302 0.80727,-0.22604 1.1923,-0.33384l0.20135,-0.7191c0,0 0.47375,0.13265 1.18344,0.33136c0.70969,-0.19871 1.18344,-0.33136 1.18344,-0.33136l0.20135,0.7191c0.38503,0.10781 0.78867,0.22083 1.1923,0.33384c0.44395,0.12431 2.33346,0.65337 3.69726,1.03523l0.40498,-0.1361c0.17115,-1.34941 0.03806,-3.24641 -0.34466,-4.27382l-6.33467,-23.0844zM499.81794,516.08635c-0.65111,0.18231 -1.95333,0.54693 -2.60444,0.72924c-1.92594,0.53926 -5.91852,0.24664 -7.87777,-0.20171l-2.53494,-0.85191c-4.04711,-2.00638 -9.54435,-8.29082 -10.99448,-12.56888l-0.00883,-0.04574c-0.52319,-3.33025 -0.26842,-9.94061 0.50955,-13.22072l10.20034,-37.17143l13.49263,3.70256l13.49263,-3.70256l10.20034,37.17143c0.77797,3.2801 1.03274,9.89046 0.50955,13.22072l-0.00883,0.04574c-1.45013,4.27806 -6.94737,10.5625 -10.99448,12.56888l-2.53494,0.85191c-1.95925,0.44835 -5.95183,0.74098 -7.87777,0.20171c-0.65111,-0.18231 -1.95333,-0.54693 -2.60444,-0.72924c-0.05838,-0.01635 -0.11914,-0.03336 -0.18206,-0.05098c-0.06292,0.01762 -0.12368,0.03463 -0.18206,0.05098z" fill="#ffffff"/><path d="" fill="#ffffff"/><path d="M474.08284,512.30726c0,0 0.13889,2.1093 0.27779,4.2186c0.04774,0.72497 0.29064,1.89796 0.92323,2.31717l0.84594,1.01965c0.39025,1.15929 1.91587,1.86343 3.05125,1.40827l0.76345,-0.01025c2.92329,0.00015 8.64631,-0.8406 11.44604,-1.6815l7.34034,-2.09724l1.26912,4.44192l1.26912,-4.44192l7.34034,2.09724c2.79973,0.84091 8.52275,1.68166 11.44604,1.6815l0.76345,0.01025c1.13538,0.45516 2.661,-0.24898 3.05125,-1.40827l0.84594,-1.01965c0.63259,-0.41921 0.87549,-1.59219 0.92323,-2.31717c0.13889,-2.1093 0.27779,-4.2186 0.27779,-4.2186l17.9611,1.1827c0,0 -0.13889,2.1093 -0.27779,4.2186c-0.23005,3.49363 -2.96436,9.79299 -5.03119,12.62753l-0.84594,1.01965c-3.54529,3.58439 -12.11833,7.54119 -17.14608,7.91359l-0.76345,-0.01025c-4.11057,-0.09461 -12.18524,-1.28083 -16.14934,-2.37245l-3.66448,-1.04699l-3.66448,1.04699c-3.9641,1.09162 -12.03877,2.27784 -16.14934,2.37245l-0.76345,0.01025c-5.02775,-0.3724 -13.60079,-4.32919 -17.14608,-7.91359l-0.84594,-1.01965c-2.06683,-2.83454 -4.80114,-9.1339 -5.03119,-12.62753c-0.13889,-2.1093 -0.27779,-4.2186 -0.27779,-4.2186z" fill="#ffffff"/><path d="" fill="#ffffff"/><path d="M481.05747,541.4681c-0.59053,-0.42719 -1.46434,-0.89284 -2.0456,-1.19373c-0.59775,-0.05797 -1.57841,-0.14086 -2.09273,-0.17621l21.955,-3.28063l0.04918,-0.32911l1.07668,0.16088l1.07668,-0.16088l0.04918,0.32911l21.955,3.28063c-0.51432,0.03535 -1.49498,0.11824 -2.09273,0.17621c-0.58126,0.30089 -1.45507,0.76653 -2.0456,1.19373l12.69219,12.69219c0,0 -0.18803,0.18803 -0.37605,0.37605c-0.92407,0.92407 -3.22362,2.20072 -4.4265,2.7259l-0.37353,0.12318c-1.48952,0.36268 -4.50848,0.62023 -6.03791,0.51509l-20.42073,-3.05137l-20.42073,3.05137c-1.52943,0.10513 -4.54839,-0.15241 -6.03791,-0.51509l-0.37353,-0.12318c-1.20287,-0.52518 -3.50242,-1.80183 -4.4265,-2.7259c-0.18803,-0.18803 -0.37605,-0.37605 -0.37605,-0.37605z" fill="#ffffff"/><path d="M438.7774,633.16595c0,0 -1.85244,-4.32926 -3.70488,-8.65851l-0.66307,-1.54964c-1.97655,-5.09923 -3.02169,-14.36099 -2.65951,-21.43677c-1.21879,-4.03807 -1.94193,-8.17584 -1.782,-11.17317l0.14174,-1.22238c0.6415,-4.54616 3.55164,-13.08871 6.01205,-16.96332c2.4851,-3.91349 9.10812,-10.159 13.03603,-12.62438l16.34627,-9.65861c5.04941,-2.83908 15.86356,-6.28725 21.64381,-6.64802c3.20155,-0.19982 8.18722,0.16934 12.85217,0.81719c4.66495,-0.64785 9.65062,-1.01701 12.85217,-0.81719c5.78025,0.36077 16.59441,3.80894 21.64381,6.64802l16.34627,9.65861c3.9279,2.46539 10.55093,8.7109 13.03603,12.62438c2.46041,3.87461 5.37054,12.41716 6.01205,16.96332l0.14174,1.22238c0.15993,2.99732 -0.56321,7.1351 -1.782,11.17317c0.36218,7.07578 -0.68296,16.33754 -2.65951,21.43677l-0.66307,1.54964c-1.85244,4.32926 -3.70488,8.65851 -3.70488,8.65851l-16.23495,-6.94675c-1.14364,0.57182 -2.21443,1.10721 -2.99298,1.49649c-4.21179,2.1059 -12.699,6.3495 -12.699,6.3495l-8.04984,-16.09969c0,0 4.21179,-2.1059 8.42359,-4.21179c2.07409,-1.03704 10.49767,-5.24884 12.57176,-6.28588c1.30183,-0.65091 3.57648,-2.30073 4.47451,-3.44919l2.81314,-3.20087c0.18411,-0.15524 0.36241,-0.33194 0.53386,-0.5268l-1.75396,-6.73785c-1.04953,-4.99268 -6.42951,-12.71507 -10.46422,-15.82809c-4.55008,-3.51066 -14.52744,-8.751 -20.04341,-10.36573l-14.20171,-4.35286c-0.97771,-0.31951 -2.22302,-0.61239 -3.59939,-0.86636c-1.37638,0.25397 -2.62168,0.54685 -3.59939,0.86636l-14.20171,4.35286c-5.51597,1.61472 -15.49333,6.85507 -20.04341,10.36573c-4.03471,3.11302 -9.41469,10.83541 -10.46422,15.82809l-1.75396,6.73785c0.17145,0.19486 0.34974,0.37156 0.53386,0.5268l2.81314,3.20087c0.89804,1.14846 3.17269,2.79828 4.47451,3.44919c2.07409,1.03704 10.49767,5.24884 12.57176,6.28588c4.21179,2.1059 8.42359,4.21179 8.42359,4.21179l-8.04984,16.09969c0,0 -8.4872,-4.2436 -12.699,-6.3495c-0.77855,-0.38927 -1.84934,-0.92467 -2.99298,-1.49649z" fill="#d6e6ff"/><path d="M459.53779,606.39978l3.17539,-0.7064l0.13097,-7.93072l11.57766,0.19119c6.01629,0.10511 18.00883,0.91112 23.98507,1.61203l1.59312,0.18839l1.59312,-0.18839c5.97625,-0.7009 17.96878,-1.50691 23.98507,-1.61203l11.57766,-0.19119l0.13097,7.93072l3.17539,0.7064l-3.90877,17.57047l-8.70563,-1.93667c-4.12941,-0.92454 -12.46185,-2.34029 -16.66488,-2.83151l-11.18294,-1.3224l-11.18294,1.3224c-4.20303,0.49122 -12.53547,1.90697 -16.66488,2.83151l-8.70563,1.93667z" fill="#ffffff"/><path d="M448.86891,590.56055l12.88439,-0.84585l0.63609,-6.34887l9.9466,0.99654c4.93489,0.49459 14.81245,1.39873 19.75512,1.80828l7.90889,0.6556l7.90889,-0.6556c4.94267,-0.40955 14.82023,-1.3137 19.75512,-1.80828l9.9466,-0.99654l0.63609,6.34887l12.88439,0.84585l-1.17914,17.96134l-14.65654,-0.96219c-7.36677,-0.48379 -22.09094,-1.57729 -29.44836,-2.18702l-5.84705,-0.48469l-5.84705,0.48469c-7.35741,0.60972 -22.08159,1.70323 -29.44836,2.18702l-14.65654,0.96219z" fill="#ffffff"/><path d="M374.78228,326.10876l-0.45126,1.12816c-0.16782,0.4116 -0.46759,1.24766 -0.59953,1.67212l-0.36604,1.15051c-0.321,0.99921 -0.88405,3.01963 -1.12611,4.04084l-0.67198,2.7999l-17.50297,-4.20071l0.67198,-2.7999c0.3239,-1.33692 1.06203,-3.98558 1.47627,-5.29733l0.36604,-1.15051c0.23644,-0.73341 0.75632,-2.18339 1.03976,-2.89995l0.45126,-1.12816z" fill="#ffffff"/><path d="M641.9303,319.42373l0.45126,1.12816c0.28344,0.71656 0.80332,2.16654 1.03976,2.89995l0.36604,1.15051c0.41424,1.31175 1.15237,3.96041 1.47627,5.29733l0.67198,2.7999l-17.50297,4.20071l-0.67198,-2.7999c-0.24206,-1.02121 -0.80511,-3.04163 -1.12611,-4.04084l-0.36604,-1.15051c-0.13194,-0.42446 -0.43171,-1.26052 -0.59953,-1.67212l-0.45126,-1.12816z" fill="#ffffff"/><path d="M388.50982,324.72263l6.48643,34.69975c0.60063,3.30216 2.38436,9.74522 3.56745,12.88613l1.2699,3.42183c0.50939,1.4196 1.79004,4.13531 2.56129,5.43142l1.89907,3.27166l-15.56745,9.03628l-1.89907,-3.27166c-1.12782,-1.97555 -3.06242,-6.07803 -3.8692,-8.20496l-1.2699,-3.42183c-1.41915,-3.871 -3.61196,-11.79171 -4.38561,-15.84142l-6.48643,-34.69975z" fill="#ffffff"/><path d="M629.1837,328.03008l-6.48643,34.69975c-0.77365,4.04971 -2.96646,11.97042 -4.38561,15.84142l-1.2699,3.42183c-0.80678,2.12693 -2.74138,6.22941 -3.8692,8.20496l-1.89907,3.27166l-15.56745,-9.03628l1.89907,-3.27166c0.77125,-1.29611 2.0519,-4.01182 2.56129,-5.43142l1.2699,-3.42183c1.18309,-3.14091 2.96682,-9.58397 3.56745,-12.88613l6.48643,-34.69975z" fill="#ffffff"/><path d="M404.68234,312.97891l5.28666,11.45826c2.72457,5.91624 7.63555,17.96802 9.82196,24.10356l3.79494,10.67337c1.40839,3.97495 3.86845,12.03374 4.92011,16.11758l1.99308,7.77489l-17.43621,4.46974l-1.99308,-7.77489c-0.94142,-3.69105 -3.16331,-10.96965 -4.44378,-14.5572l-3.79494,-10.67337c-2.04106,-5.75434 -6.64421,-17.0507 -9.20631,-22.59272l-5.28666,-11.45826z" fill="#ffffff"/><path d="M611.66189,320.51987l-5.28666,11.45826c-2.5621,5.54202 -7.16525,16.83838 -9.20631,22.59272l-3.79494,10.67337c-1.28047,3.58755 -3.50236,10.86615 -4.44378,14.5572l-1.99308,7.77489l-17.43621,-4.46974l1.99308,-7.77489c1.05166,-4.08384 3.51172,-12.14263 4.92011,-16.11758l3.79494,-10.67337c2.18641,-6.13554 7.09739,-18.18732 9.82196,-24.10356l5.28666,-11.45826z" fill="#ffffff"/><path d="M453.59645,269.54826l-3.80042,36.43719c-1.00836,9.56687 -1.69325,28.74815 -1.36978,38.36258l0.31775,9.76052c0.14239,4.69558 1.08528,14.02018 1.8858,18.6492l1.6836,9.86646l-17.74353,3.02773l-1.6836,-9.86646c-0.88309,-5.23743 -1.94946,-15.78307 -2.13274,-21.09127l-0.31775,-9.76052c-0.3225,-10.22841 0.40618,-30.63617 1.45736,-40.81553l3.80042,-36.43719z" fill="#d6e6ff"/><path d="M564.30644,267.68097l3.80042,36.43719c1.05118,10.17936 1.77986,30.58712 1.45736,40.81553l-0.31775,9.76052c-0.18328,5.3082 -1.24965,15.85384 -2.13274,21.09127l-1.6836,9.86646l-17.74353,-3.02773l1.6836,-9.86646c0.80052,-4.62902 1.74341,-13.95362 1.8858,-18.6492l0.31775,-9.76052c0.32347,-9.61443 -0.36142,-28.79571 -1.36978,-38.36258l-3.80042,-36.43719z" fill="#d6e6ff"/><path d="M484.92421,275.02021l-2.6183,60.56086c-0.42642,9.76227 -0.41111,29.28614 0.03063,39.04774l0.40081,8.94545c0.2319,5.27295 1.16677,15.77693 1.86974,21.00796l1.4497,10.85552l-17.84161,2.38265l-1.4497,-10.85552c-0.74673,-5.62449 -1.75177,-16.91695 -2.01009,-22.58491l-0.40081,-8.94545c-0.45075,-10.15738 -0.46669,-30.47284 -0.03187,-40.63092l2.6183,-60.56086z" fill="#ffffff"/><path d="M533.05899,274.24273l2.6183,60.56086c0.43482,10.15808 0.41888,30.47354 -0.03187,40.63092l-0.40081,8.94545c-0.25832,5.66796 -1.26336,16.96042 -2.01009,22.58491l-1.4497,10.85552l-17.84161,-2.38265l1.4497,-10.85552c0.70297,-5.23103 1.63784,-15.73501 1.86974,-21.00796l0.40081,-8.94545c0.44174,-9.7616 0.45705,-29.28547 0.03063,-39.04774l-2.6183,-60.56086z" fill="#ffffff"/><path d="M525.84211,259.88919l1.29109,38.47455c0.33704,10.05958 0.70387,30.18435 0.73366,40.24953l0.01227,4.21908c0.02259,7.95367 -0.17481,23.85799 -0.39481,31.80864l-0.43723,15.76347l-17.99308,-0.49908l0.43723,-15.76347c0.21723,-7.81282 0.41122,-23.44143 0.38797,-31.25724l-0.01227,-4.21908c-0.02833,-9.92732 -0.39014,-29.77641 -0.72361,-39.69818l-1.29109,-38.47455z" fill="#ffffff"/><path d="M492.14776,260.49286l-1.29109,38.47455c-0.33347,9.92177 -0.69528,29.77086 -0.72361,39.69818l-0.01227,4.21908c-0.02325,7.81581 0.17074,23.44442 0.38797,31.25724l0.43723,15.76347l-17.99308,0.49908l-0.43723,-15.76347c-0.22,-7.95065 -0.4174,-23.85497 -0.39481,-31.80864l0.01227,-4.21908c0.02979,-10.06518 0.39662,-30.18995 0.73366,-40.24953l1.29109,-38.47455z" fill="#d6e6ff"/><path d="M690.2364,513.56708c0.02094,0.01917 0.04177,0.03842 0.06249,0.05774c-0.02278,0.00382 -0.04404,0.00539 -0.06364,0.00492c-0.02661,-0.03667 -0.04773,-0.07617 -0.06179,-0.11764c0.02104,0.01821 0.04203,0.03654 0.06295,0.05498zM678.21564,526.95704c0.01426,0.01477 0.02846,0.02939 0.0426,0.04386c-0.01672,-0.01453 -0.03341,-0.02913 -0.05005,-0.0438c-0.0158,-0.01446 -0.03154,-0.02897 -0.04721,-0.04352c0.01801,0.01442 0.03624,0.02891 0.05466,0.04346zM678.14369,526.8997c0.02143,0.01926 0.04293,0.03839 0.0645,0.0574c0.02121,0.01941 0.04253,0.03875 0.06396,0.058zM690.3009,513.62448c-0.02143,-0.01926 -0.04293,-0.03839 -0.0645,-0.0574c-0.02121,-0.01941 -0.04253,-0.03875 -0.06396,-0.058zM699.05225,415.42065l-9.90035,73.69419c-0.52547,3.70282 -0.69164,11.12827 -0.33233,14.85089l0.48914,5.49415c0.0554,0.93551 0.42401,2.75428 0.73723,3.63754l0.08529,0.26521c-0.01767,0.02629 -0.03035,0.05171 -0.0384,0.07574c0.02664,0.02338 0.05318,0.04695 0.07962,0.0707c0.00033,0.00101 0.00067,0.00201 0.00101,0.00302c-0.02718,-0.02352 -0.05447,-0.04685 -0.08185,-0.06999c-0.03376,0.10651 0.02432,0.18479 0.14364,0.18763c0.069,0.0951 0.17485,0.17121 0.28994,0.21353c-0.0739,-0.07384 -0.14933,-0.14668 -0.2263,-0.21846c0.00067,-0.00011 0.00134,-0.00022 0.00201,-0.00034c0.08214,0.07379 0.1626,0.14874 0.24139,0.22482c0.09822,0.033 0.2021,0.04123 0.29483,0.01568l0.54534,0.14c1.38156,0.35597 4.12745,1.1291 5.49104,1.54867c1.26208,0.38834 5.17303,1.59171 6.43511,1.98004c1.95547,0.60169 3.91095,1.20337 3.91095,1.20337l-5.29355,17.20402c0,0 -1.95547,-0.60169 -3.91095,-1.20337c-1.26208,-0.38834 -5.17303,-1.59171 -6.43511,-1.98004c-1.16057,-0.3571 -3.49685,-1.01732 -4.67329,-1.31804l-0.54534,-0.14c-1.53135,-0.48353 -3.9102,-1.64866 -5.86019,-2.81198c-0.79277,-0.36774 -1.54497,-0.85809 -2.22899,-1.47254c-0.00463,-0.00472 -0.00927,-0.00945 -0.01391,-0.0142c0.561,0.48732 1.16587,0.89301 1.79987,1.21787c-0.71396,-0.44102 -1.35156,-0.87415 -1.84247,-1.26173c-0.49904,-0.51702 -1.06909,-1.21722 -1.64927,-2.00667c0.4263,0.71021 0.95826,1.37245 1.59461,1.96322c-0.00578,-0.00463 -0.01155,-0.00925 -0.01729,-0.01387c-0.77687,-0.69786 -1.40398,-1.50027 -1.87916,-2.36679c-1.33924,-1.88166 -2.67633,-4.14999 -3.26907,-5.65977l-0.08529,-0.26521c-0.566,-1.85079 -1.33128,-5.62671 -1.53056,-7.55183l-0.48914,-5.49415c-0.39251,-4.72209 -0.18167,-14.14397 0.42169,-18.84377l9.90035,-73.69419z" fill="#d6e6ff"/><path d="M318.7875,413.024l9.90035,73.69419c0.60336,4.6998 0.8142,14.12168 0.42169,18.84377l-0.48914,5.49415c-0.19928,1.92512 -0.96456,5.70104 -1.53056,7.55183l-0.08529,0.26521c-0.59274,1.50978 -1.92983,3.77811 -3.26907,5.65977c-0.47518,0.86652 -1.10229,1.66893 -1.87916,2.36679c-0.00574,0.00462 -0.01151,0.00924 -0.01729,0.01387c0.63635,-0.59077 1.16831,-1.25301 1.59461,-1.96322c-0.58018,0.78945 -1.15023,1.48965 -1.64927,2.00667c-0.49091,0.38758 -1.12851,0.82071 -1.84247,1.26173c0.634,-0.32486 1.23887,-0.73055 1.79987,-1.21787c-0.00464,0.00475 -0.00928,0.00948 -0.01391,0.0142c-0.68402,0.61445 -1.43622,1.1048 -2.22899,1.47254c-1.94999,1.16332 -4.32884,2.32845 -5.86019,2.81198l-0.54534,0.14c-1.17644,0.30072 -3.51272,0.96094 -4.67329,1.31804c-1.26208,0.38833 -5.17303,1.5917 -6.43511,1.98004c-1.95548,0.60168 -3.91095,1.20337 -3.91095,1.20337l-5.29355,-17.20402c0,0 1.95548,-0.60168 3.91095,-1.20337c1.26208,-0.38833 5.17303,-1.5917 6.43511,-1.98004c1.36359,-0.41957 4.10948,-1.1927 5.49104,-1.54867l0.54534,-0.14c0.09273,0.02555 0.19661,0.01732 0.29483,-0.01568c0.07879,-0.07608 0.15925,-0.15103 0.24139,-0.22482c0.00067,0.00012 0.00134,0.00023 0.00201,0.00034c-0.07697,0.07178 -0.1524,0.14462 -0.2263,0.21846c0.11509,-0.04232 0.22094,-0.11843 0.28994,-0.21353c0.11932,-0.00284 0.1774,-0.08112 0.14364,-0.18763c-0.02738,0.02314 -0.05467,0.04647 -0.08185,0.06999c0.00034,-0.00101 0.00068,-0.00201 0.00101,-0.00302c0.02644,-0.02375 0.05298,-0.04732 0.07962,-0.0707c-0.00805,-0.02403 -0.02073,-0.04945 -0.0384,-0.07574l0.08529,-0.26521c0.31322,-0.88326 0.68183,-2.70203 0.73723,-3.63754l0.48914,-5.49415c0.35931,-3.72262 0.19314,-11.14807 -0.33233,-14.85089l-9.90035,-73.69419zM309.82756,513.50908c-0.02143,0.01925 -0.04275,0.03859 -0.06396,0.058c-0.02157,0.01901 -0.04307,0.03814 -0.0645,0.0574zM321.72785,527.0151c0.02143,-0.01925 0.04275,-0.03859 0.06396,-0.058c0.02157,-0.01901 0.04307,-0.03814 0.0645,-0.0574zM321.83902,526.91358c-0.01567,0.01455 -0.03141,0.02906 -0.04721,0.04352c-0.01664,0.01467 -0.03333,0.02927 -0.05005,0.0438c0.01414,-0.01447 0.02834,-0.02909 0.0426,-0.04386c0.01842,-0.01455 0.03665,-0.02904 0.05466,-0.04346zM309.76359,513.56708c0.02092,-0.01844 0.04191,-0.03677 0.06295,-0.05498c-0.01406,0.04147 -0.03518,0.08097 -0.06179,0.11764c-0.0196,0.00047 -0.04086,-0.0011 -0.06364,-0.00492c0.02072,-0.01932 0.04155,-0.03857 0.06249,-0.05774z" fill="#ffffff"/><path d="M314.77341,398.07326l27.80427,81.31126c1.44761,4.25746 3.84831,12.90958 4.8014,17.30425l1.7284,8.03669c0.07106,0.36745 0.19282,1.10596 0.22801,1.47848c0.06914,0.7319 -0.04079,2.20271 -0.13288,2.93338l-2.06924,11.07381c-0.52853,2.59064 -2.20026,7.56538 -3.34346,9.94947l-1.80505,3.61011l-16.09969,-8.04984l1.80505,-3.61011c0.66186,-1.22602 1.53655,-3.82895 1.7494,-5.20585l1.80184,-9.64278l-1.46001,-6.78873c-0.82663,-3.88066 -2.9444,-11.5131 -4.23554,-15.26488l-27.80427,-81.31126z" fill="#d6e6ff"/><path d="M702.25836,403.89726l-27.80427,81.31126c-1.29114,3.75178 -3.40891,11.38422 -4.23554,15.26488l-1.46001,6.78873l1.80184,9.64278c0.21285,1.3769 1.08754,3.97983 1.7494,5.20585l1.80505,3.61011l-16.09969,8.04984l-1.80505,-3.61011c-1.1432,-2.38409 -2.81493,-7.35883 -3.34346,-9.94947l-2.06924,-11.07381c-0.09209,-0.73067 -0.20202,-2.20148 -0.13288,-2.93338c0.03519,-0.37252 0.15695,-1.11103 0.22801,-1.47848l1.7284,-8.03669c0.95309,-4.39467 3.35379,-13.04679 4.8014,-17.30425l27.80427,-81.31126z" fill="#ffffff"/><path d="M432.79836,653.43009l28.40098,18.97907c6.38513,4.59177 15.24103,16.6501 17.7118,24.11666l1.93589,6.60239c0.75661,3.54042 0.56513,10.60604 -0.87814,13.91527c-1.07774,2.47113 -3.91362,7.01739 -5.59277,9.12696l-3.81709,4.64134c-1.56093,1.83016 -5.0502,5.10014 -7.02759,6.4691c-1.46661,1.01534 -2.93321,2.03069 -2.93321,2.03069l-10.24578,-14.79946c0,0 1.46661,-1.01534 2.93321,-2.03069c0.95582,-0.66172 2.66584,-2.17784 3.37099,-3.1031l3.81709,-4.64134c0.95649,-1.09519 2.41501,-3.55707 2.99604,-4.88931c0.21551,-0.49413 0.51531,-1.2136 0.10443,-1.6549l-1.93589,-6.60239c-1.08824,-4.67145 -6.30825,-11.7791 -10.44003,-14.21531l-28.40098,-18.97907z" fill="#ffffff"/><path d="M577.20269,668.396l-28.40098,18.97907c-4.13178,2.43621 -9.35179,9.54386 -10.44003,14.21531l-1.93589,6.60239c-0.41088,0.4413 -0.11108,1.16077 0.10443,1.6549c0.58103,1.33224 2.03955,3.79412 2.99604,4.88931l3.81709,4.64134c0.70515,0.92526 2.41517,2.44138 3.37099,3.1031c1.4666,1.01535 2.93321,2.03069 2.93321,2.03069l-10.24578,14.79946c0,0 -1.4666,-1.01535 -2.93321,-2.03069c-1.97739,-1.36896 -5.46666,-4.63894 -7.02759,-6.4691l-3.81709,-4.64134c-1.67915,-2.10957 -4.51503,-6.65583 -5.59277,-9.12696c-1.44327,-3.30923 -1.63475,-10.37485 -0.87814,-13.91527l1.93589,-6.60239c2.47077,-7.46656 11.32667,-19.52489 17.7118,-24.11666l28.40098,-18.97907z" fill="#ffffff"/><path d="M512.44236,756.54637c0,0 -1.65463,0.07521 -3.30927,0.15042c-2.30138,0.10461 -6.33291,-0.76766 -9.1331,-1.72149c-2.80019,0.95384 -6.83172,1.8261 -9.1331,1.72149c-1.65463,-0.07521 -3.30927,-0.15042 -3.30927,-0.15042l0.40013,-8.80276c-0.28934,-0.31544 -0.53431,-0.61779 -0.70976,-0.88994c-0.63519,-0.98528 -1.4649,-3.18071 -1.78246,-4.31154l-1.41008,-6.57036c-0.90292,-4.55601 -1.18505,-13.71498 -0.56427,-18.31793l6.40626,-42.44029l10.10256,1.52496l10.10256,-1.52496l6.40626,42.44029c0.62078,4.60295 0.33864,13.76191 -0.56427,18.31793l-1.41008,6.57036c-0.31755,1.13083 -1.14726,3.32626 -1.78246,4.31154c-0.17545,0.27216 -0.42042,0.57451 -0.70976,0.88994z" fill="#d6e6ff"/><path d="M537.25592,674.46501l18.39652,46.75611c0.59989,1.61745 2.23065,4.61815 3.26153,6.00138l1.88839,2.64084c0.00947,0.05257 0.06364,0.1027 0.11471,0.14402c-0.53096,-0.39929 -1.67495,-0.75133 -2.50092,-1.01412c-0.5803,0.1085 -1.30136,0.24611 -1.916,0.42456l9.86399,14.79599c0,0 -0.45127,0.30084 -0.90253,0.60168c-1.63983,1.09322 -5.51888,1.91713 -7.4999,2.03513l-1.13052,-0.06571c-2.03514,-0.35143 -5.93572,-1.6765 -7.49981,-3.00495c-0.89598,-0.761 -2.45939,-2.51025 -3.17079,-3.44671l-1.88839,-2.64084c-1.61766,-2.32065 -4.3026,-7.26106 -5.36987,-9.88083l-18.39652,-46.75611zM560.98381,730.06059c-0.01787,-0.01518 -0.04194,-0.03316 -0.06674,-0.05323c0.02347,0.01765 0.04575,0.0354 0.06674,0.05323z" fill="#ffffff"/><path d="M439.08293,730.00736c-0.0248,0.02007 -0.04887,0.03805 -0.06674,0.05323c0.02099,-0.01783 0.04327,-0.03558 0.06674,-0.05323zM479.49419,681.05545l-18.39652,46.75611c-1.06727,2.61977 -3.75221,7.56018 -5.36987,9.88083l-1.88839,2.64084c-0.7114,0.93646 -2.27481,2.68571 -3.17079,3.44671c-1.56409,1.32845 -5.46467,2.65352 -7.49981,3.00495l-1.13052,0.06571c-1.98102,-0.118 -5.86007,-0.94191 -7.4999,-2.03513c-0.45126,-0.30084 -0.90253,-0.60168 -0.90253,-0.60168l9.86399,-14.79599c-0.61464,-0.17845 -1.3357,-0.31606 -1.916,-0.42456c-0.82597,0.26279 -1.96996,0.61483 -2.50092,1.01412c0.05107,-0.04132 0.10524,-0.09145 0.11471,-0.14402l1.88839,-2.64084c1.03088,-1.38323 2.66164,-4.38393 3.26153,-6.00138l18.39652,-46.75611z" fill="#d6e6ff"/><path d="M576.31241,672.98083l7.47226,57.0264c0.32495,2.5088 1.18574,7.48996 1.72158,9.96232l0.5677,2.63825c0.24385,1.15107 0.83182,3.42732 1.17593,4.5525l0.78736,2.60417l-17.22971,5.20934l-0.78736,-2.60417c-0.44325,-1.47899 -1.21497,-4.46662 -1.54343,-5.97526l-0.5677,-2.63825c-0.60579,-2.83308 -1.59169,-8.53824 -1.97181,-11.41032l-7.47226,-57.0264z" fill="#ffffff"/><path d="M441.53503,675.31941l-7.47226,57.0264c-0.38012,2.87208 -1.36602,8.57724 -1.97181,11.41032l-0.5677,2.63825c-0.32846,1.50864 -1.10018,4.49627 -1.54343,5.97526l-0.78736,2.60417l-17.22971,-5.20934l0.78736,-2.60417c0.34411,-1.12518 0.93208,-3.40143 1.17593,-4.5525l0.5677,-2.63825c0.53584,-2.47236 1.39663,-7.45352 1.72158,-9.96232l7.47226,-57.0264z" fill="#ffffff"/><path d="M552.3746,763.918l-13.21964,7.06017l0.03078,1.49605c-0.1833,2.30994 -1.33647,6.76197 -2.68126,8.63485c-1.78957,2.49232 -7.59784,4.68674 -10.69676,5.04927l-0.05305,-0.00351l3.94656,17.10174c0,0 -1.95548,0.45126 -3.91095,0.90253c-0.49026,0.11314 -4.40121,1.01566 -4.89147,1.1288c-0.861,0.19869 -2.6105,0.43284 -3.49175,0.4997l-4.98471,0.28689c-3.09072,0.09642 -8.49976,-0.63551 -12.42236,-1.59741c-3.9226,0.9619 -9.33164,1.69383 -12.42236,1.59741l-4.98471,-0.28689c-0.88125,-0.06686 -2.63074,-0.30101 -3.49175,-0.4997c-0.49026,-0.11314 -4.40121,-1.01566 -4.89147,-1.1288c-1.95548,-0.45126 -3.91095,-0.90253 -3.91095,-0.90253l3.94656,-17.10174l-0.05305,0.00351c-3.09892,-0.36254 -8.9072,-2.55695 -10.69676,-5.04927c-1.34479,-1.87288 -2.49796,-6.32492 -2.68126,-8.63485l0.03078,-1.49605l-13.21964,-7.06017l8.47966,-15.87751l8.0443,4.2962c0.27473,-0.49265 0.55604,-0.93017 0.83897,-1.29181c2.06069,-2.63404 7.94932,-5.57353 11.23073,-6.30656l7.76605,-0.90811c4.19528,-0.29417 10.37274,0.71462 16.0149,2.48314c5.64216,-1.76852 11.81962,-2.77731 16.0149,-2.48314l7.76605,0.90811c3.2814,0.73303 9.17004,3.67252 11.23073,6.30656c0.28293,0.36165 0.56424,0.79917 0.83897,1.29181l8.0443,-4.2962zM531.54799,775.76969c-0.01101,-0.0778 -0.02178,-0.162 -0.03238,-0.2517c-0.00455,0.09221 0.0028,0.18645 0.0235,0.28095c0.00149,-0.00484 0.00297,-0.00968 0.00445,-0.01452c0.00148,-0.00491 0.00296,-0.00982 0.00443,-0.01473zM468.45645,775.78442c0.00148,0.00484 0.00296,0.00968 0.00445,0.01452c0.02069,-0.0945 0.02804,-0.18874 0.0235,-0.28095c-0.0106,0.0897 -0.02136,0.1739 -0.03238,0.2517c0.00147,0.00491 0.00295,0.00982 0.00443,0.01473z" fill="#ffffff"/><path d="M511.87595,789.08396l7.92468,-1.68584c3.73043,-0.76607 10.91365,-3.13873 14.36646,-4.74532l7.8219,-3.5725l4.3589,9.54369l2.16041,-1.37431c0,0 0.7088,1.11423 1.4176,2.22846c0.83141,1.30697 1.25208,3.37734 1.36833,5.58839c0.86746,2.34828 0.75629,5.04443 -0.53227,7.41719c-0.02669,0.03472 -0.05387,0.06953 -0.08151,0.10441c0.80726,-1.76803 0.99413,-3.68058 0.63817,-5.4757c-0.05628,2.1118 -0.35454,4.17967 -0.80556,5.68104c-1.07783,1.28688 -2.76244,2.66145 -4.63371,3.87113c1.82724,-0.65173 3.45098,-1.89293 4.55871,-3.63107c-0.01313,0.04041 -0.02638,0.08034 -0.03974,0.1198c-1.34338,2.4737 -3.67838,4.06541 -6.24437,4.5499c-2.11354,1.18182 -4.29842,2.07951 -6.01592,2.36921l-18.4236,0.16988c-4.90874,0.03047 -12.45879,-0.49265 -19.71443,-1.27421c-7.25564,0.78156 -14.80569,1.30468 -19.71443,1.27421l-18.4236,-0.16988c-1.7175,-0.28971 -3.90237,-1.18739 -6.01592,-2.36921c-2.56598,-0.48449 -4.90098,-2.0762 -6.24437,-4.5499c-0.01336,-0.03946 -0.02661,-0.07939 -0.03974,-0.1198c1.10772,1.73814 2.73147,2.97935 4.55871,3.63107c-1.87126,-1.20969 -3.55588,-2.58426 -4.63371,-3.87113c-0.45103,-1.50137 -0.74929,-3.56925 -0.80556,-5.68104c-0.35596,1.79512 -0.16909,3.70766 0.63817,5.4757c-0.02764,-0.03488 -0.05481,-0.06969 -0.08151,-0.10441c-1.28857,-2.37276 -1.39973,-5.06891 -0.53227,-7.41719c0.11624,-2.21104 0.53692,-4.28142 1.36833,-5.58839c0.7088,-1.11423 1.4176,-2.22846 1.4176,-2.22846l2.16041,1.37431l4.3589,-9.54369l7.8219,3.5725c3.4528,1.60658 10.63603,3.97924 14.36646,4.74532l7.92468,1.68584c3.05033,0.65971 7.32627,1.30397 11.87595,1.83709c4.54968,-0.53312 8.82562,-1.17737 11.87595,-1.83709zM449.23804,802.48371c0.06091,0.11216 0.12386,0.22251 0.18878,0.33103c0.05567,0.11354 0.11395,0.22642 0.17486,0.33859zM449.48695,802.79347c0.02455,0.08173 0.04956,0.16177 0.075,0.24006c-0.04593,-0.07208 -0.09098,-0.14501 -0.13512,-0.21879c-0.0369,-0.07526 -0.07266,-0.15081 -0.10727,-0.22662c0.05403,0.06817 0.10985,0.13664 0.1674,0.20535zM550.39831,803.15333c0.06091,-0.11216 0.11919,-0.22505 0.17486,-0.33859c0.06492,-0.10852 0.12787,-0.21887 0.18878,-0.33103zM550.68045,802.58812c-0.03462,0.07581 -0.07037,0.15136 -0.10727,0.22662c-0.04414,0.07378 -0.08919,0.14671 -0.13512,0.21879c0.02544,-0.07829 0.05045,-0.15833 0.075,-0.24006c0.05755,-0.06871 0.11337,-0.13717 0.1674,-0.20535z" fill="#ffffff"/><path d="M492.77029,816.97878l-20.54782,-1.00818c-8.09064,-0.41975 -24.03613,-2.82345 -31.89098,-4.8074l-10.29831,-2.6319c-1.63354,-0.67734 -3.49359,-1.97171 -5.27028,-3.5602c-3.09575,-0.88952 -5.61093,-3.41612 -6.32572,-6.78682c-0.03647,-0.40125 -0.05926,-0.82867 -0.06877,-1.27333c-0.0423,-0.08927 -0.08316,-0.17803 -0.12253,-0.26625c0.01914,0.50933 0.08197,1.02398 0.19131,1.53958l-0.47296,-2.23027l0.40543,-0.08598c0.01078,-0.47659 0.03517,-0.9641 0.07277,-1.45296c-0.1046,0.48251 -0.16996,0.97679 -0.19326,1.47851l17.03854,-3.61322c-0.01026,-0.02048 -0.02059,-0.04092 -0.031,-0.0613c-0.51377,-0.08411 -0.87497,-0.56998 -0.76657,-1.12724l0.0999,0.02553c-2.01368,-2.84285 -5.59113,-4.37295 -9.21567,-3.60432c-3.57759,0.75867 -6.20429,3.54552 -6.93193,6.90204c0.16334,-2.12361 0.57596,-4.2727 1.20471,-5.66283c1.02276,-2.26124 3.93126,-5.41911 6.28419,-7.13696l2.76973,-1.55766c3.74984,-2.09319 11.51942,-5.69778 15.53917,-7.20918c4.68569,-1.74481 55.02587,-20.48994 55.02587,-20.48994l0.73391,1.97092l0.73391,-1.97092c0,0 50.34018,18.74514 55.02587,20.48994c4.01975,1.5114 11.78934,5.11599 15.53917,7.20918l2.76973,1.55766c2.35293,1.71786 5.26143,4.87573 6.28419,7.13696c0.62875,1.39012 1.04137,3.53922 1.20471,5.66283c-0.72765,-3.35653 -3.35434,-6.14337 -6.93193,-6.90204c-3.62454,-0.76863 -7.20199,0.76147 -9.21567,3.60432l0.0999,-0.02553c0.10839,0.55726 -0.25281,1.04313 -0.76657,1.12724c-0.01041,0.02038 -0.02074,0.04082 -0.031,0.0613l17.03854,3.61322c-0.0233,-0.50172 -0.08866,-0.996 -0.19326,-1.47851c0.0376,0.48886 0.06199,0.97637 0.07277,1.45296l0.40543,0.08598l-0.47296,2.23027c0.10934,-0.5156 0.17216,-1.03025 0.19131,-1.53958c-0.03938,0.08822 -0.08023,0.17698 -0.12253,0.26625c-0.00951,0.44466 -0.03231,0.87208 -0.06877,1.27333c-0.7148,3.3707 -3.22998,5.89731 -6.32572,6.78682c-1.77669,1.58849 -3.63674,2.88286 -5.27028,3.5602l-10.29831,2.6319c-7.85485,1.98396 -23.80034,4.38766 -31.89098,4.8074l-20.54782,1.00818c-1.76594,0.0676 -4.99774,-0.05739 -7.22971,-0.28748c-2.23197,0.23009 -5.46377,0.35507 -7.22971,0.28748zM450.52152,789.7169c-1.9973,0.73511 -5.0908,2.09219 -7.9309,3.44512l2.19781,0.56169c6.96792,1.80425 21.12599,3.9385 28.31615,4.26852l4.93303,0.24204l0.46253,-3.01626c0,0 4.94223,0.75786 9.88446,1.51572c1.35138,0.20723 8.28905,1.27108 11.61541,1.78116c3.32635,-0.51008 10.26402,-1.57393 11.61541,-1.78116c4.94223,-0.75786 9.88446,-1.51572 9.88446,-1.51572l0.46253,3.01626l4.93303,-0.24204c7.19015,-0.33001 21.34823,-2.46427 28.31615,-4.26852l2.19781,-0.56169c-2.8401,-1.35293 -5.93359,-2.71002 -7.9309,-3.44512c-3.72251,-1.38615 -36.25942,-13.50189 -49.47848,-18.42427c-13.21906,4.92237 -45.75597,17.03812 -49.47848,18.42427z" fill="#d6e6ff"/><path d="M405.2199,767.81733l81.99932,56.38769c2.96005,2.05692 8.77667,5.34458 12.78077,7.26934c4.00411,-1.92477 9.82072,-5.21243 12.78077,-7.26934l81.99932,-56.38769l10.19913,14.83164l-77.85364,53.53686l4.12333,15.11888l-3.30927,0.90253c-2.19096,0.56297 -6.64248,1.21043 -8.90304,1.29492l-8.64081,0.19546c-1.16837,-0.00693 -3.49086,-0.20481 -4.63036,-0.46085c-1.02396,-0.23007 -3.00893,-0.90127 -3.9789,-1.30252l-1.78655,-0.78012l-1.78655,0.78012c-0.96997,0.40125 -2.95494,1.07245 -3.9789,1.30252c-1.1395,0.25603 -3.46199,0.45392 -4.63036,0.46085l-8.64081,-0.19546c-2.26056,-0.08449 -6.71208,-0.73195 -8.90304,-1.29492l-3.30927,-0.90253l4.12333,-15.11888l-77.85364,-53.53686z" fill="#ffffff"/><path d="M410.35017,780.07914l35.73914,26.93153c7.41025,5.61938 23.31724,15.0196 31.81398,18.80043l4.97514,2.23192c4.03804,1.83272 11.06001,4.24942 17.12157,5.98808c6.06156,-1.73866 13.08353,-4.15536 17.12157,-5.98808l4.97514,-2.23192c8.49674,-3.78083 24.40373,-13.18105 31.81398,-18.80043l35.73914,-26.93153l10.83271,14.37541l-35.73914,26.93153c-8.24781,6.17988 -25.88735,16.60394 -35.27906,20.84812l-4.97514,2.23192c-1.41148,0.62682 -3.13565,1.31748 -5.04763,2.03203l-1.95474,9.76199l-13.66975,-2.73724c-1.12761,-0.23022 -2.4172,-0.53238 -3.81707,-0.88993c-1.39987,0.35755 -2.68946,0.6597 -3.81707,0.88993l-13.66975,2.73724l-1.95474,-9.76199c-1.91197,-0.71454 -3.63615,-1.40521 -5.04763,-2.03203l-4.97514,-2.23192c-9.39172,-4.24418 -27.03125,-14.66824 -35.27906,-20.84812l-35.73914,-26.93153z" fill="#d6e6ff"/><path d="M623.62867,797.84312l-48.58685,39.74502c-5.09844,4.1486 -15.92033,11.52942 -21.64378,14.76164l-7.87905,4.42264c-1.76569,0.97156 -5.42178,2.64232 -7.32346,3.30935c-1.89011,0.66297 -5.76271,1.64777 -7.73461,1.99979l-5.52704,0.94121c-1.85924,0.30039 -5.60175,0.61677 -7.48503,0.63276h-3.00842v-18h3.00842c1.12515,0.01599 3.35678,-0.17266 4.46328,-0.37731l5.52704,-0.94121c1.22989,-0.19322 3.62391,-0.82865 4.79862,-1.24069c1.16314,-0.40798 3.40409,-1.40199 4.4706,-2.02019l7.87905,-4.42264c5.05765,-2.81939 14.58637,-9.31824 19.05744,-12.99768l48.58685,-39.74502z" fill="#ffffff"/><path d="M387.76827,783.91079l48.58685,39.74502c4.47107,3.67944 13.99979,10.17829 19.05744,12.99768l7.87905,4.42264c1.06651,0.6182 3.30746,1.61221 4.4706,2.02019c1.17471,0.41204 3.56873,1.04747 4.79862,1.24069l5.52704,0.94121c1.1065,0.20465 3.33813,0.3933 4.46328,0.37731h3.00842v18h-3.00842c-1.88328,-0.01599 -5.62579,-0.33237 -7.48503,-0.63276l-5.52704,-0.94121c-1.9719,-0.35202 -5.8445,-1.33682 -7.73461,-1.99979c-1.90168,-0.66703 -5.55777,-2.33779 -7.32346,-3.30935l-7.87905,-4.42264c-5.72345,-3.23222 -16.54534,-10.61304 -21.64378,-14.76164l-48.58685,-39.74502z" fill="#ffffff"/><path d="M377.74849,818.65122l-49.15388,16.72372c-4.0635,1.35748 -11.7656,4.89572 -15.51966,7.12455c-0.02573,0.01556 -0.05156,0.03102 -0.07749,0.04637c-0.00072,0.0004 -0.00145,0.0008 -0.00217,0.0012c0.01201,-0.00717 0.02399,-0.01436 0.03595,-0.02158c-0.01298,0.00774 -0.02592,0.01546 -0.0388,0.02316c-0.08571,0.04749 -0.17278,0.09711 -0.26111,0.14879c0.08057,-0.04412 0.16073,-0.0896 0.24047,-0.13644c-0.00256,0.00153 -0.00512,0.00307 -0.00768,0.0046c-0.0895,0.05297 -0.17954,0.10421 -0.27009,0.15373c-3.32229,1.95742 -8.39973,6.77662 -10.36463,9.87337l-2.24448,3.3208c-1.24432,1.78532 -3.22345,5.61898 -3.95828,7.66733l-1.89943,5.06514l-16.85393,-6.32022l1.89943,-5.06514c1.1646,-3.0168 4.11413,-8.73015 5.89906,-11.42671l2.24448,-3.3208c3.1844,-4.52349 10.89371,-11.84258 15.8335,-15.08764c0.17661,-0.12226 0.35882,-0.23912 0.54655,-0.35022l0.03334,-0.01973c-0.00556,0.00329 -0.01111,0.00658 -0.01666,0.00988c-0.00556,0.00328 -0.01112,0.00656 -0.01668,0.00985c0.0028,-0.00164 0.00561,-0.00329 0.00842,-0.00493c-0.15619,0.0931 -0.30854,0.1902 -0.457,0.29109c0.16154,-0.10513 0.32002,-0.20579 0.47518,-0.30173c0.02214,-0.01294 0.0444,-0.02593 0.06677,-0.03895c-0.02104,0.01212 -0.04205,0.02433 -0.06303,0.03664c0.001,-0.00062 0.002,-0.00124 0.003,-0.00186c0.04564,-0.02701 0.09141,-0.05357 0.13733,-0.07968c4.5977,-2.66386 13.92488,-6.94777 18.82983,-8.64158l49.15388,-16.72372zM312.98077,842.55572c0.00556,-0.00328 0.01112,-0.00656 0.01668,-0.00985l-0.03334,0.01973c0.00556,-0.00329 0.01111,-0.00658 0.01666,-0.00988zM303.8229,827.05967c-0.00607,0.00355 -0.01213,0.00709 -0.01818,0.01063c0.00275,-0.00164 0.0055,-0.00328 0.00826,-0.00492c0.00455,-0.00268 0.0091,-0.00536 0.01366,-0.00803c-0.00125,0.00077 -0.00249,0.00154 -0.00374,0.00231zM312.99528,842.54707c-0.00483,0.00289 -0.00967,0.00577 -0.01451,0.00865c-0.00299,0.00176 -0.00598,0.00352 -0.00898,0.00528c0.00687,-0.00411 0.01375,-0.00823 0.02064,-0.01235c0.00095,-0.00053 0.0019,-0.00105 0.00285,-0.00158z" fill="#ffffff"/><path d="M628.04932,801.61051l49.15388,16.72372c4.90495,1.69381 14.23213,5.97772 18.82983,8.64158c0.04592,0.02611 0.09169,0.05267 0.13733,0.07968c0.001,0.00062 0.002,0.00124 0.003,0.00186c-0.02098,-0.01231 -0.04199,-0.02452 -0.06303,-0.03664c0.02237,0.01302 0.04463,0.02601 0.06677,0.03895c0.15516,0.09594 0.31364,0.1966 0.47518,0.30173c-0.14846,-0.10089 -0.30081,-0.19799 -0.457,-0.29109c0.00281,0.00164 0.00562,0.00329 0.00842,0.00493c-0.00556,-0.00329 -0.01112,-0.00657 -0.01668,-0.00985c-0.00555,-0.0033 -0.0111,-0.00659 -0.01666,-0.00988l0.03334,0.01973c0.18773,0.1111 0.36994,0.22796 0.54655,0.35022c4.93979,3.24506 12.6491,10.56415 15.8335,15.08764l2.24448,3.3208c1.78493,2.69656 4.73446,8.40991 5.89906,11.42671l1.89943,5.06514l-16.85393,6.32022l-1.89943,-5.06514c-0.73483,-2.04835 -2.71396,-5.88201 -3.95828,-7.66733l-2.24448,-3.3208c-1.9649,-3.09675 -7.04234,-7.91595 -10.36463,-9.87337c-0.09055,-0.04952 -0.18059,-0.10076 -0.27009,-0.15373c-0.00256,-0.00153 -0.00512,-0.00307 -0.00768,-0.0046c0.07974,0.04684 0.1599,0.09232 0.24047,0.13644c-0.08833,-0.05168 -0.1754,-0.1013 -0.26111,-0.14879c-0.01288,-0.0077 -0.02582,-0.01542 -0.0388,-0.02316c0.01196,0.00722 0.02394,0.01441 0.03595,0.02158c-0.00072,-0.0004 -0.00145,-0.0008 -0.00217,-0.0012c-0.02593,-0.01535 -0.05176,-0.03081 -0.07749,-0.04637c-3.75406,-2.22883 -11.45616,-5.76707 -15.51966,-7.12455l-49.15388,-16.72372zM687.03589,842.5656l-0.03334,-0.01973c0.00556,0.00329 0.01112,0.00657 0.01668,0.00985c0.00555,0.0033 0.0111,0.00659 0.01666,0.00988zM696.1771,827.05966c-0.00125,-0.00077 -0.00249,-0.00154 -0.00374,-0.00231c0.00456,0.00267 0.00911,0.00535 0.01366,0.00803c0.00276,0.00164 0.00551,0.00328 0.00826,0.00492c-0.00605,-0.00354 -0.01211,-0.00708 -0.01818,-0.01063zM687.00757,842.54865c0.00689,0.00412 0.01377,0.00824 0.02064,0.01235c-0.003,-0.00176 -0.00599,-0.00352 -0.00898,-0.00528c-0.00484,-0.00288 -0.00968,-0.00576 -0.01451,-0.00865c0.00095,0.00053 0.0019,0.00105 0.00285,0.00158z" fill="#ffffff"/><path d="M326.09289,856.6729l32.73301,-6.77943c9.77571,-2.02465 29.31192,-6.14576 39.07263,-8.24228v0l0.00022,-0.00005c0.00005,-0.00001 0.00009,-0.00002 0.00014,-0.00003c9.76084,-2.09649 29.2661,-6.36102 39.01087,-8.52915l23.83119,-5.30215l3.9092,17.57038l-23.83119,5.30215c-9.77719,2.17528 -29.34719,6.45397 -39.14023,8.55743l-0.00005,0.00001l-0.00017,0.00004c-0.00004,0.00001 -0.00009,0.00002 -0.00014,0.00003c-9.79318,2.10342 -29.39395,6.23816 -39.20191,8.26955l-32.73301,6.77943z" fill="#ffffff"/><path d="M670.25655,874.29883l-32.73301,-6.77943c-9.80796,-2.03139 -29.40873,-6.16613 -39.20191,-8.26955c-0.00005,-0.00001 -0.0001,-0.00002 -0.00014,-0.00003l-0.00017,-0.00004l-0.00005,-0.00001c-9.79304,-2.10346 -29.36304,-6.38215 -39.14023,-8.55743l-23.83119,-5.30215l3.9092,-17.57038l23.83119,5.30215c9.74477,2.16813 29.25003,6.43266 39.01087,8.52915c0.00005,0.00001 0.00009,0.00002 0.00014,0.00003l0.00022,0.00005v0c9.76071,2.09652 29.29692,6.21763 39.07263,8.24228l32.73301,6.77943z" fill="#ffffff"/><path d="M534.52568,892.86297c0.15775,-0.08302 0.31011,-0.16875 0.45643,-0.25706c-0.15367,0.0808 -0.30587,0.16647 -0.45643,0.25706zM535.04107,892.57518c-0.11757,0.09142 -0.23232,0.18531 -0.34423,0.28155c0.35129,-0.14702 0.67825,-0.34295 0.97608,-0.5775c-0.21292,0.08983 -0.4237,0.18844 -0.63185,0.29595zM544.79687,907.59563c-0.03361,0.02692 -0.06747,0.05364 -0.10156,0.08014c-0.0791,0.04086 -0.15859,0.08043 -0.23842,0.11872c0.02532,-0.02152 0.05062,-0.04318 0.07592,-0.06498c0.0892,-0.0444 0.17723,-0.08903 0.26406,-0.13388zM534.491,892.88113l1.23555,-0.78992c-0.226,0.14449 -0.44338,0.29739 -0.65197,0.45803c0.23472,-0.14601 0.45297,-0.29886 0.65197,-0.45803c0.14581,-0.09322 0.29329,-0.18171 0.44226,-0.26551c0.05927,-0.06262 0.1169,-0.1269 0.17284,-0.19274c-1.04355,0.62635 -2.05749,1.22132 -3.03041,1.77727c0.41664,-0.16087 0.81255,-0.33771 1.17975,-0.5291zM465.01789,892.6059c0.14632,0.08831 0.29867,0.17404 0.45643,0.25706c-0.15055,-0.09059 -0.30276,-0.17626 -0.45643,-0.25706zM464.32708,892.27923c0.29783,0.23455 0.62478,0.43048 0.97608,0.5775c-0.11191,-0.09624 -0.22666,-0.19013 -0.34423,-0.28155c-0.20815,-0.10751 -0.41893,-0.20612 -0.63185,-0.29595zM455.46719,907.72952c0.0253,0.02179 0.05061,0.04345 0.07592,0.06498c-0.07984,-0.03829 -0.15932,-0.07786 -0.23842,-0.11872c-0.03409,-0.02651 -0.06794,-0.05322 -0.10156,-0.08014c0.08683,0.04485 0.17486,0.08948 0.26406,0.13388zM463.83118,891.8257c0.14897,0.0838 0.29645,0.17229 0.44226,0.26551c0.199,0.15917 0.41725,0.31202 0.65197,0.45803c-0.20859,-0.16064 -0.42597,-0.31354 -0.65197,-0.45803l1.23555,0.78992c0.36721,0.19139 0.76311,0.36823 1.17975,0.5291c-0.97292,-0.55595 -1.98686,-1.15092 -3.03041,-1.77727c0.05594,0.06583 0.11357,0.13012 0.17284,0.19274zM481.49552,841.98984c0,0 -11.26783,21.47578 -12.27575,23.39682c-0.92761,1.71199 -1.94055,4.14633 -2.87749,6.79428c4.60636,2.98269 9.11548,5.66581 12.51939,7.37577c0.02118,0.01038 0.04234,0.02085 0.06348,0.03141c0.01805,0.00911 0.03615,0.01822 0.05429,0.02735c-0.01805,-0.00917 -0.03615,-0.01829 -0.05429,-0.02735l0.23928,0.11955c-0.01814,-0.00906 -0.0363,-0.01806 -0.05447,-0.02699c0.01819,0.00903 0.03635,0.01802 0.05447,0.02699c0.02114,0.01056 0.04221,0.02119 0.06323,0.0319c5.01795,2.49349 13.15568,5.6348 20.77235,8.14598c7.61667,-2.51118 15.7544,-5.65249 20.77235,-8.14598c0.02102,-0.0107 0.04209,-0.02134 0.06323,-0.0319c0.01812,-0.00897 0.03628,-0.01796 0.05447,-0.02699c-0.01817,0.00893 -0.03633,0.01793 -0.05447,0.02699l0.23928,-0.11955c-0.01814,0.00906 -0.03624,0.01818 -0.05429,0.02735c0.01814,-0.00913 0.03624,-0.01824 0.05429,-0.02735c0.02114,-0.01056 0.0423,-0.02103 0.06348,-0.03141c3.40391,-1.70995 7.91303,-4.39308 12.51939,-7.37577c-0.93694,-2.64795 -1.94988,-5.08229 -2.87749,-6.79428c-1.00793,-1.92104 -12.27575,-23.39682 -12.27575,-23.39682l15.93929,-8.36296c0,0 11.26783,21.47578 12.27575,23.39682c0.63447,1.24 1.30915,2.76293 1.98909,4.45854c0.88745,-0.71135 1.70197,-1.38965 2.42617,-2.02325l10.63576,-9.23278c7.819,-6.67125 25.36961,-16.64979 35.10121,-19.95708l1.87106,-0.61809c8.53535,-2.72707 26.01103,-4.8544 34.95136,-4.25465l4.61024,0.35471c6.72382,0.62766 19.36216,4.51448 25.27669,7.77363l6.2519,3.57906c2.45324,1.53118 6.73714,5.3091 8.38718,7.68147c1.55859,2.24089 3.70715,7.20473 4.42352,9.83979l0.15619,0.64594c0.659,3.57442 0.22421,10.61501 -0.86958,14.08119l-1.04823,2.77974c-0.54344,1.35878 -1.85013,3.96719 -2.66173,5.1846c-0.5284,0.79261 -2.93514,4.40271 -3.46355,5.19532c-1.20337,1.80505 -2.40674,3.61011 -2.40674,3.61011l-14.97691,-9.9846c0,0 2.5533,-3.82995 3.75667,-5.635c0.5284,-0.79261 1.58521,-2.37782 2.11362,-3.17043c0.24521,-0.36781 0.66755,-1.12726 0.79634,-1.55114l1.04823,-2.77974c0.53206,-0.84534 0.64011,-2.59507 0.21611,-3.49945l-0.15619,-0.64594c-0.17714,-1.06011 -1.09281,-2.91241 -1.70494,-3.79251c-0.52068,-0.74862 -1.70677,-1.98044 -2.55281,-2.33801l-6.2519,-3.57906c-4.0887,-2.46744 -12.94604,-5.19145 -17.71469,-5.448l-4.61024,-0.35471c-7.16237,-0.63918 -21.12459,1.06045 -27.92445,3.39926l-1.87106,0.61809c-8.10634,2.58535 -22.5801,10.81452 -28.94752,16.45835l-10.63576,9.23278c-2.24691,1.93698 -5.25558,4.25784 -8.62119,6.69205c0.21128,1.0165 0.38136,1.96226 0.50208,2.81154l0.24448,1.85651c0.17595,5.0074 -2.33778,12.12237 -5.78871,17.57866c-0.55861,2.09933 -1.87437,4.00374 -3.84892,5.26613l-1.41247,0.90303c0.23813,-0.15225 0.46669,-0.31383 0.68549,-0.48397c0.24626,-0.12719 0.48885,-0.26682 0.72698,-0.41906c-0.20069,0.11429 -0.40934,0.2273 -0.62543,0.33892c0.72525,-0.58081 1.33998,-1.2569 1.83763,-1.99846c-0.6872,0.80211 -1.39121,1.52031 -2.10169,2.13235c-0.23875,0.11885 -0.48586,0.23605 -0.74068,0.3515c0.22388,-0.08596 0.44565,-0.18142 0.66476,-0.28652c-0.14879,0.1265 -0.29784,0.24832 -0.44706,0.36525c-1.29882,0.83037 -2.73013,1.28543 -4.1667,1.39319c-6.15832,1.90896 -14.15317,2.92172 -18.99264,2.13752l-11.32362,-2.43484c-2.65265,-0.57995 -5.94571,-1.47711 -9.52686,-2.56782c-3.58115,1.09071 -6.8742,1.98787 -9.52686,2.56782l-11.32362,2.43484c-4.83948,0.78419 -12.83432,-0.22856 -18.99264,-2.13752c-1.43657,-0.10775 -2.86789,-0.56282 -4.1667,-1.39319c-0.14922,-0.11693 -0.29828,-0.23875 -0.44706,-0.36525c0.21911,0.10509 0.44087,0.20056 0.66476,0.28652c-0.25482,-0.11544 -0.50193,-0.23265 -0.74068,-0.3515c-0.71047,-0.61204 -1.41449,-1.33024 -2.10169,-2.13235c0.49765,0.74157 1.11238,1.41765 1.83763,1.99846c-0.21608,-0.11162 -0.42473,-0.22463 -0.62543,-0.33892c0.23813,0.15225 0.48072,0.29188 0.72698,0.41906c0.2188,0.17014 0.44735,0.33172 0.68549,0.48397l-1.41247,-0.90303c-1.97455,-1.26239 -3.29031,-3.1668 -3.84892,-5.26613c-3.45093,-5.4563 -5.96466,-12.57127 -5.78871,-17.57866l0.24448,-1.85651c0.12071,-0.84928 0.29079,-1.79504 0.50208,-2.81154c-3.36561,-2.43421 -6.37429,-4.75507 -8.62119,-6.69205l-10.63576,-9.23278c-6.36742,-5.64382 -20.84118,-13.87299 -28.94752,-16.45835l-1.87106,-0.61809c-6.79986,-2.33881 -20.76208,-4.03844 -27.92445,-3.39926l-4.61024,0.35471c-4.76864,0.25656 -13.62598,2.98056 -17.71469,5.448l-6.2519,3.57906c-0.84604,0.35757 -2.03213,1.58939 -2.55281,2.33801c-0.61213,0.8801 -1.5278,2.73241 -1.70494,3.79251l-0.15619,0.64594c-0.424,0.90438 -0.31595,2.65411 0.21611,3.49945l1.04823,2.77974c0.12879,0.42387 0.55113,1.18333 0.79634,1.55114c0.5284,0.79261 1.58521,2.37782 2.11362,3.17043c1.20337,1.80505 3.75667,5.635 3.75667,5.635l-14.97691,9.9846c0,0 -1.20337,-1.80505 -2.40674,-3.61011c-0.5284,-0.79261 -2.93514,-4.40271 -3.46355,-5.19532c-0.8116,-1.2174 -2.11829,-3.82582 -2.66173,-5.1846l-1.04823,-2.77974c-1.09379,-3.46618 -1.52859,-10.50677 -0.86958,-14.08119l0.15619,-0.64594c0.71637,-2.63505 2.86494,-7.5989 4.42352,-9.83979c1.65004,-2.37237 5.93394,-6.15029 8.38718,-7.68147l6.2519,-3.57906c5.91452,-3.25916 18.55287,-7.14597 25.27669,-7.77363l4.61024,-0.35471c8.94033,-0.59975 26.41601,1.52758 34.95136,4.25465l1.87106,0.61809c9.73161,3.30729 27.28221,13.28583 35.10121,19.95708l10.63576,9.23278c0.7242,0.6336 1.53872,1.31189 2.42617,2.02325c0.67994,-1.69561 1.35462,-3.21854 1.98909,-4.45854c1.00793,-1.92104 12.27575,-23.39682 12.27575,-23.39682l15.93929,8.36296z" fill="#d6e6ff"/><path d="M433.0784,459.7552l0.61671,3.92051c0.10622,1.16111 0.8589,3.29254 1.50536,4.26287l1.85075,3.21076c0.22564,0.54264 0.95163,1.39355 1.45197,1.70182l2.18111,1.76745l-11.3325,13.98479l-2.18111,-1.76745c-1.68077,-1.45918 -4.53786,-4.80791 -5.71419,-6.69747l-1.85075,-3.21076c-1.3355,-2.46807 -3.1815,-7.69554 -3.69199,-10.45494l-0.61671,-3.92051z" fill="#ffffff"/><path d="M584.70295,462.55227l-0.61671,3.92051c-0.51049,2.7594 -2.35649,7.98687 -3.69199,10.45494l-1.85075,3.21076c-1.17633,1.88956 -4.03342,5.23829 -5.71419,6.69747l-2.18111,1.76745l-11.3325,-13.98479l2.18111,-1.76745c0.50034,-0.30827 1.22633,-1.15918 1.45197,-1.70182l1.85075,-3.21076c0.64646,-0.97033 1.39914,-3.10176 1.50536,-4.26287l0.61671,-3.92051z" fill="#ffffff"/><path d="M439.09411,465.96355l-9.88953,11.68762l-1.89696,-1.60512c-1.93651,-2.05193 -4.5085,-6.8528 -5.14398,-9.60173l-0.05589,-0.48338c0.03997,-2.40168 0.99193,-7.09174 2.41076,-9.00407c0.43246,-0.58288 0.86492,-1.16576 0.86492,-1.16576zM439.7464,465.19262c0.06621,-0.35419 0.1243,-0.69204 0.17802,-0.97714c-0.362,-0.51451 -0.82546,-1.40051 -0.98985,-1.91039l1.89696,1.60512zM438.97427,467.68212zM438.97427,467.68211c0.22479,-0.30298 0.40015,-0.82595 0.54299,-1.40461l0.32193,0.23885c0,0 -0.43246,0.58288 -0.86492,1.16576zM439.0941,465.96354l0.65231,-0.77091c-0.06682,0.35744 -0.14192,0.73154 -0.22914,1.08487z" fill="#ffffff"/><path d="M574.61657,455.79111c0,0 0.43246,0.58288 0.86492,1.16576c1.41883,1.91233 2.37079,6.60239 2.41076,9.00407l-0.05589,0.48338c-0.63548,2.74893 -3.20747,7.5498 -5.14398,9.60173l-1.89696,1.60512l-9.88953,-11.68762zM559.16847,463.91021l1.89696,-1.60512c-0.16439,0.50988 -0.62785,1.39588 -0.98985,1.91039c0.05372,0.2851 0.11181,0.62295 0.17802,0.97714zM561.02573,467.68212zM560.16081,466.51635l0.32193,-0.23885c0.14284,0.57866 0.3182,1.10163 0.54299,1.40461c-0.43246,-0.58288 -0.86492,-1.16576 -0.86492,-1.16576zM560.48273,466.2775c-0.08722,-0.35333 -0.16232,-0.72743 -0.22914,-1.08487l0.65231,0.77091z" fill="#ffffff"/></g></svg>