<svg version="1.1" xmlns="http://www.w3.org/2000/svg" xmlns:xlink="http://www.w3.org/1999/xlink" viewBox="0,0,1000,1000"><g fill="none" fill-rule="nonzero" stroke="#000000" stroke-width="6" stroke-linecap="round" stroke-linejoin="round" stroke-miterlimit="0" stroke-dasharray="" stroke-dashoffset="0" font-family="none" font-weight="none" font-size="none" text-anchor="none" style="mix-blend-mode:normal"><g><g><path d="M357.5124,495.55278l0.85293,2.44991c0.37936,1.09603 1.20807,3.26131 1.65742,4.33056l0.99621,2.38257c0.94437,2.26403 2.97315,6.72844 4.05755,8.92883l10.59558,21.54604l-16.15255,7.94325l-10.59558,-21.54604c-1.20178,-2.44855 -3.45768,-7.41276 -4.5118,-9.92841l-0.99621,-2.38257c-0.55137,-1.32411 -1.57631,-4.00209 -2.04987,-5.35597l-0.85293,-2.44991z" fill="#ffffff"/><path d="M642.4876,495.55278l-0.85293,2.44991c-0.37936,1.09603 -1.20807,3.26131 -1.65742,4.33056l-0.99621,2.38257c-0.94437,2.26403 -2.97315,6.72844 -4.05755,8.92883l-10.59558,21.54604l16.15255,7.94325l10.59558,-21.54604c1.20178,-2.44855 3.45768,-7.41276 4.5118,-9.92841l0.99621,-2.38257c0.55137,-1.32411 1.57631,-4.00209 2.04987,-5.35597l0.85293,-2.44991z" fill="#ffffff"/><path d="M382.01392,493.57131l1.37921,4.53688c0.67904,2.23416 2.07291,6.69129 2.78774,8.91426l1.79286,5.57654c1.26912,3.94795 3.8704,11.82304 5.20256,15.75017l2.68709,7.92229l-17.04616,5.78174l-2.68709,-7.92229c-1.35493,-3.99516 -4.00121,-12.00647 -5.29256,-16.02263l-1.79286,-5.57654c-0.73652,-2.29135 -2.17321,-6.88541 -2.87339,-9.18812l-1.37921,-4.53688z" fill="#ffffff"/><path d="M617.98608,493.57131l-1.37921,4.53688c-0.67904,2.23416 -2.07291,6.69129 -2.78774,8.91426l-1.79286,5.57654c-1.26912,3.94795 -3.8704,11.82304 -5.20256,15.75017l-2.68709,7.92229l17.04616,5.78174l2.68709,-7.92229c1.35493,-3.99516 4.00121,-12.00647 5.29256,-16.02263l1.79286,-5.57654c0.73652,-2.29135 2.17321,-6.88541 2.87339,-9.18812l1.37921,-4.53688z" fill="#ffffff"/><path d="M414.92334,491.54326v4.21022c-0.00435,1.90724 0.16319,5.71397 0.33509,7.61345l0.36643,4.15466c0.34705,3.98442 1.39843,11.90585 2.10276,15.84285l1.70254,9.5768l-17.72213,3.1506l-1.70254,-9.5768c-0.76503,-4.32815 -1.92054,-13.03417 -2.31103,-17.41204l-0.36643,-4.15466c-0.198,-2.29446 -0.40034,-6.89189 -0.4047,-9.19487v-4.21022z" fill="#ffffff"/><path d="M585.07666,491.54326v4.21022c0.00435,1.90724 -0.16319,5.71397 -0.33509,7.61345l-0.36643,4.15466c-0.34705,3.98442 -1.39843,11.90585 -2.10276,15.84285l-1.70254,9.5768l17.72213,3.1506l1.70254,-9.5768c0.76503,-4.32815 1.92054,-13.03417 2.31103,-17.41204l0.36643,-4.15466c0.198,-2.29446 0.40034,-6.89189 0.4047,-9.19487v-4.21022z" fill="#ffffff"/><path d="M435.56055,485.87612l0.14518,0.58072c0.11023,0.45383 0.30276,1.36738 0.38504,1.82711l0.10084,0.58595c0.12666,0.75445 0.32965,2.27009 0.40598,3.03128l2.67468,27.81668l-17.91736,1.72282l-2.67468,-27.81668c-0.038,-0.42789 -0.15194,-1.27858 -0.22787,-1.70139l-0.10084,-0.58595c-0.01923,-0.1302 -0.07341,-0.38729 -0.10836,-0.51418l-0.14518,-0.58072z" fill="#ffffff"/><path d="M564.43945,485.87612l-0.14518,0.58072c-0.11023,0.45383 -0.30276,1.36738 -0.38504,1.82711l-0.10084,0.58595c-0.12666,0.75445 -0.32965,2.27009 -0.40598,3.03128l-2.67468,27.81668l17.91736,1.72282l2.67468,-27.81668c0.038,-0.42789 0.15194,-1.27858 0.22787,-1.70139l0.10084,-0.58595c0.01923,-0.1302 0.07341,-0.38729 0.10836,-0.51418l0.14518,-0.58072z" fill="#ffffff"/><path d="M426.91185,471.01001l2.46806,-1.4518c1.38226,-0.80936 4.20113,-2.32714 5.63774,-3.03555l2.55289,-1.2525c2.71899,-1.33041 8.2473,-3.78801 11.05662,-4.9152l9.7028,-3.88112l6.68503,16.71258l-9.7028,3.88112c-2.49588,0.99489 -7.40254,3.17613 -9.81331,4.36249l-2.55289,1.2525c-1.13406,0.55281 -3.35392,1.74806 -4.43973,2.3905l-2.46806,1.4518z" fill="#ffffff"/><path d="M573.08815,471.01001l-2.46806,-1.4518c-1.38226,-0.80936 -4.20113,-2.32714 -5.63774,-3.03555l-2.55289,-1.2525c-2.71899,-1.33041 -8.2473,-3.78801 -11.05662,-4.9152l-9.7028,-3.88112l-6.68503,16.71258l9.7028,3.88112c2.49588,0.99489 7.40254,3.17613 9.81331,4.36249l2.55289,1.2525c1.13406,0.55281 3.35392,1.74806 4.43973,2.3905l2.46806,1.4518z" fill="#ffffff"/><path d="M394.91362,474.72634l0.79849,-0.79849c0.95617,-0.87227 3.04434,-2.37201 4.17634,-2.99947l0.88307,-0.43783c1.64888,-0.7513 5.08425,-1.80544 6.87074,-2.10828l31.91145,-4.33996l2.42567,17.83581l-31.91145,4.33996c-0.35919,-0.01102 -1.00957,0.18855 -1.30076,0.39914l-0.57236,0.28378l-0.55327,0.55327z" fill="#ffffff"/><path d="M605.08638,474.72634l-0.79849,-0.79849c-0.95617,-0.87227 -3.04434,-2.37201 -4.17634,-2.99947l-0.88307,-0.43783c-1.64888,-0.7513 -5.08425,-1.80544 -6.87074,-2.10828l-31.91145,-4.33996l-2.42567,17.83581l31.91145,4.33996c0.35919,-0.01102 1.00957,0.18855 1.30076,0.39914l0.57236,0.28378l0.55327,0.55327z" fill="#ffffff"/><path d="M439.08194,429.57887c0,0 0.32666,-0.10889 0.65331,-0.21777c1.32551,-0.44184 4.13017,-0.56058 5.53031,-0.47447l0.49941,0.07577c1.64473,0.37589 4.72882,1.6319 6.1682,2.51202l18.47422,13.27022l-10.50121,14.61933l-18.47422,-13.27022c0.36071,0.12596 1.02102,0.39206 1.45122,0.58258c0.53532,-0.01072 1.26921,-0.02779 1.86392,-0.10195z" fill="#ffffff"/><path d="M560.91806,429.57887c0,0 -0.32666,-0.10889 -0.65331,-0.21777c-1.32551,-0.44184 -4.13017,-0.56058 -5.53031,-0.47447l-0.49941,0.07577c-1.64473,0.37589 -4.72882,1.6319 -6.1682,2.51202l-18.47422,13.27022l10.50121,14.61933l18.47422,-13.27022c-0.36071,0.12596 -1.02102,0.39206 -1.45122,0.58258c-0.53532,-0.01072 -1.26921,-0.02779 -1.86392,-0.10195z" fill="#ffffff"/><path d="M475.26319,401.11849l0.14518,1.30662c0.0284,0.3501 0.15272,1.0381 0.24863,1.376l0.31405,1.2462c0.23396,0.97109 0.85094,2.8647 1.23395,3.78723l13.72107,34.04857l-16.69534,6.72797l-13.72107,-34.04857c-0.59259,-1.4984 -1.58904,-4.5567 -1.9929,-6.11659l-0.31405,-1.2462c-0.22535,-0.9369 -0.56747,-2.83033 -0.68425,-3.78685l-0.14518,-1.30662z" fill="#ffffff"/><path d="M524.73681,401.11849l-0.14518,1.30662c-0.0284,0.3501 -0.15272,1.0381 -0.24863,1.376l-0.31405,1.2462c-0.23396,0.97109 -0.85094,2.8647 -1.23395,3.78723l-13.72107,34.04857l16.69534,6.72797l13.72107,-34.04857c0.59259,-1.4984 1.58904,-4.5567 1.9929,-6.11659l0.31405,-1.2462c0.22535,-0.9369 0.56747,-2.83033 0.68425,-3.78685l0.14518,-1.30662z" fill="#ffffff"/><path d="M503.16524,396.76289l0.03918,0.49958l11.57522,0.90786l-0.29036,3.70209c-0.1704,2.0903 -0.72068,6.24314 -1.10057,8.30569l-0.67438,3.59945c-0.65142,3.4458 -2.19754,9.8842 -3.32468,13.9161l6.19763,20.60712l-13.60911,4.09296l-0.32818,1.09119l-1.65001,-0.49624l-1.65001,0.49624l-0.32818,-1.09119l-13.60911,-4.09296l6.19763,-20.60712c-1.12714,-4.03191 -2.67326,-10.47031 -3.32468,-13.9161l-0.67438,-3.59945c-0.37989,-2.06254 -0.93017,-6.21539 -1.10057,-8.30569l-0.29036,-3.70209l11.57522,-0.90786l0.03918,-0.49958l3.16524,0.24825z" fill="#ffffff"/><path d="M465.15679,476.73606c1.30662,0 6.5331,0 7.83972,0c2.61324,0 10.45296,0 13.0662,0c2.61324,0 38.32753,0 40.94077,0c1.30662,0 6.5331,0 7.83972,0v18c-1.30662,0 -9.14634,0 -10.45296,0c-1.65802,0 -11.84862,0 -19.74448,0c-0.95522,0 -4.74254,0 -9.29152,0c-7.89587,0 -18.08646,0 -19.74448,0c-1.30662,0 -6.5331,0 -7.83972,0h-2.61324z" fill="#ffffff"/><path d="M456.67175,501.41084c0,0 -0.09074,0.12703 -0.18148,0.25407c-0.24699,0.34578 -0.44945,0.78956 -0.61294,1.29935c-1.34898,2.41216 -1.57291,5.41161 -0.34244,8.12101l0.03209,0.07065c-0.00535,-0.01178 -0.01067,-0.02357 -0.01597,-0.03536c-0.00539,-0.01175 -0.01077,-0.02351 -0.01612,-0.03529c0.00027,0.00035 0.00055,0.00069 0.00082,0.00104v0c0.00507,0.01142 0.01017,0.02284 0.0153,0.03425c0.00522,0.01137 0.01047,0.02273 0.01573,0.03408c-0.00229,-0.01255 -0.00458,-0.02517 -0.00685,-0.03785c-0.00812,-0.01018 -0.01618,-0.02034 -0.02418,-0.03048v0c-1.15882,-2.60898 -0.97653,-5.479 0.2544,-7.83093c-0.6629,2.36937 -0.57698,5.92475 -0.23022,7.86141c1.35387,1.69677 4.42654,3.99508 6.76231,5.13727c-2.86041,-0.45548 -5.44714,-2.281 -6.75546,-5.09942c0.00008,0.00043 0.00016,0.00086 0.00023,0.00128c1.323,2.91316 4.00489,4.78091 6.95512,5.19389c0.30914,0.14492 0.60358,0.26788 0.87729,0.36456l24.10605,2.3688l1.76031,-17.91372l-22.25736,-2.18714c-2.1837,-0.85408 -4.69693,-0.85925 -7.00049,0.18691c-1.25372,0.56938 -2.31382,1.39044 -3.14766,2.37625c-0.12272,-0.08765 -0.18848,-0.13463 -0.18848,-0.13463zM465.15971,498.80065c1.98437,0.79994 5.3656,3.21997 6.76346,4.84067c0.00561,0.01207 0.01119,0.02416 0.01675,0.03627c0.00546,0.01216 0.01089,0.02433 0.0163,0.0365c0.30166,2.05123 0.38907,6.27811 -0.65221,8.14837c-0.48284,-0.34488 -12.50783,-8.93416 -14.38644,-10.27603c0.82996,-0.97261 1.88132,-1.7829 3.12243,-2.34655c2.21814,-1.00737 4.6307,-1.03993 6.75624,-0.27841z" fill="#ffffff"/><path d="M543.32825,501.41084c0,0 0.09074,0.12703 0.18148,0.25407c0.24699,0.34578 0.44945,0.78956 0.61294,1.29935c1.34898,2.41216 1.57291,5.41161 0.34244,8.12101l-0.03209,0.07065c0.00535,-0.01178 0.01067,-0.02357 0.01597,-0.03536c0.00539,-0.01175 0.01077,-0.02351 0.01612,-0.03529c-0.00027,0.00035 -0.00055,0.00069 -0.00082,0.00104v0c-0.00507,0.01142 -0.01017,0.02284 -0.0153,0.03425c-0.00522,0.01137 -0.01047,0.02273 -0.01573,0.03408c0.00229,-0.01255 0.00458,-0.02517 0.00685,-0.03785c0.00812,-0.01018 0.01618,-0.02034 0.02418,-0.03048v0c1.15882,-2.60898 0.97653,-5.479 -0.2544,-7.83093c0.6629,2.36937 0.57698,5.92475 0.23022,7.86141c-1.35387,1.69677 -4.42654,3.99508 -6.76231,5.13727c2.86041,-0.45548 5.44714,-2.281 6.75546,-5.09942c-0.00008,0.00043 -0.00016,0.00086 -0.00023,0.00128c-1.323,2.91316 -4.00489,4.78091 -6.95512,5.19389c-0.30914,0.14492 -0.60358,0.26788 -0.87729,0.36456l-24.10605,2.3688l-1.76031,-17.91372l22.25736,-2.18714c2.1837,-0.85408 4.69693,-0.85925 7.00049,0.18691c1.25372,0.56938 2.31382,1.39044 3.14766,2.37625c0.12272,-0.08765 0.18848,-0.13463 0.18848,-0.13463zM534.84029,498.80065c-1.98437,0.79994 -5.3656,3.21997 -6.76346,4.84067c-0.00561,0.01207 -0.01119,0.02416 -0.01675,0.03627c-0.00546,0.01216 -0.01089,0.02433 -0.0163,0.0365c-0.30166,2.05123 -0.38907,6.27811 0.65221,8.14837c0.48284,-0.34488 12.50783,-8.93416 14.38644,-10.27603c-0.82996,-0.97261 -1.88132,-1.7829 -3.12243,-2.34655c-2.21814,-1.00737 -4.6307,-1.03993 -6.75624,-0.27841z" fill="#ffffff"/><path d="M458.89461,531.42528c-0.4623,-1.27789 -1.58411,-2.94103 -2.24655,-3.87102c-1.09986,-0.42719 -3.20038,-1.05609 -4.29414,-1.2828l39.73369,-4.18961l1.8875,17.90076l-39.73369,4.18961c-2.40955,-0.09835 -6.88297,-1.44411 -8.94683,-2.69153l-0.17019,-0.14032c-1.44367,-1.64454 -3.77277,-5.3803 -3.9599,-7.53224c-0.0363,-0.41739 -0.07259,-0.83479 -0.07259,-0.83479z" fill="#ffffff"/><path d="M541.10539,531.42528c0.4623,-1.27789 1.58411,-2.94103 2.24655,-3.87102c1.09986,-0.42719 3.20038,-1.05609 4.29414,-1.2828l-39.73369,-4.18961l-1.8875,17.90076l39.73369,4.18961c2.40955,-0.09835 6.88297,-1.44411 8.94683,-2.69153l0.17019,-0.14032c1.44367,-1.64454 3.77277,-5.3803 3.9599,-7.53224c0.0363,-0.41739 0.07259,-0.83479 0.07259,-0.83479z" fill="#ffffff"/><path d="M473.43673,550.99526c-0.14232,-0.47789 -0.30239,-0.95331 -0.41548,-1.33823c-0.47781,-0.15756 -1.10676,-0.57313 -1.36361,-0.92021l14.72323,2.45387l-2.95918,17.75509l-14.72323,-2.45387c-2.99152,-0.84585 -8.05773,-4.00694 -10.13242,-6.32218l-0.28699,-0.40178c-1.23549,-2.31901 -2.71845,-7.32038 -2.29016,-9.8901c0.14518,-0.87108 0.29036,-1.74216 0.29036,-1.74216z" fill="#ffffff"/><path d="M526.56327,550.99526c0.14232,-0.47789 0.30239,-0.95331 0.41548,-1.33823c0.47781,-0.15756 1.10676,-0.57313 1.36361,-0.92021l-14.72323,2.45387l2.95918,17.75509l14.72323,-2.45387c2.99152,-0.84585 8.05773,-4.00694 10.13242,-6.32218l0.28699,-0.40178c1.23549,-2.31901 2.71845,-7.32038 2.29016,-9.8901c-0.14518,-0.87108 -0.29036,-1.74216 -0.29036,-1.74216z" fill="#ffffff"/><path d="M515.07474,559.98569l-3.89813,4.72888c1.54006,2.31065 2.94033,4.53023 3.86738,6.1713l8.06977,14.41233c2.38699,4.29994 6.39144,13.24433 8.0089,17.88879l2.93913,8.54013l-17.02023,5.85761l-2.93913,-8.54013c-1.32168,-3.89567 -4.66883,-11.37191 -6.6943,-14.95248l-7.40813,-13.23066l-7.40813,13.23066c-2.02547,3.58057 -5.37263,11.05682 -6.6943,14.95248l-2.93913,8.54013l-17.02023,-5.85761l2.93913,-8.54013c1.61746,-4.64446 5.62191,-13.58885 8.0089,-17.88879l8.06977,-14.41233c0.92705,-1.64107 2.32732,-3.86065 3.86738,-6.1713l-3.89813,-4.72888l13.88932,-11.44931l1.18542,1.43805l1.18542,-1.43805z" fill="#ffffff"/><path d="M495.67359,614.59449l-8.44409,17.84773l-16.27084,-7.69803l8.44409,-17.84773c1.09965,-2.32387 3.33864,-6.95242 4.47798,-9.25709l1.12198,-2.2692c0.57857,-1.16978 1.75555,-3.49933 2.35395,-4.6591l1.16144,-2.25029l11.48191,5.92615l11.48191,-5.92615l1.16144,2.25029c0.5984,1.15977 1.77538,3.48932 2.35395,4.6591l1.12198,2.2692c1.13934,2.30468 3.37832,6.93322 4.47798,9.25709l8.44409,17.84773l-16.27084,7.69803l-8.44409,-17.84773c-1.06093,-2.24282 -3.21636,-6.69887 -4.32641,-8.9445c-1.11005,2.24563 -3.26548,6.70168 -4.32641,8.9445z" fill="#ffffff"/><path d="M445.63227,598.32351l2.25029,1.01626c0.78169,0.36974 2.4029,0.94666 3.24243,1.15384l2.30824,0.61299c1.99948,0.54675 6.06388,1.27486 8.12882,1.45622l20.70819,1.97221l-1.70656,17.91892l-20.70819,-1.97221c-2.79867,-0.28184 -8.31981,-1.27092 -11.04228,-1.97814l-2.30824,-0.61299c-1.54688,-0.42656 -4.56237,-1.49964 -6.03097,-2.14617l-2.25029,-1.01626z" fill="#ffffff"/><path d="M554.36773,598.32351l-2.25029,1.01626c-0.78169,0.36974 -2.4029,0.94666 -3.24243,1.15384l-2.30824,0.61299c-1.99948,0.54675 -6.06388,1.27486 -8.12882,1.45622l-20.70819,1.97221l1.70656,17.91892l20.70819,-1.97221c2.79867,-0.28184 8.31981,-1.27092 11.04228,-1.97814l2.30824,-0.61299c1.54688,-0.42656 4.56237,-1.49964 6.03097,-2.14617l2.25029,-1.01626z" fill="#ffffff"/><path d="M437.30753,560.80362c0.00012,-1.07874 -0.20807,-2.41027 -0.32822,-3.25321c-0.68561,-0.5971 -1.88471,-1.67436 -2.49042,-2.23834l12.6959,4.3779l-5.86783,17.01671l-12.6959,-4.3779c-2.4386,-1.2155 -6.3483,-4.72448 -7.8194,-7.01797l-0.1351,-0.28698c-0.68904,-2.29512 -1.20908,-7.05804 -0.37692,-9.27715c0.21777,-0.58072 0.43554,-1.16144 0.43554,-1.16144z" fill="#ffffff"/><path d="M562.69247,560.80362c-0.00012,-1.07874 0.20807,-2.41027 0.32822,-3.25321c0.68561,-0.5971 1.88471,-1.67436 2.49042,-2.23834l-12.6959,4.3779l5.86783,17.01671l12.6959,-4.3779c2.4386,-1.2155 6.3483,-4.72448 7.8194,-7.01797l0.1351,-0.28698c0.68904,-2.29512 1.20908,-7.05804 0.37692,-9.27715c-0.21777,-0.58072 -0.43554,-1.16144 -0.43554,-1.16144z" fill="#ffffff"/><path d="M431.18351,532.19367v0.43554c-0.00489,0.00805 -0.00416,0.02365 0.00146,0.03121l0.04013,0.42909c0.01602,0.22381 0.07843,0.66714 0.12483,0.88667l5.48474,29.06914l-17.68791,3.33734l-5.48474,-29.06914c-0.11455,-0.63351 -0.29392,-1.90754 -0.35873,-2.54806l-0.04013,-0.42909c-0.03493,-0.42609 -0.07476,-1.27967 -0.07965,-1.70716v-0.43554z" fill="#ffffff"/><path d="M568.81649,532.19367v0.43554c0.00489,0.00805 0.00416,0.02365 -0.00146,0.03121l-0.04013,0.42909c-0.01602,0.22381 -0.07843,0.66714 -0.12483,0.88667l-5.48474,29.06914l17.68791,3.33734l5.48474,-29.06914c0.11455,-0.63351 0.29392,-1.90754 0.35873,-2.54806l0.04013,-0.42909c0.03493,-0.42609 0.07476,-1.27967 0.07965,-1.70716v-0.43554z" fill="#ffffff"/><path d="M373.11712,554.02762l-1.95993,3.48432c-0.6557,1.02544 -1.43992,3.26122 -1.56845,4.47157l-0.55089,3.36414c-0.55646,2.97266 -0.481,8.90286 0.15092,11.86039l2.60311,13.70057l-17.68364,3.35989l-2.60311,-13.70057c-0.78937,-4.52297 -0.90472,-13.58753 -0.23069,-18.12912l0.55089,-3.36414c0.51752,-2.73483 2.33926,-7.92855 3.6435,-10.38743l1.95993,-3.48432z" fill="#ffffff"/><path d="M626.88288,554.02762l1.95993,3.48432c0.6557,1.02544 1.43992,3.26122 1.56845,4.47157l0.55089,3.36414c0.55646,2.97266 0.481,8.90286 -0.15092,11.86039l-2.60311,13.70057l17.68364,3.35989l2.60311,-13.70057c0.78937,-4.52297 0.90472,-13.58753 0.23069,-18.12912l-0.55089,-3.36414c-0.51752,-2.73483 -2.33926,-7.92855 -3.6435,-10.38743l-1.95993,-3.48432z" fill="#ffffff"/><path d="M388.21022,427.66405v0.58072c-0.0001,0.25996 0.00341,0.77986 0.00702,1.0398l0.00784,0.58054c0.00733,0.55023 0.02963,1.65054 0.0446,2.20062l1.09868,40.65134l-17.99343,0.48631l-1.09868,-40.65134c-0.01641,-0.61086 -0.04117,-1.83273 -0.04953,-2.44375l-0.00784,-0.58054c-0.00423,-0.32073 -0.00856,-0.96222 -0.00867,-1.28298v-0.58072z" fill="#ffffff"/><path d="M611.78978,427.66405v0.58072c0.0001,0.25996 -0.00341,0.77986 -0.00702,1.0398l-0.00784,0.58054c-0.00733,0.55023 -0.02963,1.65054 -0.0446,2.20062l-1.09868,40.65134l17.99343,0.48631l1.09868,-40.65134c0.01641,-0.61086 0.04117,-1.83273 0.04953,-2.44375l0.00784,-0.58054c0.00423,-0.32073 0.00856,-0.96222 0.00867,-1.28298v-0.58072z" fill="#ffffff"/><path d="M427.64414,424.34729l0.14518,1.30662c0.05968,0.54837 0.20719,1.64131 0.29502,2.18589l0.20585,1.29489c0.18839,1.19301 0.62345,3.56836 0.87011,4.7507l5.31974,25.63149l-17.62441,3.6579l-5.31974,-25.63149c-0.2872,-1.38988 -0.79844,-4.1812 -1.02248,-5.58264l-0.20585,-1.29489c-0.11857,-0.75379 -0.32264,-2.26582 -0.40814,-3.02407l-0.14518,-1.30662z" fill="#ffffff"/><path d="M572.35586,424.34729l-0.14518,1.30662c-0.05968,0.54837 -0.20719,1.64131 -0.29502,2.18589l-0.20585,1.29489c-0.18839,1.19301 -0.62345,3.56836 -0.87011,4.7507l-5.31974,25.63149l17.62441,3.6579l5.31974,-25.63149c0.2872,-1.38988 0.79844,-4.1812 1.02248,-5.58264l0.20585,-1.29489c0.11857,-0.75379 0.32264,-2.26582 0.40814,-3.02407l0.14518,-1.30662z" fill="#ffffff"/><path d="M423.5384,362.37672l3.04878,-1.19774c2.04149,-0.76673 6.23997,-1.85421 8.39697,-2.17496l3.0179,-0.40241c3.71474,-0.4622 11.15399,-0.54905 14.8785,-0.1737l20.22585,2.21775l-1.96193,17.89276l-20.22585,-2.21775c-2.63849,-0.32235 -7.90723,-0.26084 -10.53747,0.12302l-3.0179,0.40241c-1.08987,0.1122 -3.18704,0.6554 -4.19434,1.0864l-3.04878,1.19774z" fill="#ffffff"/><path d="M576.4616,362.37672l-3.04878,-1.19774c-2.04149,-0.76673 -6.23997,-1.85421 -8.39697,-2.17496l-3.0179,-0.40241c-3.71474,-0.4622 -11.15399,-0.54905 -14.8785,-0.1737l-20.22585,2.21775l1.96193,17.89276l20.22585,-2.21775c2.63849,-0.32235 7.90723,-0.26084 10.53747,0.12302l3.0179,0.40241c1.08987,0.1122 3.18704,0.6554 4.19434,1.0864l3.04878,1.19774z" fill="#ffffff"/><path d="M490.44523,333.09704c0,0 0.36295,-0.10889 0.7259,-0.21777c1.676,-0.5028 5.20047,-0.23524 6.92601,0.12538l0.39207,0.13327c0.44076,0.20385 0.95893,0.49427 1.51079,0.8389c0.55186,-0.34463 1.07003,-0.63506 1.51079,-0.8389l0.39207,-0.13327c1.72554,-0.36062 5.25001,-0.62818 6.92601,-0.12538c0.36295,0.10889 0.7259,0.21777 0.7259,0.21777l-2.38507,7.95024l11.74851,16.31738l-14.60762,10.51749l-4.31059,-5.98693l-4.31059,5.98693l-14.60762,-10.51749l11.74851,-16.31738z" fill="#ffffff"/><path d="M499.39532,366.7124l0.60468,0.60468l0.60468,-0.60468l4.07755,4.07755l1.54198,0.65325c1.89316,0.89214 5.87859,1.73486 7.97085,1.68544l14.98531,0.24041l-0.28873,17.99768l-14.98531,-0.24041c-3.54311,-0.13402 -10.14973,-1.48794 -13.90633,-2.81132c-3.75659,1.32338 -10.36322,2.67729 -13.90633,2.81132l-14.98531,0.24041l-0.28873,-17.99768l14.98531,-0.24041c2.09226,0.04943 6.07768,-0.79329 7.97085,-1.68544l1.54198,-0.65325z" fill="#ffffff"/><path d="M573.75515,339.32062l-0.58072,2.25029c-0.22809,0.84798 -0.55788,2.56816 -0.65957,3.44037l-0.28705,2.26104c-0.26399,2.00823 -0.51901,6.04194 -0.51004,8.06742v18.89806h-18v-18.89806c0.00897,-2.59335 0.33565,-7.76054 0.65337,-10.33437l0.28705,-2.26104c0.191,-1.4333 0.73463,-4.26891 1.08725,-5.67123l0.58072,-2.25029z" fill="#ffffff"/><path d="M426.24485,339.32062l0.58072,2.25029c0.22809,0.84798 0.55788,2.56816 0.65957,3.44037l0.28705,2.26104c0.26399,2.00823 0.51901,6.04194 0.51004,8.06742v18.89806h18v-18.89806c-0.00897,-2.59335 -0.33565,-7.76054 -0.65337,-10.33437l-0.28705,-2.26104c-0.191,-1.4333 -0.73463,-4.26891 -1.08725,-5.67123l-0.58072,-2.25029z" fill="#ffffff"/><path d="M615.67547,367.41873c0.06117,-0.0587 0.11726,-0.11163 0.1625,-0.15314l-0.1411,0.18167l0.03995,0.05326l-0.19477,0.14608l-0.1111,0.14304c-0.09716,0.05985 -0.19833,0.23375 -0.20234,0.34779l-11.67818,28.13381l-16.62465,-6.9008l11.67818,-28.13381c0.53706,-1.18944 1.84268,-3.43364 2.61124,-4.4884l0.40703,-0.52405c0.62155,-0.735 1.98848,-2.07907 2.73387,-2.68813l0.58072,-0.43554z" fill="#ffffff"/><path d="M384.32453,367.41873c-0.06117,-0.0587 -0.11726,-0.11163 -0.1625,-0.15314l0.1411,0.18167l-0.03995,0.05326l0.19477,0.14608l0.1111,0.14304c0.09716,0.05985 0.19833,0.23375 0.20234,0.34779l11.67818,28.13381l16.62465,-6.9008l-11.67818,-28.13381c-0.53706,-1.18944 -1.84268,-3.43364 -2.61124,-4.4884l-0.40703,-0.52405c-0.62155,-0.735 -1.98848,-2.07907 -2.73387,-2.68813l-0.58072,-0.43554z" fill="#ffffff"/><path d="M657.02578,404.02805l-0.43554,0.58072c-0.13687,0.17899 -0.3959,0.54731 -0.51806,0.73665l-0.39741,0.60352c-0.32469,0.48926 -0.9399,1.48881 -1.23042,1.9991l-16.55778,28.84259l-15.61056,-8.96162l16.55778,-28.84259c0.43122,-0.74693 1.335,-2.21533 1.80757,-2.93681l0.39741,-0.60352c0.27706,-0.41693 0.85279,-1.23559 1.15146,-1.63732l0.43554,-0.58072z" fill="#ffffff"/><path d="M342.97422,404.02805l0.43554,0.58072c0.13687,0.17899 0.3959,0.54731 0.51806,0.73665l0.39741,0.60352c0.32469,0.48926 0.9399,1.48881 1.23042,1.9991l16.55778,28.84259l15.61056,-8.96162l-16.55778,-28.84259c-0.43122,-0.74693 -1.335,-2.21533 -1.80757,-2.93681l-0.39741,-0.60352c-0.27706,-0.41693 -0.85279,-1.23559 -1.15146,-1.63732l-0.43554,-0.58072z" fill="#ffffff"/><path d="M661.34266,442.40815l-3.04878,0.36295c-1.12187,0.11493 -3.31554,0.58063 -4.38735,0.93139l-2.81667,0.87092c-2.51144,0.75719 -7.3394,2.74497 -9.65592,3.97558l-15.3166,7.99867l-8.33225,-15.95537l15.3166,-7.99867c3.05618,-1.57514 9.39163,-4.1836 12.67089,-5.21692l2.81667,-0.87092c1.86148,-0.55622 5.64988,-1.36046 7.57679,-1.60847l3.04878,-0.36295z" fill="#ffffff"/><path d="M338.65734,442.40815l3.04878,0.36295c1.12187,0.11493 3.31554,0.58063 4.38735,0.93139l2.81667,0.87092c2.51144,0.75719 7.3394,2.74497 9.65592,3.97558l15.3166,7.99867l8.33225,-15.95537l-15.3166,-7.99867c-3.05618,-1.57514 -9.39163,-4.1836 -12.67089,-5.21692l-2.81667,-0.87092c-1.86148,-0.55622 -5.64988,-1.36046 -7.57679,-1.60847l-3.04878,-0.36295z" fill="#ffffff"/><path d="M441.74305,585.6791l-2.9036,2.32288c-2.6378,2.11024 -6.13667,2.51232 -9.09432,1.27701l-2.70219,0.59768c-6.76455,1.31624 -20.07591,0.48056 -26.62273,-1.67135l-16.88085,-6.02979c-2.86803,-1.21104 -7.93499,-4.64684 -9.8578,-7.089c-2.00305,-2.54408 -4.03168,-8.57908 -4.39542,-11.80376l-0.2542,-5.52698c0.36878,-7.58865 7.14759,-19.25593 13.55761,-23.33456l0.19033,-0.0972c5.69823,-2.73783 17.72384,-5.45705 24.03546,-5.13219c6.36923,0.32782 18.07476,4.46361 23.42847,7.93363l8.49852,5.83412c2.27655,1.76804 6.03298,6.02697 7.20374,8.65554c1.05204,2.36201 2.02997,7.38864 2.13355,9.9741l0.02053,8.40334c-0.09273,1.85497 -0.75373,5.48617 -1.50008,7.18412c-0.33216,0.75566 -0.95841,1.8781 -1.59692,2.92547c-0.35008,2.14052 -1.47004,4.14492 -3.26009,5.57695zM429.61707,570.87227c0.18603,-0.29089 0.37297,-0.64832 0.48299,-0.8904l-0.02039,-8.34869c0.09549,-0.72486 -0.28154,-2.0325 -0.57636,-2.69444c-0.1761,-0.39538 -0.49569,-1.03392 -0.94829,-1.1394l-8.49852,-5.83412c-3.14672,-2.3654 -10.23861,-4.59503 -14.1664,-4.7972c-3.98539,-0.20513 -11.43934,1.23504 -14.92365,3.18659l-0.19033,0.0972c-2.72145,0.58467 -4.60304,3.82316 -3.76319,6.47698l0.2542,5.52698c-0.19254,0.49748 0.25502,1.11222 0.55697,1.49573c0.38219,0.48542 1.1292,1.2306 1.77013,1.27294l16.88085,6.02979c4.08329,1.64513 12.42355,2.16872 16.68052,1.04719z" fill="#ffffff"/><path d="M558.25695,585.6791l2.9036,2.32288c2.6378,2.11024 6.13667,2.51232 9.09432,1.27701l2.70219,0.59768c6.76455,1.31624 20.07591,0.48056 26.62273,-1.67135l16.88085,-6.02979c2.86803,-1.21104 7.93499,-4.64684 9.8578,-7.089c2.00305,-2.54408 4.03168,-8.57908 4.39542,-11.80376l0.2542,-5.52698c-0.36878,-7.58865 -7.14759,-19.25593 -13.55761,-23.33456l-0.19033,-0.0972c-5.69823,-2.73783 -17.72384,-5.45705 -24.03546,-5.13219c-6.36923,0.32782 -18.07476,4.46361 -23.42847,7.93363l-8.49852,5.83412c-2.27655,1.76804 -6.03298,6.02697 -7.20374,8.65554c-1.05204,2.36201 -2.02997,7.38864 -2.13355,9.9741l-0.02053,8.40334c0.09273,1.85497 0.75373,5.48617 1.50008,7.18412c0.33216,0.75566 0.95841,1.8781 1.59692,2.92547c0.35008,2.14052 1.47004,4.14492 3.26009,5.57695zM570.38293,570.87227c-0.18603,-0.29089 -0.37297,-0.64832 -0.48299,-0.8904l0.02039,-8.34869c-0.09549,-0.72486 0.28154,-2.0325 0.57636,-2.69444c0.1761,-0.39538 0.49569,-1.03392 0.94829,-1.1394l8.49852,-5.83412c3.14672,-2.3654 10.23861,-4.59503 14.1664,-4.7972c3.98539,-0.20513 11.43934,1.23504 14.92365,3.18659l0.19033,0.0972c2.72145,0.58467 4.60304,3.82316 3.76319,6.47698l-0.2542,5.52698c0.19254,0.49748 -0.25502,1.11222 -0.55697,1.49573c-0.38219,0.48542 -1.1292,1.2306 -1.77013,1.27294l-16.88085,6.02979c-4.08329,1.64513 -12.42355,2.16872 -16.68052,1.04719z" fill="#ffffff"/><path d="M459.19236,633.31434c0,0 -1.03441,1.19774 -2.06882,2.39547c-0.14363,0.1663 -0.41807,0.29551 -0.22901,0.53468l-0.16911,1.73819c-0.34111,1.32365 0.17047,3.71562 1.02317,4.78394l5.93425,10.40326l-15.63515,8.91864l-5.93425,-10.40326c-1.83608,-3.64533 -3.4878,-11.36812 -3.30343,-15.44558l0.16911,-1.73819c0.49556,-2.91112 2.59642,-8.32768 4.52161,-10.55684c1.03441,-1.19774 2.06882,-2.39547 2.06882,-2.39547z" fill="#ffffff"/><path d="M540.80764,633.31434c0,0 1.03441,1.19774 2.06882,2.39547c0.14363,0.1663 0.41807,0.29551 0.22901,0.53468l0.16911,1.73819c0.34111,1.32365 -0.17047,3.71562 -1.02317,4.78394l-5.93425,10.40326l15.63515,8.91864l5.93425,-10.40326c1.83608,-3.64533 3.4878,-11.36812 3.30343,-15.44558l-0.16911,-1.73819c-0.49556,-2.91112 -2.59642,-8.32768 -4.52161,-10.55684c-1.03441,-1.19774 -2.06882,-2.39547 -2.06882,-2.39547z" fill="#ffffff"/><path d="M413.32009,593.28767l1.99623,6.13386c0.74441,2.44802 2.99962,6.96108 4.51042,9.02612l3.31163,4.71615c3.15469,4.57916 10.72903,12.53285 15.14869,15.90738l12.65072,9.83945l-11.05093,14.20834l-12.65072,-9.83945c-5.41168,-4.27206 -14.82606,-14.15795 -18.82877,-19.77178l-3.31163,-4.71615c-2.19608,-3.21399 -5.64397,-10.11381 -6.89578,-13.79965l-1.99623,-6.13386z" fill="#ffffff"/><path d="M586.67991,593.28767l-1.99623,6.13386c-0.74441,2.44802 -2.99962,6.96108 -4.51042,9.02612l-3.31163,4.71615c-3.15469,4.57916 -10.72903,12.53285 -15.14869,15.90738l-12.65072,9.83945l11.05093,14.20834l12.65072,-9.83945c5.41168,-4.27206 14.82606,-14.15795 18.82877,-19.77178l3.31163,-4.71615c2.19608,-3.21399 5.64397,-10.11381 6.89578,-13.79965l1.99623,-6.13386z" fill="#ffffff"/><path d="M386.34979,610.10439l-2.61324,1.16144c-0.96024,0.40858 -2.77815,1.41166 -3.63581,2.00615l-2.29105,1.5346c-2.03651,1.3441 -5.82656,4.385 -7.58008,6.0818l-17.32543,16.53791l-12.42856,-13.0204l17.32543,-16.53791c2.33554,-2.2064 7.33123,-6.21464 9.99138,-8.01648l2.29105,-1.5346c1.5183,-0.99698 4.68959,-2.74682 6.34259,-3.49968l2.61324,-1.16144z" fill="#ffffff"/><path d="M613.65021,610.10439l2.61324,1.16144c0.96024,0.40858 2.77815,1.41166 3.63581,2.00615l2.29105,1.5346c2.03651,1.3441 5.82656,4.385 7.58008,6.0818l17.32543,16.53791l12.42856,-13.0204l-17.32543,-16.53791c-2.33554,-2.2064 -7.33123,-6.21464 -9.99138,-8.01648l-2.29105,-1.5346c-1.5183,-0.99698 -4.68959,-2.74682 -6.34259,-3.49968l-2.61324,-1.16144z" fill="#ffffff"/><path d="M373.1908,626.13188l1.59698,1.81475c0.83857,0.95355 2.49013,2.88255 3.30312,3.858l1.5457,1.85581c1.58544,1.90418 4.70465,5.75439 6.23842,7.70043l16.66479,21.15146l-14.13885,11.1397l-16.66479,-21.15146c-1.45744,-1.8505 -4.4227,-5.51069 -5.93053,-7.32037l-1.5457,-1.85581c-0.73409,-0.88202 -2.2266,-2.62525 -2.98501,-3.48645l-1.59698,-1.81475z" fill="#ffffff"/><path d="M626.8092,626.13188l-1.59698,1.81475c-0.83857,0.95355 -2.49013,2.88255 -3.30312,3.858l-1.5457,1.85581c-1.58544,1.90418 -4.70465,5.75439 -6.23842,7.70043l-16.66479,21.15146l14.13885,11.1397l16.66479,-21.15146c1.45744,-1.8505 4.4227,-5.51069 5.93053,-7.32037l1.5457,-1.85581c0.73409,-0.88202 2.2266,-2.62525 2.98501,-3.48645l1.59698,-1.81475z" fill="#ffffff"/><path d="M439.20893,637.67765l0.58072,3.77468c0.16347,1.31428 0.89417,3.82536 1.46141,5.02215l1.40911,3.2096c1.22381,2.88274 4.43376,8.18688 6.41989,10.60828l9.16726,11.45908l-14.05564,11.24451l-9.16726,-11.45908c-2.65811,-3.38391 -7.08101,-10.69234 -8.8458,-14.61687l-1.40911,-3.2096c-0.96802,-2.30013 -2.3533,-7.06065 -2.77055,-9.52104l-0.58072,-3.77468z" fill="#ffffff"/><path d="M560.79107,637.67765l-0.58072,3.77468c-0.16347,1.31428 -0.89417,3.82536 -1.46141,5.02215l-1.40911,3.2096c-1.22381,2.88274 -4.43376,8.18688 -6.41989,10.60828l-9.16726,11.45908l14.05564,11.24451l9.16726,-11.45908c2.65811,-3.38391 7.08101,-10.69234 8.8458,-14.61687l1.40911,-3.2096c0.96802,-2.30013 2.3533,-7.06065 2.77055,-9.52104l0.58072,-3.77468z" fill="#ffffff"/><path d="M433.41905,674.09521l1.88734,1.01626c0.38775,0.25582 1.23592,0.57331 1.69635,0.63497l1.90495,0.43079c1.42723,0.36521 4.32328,0.61673 5.7921,0.50303l26.98356,-1.32706l0.88418,17.97827l-26.98356,1.32706c-2.6896,0.09081 -8.01289,-0.3715 -10.64656,-0.92462l-1.90495,-0.43079c-1.63034,-0.41114 -4.76027,-1.58273 -6.25986,-2.34317l-1.88734,-1.01626z" fill="#ffffff"/><path d="M566.58095,674.09521l-1.88734,1.01626c-0.38775,0.25582 -1.23592,0.57331 -1.69635,0.63497l-1.90495,0.43079c-1.42723,0.36521 -4.32328,0.61673 -5.7921,0.50303l-26.98356,-1.32706l-0.88418,17.97827l26.98356,1.32706c2.6896,0.09081 8.01289,-0.3715 10.64656,-0.92462l1.90495,-0.43079c1.63034,-0.41114 4.76027,-1.58273 6.25986,-2.34317l1.88734,-1.01626z" fill="#ffffff"/><path d="M466.88683,715.56597l-2.20752,3.50759c3.93979,-1.81545 7.82265,-3.67923 10.3926,-5.01367l6.59644,-3.41816c-3.92589,-2.52797 -7.44681,-4.79517 -7.44681,-4.79517l3.69151,-5.73284c-4.09102,5.30075 -8.56545,11.52535 -11.02623,15.45226zM507.62569,696.1266c2.89239,-1.86248 5.78478,-3.72495 7.30794,-4.70575c-3.00918,-3.44714 -9.26915,-10.61819 -14.93363,-17.10709c-5.66448,6.48889 -11.92445,13.65995 -14.93363,17.10709c1.52316,0.9808 4.41555,2.84328 7.30794,4.70575c0.082,0.0528 5.37909,3.46372 7.62569,4.91036c2.24661,-1.44664 7.54369,-4.85756 7.62569,-4.91036zM525.77845,705.84655c0,0 -3.52092,2.2672 -7.44681,4.79517l6.59644,3.41816c2.56996,1.33444 6.45281,3.19822 10.3926,5.01367l-2.20752,-3.50759c-2.46078,-3.92692 -6.9352,-10.15151 -11.02623,-15.45226zM483.3534,730.04166c-5.63715,2.91548 -17.15651,8.21365 -23.03872,10.59634l-11.37608,4.59771c-3.38173,1.36675 -7.254,0.55725 -9.80502,-2.04973c-2.55103,-2.60699 -3.27631,-6.4959 -1.83651,-9.84719l2.94127,-6.84612c1.62156,-3.73971 5.40268,-10.93647 7.56224,-14.39352l3.85218,-6.12083c4.12916,-6.53526 13.33176,-18.90315 18.40521,-24.73578c3.28815,-3.76671 27.80772,-31.85488 27.80772,-31.85488l2.13431,1.86315l2.13431,-1.86315c0,0 24.51957,28.08817 27.80772,31.85488c5.07345,5.83263 14.27605,18.20052 18.40521,24.73578l3.85218,6.12083c2.15956,3.45705 5.94068,10.65381 7.56224,14.39352l2.94127,6.84612c1.4398,3.35128 0.71451,7.2402 -1.83651,9.84719c-2.55103,2.60699 -6.42329,3.41648 -9.80502,2.04973l-11.37608,-4.59771c-5.8822,-2.38269 -17.40156,-7.68086 -23.03872,-10.59634l-16.6466,-8.62598z" fill="#ffffff"/><path d="M510.22939,698.12435c0.01348,-0.21728 0.0292,-0.41506 0.05562,-0.56417l0.10456,0.63162l0.22803,0.09601c0,0 -0.04641,0.11021 -0.12067,0.28658l7.84415,8.82467l-13.45337,11.95855l-4.88772,-5.49868l-4.88772,5.49868l-13.45337,-11.95855l7.84415,-8.82467c-0.07426,-0.17637 -0.12067,-0.28658 -0.12067,-0.28658l0.22803,-0.09601l0.10456,-0.63162c0.02642,0.14911 0.04214,0.34689 0.05562,0.56417l2.83033,-1.19172c0.14319,-1.60743 0.42381,-3.24675 0.8465,-4.25064c0.29036,-0.68961 0.58072,-1.37921 0.58072,-1.37921l5.97184,2.51446l5.97184,-2.51446c0,0 0.29036,0.68961 0.58072,1.37921c0.42269,1.00389 0.70331,2.64321 0.8465,4.25064z" fill="#ffffff"/><path d="M462.38069,714.13817l2.9399,3.08508c0.67043,0.87769 2.41436,2.01503 3.48786,2.27468l2.98074,1.0756c2.66539,1.08953 8.17412,1.72426 11.01746,1.26946l14.69044,-1.72479l0.06807,-0.57974l2.43485,0.28587l2.43485,-0.28587l0.06807,0.57974l14.69044,1.72479c2.84334,0.4548 8.35206,-0.17994 11.01746,-1.26946l2.98074,-1.0756c1.0735,-0.25965 2.81743,-1.39699 3.48786,-2.27468l2.9399,-3.08508l13.03084,12.41762l-2.9399,3.08508c-2.26946,2.20739 -7.47397,5.60161 -10.409,6.78844l-2.98074,1.0756c-4.69005,1.56468 -14.30309,2.67233 -19.22609,2.21529l-15.09442,-1.77222l-15.09442,1.77222c-4.923,0.45704 -14.53604,-0.6506 -19.22609,-2.21529l-2.98074,-1.0756c-2.93504,-1.18683 -8.13954,-4.58105 -10.409,-6.78844l-2.9399,-3.08508z" fill="#ffffff"/><path d="M495.41863,741.06143l-4.25819,5.33287c-1.43592,1.44869 -2.75227,4.93361 -2.63271,6.96985l-0.25545,5.262c-0.28148,1.29921 0.33502,3.57861 1.233,4.55881l2.9399,4.51873l-15.08783,9.81618l-2.9399,-4.51873c-2.04191,-3.53853 -4.10391,-11.16242 -4.124,-15.24778l0.25545,-5.262c0.45046,-4.78008 3.7232,-13.44434 6.54547,-17.32852l4.25819,-5.33287z" fill="#ffffff"/><path d="M504.58137,741.06143l4.25819,5.33287c1.43592,1.44869 2.75227,4.93361 2.63271,6.96985l0.25545,5.262c0.28148,1.29921 -0.33502,3.57861 -1.233,4.55881l-2.9399,4.51873l15.08783,9.81618l2.9399,-4.51873c2.04191,-3.53853 4.10391,-11.16242 4.124,-15.24778l-0.25545,-5.262c-0.45046,-4.78008 -3.7232,-13.44434 -6.54547,-17.32852l-4.25819,-5.33287z" fill="#ffffff"/><path d="M480.52984,746.23292l0.69798,0.63981l0.73473,0.33672c0.37456,0.23185 1.18963,0.46061 1.63013,0.45751l16.40732,1.93698l16.40732,-1.93698c0.4405,0.0031 1.25557,-0.22566 1.63013,-0.45751l0.73473,-0.33672l0.69798,-0.63981l12.16304,13.26877l-0.87108,0.79849c-0.98826,0.83167 -3.12687,2.25073 -4.27722,2.83813l-0.9482,0.43456c-1.49345,0.63131 -4.40236,1.47265 -6.31431,1.84694l-0.53308,4.51552l-18.68931,-2.20638l-18.68931,2.20638l-0.53308,-4.51552c-1.91195,-0.37429 -4.82086,-1.21562 -6.31431,-1.84694l-0.9482,-0.43456c-1.15035,-0.58739 -3.28896,-2.00646 -4.27722,-2.83813l-0.87108,-0.79849z" fill="#ffffff"/><path d="M492.89107,761.65592c0,0 -1.27033,2.44991 -2.54065,4.89983c-0.44596,0.86007 -0.87817,2.16714 -0.20446,2.95636l0.40451,1.14261c0.4457,2.37278 3.22617,5.36007 5.56093,5.97457l3.8886,1.69907l3.8886,-1.69907c2.33476,-0.6145 5.11523,-3.60179 5.56093,-5.97457l0.40451,-1.14261c0.67371,-0.78922 0.2415,-2.0963 -0.20446,-2.95636c-1.27033,-2.44991 -2.54065,-4.89983 -2.54065,-4.89983l15.97958,-8.28571c0,0 1.27033,2.44991 2.54065,4.89983c2.09469,4.03976 2.36118,12.83543 1.19294,17.24914l-0.40451,1.14261c-2.34181,5.50107 -10.00284,13.73195 -15.32206,16.46175l-6.14227,2.68378l-1.58811,3.63464l-3.36517,-1.47037l-3.36517,1.47037l-1.58811,-3.63464l-6.14227,-2.68378c-5.31922,-2.7298 -12.98024,-10.96068 -15.32206,-16.46175l-0.40451,-1.14261c-1.16823,-4.4137 -0.90175,-13.20938 1.19294,-17.24914c1.27033,-2.44991 2.54065,-4.89983 2.54065,-4.89983z" fill="#ffffff"/><path d="M372.55168,688.40467l1.30573,20.28906c0.72253,9.57248 5.78742,27.04247 10.48102,36.55809c0.14029,0.34054 0.30301,0.67621 0.48866,1.00519v0c0.04451,0.07686 0.08964,0.15418 0.1354,0.23193c-0.04611,-0.07639 -0.09125,-0.1537 -0.1354,-0.23193l0.42259,0.74882c-0.04415,-0.07823 -0.08699,-0.15683 -0.12855,-0.23579c0.04291,0.07936 0.08576,0.15796 0.12855,0.23579c0.18565,0.32897 0.3889,0.64178 0.6079,0.93789c5.71973,8.93654 18.05687,22.30249 25.8779,27.86898l22.73237,15.80325l10.27453,-14.77951l-22.73237,-15.80325c-6.6007,-4.45516 -16.90059,-15.68138 -21.11945,-22.93623l-0.35234,-0.62434c-4.02979,-7.36155 -8.31601,-21.98154 -8.71797,-29.93491l-1.30573,-20.28906z" fill="#ffffff"/><path d="M627.44832,688.40467l-1.30573,20.28906c-0.72253,9.57248 -5.78742,27.04247 -10.48102,36.55809c-0.14029,0.34054 -0.30301,0.67621 -0.48866,1.00519v0c-0.04451,0.07686 -0.08964,0.15418 -0.1354,0.23193c0.04611,-0.07639 0.09125,-0.1537 0.1354,-0.23193l-0.42259,0.74882c0.04415,-0.07823 0.08699,-0.15683 0.12855,-0.23579c-0.04291,0.07936 -0.08576,0.15796 -0.12855,0.23579c-0.18565,0.32897 -0.3889,0.64178 -0.6079,0.93789c-5.71973,8.93654 -18.05687,22.30249 -25.8779,27.86898l-22.73237,15.80325l-10.27453,-14.77951l22.73237,-15.80325c6.6007,-4.45516 16.90059,-15.68138 21.11945,-22.93623l0.35234,-0.62434c4.02979,-7.36155 8.31601,-21.98154 8.71797,-29.93491l1.30573,-20.28906z" fill="#ffffff"/><path d="M657.96214,639.14433l1.88734,1.59698c0.61549,0.54577 1.9549,1.48226 2.6788,1.87298l2.05985,1.1742c1.75033,1.0197 5.42061,2.68534 7.34056,3.33127l19.17457,6.6524l-5.89991,17.00562l-19.17457,-6.6524c-2.68927,-0.95319 -7.86668,-3.30278 -10.35481,-4.69918l-2.05985,-1.1742c-1.42395,-0.83366 -4.11975,-2.71852 -5.3916,-3.76973l-1.88734,-1.59698z" fill="#ffffff"/><path d="M342.03786,639.14433l-1.88734,1.59698c-0.61549,0.54577 -1.9549,1.48226 -2.6788,1.87298l-2.05985,1.1742c-1.75033,1.0197 -5.42061,2.68534 -7.34056,3.33127l-19.17457,6.6524l5.89991,17.00562l19.17457,-6.6524c2.68927,-0.95319 7.86668,-3.30278 10.35481,-4.69918l2.05985,-1.1742c1.42395,-0.83366 4.11975,-2.71852 5.3916,-3.76973l1.88734,-1.59698z" fill="#ffffff"/><path d="M662.60163,626.56185h0.43554c0.15356,0.00046 0.46059,-0.00392 0.61407,-0.00876l0.43493,-0.01242c0.37105,-0.01013 1.11265,-0.0419 1.48321,-0.06354l18.58616,-1.06207l1.0269,17.97068l-18.58616,1.06207c-0.49883,0.02805 -1.49705,0.07081 -1.99645,0.08552l-0.43493,0.01242c-0.28188,0.00759 -0.84575,0.01564 -1.12773,0.01609h-0.43554z" fill="#ffffff"/><path d="M337.39837,626.56185h-0.43554c-0.15356,0.00046 -0.46059,-0.00392 -0.61407,-0.00876l-0.43493,-0.01242c-0.37105,-0.01013 -1.11265,-0.0419 -1.48321,-0.06354l-18.58616,-1.06207l-1.0269,17.97068l18.58616,1.06207c0.49883,0.02805 1.49705,0.07081 1.99645,0.08552l0.43493,0.01242c0.28188,0.00759 0.84575,0.01564 1.12773,0.01609h0.43554z" fill="#ffffff"/><path d="M670.32364,581.61243c0,0 0.07259,-0.21777 0.14518,-0.43554c0.49502,-1.48507 2.50251,-3.94647 3.63009,-5.0511l0.20874,-0.15745c1.50485,-0.88102 4.73119,-2.03993 6.45269,-2.31782l11.6478,-0.50643l0.78187,17.98301l-11.6478,0.50643c0.8922,-0.23357 2.58723,-0.83889 3.49391,-1.24441c0.68233,-0.75145 1.8215,-2.09682 2.32764,-3.09666z" fill="#ffffff"/><path d="M329.67636,581.61243c0,0 -0.07259,-0.21777 -0.14518,-0.43554c-0.49502,-1.48507 -2.50251,-3.94647 -3.63009,-5.0511l-0.20874,-0.15745c-1.50485,-0.88102 -4.73119,-2.03993 -6.45269,-2.31782l-11.6478,-0.50643l-0.78187,17.98301l11.6478,0.50643c-0.8922,-0.23357 -2.58723,-0.83889 -3.49391,-1.24441c-0.68233,-0.75145 -1.8215,-2.09682 -2.32764,-3.09666z" fill="#ffffff"/><path d="M655.11317,533.00857l0.87108,-1.30662c0.83743,-1.17026 2.75233,-3.29439 3.82979,-4.24826l1.086,-0.89909c1.70294,-1.348 5.38707,-3.58592 7.36827,-4.47585l9.40959,-3.98098l7.01352,16.57741l-9.40959,3.98098c-0.81543,0.29326 -2.26696,1.175 -2.90307,1.76347l-1.086,0.89909c-0.13215,0.04756 -0.29795,0.23148 -0.3316,0.36784l-0.87108,1.30662z" fill="#ffffff"/><path d="M344.88683,533.00857l-0.87108,-1.30662c-0.83743,-1.17026 -2.75233,-3.29439 -3.82979,-4.24826l-1.086,-0.89909c-1.70294,-1.348 -5.38707,-3.58592 -7.36827,-4.47585l-9.40959,-3.98098l-7.01352,16.57741l9.40959,3.98098c0.81543,0.29326 2.26696,1.175 2.90307,1.76347l1.086,0.89909c0.13215,0.04756 0.29795,0.23148 0.3316,0.36784l0.87108,1.30662z" fill="#ffffff"/><path d="M658.24739,489.22038v-1.95993c0.00811,-1.25 0.15791,-3.74196 0.29961,-4.98392l0.2307,-1.91187c0.27386,-2.20188 1.06763,-6.56082 1.58755,-8.71789l1.62479,-6.63457l17.48335,4.28164l-1.62479,6.63457c-0.4072,1.62865 -1.00747,4.92495 -1.20053,6.5926l-0.2307,1.91187c-0.0931,0.70385 -0.17809,2.11764 -0.16998,2.82757v1.95993z" fill="#ffffff"/><path d="M341.75261,489.22038v-1.95993c-0.00811,-1.25 -0.15791,-3.74196 -0.29961,-4.98392l-0.2307,-1.91187c-0.27386,-2.20188 -1.06763,-6.56082 -1.58755,-8.71789l-1.62479,-6.63457l-17.48335,4.28164l1.62479,6.63457c0.4072,1.62865 1.00747,4.92495 1.20053,6.5926l0.2307,1.91187c0.0931,0.70385 0.17809,2.11764 0.16998,2.82757v1.95993z" fill="#ffffff"/><path d="M683.49757,450.80842l-2.75842,2.32288c-1.19398,0.99652 -3.45515,3.12429 -4.52234,4.25555l-2.44956,2.57385c-2.30825,2.41545 -6.63411,7.49391 -8.65173,10.15692l-11.61159,15.26095l-14.32492,-10.89939l11.61159,-15.26095c2.32873,-3.04933 7.29764,-8.88271 9.93781,-11.66675l2.44956,-2.57385c1.41892,-1.481 4.40229,-4.28836 5.96673,-5.61472l2.75842,-2.32288z" fill="#ffffff"/><path d="M316.50243,450.80842l2.75842,2.32288c1.19398,0.99652 3.45515,3.12429 4.52234,4.25555l2.44956,2.57385c2.30825,2.41545 6.63411,7.49391 8.65173,10.15692l11.61159,15.26095l14.32492,-10.89939l-11.61159,-15.26095c-2.32873,-3.04933 -7.29764,-8.88271 -9.93781,-11.66675l-2.44956,-2.57385c-1.41892,-1.481 -4.40229,-4.28836 -5.96673,-5.61472l-2.75842,-2.32288z" fill="#ffffff"/><path d="M481.15429,488.33392l0.7259,1.30662c0.33364,0.60136 1.01741,1.79462 1.36755,2.38652l0.75963,1.28582c0.72939,1.23541 2.22133,3.68603 2.98388,4.90125l13.00874,20.74366l13.00874,-20.74366c0.76255,-1.21522 2.25449,-3.66584 2.98388,-4.90125l0.75963,-1.28582c0.35014,-0.5919 1.03392,-1.78516 1.36755,-2.38652l0.7259,-1.30662l15.73483,8.74157l-0.7259,1.30662c-0.39226,0.70526 -1.19467,2.10554 -1.60481,2.80056l-0.75963,1.28582c-0.79075,1.33772 -2.40677,3.99214 -3.23203,5.30885l-18.31057,29.19794l-9.9476,-6.23832l-9.9476,6.23832l-18.31057,-29.19794c-0.82526,-1.31671 -2.44128,-3.97113 -3.23203,-5.30885l-0.75963,-1.28582c-0.41014,-0.69502 -1.21254,-2.09529 -1.60481,-2.80056l-0.7259,-1.30662z" fill="#09c473"/><path d="M585.48028,453.77357l0.14518,0.7259c0.10092,0.51885 0.27155,1.56165 0.34125,2.0856l0.09318,0.72991c0.11085,0.89038 0.27519,2.67643 0.32869,3.57209l1.57498,27.82469l-17.97123,1.01724l-1.57498,-27.82469c-0.03002,-0.57963 -0.13629,-1.73464 -0.21256,-2.31002l-0.09318,-0.72991c-0.02404,-0.21036 -0.09234,-0.62778 -0.13659,-0.83483l-0.14518,-0.7259z" fill="#09c473"/><path d="M414.51972,453.77357l-0.14518,0.7259c-0.10092,0.51885 -0.27155,1.56165 -0.34125,2.0856l-0.09318,0.72991c-0.11085,0.89038 -0.27519,2.67643 -0.32869,3.57209l-1.57498,27.82469l17.97123,1.01724l1.57498,-27.82469c0.03002,-0.57963 0.13629,-1.73464 0.21256,-2.31002l0.09318,-0.72991c0.02404,-0.21036 0.09234,-0.62778 0.13659,-0.83483l0.14518,-0.7259z" fill="#09c473"/><path d="M373.03979,568.5253l5.29907,0.47184c2.29874,0.21844 6.90038,0.26785 9.20328,0.09881l5.15153,-0.3474c4.90781,-0.31723 14.60833,-1.73777 19.40103,-2.84107l33.6459,-7.64679l3.98918,17.55239l-33.6459,7.64679c-5.48325,1.23214 -16.5728,2.85608 -22.1791,3.24789l-5.15153,0.3474c-3.00508,0.18891 -9.01049,0.12444 -12.01082,-0.12895l-5.29907,-0.47184z" fill="#09c473"/><path d="M626.96021,568.5253l-5.29907,0.47184c-2.29874,0.21844 -6.90038,0.26785 -9.20328,0.09881l-5.15153,-0.3474c-4.90781,-0.31723 -14.60833,-1.73777 -19.40103,-2.84107l-33.6459,-7.64679l-3.98918,17.55239l33.6459,7.64679c5.48325,1.23214 16.5728,2.85608 22.1791,3.24789l5.15153,0.3474c3.00508,0.18891 9.01049,0.12444 12.01082,-0.12895l5.29907,-0.47184z" fill="#09c473"/><path d="M424.15985,538.6425c0,0 -0.10889,0.07259 -0.21777,0.14518c-1.43352,0.95568 -3.26766,3.98612 -3.99114,5.57658l-0.02593,0.09763c-0.18152,1.81736 0.18302,5.37758 0.72908,7.12044l8.57829,17.15659l16.09969,-8.04984l-8.57829,-17.15659c0.35311,1.34937 0.63475,4.07541 0.57064,5.49949c-0.63059,1.27354 -2.02308,3.63827 -3.18696,4.57695c-0.29729,-0.44593 -9.97761,-14.96642 -9.97761,-14.96642zM433.92668,553.76459v0z" fill="#09c473"/><path d="M575.84015,538.6425c0,0 0.10889,0.07259 0.21777,0.14518c1.43352,0.95568 3.26766,3.98612 3.99114,5.57658l0.02593,0.09763c0.18152,1.81736 -0.18302,5.37758 -0.72908,7.12044l-8.57829,17.15659l-16.09969,-8.04984l8.57829,-17.15659c-0.35311,1.34937 -0.63475,4.07541 -0.57064,5.49949c0.63059,1.27354 2.02308,3.63827 3.18696,4.57695c0.29729,-0.44593 9.97761,-14.96642 9.97761,-14.96642zM566.07332,553.76459v0z" fill="#09c473"/><path d="M431.73033,663.92603c2.85084,-1.72495 6.34811,-3.68508 8.46997,-4.71378l5.27059,-2.53017c5.68486,-2.71471 17.39173,-7.27942 23.41375,-9.12943l18.03708,-5.50067l5.25063,17.21717l-18.03708,5.50067c-5.37783,1.62655 -15.81509,5.69621 -20.87452,8.13933l-5.27059,2.53017c-2.40904,1.14214 -7.0125,3.79838 -9.20692,5.31247l-4.96609,3.39109c-3.4586,2.3617 -8.08917,2.02563 -11.17052,-0.81072c-3.08135,-2.83635 -3.79904,-7.42329 -1.73131,-11.06527c1.55436,-2.73778 6.21745,-10.95111 6.21745,-10.95111z" fill="#09c473"/><path d="M568.26967,663.92603c-2.85084,-1.72495 -6.34811,-3.68508 -8.46997,-4.71378l-5.27059,-2.53017c-5.68486,-2.71471 -17.39173,-7.27942 -23.41375,-9.12943l-18.03708,-5.50067l-5.25063,17.21717l18.03708,5.50067c5.37783,1.62655 15.81509,5.69621 20.87452,8.13933l5.27059,2.53017c2.40904,1.14214 7.0125,3.79838 9.20692,5.31247l4.96609,3.39109c3.4586,2.3617 8.08917,2.02563 11.17052,-0.81072c3.08135,-2.83635 3.79904,-7.42329 1.73131,-11.06527c-1.55436,-2.73778 -6.21745,-10.95111 -6.21745,-10.95111z" fill="#09c473"/><path d="M513.00205,628.4514l-0.25334,0.63335l-0.00741,0.49393c-0.07934,0.29291 0.01267,0.83627 0.18402,1.08672l8.30334,22.71208l-16.90564,6.18056l-4.32302,-11.82473l-4.32302,11.82473l-16.90564,-6.18056l8.30334,-22.71208c0.17135,-0.25046 0.26336,-0.79382 0.18402,-1.08672l-0.00741,-0.49393l-0.25334,-0.63335l8.26044,-3.30418c0.18695,-0.87888 0.40021,-1.71648 0.59554,-2.292l0.43554,-1.08885l3.71053,1.48421l3.71053,-1.48421l0.43554,1.08885c0.19533,0.57552 0.40859,1.41312 0.59554,2.292z" fill="#09c473"/><path d="M467.91818,673.03014l2.97619,0.14518c1.2922,0.06731 3.87723,0.08072 5.17006,0.02684l2.9502,-0.11323c2.49888,-0.09206 7.23299,-0.46953 10.15884,-0.80046l0.33835,-2.68259l10.48819,1.32283l10.48819,-1.32283l0.33835,2.68259c2.92585,0.33093 7.65996,0.7084 10.15884,0.80046l2.9502,0.11323c1.29283,0.05389 3.87786,0.04047 5.17006,-0.02684l2.97619,-0.14518l0.87701,17.97862l-2.97619,0.14518c-1.68399,0.07787 -5.05269,0.09536 -6.73739,0.03497l-2.9502,-0.11323c-3.16424,-0.12571 -9.47086,-0.64346 -12.61324,-1.0355l-7.6818,-0.96888l-7.6818,0.96888c-3.14238,0.39204 -9.449,0.90978 -12.61324,1.0355l-2.9502,0.11323c-1.68471,0.06039 -5.0534,0.0429 -6.73739,-0.03497l-2.97619,-0.14518z" fill="#09c473"/><path d="M417.43817,738.14889l3.84727,-0.54443c1.83836,-0.25931 5.50351,-0.84982 7.33029,-1.18101l3.81678,-0.69023c3.73665,-0.6749 11.18098,-2.169 14.88867,-2.98821l17.05726,-3.76489l3.87959,17.57694l-17.05726,3.76489c-3.87647,0.85477 -11.65901,2.41676 -15.56509,3.12397l-3.81678,0.69023c-1.9968,0.36026 -6.00251,1.00564 -8.01142,1.29075l-3.84727,0.54443z" fill="#09c473"/><path d="M582.56183,738.14889l-3.84727,-0.54443c-1.83836,-0.25931 -5.50351,-0.84982 -7.33029,-1.18101l-3.81678,-0.69023c-3.73665,-0.6749 -11.18098,-2.169 -14.88867,-2.98821l-17.05726,-3.76489l-3.87959,17.57694l17.05726,3.76489c3.87647,0.85477 11.65901,2.41676 15.56509,3.12397l3.81678,0.69023c1.9968,0.36026 6.00251,1.00564 8.01142,1.29075l3.84727,0.54443z" fill="#09c473"/><path d="M498.4751,727.42484l-4.6021,3.54008l-10.97479,-14.26723l4.6021,-3.54008c0.71985,-0.55367 2.15418,-1.66791 2.86866,-2.22849l0.73132,-0.57372c0.34887,-0.27363 1.04393,-0.82427 1.39012,-1.10128l0.7259,-0.58072l6.7837,8.47962l6.7837,-8.47962l0.7259,0.58072c0.34619,0.27702 1.04125,0.82766 1.39012,1.10128l0.73132,0.57372c0.71448,0.56058 2.14881,1.67482 2.86866,2.22849l4.6021,3.54008l-10.97479,14.26723l-4.6021,-3.54008c-0.38152,-0.29351 -0.95475,-0.7374 -1.5249,-1.18035c-0.57015,0.44295 -1.14338,0.88684 -1.5249,1.18035z" fill="#e11552"/><path d="M521.18612,714.08623l8.49626,-0.61002c4.20381,-0.30167 12.60585,-0.97453 16.80409,-1.34571l8.47035,-0.74858l1.58461,17.93011l-8.47035,0.74858c-4.27211,0.3774 -12.82193,1.06209 -17.09966,1.36938l-2.23583,0.16053l-0.19616,3.54994l-16.96146,-0.93726c-3.03554,-0.16779 -7.15175,-0.41316 -11.57797,-0.68714c-4.42622,0.27398 -8.54243,0.51934 -11.57797,0.68714l-16.96146,0.93726l-0.19616,-3.54994l-2.23583,-0.16053c-4.27772,-0.30729 -12.82755,-0.99197 -17.09966,-1.36938l-8.47035,-0.74858l1.58461,-17.93011l8.47035,0.74858c4.19824,0.37118 12.60029,1.04404 16.80409,1.34571l8.49626,0.61002c5.18044,0.37204 13.54588,0.92002 21.18612,1.39555c7.64024,-0.47553 16.00568,-1.02351 21.18612,-1.39555z" fill="#e11552"/><path d="M491.12606,755.52981l-1.44495,-8.54223c-0.76846,-4.63035 -1.58229,-13.95418 -1.62765,-18.64765l-0.0618,-9.42172c-0.00792,-3.42904 0.49727,-10.24853 1.01037,-13.63897l0.94367,-6.06127l10.05431,1.56534l10.05431,-1.56534l0.94367,6.06127c0.5131,3.39045 1.01829,10.20993 1.01037,13.63897l-0.0618,9.42172c-0.04536,4.69347 -0.85919,14.01729 -1.62765,18.64765l-1.44495,8.54223l-8.87394,-1.50106z" fill="#e11552"/><path d="M365.77695,512.07045l-1.82072,-8.22966c-0.97018,-4.44215 -2.26981,-13.4192 -2.59926,-17.95411l-1.13886,-16.28596c-0.30298,-4.50905 -0.26563,-13.52447 0.07471,-18.03086l0.65331,-8.34785l17.94513,1.4044l-0.65331,8.34785c-0.31298,3.84147 -0.34482,11.52687 -0.06369,15.3708l1.13886,16.28596c0.25852,3.87322 1.36758,11.53396 2.21813,15.32148l1.82072,8.22966z" fill="#a5321f"/><path d="M634.22305,512.07045l1.82072,-8.22966c0.97018,-4.44215 2.26981,-13.4192 2.59926,-17.95411l1.13886,-16.28596c0.30298,-4.50905 0.26563,-13.52447 -0.07471,-18.03086l-0.65331,-8.34785l-17.94513,1.4044l0.65331,8.34785c0.31298,3.84147 0.34482,11.52687 0.06369,15.3708l-1.13886,16.28596c-0.25852,3.87322 -1.36758,11.53396 -2.21813,15.32148l-1.82072,8.22966z" fill="#a5321f"/><path d="M371.20582,424.53105l5.95238,-0.68961c2.94712,-0.34134 8.83666,-1.06252 11.77907,-1.44236l5.94169,-0.76683c5.91349,-0.76309 17.73002,-2.36632 23.63305,-3.20647l14.0179,-1.99485l2.53599,17.82046l-14.0179,1.99485c-5.96102,0.8482 -17.89357,2.46718 -23.8651,3.23795l-5.94169,0.76683c-3.0005,0.38714 -9.00625,1.12255 -12.0115,1.47082l-5.95238,0.68961z" fill="#a5321f"/><path d="M628.79418,424.53105l-5.95238,-0.68961c-2.94712,-0.34134 -8.83666,-1.06252 -11.77907,-1.44236l-5.94169,-0.76683c-5.91349,-0.76309 -17.73002,-2.36632 -23.63305,-3.20647l-14.0179,-1.99485l-2.53599,17.82046l14.0179,1.99485c5.96102,0.8482 17.89357,2.46718 23.8651,3.23795l5.94169,0.76683c3.0005,0.38714 9.00625,1.12255 12.0115,1.47082l5.95238,0.68961z" fill="#a5321f"/><path d="M430.39826,436.36841l5.37166,-1.37921c2.59555,-0.66542 7.75621,-2.10534 10.32133,-2.87984l5.29866,-1.59775c5.21694,-1.5721 15.58039,-4.93341 20.7269,-6.72264l13.3149,-4.62636l5.90778,17.00289l-13.3149,4.62636c-5.32371,1.84874 -16.04276,5.32539 -21.4381,6.95331l-5.29866,1.59775c-2.74463,0.8266 -8.26538,2.36699 -11.04149,3.08078l-5.37166,1.37921z" fill="#a5321f"/><path d="M569.60174,436.36841l-5.37166,-1.37921c-2.59555,-0.66542 -7.75621,-2.10534 -10.32133,-2.87984l-5.29866,-1.59775c-5.21694,-1.5721 -15.58039,-4.93341 -20.7269,-6.72264l-13.3149,-4.62636l-5.90778,17.00289l13.3149,4.62636c5.32371,1.84874 16.04276,5.32539 21.4381,6.95331l5.29866,1.59775c2.74463,0.8266 8.26538,2.36699 11.04149,3.08078l5.37166,1.37921z" fill="#a5321f"/><path d="M491.28286,472.87598l-2.98704,-11.63137c-1.57311,-6.19152 -3.6768,-18.7492 -4.20738,-25.11536l-0.7507,-9.29545c-0.30644,-3.99822 -0.26799,-11.99152 0.07691,-15.98661l0.65331,-7.22271l15.93205,1.44109l15.93205,-1.44109l0.65331,7.22271c0.3449,3.99508 0.38335,11.98839 0.07691,15.98661l-0.7507,9.29545c-0.53058,6.36616 -2.63428,18.92384 -4.20738,25.11536l-2.98704,11.63137l-8.71714,-2.23864z" fill="#a5321f"/><path d="M433.0515,472.48652l0.51432,0.34974l0.44953,0.11536c0.2464,0.13257 0.75684,0.17258 1.02088,0.08001l33.91465,-3.22383l1.70335,17.91922l-33.91465,3.22383c-1.81893,0.10544 -5.41817,-0.17665 -7.19846,-0.56418l-0.90993,-0.23351c-1.26498,-0.39396 -3.66193,-1.47644 -4.7939,-2.16496l-0.90738,-0.61702z" fill="#a5321f"/><path d="M566.9485,472.48652l-0.51432,0.34974l-0.44953,0.11536c-0.2464,0.13257 -0.75684,0.17258 -1.02088,0.08001l-33.91465,-3.22383l-1.70335,17.91922l33.91465,3.22383c1.81893,0.10544 5.41817,-0.17665 7.19846,-0.56418l0.90993,-0.23351c1.26498,-0.39396 3.66193,-1.47644 4.7939,-2.16496l0.90738,-0.61702z" fill="#a5321f"/><path d="M397.62234,461.2516l1.30662,-0.58072c0.7809,-0.34473 2.36097,-0.98943 3.16013,-1.2894l1.33375,-0.49683c1.4686,-0.54478 4.43534,-1.54692 5.93347,-2.00429l40.40852,-12.27601l5.23223,17.22277l-40.40852,12.27601c-1.234,0.37265 -3.6752,1.19727 -4.88241,1.64924l-1.33375,0.49683c-0.54075,0.19915 -1.60722,0.63429 -2.13294,0.87028l-1.30662,0.58072z" fill="#a5321f"/><path d="M602.37766,461.2516l-1.30662,-0.58072c-0.7809,-0.34473 -2.36097,-0.98943 -3.16013,-1.2894l-1.33375,-0.49683c-1.4686,-0.54478 -4.43534,-1.54692 -5.93347,-2.00429l-40.40852,-12.27601l-5.23223,17.22277l40.40852,12.27601c1.234,0.37265 3.6752,1.19727 4.88241,1.64924l1.33375,0.49683c0.54075,0.19915 1.60722,0.63429 2.13294,0.87028l1.30662,0.58072z" fill="#a5321f"/><path d="M460.51103,379.73797c1.50739,-0.15143 3.97817,-1.376 5.21151,-2.10213c0.82555,-1.17771 2.05932,-3.64943 2.48746,-4.98907l-2.22383,23.35024l-17.91892,-1.70656l2.22383,-23.35024c0.47734,-1.81784 2.12332,-5.10763 3.29197,-6.57958l0.07766,-0.07061c1.51189,-0.96543 4.79187,-2.53653 6.55996,-2.53653c0.14518,0 0.29036,0 0.29036,0z" fill="#a5321f"/><path d="M539.48897,379.73797c-1.50739,-0.15143 -3.97817,-1.376 -5.21151,-2.10213c-0.82555,-1.17771 -2.05932,-3.64943 -2.48746,-4.98907l2.22383,23.35024l17.91892,-1.70656l-2.22383,-23.35024c-0.47734,-1.81784 -2.12332,-5.10763 -3.29197,-6.57958l-0.07766,-0.07061c-1.51189,-0.96543 -4.79187,-2.53653 -6.55996,-2.53653c-0.14518,0 -0.29036,0 -0.29036,0z" fill="#a5321f"/><path d="M557.51177,356.67614l-0.14518,0.58072c-0.04663,0.18071 -0.12802,0.54478 -0.16278,0.72814l-0.11557,0.58548c-0.09537,0.47586 -0.25939,1.43218 -0.32803,1.91262l-3.71969,25.50643l-17.81159,-2.59752l3.71969,-25.50643c0.10395,-0.70303 0.34415,-2.10356 0.4804,-2.80105l0.11557,-0.58548c0.08117,-0.4039 0.26089,-1.20781 0.35943,-1.60782l0.14518,-0.58072z" fill="#a5321f"/><path d="M442.48823,356.67614l0.14518,0.58072c0.04663,0.18071 0.12802,0.54478 0.16278,0.72814l0.11557,0.58548c0.09537,0.47586 0.25939,1.43218 0.32803,1.91262l3.71969,25.50643l17.81159,-2.59752l-3.71969,-25.50643c-0.10395,-0.70303 -0.34415,-2.10356 -0.4804,-2.80105l-0.11557,-0.58548c-0.08117,-0.4039 -0.26089,-1.20781 -0.35943,-1.60782l-0.14518,-0.58072z" fill="#a5321f"/><path d="M328.10685,414.59669h-2.46806c-0.16429,-0.129 -0.41473,-0.06771 -0.50088,0.12258l-1.5868,0.82618c-1.10618,0.4305 -2.78334,1.90165 -3.35433,2.94229l-6.7842,9.69171l-14.74617,-10.32232l6.7842,-9.69171c2.00926,-2.64542 6.90322,-6.93821 9.78792,-8.58558l1.5868,-0.82618c2.10297,-0.94949 6.5097,-2.02797 8.81347,-2.15697h2.46806z" fill="#a5321f"/><path d="M671.89315,414.59669h2.46806c0.16429,-0.129 0.41473,-0.06771 0.50088,0.12258l1.5868,0.82618c1.10618,0.4305 2.78334,1.90165 3.35433,2.94229l6.7842,9.69171l14.74617,-10.32232l-6.7842,-9.69171c-2.00926,-2.64542 -6.90322,-6.93821 -9.78792,-8.58558l-1.5868,-0.82618c-2.10297,-0.94949 -6.5097,-2.02797 -8.81347,-2.15697h-2.46806z" fill="#a5321f"/><path d="M342.58835,496.11263l0.94367,3.41173c0.44622,1.61684 1.40665,4.83019 1.92086,6.4267l1.08108,3.36308c1.05332,3.27984 3.29588,9.79273 4.48511,13.02577l7.60269,20.68638l-16.8951,6.20931l-7.60269,-20.68638c-1.25135,-3.4076 -3.61454,-10.27085 -4.72638,-13.72649l-1.08108,-3.36308c-0.5691,-1.77348 -1.63564,-5.34186 -2.13309,-7.13675l-0.94367,-3.41173z" fill="#a5321f"/><path d="M657.41165,496.11263l-0.94367,3.41173c-0.44622,1.61684 -1.40665,4.83019 -1.92086,6.4267l-1.08108,3.36308c-1.05332,3.27984 -3.29588,9.79273 -4.48511,13.02577l-7.60269,20.68638l16.8951,6.20931l7.60269,-20.68638c1.25135,-3.4076 3.61454,-10.27085 4.72638,-13.72649l1.08108,-3.36308c0.5691,-1.77348 1.63564,-5.34186 2.13309,-7.13675l0.94367,-3.41173z" fill="#a5321f"/><path d="M377.93495,562.92489l-8.7108,-2.44991c-5.06637,-1.49146 -14.49192,-5.96452 -18.85111,-8.94613l-12.42751,-8.7233c-4.64074,-3.33576 -12.65837,-11.2824 -16.03526,-15.89328l-5.76928,-8.06561l14.64022,-10.47206l5.76928,8.06561c2.39239,3.45472 8.26063,9.27101 11.73649,11.63258l12.42751,8.7233c3.04711,2.21713 9.73865,5.39272 13.38309,6.35118l8.7108,2.44991z" fill="#a5321f"/><path d="M622.06505,562.92489l8.7108,-2.44991c5.06637,-1.49146 14.49192,-5.96452 18.85111,-8.94613l12.42751,-8.7233c4.64074,-3.33576 12.65837,-11.2824 16.03526,-15.89328l5.76928,-8.06561l-14.64022,-10.47206l-5.76928,8.06561c-2.39239,3.45472 -8.26063,9.27101 -11.73649,11.63258l-12.42751,8.7233c-3.04711,2.21713 -9.73865,5.39272 -13.38309,6.35118l-8.7108,2.44991z" fill="#a5321f"/><path d="M365.98813,381.96193c0,0 0.3811,-1.19774 0.7622,-2.39547c0.72559,-2.28043 3.37675,-6.21406 5.02446,-7.95567l1.26535,-1.18412c2.5817,-2.21629 8.42903,-5.38796 11.69466,-6.34335l22.51823,-5.55244l4.30929,17.47656l-22.51823,5.55244c-1.12915,0.12826 -2.98159,1.13305 -3.70487,2.00957l-1.26535,1.18412c-0.18776,-0.02397 -0.13427,0.15551 -0.17087,0.27055c-0.3811,1.19774 -0.7622,2.39547 -0.7622,2.39547z" fill="#a5321f"/><path d="M634.01187,381.96193c0,0 -0.3811,-1.19774 -0.7622,-2.39547c-0.72559,-2.28043 -3.37675,-6.21406 -5.02446,-7.95567l-1.26535,-1.18412c-2.5817,-2.21629 -8.42903,-5.38796 -11.69466,-6.34335l-22.51823,-5.55244l-4.30929,17.47656l22.51823,5.55244c1.12915,0.12826 2.98159,1.13305 3.70487,2.00957l1.26535,1.18412c0.18776,-0.02397 0.13427,0.15551 0.17087,0.27055c0.3811,1.19774 0.7622,2.39547 0.7622,2.39547z" fill="#a5321f"/><path d="M410.93155,313.5318l11.72017,-4.33457c6.51871,-2.35529 19.95731,-5.10578 26.87719,-5.50098l12.9946,-0.64412c5.20843,-0.20598 15.47347,0.85328 20.53009,2.11853l8.76524,2.28659l-4.54359,17.41711l-8.76524,-2.28659c-3.70863,-1.02134 -11.25631,-1.80019 -15.09536,-1.55771l-12.9946,0.64412c-5.56083,0.22345 -16.32311,2.42618 -21.52457,4.40545l-11.72017,4.33457z" fill="#a5321f"/><path d="M589.06845,313.5318l-11.72017,-4.33457c-6.51871,-2.35529 -19.95731,-5.10578 -26.87719,-5.50098l-12.9946,-0.64412c-5.20843,-0.20598 -15.47347,0.85328 -20.53009,2.11853l-8.76524,2.28659l4.54359,17.41711l8.76524,-2.28659c3.70863,-1.02134 11.25631,-1.80019 15.09536,-1.55771l12.9946,0.64412c5.56083,0.22345 16.32311,2.42618 21.52457,4.40545l11.72017,4.33457z" fill="#a5321f"/><path d="M560.11453,303.10965l3.04878,1.16144c1.81029,0.70108 5.32761,2.32667 7.03464,3.25119l2.79442,1.5334c3.10542,1.71626 9.06363,5.5422 11.91643,7.65188l14.54096,10.82118l-10.74619,14.4402l-14.54096,-10.82118c-2.34261,-1.75667 -7.25736,-4.91257 -9.82949,-6.3118l-2.79442,-1.5334c-1.15316,-0.64498 -3.54481,-1.75033 -4.7833,-2.21069l-3.04878,-1.16144z" fill="#a5321f"/><path d="M439.88547,303.10965l-3.04878,1.16144c-1.81029,0.70108 -5.32761,2.32667 -7.03464,3.25119l-2.79442,1.5334c-3.10542,1.71626 -9.06363,5.5422 -11.91643,7.65188l-14.54096,10.82118l10.74619,14.4402l14.54096,-10.82118c2.34261,-1.75667 7.25736,-4.91257 9.82949,-6.3118l2.79442,-1.5334c1.15316,-0.64498 3.54481,-1.75033 4.7833,-2.21069l3.04878,-1.16144z" fill="#a5321f"/><path d="M676.70355,359.13089l0.58072,1.37921c0.35528,0.85261 1.00483,2.58076 1.2991,3.4563l0.46804,1.40981c0.5224,1.58442 1.44882,4.7875 1.85283,6.40616l5.53266,22.36118l-17.47311,4.32324l-5.53266,-22.36118c-0.31311,-1.27973 -1.04457,-3.80874 -1.46292,-5.05803l-0.46804,-1.40981c-0.17723,-0.54472 -0.57991,-1.61604 -0.80535,-2.14264l-0.58072,-1.37921z" fill="#a5321f"/><path d="M323.29645,359.13089l-0.58072,1.37921c-0.35528,0.85261 -1.00483,2.58076 -1.2991,3.4563l-0.46804,1.40981c-0.5224,1.58442 -1.44882,4.7875 -1.85283,6.40616l-5.53266,22.36118l17.47311,4.32324l5.53266,-22.36118c0.31311,-1.27973 1.04457,-3.80874 1.46292,-5.05803l0.46804,-1.40981c0.17723,-0.54472 0.57991,-1.61604 0.80535,-2.14264l0.58072,-1.37921z" fill="#a5321f"/><path d="M469.7475,643.07344c-7.65849,3.68281 -20.81607,13.84447 -26.31517,20.32332l-4.70568,5.42812c-3.06024,3.39456 -7.37329,11.18708 -8.79482,15.52983c-1.44961,4.42855 -2.77412,13.4656 -2.51309,18.11859l0.75554,18.5555c0.05855,3.19565 1.48662,9.28186 2.72428,12.22783c1.32083,3.14392 4.68743,8.99183 6.80346,11.66629l1.82633,2.36207c2.74493,3.71613 9.61934,9.5039 13.74882,11.57554l8.26447,4.37597c0.58528,0.32726 1.81625,0.83741 2.45223,1.0494c0.98823,0.32941 8.39241,2.79747 9.38065,3.12688c3.70209,1.23403 7.40418,2.46806 7.40418,2.46806l-5.6921,17.0763c0,0 -3.70209,-1.23403 -7.40418,-2.46806c-0.98823,-0.32941 -8.39241,-2.79747 -9.38065,-3.12688c-1.34048,-0.44683 -3.92718,-1.57041 -5.1831,-2.21804l-8.26447,-4.37597c-5.71451,-3.14067 -15.49741,-11.37719 -19.5658,-16.47303l-1.82633,-2.36207c-2.7706,-3.64564 -7.38496,-11.48316 -9.15847,-15.70455c-1.85667,-4.41936 -3.84795,-13.68077 -4.11442,-18.46742l-0.75554,-18.5555c-0.18314,-6.25564 1.44457,-18.50316 3.39135,-24.45055c1.97487,-6.03319 8.20966,-16.86598 12.30088,-21.72081l4.70568,-5.42812c6.79834,-7.70655 22.77143,-20.04264 31.94617,-24.67217c2.47456,-1.22195 22.0586,-10.89266 33.31412,-16.45071l1.9244,-3.89707c0,0 1.11677,0.55147 2.98376,1.4734c1.86699,-0.92193 2.98376,-1.4734 2.98376,-1.4734l1.9244,3.89707c11.25552,5.55804 30.83956,15.22876 33.31412,16.45071c9.17474,4.62953 25.14783,16.96562 31.94617,24.67217l4.70568,5.42812c4.09122,4.85482 10.32602,15.68762 12.30088,21.72081c1.94678,5.94739 3.57449,18.19491 3.39135,24.45055l-0.75554,18.5555c-0.26648,4.78665 -2.25776,14.04806 -4.11442,18.46742c-1.7735,4.22139 -6.38786,12.05891 -9.15847,15.70455l-1.82633,2.36207c-4.06839,5.09584 -13.85129,13.33236 -19.5658,16.47303l-8.26447,4.37597c-1.25592,0.64764 -3.84262,1.77122 -5.1831,2.21804c-0.98823,0.32941 -8.39241,2.79747 -9.38065,3.12688c-3.70209,1.23403 -7.40418,2.46806 -7.40418,2.46806l-5.6921,-17.0763c0,0 3.70209,-1.23403 7.40418,-2.46806c0.98823,-0.32941 8.39241,-2.79747 9.38065,-3.12688c0.63598,-0.21199 1.86695,-0.72214 2.45223,-1.0494l8.26447,-4.37597c4.12948,-2.07164 11.00389,-7.85941 13.74882,-11.57554l1.82633,-2.36207c2.11603,-2.67446 5.48263,-8.52236 6.80346,-11.66629c1.23766,-2.94596 2.66574,-9.03217 2.72428,-12.22783l0.75554,-18.5555c0.26103,-4.653 -1.06348,-13.69005 -2.51309,-18.11859c-1.42153,-4.34275 -5.73458,-12.13527 -8.79482,-15.52983l-4.70568,-5.42812c-5.4991,-6.47885 -18.65668,-16.64051 -26.31517,-20.32332c-2.26246,-1.11722 -18.82724,-9.297 -30.2525,-14.93886c-11.42527,5.64186 -27.99004,13.82165 -30.2525,14.93886z" fill="#ffcc70"/><path d="M531.08882,628.76796c-4.42873,-1.16393 -9.89133,-4.4059 -12.59186,-7.70593c-2.70053,-3.30003 -4.7977,-9.29604 -5.06245,-13.86751l0.87956,-25.85627c0.43062,-9.87722 4.98075,-28.44085 9.23494,-38.04702c0.08215,-0.2063 0.17249,-0.4111 0.27114,-0.61401l0.18114,-0.3726c0.08392,-0.17261 0.17262,-0.34132 0.26588,-0.50607c4.79046,-9.11321 16.38428,-24.03709 23.87081,-30.33987c7.68075,-6.4663 25.02436,-15.89819 34.57473,-18.9974l17.68378,-5.56907c0.90063,-0.19207 2.72993,-0.47609 3.64299,-0.39409c1.29711,0.1165 3.70169,1.25153 4.84176,1.90692l16.01336,12.44875c6.13828,5.00279 15.2513,17.35114 17.88215,24.81786c2.39256,6.79041 5.42607,20.76838 6.13084,27.93346l0.51244,5.47362c0.58094,9.5497 -4.56337,26.91865 -10.12823,34.97876c0.12518,-0.14061 0.2468,-0.286 0.36459,-0.43615l-0.6265,0.79859c-0.28087,0.35802 -0.58344,0.68898 -0.90438,0.9925c-6.44955,7.04425 -19.27594,16.55661 -27.13833,19.95786l-21.93597,9.07885c-4.87017,2.00009 -14.86031,5.22682 -19.9803,6.45346l-7.49822,1.77476c-1.35145,0.30509 -4.08258,0.73912 -5.46434,0.83935c-1.82209,0.13217 -5.42774,-0.32466 -7.2009,-0.77029l-3.17473,-0.93199c-2.38521,-0.70871 -7.22617,-1.81846 -9.68192,-2.21948zM539.00998,611.83987c2.98715,0.50612 8.88364,1.85783 11.79297,2.70342l3.17473,0.93199c0.19532,0.13225 0.6043,0.10487 0.82837,0.08861c0.66441,-0.0482 1.97582,-0.23512 2.62075,-0.40256l7.49822,-1.77476c4.42671,-1.03297 13.04802,-3.81758 17.24262,-5.56921l21.93597,-9.07885c6.34792,-2.47147 16.71474,-10.30832 21.16262,-15.94292c4.17519,-5.12604 7.13321,-15.77833 6.23216,-22.03902l-0.51244,-5.47362c-0.53472,-6.07459 -3.15974,-17.87811 -5.18621,-23.62953c-1.78818,-5.07511 -7.5926,-13.43001 -11.95271,-16.58865l-12.39282,-9.63415l-13.33464,4.19941c-7.91981,2.40258 -22.05803,10.26868 -28.38894,15.59856c-6.17984,5.2027 -15.85035,17.4073 -19.52499,24.91298c-0.00533,0.01108 -0.01069,0.02216 -0.01607,0.03323c-0.02427,0.04988 -0.08954,0.18442 -0.114,0.23554c-0.01416,0.02867 -0.02626,0.05326 -0.03849,0.07826c-3.71454,7.6589 -7.54884,23.18561 -7.73341,31.46161l-0.87956,25.85627c-0.44572,0.7484 -0.0986,0.5098 1.00304,1.85599c1.10163,1.34619 0.79908,1.63925 1.62087,1.3504z" fill="#ffcc70"/><path d="M468.91118,628.76796c4.42873,-1.16393 9.89133,-4.4059 12.59186,-7.70593c2.70053,-3.30003 4.7977,-9.29604 5.06245,-13.86751l-0.87956,-25.85627c-0.43062,-9.87722 -4.98075,-28.44085 -9.23494,-38.04702c-0.08215,-0.2063 -0.17249,-0.4111 -0.27114,-0.61401l-0.18114,-0.3726c-0.08392,-0.17261 -0.17262,-0.34132 -0.26588,-0.50607c-4.79046,-9.11321 -16.38428,-24.03709 -23.87081,-30.33987c-7.68075,-6.4663 -25.02436,-15.89819 -34.57473,-18.9974l-17.68378,-5.56907c-0.90063,-0.19207 -2.72993,-0.47609 -3.64299,-0.39409c-1.29711,0.1165 -3.70169,1.25153 -4.84176,1.90692l-16.01336,12.44875c-6.13828,5.00279 -15.2513,17.35114 -17.88215,24.81786c-2.39256,6.79041 -5.42607,20.76838 -6.13084,27.93346l-0.51244,5.47362c-0.58094,9.5497 4.56337,26.91865 10.12823,34.97876c-0.12518,-0.14061 -0.2468,-0.286 -0.36459,-0.43615l0.6265,0.79859c0.28087,0.35802 0.58344,0.68898 0.90438,0.9925c6.44955,7.04425 19.27594,16.55661 27.13833,19.95786l21.93597,9.07885c4.87017,2.00009 14.86031,5.22682 19.9803,6.45346l7.49822,1.77476c1.35145,0.30509 4.08258,0.73912 5.46434,0.83935c1.82209,0.13217 5.42774,-0.32466 7.2009,-0.77029l3.17473,-0.93199c2.38521,-0.70871 7.22617,-1.81846 9.68192,-2.21948zM460.99002,611.83987c-2.98715,0.50612 -8.88364,1.85783 -11.79297,2.70342l-3.17473,0.93199c-0.19532,0.13225 -0.6043,0.10487 -0.82837,0.08861c-0.66441,-0.0482 -1.97582,-0.23512 -2.62075,-0.40256l-7.49822,-1.77476c-4.42671,-1.03297 -13.04802,-3.81758 -17.24262,-5.56921l-21.93597,-9.07885c-6.34792,-2.47147 -16.71474,-10.30832 -21.16262,-15.94292c-4.17519,-5.12604 -7.13321,-15.77833 -6.23216,-22.03902l0.51244,-5.47362c0.53472,-6.07459 3.15974,-17.87811 5.18621,-23.62953c1.78818,-5.07511 7.5926,-13.43001 11.95271,-16.58865l12.39282,-9.63415l13.33464,4.19941c7.91981,2.40258 22.05803,10.26868 28.38894,15.59856c6.17984,5.2027 15.85035,17.4073 19.52499,24.91298c0.00533,0.01108 0.01069,0.02216 0.01607,0.03323c0.02427,0.04988 0.08954,0.18442 0.114,0.23554c0.01416,0.02867 0.02626,0.05326 0.03849,0.07826c3.71454,7.6589 7.54884,23.18561 7.73341,31.46161l0.87956,25.85627c0.44572,0.7484 0.0986,0.5098 -1.00304,1.85599c-1.10163,1.34619 -0.79908,1.63925 -1.62087,1.3504z" fill="#ffcc70"/><path d="M398.3881,669.24967l4.84207,-18.17576c2.56271,-9.52759 9.53521,-27.88105 13.945,-36.70693l0.30574,-0.60827c4.64505,-9.18832 15.67447,-26.45384 22.05885,-34.53105l28.06761,-35.34216c2.35752,-2.91949 6.27946,-9.24983 7.84388,-12.66069l2.58994,-5.52772c0.30344,-0.57573 0.67958,-1.80034 0.81201,-2.4368c0.10828,-0.52037 0.21774,-1.54804 0.1289,-2.07409l-0.27442,-3.37997c0.01594,-0.3719 -0.18656,-1.05557 -0.31917,-1.40034c-0.36295,-0.94367 -0.7259,-1.88734 -0.7259,-1.88734l16.80022,-6.46162c0,0 0.36295,0.94367 0.7259,1.88734c0.5933,1.54257 1.28033,4.76174 1.45991,6.40533l0.27442,3.37997c0.10103,1.81262 -0.0776,5.42076 -0.44731,7.19755c-0.34555,1.6607 -1.4429,4.85795 -2.13496,6.40693l-2.58994,5.52772c-2.06354,4.33233 -7.08746,12.44135 -10.04783,16.21804l-28.06761,35.34216c-5.84767,7.32514 -15.88362,23.03547 -20.07189,31.42066l-0.30574,0.60827c-4.03776,7.98015 -10.35488,24.60848 -12.63423,33.25665l-4.84207,18.17576z" fill="#ffcc70"/><path d="M601.6119,669.24967l-4.84207,-18.17576c-2.56271,-9.52759 -9.53521,-27.88105 -13.945,-36.70693l-0.30574,-0.60827c-4.64505,-9.18832 -15.67447,-26.45384 -22.05885,-34.53105l-28.06761,-35.34216c-2.35752,-2.91949 -6.27946,-9.24983 -7.84388,-12.66069l-2.58994,-5.52772c-0.30344,-0.57573 -0.67958,-1.80034 -0.81201,-2.4368c-0.10828,-0.52037 -0.21774,-1.54804 -0.1289,-2.07409l0.27442,-3.37997c-0.01594,-0.3719 0.18656,-1.05557 0.31917,-1.40034c0.36295,-0.94367 0.7259,-1.88734 0.7259,-1.88734l-16.80022,-6.46162c0,0 -0.36295,0.94367 -0.7259,1.88734c-0.5933,1.54257 -1.28033,4.76174 -1.45991,6.40533l-0.27442,3.37997c-0.10103,1.81262 0.0776,5.42076 0.44731,7.19755c0.34555,1.6607 1.4429,4.85795 2.13496,6.40693l2.58994,5.52772c2.06354,4.33233 7.08746,12.44135 10.04783,16.21804l28.06761,35.34216c5.84767,7.32514 15.88362,23.03547 20.07189,31.42066l0.30574,0.60827c4.03776,7.98015 10.35488,24.60848 12.63423,33.25665l4.84207,18.17576z" fill="#ffcc70"/><path d="M512.12683,601.84486l4.17393,9.03746l-16.23815,7.49955l-0.02201,0.04766l-0.04059,-0.01875l-0.04059,0.01875l-0.02201,-0.04766l-16.23815,-7.49955l4.17393,-9.03746c0.90016,-1.89666 1.93988,-4.79927 2.84099,-7.77739c-0.58254,-2.26504 -1.0449,-4.35825 -1.3041,-6.00206l-1.32767,-8.88637c-1.47379,-10.17166 -1.59864,-30.5323 -0.24969,-40.72127l3.25046,-23.7449l8.91684,1.22063l8.91684,-1.22063l3.25046,23.7449c1.34895,10.18897 1.2241,30.54961 -0.24969,40.72127l-1.32767,8.88637c-0.2592,1.64381 -0.72156,3.73702 -1.3041,6.00206c0.90111,2.97811 1.94083,5.88072 2.84099,7.77739z" fill="#ffcc70"/><path d="M605.28767,621.27568c0,0 0.98307,1.0484 1.96613,2.09681l3.15385,3.36347c3.25244,3.69898 7.74454,12.16495 8.98419,16.93193l1.09732,4.85196c1.58034,7.70202 0.92469,22.94186 -1.3113,30.47969l-11.49284,36.07586c-1.54389,4.80359 -5.31702,14.1336 -7.54626,18.66003l-3.32629,6.71046c-0.57905,1.13902 -1.87092,3.33873 -2.60494,4.38455c-0.65006,0.92619 -2.03163,2.71666 -2.75622,3.5858l-4.31405,5.13549c-1.05312,1.24707 -3.25743,3.65131 -4.40861,4.80848l-2.03252,2.03252l-12.72792,-12.72792l2.03252,-2.03252c0.88134,-0.87536 2.55841,-2.70454 3.35415,-3.65838l4.31405,-5.13549c0.48016,-0.56501 1.37936,-1.74179 1.80533,-2.3487c0.34201,-0.48728 0.95801,-1.49883 1.2108,-2.03798l3.32629,-6.71046c1.9494,-3.90354 5.21087,-11.96837 6.52296,-16.12965l11.49284,-36.07586c1.81966,-5.19278 2.27237,-15.71544 0.90541,-21.04532l-1.09732,-4.85196c-0.41151,-2.53388 -2.69056,-6.82905 -4.55809,-8.59035c-0.98307,-1.0484 -5.11998,-5.46028 -5.11998,-5.46028z" fill="#ffcc70"/><path d="M394.71233,621.27568c0,0 -0.98307,1.0484 -1.96613,2.09681l-3.15385,3.36347c-3.25244,3.69898 -7.74454,12.16495 -8.98419,16.93193l-1.09732,4.85196c-1.58034,7.70202 -0.92469,22.94186 1.3113,30.47969l11.49284,36.07586c1.54389,4.80359 5.31702,14.1336 7.54626,18.66003l3.32629,6.71046c0.57905,1.13902 1.87092,3.33873 2.60494,4.38455c0.65006,0.92619 2.03163,2.71666 2.75622,3.5858l4.31405,5.13549c1.05312,1.24707 3.25743,3.65131 4.40861,4.80848l2.03252,2.03252l12.72792,-12.72792l-2.03252,-2.03252c-0.88134,-0.87536 -2.55841,-2.70454 -3.35415,-3.65838l-4.31405,-5.13549c-0.48016,-0.56501 -1.37936,-1.74179 -1.80533,-2.3487c-0.34201,-0.48728 -0.95801,-1.49883 -1.2108,-2.03798l-3.32629,-6.71046c-1.9494,-3.90354 -5.21087,-11.96837 -6.52296,-16.12965l-11.49284,-36.07586c-1.81966,-5.19278 -2.27237,-15.71544 -0.90541,-21.04532l1.09732,-4.85196c0.41151,-2.53388 2.69056,-6.82905 4.55809,-8.59035c0.98307,-1.0484 5.11998,-5.46028 5.11998,-5.46028z" fill="#ffcc70"/><path d="M523.92444,462.81084c0,0 0.52275,-0.02709 1.0455,-0.05418l34.88471,-1.80793c10.19038,-0.40385 29.74664,3.22803 39.11253,7.26376l3.88197,1.72904c6.89268,3.20588 18.76322,12.16101 23.54823,18.06652c4.63815,5.72425 11.52194,18.52159 13.88358,25.50067l1.64766,5.03664c3.13131,9.81203 5.83638,29.91479 5.41014,40.20553l-0.90028,18.49276c-0.32449,6.07668 -2.27011,18.01879 -3.89123,23.88422l-1.73101,6.15016c-0.79414,2.71587 -2.91985,7.92844 -4.25143,10.42514l-1.24635,2.28103c-0.779,1.35745 -2.59062,3.891 -3.62322,5.0671l-0.65733,0.71783c-0.74351,0.76348 -2.33701,2.17229 -3.22331,2.76315c-0.43554,0.29036 -0.87108,0.58072 -0.87108,0.58072l-9.9846,-14.97691c0,0 0.41119,-0.27413 0.83404,-0.55603l0.62727,-0.685c0.34916,-0.33283 0.90035,-1.10368 1.1024,-1.54171l1.24635,-2.28103c0.89582,-1.5798 2.25607,-4.91533 2.72049,-6.67105l1.73101,-6.15016c1.40164,-4.87426 3.02129,-14.81563 3.23931,-19.88273l0.90028,-18.49276c0.49598,-8.65287 -1.77365,-25.51972 -4.53928,-33.73371l-1.64766,-5.03664c-1.71215,-5.47389 -7.1507,-15.30961 -10.76109,-19.76544c-3.46353,-4.27458 -11.81037,-10.83049 -16.88653,-12.95557l-3.88197,-1.72904c-7.34739,-3.40841 -22.77601,-6.27373 -30.85725,-5.73064l-34.88471,1.80793c-0.52275,0.02709 -1.0455,0.05418 -1.0455,0.05418z" fill="#ffcc70"/><path d="M476.07556,462.81084c0,0 -0.52275,-0.02709 -1.0455,-0.05418l-34.88471,-1.80793c-10.19038,-0.40385 -29.74664,3.22803 -39.11253,7.26376l-3.88197,1.72904c-6.89268,3.20588 -18.76322,12.16101 -23.54823,18.06652c-4.63815,5.72425 -11.52194,18.52159 -13.88358,25.50067l-1.64766,5.03664c-3.13131,9.81203 -5.83638,29.91479 -5.41014,40.20553l0.90028,18.49276c0.32449,6.07668 2.27011,18.01879 3.89123,23.88422l1.73101,6.15016c0.79414,2.71587 2.91985,7.92844 4.25143,10.42514l1.24635,2.28103c0.779,1.35745 2.59062,3.891 3.62322,5.0671l0.65733,0.71783c0.74351,0.76348 2.33701,2.17229 3.22331,2.76315c0.43554,0.29036 0.87108,0.58072 0.87108,0.58072l9.9846,-14.97691c0,0 -0.41119,-0.27413 -0.83404,-0.55603l-0.62727,-0.685c-0.34916,-0.33283 -0.90035,-1.10368 -1.1024,-1.54171l-1.24635,-2.28103c-0.89582,-1.5798 -2.25607,-4.91533 -2.72049,-6.67105l-1.73101,-6.15016c-1.40164,-4.87426 -3.02129,-14.81563 -3.23931,-19.88273l-0.90028,-18.49276c-0.49598,-8.65287 1.77365,-25.51972 4.53928,-33.73371l1.64766,-5.03664c1.71215,-5.47389 7.1507,-15.30961 10.76109,-19.76544c3.46353,-4.27458 11.81037,-10.83049 16.88653,-12.95557l3.88197,-1.72904c7.34739,-3.40841 22.77601,-6.27373 30.85725,-5.73064l34.88471,1.80793c0.52275,0.02709 1.0455,0.05418 1.0455,0.05418z" fill="#ffcc70"/><path d="M528.66771,380.55134c0,0 3.69547,0.82219 7.39095,1.64439l19.69611,4.38212c9.56342,2.21211 26.84708,9.73728 35.76242,15.48638c0.2289,0.1321 0.45397,0.27534 0.6745,0.42986c0.05298,0.03779 0.10619,0.07592 0.15962,0.1144c-0.05267,-0.03861 -0.10587,-0.07674 -0.15962,-0.1144l0.53485,0.37474c0.22054,0.15452 0.43203,0.31714 0.63435,0.48717c8.44792,6.41623 21.42277,20.09127 26.76761,28.32444l12.00134,18.83089c5.32312,8.46212 12.98634,26.32626 15.72185,36.53208c0.05034,0.16556 0.09625,0.33354 0.13757,0.50383l0.10836,0.44658c0.04132,0.1703 0.0775,0.34064 0.10863,0.51086c2.24587,10.32463 3.62169,29.7143 2.76857,39.67499l-2.07588,22.6629c-0.58991,6.32418 -2.60194,18.79645 -4.04092,25.06626c-0.00556,0.02479 -0.01123,0.04959 -0.01701,0.07438c-0.00105,0.00442 -0.00211,0.00885 -0.00316,0.01327c-0.00002,0.00007 -0.00003,0.00014 -0.00005,0.00021c0.00001,-0.00006 0.00003,-0.00011 0.00004,-0.00017c-0.0075,0.03145 -0.01507,0.06303 -0.02271,0.09476c0.00668,-0.02718 0.01325,-0.05442 0.01969,-0.08171c-0.00165,0.00713 -0.00329,0.01424 -0.00494,0.02135c0.00185,-0.00795 0.0037,-0.01591 0.00553,-0.02386c0.00187,-0.00794 0.00374,-0.01589 0.00559,-0.02385l-0.01112,0.04771c-0.01298,0.05567 -0.02644,0.1111 -0.04039,0.16629c-1.57956,6.49378 -5.99554,18.64957 -8.91205,24.50852l-4.85252,9.6321c-0.43072,0.84246 -1.35992,2.4892 -1.86789,3.28744c-0.38716,0.60839 -1.16147,1.82516 -1.54862,2.43355c-2.03252,3.19396 -7.35577,11.55907 -7.35577,11.55907l-15.18591,-9.66376c0,0 2.03252,-3.19396 4.06504,-6.38792c0.38716,-0.60839 4.4522,-6.99631 4.83935,-7.6047c0.26634,-0.41854 0.76035,-1.2766 0.97853,-1.72218l4.85252,-9.6321c2.50327,-4.89898 6.21393,-15.11578 7.47569,-20.56598c0.0071,-0.03201 0.01438,-0.06402 0.02184,-0.09603c0.00173,-0.00735 0.00345,-0.0147 0.00518,-0.02207c-0.00423,0.01837 -0.00839,0.03675 -0.0125,0.05512c0.00524,-0.02283 0.01044,-0.04557 0.01559,-0.06823c-0.00051,0.00215 -0.00102,0.00429 -0.00152,0.00644c0.00067,-0.00288 0.00135,-0.00576 0.00203,-0.00864c0.00078,-0.00344 0.00157,-0.00689 0.00235,-0.01033c0.00328,-0.01405 0.00658,-0.02809 0.00992,-0.04212c1.31942,-5.65164 3.13986,-16.93403 3.65323,-22.65472l2.07588,-22.6629c0.85001,-8.62533 -0.36053,-25.49487 -2.42845,-34.23379c-0.00549,-0.02193 -0.01091,-0.0439 -0.01625,-0.0659l-0.10836,-0.44658c-0.00534,-0.02201 -0.01059,-0.04401 -0.01576,-0.06602c-2.16696,-8.71488 -8.82213,-24.26337 -13.53051,-31.54005l-12.00134,-18.83089c-4.3932,-7.04956 -15.45956,-18.67464 -22.53043,-23.7294c-0.00695,-0.00484 -0.01389,-0.00969 -0.02083,-0.01455l-0.53485,-0.37474c-0.00694,-0.00486 -0.01387,-0.00973 -0.02079,-0.01461c-7.16547,-4.91973 -21.8707,-11.35117 -29.99669,-13.07301l-19.69611,-4.38212c-3.69547,-0.82219 -7.39095,-1.64439 -7.39095,-1.64439zM581.98223,417.31795c-0.03986,-0.02759 -0.07958,-0.05496 -0.11916,-0.0821c0.03958,0.02773 0.0793,0.05509 0.11916,0.0821zM592.72655,402.86882c-0.05374,-0.03765 -0.10776,-0.07464 -0.16203,-0.11096c0.05441,0.03708 0.10842,0.07406 0.16203,0.11096zM647.98927,487.54724c0.01015,0.04292 0.02028,0.08604 0.03039,0.12934c-0.0098,-0.04311 -0.01993,-0.08623 -0.03039,-0.12934zM630.60516,492.23809c-0.00782,-0.03324 -0.01572,-0.06659 -0.02369,-0.10006c0.0077,0.03335 0.01559,0.06671 0.02369,0.10006zM582.28008,417.52663c0.03899,0.02825 0.07828,0.05623 0.11785,0.08396c-0.03902,-0.02793 -0.0783,-0.05592 -0.11785,-0.08396zM648.06537,487.86494c0.01085,0.04312 0.02161,0.08608 0.03226,0.12888c-0.01046,-0.04311 -0.02121,-0.08607 -0.03226,-0.12888zM630.49681,491.79151c0.00809,0.03335 0.01636,0.06661 0.0248,0.09978c-0.00825,-0.03339 -0.01652,-0.06665 -0.0248,-0.09978zM644.8378,575.99669c-0.00099,0.0043 -0.00198,0.00859 -0.00297,0.01288c0.0002,-0.00084 0.0004,-0.00167 0.00059,-0.00251c0.0008,-0.00346 0.00159,-0.00691 0.00238,-0.01037zM627.30647,571.91647c-0.00039,0.00163 -0.00077,0.00326 -0.00116,0.0049c-0.00014,0.00059 -0.00027,0.00118 -0.00041,0.00178c0.00052,-0.00222 0.00104,-0.00445 0.00157,-0.00667zM627.30531,571.92137c-0.00187,0.00794 -0.00374,0.01589 -0.00559,0.02385l0.01112,-0.04771c-0.00185,0.00795 -0.0037,0.01591 -0.00553,0.02386z" fill="#ffcc70"/><path d="M471.33229,380.55134c0,0 -3.69547,0.82219 -7.39095,1.64439l-19.69611,4.38212c-9.56342,2.21211 -26.84708,9.73728 -35.76242,15.48638c-0.2289,0.1321 -0.45397,0.27534 -0.6745,0.42986c-0.05298,0.03779 -0.10619,0.07592 -0.15962,0.1144c0.05267,-0.03861 0.10587,-0.07674 0.15962,-0.1144l-0.53485,0.37474c-0.22054,0.15452 -0.43203,0.31714 -0.63435,0.48717c-8.44792,6.41623 -21.42277,20.09127 -26.76761,28.32444l-12.00134,18.83089c-5.32312,8.46212 -12.98634,26.32626 -15.72185,36.53208c-0.05034,0.16556 -0.09625,0.33354 -0.13757,0.50383l-0.10836,0.44658c-0.04132,0.1703 -0.0775,0.34064 -0.10863,0.51086c-2.24587,10.32463 -3.62169,29.7143 -2.76857,39.67499l2.07588,22.6629c0.58991,6.32418 2.60194,18.79645 4.04092,25.06626c0.00556,0.02479 0.01123,0.04959 0.01701,0.07438c0.00105,0.00442 0.00211,0.00885 0.00316,0.01327c0.00002,0.00007 0.00003,0.00014 0.00005,0.00021c-0.00001,-0.00006 -0.00003,-0.00011 -0.00004,-0.00017c0.0075,0.03145 0.01507,0.06303 0.02271,0.09476c-0.00668,-0.02718 -0.01325,-0.05442 -0.01969,-0.08171c0.00165,0.00713 0.00329,0.01424 0.00494,0.02135c-0.00185,-0.00795 -0.0037,-0.01591 -0.00553,-0.02386c-0.00187,-0.00794 -0.00374,-0.01589 -0.00559,-0.02385l0.01112,0.04771c0.01298,0.05567 0.02644,0.1111 0.04039,0.16629c1.57956,6.49378 5.99554,18.64957 8.91205,24.50852l4.85252,9.6321c0.43072,0.84246 1.35992,2.4892 1.86789,3.28744c0.38716,0.60839 1.16147,1.82516 1.54862,2.43355c2.03252,3.19396 7.35577,11.55907 7.35577,11.55907l15.18591,-9.66376c0,0 -2.03252,-3.19396 -4.06504,-6.38792c-0.38716,-0.60839 -4.4522,-6.99631 -4.83935,-7.6047c-0.26634,-0.41854 -0.76035,-1.2766 -0.97853,-1.72218l-4.85252,-9.6321c-2.50327,-4.89898 -6.21393,-15.11578 -7.47569,-20.56598c-0.0071,-0.03201 -0.01438,-0.06402 -0.02184,-0.09603c-0.00173,-0.00735 -0.00345,-0.0147 -0.00518,-0.02207c0.00423,0.01837 0.00839,0.03675 0.0125,0.05512c-0.00524,-0.02283 -0.01044,-0.04557 -0.01559,-0.06823c0.00051,0.00215 0.00102,0.00429 0.00152,0.00644c-0.00067,-0.00288 -0.00135,-0.00576 -0.00203,-0.00864c-0.00078,-0.00344 -0.00157,-0.00689 -0.00235,-0.01033c-0.00328,-0.01405 -0.00658,-0.02809 -0.00992,-0.04212c-1.31942,-5.65164 -3.13986,-16.93403 -3.65323,-22.65472l-2.07588,-22.6629c-0.85001,-8.62533 0.36053,-25.49487 2.42845,-34.23379c0.00549,-0.02193 0.01091,-0.0439 0.01625,-0.0659l0.10836,-0.44658c0.00534,-0.02201 0.01059,-0.04401 0.01576,-0.06602c2.16696,-8.71488 8.82213,-24.26337 13.53051,-31.54005l12.00134,-18.83089c4.3932,-7.04956 15.45956,-18.67464 22.53043,-23.7294c0.00695,-0.00484 0.01389,-0.00969 0.02083,-0.01455l0.53485,-0.37474c0.00694,-0.00486 0.01387,-0.00973 0.02079,-0.01461c7.16547,-4.91973 21.8707,-11.35117 29.99669,-13.07301l19.69611,-4.38212c3.69547,-0.82219 7.39095,-1.64439 7.39095,-1.64439zM418.01777,417.31795c0.03986,-0.02759 0.07958,-0.05496 0.11916,-0.0821c-0.03958,0.02773 -0.0793,0.05509 -0.11916,0.0821zM407.27345,402.86882c0.05374,-0.03765 0.10776,-0.07464 0.16203,-0.11096c-0.05441,0.03708 -0.10842,0.07406 -0.16203,0.11096zM352.01073,487.54724c-0.01015,0.04292 -0.02028,0.08604 -0.03039,0.12934c0.0098,-0.04311 0.01993,-0.08623 0.03039,-0.12934zM369.39484,492.23809c0.00782,-0.03324 0.01572,-0.06659 0.02369,-0.10006c-0.0077,0.03335 -0.01559,0.06671 -0.02369,0.10006zM417.71992,417.52663c-0.03899,0.02825 -0.07828,0.05623 -0.11785,0.08396c0.03902,-0.02793 0.0783,-0.05592 0.11785,-0.08396zM351.93463,487.86494c-0.01085,0.04312 -0.02161,0.08608 -0.03226,0.12888c0.01046,-0.04311 0.02121,-0.08607 0.03226,-0.12888zM369.50319,491.79151c-0.00809,0.03335 -0.01636,0.06661 -0.0248,0.09978c0.00825,-0.03339 0.01652,-0.06665 0.0248,-0.09978zM355.1622,575.99669c0.00099,0.0043 0.00198,0.00859 0.00297,0.01288c-0.0002,-0.00084 -0.0004,-0.00167 -0.00059,-0.00251c-0.0008,-0.00346 -0.00159,-0.00691 -0.00238,-0.01037zM372.69353,571.91647c0.00039,0.00163 0.00077,0.00326 0.00116,0.0049c0.00014,0.00059 0.00027,0.00118 0.00041,0.00178c-0.00052,-0.00222 -0.00104,-0.00445 -0.00157,-0.00667zM372.69469,571.92137c0.00187,0.00794 0.00374,0.01589 0.00559,0.02385l-0.01112,-0.04771c0.00185,0.00795 0.0037,0.01591 0.00553,0.02386z" fill="#ffcc70"/></g></g></g></svg>