<svg version="1.1" xmlns="http://www.w3.org/2000/svg" xmlns:xlink="http://www.w3.org/1999/xlink" viewBox="0 0 1000 1000"><g fill="none" fill-rule="nonzero" stroke="#000000" stroke-width="6" stroke-linecap="round" stroke-linejoin="round" stroke-miterlimit="none" stroke-dasharray="" stroke-dashoffset="0" font-family="none" font-weight="none" font-size="none" text-anchor="none" style="mix-blend-mode:normal"><g fill="none" stroke-miterlimit="NaN" font-family="none" font-weight="none" font-size="NaN" text-anchor="start"><g stroke-miterlimit="NaN" font-size="NaN"/></g><path d="M562.95171,763.35329l-0.5277,-0.10554c-0.37064,-0.07544 -1.11021,-0.24143 -1.47755,-0.33157l-0.52639,-0.13108c-0.6238,-0.15667 -1.86506,-0.49672 -2.48162,-0.67984l-4.04455,-1.21028c-0.23192,-0.078 -0.72149,-0.18511 -0.97639,-0.22985c-0.2549,-0.04474 -0.76592,-0.11137 -1.01054,-0.11701l-51.90697,-2.95131l-51.90697,2.95131c-0.24462,0.00564 -0.75564,0.07227 -1.01054,0.11701c-0.2549,0.04474 -0.74447,0.15185 -0.97639,0.22985l-4.04455,1.21028c-0.61655,0.18311 -1.85782,0.52317 -2.48162,0.67984l-0.52639,0.13108c-0.36734,0.09014 -1.10691,0.25612 -1.47755,0.33157l-0.5277,0.10554l-0.49029,0.09806l-1.91411,-9.57053l-14.74081,-0.83813c-2.46648,-0.16018 -4.75835,-1.27055 -6.34325,-2.93634c-1.5849,-1.66579 -2.59983,-4.0099 -2.61724,-6.48143c-0.01741,-2.47153 0.9644,-4.82971 2.52568,-6.51766c1.56128,-1.68795 3.83729,-2.83049 6.30126,-3.0254l36.31351,-2.57832c-0.51464,-1.21165 -0.81046,-2.3103 -0.77659,-3.95494c0.01442,-0.70013 0.06182,-0.99942 0.14776,-1.48352l-87.22702,-5.52269c-3.97346,-0.31051 -11.69962,-1.98806 -15.40835,-3.46546c-3.70873,-1.4774 -10.47757,-5.57636 -13.57616,-8.08306l-5.7099,-4.76035c-5.99978,-5.12266 -15.72761,-17.2044 -19.45305,-24.15855l-10.61876,-20.39372c-0.56853,-1.10244 -0.93082,-2.35216 -1.0401,-3.58774l-3.0067,-35.59267l18.93257,-1.59933l2.84635,33.69452l9.7423,18.71057c2.69806,5.38241 10.08499,14.55317 14.76827,18.33692l5.71402,4.7639c1.87294,1.63893 6.11095,4.09364 8.43258,5.01848c2.32163,0.92484 7.0977,2.05713 9.58454,2.15496l119.89653,7.59106c2.59883,0.16956 7.11123,0.66321 10.66865,1.1453c3.55742,-0.4821 8.06982,-0.97574 10.66865,-1.1453l119.89653,-7.59106c2.48685,-0.09783 7.26291,-1.23012 9.58454,-2.15496c2.32163,-0.92484 6.55964,-3.37956 8.43258,-5.01848l5.71402,-4.7639c4.68328,-3.78376 12.07021,-12.95451 14.76827,-18.33692l9.7423,-18.71057l2.84635,-33.69452l18.93257,1.59933l-3.0067,35.59267c-0.10927,1.23558 -0.47157,2.4853 -1.0401,3.58774l-10.61876,20.39372c-3.72544,6.95414 -13.45327,19.03589 -19.45305,24.15855l-5.7099,4.76035c-3.09859,2.5067 -9.86743,6.60566 -13.57616,8.08306c-3.70873,1.4774 -11.43489,3.15495 -15.40835,3.46546l-87.22702,5.52269c0.08595,0.4841 0.13334,0.78339 0.14776,1.48352c0.03387,1.64464 -0.26195,2.74328 -0.77659,3.95494l36.31351,2.57832c2.46397,0.19491 4.73998,1.33745 6.30126,3.0254c1.56128,1.68795 2.54309,4.04613 2.52568,6.51766c-0.01741,2.47153 -1.03233,4.81565 -2.61724,6.48143c-1.5849,1.66579 -3.87678,2.77616 -6.34325,2.93634l-14.74081,0.83813l-1.91411,9.57053z" fill="#808080" stroke-miterlimit="0"/><path d="M400.85997,629.55329c0,0 -4.45716,-3.09616 -4.86669,-3.38064c-3.27937,-2.45368 -8.49024,-8.51903 -10.42174,-12.1307l-3.43562,-7.00712c-1.90492,-4.2129 -3.85802,-13.05585 -3.61806,-17.67091c0.23066,-4.43599 2.61674,-12.8526 4.56917,-16.84379l3.76488,-7.27004c4.16604,-7.14564 15.36944,-15.83631 24.31914,-19.30434c0.88326,-0.49653 1.86604,-0.85122 2.92294,-1.02841l0.87288,-0.14634c-0.14575,0.02444 -0.29009,0.05225 -0.43295,0.08334c0.05287,-0.00718 0.10603,-0.01426 0.15947,-0.02125c0.09161,-0.02147 0.18278,-0.04217 0.27348,-0.06209c0.49938,-0.08372 0.99603,-0.12459 1.48621,-0.12529c8.93189,-0.75843 23.48398,0.62928 30.94003,3.08773l13.24729,4.60944c1.5488,0.59683 4.4542,2.15001 5.81079,3.10637l0.70241,0.53067c0.92303,0.76591 2.62362,2.44997 3.3116,3.43093c0.28632,0.40826 0.57265,0.81651 0.57265,0.81651l-14.73694,10.33551c0,0 -0.14514,-0.20695 -0.33209,-0.47351l-0.36814,-0.27813c-0.17438,-0.2003 -0.61217,-0.43434 -0.87559,-0.46808l-13.24729,-4.60944c-5.69041,-2.12202 -17.07919,-3.15876 -23.53217,-2.21089c-0.00082,0.00014 -0.00165,0.00028 -0.00247,0.00041l-0.87288,0.14634c0.09006,-0.0151 0.17958,-0.03149 0.26855,-0.04914c-0.09069,0.01594 -0.18022,0.03232 -0.26855,0.04914v0c-0.20262,0.03397 -0.4048,0.06089 -0.60628,0.08093c-5.26649,1.16832 -11.72164,6.15367 -13.62824,10.77704l-3.76488,7.27004c-1.25827,2.20871 -2.44543,6.96451 -2.57732,9.50103c-0.12258,2.35744 0.63545,6.75595 1.80423,8.812l3.43562,7.00712c0.67719,1.70888 2.94169,4.34472 4.52902,5.27169c0.40954,0.28449 4.86669,3.38064 4.86669,3.38064l-10.26916,14.78324zM414.09399,544.91732c0.14113,-0.02129 0.2845,-0.04185 0.43006,-0.06166c-0.14307,0.01705 -0.28645,0.03759 -0.43006,0.06166zM417.94317,562.52321c-0.00025,0.00002 -0.00051,0.00004 -0.00076,0.00006c-0.08892,0.01307 -0.17691,0.02653 -0.26393,0.04036c0.08813,-0.01214 0.17637,-0.02561 0.26469,-0.04042zM413.42407,545.1712c0.42094,-0.12488 0.83438,-0.2355 1.23919,-0.33104c-0.04365,0.00452 -0.08734,0.00937 -0.13106,0.01454c-0.38026,0.08284 -0.75005,0.18893 -1.10813,0.3165zM417.50496,562.58584c0.05344,-0.01164 0.10668,-0.02374 0.1597,-0.0363c-0.17641,0.01927 -0.35481,0.0436 -0.53496,0.07281c0.1248,-0.00953 0.24991,-0.02168 0.37526,-0.03651z" fill="#ffffff" stroke-miterlimit="0"/><path d="M599.14004,629.5533l-10.26916,-14.78324c0,0 4.45715,-3.09615 4.86669,-3.38064c1.58733,-0.92697 3.85183,-3.56281 4.52902,-5.27169l3.43562,-7.00712c1.16878,-2.05605 1.92681,-6.45456 1.80423,-8.812c-0.13189,-2.53652 -1.31905,-7.29232 -2.57732,-9.50103l-3.76488,-7.27004c-1.9066,-4.62337 -8.36175,-9.60872 -13.62824,-10.77704c-0.20148,-0.02004 -0.40366,-0.04696 -0.60628,-0.08093v0c-0.08833,-0.01682 -0.17786,-0.0332 -0.26855,-0.04914c0.08897,0.01765 0.17849,0.03404 0.26855,0.04914l-0.87288,-0.14634c-0.00082,-0.00013 -0.00165,-0.00027 -0.00247,-0.00041c-6.45298,-0.94787 -17.84176,0.08887 -23.53217,2.21089l-13.24729,4.60944c-0.26342,0.03374 -0.70121,0.26778 -0.87559,0.46808l-0.36814,0.27813c-0.18695,0.26656 -0.33209,0.47351 -0.33209,0.47351l-14.73694,-10.33551c0,0 0.28633,-0.40825 0.57265,-0.81651c0.68798,-0.98096 2.38857,-2.66502 3.3116,-3.43093l0.70241,-0.53067c1.35659,-0.95636 4.26199,-2.50954 5.81079,-3.10637l13.24729,-4.60944c7.45605,-2.45845 22.00814,-3.84616 30.94003,-3.08773c0.49018,0.0007 0.98683,0.04157 1.48621,0.12529c0.0907,0.01992 0.18187,0.04062 0.27348,0.06209c0.05344,0.00699 0.1066,0.01407 0.15947,0.02125c-0.14286,-0.03109 -0.2872,-0.0589 -0.43295,-0.08334l0.87288,0.14634c1.0569,0.17719 2.03968,0.53188 2.92294,1.02841c8.9497,3.46803 20.1531,12.1587 24.31914,19.30434l3.76488,7.27004c1.95243,3.99119 4.33851,12.4078 4.56917,16.84379c0.23996,4.61506 -1.71314,13.45801 -3.61806,17.67091l-3.43562,7.00712c-1.9315,3.61167 -7.14237,9.67702 -10.42174,12.1307c-0.40953,0.28448 -4.86669,3.38064 -4.86669,3.38064zM585.47595,544.85566c0.14556,0.01981 0.28893,0.04037 0.43006,0.06166c-0.14361,-0.02407 -0.28699,-0.04461 -0.43006,-0.06166zM582.32152,562.56363c-0.08702,-0.01383 -0.17501,-0.02729 -0.26393,-0.04036c-0.00025,-0.00002 -0.00051,-0.00004 -0.00076,-0.00006c0.08832,0.01481 0.17656,0.02828 0.26469,0.04042zM585.4678,544.8547c-0.04372,-0.00517 -0.08741,-0.01002 -0.13106,-0.01454c0.40481,0.09554 0.81825,0.20616 1.23919,0.33104c-0.35808,-0.12757 -0.72787,-0.23366 -1.10813,-0.3165zM582.8703,562.62235c-0.18015,-0.02921 -0.35855,-0.05354 -0.53496,-0.07281c0.05302,0.01256 0.10626,0.02466 0.1597,0.0363c0.12535,0.01483 0.25046,0.02698 0.37526,0.03651z" fill="#ffffff" stroke-miterlimit="0"/><path d="M456.7722,469.03748l-34.12212,27.26121c-7.26519,5.76627 -20.24137,18.84128 -25.95234,26.15002l-5.97016,7.59009c-2.70349,3.38888 -7.2119,10.71929 -9.01682,14.66081l-0.62045,1.33069c-1.63168,3.47967 -4.44322,10.617 -5.62309,14.27466l-1.25711,3.86824c-0.56322,1.70597 -1.46128,5.17701 -1.79612,6.94208l-0.79096,4.06583l-17.66876,-3.43727l0.79096,-4.06583c0.45613,-2.30077 1.62922,-6.83481 2.34618,-9.06809l1.25711,-3.86824c1.36548,-4.1746 4.57946,-12.33353 6.42795,-16.31787l0.62045,-1.33069c2.2957,-4.85318 7.88712,-13.94449 11.18284,-18.18263l5.97016,-7.59009c6.39683,-8.08436 20.82924,-22.6267 28.86482,-29.08469l34.12212,-27.26121z" fill="#fcf14a" stroke-miterlimit="0"/><path d="M554.46314,454.9745l34.12212,27.26121c8.03558,6.45799 22.46799,21.00033 28.86482,29.08469l5.97016,7.59009c3.29572,4.23814 8.88714,13.32945 11.18284,18.18263l0.62045,1.33069c1.84849,3.98434 5.06247,12.14327 6.42795,16.31787l1.25711,3.86824c0.71696,2.23328 1.89005,6.76732 2.34618,9.06809l0.79096,4.06583l-17.66876,3.43727l-0.79096,-4.06583c-0.33484,-1.76507 -1.2329,-5.23611 -1.79612,-6.94208l-1.25711,-3.86824c-1.17987,-3.65766 -3.99141,-10.79499 -5.62309,-14.27466l-0.62045,-1.33069c-1.80492,-3.94152 -6.31333,-11.27193 -9.01682,-14.66081l-5.97016,-7.59009c-5.71097,-7.30874 -18.68715,-20.38375 -25.95234,-26.15002l-34.12212,-27.26121z" fill="#bfbfbf" stroke-miterlimit="0"/><path d="M435.71944,471.51866l-67.20545,66.35572c-3.68219,3.60804 -10.27972,11.46783 -13.19505,15.71958l-5.38372,7.78791c-0.23207,0.30118 -0.58237,0.96531 -0.73649,1.31234c-0.1465,0.32987 -0.39099,0.99909 -0.44979,1.35585l-2.26425,9.99985c-0.37161,1.54411 -0.76528,4.67625 -0.78734,6.26429l-0.11101,4.05195l-17.99325,-0.49297l0.11101,-4.05195c0.08895,-2.46391 0.70145,-7.33712 1.225,-9.74641l2.26425,-9.99985c0.29437,-1.20301 1.05219,-3.55514 1.55481,-4.68686c0.495,-1.11456 1.70324,-3.22753 2.38057,-4.24187l5.38372,-7.78791c3.4252,-4.92025 11.10263,-14.06655 15.35485,-18.2926l67.20545,-66.35572z" fill="#e3c815" stroke-miterlimit="0"/><path d="M576.92725,458.71001l67.20545,66.35572c4.25222,4.22605 11.92965,13.37235 15.35485,18.2926l5.38372,7.78791c0.67733,1.01434 1.88557,3.12731 2.38057,4.24187c0.50262,1.13172 1.26044,3.48385 1.55481,4.68686l2.26425,9.99985c0.52355,2.40929 1.13605,7.2825 1.225,9.74641l0.11101,4.05195l-17.99325,0.49297l-0.11101,-4.05195c-0.02206,-1.58804 -0.41573,-4.72018 -0.78734,-6.26429l-2.26425,-9.99985c-0.0588,-0.35676 -0.30329,-1.02598 -0.44979,-1.35585c-0.15412,-0.34703 -0.50442,-1.01116 -0.73649,-1.31234l-5.38372,-7.78791c-2.91533,-4.25175 -9.51286,-12.11154 -13.19505,-15.71958l-67.20545,-66.35572z" fill="#fcf14a" stroke-miterlimit="0"/><path d="M414.02004,463.46693l-40.99382,41.23221c-6.61724,6.62105 -18.29644,21.11628 -23.3584,28.99046l-4.86798,7.52914c-2.61916,4.00594 -6.90283,12.49949 -8.61301,16.96964c-1.73685,4.53987 -4.40785,13.84381 -5.30976,18.6202l-1.10501,5.74012c-0.46852,2.34249 -0.95552,7.0738 -0.974,9.46262l-0.08326,5.5645l-17.99799,-0.2693l0.08326,-5.5645c0.06478,-3.17568 0.71304,-9.47366 1.29652,-12.59595l1.10501,-5.74012c1.08466,-5.54314 4.15532,-16.37398 6.17355,-21.64934c2.04491,-5.34508 7.2222,-15.49185 10.30893,-20.31101l4.86798,-7.52914c5.61164,-8.63431 18.46634,-24.58846 25.70939,-31.9083l40.99382,-41.23221z" fill="#bfbfbf" stroke-miterlimit="0"/><path d="M598.74473,450.77595l40.99382,41.23221c7.24305,7.31984 20.09775,23.27399 25.70939,31.9083l4.86798,7.52914c3.08673,4.81916 8.26402,14.96593 10.30893,20.31101c2.01823,5.27536 5.08889,16.1062 6.17355,21.64934l1.10501,5.74012c0.58348,3.12229 1.23174,9.42027 1.29652,12.59595l0.08326,5.5645l-17.99799,0.2693l-0.08326,-5.5645c-0.01848,-2.38882 -0.50548,-7.12013 -0.974,-9.46262l-1.10501,-5.74012c-0.90191,-4.77639 -3.57291,-14.08033 -5.30976,-18.6202c-1.71018,-4.47015 -5.99385,-12.9637 -8.61301,-16.96964l-4.86798,-7.52914c-5.06196,-7.87418 -16.74116,-22.36941 -23.3584,-28.99046l-40.99382,-41.23221z" fill="#e3c815" stroke-miterlimit="0"/><path d="M473.96631,447.40949l-75.23271,8.8662c-9.16888,1.05351 -26.95657,5.15465 -35.82992,8.25102c-0.01988,0.00712 -0.0398,0.01418 -0.05976,0.02117c-0.01467,0.00509 -0.02936,0.0102 -0.04408,0.01532c0.01469,-0.00507 0.02939,-0.01017 0.04408,-0.01532l-0.19236,0.06739c-0.01996,0.00699 -0.03993,0.01391 -0.0599,0.02075c-8.8657,3.11818 -25.32385,11.01443 -33.14559,15.91327l-18.56355,11.55147c-2.19772,1.34392 -6.27424,4.45026 -8.15304,6.21269l-2.13929,1.97566c-0.81954,0.72953 -2.27465,2.35343 -2.91021,3.24781l-1.80801,2.44811l-14.47932,-10.69342l1.80801,-2.44811c1.17245,-1.55373 3.76115,-4.44273 5.1774,-5.77799l2.13929,-1.97566c2.53001,-2.30916 7.95764,-6.44506 10.85526,-8.2718l18.56355,-11.55147c8.65021,-5.3512 26.76791,-14.04717 36.57779,-17.57147c0.06171,-0.02312 0.12381,-0.04564 0.1863,-0.06753l0.19236,-0.06739c-0.01743,0.00611 -0.03482,0.01226 -0.05219,0.01846c0.01742,-0.00617 0.03482,-0.01232 0.05219,-0.01846c0.0625,-0.02189 0.12507,-0.04305 0.18771,-0.06349c9.86454,-3.36827 29.44804,-7.88022 39.54657,-9.09729l75.23271,-8.8662zM356.75255,447.60943c-0.01744,0.006 -0.03487,0.01204 -0.0523,0.01815c0.0174,-0.00605 0.03483,-0.0121 0.0523,-0.01815zM362.65157,464.61528c0.01469,-0.00514 0.02936,-0.01033 0.04401,-0.01554c-0.0147,0.00518 -0.02937,0.01036 -0.04401,0.01554z" fill="#bfbfbf" stroke-miterlimit="0"/><path d="M528.1404,429.53321l75.23271,8.8662c10.09853,1.21707 29.68203,5.72902 39.54657,9.09729c0.06264,0.02044 0.12521,0.0416 0.18771,0.06349c0.01737,0.00614 0.03477,0.01229 0.05219,0.01846c-0.01737,-0.0062 -0.03476,-0.01235 -0.05219,-0.01846l0.19236,0.06739c0.06249,0.02189 0.12459,0.04441 0.1863,0.06753c9.80988,3.5243 27.92758,12.22027 36.57779,17.57147l18.56355,11.55147c2.89762,1.82674 8.32525,5.96264 10.85526,8.2718l2.13929,1.97566c1.41625,1.33526 4.00495,4.22426 5.1774,5.77799l1.80801,2.44811l-14.47932,10.69342l-1.80801,-2.44811c-0.63556,-0.89438 -2.09067,-2.51828 -2.91021,-3.24781l-2.13929,-1.97566c-1.8788,-1.76243 -5.95532,-4.86877 -8.15304,-6.21269l-18.56355,-11.55147c-7.82174,-4.89884 -24.27989,-12.79509 -33.14559,-15.91327c-0.01997,-0.00684 -0.03994,-0.01376 -0.0599,-0.02075l-0.19236,-0.06739c0.01469,0.00515 0.02939,0.01025 0.04408,0.01532c-0.01472,-0.00512 -0.02941,-0.01023 -0.04408,-0.01532c-0.01996,-0.00699 -0.03988,-0.01405 -0.05976,-0.02117c-8.87335,-3.09637 -26.66104,-7.19751 -35.82992,-8.25102l-75.23271,-8.8662zM643.29975,447.62758c-0.01743,-0.00611 -0.03486,-0.01215 -0.0523,-0.01815c0.01747,0.00605 0.0349,0.0121 0.0523,0.01815zM637.30442,464.59974c0.01465,0.00521 0.02932,0.0104 0.04401,0.01554c-0.01464,-0.00518 -0.02931,-0.01036 -0.04401,-0.01554z" fill="#bfbfbf" stroke-miterlimit="0"/><path d="M483.60245,470.37837l-103.28716,21.18705c-9.34587,1.90229 -27.60277,7.2042 -36.5138,10.60382l-3.47303,1.31894c-7.13392,2.69371 -20.86463,9.2125 -27.46142,13.0376l-5.84323,3.37332c-3.83916,2.2121 -11.32179,6.94568 -14.96524,9.46715l-3.77506,2.6079c-1.75486,1.20782 -5.15646,3.76715 -6.8032,5.11867l-3.58015,2.92795l-11.39534,-13.93364l3.58015,-2.92795c1.93341,-1.57644 5.91722,-4.57382 7.96762,-5.99477l3.77506,-2.6079c3.94738,-2.72246 12.04574,-7.84556 16.19671,-10.24619l5.84323,-3.37332c7.23659,-4.16096 22.27178,-11.29908 30.07039,-14.27624l3.47303,-1.31894c9.59632,-3.62884 29.23996,-9.33347 39.28729,-11.40926l103.28716,-21.18705z" fill="#ffffff" stroke-miterlimit="0"/><path d="M520.01454,452.74551l103.28716,21.18705c10.04733,2.07579 29.69097,7.78042 39.28729,11.40926l3.47303,1.31894c7.79861,2.97716 22.8338,10.11528 30.07039,14.27624l5.84323,3.37332c4.15097,2.40063 12.24933,7.52373 16.19671,10.24619l3.77506,2.6079c2.0504,1.42095 6.03421,4.41833 7.96762,5.99477l3.58015,2.92795l-11.39534,13.93364l-3.58015,-2.92795c-1.64674,-1.35152 -5.04834,-3.91085 -6.8032,-5.11867l-3.77506,-2.6079c-3.64345,-2.52147 -11.12608,-7.25505 -14.96524,-9.46715l-5.84323,-3.37332c-6.59679,-3.8251 -20.3275,-10.34389 -27.46142,-13.0376l-3.47303,-1.31894c-8.91103,-3.39962 -27.16793,-8.70153 -36.5138,-10.60382l-103.28716,-21.18705z" fill="#ffffff" stroke-miterlimit="0"/><path d="M432.57157,477.85322c0,0 1.10092,0.35066 2.20184,0.70132l5.77102,1.83816c5.15071,1.83605 13.90326,7.7864 17.50512,11.90071l3.19914,3.91577c5.29118,6.77082 11.69005,22.06302 12.79774,30.58438l0.84066,7.78355c1.01522,10.22632 -0.82606,30.32425 -3.68256,40.19587l-2.95127,9.87874c-1.45475,4.55938 -5.8116,12.9274 -8.85081,16.62329c-2.96728,3.60841 -10.0211,9.57467 -14.00346,12.01818l-9.25507,5.49648c-8.89774,5.20583 -27.90729,12.41702 -38.01911,14.42238l-11.36871,2.17743c-10.14485,1.88573 -30.53172,2.51641 -40.77374,1.26136l-10.05143,-1.28737c-4.99149,-0.69603 -14.55797,-3.50601 -19.13298,-5.61995l-3.77611,-1.79623c-2.57304,-1.27322 -7.32324,-4.41769 -9.50041,-6.28894l-1.56389,-1.38686c-1.30721,-1.2187 -3.64449,-3.89992 -4.59935,-5.40999c-0.61751,-0.97656 -1.23501,-1.95312 -1.23501,-1.95312l15.21366,-9.62001c0,0 0.61751,0.97656 1.23501,1.95313c0.28016,0.44305 0.90682,1.24818 1.32854,1.56269l1.56389,1.38686c1.17359,1.10021 3.81842,2.85099 5.28965,3.50157l3.77611,1.79623c3.24538,1.60609 10.08919,3.61633 13.68762,4.02048l10.05143,1.28737c8.82036,1.18643 26.37088,0.64349 35.10104,-1.08587l11.36871,-2.17743c8.61265,-1.58091 24.71955,-7.69099 32.21379,-12.22016l9.25507,-5.49648c2.7166,-1.53493 7.31041,-5.565 9.29178,-7.97447c1.90944,-2.322 4.73149,-7.43713 5.50698,-10.34301l2.95127,-9.87874c2.51743,-8.11648 4.03415,-24.67175 3.03343,-33.11055l-0.84066,-7.78355c-0.46218,-6.01371 -4.88277,-16.57817 -8.84119,-21.12892l-3.19914,-3.91577c-1.69215,-2.36558 -6.20645,-5.43459 -9.02859,-6.13802l-5.77102,-1.83816c-1.10092,-0.35066 -2.20184,-0.70132 -2.20184,-0.70132z" fill="#bfbfbf" stroke-miterlimit="0"/><path d="M572.89128,495.00425c0,0 -1.10092,0.35066 -2.20184,0.70132l-5.77102,1.83816c-2.82214,0.70343 -7.33644,3.77244 -9.02859,6.13802l-3.19914,3.91577c-3.95842,4.55075 -8.37901,15.11521 -8.84119,21.12892l-0.84066,7.78355c-1.00072,8.4388 0.516,24.99407 3.03343,33.11055l2.95127,9.87874c0.77549,2.90588 3.59754,8.02101 5.50698,10.34301c1.98137,2.40947 6.57518,6.43954 9.29178,7.97447l9.25507,5.49648c7.49424,4.52917 23.60114,10.63925 32.21379,12.22016l11.36871,2.17743c8.73016,1.72936 26.28068,2.2723 35.10104,1.08587l10.05143,-1.28737c3.59843,-0.40415 10.44224,-2.41439 13.68762,-4.02048l3.77611,-1.79623c1.47123,-0.65058 4.11606,-2.40136 5.28965,-3.50157l1.56389,-1.38686c0.42172,-0.31451 1.04838,-1.11964 1.32854,-1.56269c0.6175,-0.97657 1.23501,-1.95313 1.23501,-1.95313l15.21366,9.62001c0,0 -0.6175,0.97656 -1.23501,1.95312c-0.95486,1.51007 -3.29214,4.19129 -4.59935,5.40999l-1.56389,1.38686c-2.17717,1.87125 -6.92737,5.01572 -9.50041,6.28894l-3.77611,1.79623c-4.57501,2.11394 -14.14149,4.92392 -19.13298,5.61995l-10.05143,1.28737c-10.24202,1.25505 -30.62889,0.62437 -40.77374,-1.26136l-11.36871,-2.17743c-10.11182,-2.00536 -29.12137,-9.21655 -38.01911,-14.42238l-9.25507,-5.49648c-3.98236,-2.44351 -11.03618,-8.40977 -14.00346,-12.01818c-3.03921,-3.69589 -7.39606,-12.06391 -8.85081,-16.62329l-2.95127,-9.87874c-2.8565,-9.87162 -4.69778,-29.96955 -3.68256,-40.19587l0.84066,-7.78355c1.10769,-8.52136 7.50656,-23.81356 12.79774,-30.58438l3.19914,-3.91577c3.60186,-4.11431 12.35441,-10.06466 17.50512,-11.90071l5.77102,-1.83816c1.10092,-0.35066 2.20184,-0.70132 2.20184,-0.70132z" fill="#bfbfbf" stroke-miterlimit="0"/><path d="M414.15438,489.296l-25.04126,7.30451c-8.46163,2.41472 -24.08657,9.67596 -31.65973,14.68742c-0.02011,0.01366 -0.04029,0.02726 -0.06054,0.04079v0c-0.02457,0.01621 -0.04921,0.0325 -0.0739,0.04886c0.02468,-0.01615 0.04932,-0.03244 0.0739,-0.04886l-0.32777,0.21898c-0.02025,0.01353 -0.04054,0.02697 -0.06086,0.04031c-7.52869,5.07804 -20.21792,16.7334 -25.68774,23.62623l-8.35242,10.40005c-5.94876,7.37891 -16.42094,23.08697 -20.94437,31.41611l-4.07979,7.47898c-2.48279,4.51452 -6.57992,13.9218 -8.19427,18.81455l-0.99704,2.98737c-1.1479,3.38183 -2.78356,10.30154 -3.27133,13.83941l-0.54802,3.83039c-0.24592,1.59025 -0.41265,4.7877 -0.33346,6.3949l0.15264,4.0242l-17.98707,0.68227l-0.15264,-4.0242c-0.07345,-2.417 0.17754,-7.23025 0.50197,-9.6265l0.54802,-3.83039c0.63841,-4.33355 2.64628,-12.82786 4.01573,-16.98861l0.99704,-2.98737c1.90004,-5.6372 6.63335,-16.50515 9.46661,-21.73591l4.07979,-7.47898c4.93592,-9.01155 16.29187,-26.04522 22.71189,-34.06735l8.35242,-10.40005c6.33339,-7.80473 20.77848,-21.0885 29.42835,-27.1128c0.11577,-0.08556 0.23416,-0.1688 0.35513,-0.24962c0.03113,-0.02057 0.06239,-0.04118 0.09378,-0.06183c-0.03134,0.02039 -0.0626,0.041 -0.09378,0.06183l0.32777,-0.21898c0.12097,-0.08082 0.24319,-0.15832 0.36655,-0.23253c8.87653,-5.68503 26.67796,-13.94505 36.31261,-16.80851l25.04126,-7.30451zM347.3004,496.42468c0.03109,-0.02109 0.0621,-0.04208 0.09302,-0.06297c-0.03118,0.02083 -0.06219,0.04182 -0.09302,0.06297zM357.1385,511.49814c-0.02457,0.01655 -0.04905,0.03307 -0.07343,0.04957c0.02459,-0.01642 0.04906,-0.03295 0.07343,-0.04957z" fill="#e3c815" stroke-miterlimit="0"/><path d="M590.88615,472.01616l25.04126,7.30451c9.63465,2.86346 27.43608,11.12348 36.31261,16.80851c0.12336,0.07421 0.24558,0.15171 0.36655,0.23253l0.32777,0.21898c-0.03118,-0.02083 -0.06244,-0.04144 -0.09378,-0.06183c0.03139,0.02065 0.06265,0.04126 0.09378,0.06183c0.12097,0.08082 0.23936,0.16406 0.35513,0.24962c8.64987,6.0243 23.09496,19.30807 29.42835,27.1128l8.35242,10.40005c6.42002,8.02213 17.77597,25.0558 22.71189,34.06735l4.07979,7.47898c2.83326,5.23076 7.56657,16.09871 9.46661,21.73591l0.99704,2.98737c1.36945,4.16075 3.37732,12.65506 4.01573,16.98861l0.54802,3.83039c0.32443,2.39625 0.57542,7.2095 0.50197,9.6265l-0.15264,4.0242l-17.98707,-0.68227l0.15264,-4.0242c0.07919,-1.6072 -0.08754,-4.80465 -0.33346,-6.3949l-0.54802,-3.83039c-0.48777,-3.53787 -2.12343,-10.45758 -3.27133,-13.83941l-0.99704,-2.98737c-1.61435,-4.89275 -5.71148,-14.30003 -8.19427,-18.81455l-4.07979,-7.47898c-4.52343,-8.32914 -14.99561,-24.0372 -20.94437,-31.41611l-8.35242,-10.40005c-5.46982,-6.89283 -18.15905,-18.54819 -25.68774,-23.62623c-0.02032,-0.01334 -0.04061,-0.02678 -0.06086,-0.04031l-0.32777,-0.21898c0.02458,0.01642 0.04922,0.03271 0.0739,0.04886c-0.02469,-0.01636 -0.04933,-0.03265 -0.0739,-0.04886v0c-0.02025,-0.01353 -0.04043,-0.02713 -0.06054,-0.04079c-7.57316,-5.01146 -23.1981,-12.2727 -31.65973,-14.68742l-25.04126,-7.30451zM652.60658,496.36171c0.03092,0.02089 0.06193,0.04188 0.09302,0.06297c-0.03083,-0.02115 -0.06184,-0.04214 -0.09302,-0.06297zM642.93493,511.54771c-0.02438,-0.0165 -0.04886,-0.03302 -0.07343,-0.04957c0.02437,0.01662 0.04884,0.03315 0.07343,0.04957z" fill="#bfbfbf" stroke-miterlimit="0"/><path d="M460.29993,469.59972l-64.16565,8.285c-9.01018,1.12822 -26.34168,5.60838 -34.97928,9.02778c-0.0218,0.00887 -0.04365,0.01767 -0.06555,0.0264v0c-0.01868,0.00736 -0.0374,0.01475 -0.05616,0.02216c0.01873,-0.00732 0.03745,-0.01471 0.05616,-0.02216l-0.24677,0.0983c-0.0219,0.00873 -0.04382,0.01736 -0.06575,0.0259c-8.62285,3.45643 -24.28764,12.12056 -31.6056,17.49677l-24.21475,17.64679c-7.45825,5.4007 -20.88641,17.69301 -27.06093,24.75801c-0.01403,0.01632 -0.02813,0.03261 -0.0423,0.04887l-0.13944,0.15999c-0.01417,0.01626 -0.02838,0.03245 -0.04264,0.04858c-6.15548,7.08159 -16.49857,22.06281 -20.83001,30.18879l-10.45308,19.46787c-1,1.82835 -2.64713,5.63764 -3.29426,7.61858l-0.76482,2.2813c-0.29047,0.81575 -0.68209,2.49196 -0.81506,3.34747c-0.1914,1.23142 -0.3828,2.46284 -0.3828,2.46284l-17.78643,-2.76457c0,0 0.1914,-1.23142 0.3828,-2.46284c0.24983,-1.60734 1.03328,-4.75712 1.53506,-6.30451l0.76482,-2.2813c0.91952,-2.69209 3.1706,-7.89811 4.50215,-10.41205l10.45308,-19.46787c4.8346,-8.9451 16.23972,-25.4706 23.02715,-33.39094c0.0442,-0.05309 0.08911,-0.10582 0.13474,-0.15817v0c0.01267,-0.01446 0.02537,-0.02894 0.0381,-0.04344c-0.01274,0.01443 -0.02544,0.02891 -0.0381,0.04344l0.13944,-0.15999c0.04563,-0.05235 0.09173,-0.10404 0.13829,-0.15508c6.91909,-7.80558 21.73201,-21.36088 29.93298,-27.3719l24.21475,-17.64679c8.21559,-5.94427 25.67841,-15.60895 35.36117,-19.59383c0.08257,-0.03575 0.16594,-0.07041 0.2501,-0.10393v0c0.0227,-0.00895 0.04546,-0.01791 0.06827,-0.02688c-0.02277,0.00886 -0.04553,0.01782 -0.06827,0.02688l0.24677,-0.0983c0.08416,-0.03353 0.16852,-0.06569 0.25306,-0.09651c9.77056,-3.76448 29.09557,-8.75448 39.1481,-10.08744l64.16565,-8.285zM277.82136,547.05008c0.01069,-0.01214 0.02135,-0.02431 0.03199,-0.03651c-0.01065,0.01215 -0.02131,0.02432 -0.03199,0.03651zM354.36005,470.24431c0.02273,-0.00917 0.04541,-0.01831 0.06805,-0.02742c-0.02274,0.00905 -0.04542,0.0182 -0.06805,0.02742zM360.89869,487.0147c-0.01872,0.00752 -0.03739,0.01503 -0.05602,0.02253c0.01871,-0.00746 0.03739,-0.01496 0.05602,-0.02253zM277.7139,547.17356c0.01064,-0.01221 0.02124,-0.02443 0.0318,-0.03668c-0.01062,0.01225 -0.02122,0.02447 -0.0318,0.03668zM264.24621,535.23042c0.01263,-0.01459 0.02524,-0.02915 0.03783,-0.04368c-0.01267,0.01453 -0.02528,0.02909 -0.03783,0.04368z" fill="#bfbfbf" stroke-miterlimit="0"/><path d="M735.71596,535.18674c0.01259,0.01453 0.0252,0.02909 0.03783,0.04368c-0.01255,-0.01459 -0.02516,-0.02915 -0.03783,-0.04368zM722.2543,547.13688c0.01056,0.01225 0.02116,0.02447 0.0318,0.03668c-0.01058,-0.01221 -0.02118,-0.02443 -0.0318,-0.03668zM639.15733,487.03723c-0.01863,-0.0075 -0.0373,-0.01501 -0.05602,-0.02253c0.01863,0.00757 0.03731,0.01507 0.05602,0.02253zM645.5719,470.21689c0.02264,0.00911 0.04532,0.01825 0.06805,0.02742c-0.02263,-0.00922 -0.04531,-0.01837 -0.06805,-0.02742zM722.14665,547.01357c0.01064,0.0122 0.0213,0.02437 0.03199,0.03651c-0.01068,-0.01219 -0.02134,-0.02436 -0.03199,-0.03651zM542.00508,451.74794l64.16565,8.285c10.05253,1.33296 29.37754,6.32296 39.1481,10.08744c0.08454,0.03082 0.1689,0.06298 0.25306,0.09651l0.24677,0.0983c-0.02274,-0.00906 -0.0455,-0.01802 -0.06827,-0.02688c0.02281,0.00897 0.04557,0.01793 0.06827,0.02688v0c0.08416,0.03352 0.16753,0.06818 0.2501,0.10393c9.68276,3.98488 27.14558,13.64956 35.36117,19.59383l24.21475,17.64679c8.20097,6.01102 23.01389,19.56632 29.93298,27.3719c0.04656,0.05104 0.09266,0.10273 0.13829,0.15508l0.13944,0.15999c-0.01266,-0.01453 -0.02536,-0.02901 -0.0381,-0.04344c0.01273,0.0145 0.02543,0.02898 0.0381,0.04344v0c0.04563,0.05235 0.09054,0.10508 0.13474,0.15817c6.78743,7.92034 18.19255,24.44584 23.02715,33.39094l10.45308,19.46787c1.33155,2.51394 3.58263,7.71996 4.50215,10.41205l0.76482,2.2813c0.50178,1.54739 1.28523,4.69717 1.53506,6.30451c0.1914,1.23142 0.3828,2.46284 0.3828,2.46284l-17.78643,2.76457c0,0 -0.1914,-1.23142 -0.3828,-2.46284c-0.13297,-0.85551 -0.52459,-2.53172 -0.81506,-3.34747l-0.76482,-2.2813c-0.64713,-1.98094 -2.29426,-5.79023 -3.29426,-7.61858l-10.45308,-19.46787c-4.33144,-8.12598 -14.67453,-23.1072 -20.83001,-30.18879c-0.01426,-0.01613 -0.02847,-0.03232 -0.04264,-0.04858l-0.13944,-0.15999c-0.01417,-0.01626 -0.02827,-0.03255 -0.0423,-0.04887c-6.17452,-7.065 -19.60268,-19.35731 -27.06093,-24.75801l-24.21475,-17.64679c-7.31796,-5.37621 -22.98275,-14.04034 -31.6056,-17.49677c-0.02193,-0.00854 -0.04385,-0.01717 -0.06575,-0.0259l-0.24677,-0.0983c0.01871,0.00745 0.03743,0.01484 0.05616,0.02216c-0.01876,-0.00741 -0.03748,-0.0148 -0.05616,-0.02216v0c-0.0219,-0.00873 -0.04375,-0.01753 -0.06555,-0.0264c-8.6376,-3.4194 -25.9691,-7.89956 -34.97928,-9.02778l-64.16565,-8.285z" fill="#bfbfbf" stroke-miterlimit="0"/><path d="M446.44668,443.41171l-81.37863,9.6961c-8.9235,1.02245 -26.02802,5.44075 -34.56688,8.91157c-0.02252,0.00944 -0.0451,0.0188 -0.06774,0.02808v0c-0.02156,0.00872 -0.04317,0.01748 -0.06483,0.02628c0.02162,-0.00867 0.04323,-0.01743 0.06483,-0.02628l-0.286,0.11721c-0.02264,0.00927 -0.04529,0.01845 -0.06796,0.02753c-8.51883,3.5197 -23.80478,12.37551 -30.87944,17.90936l-34.25311,26.54505c-7.48639,5.78189 -21.33149,18.49369 -27.81184,25.52907c-0.01026,0.01125 -0.02055,0.02249 -0.03087,0.0337v0c-0.00621,0.00671 -0.01242,0.01344 -0.01863,0.02017c0.00622,-0.00671 0.01243,-0.01343 0.01863,-0.02017l-0.08012,0.08702c0.0062,-0.00674 0.01239,-0.01348 0.01857,-0.02023c-0.0062,0.00675 -0.01239,0.01349 -0.01857,0.02023c-0.01033,0.01121 -0.02067,0.02239 -0.03104,0.03354c-6.47671,7.03873 -18.00283,21.88545 -23.14732,29.82337l-12.39321,19.05344c-0.76905,1.15624 -2.08825,3.58749 -2.6384,4.8625l-0.72521,1.63447l-0.09808,3.20851c-0.03949,0.33624 0.04443,0.99177 0.11058,1.32251c0.16652,0.8326 0.33304,1.66519 0.33304,1.66519l-17.65045,3.53009c0,0 -0.16652,-0.8326 -0.33304,-1.66519c-0.26689,-1.33444 -0.46412,-4.04147 -0.45172,-5.4026l0.14829,-4.85097c0.04582,-0.54341 0.17441,-1.62821 0.31362,-2.15467c0.09979,-0.37736 0.37239,-1.11 0.51769,-1.47256l1.38214,-3.11504c0.8662,-1.91714 2.86752,-5.60552 4.00263,-7.37675l12.39321,-19.05344c5.57027,-8.53511 17.98242,-24.52488 24.95371,-32.15598c0.02348,-0.0261 0.04713,-0.05209 0.07097,-0.07798c0.00707,-0.00765 0.01414,-0.01531 0.02122,-0.02297c-0.00708,0.00764 -0.01416,0.0153 -0.02122,0.02297l0.08012,-0.08702c0.02384,-0.02589 0.04779,-0.05161 0.07186,-0.07716c7.02989,-7.57714 21.94103,-21.26626 29.98745,-27.52176l34.25311,-26.54505c8.01848,-6.16317 25.19213,-16.12087 34.84977,-20.23653c0.09814,-0.04434 0.19745,-0.08711 0.2979,-0.12828c0.0266,-0.01078 0.05327,-0.02156 0.08003,-0.03236c-0.0267,0.01065 -0.05338,0.02144 -0.08003,0.03236l0.286,-0.11721c0.10045,-0.04117 0.20121,-0.08038 0.30225,-0.11767c9.76838,-3.84543 28.99097,-8.80348 39.02849,-10.03994l81.37863,-9.6961zM323.52799,445.42494c0.02664,-0.01109 0.05321,-0.02212 0.07972,-0.03311c-0.02665,0.01092 -0.05323,0.02196 -0.07972,0.03311zM223.84048,520.04086c0.00705,-0.00769 0.0141,-0.01537 0.02114,-0.02304c-0.00706,0.00767 -0.01411,0.01535 -0.02114,0.02304zM330.21207,462.13788c-0.0216,0.00893 -0.04315,0.01785 -0.06463,0.02677c0.0216,-0.00885 0.04314,-0.01777 0.06463,-0.02677z" fill="#e3c815" stroke-miterlimit="0"/><path d="M669.85256,462.16465c-0.02148,-0.00892 -0.04303,-0.01784 -0.06463,-0.02677c0.02149,0.009 0.04303,0.01792 0.06463,0.02677zM776.13838,520.01782c0.00704,0.00767 0.01409,0.01535 0.02114,0.02304c-0.00703,-0.00769 -0.01408,-0.01537 -0.02114,-0.02304zM676.39229,445.39183c0.02651,0.01099 0.05308,0.02202 0.07972,0.03311c-0.02649,-0.01115 -0.05307,-0.02219 -0.07972,-0.03311zM555.68292,425.53812l81.37863,9.6961c10.03752,1.23646 29.26011,6.19451 39.02849,10.03994c0.10104,0.03729 0.2018,0.0765 0.30225,0.11767l0.286,0.11721c-0.02665,-0.01092 -0.05333,-0.02171 -0.08003,-0.03236c0.02676,0.0108 0.05343,0.02158 0.08003,0.03236c0.10045,0.04117 0.19976,0.08394 0.2979,0.12828c9.65764,4.11566 26.83129,14.07336 34.84977,20.23653l34.25311,26.54505c8.04642,6.2555 22.95756,19.94462 29.98745,27.52176c0.02407,0.02555 0.04802,0.05127 0.07186,0.07716l0.08012,0.08702c-0.00706,-0.00767 -0.01414,-0.01533 -0.02122,-0.02297c0.00708,0.00766 0.01415,0.01532 0.02122,0.02297c0.02384,0.02589 0.04749,0.05188 0.07097,0.07798c6.97129,7.6311 19.38344,23.62087 24.95371,32.15598l12.39321,19.05344c1.13511,1.77123 3.13643,5.45961 4.00263,7.37675l1.38214,3.11504c0.1453,0.36256 0.4179,1.0952 0.51769,1.47256c0.13921,0.52646 0.2678,1.61126 0.31362,2.15467l0.14829,4.85097c0.0124,1.36113 -0.18483,4.06816 -0.45172,5.4026c-0.16652,0.83259 -0.33304,1.66519 -0.33304,1.66519l-17.65045,-3.53009c0,0 0.16652,-0.83259 0.33304,-1.66519c0.06615,-0.33074 0.15007,-0.98627 0.11058,-1.32251l-0.09808,-3.20851l-0.72521,-1.63447c-0.55015,-1.27501 -1.86935,-3.70626 -2.6384,-4.8625l-12.39321,-19.05344c-5.14449,-7.93792 -16.67061,-22.78464 -23.14732,-29.82337c-0.01037,-0.01115 -0.02071,-0.02233 -0.03104,-0.03354c-0.00618,-0.00674 -0.01237,-0.01348 -0.01857,-0.02023c0.00618,0.00675 0.01237,0.01349 0.01857,0.02023l-0.08012,-0.08702c0.0062,0.00674 0.01241,0.01346 0.01863,0.02017c-0.00621,-0.00673 -0.01242,-0.01346 -0.01863,-0.02017v0c-0.01032,-0.01121 -0.02061,-0.02245 -0.03087,-0.0337c-6.48035,-7.03538 -20.32545,-19.74718 -27.81184,-25.52907l-34.25311,-26.54505c-7.07466,-5.53385 -22.36061,-14.38966 -30.87944,-17.90936c-0.02267,-0.00908 -0.04532,-0.01826 -0.06796,-0.02753l-0.286,-0.11721c0.0216,0.00885 0.04321,0.01761 0.06483,0.02628c-0.02166,-0.0088 -0.04327,-0.01756 -0.06483,-0.02628v0c-0.02264,-0.00928 -0.04522,-0.01864 -0.06774,-0.02808c-8.53886,-3.47082 -25.64338,-7.88912 -34.56688,-8.91157l-81.37863,-9.6961z" fill="#e3c815" stroke-miterlimit="0"/><path d="M453.37356,485.11831c0,0 -5.48059,-14.77478 -5.90892,-15.92947c-2.49522,-7.0572 -10.48157,-19.20142 -15.97271,-24.28843l-3.75231,-3.58478c-4.17382,-4.14645 -14.02033,-9.86585 -19.62298,-11.65776c-5.86278,-1.87511 -17.84144,-3.68402 -23.99439,-3.5019l-4.90945,0.09675c-8.83963,0.11335 -25.96579,3.30651 -34.25233,6.38632l-32.12297,11.68798c-8.80532,3.17784 -25.5418,11.3285 -33.47296,16.30133l-9.48415,5.91214c-3.13705,1.92676 -8.9106,6.42302 -11.54711,8.99251l-2.44802,2.35434c-1.59329,1.52287 -4.59257,4.74304 -5.99857,6.44035l-1.55407,1.8643c-0.6354,0.75161 -1.8028,2.33132 -2.34616,3.1519c-0.67995,1.02687 -1.3599,2.05373 -1.3599,2.05373l-15.00803,-9.93775c0,0 0.67995,-1.02687 1.3599,-2.05373c0.81654,-1.23315 2.5862,-3.59918 3.52797,-4.73958l1.55407,-1.8643c1.73328,-2.06867 5.40705,-6.013 7.34754,-7.88867l2.44802,-2.35434c3.34529,-3.18338 10.59643,-8.83034 14.50228,-11.29391l9.48415,-5.91214c8.75164,-5.42674 27.17187,-14.39739 36.84045,-17.9413l32.12297,-11.68798c9.71421,-3.46978 29.74034,-7.20364 40.05225,-7.46771l4.90945,-0.09675c7.63003,-0.08951 22.56478,2.02951 29.83242,4.35395c7.52778,2.40763 20.7796,10.41066 26.57368,15.78709l3.75231,3.58478c6.79378,6.64944 17.00126,22.17115 20.41497,31.04342c0.42833,1.1547 5.90892,15.92947 5.90892,15.92947l-16.87633,6.26015z" fill="#bfbfbf" stroke-miterlimit="0"/><path d="M546.62645,485.11832l-16.87633,-6.26015c0,0 5.48059,-14.77477 5.90892,-15.92947c3.41371,-8.87227 13.62119,-24.39398 20.41497,-31.04342l3.75231,-3.58478c5.79408,-5.37643 19.0459,-13.37946 26.57368,-15.78709c7.26764,-2.32444 22.20239,-4.44346 29.83242,-4.35395l4.90945,0.09675c10.31191,0.26407 30.33804,3.99793 40.05225,7.46771l32.12297,11.68798c9.66858,3.54391 28.08881,12.51456 36.84045,17.9413l9.48415,5.91214c3.90585,2.46357 11.15699,8.11053 14.50228,11.29391l2.44802,2.35434c1.94049,1.87567 5.61426,5.82 7.34754,7.88867l1.55407,1.8643c0.94177,1.1404 2.71143,3.50643 3.52797,4.73958c0.67995,1.02686 1.3599,2.05373 1.3599,2.05373l-15.00803,9.93775c0,0 -0.67995,-1.02686 -1.3599,-2.05373c-0.54336,-0.82058 -1.71076,-2.40029 -2.34616,-3.1519l-1.55407,-1.8643c-1.406,-1.69731 -4.40528,-4.91748 -5.99857,-6.44035l-2.44802,-2.35434c-2.63651,-2.56949 -8.41006,-7.06575 -11.54711,-8.99251l-9.48415,-5.91214c-7.93116,-4.97283 -24.66764,-13.12349 -33.47296,-16.30133l-32.12297,-11.68798c-8.28654,-3.07981 -25.4127,-6.27297 -34.25233,-6.38632l-4.90945,-0.09675c-6.15295,-0.18212 -18.13161,1.62679 -23.99439,3.5019c-5.60265,1.79191 -15.44916,7.51131 -19.62298,11.65776l-3.75231,3.58478c-5.49114,5.08701 -13.47749,17.23123 -15.97271,24.28843c-0.42833,1.15469 -5.90892,15.92947 -5.90892,15.92947z" fill="#bfbfbf" stroke-miterlimit="0"/><path d="M322.65809,419.94186c0.01893,-0.00306 0.03784,-0.00618 0.05673,-0.00936c-0.01895,0.00312 -0.03786,0.00624 -0.05673,0.00936zM416.95995,429.63429c0.04179,0.02125 0.08366,0.04213 0.12562,0.06266c-0.04204,-0.02108 -0.08391,-0.04197 -0.12562,-0.06266zM456.3437,465.23729c0,0 -12.07651,-13.92945 -12.96436,-14.95353c-5.40253,-6.35592 -18.08849,-16.32531 -25.82651,-20.34812c-0.00953,-0.00481 -0.01906,-0.00963 -0.02858,-0.01447v0l-0.5643,-0.28687c-0.00952,-0.00484 -0.01903,-0.0097 -0.02853,-0.01457c-7.81,-3.88121 -23.34014,-8.2558 -31.65888,-8.87525l-26.06411,-2.19718c-9.07592,-0.7984 -27.037,-0.12629 -36.23243,1.34288c-0.02281,0.00386 -0.04567,0.00765 -0.06855,0.01135c-0.01889,0.00298 -0.03782,0.00598 -0.05679,0.009c0.01893,-0.00294 0.03786,-0.00594 0.05679,-0.009l-0.24936,0.04034c-0.02288,0.00371 -0.04576,0.00732 -0.06863,0.01084c-9.18965,1.50484 -26.44662,6.52968 -34.80797,10.14877l-35.23322,15.09805c-8.35699,3.56912 -24.47973,11.85746 -32.24548,16.57667l-10.22933,6.19934c-2.62901,1.58039 -7.62683,5.10963 -9.99564,7.05848l-1.04869,0.85647c-1.97161,1.60646 -5.79014,4.96129 -7.63707,6.70967l-1.95834,1.84959c-0.8696,0.8173 -2.54346,2.51629 -3.34772,3.39798l-1.83171,1.99822l-13.26877,-12.16304l1.83171,-1.99822c1.02745,-1.11654 3.156,-3.27705 4.25711,-4.32102l1.95834,-1.84959c2.08643,-1.96657 6.39168,-5.74901 8.6105,-7.5649l1.04869,-0.85647c2.8703,-2.32996 8.89652,-6.58541 12.05244,-8.5109l10.22933,-6.19934c8.31551,-5.02662 25.55793,-13.89056 34.48483,-17.72788l35.23322,-15.09805c9.34052,-3.96664 28.5316,-9.55965 38.84074,-11.33945c0.0833,-0.01587 0.16707,-0.03062 0.25131,-0.04425v0c0.02284,-0.00361 0.04573,-0.00723 0.06868,-0.01084c-0.02288,0.00352 -0.04578,0.00714 -0.06868,0.01084l0.24936,-0.04034c-0.0229,0.0037 -0.04577,0.00749 -0.0686,0.01136c0.02291,-0.0038 0.04578,-0.00759 0.0686,-0.01136c0.08424,-0.01362 0.16839,-0.02603 0.25244,-0.03724c10.3445,-1.56117 30.32018,-2.30386 40.43492,-1.48435l26.06411,2.19718c9.79403,0.9059 28.00694,6.00583 37.63181,10.46076c0.23582,0.09579 0.46954,0.20232 0.70058,0.31977v0c0.0558,0.02894 0.11184,0.05816 0.16814,0.08767c-0.05561,-0.02973 -0.11166,-0.05896 -0.16814,-0.08767l0.5643,0.28687c-0.05648,-0.02871 -0.11312,-0.05677 -0.16991,-0.08418c0.05702,0.02809 0.11365,0.05615 0.16991,0.08418c0.23104,0.11745 0.45483,0.24351 0.67119,0.37759c9.27101,5.15101 24.1239,16.86046 30.62722,24.23951c0.88785,1.02408 12.96436,14.95353 12.96436,14.95353z" fill="#e3c815" stroke-miterlimit="0"/><path d="M677.28518,419.9325c0.01889,0.00318 0.0378,0.0063 0.05673,0.00936c-0.01887,-0.00312 -0.03778,-0.00624 -0.05673,-0.00936zM582.91443,429.69695c0.04196,-0.02053 0.08383,-0.04141 0.12562,-0.06266c-0.04171,0.02069 -0.08358,0.04158 -0.12562,0.06266zM530.05597,453.44612c0,0 12.07651,-13.92945 12.96436,-14.95353c6.50332,-7.37905 21.35621,-19.0885 30.62722,-24.23951c0.21636,-0.13408 0.44015,-0.26014 0.67119,-0.37759c0.05626,-0.02803 0.11289,-0.05609 0.16991,-0.08418c-0.05679,0.02741 -0.11343,0.05547 -0.16991,0.08418l0.5643,-0.28687c-0.05648,0.02871 -0.11253,0.05794 -0.16814,0.08767c0.0563,-0.02951 0.11234,-0.05873 0.16814,-0.08767v0c0.23104,-0.11745 0.46476,-0.22398 0.70058,-0.31977c9.62487,-4.45493 27.83778,-9.55486 37.63181,-10.46076l26.06411,-2.19718c10.11474,-0.81951 30.09042,-0.07682 40.43492,1.48435c0.08405,0.01121 0.1682,0.02362 0.25244,0.03724c0.02282,0.00377 0.04569,0.00756 0.0686,0.01136c-0.02283,-0.00387 -0.0457,-0.00766 -0.0686,-0.01136l0.24936,0.04034c-0.0229,-0.0037 -0.0458,-0.00732 -0.06868,-0.01084c0.02295,0.00361 0.04584,0.00723 0.06868,0.01084v0c0.08424,0.01363 0.16801,0.02838 0.25131,0.04425c10.30914,1.7798 29.50022,7.37281 38.84074,11.33945l35.23322,15.09805c8.9269,3.83732 26.16932,12.70126 34.48483,17.72788l10.22933,6.19934c3.15592,1.92549 9.18214,6.18094 12.05244,8.5109l1.04869,0.85647c2.21882,1.81589 6.52407,5.59833 8.6105,7.5649l1.95834,1.84959c1.10111,1.04397 3.22966,3.20448 4.25711,4.32102l1.83171,1.99822l-13.26877,12.16304l-1.83171,-1.99822c-0.80426,-0.88169 -2.47812,-2.58068 -3.34772,-3.39798l-1.95834,-1.84959c-1.84693,-1.74838 -5.66546,-5.10321 -7.63707,-6.70967l-1.04869,-0.85647c-2.36881,-1.94885 -7.36663,-5.47809 -9.99564,-7.05848l-10.22933,-6.19934c-7.76575,-4.71921 -23.88849,-13.00755 -32.24548,-16.57667l-35.23322,-15.09805c-8.36135,-3.61909 -25.61832,-8.64393 -34.80797,-10.14877c-0.02287,-0.00352 -0.04575,-0.00713 -0.06863,-0.01084l-0.24936,-0.04034c0.01893,0.00306 0.03786,0.00606 0.05679,0.009c-0.01897,-0.00302 -0.0379,-0.00602 -0.05679,-0.009c-0.02288,-0.0037 -0.04574,-0.00749 -0.06855,-0.01135c-9.19543,-1.46917 -27.15651,-2.14128 -36.23243,-1.34288l-26.06411,2.19718c-8.31874,0.61945 -23.84888,4.99404 -31.65888,8.87525c-0.0095,0.00487 -0.01901,0.00973 -0.02853,0.01457l-0.5643,0.28687v0c-0.00952,0.00484 -0.01905,0.00966 -0.02858,0.01447c-7.73802,4.02281 -20.42398,13.9922 -25.82651,20.34812c-0.88785,1.02408 -12.96436,14.95353 -12.96436,14.95353z" fill="#bfbfbf" stroke-miterlimit="0"/><path d="M516.75578,482.30564l0.34153,-24.26958c0.30755,-8.70965 4.97817,-23.69342 9.94951,-32.75273c0.27849,-0.73745 0.65922,-1.45025 1.14534,-2.11857v0c0.11359,-0.14939 0.23051,-0.29999 0.35066,-0.45173c-0.12076,0.14588 -0.23772,0.29647 -0.35066,0.45173l0.95532,-1.31338c0.48612,-0.66832 1.04701,-1.25008 1.66284,-1.74215c7.08788,-7.51979 19.90487,-16.57809 28.09645,-19.5531l12.21641,-4.14544c2.9539,-0.9593 9.00579,-2.13842 12.10377,-2.35824l3.63752,-0.21014c1.24448,-0.03105 3.72251,0.11963 4.93892,0.3811c0.98663,0.21207 2.9111,0.81035 3.85532,1.16687l2.35734,0.93083c0.94004,0.38752 2.7675,1.27207 3.63929,1.79514c0.55506,0.33304 1.11012,0.66607 1.11012,0.66607l-9.26092,15.43487c0,0 -0.55506,-0.33304 -1.11012,-0.66607c-0.23834,-0.143 -0.72514,-0.4 -0.98924,-0.48796l-2.35734,-0.93083c-0.24596,-0.11345 -0.76271,-0.25404 -1.02711,-0.31087c-0.03462,-0.00744 -0.0851,-0.05186 -0.1181,-0.00911l-3.63752,0.21014c-1.89591,0.06869 -5.57483,0.78547 -7.35785,1.43357l-12.21641,4.14544c-6.55738,2.01341 -16.79437,9.40958 -21.28858,15.2528l-0.3518,0.48366c-4.17507,6.07535 -8.05894,18.09263 -7.95493,24.95136l-0.34153,24.26958zM529.14748,421.85139c-0.11293,0.15526 -0.22018,0.31292 -0.32178,0.47274c0.10736,-0.16104 0.21463,-0.31866 0.32178,-0.47274z" fill="#bfbfbf" stroke-miterlimit="0"/><path d="M471.1743,422.32413c-0.1016,-0.15982 -0.20885,-0.31748 -0.32178,-0.47274c0.10715,0.15408 0.21442,0.3117 0.32178,0.47274zM465.24599,482.5589l-0.34153,-24.26958c0.10401,-6.85873 -3.77986,-18.87601 -7.95493,-24.95136l-0.3518,-0.48366c-4.49421,-5.84322 -14.7312,-13.23939 -21.28858,-15.2528l-12.21641,-4.14544c-1.78302,-0.6481 -5.46194,-1.36488 -7.35785,-1.43357l-3.63752,-0.21014c-0.033,-0.04275 -0.08348,0.00167 -0.1181,0.00911c-0.2644,0.05683 -0.78115,0.19742 -1.02711,0.31087l-2.35734,0.93083c-0.2641,0.08796 -0.7509,0.34496 -0.98924,0.48796c-0.55506,0.33303 -1.11012,0.66607 -1.11012,0.66607l-9.26092,-15.43487c0,0 0.55506,-0.33303 1.11012,-0.66607c0.87179,-0.52307 2.69925,-1.40762 3.63929,-1.79514l2.35734,-0.93083c0.94422,-0.35652 2.86869,-0.9548 3.85532,-1.16687c1.21641,-0.26147 3.69444,-0.41215 4.93892,-0.3811l3.63752,0.21014c3.09798,0.21982 9.14987,1.39894 12.10377,2.35824l12.21641,4.14544c8.19158,2.97501 21.00857,12.03331 28.09645,19.5531c0.61583,0.49207 1.17672,1.07383 1.66284,1.74215l0.95532,1.31338c-0.11294,-0.15526 -0.2299,-0.30585 -0.35066,-0.45173c0.12015,0.15174 0.23707,0.30234 0.35066,0.45173v0c0.48612,0.66832 0.86685,1.38112 1.14534,2.11857c4.97134,9.05931 9.64196,24.04308 9.94951,32.75273l0.34153,24.26958z" fill="#fcf14a" stroke-miterlimit="0"/><path d="M528.54971,483.43605l4.12631,-17.15649c2.37254,-9.45438 10.56534,-26.7279 16.38561,-34.54703l0.66476,-0.87495c6.04422,-7.79677 20.66384,-20.4705 29.23924,-25.34746l5.24979,-2.91845c5.87297,-3.19337 18.31935,-7.60324 24.89275,-8.81973l8.16726,-1.43261c2.36715,-0.35176 7.11596,-0.44558 9.47769,-0.06423c1.96069,0.31659 5.8115,1.25584 7.70575,1.85292l5.06929,1.63428c1.70875,0.56449 5.03865,1.91059 6.6482,2.71537c1.3044,0.6522 2.60879,1.3044 2.60879,1.3044l-8.04984,16.09969c0,0 -1.3044,-0.6522 -2.60879,-1.3044c-0.99924,-0.49962 -3.05416,-1.35288 -4.12143,-1.68334l-5.06929,-1.63428c-1.23687,-0.41236 -3.76493,-1.00697 -5.05199,-1.2148c-0.88601,-0.14307 -2.6253,-0.19292 -3.49849,0.02371l-8.16726,1.43261c-5.12264,0.8351 -14.751,4.24652 -19.25672,6.82283l-5.24979,2.91845c-7.05308,3.81117 -18.8794,14.0634 -23.65265,20.50445l-0.66476,0.87495c-4.85481,6.23128 -11.4634,20.16467 -13.21717,27.86677l-4.12631,17.15649z" fill="#fcf14a" stroke-miterlimit="0"/><path d="M453.94934,487.6452l-4.12631,-17.15649c-1.75377,-7.7021 -8.36236,-21.63549 -13.21717,-27.86677l-0.66476,-0.87495c-4.77325,-6.44105 -16.59957,-16.69328 -23.65265,-20.50445l-5.24979,-2.91845c-4.50572,-2.57631 -14.13408,-5.98773 -19.25672,-6.82283l-8.16726,-1.43261c-0.87319,-0.21663 -2.61248,-0.16678 -3.49849,-0.02371c-1.28706,0.20783 -3.81512,0.80244 -5.05199,1.2148l-5.06929,1.63428c-1.06727,0.33046 -3.12219,1.18372 -4.12143,1.68334c-1.30439,0.6522 -2.60879,1.3044 -2.60879,1.3044l-8.04984,-16.09969c0,0 1.30439,-0.6522 2.60879,-1.3044c1.60955,-0.80478 4.93945,-2.15088 6.6482,-2.71537l5.06929,-1.63428c1.89425,-0.59708 5.74506,-1.53633 7.70575,-1.85292c2.36173,-0.38135 7.11054,-0.28753 9.47769,0.06423l8.16726,1.43261c6.5734,1.21649 19.01978,5.62636 24.89275,8.81973l5.24979,2.91845c8.5754,4.87696 23.19502,17.55069 29.23924,25.34746l0.66476,0.87495c5.82027,7.81913 14.01307,25.09265 16.38561,34.54703l4.12631,17.15649z" fill="#fcf14a" stroke-miterlimit="0"/><path d="M504.84082,433.12988c2.54468,-9.96338 11.08909,-28.27827 17.08882,-36.62977l6.78941,-9.28765c2.55238,-3.34744 8.60358,-9.04007 12.19133,-11.24025c3.85558,-2.36443 12.39663,-4.69463 16.91607,-4.93115l18.59969,-0.31975c5.77426,0.05956 16.64844,2.82772 21.74836,5.53631l5.75789,3.26414c1.62447,0.96914 4.61108,3.25082 5.9732,4.56335l0.84404,0.85021c0.86591,0.93179 2.42401,2.93323 3.04292,4.04374c0.32046,0.57501 0.64092,1.15002 0.64092,1.15002l-15.72307,8.76271c0,0 -0.32046,-0.57501 -0.64092,-1.15002c-0.02202,-0.03951 -0.03239,-0.12242 -0.09403,-0.12496l-0.84404,-0.85021c-0.43877,-0.50152 -1.47677,-1.29453 -2.07601,-1.58601l-5.75789,-3.26414c-2.88168,-1.81617 -9.16267,-3.41507 -12.56198,-3.19781l-18.59969,0.31975c-2.1554,-0.12178 -5.98013,1.15274 -7.81549,2.27827c-2.10319,1.28978 -5.68263,4.47649 -7.06997,6.51842l-6.78941,9.28765c-5.10931,6.84523 -12.18119,22.00375 -14.14375,30.31703l-6.91828,28.05332l-15.39895,-3.79756l-15.39895,3.79756l-6.91828,-28.05332c-1.96256,-8.31328 -9.03443,-23.4718 -14.14375,-30.31703l-6.78941,-9.28765c-1.38733,-2.04193 -4.96678,-5.22864 -7.06997,-6.51842c-1.83536,-1.12553 -5.66009,-2.40005 -7.81549,-2.27827l-18.59969,-0.31975c-3.39931,-0.21727 -9.6803,1.38163 -12.56198,3.19781l-5.75789,3.26414c-0.59924,0.29148 -1.63724,1.08448 -2.07601,1.58601l-0.84404,0.85021c-0.06164,0.00254 -0.07201,0.08545 -0.09403,0.12496c-0.32046,0.57501 -0.64092,1.15002 -0.64092,1.15002l-15.72307,-8.76271c0,0 0.32046,-0.57501 0.64092,-1.15002c0.6189,-1.11051 2.17701,-3.11195 3.04292,-4.04374l0.84404,-0.85021c1.36213,-1.31254 4.34873,-3.59421 5.9732,-4.56335l5.75789,-3.26414c5.09992,-2.70859 15.9741,-5.47675 21.74836,-5.53631l18.59969,0.31975c4.51944,0.23652 13.06049,2.56672 16.91607,4.93115c3.58775,2.20018 9.63896,7.89281 12.19133,11.24025l6.78941,9.28765c5.99973,8.3515 14.54413,26.66639 17.08882,36.62977l4.84082,19.62932z" fill="#bfbfbf" stroke-miterlimit="0"/><path d="M512.72761,374.01743l7.38429,-9.82701c2.29701,-2.87693 7.74463,-7.66741 10.99643,-9.38992c3.12979,-1.65788 9.84543,-3.645 13.35681,-4.11479l21.20782,-2.35412c4.42761,-0.41145 13.16571,0.26923 17.4762,1.36137l3.7202,1.01373c2.80397,0.95709 7.7131,3.99901 9.81826,6.08385l1.19676,1.34444c1.13745,1.55791 2.74584,4.98642 3.21678,6.857l0.00046,0.00305c0.12714,0.89434 0.2907,2.69128 0.3271,3.59388l0.0199,0.62956c0.01066,0.58642 -0.0138,1.75848 -0.06461,2.34274c-0.02775,0.31916 -0.05551,0.63832 -0.05551,0.63832l-17.93233,-1.55933c0,0 0.02775,-0.31916 0.05551,-0.63832c0.0047,-0.05406 0.01551,-0.16074 0.00592,-0.21472l-0.0199,-0.62956c-0.00057,-0.05489 -0.00252,-0.11777 -0.00564,-0.18627l-0.18936,-0.21272c-0.12321,-0.41852 -0.67604,-0.76108 -1.10566,-0.68512l-3.7202,-1.01373c-2.6433,-0.80271 -8.02232,-1.22173 -10.75804,-0.83804l-21.20782,2.35412c-1.85459,0.12584 -5.27584,1.26157 -6.91696,2.13089c-1.51911,0.80469 -4.0857,2.85759 -5.03199,4.29685l-7.38429,9.82701c-5.05774,6.55091 -11.6956,21.22576 -13.27572,29.3497l-4.14268,19.90794l-9.69935,-2.01836l-9.69935,2.01836l-4.14268,-19.90794c-1.58012,-8.12394 -8.21798,-22.79879 -13.27572,-29.3497l-7.38429,-9.82701c-0.94629,-1.43925 -3.51288,-3.49216 -5.03199,-4.29685c-1.64112,-0.86932 -5.06237,-2.00505 -6.91696,-2.13089l-21.20782,-2.35412c-2.73572,-0.3837 -8.11474,0.03532 -10.75804,0.83804l-3.7202,1.01373c-0.42962,-0.07596 -0.98245,0.26659 -1.10566,0.68512l-0.18936,0.21272c-0.00312,0.0685 -0.00507,0.13138 -0.00564,0.18627l-0.0199,0.62956c-0.00959,0.05399 0.00122,0.16067 0.00592,0.21472c0.02775,0.31916 0.05551,0.63832 0.05551,0.63832l-17.93233,1.55933c0,0 -0.02775,-0.31916 -0.05551,-0.63832c-0.05081,-0.58426 -0.07526,-1.75631 -0.06461,-2.34274l0.0199,-0.62956c0.03641,-0.9026 0.19996,-2.69954 0.3271,-3.59388l0.00046,-0.00305c0.47094,-1.87059 2.07933,-5.29909 3.21678,-6.857l1.19676,-1.34444c2.10517,-2.08483 7.0143,-5.12676 9.81826,-6.08385l3.7202,-1.01373c4.31049,-1.09214 13.04859,-1.77282 17.4762,-1.36137l21.20782,2.35412c3.51138,0.4698 10.22701,2.45691 13.35681,4.11479c3.2518,1.72251 8.69942,6.513 10.99643,9.38992l7.38429,9.82701c4.09001,5.56437 9.17724,15.67948 12.72761,24.74306c3.55038,-9.06357 8.6376,-19.17868 12.72761,-24.74306z" fill="#e3c815" stroke-miterlimit="0"/><path d="M330.14744,462.16465c0.02148,-0.00892 0.04303,-0.01784 0.06463,-0.02677c-0.02149,0.009 -0.04303,0.01792 -0.06463,0.02677z" fill="#fcf14a" stroke-miterlimit="0"/><path d="M412.66835,606.73138c-7.22222,3.32602 -13.42472,7.33746 -19.67593,-0.21044c-11.44306,-13.81669 -0.61047,-37.7975 12.52104,-45.7702c12.80824,-7.77643 37.47974,-3.35934 49.87374,3.05135c5.49638,19.39899 -29.21677,36.71123 -42.71886,42.92929z" fill="#bfbfbf" stroke-miterlimit="3"/><path d="M544.61279,563.80208c12.39399,-6.41069 37.0655,-10.82778 49.87374,-3.05135c13.13151,7.9727 23.9641,31.95351 12.52104,45.7702c-6.2512,7.54789 -12.45371,3.53646 -19.67593,0.21044c-13.50209,-6.21807 -48.21524,-23.5303 -42.71886,-42.92929z" fill="#bfbfbf" stroke-miterlimit="3"/><path d="M422.34848,603.15394c-5.34591,2.66075 -14.89993,6.29949 -18.70265,-1.15741c-13.54041,-26.55189 24.12081,-42.12402 46.69087,-24.30556c-2.68936,11.42979 -17.99151,20.48743 -27.98822,25.46296z" fill="#808080" stroke-miterlimit="3"/><path d="M549.6633,577.69097c22.57006,-17.81847 60.23128,-2.24634 46.69087,24.30556c-3.80272,7.4569 -13.35674,3.81816 -18.70265,1.15741c-9.99671,-4.97553 -25.29885,-14.03317 -27.98822,-25.46296z" fill="#808080" stroke-miterlimit="3"/><path d="M421.71717,594.10511c-1.41228,-4.10845 -3.62549,-7.17727 5.18203,-8.99621c3.46483,-0.71556 3.52122,8.71764 0.52609,10.6008c-6.90699,4.34272 -8.45673,-11.2247 -5.70812,-1.60459z" fill="#404040" stroke-miterlimit="3"/><path d="M572.57471,595.7097c-2.99513,-1.88316 -2.93874,-11.31636 0.52609,-10.6008c8.80752,1.81894 6.59431,4.88777 5.18203,8.99621c2.7486,-9.62011 1.19887,5.9473 -5.70812,1.60459z" fill="#404040" stroke-miterlimit="3"/><path d="M252.10438,578.11185" fill="#a5321f" stroke-miterlimit="3"/><path d="M747.89562,578.11185" fill="#a5321f" stroke-miterlimit="3"/><path d="M316.07744,575.5866" fill="#a5321f" stroke-miterlimit="3"/><path d="M683.92256,575.5866" fill="#a5321f" stroke-miterlimit="3"/><path d="M542.92333,679.00334l-0.46431,0.25866c-0.40834,0.22251 -1.24314,0.64154 -1.66547,0.83618l-0.95832,0.43078c-0.42591,0.18668 -1.29356,0.5326 -1.73103,0.69032l-10.13265,3.54591c-0.90048,0.29411 -2.74094,0.7739 -3.6871,0.91933c-0.94616,0.14543 -2.85598,0.24028 -3.80322,0.23017l-74.7325,-2.36379l0.60067,-18.9905l74.81667,2.36646l0.00536,0.00831c0.01271,0.01969 0.12309,-0.0142 0.22655,-0.0301c0.10347,-0.0159 0.21893,-0.01673 0.22514,-0.03932l0.00262,-0.00954l0.07948,-0.02782l10.15097,-3.55152c0.04377,-0.01114 0.1534,-0.05716 0.19282,-0.0792l0.98132,-0.4402c0.04265,-0.01485 0.14793,-0.0701 0.18532,-0.09544l0.89712,-0.49982l9.24734,16.59779z" fill="#bfbfbf" stroke-miterlimit="0"/><path d="M533.38069,597.86669c-20.13724,13.26446 -49.74042,21.09955 -67.05072,-1.23632" fill="none" stroke-miterlimit="3"/><path d="M541.24579,602.9435c-20.47485,15.35614 -59.39772,26.15039 -78.91414,2.52525" fill="none" stroke-miterlimit="3"/><path d="M466.32997,592.00074c7.82045,0.80901 6.3544,9.29219 1.84133,13.62584c-4.24076,4.07217 -9.59686,1.68021 -14.46759,0.68392" fill="none" stroke-miterlimit="3"/><path d="M541.24579,606.20528c-7.92478,5.87022 -13.80212,-7.05857 -9.68013,-13.36279" fill="none" stroke-miterlimit="3"/><path d="M488.21549,667.33744c-4.65135,14.74577 -25.00972,10.31008 -29.46128,-0.84175" fill="none" stroke-miterlimit="3"/><path d="M523.14815,667.96875c-0.31597,9.32127 -15.06084,13.25646 -22.26365,8.27612c-2.91609,-2.01631 -2.83433,-6.49945 -4.2515,-9.74918" fill="none" stroke-miterlimit="3"/><path d="M493.68687,721.20949c10.87228,-1.63829 4.06783,4.02507 0.42088,1.47306" fill="none" stroke-miterlimit="3"/><path d="M492.42424,733.41488c13.3424,-3.35141 8.1114,5.89242 2.52525,3.57744" fill="none" stroke-miterlimit="3"/><path d="M493.68687,746.46202c12.15605,-0.78232 0.5964,3.65573 -1.26263,1.6835" fill="none" stroke-miterlimit="3"/></g></svg>