<svg version="1.1" xmlns="http://www.w3.org/2000/svg" xmlns:xlink="http://www.w3.org/1999/xlink" viewBox="0 0 1000 1000"><g fill="none" fill-rule="nonzero" stroke="#000000" stroke-width="6" stroke-linecap="round" stroke-linejoin="round" stroke-miterlimit="0" stroke-dasharray="" stroke-dashoffset="0" font-family="none" font-weight="none" font-size="none" text-anchor="none" style="mix-blend-mode:normal"><g fill="none" font-family="none" font-weight="none" font-size="NaN" text-anchor="start"><g font-size="NaN"/></g><path d="M514.50017,622.97067l-0.70109,1.68841l3.77999,4.9875c0.08149,0.00422 0.16299,0.00956 0.2445,0.01602zM485.49983,622.97067l-3.3234,6.69194c0.0815,-0.00646 0.16301,-0.0118 0.2445,-0.01602l3.77999,-4.9875zM500,593.77334l-3.80391,7.65949l3.80391,5.01906l3.80391,-5.01906zM334.73337,450.68441l-11.08185,104.06811c-0.42631,3.93377 -0.76895,10.81795 -0.85312,16.26274l9.1576,-14.27354c2.03521,-3.17219 5.7895,-4.69555 9.38138,-3.95766c2.07882,-1.6963 4.88454,-2.44059 7.6796,-1.80866c4.56889,1.03297 7.58154,5.3978 6.927,10.03605l-0.34734,2.46134l5.51622,-11.38024c1.97618,-4.07697 6.67494,-6.04935 10.96903,-4.60442c4.29409,1.44493 6.84465,5.85664 5.95417,10.29894l-2.98397,14.88598l10.4789,-18.2442c2.34895,-4.08962 7.45657,-5.67235 11.70643,-3.62753c1.91621,0.92198 3.36498,2.44044 4.2197,4.23223l29.25121,-47.85486c2.45924,-4.0233 7.60688,-5.46638 11.79915,-3.30774c4.19227,2.15864 6.00768,7.18705 4.16118,11.52586l-13.87021,32.59161l25.98058,-43.65302c2.38487,-4.00709 7.4354,-5.52898 11.63713,-3.50663c4.20173,2.02235 6.16291,6.91906 4.51882,11.28271l-27.22602,72.26206l26.31423,-48.19737c2.27901,-4.17426 7.41239,-5.85486 11.71877,-3.83657c4.30637,2.01829 6.29913,7.03874 4.54918,11.46096l-32.41175,81.9062l30.17312,-48.24726c2.52938,-4.04452 7.77093,-5.40904 11.94749,-3.12505c4.17657,-2.28399 9.41811,-0.91947 11.94749,3.12505l30.17312,48.24726l-32.41175,-81.9062c-1.74995,-4.42222 0.24281,-9.44267 4.54918,-11.46096c4.30637,-2.01829 9.43975,-0.33769 11.71877,3.83657l26.31423,48.19737l-27.22602,-72.26206c-1.64408,-4.36364 0.3171,-9.26036 4.51882,-11.28271c4.20173,-2.02235 9.25226,-0.50046 11.63713,3.50663l25.98058,43.65302l-13.87021,-32.59161c-1.84649,-4.33881 -0.03109,-9.36723 4.16118,-11.52586c4.19227,-2.15864 9.33991,-0.71556 11.79915,3.30774l29.25121,47.85486c0.85472,-1.79179 2.30349,-3.31024 4.2197,-4.23223c4.24986,-2.04481 9.35748,-0.46209 11.70643,3.62753l10.4789,18.2442l-2.98397,-14.88598c-0.89048,-4.4423 1.66008,-8.85401 5.95417,-10.29894c4.29409,-1.44493 8.99284,0.52745 10.96903,4.60442l5.51622,11.38024l-0.34734,-2.46134c-0.65454,-4.63824 2.35811,-9.00308 6.927,-10.03605c2.79506,-0.63193 5.60078,0.11236 7.6796,1.80866c3.59188,-0.73789 7.34616,0.78547 9.38138,3.95766l9.1576,14.27354c-0.08417,-5.44478 -0.42681,-12.32896 -0.85312,-16.26274l-11.08185,-104.06811l17.89881,-1.90598l11.08185,104.06811c0.61496,5.86836 1.08354,17.6354 0.93716,23.53408l-0.14623,5.51961c-0.09247,3.11745 -0.66917,9.31589 -1.1534,12.39689l-0.89355,5.57025c-0.5911,3.68482 -3.39497,6.62258 -7.04823,7.38479c-3.42524,0.71463 -6.93082,-0.62219 -9.01604,-3.38068l0.91315,5.27021c0.80897,4.66894 -2.14084,9.16542 -6.74573,10.28273c-0.25881,0.0628 -0.51786,0.11371 -0.77656,0.15307c-0.22128,3.68943 -2.70771,6.95218 -6.36132,8.06546c-4.07152,1.24063 -8.42841,-0.54278 -10.47981,-4.2185c0.7471,4.25258 -1.63692,8.4524 -5.69767,9.97901c-0.81993,0.30825 -1.66023,0.48946 -2.49767,0.55199c0.02605,3.34829 -1.82743,6.55401 -4.98895,8.12865c-4.17932,2.08157 -9.25645,0.62148 -11.69151,-3.36226l-10.61086,-17.35933l18.10277,42.53711c1.8545,4.35762 0.01471,9.4069 -4.20844,11.55002c-4.22315,2.14312 -9.38465,0.64679 -11.80671,-3.4228l-42.31244,-71.09408l36.81468,97.71186c1.66671,4.42371 -0.37309,9.38294 -4.66997,11.35374c-4.29687,1.9708 -9.38614,0.28138 -11.65145,-3.86778l-18.00382,-32.97595l14.88043,37.60362c1.7123,4.32706 -0.15645,9.24592 -4.30993,11.34449c-4.15348,2.09857 -9.22186,0.68473 -11.68932,-3.26078l-1.95434,-3.12502c-0.70093,1.67443 -1.91171,3.14934 -3.55993,4.17065c-3.94759,2.4461 -9.10816,1.48696 -11.91323,-2.21418l-38.47317,-50.76339l23.85558,57.45049c1.79506,4.32297 -0.02326,9.30023 -4.18226,11.44804c-4.159,2.1478 -9.27005,0.74903 -11.75577,-3.21727l-2.68804,-4.28913l1.3217,3.30305c1.76626,4.41404 -0.20538,9.44052 -4.50168,11.47653c-4.29629,2.036 -9.43514,0.37917 -11.73309,-3.7829l-1.59183,-2.88314l-11.09681,0.55484l-0.0043,0.08608l-0.85869,-0.04293l-0.85869,0.04293l-0.0043,-0.08608l-11.09681,-0.55484l-1.59183,2.88314c-2.29795,4.16208 -7.4368,5.81891 -11.73309,3.7829c-4.29629,-2.036 -6.26793,-7.06248 -4.50168,-11.47653l1.3217,-3.30305l-2.68804,4.28913c-2.48571,3.9663 -7.59677,5.36507 -11.75577,3.21727c-4.159,-2.1478 -5.97732,-7.12507 -4.18226,-11.44804l23.85558,-57.45049l-38.47317,50.76339c-2.80507,3.70115 -7.96564,4.66028 -11.91323,2.21418c-1.64822,-1.02131 -2.859,-2.49622 -3.55993,-4.17065l-1.95434,3.12502c-2.46746,3.94551 -7.53584,5.35935 -11.68932,3.26078c-4.15348,-2.09857 -6.02223,-7.01743 -4.30993,-11.34449l14.88043,-37.60362l-18.00382,32.97595c-2.26531,4.14916 -7.35457,5.83858 -11.65145,3.86778c-4.29687,-1.9708 -6.33668,-6.93002 -4.66997,-11.35374l36.81468,-97.71186l-42.31244,71.09408c-2.42206,4.06959 -7.58356,5.56593 -11.80671,3.4228c-4.22315,-2.14312 -6.06294,-7.19241 -4.20844,-11.55002l18.10277,-42.53711l-10.61086,17.35933c-2.43506,3.98374 -7.51218,5.44383 -11.69151,3.36226c-3.16152,-1.57464 -5.015,-4.78036 -4.98895,-8.12865c-0.83745,-0.06253 -1.67774,-0.24375 -2.49767,-0.55199c-4.06075,-1.52661 -6.44477,-5.72643 -5.69767,-9.97901c-2.05141,3.67572 -6.40829,5.45913 -10.47981,4.2185c-3.65361,-1.11328 -6.14004,-4.37604 -6.36132,-8.06546c-0.2587,-0.03936 -0.51776,-0.09028 -0.77656,-0.15307c-4.6049,-1.11731 -7.5547,-5.61379 -6.74573,-10.28273l0.91315,-5.27021c-2.08521,2.75849 -5.5908,4.09532 -9.01604,3.38068c-3.65327,-0.76221 -6.45714,-3.69996 -7.04823,-7.38479l-0.89355,-5.57025c-0.48423,-3.081 -1.06093,-9.27944 -1.1534,-12.39689l-0.14623,-5.51961c-0.14638,-5.89868 0.3222,-17.66572 0.93716,-23.53408l11.08185,-104.06811z" fill="#808080"/><path d="M358.08426,538.23416l-9.75059,-1.93937c-4.76353,-0.94745 -7.91607,-5.50356 -7.12374,-10.29533c0.79233,-4.79177 5.2437,-8.09055 10.05867,-7.45417l76.28126,10.08176c4.89915,0.93759 12.99505,5.19063 16.65183,8.68355c0.17077,0.17812 0.33409,0.36312 0.48955,0.55452c-0.12267,-0.16811 -0.25198,-0.33318 -0.38795,-0.49486l0.6889,0.81916c1.20864,1.43718 1.89068,3.14171 2.06637,4.87898c0.64607,2.06596 1.04693,4.19387 0.99419,5.8505c-0.05575,1.75109 -0.65589,3.99921 -1.51275,6.12903c-0.31736,1.58547 -1.06577,3.105 -2.25144,4.37269l-0.58337,0.62372c-0.723,0.77301 -1.55029,1.39005 -2.43972,1.84971c-4.27433,2.89344 -10.72937,5.7813 -14.83867,6.44936l-61.78747,6.68378c-3.98819,0.0762 -9.47675,-1.20356 -12.71088,-3.12609c-2.69382,-1.60134 -5.7432,-4.78975 -7.74937,-7.85603c-0.82894,-0.47642 -1.6065,-0.97877 -2.2271,-1.45443l-0.63703,-0.61478c-1.40516,-1.94088 -3.48815,-6.29283 -3.32637,-8.64617c0.08366,-1.21703 0.72177,-3.57043 1.14688,-4.7157l0.14809,-0.34212c0.53873,-0.98698 1.75613,-2.85293 2.68408,-3.63775c1.21902,-1.03099 4.42709,-2.25546 6.17612,-2.23961c1.3572,0.0123 3.57925,0.78724 5.06749,1.62579c0.69412,-2.54558 2.48348,-4.66952 4.87302,-5.78613z" fill="#ffffff"/><path d="M641.91574,538.23417c2.38954,1.11661 4.1789,3.24055 4.87302,5.78613c1.48824,-0.83855 3.71029,-1.61349 5.06749,-1.62579c1.74903,-0.01585 4.9571,1.20862 6.17612,2.23961c0.92795,0.78482 2.14535,2.65077 2.68408,3.63775l0.14809,0.34212c0.42511,1.14527 1.06322,3.49867 1.14688,4.7157c0.16178,2.35334 -1.92121,6.70529 -3.32637,8.64617l-0.63703,0.61478c-0.6206,0.47566 -1.39816,0.97801 -2.2271,1.45443c-2.00617,3.06628 -5.05555,6.25469 -7.74937,7.85603c-3.23413,1.92253 -8.72269,3.20229 -12.71088,3.12609l-61.78747,-6.68378c-4.1093,-0.66806 -10.56434,-3.55592 -14.83867,-6.44936c-0.88943,-0.45966 -1.71672,-1.0767 -2.43972,-1.84971l-0.58337,-0.62372c-1.18567,-1.26769 -1.93408,-2.78722 -2.25144,-4.37269c-0.85686,-2.12982 -1.457,-4.37794 -1.51275,-6.12903c-0.05274,-1.65663 0.34812,-3.78454 0.99419,-5.8505c0.17569,-1.73727 0.85773,-3.4418 2.06637,-4.87898l0.6889,-0.81916c-0.13597,0.16168 -0.26528,0.32675 -0.38795,0.49486c0.15546,-0.1914 0.31878,-0.3764 0.48955,-0.55452c3.65678,-3.49292 11.75268,-7.74596 16.65183,-8.68355l76.28126,-10.08176c4.81497,-0.63638 9.26634,2.6624 10.05867,7.45417c0.79233,4.79177 -2.36021,9.34788 -7.12374,10.29533l-9.75059,1.93937z" fill="#ffffff"/><path d="M403.65521,583.65686l36.92903,-4.57575c5.42307,-0.31424 13.56553,-4.97772 17.02408,-9.6034c0.11051,-0.17834 0.22798,-0.35409 0.35246,-0.52693c0.01301,-0.01517 0.026,-0.03043 0.03896,-0.04578c-0.06711,0.09988 -0.13196,0.20066 -0.19455,0.30227c0.08828,-0.12467 0.17304,-0.24925 0.25415,-0.37366c0.12378,-0.14997 0.24521,-0.30774 0.36415,-0.47269c-0.09976,0.11691 -0.19704,0.23695 -0.29171,0.36009c0.01291,-0.02035 0.02573,-0.04069 0.03845,-0.06103c0.13655,-0.1896 0.27912,-0.3723 0.42725,-0.54804c2.49286,-3.67933 3.81503,-10.51095 2.66394,-14.45804l-2.46654,-12.22086c-0.93771,-4.64605 1.88861,-9.22313 6.46255,-10.46576c4.57394,-1.24263 9.32775,1.27511 10.86987,5.75695l3.17294,9.22151c0.43724,1.3039 0.89584,2.95117 1.34309,4.7743l-4.3363,-45.32715c-0.45948,-4.80293 2.95023,-9.11377 7.72988,-9.77275c4.77965,-0.65898 9.22866,2.56837 10.08599,7.31645l0.9612,5.32334c0.49539,2.74842 1.38002,8.2623 1.76926,11.02776l0.7509,5.34693c0.67,4.77625 1.76506,13.76495 2.39573,19.58762c0.63068,-5.82266 1.72574,-14.81137 2.39573,-19.58762l0.7509,-5.34693c0.38924,-2.76546 1.27387,-8.27934 1.76926,-11.02776l0.9612,-5.32334c0.85733,-4.74808 5.30634,-7.97542 10.08599,-7.31645c4.77965,0.65898 8.18936,4.96981 7.72988,9.77275l-4.3363,45.32715c0.44725,-1.82314 0.90585,-3.4704 1.34309,-4.7743l3.17294,-9.22151c1.54212,-4.48185 6.29593,-6.99958 10.86987,-5.75695c4.57394,1.24263 7.40026,5.81971 6.46255,10.46576l-2.46654,12.22086c-1.15109,3.94709 0.17108,10.77871 2.66394,14.45804c0.14813,0.17574 0.29069,0.35845 0.42725,0.54804c0.01272,0.02034 0.02553,0.04068 0.03845,0.06103c-0.09467,-0.12314 -0.19195,-0.24318 -0.29171,-0.36009c0.11894,0.16495 0.24037,0.32272 0.36415,0.47269c0.08111,0.12441 0.16587,0.24899 0.25415,0.37366c-0.06259,-0.10161 -0.12744,-0.20239 -0.19455,-0.30227c0.01296,0.01535 0.02595,0.03061 0.03896,0.04578c0.12448,0.17283 0.24195,0.34859 0.35246,0.52693c3.45856,4.62568 11.60102,9.28916 17.02408,9.6034l36.92903,4.57575l-2.21339,17.8634l-36.92903,-4.57575c-4.23584,-0.6988 -9.68719,-2.94961 -14.90276,-5.89242c0.46762,1.52171 0.53608,3.18002 0.12835,4.8161c-0.96623,3.87712 -4.35246,6.60954 -8.26161,6.81181c-0.188,0.59149 -0.43275,1.15164 -0.72672,1.67572c1.90273,2.03045 2.82072,4.89826 2.28597,7.79309c-0.80358,4.35015 -4.64944,7.47132 -9.07185,7.36241l-2.34587,-0.05777l-1.01486,3.91446c0,0 -4.72246,-1.22434 -8.64232,-2.2406c-1.48873,-0.38597 -4.68675,-1.21508 -8.14764,-2.11235l-6.50306,-0.16016l-6.50306,0.16016c-3.46089,0.89727 -6.65892,1.72639 -8.14764,2.11235c-3.91986,1.01626 -8.64232,2.2406 -8.64232,2.2406l-1.01486,-3.91446l-2.34587,0.05777c-4.42241,0.10891 -8.26827,-3.01226 -9.07185,-7.36241c-0.53475,-2.89483 0.38324,-5.76264 2.28597,-7.79309c-0.29397,-0.52408 -0.53872,-1.08422 -0.72672,-1.67572c-3.90915,-0.20227 -7.29539,-2.93469 -8.26161,-6.81181c-0.40773,-1.63608 -0.33927,-3.29439 0.12835,-4.8161c-5.21556,2.94281 -10.66692,5.19362 -14.90276,5.89242l-36.92903,4.57575zM458.17022,568.65999c-0.03499,0.04858 -0.06942,0.09739 -0.1033,0.14642c-0.03577,0.04767 -0.07115,0.0958 -0.10614,0.14437zM457.99973,568.90501c0.02215,-0.03296 0.04454,-0.06583 0.06718,-0.09859c0.02148,-0.02863 0.0431,-0.05709 0.06486,-0.08539c-0.02381,0.03751 -0.04796,0.07505 -0.07244,0.1126c-0.01981,0.024 -0.03967,0.04779 -0.0596,0.07139zM472.67003,579.32417c0.01665,-0.02409 0.03316,-0.04823 0.04954,-0.07243c-0.02062,0.02609 -0.04136,0.05221 -0.06221,0.07834c-0.015,0.02348 -0.03001,0.04687 -0.04504,0.07017c0.01935,-0.02523 0.03858,-0.05059 0.05771,-0.07608zM473.35848,589.54382c0.07952,0.09272 0.1612,0.18413 0.24502,0.27415c0.05933,0.03805 0.11899,0.07532 0.17895,0.11181c-0.08858,-0.0976 -0.17739,-0.19777 -0.26637,-0.30039c-0.05305,-0.02836 -0.10559,-0.05688 -0.15761,-0.08558zM542.03922,568.95079c-0.03499,-0.04858 -0.07037,-0.0967 -0.10614,-0.14437c-0.03388,-0.04903 -0.06831,-0.09784 -0.1033,-0.14642zM541.94067,568.83362c-0.02448,-0.03755 -0.04863,-0.07508 -0.07244,-0.1126c0.02176,0.0283 0.04338,0.05676 0.06486,0.08539c0.02264,0.03277 0.04504,0.06563 0.06718,0.09859c-0.01993,-0.02359 -0.03979,-0.04739 -0.0596,-0.07139zM527.38768,579.40025c-0.01503,-0.0233 -0.03004,-0.04669 -0.04504,-0.07017c-0.02085,-0.02613 -0.04159,-0.05224 -0.06221,-0.07834c0.01638,0.0242 0.03289,0.04834 0.04954,0.07243c0.01913,0.02549 0.03836,0.05085 0.05771,0.07608zM526.48391,589.6294c-0.08897,0.10262 -0.17778,0.20279 -0.26637,0.30039c0.05996,-0.0365 0.11962,-0.07377 0.17895,-0.11181c0.08383,-0.09002 0.1655,-0.18143 0.24502,-0.27415c-0.05202,0.0287 -0.10456,0.05722 -0.15761,0.08558z" fill="#ffffff"/><path d="M574.81427,675.63667c4.87299,0.25568 8.65456,4.3481 8.52528,9.22607c-0.12928,4.87798 -4.1223,8.76435 -9.00199,8.76156l-10.45835,-0.00598v9.01553h-8.366c-4.3132,-0.00188 -12.93249,-0.25138 -17.23858,-0.49899l-8.31813,-0.48196c-7.32532,-0.42607 -20.95376,-1.58359 -29.9565,-2.5214c-9.00274,0.93781 -22.63118,2.09534 -29.9565,2.5214l-8.31813,0.48196c-4.30609,0.24761 -12.92538,0.49711 -17.23858,0.49899h-8.366v-9.01553l-10.45835,0.00598c-4.87969,0.00279 -8.87271,-3.88358 -9.00199,-8.76156c-0.12928,-4.87798 3.65229,-8.9704 8.52528,-9.22607l5.46109,-0.28653c-0.18301,-4.08636 2.44275,-7.85874 6.47082,-9.03428c3.02467,-0.88271 39.69459,-11.58427 57.60701,-16.81174l0.82806,-2.83741c0,0 1.65519,0.48304 4.4473,1.29788c2.79211,-0.81484 4.4473,-1.29788 4.4473,-1.29788l0.82806,2.83741c17.91242,5.22747 54.58233,15.92903 57.60701,16.81174c4.02807,1.17553 6.65383,4.94792 6.47082,9.03428z" fill="#ffffff"/><path d="M290.14179,386.27368c0,0 0.73588,0.12643 1.47176,0.25285l14.02919,2.41026c9.04488,1.76391 24.79107,9.85345 31.49238,16.17909l0.7439,0.73448c6.52083,6.72904 15.15236,22.59453 16.85611,31.80624c1.54307,8.34298 2.85618,25.1773 2.67369,33.65986l-0.08897,3.65216c-0.27233,10.18825 -2.86053,30.30179 -5.1764,40.22708l-3.81138,16.16161c-0.21447,0.61748 -0.28841,1.87335 -0.14787,2.51174l0.13666,1.19368l0.62802,1.26894l-16.13237,7.98415l-0.66238,-1.33838c-0.61432,-1.39234 -1.46814,-4.28755 -1.70765,-5.79042l-0.14547,-1.27065c-0.18338,-2.19099 0.07244,-6.53632 0.51165,-8.69065l3.81138,-16.16161c2.14918,-9.00814 4.49976,-27.27506 4.70116,-36.53384l0.08897,-3.65216c0.20808,-7.55073 -1.00507,-22.52027 -2.37884,-29.94786c-1.21309,-6.55886 -6.91103,-17.73206 -11.80285,-22.27112l-0.7439,-0.73448c-4.49075,-4.72468 -15.43757,-10.34856 -21.89364,-11.24777l-14.02919,-2.41026c-0.73588,-0.12643 -1.47176,-0.25285 -1.47176,-0.25285z" fill="#ffffff"/><path d="M712.90601,404.01377c0,0 -0.73588,0.12642 -1.47176,0.25285l-14.02919,2.41026c-6.45607,0.89921 -17.40289,6.52309 -21.89364,11.24777l-0.7439,0.73448c-4.89182,4.53906 -10.58976,15.71226 -11.80285,22.27112c-1.37377,7.42759 -2.58692,22.39713 -2.37884,29.94786l0.08897,3.65216c0.2014,9.25878 2.55198,27.5257 4.70116,36.53384l3.81138,16.16161c0.43921,2.15433 0.69503,6.49966 0.51165,8.69065l-0.14547,1.27065c-0.23951,1.50287 -1.09333,4.39808 -1.70765,5.79042l-0.66238,1.33838l-16.13237,-7.98415l0.62802,-1.26894l0.13666,-1.19368c0.14054,-0.63839 0.0666,-1.89426 -0.14787,-2.51174l-3.81138,-16.16161c-2.31587,-9.92529 -4.90407,-30.03883 -5.1764,-40.22708l-0.08897,-3.65216c-0.18249,-8.48256 1.13062,-25.31688 2.67369,-33.65986c1.70375,-9.21171 10.33528,-25.0772 16.85611,-31.80624l0.7439,-0.73448c6.70131,-6.32564 22.4475,-14.41518 31.49238,-16.17909l14.02919,-2.41026c0.73588,-0.12642 1.47176,-0.25285 1.47176,-0.25285z" fill="#ffffff"/><path d="M321.00628,338.57701l35.43227,20.54078c8.86834,5.2304 24.2258,18.45429 30.71492,26.44778l8.33923,10.43142c2.01658,2.64617 5.17417,8.42041 6.16779,11.59461c0.9092,2.90452 1.96883,8.86514 2.18305,11.90128l0.84915,14.26493c0.57953,10.29807 -0.69982,30.74161 -2.55871,40.88708l-2.65781,14.24527c-1.12945,6.04634 -3.08984,18.18723 -3.92077,24.28177l-0.84544,6.19096c-0.41043,2.99559 -1.08222,9.00345 -1.34357,12.01572l-0.54443,6.24274l-17.93194,-1.56383l0.54443,-6.24274c0.28307,-3.23048 1.00359,-9.67417 1.44104,-12.88738l0.84544,-6.19096c0.86325,-6.31144 2.89354,-18.88527 4.06058,-25.14765l2.65781,-14.24527c1.72379,-9.0569 2.86638,-27.31496 2.28517,-36.5161l-0.84915,-14.26493c-0.08243,-1.94716 -0.81077,-5.73398 -1.39289,-7.59362c-0.4977,-1.58995 -1.94865,-4.47912 -3.04927,-5.73222l-8.33923,-10.43142c-5.33192,-6.79327 -18.17344,-17.85076 -25.68305,-22.11498l-35.43227,-20.54078z" fill="#ffffff"/><path d="M688.02137,354.14947l-35.43227,20.54078c-7.50961,4.26422 -20.35113,15.32171 -25.68305,22.11498l-8.33923,10.43142c-1.10062,1.2531 -2.55157,4.14227 -3.04927,5.73222c-0.58212,1.85964 -1.31046,5.64646 -1.39289,7.59362l-0.84915,14.26493c-0.58121,9.20114 0.56138,27.4592 2.28517,36.5161l2.65781,14.24527c1.16704,6.26238 3.19733,18.83621 4.06058,25.14765l0.84544,6.19096c0.43745,3.21321 1.15797,9.6569 1.44104,12.88738l0.54443,6.24274l-17.93194,1.56383l-0.54443,-6.24274c-0.26135,-3.01227 -0.93314,-9.02013 -1.34357,-12.01572l-0.84544,-6.19096c-0.83093,-6.09454 -2.79132,-18.23543 -3.92077,-24.28177l-2.65781,-14.24527c-1.85889,-10.14547 -3.13824,-30.58901 -2.55871,-40.88708l0.84915,-14.26493c0.21422,-3.03614 1.27385,-8.99676 2.18305,-11.90128c0.99362,-3.1742 4.15121,-8.94844 6.16779,-11.59461l8.33923,-10.43142c6.48912,-7.99349 21.84658,-21.21738 30.71492,-26.44778l35.43227,-20.54078z" fill="#404040"/><path d="M463.55223,308.51925l-15.16034,81.54799c-1.73416,9.19217 -3.1962,27.7347 -2.92409,37.08506l0.09096,3.43979c0.1745,7.53847 2.16537,22.39551 3.93346,29.72573c1.76993,7.33788 6.75326,21.49508 10.01335,28.30314l4.07261,8.57478c1.65705,3.54487 5.70172,10.18993 8.08933,13.29013l5.29907,6.96864l-14.32804,10.89528l-5.29907,-6.96864c-2.91146,-3.86845 -7.92175,-12.09996 -10.02059,-16.46302l-4.07261,-8.57478c-3.61509,-7.66747 -9.26455,-23.56428 -11.25222,-31.80488c-1.98952,-8.24826 -4.17987,-24.98936 -4.42899,-33.47055l-0.09096,-3.43979c-0.24741,-10.29571 1.3631,-30.72113 3.22102,-40.85084l15.16034,-81.54799z" fill="#808080"/><path d="M554.14454,305.2293l15.16034,81.54799c1.85792,10.12971 3.46843,30.55513 3.22102,40.85084l-0.09096,3.43979c-0.24912,8.48119 -2.43947,25.22229 -4.42899,33.47055c-1.98767,8.2406 -7.63713,24.13741 -11.25222,31.80488l-4.07261,8.57478c-2.09884,4.36306 -7.10913,12.59457 -10.02059,16.46302l-5.29907,6.96864l-14.32804,-10.89528l5.29907,-6.96864c2.38761,-3.1002 6.43228,-9.74526 8.08933,-13.29013l4.07261,-8.57478c3.26009,-6.80806 8.24342,-20.96526 10.01335,-28.30314c1.76809,-7.33022 3.75896,-22.18726 3.93346,-29.72573l0.09096,-3.43979c0.27211,-9.35036 -1.18993,-27.89289 -2.92409,-37.08506l-15.16034,-81.54799z" fill="#ffffff"/><path d="M497.64095,487.94705l-0.44243,4.88239c-0.69201,7.61928 -2.47374,22.8112 -3.56347,30.38384l-2.14868,14.90989l-17.81595,-2.56748l2.14868,-14.90989c1.05896,-7.33725 2.78539,-22.05766 3.45287,-29.44082l0.44243,-4.88239c0.89233,-9.82992 2.1543,-29.52325 2.52392,-39.38666l5.28372,-140.40012l12.47795,0.46959l12.47795,-0.46959l5.28372,140.40012c0.36963,9.86341 1.63159,29.55674 2.52392,39.38666l0.44243,4.88239c0.66747,7.38316 2.39391,22.10357 3.45287,29.44082l2.14868,14.90989l-17.81595,2.56748l-2.14868,-14.90989c-1.08972,-7.57264 -2.87145,-22.76456 -3.56347,-30.38384l-0.44243,-4.88239c-0.77563,-8.5742 -1.82817,-24.47605 -2.35905,-35.24388c-0.53088,10.76783 -1.58342,26.66968 -2.35905,35.24388z" fill="#ffffff"/><path d="M439.62188,500.54325c0,0 -1.70872,0.00318 -3.41743,0.00637c-3.25547,0.00606 -9.17871,-2.42348 -11.84547,-4.31073l-1.10011,-0.92641c-3.14216,-3.00449 -7.28498,-10.23969 -8.28563,-14.4704l-19.39808,-113.5885c-1.59536,-9.42232 -6.24892,-27.89853 -9.30712,-36.95241l-4.12643,-12.27375c-0.95312,-2.87747 -3.3287,-8.43178 -4.72713,-11.12111c-1.0909,-2.09792 -3.94697,-5.61423 -5.91808,-6.92554l-0.00299,-0.00221c-1.26321,-1.36131 -4.27816,-2.10594 -6.0299,-1.48925l-1.97511,0.30216c-1.98702,0.24115 -5.68659,1.52402 -7.45699,2.45581c-2.42972,1.2788 -10.70498,5.6342 -13.1347,6.913c-4.13763,2.1777 -8.27526,4.3554 -8.27526,4.3554l-8.38344,-15.92853c0,0 4.13763,-2.1777 8.27526,-4.3554c2.42972,-1.2788 10.70498,-5.6342 13.1347,-6.913c3.08904,-1.62581 9.67715,-3.73098 13.11837,-4.32027l1.97511,-0.30216c5.27073,-0.45765 14.99307,1.94356 19.44469,4.80242l0.00299,0.00221c3.46688,2.70441 9.16749,9.20143 11.1953,13.10112c1.72028,3.30828 4.61764,10.15916 5.81874,13.68926l4.12643,12.27375c3.25484,9.72377 8.24918,29.55298 9.98867,39.65842l19.39808,113.5885c-0.06064,1.27365 1.00784,3.13971 2.13697,3.73211l1.10011,0.92641c-0.05272,0.31405 0.0555,0.07944 0.21746,0.07914c1.70872,-0.00318 3.41743,-0.00637 3.41743,-0.00637l0.03353,17.99997z" fill="#ffffff"/><path d="M560.37815,500.54326l0.03353,-17.99997c0,0 1.70871,0.00319 3.41743,0.00637c0.16196,0.0003 0.27018,0.23491 0.21746,-0.07914l1.10011,-0.92641c1.12913,-0.5924 2.19761,-2.45846 2.13697,-3.73211l19.39808,-113.5885c1.73949,-10.10544 6.73383,-29.93465 9.98867,-39.65842l4.12643,-12.27375c1.2011,-3.5301 4.09846,-10.38098 5.81874,-13.68926c2.02781,-3.89969 7.72842,-10.39671 11.1953,-13.10112l0.00299,-0.00221c4.45162,-2.85886 14.17396,-5.26007 19.44469,-4.80242l1.97511,0.30216c3.44122,0.58929 10.02933,2.69446 13.11837,4.32027c2.42972,1.2788 10.70498,5.6342 13.1347,6.913c4.13763,2.1777 8.27526,4.3554 8.27526,4.3554l-8.38344,15.92853c0,0 -4.13763,-2.1777 -8.27526,-4.3554c-2.42972,-1.2788 -10.70498,-5.6342 -13.1347,-6.913c-1.7704,-0.93179 -5.46997,-2.21466 -7.45699,-2.45581l-1.97511,-0.30216c-1.75174,-0.61669 -4.76669,0.12794 -6.0299,1.48925l-0.00299,0.00221c-1.97111,1.31131 -4.82718,4.82762 -5.91808,6.92554c-1.39843,2.68933 -3.77401,8.24364 -4.72713,11.12111l-4.12643,12.27375c-3.0582,9.05388 -7.71176,27.53009 -9.30712,36.95241l-19.39808,113.5885c-1.00065,4.23071 -5.14347,11.46591 -8.28563,14.4704l-1.10011,0.92641c-2.66676,1.88725 -8.59,4.31679 -11.84547,4.31073c-1.70871,-0.00319 -3.41743,-0.00637 -3.41743,-0.00637z" fill="#808080"/><path d="M322.99727,444.68455c-0.06459,-0.05953 -0.12899,-0.11798 -0.19319,-0.17531c0.06336,0.05917 0.12776,0.11761 0.19319,0.17531zM322.6439,444.35597c0.05188,0.03906 0.10407,0.07747 0.15656,0.11524c-0.12708,-0.12304 -0.26012,-0.2437 -0.39871,-0.3619c0.07884,0.08344 0.15956,0.16568 0.24215,0.24666zM322.18038,443.98275c0.10813,0.09302 0.21785,0.18302 0.32903,0.27001c-0.11041,-0.09356 -0.22012,-0.18361 -0.32903,-0.27001zM334.46444,430.84755c-0.04446,-0.04287 -0.08882,-0.08533 -0.13306,-0.12739c0.0086,0.00642 0.01719,0.01286 0.02577,0.01932c0.03741,0.03667 0.07442,0.0736 0.11106,0.11079c-0.00126,-0.00091 -0.00251,-0.00182 -0.00376,-0.00273zM246.50863,454.98628c0,0 1.54417,-1.01491 3.08835,-2.02982l24.94515,-16.39522c6.68971,-4.31789 21.10014,-10.58171 28.82087,-12.52765l0.99732,-0.2426c6.90527,-1.26031 18.38265,0.97184 26.04549,4.68057c1.25716,0.33999 2.45987,0.95939 3.51305,1.86536l0.90182,0.77577c-0.15151,-0.13033 -0.30611,-0.25473 -0.46352,-0.37322c-0.14068,-0.13794 -0.28679,-0.27222 -0.4383,-0.40255c0.13635,0.12364 0.27389,0.25144 0.41253,0.38322c-0.36332,-0.27147 -0.74147,-0.51158 -1.131,-0.72061c0.44514,0.27723 0.86738,0.56011 1.26407,0.848c0.00693,0.00668 0.01387,0.01338 0.02081,0.02008c-0.00567,-0.00579 -0.01136,-0.01158 -0.01705,-0.01735c0.11985,0.08703 0.23736,0.17451 0.35247,0.26243c0.6223,0.53532 1.15347,1.1372 1.59205,1.78605c5.39395,6.1193 11.5874,16.53727 13.45888,23.03601l9.88503,38.04217c1.16257,4.57279 2.55772,13.85811 2.7903,18.57063l0.3429,7.77877c0.00976,0.78506 -0.06127,2.35225 -0.19103,3.12618c-0.16645,0.99277 -0.85227,2.88724 -1.26547,3.80674l-4.46954,8.67486c-1.212,2.23483 -4.14517,6.34307 -5.94246,8.14036c-1.30662,1.30662 -2.61324,2.61324 -2.61324,2.61324l-12.72792,-12.72792c0,0 1.30662,-1.30662 2.61324,-2.61324c0.81595,-0.81595 2.18868,-2.60621 2.66935,-3.65664l3.90048,-7.57037l-0.29884,-6.77926c-0.14141,-3.77161 -1.25603,-11.18985 -2.22923,-14.83648l-9.88503,-38.04217c-1.02267,-4.6962 -5.55655,-12.17759 -9.4383,-15.76365l-0.83145,-0.71523c-0.13115,-0.11282 -0.25826,-0.2286 -0.38131,-0.34715c-3.47225,-2.52248 -9.50071,-3.70003 -13.18434,-2.3546l-0.99732,0.2426c-6.26017,1.4549 -17.85464,6.4947 -23.18895,10.07961c-1.54417,1.01491 -28.0335,18.42503 -28.0335,18.42503z" fill="#404040"/><path d="M677.19592,444.50924c-0.0642,0.05733 -0.1286,0.11578 -0.19319,0.17531c0.06543,-0.0577 0.12983,-0.11614 0.19319,-0.17531zM677.59825,444.10931c-0.13859,0.1182 -0.27163,0.23886 -0.39871,0.3619c0.05249,-0.03777 0.10468,-0.07618 0.15656,-0.11524c0.08259,-0.08098 0.16331,-0.16322 0.24215,-0.24666zM677.49059,444.25276c0.11118,-0.08699 0.2209,-0.17699 0.32903,-0.27001c-0.10891,0.0864 -0.21862,0.17645 -0.32903,0.27001zM665.53555,430.84754c-0.00125,0.00091 -0.0025,0.00182 -0.00376,0.00273c0.03664,-0.03719 0.07365,-0.07412 0.11106,-0.11079c0.00858,-0.00646 0.01717,-0.0129 0.02577,-0.01932c-0.04424,0.04206 -0.0886,0.08452 -0.13306,0.12739zM743.60501,470.02823c0,0 -26.48933,-17.41012 -28.0335,-18.42503c-5.33431,-3.58491 -16.92878,-8.62471 -23.18895,-10.07961l-0.99732,-0.2426c-3.68363,-1.34543 -9.71209,-0.16788 -13.18434,2.3546c-0.12305,0.11855 -0.25016,0.23433 -0.38131,0.34715l-0.83145,0.71523c-3.88175,3.58606 -8.41563,11.06745 -9.4383,15.76365l-9.88503,38.04217c-0.9732,3.64663 -2.08782,11.06487 -2.22923,14.83648l-0.29884,6.77926l3.90048,7.57037c0.48067,1.05043 1.8534,2.84069 2.66935,3.65664c1.30662,1.30662 2.61324,2.61324 2.61324,2.61324l-12.72792,12.72792c0,0 -1.30662,-1.30662 -2.61324,-2.61324c-1.79729,-1.79729 -4.73046,-5.90553 -5.94246,-8.14036l-4.46954,-8.67486c-0.4132,-0.9195 -1.09902,-2.81397 -1.26547,-3.80674c-0.12976,-0.77393 -0.20079,-2.34112 -0.19103,-3.12618l0.3429,-7.77877c0.23258,-4.71252 1.62773,-13.99784 2.7903,-18.57063l9.88503,-38.04217c1.87148,-6.49874 8.06493,-16.91671 13.45888,-23.03601c0.43858,-0.64885 0.96975,-1.25073 1.59205,-1.78605c0.11511,-0.08792 0.23262,-0.1754 0.35247,-0.26243c-0.00569,0.00577 -0.01138,0.01156 -0.01705,0.01735c0.00694,-0.0067 0.01388,-0.0134 0.02081,-0.02008c0.39669,-0.28789 0.81893,-0.57077 1.26407,-0.848c-0.38953,0.20903 -0.76768,0.44914 -1.131,0.72061c0.13864,-0.13178 0.27618,-0.25958 0.41253,-0.38322c-0.15151,0.13033 -0.29762,0.26461 -0.4383,0.40255c-0.15741,0.11849 -0.31201,0.24289 -0.46352,0.37322l0.90182,-0.77577c1.05318,-0.90597 2.25589,-1.52537 3.51305,-1.86536c7.66284,-3.70873 19.14022,-5.94088 26.04549,-4.68057l0.99732,0.2426c7.72073,1.94594 22.13116,8.20976 28.82087,12.52765l24.94515,16.39522c1.54418,1.01491 3.08835,2.02982 3.08835,2.02982z" fill="#404040"/><path d="M288.75915,372.30123l29.3751,4.29716c10.19064,1.55856 29.50361,7.91931 38.62595,12.72149l0.86419,0.46214c8.4035,4.56997 23.31346,16.153 29.72025,23.25595c6.37455,7.0672 16.50759,22.91922 20.35365,31.62506l3.36902,7.75565c2.60165,6.13713 5.89126,18.90525 6.46173,25.54634c0.54013,6.2879 0.56284,18.8707 0.07604,25.16297l-0.80835,10.12792c-0.34253,4.09852 -1.65275,12.19448 -2.65024,16.18446c-0.90738,3.6295 -1.81475,7.259 -1.81475,7.259l-17.46257,-4.36564c0,0 0.90738,-3.6295 1.81475,-7.259c0.81725,-3.26902 1.9171,-9.89075 2.16987,-13.25091l0.80835,-10.12792c0.4583,-5.54903 0.40946,-16.6429 -0.06706,-22.19037c-0.44619,-5.19428 -2.90613,-15.15691 -5.03737,-19.91516l-3.36902,-7.75565c-3.15933,-7.42092 -11.80816,-20.75178 -17.21011,-26.74069c-5.3697,-5.95316 -17.74109,-15.71764 -24.84243,-19.43908l-0.86419,-0.46214c-7.69362,-4.19035 -24.06518,-9.58234 -32.74313,-10.78398l-29.3751,-4.29716z" fill="#404040"/><path d="M713.84627,390.11167l-29.3751,4.29716c-8.67795,1.20164 -25.04951,6.59363 -32.74313,10.78398l-0.86419,0.46214c-7.10134,3.72144 -19.47273,13.48592 -24.84243,19.43908c-5.40195,5.98891 -14.05078,19.31977 -17.21011,26.74069l-3.36902,7.75565c-2.13124,4.75825 -4.59118,14.72088 -5.03737,19.91516c-0.47652,5.54747 -0.52536,16.64134 -0.06706,22.19037l0.80835,10.12792c0.25277,3.36016 1.35262,9.98189 2.16987,13.25091c0.90737,3.6295 1.81475,7.259 1.81475,7.259l-17.46257,4.36564c0,0 -0.90737,-3.6295 -1.81475,-7.259c-0.99749,-3.98998 -2.30771,-12.08594 -2.65024,-16.18446l-0.80835,-10.12792c-0.4868,-6.29227 -0.46409,-18.87507 0.07604,-25.16297c0.57047,-6.64109 3.86008,-19.40921 6.46173,-25.54634l3.36902,-7.75565c3.84606,-8.70584 13.9791,-24.55786 20.35365,-31.62506c6.40679,-7.10295 21.31675,-18.68598 29.72025,-23.25595l0.86419,-0.46214c9.12234,-4.80218 28.43531,-11.16293 38.62595,-12.72149l29.3751,-4.29716z" fill="#404040"/><path d="M343.25871,328.07188c0,0 4.0259,0.02377 8.05179,0.04754l13.60911,0.08035c10.31317,0.09371 30.63342,2.68312 40.64051,5.17883l13.4482,3.39939c3.14723,0.8294 9.19799,3.13044 12.07067,4.66003c3.25131,1.73119 8.70605,6.52626 11.00922,9.40284l7.41352,9.8263c6.08303,8.23896 14.41636,26.46892 16.66666,36.45991l5.82877,27.19005c1.71282,8.03173 4.14277,24.24442 4.8599,32.42538l0.00965,0.11144c0.6801,8.56048 -0.64676,25.4706 -2.65372,33.82024l-3.72606,15.03191c-0.14193,0.47485 -0.45569,1.41635 -0.66991,1.86265c-0.01542,0.03213 -0.04626,0.09638 -0.06168,0.1285c-1.74216,3.6295 -6.9378,14.45375 -6.9378,14.45375l-16.22742,-7.78916c0,0 1.74216,-3.6295 3.48432,-7.259c0.01234,-0.02571 2.24669,-4.68061 3.14631,-6.55481l3.52098,-14.20456c1.77017,-6.88831 2.86621,-20.85672 2.19208,-27.93682l-0.00965,-0.11144c-0.65126,-7.6233 -2.91483,-22.72586 -4.52713,-30.20512l-5.82877,-27.19005c-1.63556,-8.13577 -8.35343,-22.83174 -13.43573,-29.39193l-7.41352,-9.8263c-0.96363,-1.45342 -3.56339,-3.5376 -5.09979,-4.35567c-1.91503,-1.01967 -5.91067,-2.59716 -8.02213,-3.09704l-13.4482,-3.39939c-8.93914,-2.29345 -27.10691,-4.60858 -36.33555,-4.63025l-13.60911,-0.08035c-4.0259,-0.02377 -8.05179,-0.04754 -8.05179,-0.04754z" fill="#ffffff"/><path d="M656.84756,346.07156c0,0 -4.02589,0.02377 -8.05179,0.04754l-13.60911,0.08035c-9.22864,0.02167 -27.39641,2.3368 -36.33555,4.63025l-13.4482,3.39939c-2.11146,0.49988 -6.1071,2.07737 -8.02213,3.09704c-1.5364,0.81807 -4.13616,2.90225 -5.09979,4.35567l-7.41352,9.8263c-5.0823,6.56019 -11.80017,21.25616 -13.43573,29.39193l-5.82877,27.19005c-1.6123,7.47926 -3.87587,22.58182 -4.52713,30.20512l-0.00965,0.11144c-0.67413,7.0801 0.42191,21.04851 2.19208,27.93682l3.52098,14.20456c0.89962,1.8742 3.13397,6.5291 3.14631,6.55481c1.74216,3.6295 3.48432,7.259 3.48432,7.259l-16.22742,7.78916c0,0 -5.19564,-10.82425 -6.9378,-14.45375c-0.01542,-0.03212 -0.04626,-0.09637 -0.06168,-0.1285c-0.21422,-0.4463 -0.52798,-1.3878 -0.66991,-1.86265l-3.72606,-15.03191c-2.00696,-8.34964 -3.33382,-25.25976 -2.65372,-33.82024l0.00965,-0.11144c0.71713,-8.18096 3.14708,-24.39365 4.8599,-32.42538l5.82877,-27.19005c2.2503,-9.99099 10.58363,-28.22095 16.66666,-36.45991l7.41352,-9.8263c2.30317,-2.87658 7.75791,-7.67165 11.00922,-9.40284c2.87268,-1.52959 8.92344,-3.83063 12.07067,-4.66003l13.4482,-3.39939c10.00709,-2.49571 30.32734,-5.08512 40.64051,-5.17883l13.60911,-0.08035c4.02589,-0.02377 8.05179,-0.04754 8.05179,-0.04754z" fill="#ffffff"/><path d="M452.29585,240.69406l28.8819,23.7902c4.95442,4.10279 12.38815,11.3649 18.82225,18.21479c6.4341,-6.84989 13.86783,-14.112 18.82225,-18.21479l28.8819,-23.7902l11.44419,13.89354l-28.8819,23.7902c-4.88501,4.00016 -12.39206,11.37968 -18.50296,18.01342l3.64399,4.66855c3.43812,4.4486 9.33878,13.95179 11.75263,19.02951c2.5025,5.2642 5.7287,16.34594 6.55085,22.11667l1.12943,8.49567c1.3059,10.23666 0.82377,30.63685 -0.96426,40.80039l-6.56498,36.19553c-1.81212,9.97543 -6.12739,29.77568 -8.63054,39.60051l-0.67115,2.63126c-1.85883,7.2779 -5.73981,20.66299 -8.54758,29.58633l4.88827,14.74765l-10.93908,3.62587l-0.67533,2.03742l-2.73574,-0.90679l-2.73574,0.90679l-0.67533,-2.03742l-10.93908,-3.62587l4.88827,-14.74765c-2.80778,-8.92334 -6.68875,-22.30844 -8.54758,-29.58633l-0.67115,-2.63126c-2.50315,-9.82483 -6.81842,-29.62508 -8.63054,-39.60051l-6.56498,-36.19553c-1.78802,-10.16354 -2.27015,-30.56373 -0.96426,-40.80039l1.12943,-8.49567c0.82215,-5.77073 4.04835,-16.85247 6.55085,-22.11667c2.41385,-5.07773 8.3145,-14.58091 11.75263,-19.02951l3.64399,-4.66855c-6.1109,-6.63374 -13.61795,-14.01326 -18.50296,-18.01342l-28.8819,-23.7902zM500.56789,465.4805l0.67115,-2.63126c2.43034,-9.51689 6.61087,-28.69891 8.36106,-38.36404l6.56498,-36.19553c1.64605,-8.77001 2.06219,-26.37799 0.83228,-35.21597l-1.12943,-8.49567c-0.53007,-4.40078 -3.06151,-12.75773 -4.96443,-16.76069c-1.99157,-4.18944 -6.80991,-12.04213 -9.68534,-15.68223l-1.21815,-1.56065l-1.21815,1.56065c-2.87544,3.6401 -7.69377,11.49279 -9.68534,15.68223c-1.90293,4.00297 -4.43437,12.35991 -4.96443,16.76069l-1.12943,8.49567c-1.22992,8.83798 -0.81378,26.44596 0.83228,35.21597l6.56498,36.19553c1.75019,9.66513 5.93072,28.84714 8.36106,38.36404l0.67115,2.63126c0.17208,0.67557 0.36226,1.40569 0.56789,2.18129c0.20563,-0.7756 0.39581,-1.50572 0.56789,-2.18129z" fill="#ffffff"/><path d="M680.16761,289.23523l-83.78533,73.86153c-7.05918,6.19285 -19.76429,19.88947 -25.41024,27.39325l-2.00571,2.65235c-4.62789,6.08236 -12.53662,19.06751 -15.81745,25.9703l-0.30347,0.63365c-3.08719,6.36354 -7.47775,19.5778 -8.88545,26.70203c-0.00547,0.0295 -0.01109,0.05902 -0.01686,0.08854c-0.00284,0.01357 -0.00567,0.02718 -0.0085,0.04081c-0.0031,0.01596 -0.00619,0.03188 -0.00926,0.04777c0.00606,-0.02947 0.01199,-0.05899 0.01777,-0.08858l-0.04143,0.21194c-0.01274,0.06517 -0.02615,0.13005 -0.04023,0.19461c-1.31552,6.82145 -1.18462,19.80248 0.29312,26.34687l2.71921,12.83004c0.21131,1.05666 0.82247,3.1142 1.19916,4.12372c0.49322,1.32182 3.98912,10.69085 4.48234,12.01267c1.74796,4.68452 3.49591,9.36903 3.49591,9.36903l-16.86425,6.29263c0,0 -4.25743,-11.4099 -6.00538,-16.09441c-0.49322,-1.32182 -1.47965,-3.96547 -1.97287,-5.28729c-0.60975,-1.63412 -1.57006,-4.9806 -1.94378,-6.68431l-2.71921,-12.83004c-1.65518,-8.23411 -1.82831,-24.4958 -0.39625,-33.20399c0.02364,-0.17394 0.05246,-0.34825 0.08657,-0.52274c0.00632,-0.03161 0.0127,-0.06335 0.01913,-0.09519c-0.00654,0.03165 -0.01291,0.06339 -0.01913,0.09519l0.04143,-0.21194c0.0186,-0.09517 0.03864,-0.1897 0.06009,-0.28356c1.73436,-8.27509 6.7869,-23.4665 10.27369,-30.82884l0.30347,-0.63365c3.71137,-7.69683 12.55861,-22.2229 17.69447,-29.05214l2.00571,-2.65235c6.22622,-8.19598 20.15834,-23.21537 27.86425,-30.03878l83.78533,-73.86153zM526.27743,443.08367c-0.00672,0.03441 -0.01324,0.06881 -0.01956,0.10321c0.00219,-0.01085 0.00439,-0.02171 0.0066,-0.03258c0.00431,-0.02361 0.00864,-0.04715 0.01297,-0.07063zM543.9159,446.67433c-0.00478,0.02491 -0.00953,0.04974 -0.01424,0.07449c0.00485,-0.02484 0.0096,-0.04967 0.01424,-0.07449zM543.92177,446.64273c0.00149,-0.00817 0.00298,-0.01633 0.00445,-0.02449c-0.00636,0.03088 -0.01268,0.06189 -0.01897,0.09304c0.00492,-0.02281 0.00976,-0.04566 0.01451,-0.06855zM526.26251,443.1651c-0.00173,0.00822 -0.00345,0.01644 -0.00516,0.02466c-0.0091,0.04965 -0.01777,0.09927 -0.02602,0.14888c0.01032,-0.05822 0.02071,-0.11607 0.03118,-0.17354z" fill="#ffffff"/><path d="M473.76867,443.33864c-0.00825,-0.04961 -0.01692,-0.09923 -0.02602,-0.14888c-0.00171,-0.00822 -0.00343,-0.01644 -0.00516,-0.02466c0.01047,0.05747 0.02086,0.11532 0.03118,0.17354zM456.07824,446.64273c0.00475,0.02289 0.00959,0.04574 0.01451,0.06855c-0.00629,-0.03115 -0.01261,-0.06216 -0.01897,-0.09304c0.00147,0.00816 0.00296,0.01632 0.00445,0.02449zM456.09834,446.74882c-0.00471,-0.02475 -0.00946,-0.04958 -0.01424,-0.07449c0.00464,0.02482 0.00939,0.04965 0.01424,0.07449zM473.72256,443.08367c0.00433,0.02348 0.00866,0.04702 0.01297,0.07063c0.00221,0.01087 0.00441,0.02173 0.0066,0.03258c-0.00632,-0.0344 -0.01284,-0.0688 -0.01956,-0.10321zM331.73554,275.73282l83.78533,73.86153c7.70591,6.82341 21.63803,21.8428 27.86425,30.03878l2.00571,2.65235c5.13586,6.82924 13.9831,21.35531 17.69447,29.05214l0.30347,0.63365c3.48679,7.36234 8.53933,22.55375 10.27369,30.82884c0.02145,0.09386 0.04149,0.18839 0.06009,0.28356l0.04143,0.21194c-0.00622,-0.0318 -0.01259,-0.06354 -0.01913,-0.09519c0.00643,0.03184 0.01281,0.06358 0.01913,0.09519c0.03411,0.17449 0.06293,0.3488 0.08657,0.52274c1.43206,8.70819 1.25893,24.96988 -0.39625,33.20399l-2.71921,12.83004c-0.37372,1.70371 -1.33403,5.05019 -1.94378,6.68431c-0.49322,1.32182 -1.47965,3.96547 -1.97287,5.28729c-1.74795,4.68451 -6.00538,16.09441 -6.00538,16.09441l-16.86425,-6.29263c0,0 1.74795,-4.68451 3.49591,-9.36903c0.49322,-1.32182 3.98912,-10.69085 4.48234,-12.01267c0.37669,-1.00952 0.98785,-3.06706 1.19916,-4.12372l2.71921,-12.83004c1.47774,-6.54439 1.60864,-19.52542 0.29312,-26.34687c-0.01408,-0.06456 -0.02749,-0.12944 -0.04023,-0.19461l-0.04143,-0.21194c0.00578,0.02959 0.01171,0.05911 0.01777,0.08858c-0.00307,-0.01589 -0.00616,-0.03181 -0.00926,-0.04777c-0.00283,-0.01363 -0.00566,-0.02724 -0.0085,-0.04081c-0.00577,-0.02952 -0.01139,-0.05904 -0.01686,-0.08854c-1.4077,-7.12423 -5.79826,-20.33849 -8.88545,-26.70203l-0.30347,-0.63365c-3.28083,-6.90279 -11.18956,-19.88794 -15.81745,-25.9703l-2.00571,-2.65235c-5.64595,-7.50378 -18.35106,-21.2004 -25.41024,-27.39325l-83.78533,-73.86153z" fill="#404040"/><path d="M721.69332,378.94097l-48.89562,56.91852c-6.27065,7.28281 -17.72161,22.66035 -22.90191,30.75509l-4.79922,7.48053c-2.77696,4.30824 -7.68595,13.27768 -9.81798,17.93889l-2.86535,6.22936c-0.5725,1.07572 -1.16748,3.36981 -1.18996,4.58818l-0.13697,1.78906c-0.09046,0.25685 0.02708,0.72781 0.09934,0.9807c0.29036,1.01626 0.58072,2.03252 0.58072,2.03252l-17.30743,4.94498c0,0 -0.29036,-1.01626 -0.58072,-2.03252c-0.50847,-1.77963 -0.81029,-5.44888 -0.73938,-7.29971l0.13697,-1.78906c0.28445,-2.79079 1.67668,-8.15885 2.78446,-10.73611l2.86535,-6.22936c2.4136,-5.22113 7.92401,-15.28947 11.02083,-20.13667l4.79922,-7.48053c5.53689,-8.61014 17.73603,-24.99242 24.39828,-32.76456l48.89562,-56.91852z" fill="#ffffff"/><path d="M291.96043,367.21176l48.89562,56.91852c6.66225,7.77214 18.86139,24.15442 24.39828,32.76456l4.79922,7.48053c3.09682,4.8472 8.60723,14.91554 11.02083,20.13667l2.86535,6.22936c1.10778,2.57726 2.50001,7.94532 2.78446,10.73611l0.13697,1.78906c0.07091,1.85083 -0.23091,5.52008 -0.73938,7.29971c-0.29036,1.01626 -0.58072,2.03252 -0.58072,2.03252l-17.30743,-4.94498c0,0 0.29036,-1.01626 0.58072,-2.03252c0.07226,-0.25289 0.1898,-0.72385 0.09934,-0.9807l-0.13697,-1.78906c-0.02248,-1.21837 -0.61746,-3.51246 -1.18996,-4.58818l-2.86535,-6.22936c-2.13203,-4.66121 -7.04102,-13.63065 -9.81798,-17.93889l-4.79922,-7.48053c-5.1803,-8.09474 -16.63126,-23.47228 -22.90191,-30.75509l-48.89562,-56.91852z" fill="#ffffff"/></g></svg>