<svg version="1.1" xmlns="http://www.w3.org/2000/svg" xmlns:xlink="http://www.w3.org/1999/xlink" viewBox="0 0 1000 1000"><g fill="none" fill-rule="nonzero" stroke="none" stroke-width="none" stroke-linecap="none" stroke-linejoin="none" stroke-miterlimit="none" stroke-dasharray="" stroke-dashoffset="0" font-family="none" font-weight="none" font-size="none" text-anchor="none" style="mix-blend-mode:normal"><g fill="none" stroke="none" stroke-width="NaN" stroke-linecap="none" stroke-linejoin="none" stroke-miterlimit="NaN" font-family="none" font-weight="none" font-size="NaN" text-anchor="start"><g stroke-width="NaN" stroke-miterlimit="NaN" font-size="NaN"/></g><path d="M692.24236,698.25494l-52.02575,-0.42103l-1.5611,0.1961c-7.56825,0.94308 -17.45394,1.67163 -28.18035,2.15867l4.02628,0.36832l-0.0885,5.67449l30.89492,1.59292l-0.85779,17.97942l-88.16137,-3.86685l-0.0055,-0.67871l-44.76765,-2.30819c-3.57312,-0.70994 -8.46314,-3.04768 -10.36939,-5.46542c-0.98196,-1.24545 -1.89551,-3.28134 -2.46041,-5.44728l-5.41905,-0.49573l0.09079,-10.08135l-136.15503,-3.6257l-0.1768,-17.98717l98.76163,-4.57398c5.66303,-0.61229 16.60525,-1.18793 22.13547,-1.15967l141.51945,0.92426l-1.99717,-0.56345l3.1369,-17.63515l108.94687,8.41616c12.97939,-0.49392 26.13613,-0.80518 34.88655,-0.7645l43.31685,0.21053l0.79286,17.96093l-19.39729,1.81092c-10.08096,0.9248 -30.25638,1.08613 -40.35084,0.32267l-19.59675,-1.51385c-3.74409,0.14537 -7.46238,0.30526 -11.05098,0.47584l0.23918,4.64109l-25.96471,2.99381z" fill="#000000" stroke="none" stroke-width="0" stroke-linecap="round" stroke-linejoin="round" stroke-miterlimit="0"/><path d="M417.04128,357.87648l30.92477,-0.42746c9.39483,-0.65719 21.72957,-1.13191 28.70609,-1.0417l23.32786,0.32245l23.32786,-0.32245c6.97652,-0.09021 19.31126,0.38452 28.70609,1.0417l30.92477,0.42746l-0.24878,17.99828l-7.59515,-0.10499l-0.21813,2.0514l-17.43315,-1.85374c-1.69541,-0.18191 -3.73298,-0.35876 -5.97576,-0.52425l-51.48775,-0.7117l-51.48775,0.7117c-2.24278,0.16549 -4.28036,0.34234 -5.97576,0.52425l-17.43315,1.85374l-0.21813,-2.0514l-7.59515,0.10499z" fill="#404040" stroke="#000000" stroke-width="6" stroke-linecap="round" stroke-linejoin="round" stroke-miterlimit="0"/><path d="M591.98184,436.03952c5.94868,-0.02792 13.72132,2.24982 19.00147,5.55045c5.28016,3.30063 11.0383,9.16321 13.31353,14.64969c3.55735,8.57815 7.40832,26.48757 7.83258,35.76465l6.37264,167.2413c-0.06599,1.93873 -0.58362,4.52863 -1.39259,7.15584l1.28002,0.36836l-2.17166,7.54625c-1.36384,3.46607 -4.41679,7.80835 -7.1656,9.88811c-2.74881,2.07975 -7.7576,3.83701 -11.46392,4.20702l-53.55244,0.25909c-7.65654,0.34221 -14.88389,0.54466 -20.08066,0.52247l-43.95523,-0.21266l-43.95523,0.21266c-5.19677,0.02219 -12.42412,-0.18026 -20.08066,-0.52247l-53.55244,-0.25909c-3.70631,-0.37002 -8.71511,-2.12727 -11.46392,-4.20702c-2.74881,-2.07975 -5.80176,-6.42204 -7.1656,-9.88811l-2.17166,-7.54625l1.28002,-0.36836c-0.80897,-2.62721 -1.3266,-5.21711 -1.39259,-7.15584l6.37264,-167.2413c0.42426,-9.27709 4.27524,-27.1865 7.83258,-35.76465c2.27523,-5.48648 8.03338,-11.34905 13.31353,-14.64969c5.28016,-3.30063 13.05279,-5.57837 19.00147,-5.55045l91.98184,5.5569zM412.61592,464.90838c-3.87939,0.22722 -11.5684,1.13535 -15.42825,1.80701c-0.01922,0.07087 -0.11394,0.22684 -0.38114,0.54229c-0.20285,0.23947 -0.35909,0.36555 -0.47192,0.42563l-0.69632,87.38053c-0.1464,17.23331 -2.60338,51.54496 -4.91395,68.6233l-3.63778,26.78207c-0.14584,0.61251 -0.17268,1.37549 -0.11308,2.19361l3.10432,1.2224c2.99015,1.25617 9.22346,2.48378 12.46662,2.45522l97.45559,1.34306l97.45559,-1.34306c3.24316,0.02856 9.47648,-1.19905 12.46662,-2.45522l3.10432,-1.2224c0.0596,-0.81812 0.03276,-1.5811 -0.11308,-2.19361l-3.63778,-26.78207c-2.31057,-17.07834 -4.76755,-51.38999 -4.91395,-68.6233l-0.69632,-87.38053c-0.11283,-0.06008 -0.26907,-0.18616 -0.47192,-0.42563c-0.2672,-0.31545 -0.36192,-0.47141 -0.38114,-0.54229c-3.85985,-0.67166 -11.54885,-1.57979 -15.42825,-1.80701l-87.38408,-5.27914z" fill="#bfbfbf" stroke="#000000" stroke-width="6" stroke-linecap="round" stroke-linejoin="round" stroke-miterlimit="0"/><path d="M500,459.62924l87.38408,5.27914c3.87939,0.22722 11.5684,1.13535 15.42825,1.80701c0.01922,0.07087 0.11394,0.22684 0.38114,0.54229c0.20285,0.23947 0.35909,0.36555 0.47192,0.42563l0.69632,87.38053c0.1464,17.23331 2.60338,51.54496 4.91395,68.6233l3.63778,26.78207c0.14584,0.61251 0.17268,1.37549 0.11308,2.19361l-3.10432,1.2224c-2.99015,1.25617 -9.22346,2.48378 -12.46662,2.45522l-97.45559,1.34306l-97.45559,-1.34306c-3.24316,0.02856 -9.47648,-1.19905 -12.46662,-2.45522l-3.10432,-1.2224c-0.0596,-0.81812 -0.03276,-1.5811 0.11308,-2.19361l3.63778,-26.78207c2.31057,-17.07834 4.76755,-51.38999 4.91395,-68.6233l0.69632,-87.38053c0.11283,-0.06008 0.26907,-0.18616 0.47192,-0.42563c0.2672,-0.31545 0.36192,-0.47141 0.38114,-0.54229c3.85985,-0.67166 11.54885,-1.57979 15.42825,-1.80701z" fill="none" stroke="#000000" stroke-width="6" stroke-linecap="butt" stroke-linejoin="miter" stroke-miterlimit="10"/><path d="M506.98603,563.48241c-19.58951,-4.89738 -44.9431,-1.41402 -65.11976,-0.998c-4.72834,0.09749 -9.58367,2.10086 -14.15918,0.90444c-0.98801,-0.25835 -1.56237,-2.30683 -0.77969,-2.96282c3.11236,-2.60856 11.95798,-5.37647 16.43588,-5.92565c11.21409,-1.37531 23.38365,0.17791 34.68064,0c22.80293,-0.3591 45.31162,-2.99401 68.11377,-2.99401c14.91767,0 27.73754,2.29934 40.0761,-6.67415c0.02793,-0.02031 -1.40344,4.12569 -1.40344,11.91367c0,5.98802 0,11.97605 0,17.96407c0,11.88843 1.20293,21.93438 3.74251,33.55788c0.89373,4.09052 3.22626,15.18429 0.62375,19.27395c-7.73979,12.16252 -40.70655,11.78892 -53.01896,11.78892c-11.29977,0 -22.60554,0.18713 -33.90095,0.18713c-2.18791,0 8.63434,-0.98248 6.45584,-1.18513c-23.48721,-2.18486 -48.25296,0 -71.85629,0c-8.29294,0 -23.57612,2.89002 -30.31437,-3.24351c-7.77368,-7.07604 0.83813,-20.32223 1.62176,-28.94212c1.39892,-15.38816 6.57024,-54.57133 0,-66.61677" fill="none" stroke="#000000" stroke-width="6" stroke-linecap="round" stroke-linejoin="round" stroke-miterlimit="3"/><path d="M591.81637,539.53031c-6.57024,12.04544 -1.39892,51.22861 0,66.61677c0.78363,8.61988 9.39543,21.86608 1.62176,28.94212c-6.73825,6.13354 -22.02143,3.24351 -30.31437,3.24351c-23.60333,0 -48.36908,-2.18486 -71.85629,0c-2.1785,0.20265 8.64374,1.18513 6.45584,1.18513c-11.29541,0 -22.60118,-0.18713 -33.90095,-0.18713c-12.31241,0 -45.27918,0.3736 -53.01896,-11.78892c-2.60251,-4.08966 -0.26998,-15.18343 0.62375,-19.27395c2.53959,-11.6235 3.74251,-21.66946 3.74251,-33.55788c0,-5.98802 0,-11.97605 0,-17.96407c0,-7.78798 -1.43137,-11.93398 -1.40344,-11.91367c12.33856,8.9735 25.15843,6.67415 40.0761,6.67415c22.80215,0 45.31084,2.63491 68.11377,2.99401c11.29699,0.17791 23.46655,-1.37531 34.68064,0c4.4779,0.54918 13.32351,3.31708 16.43588,5.92565c0.78268,0.65599 0.20832,2.70447 -0.77969,2.96282c-4.57551,1.19642 -9.43084,-0.80695 -14.15918,-0.90444c-20.17666,-0.41601 -45.53025,-3.89937 -65.11976,0.998" fill="none" stroke="#000000" stroke-width="6" stroke-linecap="round" stroke-linejoin="round" stroke-miterlimit="3"/><path d="M596.8064,539.53027c2.25294,-10.13823 -3.97464,9.26194 -4.74052,12.22555c-0.59186,2.29027 -1.37183,9.34827 -1.2475,6.98603c0.27602,-5.24454 2.17326,-33.40594 -8.98204,-30.68862c-9.46804,2.30632 -4.10525,20.84832 -9.98004,25.32435c-2.45595,1.8712 -3.7611,-5.27937 -3.99202,-8.35828c-0.06251,-0.83348 0.07617,-3.26477 -0.2495,-2.49501c-2.57423,6.08453 -1.03069,13.68428 -9.23154,15.96806c-8.15607,2.27131 -23.3527,-5.6682 -28.19361,-11.97605c-0.6307,-0.82183 -5.52852,-9.16261 1.49701,-8.10878c11.81594,1.77239 7.16182,14.0805 0.7485,18.08882c-14.99388,9.37118 -37.81547,9.98004 -54.89022,9.98004c-15.87714,0 -28.32284,-3.12853 -41.41717,-11.97605c-1.1079,-0.74858 -8.03713,-5.78283 -8.17116,-6.73653c-0.47632,-3.38923 13.23482,-5.24511 3.30589,-12.1008c-8.418,-5.81243 -20.76859,-6.59896 -28.94212,-12.8493c-2.21415,-1.69317 5.60595,-0.19087 8.35828,0.2495c4.77255,0.76361 6.71707,1.21348 11.47705,2.49501c13.43385,3.6168 29.89528,6.53061 42.16567,13.22355c4.15966,2.2689 -20.95337,-2.51986 -24.35753,-4.13236c-0.65881,-0.31207 1.44087,0.22923 2.15195,0.38985c2.67583,0.60444 5.32269,1.33067 7.98403,1.99601c4.19918,1.0498 24.59265,8.17359 25.4491,11.47705c1.61126,6.21487 -25.23169,6.05405 -29.44112,5.98802c-2.74291,-0.04303 -10.64396,-1.32504 -7.98403,-1.99601c9.46266,-2.38697 23.51667,0.43088 32.93413,1.49701c4.46857,0.50587 6.44827,0.7977 11.22754,0.499c0.52497,-0.03281 1.99859,-0.34061 1.49701,-0.499c-11.79951,-3.72616 -24.82373,-3.36227 -36.67665,-7.48503c-4.82335,-1.67768 -10.20092,-4.66793 -14.47106,-7.48503c-1.77804,-1.17301 -5.90908,-5.9186 -3.99202,-4.99002c9.59101,4.64565 13.48687,22.16718 14.97006,31.43713c0.6035,3.7719 -1.58184,9.87126 1.96482,11.28992c4.147,1.6588 4.59395,-4.93265 5.02121,-6.2999c2.86951,-9.18244 6.89896,-18.49492 10.47904,-27.44511c1.27353,-3.18381 2.61533,-6.34047 3.99202,-9.48104c0.81514,-1.85955 3.32782,-7.01365 3.49301,-4.99002c0.61081,7.48248 -3.36381,17.63217 -4.99002,24.9501c-0.74387,3.34741 -1.70962,6.64213 -2.49501,9.98004c-0.23173,0.98487 -0.89756,3.92397 -0.499,2.99401c3.83205,-8.94145 12.67642,-47.56026 26.44711,-42.41517c8.05136,3.0082 14.95401,32.87955 17.46507,41.41717c0.88315,3.00272 3.79647,14.73135 7.48503,15.46906c10.388,2.0776 13.85754,-36.96707 15.46906,-43.41317c0.50574,-2.02295 2.37771,-13.34458 6.61178,-11.22754c9.77696,4.88848 11.81212,23.46753 13.3483,32.68463c0.36132,2.1679 2.99161,20.51244 4.86527,19.08683c6.04644,-4.60055 1.60924,-16.84132 12.8493,-16.84132c6.30037,0 12.74552,16.37971 14.72056,21.20758c5.63899,13.78419 8.93697,28.30869 11.47705,42.91417c0.88163,5.06941 -0.0559,15.90418 3.49301,19.96008c0.43813,0.50072 1.82458,0.64287 1.99601,0c2.14391,-8.03967 0,-20.16306 0,-28.44311c0,-1.88184 0.47484,-9.70679 -1.74651,-10.85329c-11.9474,-6.16641 -19.07129,37.09727 -25.9481,28.31836c-9.55114,-12.19295 -4.30861,-34.43659 -7.98403,-48.40319c-0.11863,-0.45078 -3.27625,-10.7115 -6.48703,-9.85529c-11.74372,3.13166 -15.68982,25.38704 -17.21557,35.30439c-0.40782,2.65087 -0.70639,5.31787 -0.998,7.98403c-0.29062,2.65717 -0.16174,5.37621 -0.7485,7.98403c-0.18257,0.81139 -0.88757,2.56192 -1.49701,1.99601c-5.3326,-4.9517 -10.57396,-36.19646 -14.22156,-44.91018c-1.24894,-2.98359 -4.89272,-15.16339 -10.10479,-13.97206c-4.5787,1.04656 -5.55224,6.90966 -6.61178,10.22954c-3.94586,12.36369 -1.98927,33.29184 -5.42665,41.72904c-0.36137,0.88699 -2.05825,-0.49245 -2.55739,-1.30988c-1.04202,-1.70648 -1.16788,-3.8246 -1.74651,-5.73852c-2.36242,-7.81416 -3.81603,-16.11508 -7.48503,-23.45309c-1.48557,-2.97113 -3.2668,-9.34404 -6.20634,-7.79691c-8.73675,4.59829 -11.07249,24.61205 -11.75773,33.24601c-0.37228,4.69081 2.29102,10.50465 -0.7485,14.09681c-3.77807,4.46498 -7.83931,-2.29185 -9.23154,-3.86727c-7.40908,-8.38396 -13.09482,-18.15078 -17.96407,-28.19361c-0.54755,-1.12932 -5.95566,-13.07497 -7.23553,-10.72854c-3.49829,6.41354 -4.01426,29.8636 -5.23952,37.67465c-0.22501,1.43443 -2.26805,15.54635 -5.0524,13.66018c-10.7818,-7.30381 -4.45325,-25.43472 -9.41866,-35.11727c-4.03161,-7.86163 -8.75205,1.25395 -9.48104,4.99002c-0.73499,3.76683 -1.66239,18.91538 2.74451,21.51946c6.10392,3.60687 3.74251,-13.29252 3.74251,-14.78293c0,-2.24551 -0.06602,-4.49199 0,-6.73653c0.01729,-0.58783 0.02129,-2.2885 0.2495,-1.74651c3.40547,8.088 6.53219,17.73607 7.98403,26.44711c0.48494,2.90965 0.43406,9.13255 3.24351,8.23353c3.68664,-1.17972 26.57895,-26.40382 31.43713,-30.93812c2.56991,-2.39859 8.14672,-10.60279 12.3503,-9.98004c6.47978,0.95997 -3.48354,11.53347 -4.36627,12.47505c-1.96452,2.0955 -32.63197,27.2927 -25.9481,18.96208c11.63964,-14.50738 55.39601,-27.19765 72.85429,-32.43513c3.97195,-1.19159 28.29088,-5.78582 29.56587,0.7485c1.29265,6.62487 -7.18894,11.72733 -11.6018,14.22156c-11.97281,6.76724 -23.87265,13.3342 -36.42715,18.96208c-2.97984,1.33579 -20.17661,11.07696 -21.45709,7.23553c-2.0582,-6.1746 12.99611,-13.71608 16.46707,-15.71856c20.53249,-11.84567 40.84657,-24.93468 62.37525,-34.93014c2.7852,-1.29313 27.03557,-11.99988 26.44711,-1.99601c-0.49329,8.38589 -32.31112,29.48836 -39.42116,33.93214c-5.92459,3.70287 -13.93599,10.34428 -20.70858,12.22555c-1.20466,0.33463 -3.56569,0.98821 -3.74251,-0.2495c-0.51422,-3.59949 8.92133,-11.41634 10.97804,-13.47305c12.73827,-12.73827 26.96499,-23.97173 39.42116,-36.92615c7.66401,-7.97058 13.85331,-16.64141 20.45908,-25.4491c0.65688,-0.87585 8.47514,-10.51376 8.48303,-10.47904c1.96306,8.63749 -3.60939,23.47191 -4.49102,32.43513c-0.28679,2.91572 -0.72453,5.81553 -0.998,8.73253c-0.2334,2.48963 -0.29959,9.97761 -0.499,7.48503c-0.78019,-9.75233 -1.88275,-46.98136 -4.74052,-53.26846c-0.30637,-0.67401 -1.54892,0.65874 -1.74651,1.37226c-0.60092,2.17 -0.42521,4.48608 -0.499,6.73653c-0.09266,2.82616 0,5.65535 0,8.48303c0,6.87402 2.98159,20.69346 0.7485,26.94611c-0.35049,0.98137 -1.18888,-1.74903 -1.49701,-2.74451c-1.23495,-3.98985 -1.88409,-8.13853 -2.74451,-12.22555c-1.81666,-8.62914 -2.49501,-17.64069 -2.49501,-26.44711c0,-2.57818 0,-5.15635 0,-7.73453c0,-0.58217 0.10414,-2.31929 0,-1.74651c-2.53149,13.92315 -5.10892,27.79052 -6.48703,41.91617c-0.38796,3.9766 -0.499,7.98057 -0.499,11.97605c0,1.66334 0.16551,3.33493 0,4.99002c-0.08639,0.86398 -0.24382,3.20157 -0.7485,2.49501c-6.50918,-9.11285 -4.24152,-28.97112 -4.24152,-39.42116c0,-2.93425 1.59609,-16.08058 -2.18313,-17.34032c-6.32941,-2.1098 -7.88701,8.37101 -8.79491,11.8513c-2.72247,10.43612 -1.99601,21.24182 -1.99601,31.93613c0,4.44943 0,8.89887 0,13.3483c0,0.04158 0,0.16633 0,0.12475c0,-16.8988 0.84866,-34.05247 -0.499,-50.8982c-0.17866,-2.2333 -0.25037,-17.23594 -3.61776,-18.21357c-6.91246,-2.00685 -9.22495,6.80775 -10.85329,11.22754c-4.52907,12.2932 -2.99401,26.08875 -2.99401,38.92216c0,2.49218 1.27647,13.88071 -0.43663,15.59381c-2.04998,2.04998 -7.09922,-10.09435 -7.54741,-11.10279c-4.82643,-10.85946 -6.98257,-22.21528 -10.47904,-33.43313c-0.87567,-2.80945 -3.81876,-8.47552 -5.98802,-6.48703c-3.19737,2.93093 -0.63779,8.65157 -0.998,12.97405c-0.86047,10.32568 -1.9094,20.59239 -2.49501,30.93812c-0.32686,5.77465 0.11669,9.11221 -1.2475,14.72056c-0.20237,0.832 -0.72181,2.9214 -1.2475,2.24551c-1.57857,-2.02959 -1.21953,-10.83695 -1.49701,-13.47305c-1.17971,-11.20726 -1.99601,-22.66319 -1.99601,-33.93214c0,-4.82953 1.49203,-14.26114 -0.998,-18.46307c-1.98123,-3.34334 -8.19734,10.34952 -8.48303,10.97804c-6.75452,14.85995 -10.2087,31.59906 -13.97206,47.40519c-0.99051,4.16014 -2.15533,8.28166 -2.99401,12.47505c-0.36471,1.82356 -0.72743,3.64914 -0.998,5.48902c-0.14571,0.9908 -0.56619,3.94408 -0.2495,2.99401c4.20598,-12.61793 8.14894,-25.34123 12.72455,-37.92415c0.46242,-1.27166 5.8403,-13.13996 3.36826,-14.47106c-4.9741,-2.67836 -10.22584,3.38658 -12.8493,6.48703c-7.43238,8.78373 -13.14203,20.38993 -15.96806,31.43713c-0.93788,3.66626 0.30566,8.42687 -2.37026,11.10279c-2.40646,2.40646 -4.89645,-5.09525 -5.86327,-8.35828c-2.28541,-7.71325 -1.24351,-19.6432 -6.48703,-26.1976c-0.79134,-0.98918 -2.44638,-2.21062 -3.49301,-1.49701c-1.81712,1.23894 -9.27993,33.47778 -9.73054,38.17365c-0.16124,1.68028 -2.25494,11.67968 3.74251,6.98603c9.00086,-7.04416 9.0664,-24.97544 19.02445,-31.31238c0.74524,-0.47424 1.50183,1.54564 1.18513,2.37026c-0.91856,2.3917 -2.91468,4.21783 -4.49102,6.23752c-1.08789,1.39387 -2.28657,2.6994 -3.49301,3.99202c-6.49489,6.95881 -13.53806,13.43499 -19.96008,20.45908c-3.31534,3.62615 -6.46633,7.39937 -9.73054,11.07161c-0.10542,0.1186 -0.37067,0.5079 -0.2495,0.40544c6.80795,-5.75673 13.68672,-10.68306 21.20758,-15.46906c2.0826,-1.3253 4.0927,-2.76997 6.23752,-3.99202c1.5782,-0.89921 6.57848,-2.72439 5.23952,-1.49701c-6.26338,5.74144 -16.17458,9.61253 -23.70259,13.47305c-4.0398,2.0717 -8.0342,4.23454 -11.97605,6.48703c-0.64586,0.36906 -2.40863,1.61694 -1.99601,0.998c7.94719,-11.92078 26.53256,-18.95364 38.42315,-25.9481c3.22549,-1.89735 8.53054,-5.81136 12.72455,-4.49102c7.29827,2.2976 -11.84328,14.50073 -13.28593,16.49825c-0.36465,0.50489 1.21496,0.65525 1.80888,0.46781c2.44838,-0.77271 4.60224,-2.28999 6.98603,-3.24351c5.5831,-2.23323 12.90348,-5.48019 18.96208,-6.23752c2.48261,-0.31032 8.3898,-0.22375 7.23553,1.99601c-2.5449,4.89404 -13.05706,9.60348 -17.71457,12.97405c-2.02125,1.46275 -8.32417,5.36708 -5.98802,4.49102c16.02504,-6.00939 30.29389,-16.54408 45.65868,-23.9521c0.34887,-0.16821 10.85453,-7.12888 13.22355,-1.99601c2.29949,4.98222 -20.20236,26.31033 -23.20359,31.31238c-0.39575,0.65958 11.76557,-3.94593 12.97405,-4.36627c9.27136,-3.22482 18.92278,-5.60395 28.44311,-7.98403c11.66566,-2.91642 40.04429,-9.09027 51.89621,-4.49102c6.74412,2.61712 -2.61458,12.86257 -6.23752,12.97405c-5.30343,0.16319 -0.83636,-8.06618 -0.7485,-8.23353c3.07047,-5.84851 8.89983,-12.40736 14.97006,-15.21956c2.51784,-1.16645 9.05449,-1.702 7.48503,4.49102c-1.03302,4.07624 -16.14847,11.66254 -19.71058,13.72255c-2.49916,1.4453 -8.89964,4.60328 -8.48303,1.74651c0.27801,-1.90633 6.35237,-7.62797 7.36028,-8.73253c1.84334,-2.0201 7.82845,-7.64031 5.86327,-5.73852c-3.24213,3.13754 -30.03957,19.80131 -33.43313,10.97804c-4.29954,-11.17879 20.69056,-31.12331 27.94411,-36.92615c1.95874,-1.56699 8.04748,-8.28966 11.3523,-6.48703c5.34052,2.91302 -4.51723,10.86063 -6.36228,12.47505c-11.25409,9.84733 -23.0733,17.35406 -35.92814,24.9501c-1.91155,1.12955 -15.58455,11.45309 -17.71457,5.48902c-0.84521,-2.36658 4.38578,-9.73026 5.23952,-10.97804c8.43487,-12.3279 20.39161,-23.38563 30.93812,-33.93214c2.45726,-2.45725 11.35581,-12.25548 15.28194,-10.85329c7.79758,2.78485 -12.87383,16.76123 -14.78293,18.33832c-16.3252,13.48604 -34.98869,25.1184 -52.89421,36.42715c-2.65803,1.67876 -12.45995,10.07973 -15.96806,6.23752c-4.45249,-4.87654 8.77845,-18.23912 11.47705,-21.20758c12.08468,-13.29314 26.76159,-24.04852 38.92216,-37.42515c4.52391,-4.97631 10.57016,-14.62218 17.15319,-17.09082c0.69569,-0.26088 -0.18468,1.5725 -0.68613,2.12076c-2.40247,2.62671 -5.70337,4.2633 -8.48303,6.48703c-6.4673,5.17384 -13.04117,10.23802 -19.46108,15.46906c-15.38864,12.53889 -31.28322,24.56978 -46.40719,37.42515c-1.88706,1.604 -15.76721,13.75151 -18.02645,11.04042c-4.77656,-5.73187 5.91261,-16.89516 9.04441,-20.52146c12.55704,-14.53974 25.77142,-28.45505 38.42315,-42.91417c2.92288,-3.34043 9.8944,-13.89316 14.09681,-15.46906c2.4922,-0.93458 1.27022,5.7172 -0.12475,7.98403c-4.68881,7.61932 -12.19986,14.19587 -18.46307,20.45908c-8.59214,8.59214 -41.56704,40.88169 -51.77146,44.16168c-6.28896,2.02145 4.74522,-11.57491 4.86527,-11.72655c1.90372,-2.40471 3.94063,-4.7024 5.98802,-6.98603c11.0538,-12.32924 23.2236,-23.7226 34.93014,-35.42914c2.99402,-2.99402 5.84457,-6.13871 8.98204,-8.98204c1.27045,-1.15134 2.58455,-2.2644 3.99202,-3.24351c0.51995,-0.3617 2.21065,-1.17948 1.74651,-0.7485c-18.74078,17.40215 -39.42351,34.06353 -62.12575,45.90818c-5.41086,2.82305 -20.42284,13.79185 -26.94611,7.73453c-5.21649,-4.84389 3.22069,-11.45423 5.98802,-14.22156c10.60615,-10.60614 22.44222,-20.44943 34.43114,-29.44112c4.3135,-3.23512 10.74984,-9.98004 16.71657,-9.98004c0.83167,0 2.34253,0.74097 1.99601,1.49701c-4.62635,10.09386 -37.35583,26.77075 -47.65469,32.43513c-2.3742,1.3058 -10.98781,7.3227 -13.97206,6.23752c-2.51694,-0.91525 1.42564,-5.53299 3.49301,-7.23553c9.1228,-7.51289 19.63194,-13.02802 28.44311,-20.95808c2.1344,-1.92096 6.58345,-6.11872 8.23353,-7.98403c0.44426,-0.50222 1.66851,-1.74651 0.998,-1.74651c-10.65032,0 -40.67501,15.72116 -51.64671,20.20958c-5.41588,2.21559 -10.62405,4.61092 -15.96806,6.98603c-2.82835,1.25704 -11.35282,3.25186 -9.23154,0.998c5.60081,-5.95086 17.95199,-7.82691 25.1996,-10.97804c10.01261,-4.3533 18.9677,-9.88727 27.94411,-15.96806c2.24658,-1.52187 14.26608,-9.63391 15.71856,-2.99401c1.58604,7.25046 -24.70319,24.68924 -30.18962,28.44311c-4.1916,2.86794 -9.67834,7.86978 -14.72056,8.98204c-0.89059,0.19646 -2.90287,-0.30703 -2.49501,-1.12275c4.00137,-8.00274 25.20452,-18.77925 32.68463,-25.32435c4.21154,-3.68509 8.77677,-10.50418 14.22156,-12.31911c0.80419,-0.26807 1.44521,1.61894 0.998,2.33907c-2.4505,3.94603 -9.30829,7.08838 -13.22355,9.48104c-9.53158,5.82486 -18.64046,12.39573 -26.1976,20.70858c-0.55548,0.61103 8.6466,-8.64046 8.73253,-8.73253c5.73705,-6.14684 11.21132,-12.39239 16.46707,-18.96208c1.47681,-1.84601 2.94457,-3.70094 4.49102,-5.48902c1.11627,-1.29069 2.3177,-2.50534 3.49301,-3.74251c0.40503,-0.42635 1.80881,-1.42291 1.2475,-1.2475c-10.55238,3.29762 -22.58995,10.58693 -31.18762,17.46507c-3.46929,2.77543 -8.64459,8.5249 -13.5978,8.23353c-6.53671,-0.38452 4.0393,-12.91886 4.39746,-14.627c0.1866,-0.88991 -0.62309,-2.80579 -1.40344,-2.33907c-5.02869,3.00759 -19.31058,28.12613 -26.44711,24.7006c-3.13673,-1.50564 1.76575,-7.16947 4.36627,-9.48104c9.73845,-8.6564 22.90715,-17.56882 30.68862,-27.94411" fill="none" stroke="#000000" stroke-width="6" stroke-linecap="round" stroke-linejoin="round" stroke-miterlimit="3"/><path d="M436.14458,371.01048l-0.998,62.87425l-17.99773,-0.28568l0.998,-62.87425z" fill="#000000" stroke="#000000" stroke-width="6" stroke-linecap="round" stroke-linejoin="round" stroke-miterlimit="0"/><path d="M581.85316,370.7248l0.998,62.87425l-17.99773,0.28568l-0.998,-62.87425z" fill="#000000" stroke="#000000" stroke-width="6" stroke-linecap="round" stroke-linejoin="round" stroke-miterlimit="0"/><path d="M455.10059,361.24731l-2.99401,74.8503l-17.98562,-0.71942l2.99401,-74.8503z" fill="#404040" stroke="#000000" stroke-width="6" stroke-linecap="round" stroke-linejoin="round" stroke-miterlimit="0"/><path d="M562.88502,360.52789l2.99401,74.8503l-17.98562,0.71942l-2.99401,-74.8503z" fill="#000000" stroke="#000000" stroke-width="6" stroke-linecap="round" stroke-linejoin="round" stroke-miterlimit="0"/><path d="M474.06125,360.49398l2.70227,61.72736c0.03967,3.96492 -1.50628,11.56412 -3.0919,15.19841l-2.47482,5.18745l-16.24588,-7.75057l2.47482,-5.18745c0.88921,-1.55317 1.56671,-4.88346 1.355,-6.66059l-2.70227,-61.72736z" fill="#000000" stroke="#000000" stroke-width="6" stroke-linecap="round" stroke-linejoin="round" stroke-miterlimit="0"/><path d="M543.92153,361.28122l-2.70227,61.72736c-0.2117,1.77713 0.4658,5.10743 1.355,6.66059l2.47482,5.18745l-16.24588,7.75057l-2.47482,-5.18745c-1.58562,-3.63428 -3.13157,-11.23348 -3.0919,-15.19841l2.70227,-61.72736z" fill="#404040" stroke="#000000" stroke-width="6" stroke-linecap="round" stroke-linejoin="round" stroke-miterlimit="0"/><path d="M495.02447,366.12752l-1.99601,71.85629l-17.99306,-0.49981l1.99601,-71.85629z" fill="#404040" stroke="#000000" stroke-width="6" stroke-linecap="round" stroke-linejoin="round" stroke-miterlimit="0"/><path d="M522.96859,365.62772l1.99601,71.85629l-17.99306,0.49981l-1.99601,-71.85629z" fill="#404040" stroke="#000000" stroke-width="6" stroke-linecap="round" stroke-linejoin="round" stroke-miterlimit="0"/><path d="M506.00242,436.98932l-6.00242,-0.16908l-6.00242,0.16908l-0.00953,-0.33843l-5.97849,-0.16841l1.99601,-70.85828l9.99444,0.28153l9.99444,-0.28153l1.99601,70.85828l-5.97849,0.16841z" fill="#000000" stroke="#000000" stroke-width="6" stroke-linecap="round" stroke-linejoin="round" stroke-miterlimit="0"/><path d="M457.32694,354.75171l4.97166,-20.27029c2.35654,-9.11072 2.54945,-27.3799 0.38581,-36.53836l-6.46572,-28.99525c-0.80407,-4.69101 -0.04932,-13.89749 1.93859,-18.21542c2.24833,-4.8836 10.59363,-10.84302 15.78232,-12.33701l14.79502,-2.80891c2.89737,-0.31412 7.32287,0.19811 11.26538,1.28657c3.94252,-1.08846 8.36801,-1.60069 11.26538,-1.28657l14.79502,2.80891c5.18869,1.49398 13.53398,7.45341 15.78232,12.33701c1.98791,4.31793 2.74266,13.52441 1.93859,18.21542l-6.46572,28.99525c-2.16364,9.15845 -1.97073,27.42763 0.38581,36.53836l4.97166,20.27029l-13.84826,3.39654l-0.20747,5.74546l-28.61733,-1.0334l-28.61733,1.0334l-0.20747,-5.74546zM526.27246,260.88641c0.0541,0.39981 0.11069,0.8132 0.16916,1.23616c-0.0368,-0.41205 -0.09468,-0.82868 -0.16916,-1.23616zM473.72754,260.88641c-0.07449,0.40748 -0.13236,0.82412 -0.16916,1.23616c0.05848,-0.42296 0.11506,-0.83636 0.16916,-1.23616z" fill="#404040" stroke="#000000" stroke-width="6" stroke-linecap="round" stroke-linejoin="round" stroke-miterlimit="0"/><path d="M506.5573,250.33467l7.19733,4.23137c5.15242,3.63966 11.22179,13.52062 12.13875,19.76192l0.1675,2.68312c0.34841,5.98227 -0.16544,17.89458 -1.0277,23.82462l-5.15428,34.43797l-17.80172,-2.66436l5.15428,-34.43797c0.77148,-4.98573 1.20368,-15.0051 0.86439,-20.03875l-0.1675,-2.68312c0.39675,-2.0915 -1.2514,-4.7747 -3.29631,-5.36641l-7.19733,-4.23137z" fill="#000000" stroke="#000000" stroke-width="6" stroke-linecap="round" stroke-linejoin="round" stroke-miterlimit="0"/><path d="M419.16168,659.29079c14.57603,-3.64401 30.00155,-16.20452 42.91417,-23.9521c3.29846,-1.97907 10.75398,-10.37517 15.15719,-8.35828c7.26607,3.32822 11.44434,18.3994 17.77695,23.82735" fill="none" stroke="#000000" stroke-width="6" stroke-linecap="round" stroke-linejoin="round" stroke-miterlimit="3"/><path d="M497.00599,653.30277c8.25321,-2.56766 14.5821,-6.55577 20.45908,-12.97405c1.32974,-1.45222 4.77122,-8.7576 8.98204,-5.73852c3.9597,2.83903 9.43433,9.78953 12.97405,13.72255" fill="none" stroke="#000000" stroke-width="6" stroke-linecap="round" stroke-linejoin="round" stroke-miterlimit="3"/><path d="M495.91065,648.34603l-1.14883,-0.58598c-2.07457,-1.52961 -5.13353,-5.44136 -6.11791,-7.82349l-6.30147,-27.13302c-3.36835,-14.57842 -7.57027,-44.09611 -8.40383,-59.03537l-5.87929,-107.55901l17.97317,-0.98243l5.87929,107.55901c0.75715,14.16209 4.73916,42.13498 7.96402,55.94579l6.30147,27.13302c-0.49549,-0.80545 -1.46474,-2.09382 -2.31526,-3.10744z" fill="#bfbfbf" stroke="#000000" stroke-width="6" stroke-linecap="round" stroke-linejoin="round" stroke-miterlimit="0"/><path d="M533.94949,434.6351l1.19237,102.39974c0.1706,16.70012 -2.86195,49.79119 -6.06508,66.18214l-6.27427,31.86447l-17.66089,-3.47752l6.27427,-31.86447c3.07114,-15.47353 5.93473,-46.72104 5.72719,-62.49504l-1.19237,-102.39974z" fill="#bfbfbf" stroke="#000000" stroke-width="6" stroke-linecap="round" stroke-linejoin="round" stroke-miterlimit="0"/><path d="M504.97839,444.98864l9.98004,122.75449l-17.9408,1.4586l-9.98004,-122.75449z" fill="#ffffff" stroke="#000000" stroke-width="6" stroke-linecap="round" stroke-linejoin="round" stroke-miterlimit="0"/><path d="M556.77189,455.27885l-3.52167,2.26976c-2.48771,1.51447 -7.80904,3.702 -10.64265,4.37505l-11.41819,2.40443c-8.5067,1.72687 -25.63072,2.41078 -34.24805,1.36781l-54.97385,-7.05925l2.29257,-17.85341l54.97385,7.05925c7.11188,0.97684 21.23508,0.41278 28.2464,-1.12812l11.41819,-2.40443c1.26622,-0.19029 3.5664,-1.13586 4.60036,-1.89115l3.52167,-2.26976z" fill="#bfbfbf" stroke="#000000" stroke-width="6" stroke-linecap="round" stroke-linejoin="round" stroke-miterlimit="0"/><path d="M618.76248,561.4864c18.92178,7.09567 42.78996,31.87704 17.96407,49.4012c-16.65737,11.75814 -39.70228,10.47904 -58.88224,10.47904" fill="none" stroke="#000000" stroke-width="6" stroke-linecap="round" stroke-linejoin="round" stroke-miterlimit="3"/><path d="M439.62076,498.11315c5.19362,18.17765 14.47106,38.35686 14.47106,57.38523" fill="none" stroke="#000000" stroke-width="6" stroke-linecap="round" stroke-linejoin="round" stroke-miterlimit="3"/><path d="M570.85828,491.62612c35.30583,0 0.94822,33.17356 -9.98004,41.91617" fill="none" stroke="#000000" stroke-width="6" stroke-linecap="round" stroke-linejoin="round" stroke-miterlimit="3"/><path d="M444.11178,454.69998c-11.64228,2.91057 -24.11826,2.95833 -35.92814,5.48902" fill="none" stroke="#000000" stroke-width="6" stroke-linecap="round" stroke-linejoin="round" stroke-miterlimit="3"/><path d="M428.14371,499.61015c-0.66534,-1.996 -1.33067,-3.99201 -1.99601,-5.98802" fill="none" stroke="#000000" stroke-width="6" stroke-linecap="round" stroke-linejoin="round" stroke-miterlimit="3"/><path d="M552.89421,530.54828c-0.41583,-0.83167 -0.83167,-1.66334 -1.2475,-2.49501" fill="none" stroke="#000000" stroke-width="6" stroke-linecap="round" stroke-linejoin="round" stroke-miterlimit="3"/><path d="M557.88423,503.60217" fill="none" stroke="#000000" stroke-width="6" stroke-linecap="round" stroke-linejoin="round" stroke-miterlimit="3"/><path d="M529.94012,543.52233c0,0.499 0,0.998 0,1.49701" fill="none" stroke="#000000" stroke-width="6" stroke-linecap="round" stroke-linejoin="round" stroke-miterlimit="3"/><path d="M489.02196,538.53231c1.85856,11.77089 -6.37828,20.267 -5.48902,30.93812" fill="none" stroke="#000000" stroke-width="6" stroke-linecap="round" stroke-linejoin="round" stroke-miterlimit="3"/><path d="M519.96008,513.58221" fill="none" stroke="#000000" stroke-width="6" stroke-linecap="round" stroke-linejoin="round" stroke-miterlimit="3"/><path d="M508.98204,514.08122c1.85637,-7.16031 5.36369,-16.40417 10.97804,-21.45709" fill="none" stroke="#000000" stroke-width="6" stroke-linecap="round" stroke-linejoin="round" stroke-miterlimit="3"/><path d="M515.46906,580.44848c-3.26355,-11.74881 -3.49301,-21.8785 -3.49301,-33.93214" fill="none" stroke="#000000" stroke-width="6" stroke-linecap="round" stroke-linejoin="round" stroke-miterlimit="3"/><path d="M502.99401,622.36465c-3.44935,3.06609 -7.01831,2.99401 -11.47705,2.99401" fill="none" stroke="#000000" stroke-width="6" stroke-linecap="round" stroke-linejoin="round" stroke-miterlimit="3"/><path d="M503.99202,631.34668c-8.06282,-2.48087 -8.98204,-10.66749 -8.98204,-17.96407" fill="none" stroke="#000000" stroke-width="6" stroke-linecap="round" stroke-linejoin="round" stroke-miterlimit="3"/><path d="M517.96407,578.45247c0,-25.16457 14.46837,-45.57193 28.94212,-64.87026" fill="none" stroke="#000000" stroke-width="6" stroke-linecap="round" stroke-linejoin="round" stroke-miterlimit="3"/><path d="M482.03593,570.46844c12.45785,-1.34162 24.75736,8.98204 37.92415,8.98204" fill="none" stroke="#000000" stroke-width="6" stroke-linecap="round" stroke-linejoin="round" stroke-miterlimit="3"/><path d="M535.92814,581.44648c2.23956,6.54641 2.55176,13.10415 1.49701,19.96008" fill="none" stroke="#000000" stroke-width="6" stroke-linecap="round" stroke-linejoin="round" stroke-miterlimit="3"/><path d="M504.49101,625.2339c-0.68612,-2.07917 -2.35014,-4.06758 -2.05838,-6.23752c1.3559,-10.0845 29.83722,-39.08059 38.48553,-42.53992" fill="none" stroke="#000000" stroke-width="6" stroke-linecap="round" stroke-linejoin="round" stroke-miterlimit="3"/><path d="M491.01796,528.55227c2.00648,14.04537 1.47726,28.30489 3.49301,42.41517c2.41809,16.92663 10.14612,35.31944 6.48703,52.39521" fill="none" stroke="#000000" stroke-width="6" stroke-linecap="round" stroke-linejoin="round" stroke-miterlimit="3"/><path d="M519.96008,543.52233c-29.04413,0 -40.14305,-19.4765 -63.87226,-25.9481" fill="none" stroke="#000000" stroke-width="6" stroke-linecap="round" stroke-linejoin="round" stroke-miterlimit="3"/><path d="M507.98403,561.4864c-15.93459,4.60333 -33.2332,13.97206 -49.9002,13.97206" fill="none" stroke="#000000" stroke-width="6" stroke-linecap="round" stroke-linejoin="round" stroke-miterlimit="3"/><path d="M480.03992,585.4385c15.35704,11.20161 -1.25599,15.004 -3.99202,25.9481" fill="none" stroke="#000000" stroke-width="6" stroke-linecap="round" stroke-linejoin="round" stroke-miterlimit="3"/><path d="M580.83832,633.34269c1.84336,7.37346 2.33619,16.38716 2.99401,23.9521" fill="none" stroke="#000000" stroke-width="6" stroke-linecap="round" stroke-linejoin="round" stroke-miterlimit="3"/><path d="M533.93214,651.80576c0,2.49501 0,4.99002 0,7.48503" fill="none" stroke="#000000" stroke-width="6" stroke-linecap="round" stroke-linejoin="round" stroke-miterlimit="3"/><path d="M527.94411,671.26684c-3.31798,-6.22121 -6.04254,-11.38688 -6.98603,-18.46307" fill="none" stroke="#000000" stroke-width="6" stroke-linecap="round" stroke-linejoin="round" stroke-miterlimit="3"/><path d="M399.2016,663.28281c-0.767,-5.7525 -3.29171,-9.823 -2.49501,-15.71856" fill="none" stroke="#000000" stroke-width="6" stroke-linecap="round" stroke-linejoin="round" stroke-miterlimit="3"/><path d="M457.08583,659.29079c-9.14203,-6.85652 -5.07813,-21.69177 -1.99601,-30.93812" fill="none" stroke="#000000" stroke-width="6" stroke-linecap="round" stroke-linejoin="round" stroke-miterlimit="3"/><path d="M417.16567,574.70995c-5.73065,4.29799 -12.00098,7.75116 -17.96407,11.72655" fill="none" stroke="#000000" stroke-width="6" stroke-linecap="round" stroke-linejoin="round" stroke-miterlimit="3"/><path d="M390.21956,618.37263c10.43365,-2.98104 20.54916,-6.20336 31.18762,-8.48303" fill="none" stroke="#000000" stroke-width="6" stroke-linecap="round" stroke-linejoin="round" stroke-miterlimit="3"/><path d="M382.23553,532.54429c6.15436,0 12.30872,0 18.46307,0" fill="none" stroke="#000000" stroke-width="6" stroke-linecap="round" stroke-linejoin="round" stroke-miterlimit="3"/><path d="M400.1996,587.93351c-4.14466,0.63764 -7.90166,0.5196 -11.97605,-0.499" fill="none" stroke="#000000" stroke-width="6" stroke-linecap="round" stroke-linejoin="round" stroke-miterlimit="3"/><path d="M622.7545,526.05726c0.33266,-0.16633 0.66533,-0.33267 0.998,-0.499" fill="none" stroke="#000000" stroke-width="6" stroke-linecap="round" stroke-linejoin="round" stroke-miterlimit="3"/><path d="M617.76447,611.3866c-5.82169,0 -11.64338,0 -17.46507,0" fill="none" stroke="#000000" stroke-width="6" stroke-linecap="round" stroke-linejoin="round" stroke-miterlimit="3"/><path d="M606.53693,653.17802c9.63232,4.04557 10.68861,4.65561 10.47904,3.11876c-1.08395,-7.94892 -10.88958,-30.0961 -7.23553,-22.95409c3.72695,7.2845 7.31869,14.63739 10.97804,21.95609" fill="none" stroke="#000000" stroke-width="6" stroke-linecap="round" stroke-linejoin="round" stroke-miterlimit="3"/><path d="M717.11543,693.21619l19.96008,-0.998l0.89888,17.97754l-19.96008,0.998z" fill="#000000" stroke="none" stroke-width="0" stroke-linecap="round" stroke-linejoin="round" stroke-miterlimit="0"/><path d="M714.41571,704.18435l57.88423,-0.998l0.3103,17.99733l-57.88423,0.998z" fill="#000000" stroke="none" stroke-width="0" stroke-linecap="round" stroke-linejoin="round" stroke-miterlimit="0"/><path d="M760.97804,721.16704c-24.11046,2.41105 -48.14359,1.99601 -72.35529,1.99601" fill="none" stroke="#000000" stroke-width="6" stroke-linecap="round" stroke-linejoin="round" stroke-miterlimit="3"/><path d="M767.46507,722.16504c3.9449,0.69616 7.9966,0.53884 11.97605,0.998c2.16481,0.24979 -3.81004,3.57191 -3.24351,5.67615c0.34361,1.27626 2.49501,0.87325 3.74251,1.30988" fill="none" stroke="#000000" stroke-width="6" stroke-linecap="round" stroke-linejoin="round" stroke-miterlimit="3"/><path d="M758.48303,734.14109c5.50054,-0.67353 10.93722,-1.65039 16.46707,-1.99601" fill="none" stroke="#000000" stroke-width="6" stroke-linecap="round" stroke-linejoin="round" stroke-miterlimit="3"/><path d="M803.39321,720.16904c2.49501,0 4.99002,0 7.48503,0" fill="none" stroke="#000000" stroke-width="6" stroke-linecap="round" stroke-linejoin="round" stroke-miterlimit="3"/><path d="M715.06988,706.19698c8.64936,0 17.29873,0 25.9481,0c2.91084,0 5.82443,-0.12644 8.73253,0c0.92896,0.04039 3.58876,0.10934 2.74451,0.499c-10.1347,4.67756 -27.5144,2.17992 -38.42315,2.99401c-2.58304,0.19276 -5.15388,0.52603 -7.73453,0.7485c-2.24334,0.19339 -4.48925,0.63945 -6.73653,0.499c-0.53149,-0.03321 -1.75496,-0.83654 -1.2475,-0.998c11.35961,-3.61442 54.97122,-4.52628 65.11976,0.2495c4.80273,2.26011 -22.66912,0.62967 -17.46507,1.49701c14.40604,2.40101 29.17416,2.35181 43.66267,3.99202c1.90303,0.21544 10.09093,0.93797 10.85329,4.24152c1.068,4.62802 -9.33169,3.24351 -9.35629,3.24351c-13.22355,0 -26.44711,0 -39.67066,0" fill="none" stroke="#000000" stroke-width="6" stroke-linecap="round" stroke-linejoin="round" stroke-miterlimit="3"/><path d="M846.30738,667.27482c-8.53157,0 -16.9346,-0.71884 -25.4491,-0.998c-2.49367,-0.08176 -4.99046,0.04707 -7.48503,0c-1.9143,-0.03612 -3.84067,0.00355 -5.73852,-0.2495c-0.62783,-0.08371 -2.37538,-0.67304 -1.74651,-0.7485c2.64238,-0.31709 5.32269,0 7.98403,0c3.0356,0 6.07463,-0.14439 9.10679,0c0.48618,0.02315 1.822,0.3129 1.37226,0.499c-13.87548,5.74158 -34.22236,2.49501 -48.9022,2.49501" fill="none" stroke="#000000" stroke-width="6" stroke-linecap="round" stroke-linejoin="round" stroke-miterlimit="3"/><path d="M593.81236,730.14908c-28.22695,9.40898 -63.6548,3.99951 -92.81437,2.99401c-10.17948,-0.35102 -32.99491,2.5559 -41.29242,-1.74651c-7.29492,-3.78256 10.88419,-4.6625 11.3523,-4.74052c8.52036,-1.42006 27.83191,0.26192 34.55589,-5.23952c8.0672,-6.60043 -25.67323,-10.27831 -28.31836,-10.72854c-3.92943,-0.66884 -12.72469,-1.15765 -10.97804,-4.74052c0.19967,-0.40956 19.72802,-5.73591 21.70659,-6.23752c3.78276,-0.95901 18.9012,-5.83013 8.10878,-1.74651c-7.04505,2.66569 -17.91829,1.8646 -24.2016,5.98802c-6.7513,4.43054 8.356,5.05233 13.47305,7.48503c2.37354,1.1284 -5.65497,1.04083 -11.28992,2.49501c-0.64454,0.16633 -2.21449,1.12946 -1.55938,1.2475c13.41499,2.41712 28.70352,-0.52737 42.41517,0c3.69855,0.14225 9.33666,-2.1007 11.04042,1.18513c0.91049,1.75593 -6.47809,3.34904 -4.55339,3.80489c8.26812,1.95824 20.00844,0 28.44311,0c17.50199,0 34.913,0.6229 52.39521,1.49701c12.82477,0.64124 25.59921,1.19451 38.42315,1.99601c2.82705,0.17669 5.65199,0.40618 8.48303,0.499c2.24431,0.07358 4.49513,0.13584 6.73653,0c0.52503,-0.03182 1.99859,-0.34061 1.49701,-0.499c-4.50652,-1.42311 -10.48805,-2.13374 -15.21956,-2.99401c-2.1525,-0.39136 -4.33911,-0.58227 -6.48703,-0.998c-0.4397,-0.0851 -1.69368,-0.4602 -1.2475,-0.499c6.52185,-0.56711 12.9221,-0.31336 19.46108,-1.2475c4.16892,-0.59556 8.36109,-1.09608 12.47505,-1.99601c0.61875,-0.13535 2.33117,-0.50489 1.74651,-0.7485c-4.2025,-1.75104 -32.61241,-3.78148 -33.24601,-5.95684c-0.85738,-2.94369 7.48638,-5.36484 5.3019,-7.51622c-2.51229,-2.47423 -11.80453,-3.15586 -15.46906,-4.74052c-1.95588,-0.84579 -7.99114,-2.87753 -6.11277,-1.87126c2.69684,1.44473 19.00191,6.62262 17.21557,12.97405c-1.51908,5.40118 -24.28703,5.11477 -29.06687,5.11477" fill="none" stroke="#000000" stroke-width="6" stroke-linecap="round" stroke-linejoin="round" stroke-miterlimit="3"/><path d="M428.14374,713.68203c-3.70273,3.70272 -12.53246,2.54559 -17.46507,2.99401c-14.19551,1.2905 -28.16301,1.49701 -42.41517,1.49701c-3.12805,0 -14.61645,1.2837 -17.34032,-1.62176c-0.66942,-0.71404 -0.22329,-2.37887 0.62375,-2.86926c5.97749,-3.46066 21.32335,-5.92862 28.44311,-6.48703c2.09917,-0.16465 8.33499,0.81293 6.23752,0.998c-18.13458,1.60011 -37.1961,0 -55.38922,0c-6.8164,0 -13.64328,0.09926 -20.45908,0c-2.2877,-0.03332 -4.62241,0.28421 -6.86128,-0.18713c-1.03843,-0.21861 -3.38008,-1.06857 -2.61976,-1.80888c2.52805,-2.46153 6.97382,-1.09256 10.47904,-1.49701c12.52823,-1.44557 25.33715,-1.65588 37.92415,-2.49501c4.49334,-0.29955 8.97347,-0.81434 13.47305,-0.998c2.07744,-0.08479 4.15835,0 6.23752,0c0.91484,0 3.65935,0 2.74451,0c-22.22223,0 -44.36733,-0.998 -66.61677,-0.998c-9.55968,0 -19.13458,-0.15669 -28.69261,0c-2.41295,0.03956 -4.84651,-0.09179 -7.23553,0.2495c-0.5937,0.08481 -2.06596,0.80835 -1.49701,0.998c11.22809,3.74269 27.75352,0.7485 39.17166,0.7485c32.19004,0 65.30193,2.00442 97.30539,-1.99601" fill="none" stroke="#000000" stroke-width="6" stroke-linecap="round" stroke-linejoin="round" stroke-miterlimit="3"/><path d="M425.1497,713.18301c15.96806,0 31.93613,0 47.90419,0" fill="none" stroke="#000000" stroke-width="6" stroke-linecap="round" stroke-linejoin="round" stroke-miterlimit="3"/><path d="M361.33862,698.19519l116.46753,0.79169l0.34661,17.99055l-70.55935,3.20032l-0.16641,-3.66886l-46.21074,-0.31412z" fill="#e11552" stroke="#000000" stroke-width="6" stroke-linecap="round" stroke-linejoin="round" stroke-miterlimit="0"/><path d="M437.12575,714.16305h56.88623v18h-56.88623z" fill="#e11552" stroke="#000000" stroke-width="6" stroke-linecap="round" stroke-linejoin="round" stroke-miterlimit="0"/><path d="M728.97485,668.39181l16.96607,-2.99401l3.12814,17.7261l-16.96607,2.99401z" fill="#07c8cf" stroke="#000000" stroke-width="6" stroke-linecap="round" stroke-linejoin="round" stroke-miterlimit="0"/><path d="M350.67819,701.21032l28.94212,-1.99601l1.23844,17.95735l-28.94212,1.99601z" fill="#fcf14a" stroke="#000000" stroke-width="6" stroke-linecap="round" stroke-linejoin="round" stroke-miterlimit="0"/><path d="M681.5057,679.25499l56.88623,-3.99202l1.26006,17.95584l-56.88623,3.99202z" fill="#07c8cf" stroke="#000000" stroke-width="6" stroke-linecap="round" stroke-linejoin="round" stroke-miterlimit="0"/><path d="M675.1497,688.21495h37.92415v18h-37.92415z" fill="#07c8cf" stroke="#000000" stroke-width="6" stroke-linecap="round" stroke-linejoin="round" stroke-miterlimit="0"/><path d="M354.79042,729.16904h-88.82236v-18h88.82236z" fill="#fcf14a" stroke="#000000" stroke-width="6" stroke-linecap="round" stroke-linejoin="round" stroke-miterlimit="0"/></g></svg>