<?xml version="1.0" standalone="no"?>
<svg xmlns="http://www.w3.org/2000/svg" viewBox="0 0 1024 1024" version="1.1" style="background-color: rgb(231, 231, 231);"><g fill="none" fill-rule="nonzero" stroke="none" stroke-width="16" stroke-linecap="none" stroke-linejoin="none" stroke-miterlimit="none" stroke-dasharray="" stroke-dashoffset="0" font-family="none" font-weight="none" font-size="none" text-anchor="none" style="mix-blend-mode: normal"><path d="M573.23,539.726c-0.718,-7.655 -7.106,-30.231 -8.355,-37.881c-2.18,-13.348 -6.772,-53.727 -8.792,-67.109c-1.855,-12.287 -9.239,-48.914 -10.583,-61.236c-0.973,-8.925 -1.18,-36.003 -1,-45c0.42,-21.003 4,-84.009 4,-105c0,-13.409 -2.925,-53.623 -4,-67c-0.725,-9.023 -4.477,-36.042 -5,-45c-0.081,-1.388 1.425,-5.488 1.979,-6.728c0.164,-0.367 1.199,-1.282 1.612,-1.308c19.192,-1.228 77.118,-4.199 96.409,-4.964c30.99,-1.228 124.056,-3.307 155,-5c9.256,-0.507 46,-6 46,-6c0,0 -5.878,185.404 -7,195c-0.678,5.804 -2.151,-94.417 -2,-118c0.049,-7.617 1.944,-30.477 3,-38c0.544,-3.877 3.671,-15.324 5,-19c1.041,-2.878 5.314,-11.167 6.849,-13.772c0.239,-0.405 1.551,-1.237 2.022,-1.277c4.759,-0.405 19.341,-1.216 24.129,-0.951c3.015,0.167 12.029,2.296 14.886,3.11c0.344,0.098 1.11,1.085 1.122,1.45c0.442,12.979 0.601,52.228 1.151,65.267c0.449,10.649 3.578,42.517 3.841,53.173c1.105,44.778 3,179.208 3,224c0,14.608 -1.912,58.446 -3,73c-0.512,6.846 -0.93,29.754 -5,34c-5.13,5.354 -32.682,11.661 -41,14c-4.482,1.261 -18.372,3.411 -23,4c-6.372,0.811 -25.585,2.606 -32,3c-16.385,1.006 -65.589,3.554 -82,4c-27.789,0.754 -139,2 -139,2c0,0 2.337,-26.298 1.73,-32.774z" fill="#bfbfbf" stroke="none" stroke-linecap="none" stroke-linejoin="arcs" stroke-miterlimit="4"></path><path d="M889.5,861.5c0,0 -48.639,10.163 -61,11c-129.439,8.763 -518.402,30.687 -648,37c-10.002,0.487 -40.11,-1.801 -50,-3c-3.31,-0.401 -12.737,-4.266 -16,-5c-4.737,-1.066 -19.278,-2.934 -24,-4c-1.478,-0.334 -7,-3 -7,-3l22,-160c0,0 451.244,-3.539 564,-6c33.844,-0.739 135.239,-7.724 169,-10c1.839,-0.124 7.438,-2.417 9,-2c1.438,0.383 5.047,4.646 6,6c0.582,0.827 1.419,3.9 1.673,4.905c5.146,20.395 19.807,81.817 25.327,102.095c1.345,4.941 7.628,19.122 9,24c0.428,1.522 0,8 0,8z" fill="#606060" stroke="none" stroke-linecap="none" stroke-linejoin="arcs" stroke-miterlimit="4"></path><path d="M706.5,299.5c2.262,0.226 8.948,2.088 11,3c1.548,0.688 5.997,3.696 7,5c0.997,1.296 2.611,6.339 3,8c1.811,7.739 6.618,31.169 8,39c0.418,2.369 1.58,9.761 1,12c-0.82,3.161 -6.008,12.344 -8,15c-1.008,1.344 -5.455,4.324 -7,5c-1.655,0.724 -7.171,1.817 -9,2c-4.171,0.417 -16.817,1.123 -21,1c-2.617,-0.077 -10.378,-1.843 -13,-2c-7.378,-0.443 -29.718,-1.573 -37,-1c-3.075,0.242 -11.871,4.324 -14.786,5.075c-0.293,0.076 -1.251,-0.632 -1.257,-0.944c-0.315,-16.004 0.41,-64.543 -0.346,-80.635c-0.636,-13.534 -6.611,-67.496 -6.611,-67.496c0,0 18.445,-1.354 23,-1c4.252,0.33 17.027,2.983 21.032,4.421c3.795,1.362 17.025,6.889 17.968,9.579c0.85,2.425 -6.948,12.97 -9,16c-2.148,3.17 -10.171,11.734 -12,15c-0.971,1.734 -2,10 -2,10c0,0 39.262,2.026 49,3z" fill="#606060" stroke="none" stroke-linecap="none" stroke-linejoin="arcs" stroke-miterlimit="4"></path><path d="M678.5,265.5c0,0 -5.859,-11.859 -8,-14c-1.259,-1.259 -7.204,-3.047 -9,-3c-2.025,0.052 -8.02,3.048 -10.106,3.495c-6.314,1.353 -25.468,4.88 -31.894,5.505c-6.952,0.676 -35,1 -35,1l-4,-92c0,0 40.349,-6.417 50.495,-7.539c23.255,-2.571 93.278,-8.249 116.511,-10.927c7.068,-0.815 27.94,-6.314 34.994,-6.534c9.378,-0.292 37.906,2.826 47.165,3.973c0.557,0.069 1.772,1.579 1.917,2.107c0.407,1.477 0.847,6.33 0.844,7.922c-0.013,8.318 -0.471,32.487 -0.86,42.439c0.595,-0.282 0.934,-0.441 0.934,-0.441c0,0 6.84,19.107 7,24c0.24,7.307 -4.67,29.554 -5,37c-0.737,16.625 -0.804,66.712 -0.338,83.358c0.211,7.549 2.74,30.126 3.726,37.621c2.082,15.834 9.673,63.181 11.612,79.021c0.583,4.764 1.143,19.214 1,24c-0.109,3.646 -1.722,14.552 -2.263,18.161c-0.059,0.391 -0.375,1.714 -0.737,1.839c-3.586,1.243 -15.3,3.735 -19,5c-2.001,0.684 -7.477,4.139 -9.508,4.742c-10.769,3.197 -43.518,11.756 -54.492,14.258c-6.534,1.49 -26.455,4.761 -33.047,5.703c-0.408,0.058 -1.925,-0.301 -1.953,-0.703c-0.562,-7.939 -1.13,-32.808 -1,-41c0.093,-5.871 1.919,-23.444 2.116,-29.318c0.603,-17.926 1.076,-71.777 1.884,-89.682c0.25,-5.542 2.525,-22.074 3.404,-27.553c0.986,-6.145 4.978,-24.429 5.92,-30.569c0.3,-1.953 0.556,-7.971 0.291,-9.897c-0.2,-1.45 -1.469,-6.243 -2.615,-6.981c-2.577,-1.659 -12.714,-4.374 -16,-5c-9.314,-1.774 -47,-7 -47,-7c0,0 2.9,-5.9 4,-7c1.1,-1.1 5.496,-3.428 7,-4c8.496,-3.228 34.631,-11.468 43,-15c6.259,-2.641 24.37,-12.26 30.137,-15.865c10.233,-6.395 39.648,-27.719 49.863,-34.135c1.611,-1.012 5.277,-2.891 9.163,-4.814c-4.848,1.397 -9.83,2.867 -12.163,3.814c-9.352,3.798 -36.586,17.371 -46,21c-7.186,2.771 -29.992,7.876 -37,11c-9.592,4.276 -46,26 -46,26z" fill="#9f9f9f" stroke="none" stroke-linecap="none" stroke-linejoin="arcs" stroke-miterlimit="4"></path><path d="M632.5,376.5c0,0 71.191,-6.676 89,-8c2.715,-0.202 10.941,0.062 13.618,0.372c0.948,0.11 3.947,1.029 4.506,1.727c1.028,1.286 3.085,6.456 3.429,8.192c1.831,9.244 7.146,37.295 7.447,46.709c0.55,17.21 -2.458,69.134 -3.193,86.409c-0.065,1.525 0.118,7.112 -0.807,7.591c-1.236,0.639 -7.964,-1.922 -10,-2c-20.868,-0.8 -83.657,-1.618 -104.516,-2.39c-1.238,-0.046 -5.066,-0.961 -5.966,-1.7c-1.197,-0.983 -4.595,-5.28 -4.518,-6.91c1.219,-25.752 11,-130 11,-130z" fill="#404040" stroke="none" stroke-linecap="none" stroke-linejoin="arcs" stroke-miterlimit="4"></path><path d="M824.5,206.5l-27,-18" fill="none" stroke="#000000" stroke-linecap="none" stroke-linejoin="arcs" stroke-miterlimit="4"></path><path d="M827.5,249.5c1.398,3.495 2.876,18.978 1,22c-1.724,2.778 -15.921,7.684 -19,7c-2.321,-0.516 -8.674,-10.603 -8,-13c1.126,-4.003 17,-19 17,-19c0,0 8.398,1.495 9,3z" fill="none" stroke="#000000" stroke-linecap="none" stroke-linejoin="arcs" stroke-miterlimit="4"></path><path d="M738.5,514.5c0,0 3.068,5.974 3,5c-0.732,-10.426 -6.47,-49.549 -7,-62c-0.951,-22.35 0.751,-89.699 -0.4,-112.004c-0.449,-8.695 -2.138,-38.378 -7.6,-42.996c-6.83,-5.774 -53.858,-8.963 -53.858,-8.963c0,0 23.788,-25.935 31.277,-30.18c24.283,-13.763 127.581,-59.857 127.581,-59.857" fill="none" stroke="#000000" stroke-linecap="none" stroke-linejoin="arcs" stroke-miterlimit="4"></path><path d="M763.249,530.145c1.705,-2.697 3.485,-5.898 5.243,-9.33l4.797,-1.042l0.029,10.045c-3.34,0.104 -6.871,0.22 -10.069,0.327z" fill="none" stroke="none" stroke-linecap="butt" stroke-linejoin="miter" stroke-miterlimit="10"></path><path d="M763.249,530.145c1.705,-2.697 3.485,-5.898 5.243,-9.33l4.797,-1.042l0.029,10.045c-3.34,0.104 -6.871,0.22 -10.069,0.327z" fill="none" stroke="none" stroke-linecap="butt" stroke-linejoin="miter" stroke-miterlimit="10"></path><path d="M763.249,530.145c1.705,-2.697 3.485,-5.898 5.243,-9.33l4.797,-1.042l0.029,10.045c-3.34,0.104 -6.871,0.22 -10.069,0.327z" fill="none" stroke="none" stroke-linecap="butt" stroke-linejoin="miter" stroke-miterlimit="10"></path><path d="M773.289,519.773l0.029,10.045c-9.735,0.302 -21.097,0.708 -21.097,0.708l-127.168,5.654l-2.101,-273.768l96.628,-4.682l21.298,269.081z" fill="none" stroke="none" stroke-linecap="butt" stroke-linejoin="miter" stroke-miterlimit="10"></path><path d="M625.053,536.18l-2.101,-273.768l149.573,-7.248l0.793,274.654c-9.735,0.302 -21.097,0.708 -21.097,0.708z" fill="none" stroke="none" stroke-linecap="butt" stroke-linejoin="miter" stroke-miterlimit="10"></path><path d="M442.5,817.5c0,0 -194.317,9.825 -242.553,8.873c-12.564,-0.248 -61.447,-14.873 -61.447,-14.873c0,0 21.156,-126.986 23.517,-158.999c4.439,-60.187 7.159,-241.721 10.483,-302.001c0.646,-11.717 5.799,-46.911 9.368,-57.983c4.231,-13.128 25.086,-51.941 29.632,-63.017c0.381,-0.927 -5,3 -5,3c0,0 313.098,50.611 355.848,66.738c11.046,4.167 -71.221,25.538 -86.864,34.733c-6.044,3.553 -21.085,21.885 -21.571,29.007c-6.111,89.583 -11.413,454.522 -11.413,454.522z" fill="#ffffff" stroke="#000000" stroke-linecap="none" stroke-linejoin="arcs" stroke-miterlimit="8"></path><path d="M258.5,292.5l74,29" fill="none" stroke="#000000" stroke-linecap="none" stroke-linejoin="arcs" stroke-miterlimit="8"></path><path d="M283.5,454.5l11,199" fill="none" stroke="#000000" stroke-linecap="none" stroke-linejoin="arcs" stroke-miterlimit="8"></path><path d="M293.5,618.5c0,0 18.176,40.151 16.27,48.602c-1.792,7.947 -32.987,35.301 -34.757,33.386c-2.069,-2.239 14.892,-48.305 15.565,-54.153c0.224,-1.949 -11.078,15.165 -11.078,15.165" fill="none" stroke="#000000" stroke-linecap="none" stroke-linejoin="arcs" stroke-miterlimit="8"></path><path d="M387.5,598.5c0,0 -7.304,30.382 -11,37c-4.904,8.782 -24.434,33.231 -32,40c-11.434,10.231 -53.088,34.616 -63,45c-2.688,2.816 0,21 0,21l-57.769,11.627c0,0 15.902,-42.282 22.546,-49.806c3.71,-4.201 23.446,-6.944 29.223,-8.821c0.268,-0.087 1,-1 1,-1c0,0 76.89,-76.788 97,-94c2.09,-1.788 14,-1 14,-1z" fill="none" stroke="#000000" stroke-linecap="none" stroke-linejoin="arcs" stroke-miterlimit="8"></path><path d="M256.5,725.5c0,0 -4.591,8.558 -6.339,10.137c-4.452,4.021 -24.661,17.863 -24.661,17.863" fill="none" stroke="#000000" stroke-linecap="none" stroke-linejoin="arcs" stroke-miterlimit="2"></path><path d="M124.5,311.5l194,-110" fill="none" stroke="#000000" stroke-linecap="none" stroke-linejoin="arcs" stroke-miterlimit="16"></path><path d="M194.5,268.5l-14.649,-44.697l57.649,14.697" fill="none" stroke="#000000" stroke-linecap="none" stroke-linejoin="arcs" stroke-miterlimit="16"></path><path d="M308.5,312.5c0,0 11.718,5.435 13,8c3.118,6.235 9,36 9,36l-63.843,-6.019l9.843,-44.981z" fill="none" stroke="#000000" stroke-linecap="none" stroke-linejoin="arcs" stroke-miterlimit="16"></path><path d="M826.5,255.5c0.694,1.301 5.803,3.819 6,5c0.203,1.219 -2.889,5.946 -4,7c-0.947,0.898 -5.014,2.28 -6.293,2.76c-0.321,0.12 -1.416,0.399 -1.707,0.24c-1.451,-0.793 -5.864,-3.761 -7,-5c-1.064,-1.161 -3.622,-5.488 -4,-7c-0.422,-1.688 -0.738,-7.629 0,-9c0.662,-1.229 5.494,-3.598 7,-4c1.494,-0.398 8,0 8,0c0,0 1.094,8.301 2,10z" fill="#606060" stroke="none" stroke-linecap="none" stroke-linejoin="arcs" stroke-miterlimit="4"></path><path d="M848.5,507.5l-228,8" fill="#000000" stroke="#000000" stroke-linecap="none" stroke-linejoin="arcs" stroke-miterlimit="8"></path><path d="M605.5,164.5l236,-8" fill="#000000" stroke="#000000" stroke-linecap="none" stroke-linejoin="arcs" stroke-miterlimit="8"></path><path d="M607.5,161.5l11,373" fill="#000000" stroke="#000000" stroke-linecap="none" stroke-linejoin="arcs" stroke-miterlimit="8"></path><path d="M838.5,159.5l15,351" fill="#000000" stroke="#000000" stroke-linecap="none" stroke-linejoin="arcs" stroke-miterlimit="8"></path><path d="M602.5,173.5c40.176,-3.265 171.078,-18.097 213.63,-20.872c3.448,-0.225 16.111,2.512 16.37,5.872c4.836,62.674 7.766,259.467 9.109,324.296c0.057,2.771 -0.826,11.389 -2.109,13.704c-1.731,3.124 -9.326,13.105 -12.963,13.493c-37.563,4.012 -154.763,7.955 -193.037,8.507c-1.942,0.028 -7.967,-3.688 -8.043,-5.608c-1.465,-36.976 2.196,-151.203 0.336,-188.871c-1.531,-31.01 -17.293,-154.521 -17.293,-154.521c0,0 -7.35,4.11 -6,4z" fill="none" stroke="#000000" stroke-linecap="none" stroke-linejoin="arcs" stroke-miterlimit="4"></path><path d="M302.5,264.5c0,0 -11.248,24.542 -15,30c-2.848,4.142 -14.082,14.817 -18,18c-2.482,2.017 -11.073,6.678 -14,8c-3.273,1.478 -13.552,4.966 -17,6c-2.552,0.766 -10.474,2.688 -13,3c-0.349,0.043 -1.164,-0.928 -1.377,-1.226c-0.787,-1.102 -3.108,-4.593 -3.623,-5.774c-0.117,-0.267 0.303,-1.211 0.468,-1.471c2.635,-4.14 10.162,-17.062 13.532,-20.529c3.537,-3.639 16.597,-12.338 21,-15c4.197,-2.538 17.994,-8.253 22,-11c2.994,-2.053 10.135,-11.04 13,-13c0.935,-0.64 4.867,-0.283 6,0c1.267,0.317 6,3 6,3z" fill="#000000" stroke="none" stroke-linecap="none" stroke-linejoin="arcs" stroke-miterlimit="8"></path><path d="M288.5,309.5c2.763,-0.606 11.679,0.363 14.523,0.871c2.756,0.492 10.872,3.095 13.477,4.129c1.49,0.592 5.915,2.851 7,4c2.315,2.451 8.378,11.026 10,14c0.778,1.426 1.874,6.366 2,8c0.274,3.566 0.62,14.532 0,18c-0.456,2.547 -3.977,9.871 -5.381,12.077c-1.396,2.194 -6.605,8.357 -8.619,9.923c-1.309,1.018 -6.33,2.733 -8,3c-3.33,0.533 -13.742,1.592 -17,1c-3.342,-0.608 -12.928,-5.361 -16,-7c-2.928,-1.561 -11.753,-6.753 -14,-9c-1.153,-1.153 -2.86,-6.317 -3,-8c-0.46,-5.517 -0.88,-22.595 0,-28c0.52,-3.195 7,-15 7,-15c0,0 14.259,-7.18 18,-8z" fill="#000000" stroke="none" stroke-linecap="none" stroke-linejoin="arcs" stroke-miterlimit="8"></path><path d="M325.5,355.5c0.181,0.796 -0.459,3.459 -1,4c-1.059,1.059 -5.512,3.394 -7,4c-3.912,1.594 -15.943,5.841 -20,7c-1.543,0.441 -6.422,1.158 -8,1c-2.422,-0.242 -10.16,-1.578 -12,-3c-2.56,-1.978 -9.838,-10.924 -10,-14c-0.238,-4.524 6.046,-19.358 8,-24c1.246,-2.958 6,-11.6 8,-14c1,-1.2 5.471,-3.617 7,-4c2.556,-0.64 10.741,-0.953 13.428,-1.111c0.713,-0.042 2.923,-0.142 3.572,0.111c1.465,0.57 7,4 7,4c0,0 9.181,31.996 11,40z" fill="#ffffff" stroke="none" stroke-linecap="none" stroke-linejoin="arcs" stroke-miterlimit="8"></path><path d="M303.5,337.5c0.125,1.5 5.315,6.846 5,8c-0.285,1.046 -6.372,2.898 -8,3c-1.572,0.098 -7.188,-0.985 -8,-2c-0.788,-0.985 -0.491,-6.588 0,-8c0.417,-1.2 3.489,-4.273 4.537,-5.061c0.564,-0.424 2.806,-1.005 3.523,-1.001c1.375,0.008 6.94,1.062 6.94,1.062c0,0 -4.075,3.1 -4,4z" fill="#000000" stroke="none" stroke-linecap="none" stroke-linejoin="arcs" stroke-miterlimit="8"></path><path d="M824.5,245.5c0.797,1.195 8.158,3.8 10,5c0.717,0.467 2.287,2.63 2.791,3.336c0.496,0.694 2.077,2.845 2.209,3.664c0.309,1.914 0.324,8.059 0,10c-0.276,1.659 -2.071,6.64 -3,8c-0.745,1.09 -4.089,3.957 -5.371,4.248c-3.118,0.709 -13.67,1.402 -16.629,0.752c-1.201,-0.264 -3.567,-4.133 -4.167,-5.318c-0.66,-1.303 -1.807,-5.675 -2.13,-7.121c-0.244,-1.09 -0.795,-4.457 -0.703,-5.561c0.167,-2.008 1.33,-8.101 2,-10c0.53,-1.501 3.021,-5.766 4,-7c0.491,-0.618 2.648,-1.862 3.348,-2.262c0.7,-0.4 2.869,-1.621 3.652,-1.738c1.548,-0.231 8,0 8,0c0,0 -4.403,3.395 -4,4z" fill="#000000" stroke="none" stroke-linecap="none" stroke-linejoin="arcs" stroke-miterlimit="8"></path><path d="M830.5,253.5c1.306,0.56 5.466,2.843 6,4c0.666,1.443 0.947,7.752 0,9c-1.447,1.909 -9.478,5.709 -11.97,6.785c-1.071,0.463 -4.721,1.078 -5.845,0.911c-1.282,-0.19 -5.815,-1.622 -6.185,-2.696c-0.726,-2.106 0.396,-10.595 0.703,-13.204c0.093,-0.791 0.703,-3.362 1.297,-3.796c1.265,-0.925 8,-3 8,-3c0,0 6.506,1.36 8,2z" fill="#ffffff" stroke="none" stroke-linecap="none" stroke-linejoin="arcs" stroke-miterlimit="8"></path><path d="M820.5,259.5c0.259,0.259 3.6,0.4 4,1c0.8,1.2 2.589,7.509 2,8c-0.611,0.509 -7.588,-1.971 -8,-3c-0.388,-0.971 4,-7 4,-7c0,0 -2.141,0.859 -2,1z" fill="#000000" stroke="none" stroke-linecap="none" stroke-linejoin="arcs" stroke-miterlimit="8"></path><path d="M833.5,231.5c0,0 2.743,6.328 3,8c0.543,3.528 0.457,14.472 1,18c0.257,1.672 2.708,6.344 3,8c0.308,1.744 0.493,9.423 0,9c-0.907,-0.777 -6.134,-11.861 -7,-15c-0.734,-2.661 -1,-11.2 -1,-14c0,-2.8 1,-14 1,-14z" fill="#000000" stroke="none" stroke-linecap="none" stroke-linejoin="arcs" stroke-miterlimit="8"></path><path d="M448.5,474.5c0,0 10.102,9.232 12,12c2.902,4.232 9.376,18.526 12,23c9.576,16.326 39.544,64.621 49,81c1.744,3.021 7.264,13.888 7,16c-0.136,1.088 -7.456,0.618 -9,0c-1.456,-0.582 -5.17,-4.537 -6,-6c-3.37,-5.937 -11.817,-24.899 -15,-31c-1.617,-3.099 -6.98,-12.172 -9,-15c-0.98,-1.372 -5.038,-4.607 -6,-6c-6.037,-8.74 -23.252,-35.696 -28.992,-44.665c-0.66,-1.031 -2.881,-4.286 -3.008,-5.335c-0.075,-0.618 2.086,-2.313 2,-3c-0.514,-4.113 -5,-21 -5,-21z" fill="#000000" stroke="none" stroke-linecap="none" stroke-linejoin="arcs" stroke-miterlimit="8"></path><path d="M517.5,585.5c0,0 0.439,-16.075 1,-20c0.239,-1.675 2.185,-6.512 3,-8c1.165,-2.13 5.241,-8.333 6.9,-10.09c1.741,-1.843 7.904,-6.656 10.1,-7.91c1.624,-0.928 7.148,-2.63 9,-3c3.148,-0.63 12.783,-1.945 16,-2c8.583,-0.145 34.479,0.345 43,1c1.879,0.145 7.818,1.596 9,3c5.218,6.196 18.681,27.857 23,35c0.881,1.457 2.883,6.321 3,8c0.322,4.63 0.236,19.051 -0.809,23.546c-0.955,4.105 -7.14,15.681 -9.191,19.454c-1.587,2.918 -6.851,11.481 -9,14c-3.651,4.281 -15.622,16.477 -20,20c-3.822,3.077 -16.471,11.171 -21,13c-5.871,2.371 -24.698,7.2 -31,8c-6.298,0.8 -25.66,0.47 -32,0c-2.587,-0.192 -10.129,-2.571 -12.631,-3.307c-0.898,-0.264 -3.708,-1.08 -4.369,-1.693c-1.213,-1.126 -4.652,-5.374 -5,-7c-0.852,-3.974 -1.144,-16.834 -1,-21c0.056,-1.634 1.214,-6.575 2,-8c1.99,-3.608 9.383,-13.837 11.879,-17.165c0.504,-0.672 2.381,-2.448 3.121,-2.835c2.4,-1.254 10.305,-3.922 12.58,-5.37c2.125,-1.352 8.908,-6.425 9.42,-8.63c0.772,-3.321 -1.832,-15.39 -3,-19c-1.032,-3.19 -6.211,-12.316 -8,-15c-0.211,-0.316 -1.863,-0.342 -2,0c-1.063,2.658 -4,15 -4,15z" fill="#000000" stroke="none" stroke-linecap="none" stroke-linejoin="arcs" stroke-miterlimit="8"></path><path d="M541.5,561.5c0,0 3.105,-7.877 4.501,-9.239c1.596,-1.557 8.28,-4.506 10.459,-5.355c2.321,-0.904 9.593,-3.374 12.04,-3.406c3.761,-0.049 15.367,1.899 19,3c2.58,0.782 9.88,4.801 12.063,6.412c3.351,2.472 12.778,10.977 15.609,14.002c0.909,0.971 2.793,4.688 3.091,5.979c0.59,2.558 1.471,10.619 1.351,13.266c-0.204,4.484 -1.627,18.154 -2.971,22.39c-1.279,4.032 -7.621,15.622 -10.143,18.951c-1.107,1.461 -6.526,3.842 -8,5c-1.326,1.042 -4.619,5.028 -6,6c-4.019,2.828 -16.388,11.633 -21,13c-6.188,1.833 -26.392,2.746 -33,3c-4.046,0.156 -16.548,-0.186 -20.27,-0.951c-0.807,-0.166 -2.242,-2.885 -2.373,-3.704c-0.19,-1.19 -0.015,-5.381 0.772,-6.342c4.342,-5.308 20.269,-19.703 24.871,-25.003c2.172,-2.501 8.434,-10.855 9,-14c1.074,-5.964 0.412,-25.499 -0.798,-31.547c-0.79,-3.952 -7.595,-14.707 -9.202,-18.453c-0.234,-0.545 -0.046,-3.322 0,-3c0.154,1.078 1,10 1,10z" fill="#606060" stroke="none" stroke-linecap="none" stroke-linejoin="arcs" stroke-miterlimit="8"></path><path d="M572.5,545.5c0.606,-0.182 2.462,-1.215 3,-1c1.462,0.585 6.097,3.645 7,5c1.097,1.645 3,8.009 3,10c0,1.809 -2.05,7.416 -3,9c-0.85,1.416 -4.512,5.421 -6,6c-2.112,0.821 -9.976,1.732 -12,1c-1.75,-0.633 -5.823,-6.078 -6.87,-7.823c-0.753,-1.255 -2.002,-5.738 -2.13,-7.177c-0.073,-0.82 0.827,-3.322 1.126,-4.118c0.301,-0.804 1.282,-3.289 1.874,-3.882c1.182,-1.183 7,-5 7,-5c0,0 5.606,-1.582 7,-2z" fill="#6ef7f7" stroke="none" stroke-linecap="none" stroke-linejoin="arcs" stroke-miterlimit="8"></path><path d="M616.5,583.5c1.665,1.665 6.396,7.785 7,10c0.596,2.185 -0.042,10.083 -1,12c-0.642,1.283 -5.464,3.651 -7,4c-2.864,0.651 -12.315,1.639 -15,1c-1.515,-0.361 -5.581,-4.605 -6,-6c-0.358,-1.192 1.272,-5.789 2.118,-6.933c2.554,-3.456 14.882,-16.067 14.882,-16.067c0,0 4.265,1.265 5,2z" fill="#6ef76e" stroke="none" stroke-linecap="none" stroke-linejoin="arcs" stroke-miterlimit="8"></path><path d="M577.5,641.5c-0.599,0.646 6.066,-2.84 7,-4c0.848,-1.054 1.88,-5.659 1.913,-7.069c0.026,-1.107 -0.995,-4.578 -1.618,-5.516c-1.36,-2.048 -7.665,-7.343 -8.295,-9.415c-0.429,-1.411 4.01,-7.703 3,-8c-2.39,-0.703 -18.401,4.492 -20,3c-1.401,-1.308 5.275,-15.213 5,-17c-0.125,-0.813 -5.488,3.622 -7,4c-1.688,0.422 -8.789,0.422 -9,0c-0.189,-0.378 5.494,-3.598 7,-4c1.494,-0.398 7.935,-0.977 8,0c0.135,2.023 -6.868,13.81 -7,15c-0.068,0.61 4.605,-5.103 6,-6c1.405,-0.903 8,-3.762 8,-3c0,1.438 -6.8,11.067 -8,14c-0.6,1.467 -1.387,7.903 -1,8c0.413,0.103 3.678,-5.956 5,-7c2.478,-1.956 12.203,-8.128 14,-8c1.003,0.072 0.422,7.312 0,9c-0.378,1.512 -4.402,6.297 -4,7c0.398,0.697 6.506,0.398 8,0c1.506,-0.402 5.645,-4.097 7,-4c1.445,0.103 6.176,3.627 7,5c0.976,1.627 2.751,8.348 2,10c-1.249,2.748 -9.231,10.216 -12,12c-2.139,1.378 -10,3.371 -12.541,3.808c-1.204,0.207 -5.085,-0.125 -6.182,-0.585c-1.194,-0.501 -5.543,-3.195 -5.277,-4.223c0.678,-2.617 7.452,-11.859 10,-14c2.452,-2.059 11.899,-6.056 15,-7c1.499,-0.456 8,0 8,0c0,0 -17.999,15.846 -20,18z" fill="#f7f76e" stroke="none" stroke-linecap="none" stroke-linejoin="arcs" stroke-miterlimit="8"></path><path d="M535.5,645.5c1.209,-0.11 4.721,-4.902 6,-5c1.321,-0.102 5.9,2.9 7,4c1.1,1.1 3.662,5.477 4,7c0.462,2.077 0.861,9.277 0,11c-0.739,1.477 -6.291,4.26 -8,5c-1.471,0.637 -6.308,1.683 -7.899,1.884c-0.73,0.092 -3.034,-0.132 -3.703,-0.417c-1.151,-0.491 -4.961,-2.35 -5.398,-3.467c-1.243,-3.177 -3.41,-14.724 -3,-18c0.19,-1.524 6,-6 6,-6c0,0 4.009,4.09 5,4z" fill="#b3f76e" stroke="none" stroke-linecap="none" stroke-linejoin="arcs" stroke-miterlimit="8"></path><path d="M422.5,601.5c-0.704,0.974 -0.531,-6.541 0,-8c1.069,-2.941 6.118,-11.394 8,-14c3.318,-4.594 18,-22 18,-22c0,0 -21.504,37.774 -26,44z" fill="#6ef7f7" stroke="none" stroke-linecap="none" stroke-linejoin="arcs" stroke-miterlimit="8"></path><path d="M423.5,604.5l27,-7z" fill="#6ef7f7" stroke="none" stroke-linecap="none" stroke-linejoin="arcs" stroke-miterlimit="8"></path><path d="M421.5,664.5c0.063,2.401 -0.401,11.401 -1,12c-0.401,0.401 -2.9,-6.7 -4,-7c-1.1,-0.3 -6.389,4.688 -7,4c-0.989,-1.112 -1.693,-10.575 -1,-13c1.307,-4.575 11,-22 11,-22c0,0 1.863,20.801 2,26z" fill="#6ef7f7" stroke="none" stroke-linecap="none" stroke-linejoin="arcs" stroke-miterlimit="8"></path><path d="M413.5,716.5c0.583,-0.055 1.227,2.494 1,3c-0.466,1.039 -3.366,4.093 -4.463,4.72c-1.703,0.973 -7.574,2.89 -9.537,3.28c-2.344,0.466 -9.888,1.587 -12,1c-1.488,-0.413 -6,-6 -6,-6c0,0 25.183,-5.455 31,-6z" fill="#6ef7f7" stroke="none" stroke-linecap="none" stroke-linejoin="arcs" stroke-miterlimit="8"></path><path d="M401.5,709.5l-14,-1z" fill="#6ef7f7" stroke="none" stroke-linecap="none" stroke-linejoin="arcs" stroke-miterlimit="8"></path><path d="M387.5,772.5c0.875,0.278 -21.253,-0.093 -26.476,-0.658c-2.177,-0.235 -10.524,-3.342 -10.524,-3.342c0,0 35.77,3.609 37,4z" fill="#6ef7f7" stroke="none" stroke-linecap="none" stroke-linejoin="arcs" stroke-miterlimit="8"></path><path d="M346.5,709.5c3.777,-0.944 16.076,-0.42 20,0c1.676,0.18 6.551,2.116 8,3c3.768,2.3 14.718,10.054 18.081,12.919c2.037,1.735 8.919,10.081 8.919,10.081l-75,-16c0,0 15.777,-8.944 20,-10z" fill="#6ef7f7" stroke="none" stroke-linecap="none" stroke-linejoin="arcs" stroke-miterlimit="8"></path><path d="M408.5,544.5c0.815,0 2.803,2.305 3,3c0.17,0.6 -0.904,2.788 -1.161,3.473c-0.343,0.915 -1.266,3.758 -1.839,4.527c-0.995,1.336 -4.584,5.15 -6,6c-1.584,0.95 -7.145,2.677 -9,3c-2.745,0.477 -11.228,1.126 -14,1c-1.628,-0.074 -6.92,-1.018 -8,-2c-1.12,-1.018 -3.5,-6.9 -3,-8c0.5,-1.1 6.349,-2.684 8,-3c1.431,-0.274 7.967,-0.014 7.408,0.048c-1.241,0.138 -13.144,1.004 -16.408,0.952c-1.311,-0.021 -5.256,-0.867 -6.467,-1.313c-0.635,-0.234 -2.367,-1.536 -2.761,-2.084c-0.712,-0.99 -3.465,-5.257 -2.772,-5.603c1.552,-0.775 11.268,-0.373 14,0c1.668,0.227 8,3 8,3c0,0 25.015,-3 31,-3z" fill="#f7f76e" stroke="none" stroke-linecap="none" stroke-linejoin="arcs" stroke-miterlimit="8"></path><path d="M275.5,717.5c0.221,-0.119 -1.098,-0.774 -1,-1c0.452,-1.045 2.91,-4.358 3.752,-5.354c1.358,-1.604 6.093,-7.759 7.248,-7.646c1.038,0.101 3.601,6.973 3.717,8.715c0.084,1.258 -1.894,5.226 -2.717,6.285c-1.273,1.638 -6.089,5.919 -7.764,7.2c-1.725,1.319 -7.264,5.03 -9.236,5.8c-1.2,0.469 -5.307,0.394 -6.623,0.394c-0.284,0 -1.335,-0.139 -1.377,-0.394c-0.234,-1.424 0,-8 0,-8c0,0 11.621,-4.719 14,-6z" fill="#f7f76e" stroke="none" stroke-linecap="none" stroke-linejoin="arcs" stroke-miterlimit="8"></path><path d="M316.5,658.5l6,2z" fill="#f7f76e" stroke="none" stroke-linecap="none" stroke-linejoin="arcs" stroke-miterlimit="8"></path><path d="M408.5,733.5c0,0 -18.991,12.434 -24,15c-3.191,1.634 -13.544,5.012 -17,6c-2.144,0.612 -12.347,2.69 -11,2c2.747,-1.407 11.65,-5.383 21.33,-9.641c-5.556,2.112 -10.828,4.016 -13.33,4.641c-3.061,0.765 -12.922,0.488 -16,0c-1.478,-0.235 -5.552,-2.757 -6.782,-3.614c-0.366,-0.255 -1.18,-1.501 -1.201,-1.947c-0.108,-2.271 0.237,-9.344 0.556,-11.639c0.225,-1.616 1.251,-6.587 2.164,-7.915c2.773,-4.032 12.748,-15.427 16.263,-18.885c1.137,-1.119 7,-4 7,-4l29.511,35.413c7.216,-3.137 12.489,-5.413 12.489,-5.413z" fill="#f7f76e" stroke="none" stroke-linecap="none" stroke-linejoin="arcs" stroke-miterlimit="8"></path><path d="M223.5,623.5c0,0 3.713,13.554 4,17c0.313,3.754 -0.409,15.303 -1,19c-0.209,1.303 -2.917,6.992 -3,6c-0.517,-6.208 0,-42 0,-42z" fill="#f7f76e" stroke="none" stroke-linecap="none" stroke-linejoin="arcs" stroke-miterlimit="8"></path><path d="M218.5,645.5c0,0 -3.675,5.969 -5,7c-2.275,1.769 -13.393,7.55 -13,7c0.607,-0.85 18,-14 18,-14z" fill="#f7f76e" stroke="none" stroke-linecap="none" stroke-linejoin="arcs" stroke-miterlimit="8"></path><path d="M234.5,733.5c0,0 6.626,0.601 8,0c1.826,-0.799 7.477,-7.468 8,-7c0.604,0.541 -1.542,9.77 -2.37,12.048c-0.772,2.122 -4.534,10.358 -5.63,9.952c-1.63,-0.604 -8,-15 -8,-15z" fill="#000000" stroke="none" stroke-linecap="none" stroke-linejoin="arcs" stroke-miterlimit="8"></path><path d="M169.5,708.5c0,0 0.237,6.42 0,8c-1.563,10.42 -9.676,47.806 -9,52c0.324,2.006 11.478,-16.643 14,-21c1.878,-3.243 6.488,-15.763 8,-17c0.688,-0.563 2.738,6.324 3,8c0.738,4.724 1.212,19.269 2,24c0.612,3.669 4.299,14.338 5,18c1.099,5.738 3.216,25.707 4,29c0.216,0.907 1.976,-7.085 1,-8c-2.224,-2.085 -13.853,-5.221 -17,-7c-1.453,-0.821 -5.701,-4.605 -6,-6c-0.301,-1.405 2.754,-6.334 3,-8c0.386,-2.611 0.528,-10.753 0.162,-13.388c-0.634,-4.565 -4.512,-18.043 -5.162,-22.612c-0.443,-3.116 -0.305,-12.654 -0.305,-15.816c0,-0.838 -0.012,-3.435 0.305,-4.184c0.544,-1.288 4.223,-4.812 4,-6c-0.377,-2.012 -7,-10 -7,-10z" fill="#000000" stroke="none" stroke-linecap="none" stroke-linejoin="arcs" stroke-miterlimit="8"></path><path d="M294.5,699.5c0,0 13.38,-16.207 17,-20c4.78,-5.007 20.768,-18.571 25,-24c6.368,-8.171 21.813,-35.923 28,-44c1.013,-1.323 6.704,-3.399 8,-3c1.304,0.401 4.61,5.441 5,7c0.41,1.641 -0.581,7.265 -1,9c-0.238,0.985 -1.729,3.744 -2.287,4.602c-1.017,1.564 -4.231,6.252 -5.591,7.511c-2.183,2.021 -10.023,6.819 -12.122,8.887c-1.126,1.109 -3.026,5.733 -4,7c-1.026,1.333 -5.053,4.604 -6,6c-2.853,4.204 -10.147,17.796 -13,22c-0.947,1.396 -4.494,5.266 -6,6c-6.294,3.066 -33,13 -33,13z" fill="#000000" stroke="none" stroke-linecap="none" stroke-linejoin="arcs" stroke-miterlimit="8"></path></g></svg>