<svg xmlns="http://www.w3.org/2000/svg" width="8.886in" height="3.423in" viewBox="1437.581 488.208 1172.928 451.851"><path fill="#c9cdcb" d="M2356.859 928.559q2.974-.204 4.97-.222 3.495-.037 5.199-.037 1.705 0 3.631.017 3.41-.017 5 .004 3.468-.021 4.145-.014 3.386-.195 4.34-.229 3.396-.226 6.358-.401 3.444-.189 6.028-.315 3.54-.174 5.269-.253 1.73-.079 2.373-.094 3.614-.222 5.242-.294 3.578-.237 6.953-.428 3.625-.143 5.396-.211 1.77-.068 1.89-.069 3.693-.274 7.139-.419 3.689-.01 5.308.015 3.597-.025 5.743-.009 3.632-.016 4.039-.011 3.746-.258 6.702-.345 3.887-.031 7.285-.028 3.754-.003 3.899.001 3.856-.207 6.78-.279 3.775-.033 6.206-.033 3.79-.298 6.08-.323 3.757-.048 4.245-.04 3.792-.203 6.868-.29l2.983-.021q3.692-.463 5.756-.585 3.732-.247 5.579-.344 3.609-.457 6.54-.717l3.622-.237q3.58-.543 5.355-.787 1.776-.245 2.91-.301 3.517-.276 3.867-.291 3.479-.304 5.143-.401 3.597-.262 5.385-.339 1.789-.077 1.818-.076h3.511q3.37-.272 4.347-.299 3.455-.196 5.158-.275 1.704-.08 3.099-.068l2.487-.029q3.343-.289 4.371-.315 3.498-.181 6.455-.306 3.459-.305 6.565-.423l2.703-.012q3.281-.254 5.322-.277 3.385-.035 4.261-.012l1.932-.013v-5.092q0-1.666.012-3.822-.012-3.301-.012-4.916 0-1.616.046-4.574.145-3.379.22-5.03.076-1.65.105-2.145v-5.034q0-1.655.062-4.15.122-3.223.194-4.8.071-1.576.114-2.379v-4.85q0-1.593.034-4.056.08-3.326.127-4.921l.092-3.147.118-3.987v-5.017q0-1.645.035-4.806l.001-.098.067-1.59.131-3.134q.065-1.547.156-3.633l.163-5.211.105-3.308.144-4.547v-4.639q0-1.522.008-3.612-.008-3.298-.008-4.906 0-1.609.012-3.613-.012-3.153-.012-4.692 0-1.54.006-3.828-.006-3.028-.006-4.507 0-1.479.003-3.95l-.003-4.458v-2.903q0-1.442.042-2.572.063-3.144.107-4.655l.085-2.978.084-2.911q.041-1.443.053-1.684v-4.617q0-1.515.006-3.017.007-1.501.044-2.037.115-3.187.18-4.741l.132-3.09q.066-1.536.068-1.548l.257-4.511.165-2.882.161-2.815q.079-1.395.243-3.843.261-3.081.392-4.58l.335-3.832.181-4.142.121-2.712q.061-1.35.313-3.983l.511-3.886.5-3.787-.057-1.276q-.123-1.831-.214-3.904t-.266-6.362q-.069-.853-.304-4.72-.163-1.336-.583-5.337-.271-3.009-.515-7.042-.159-1.214-.649-5.209-.018-.103-.171-2.032-.153-1.93-.38-5.836-.142-1.608-.29-3.66-.149-2.053-.435-6.309-.196-2.592-.444-6.597-.183-2.789-.387-6.851-.14-2.943-.212-5.005-.073-2.062-.22-6.348-.142-2.719-.317-6.944-.064-.745-.071-2.782-.008-2.036.024-6.18-.032-2.067-.032-6.364-.089-1.43-.31-5.608-.013-.115-.037-2.187-.024-2.072.002-6.273-.026-.677-.026-2.684v-6.137q-.107-1.581-.342-5.54-.176-2.785-.389-6.712-.028-3.886.056-5.945l.255-6.296q-.012-.875.009-4.773-.021-2.229.004-6.113-.025-2.142.004-6.174-.029-1.777.012-5.74.077-2.923.391-6.874l.001-7.079-.001-3.554-.245-3.037q-.113-.977-.212-2.858-.099-1.881-.266-5.711-.079-2.874.018-6.628l-.006-.372q-1139.546-3.299-1139.51-3.182.035.116.881 5.019.847 4.902 1.06 10.569.214 5.667.49 14.957.276 9.29.337 15.231.062 5.941.002 16.776t-.252 16.337q-.192 5.503-.253 17.894-.061 12.39-.12 18.997-.06 6.606-.124 10.086-.065 3.48-.077 5.729-.012 2.249-.052 14.314-.02 6.032.122 12.276t.289 10.98q.147 4.736.346 10.046l.375 9.959q.176 4.649.406 10.631.229 5.983.445 11.313.216 5.331.361 9.104.145 3.773.221 5.985.075 2.212.112 7.507.037 5.295.021 13.705-.015 8.41-.097 14.942-.081 6.532-.293 13.491-.211 6.958-.562 15.888-.351 8.929-1.049 20.353-.387 5.803-.753 13.145t-.799 16.434q-.432 9.093-.859 16.153-.426 7.059-.93 14.296-.504 7.236-1.007 12.727-.504 5.49-1.045 11.315-.541 5.824-.935 10.717-.392 4.893.482 11.342 3.118-.001 6.057.044 3.321.145 4.953.218 1.633.074 3.002.168 3.173.162 4.739.256 1.566.094 2.005.134 3.285.191 4.027.242 3.266 0 4.886.014t4.462.24q3.299.352 5.466.593l5.918.318 5.023.175q1.646.058 3.373.122 3.483 0 5.204.005 1.722.006 2.906.086 3.337.146 5.6.269l5.211-.193q1.709-.064 3.402-.115 1.694-.052 1.816-.047 3.48-.005 5.187-.005 1.708 0 4.574.068 3.224.146 4.806.227 1.582.08 2.55.141 3.292.118 4.902.18 1.61.062 2.842.115h4.848q1.597 0 4.496.046 3.25.134 4.837.203l3.76.167 5.408.121 3.438.077 3.355.075q1.663.037 1.746.042h5.014q1.644 0 3.271.003 1.627.004 2.285.044 3.314.097 4.921.155l3.185.114q1.577.057 1.778.066l5.308-.128 3.364-.082 3.271-.079q1.619-.039 4.343-.083 3.456-.01 5.122-.01h3.293q1.628 0 3.945.007 3.527-.007 5.229-.007h3.367q1.665 0 4.585.029 3.585.102 5.308.156l3.405.106q1.681.053 2.746.09l5.15-.167 3.327-.107q1.648-.053 3.957-.083 3.656-.024 5.412-.024h3.466q1.71 0 4.346.005 3.847-.005 5.65-.005h10.165q1.62 0 3.52.013 3.645-.013 5.39-.013h6.798q1.667 0 1.834.006 3.586-.006 5.305-.006h24.813l4.499.002 5.39-.002h6.775q1.659 0 2.254.017 3.482-.017 5.155-.017h6.527q1.602 0 1.873.009 3.535-.009 5.225-.009h6.574q1.608 0 2.62.019 3.715-.019 5.492-.019h6.927q1.7 0 2.652.043 3.718.071 5.493.119l3.492.094 4.951.133 5.908-.108 3.648-.067 3.472-.063 3.357-.061 3.291-.059q1.635-.03 2.013-.017 3.708-.014 5.476-.014h6.869q1.68 0 3.491.045 3.733.065 5.512.112l3.498.091 3.402.089q1.684.044 2.541.081 4.204.06 6.149.095l3.77.066 3.568.063 3.428.06 3.344.059q1.657.029 2.521.066 3.817.057 5.629.095l3.556.074 3.449.071q1.705.036 3.536.094 3.861.076 5.692.121l3.593.089 3.485.087q1.723.042 2.455.07h12.583q1.693 0 4.532.017 3.93.065 5.783.101l3.628.069 3.501.067q1.726.033 3.432.069 1.705.036 2.798.125 3.708.21 5.464.324l3.44.225 3.318.217 4.016.263 6.504.078 3.92.047 3.661.044 3.472.042 3.341.04 3.262.039q1.617.02 2.811.061 3.784.056 5.568.094l3.485.075 3.349.072 3.262.071q1.616.034 2.105.052h16.238q1.665 0 3.024.02 4.667-.02 6.778-.02h21.094q1.578 0 1.763.007 4.007-.007 5.877-.007h10.487q1.665 0 3.835.011 3.993-.011 5.855-.011h10.424q1.651 0 4.32.004 4.051-.004 5.939-.004h10.59q1.682 0 4.312.019 4.042.053 5.929.084l3.673.06 3.507.058 3.4.056q1.68.028 3.834.077 3.97.066 5.826.104l3.619.073 3.461.069 3.358.068q1.66.033 3.728.091 4.407.094 6.411.145l3.851.096 3.574.089 3.364.084 3.209.081 3.099.077 3.03.076q1.503.037 2.405.072 3.782.055 5.56.087l3.471.06 3.33.059 3.24.057q1.603.028 3.49.077 3.418.058 5.035.093l3.163.068 3.04.065 2.958.063 4.169.09 5.837.071 3.546.044 3.319.04 3.148.039 3.019.037 2.929.035 2.873.036q1.426.017 1.841.029 3.601-.004 5.303-.004h9.674q1.553 0 2.764.018 3.27-.018 4.826-.018h8.872q1.425 0 2.838.003 1.414.003 1.617.014 3.155.064 4.655.098l2.94.066 2.837.063 2.763.062 2.72.061 1.371.032h14.432q1.73-.119 5.002-.254 3.342-.005 4.979-.005 1.636 0 3.262.034 1.625.033 1.913.064l2.457.161"/><path fill="#ed5d47" d="M1855.167 727.792q-3.627 4.501-5.146 6.413-1.519 1.912-2.835 3.596-1.316 1.683-3.491 4.358t-3.772 4.73q-1.597 2.054-2.878 3.839-1.28 1.784-2.275 3.228-.995 1.445-1.83 2.728-.834 1.283-1.732 2.892-.897 1.61-1.301 2.457-.403.847-1.05 2.524t-.907 2.555q-.26.877-.692 2.802-.141 1.561-.22 4.246-.079 2.685.024 4.447.102 1.762.539 4.929.436 3.166.735 4.71.3 1.543 1.553 6.788 1.252 5.244 2.209 8.665.958 3.422 1.743 6.013.785 2.591 1.175 3.753t1.111 3.037q.722 1.875 1.061 2.638.339.762 1.67 3.19 1.331 2.427 2.798 4.235 1.467 1.808 2.566 2.817.704.559 1.681 1.117.977.558 3.821 1.512 2.845.954 13.064 1.425 10.219.471 18.832.306 8.612-.165 12.921-.181 4.308-.017 9.276-.003 4.968.013 13.992.043 9.023.031 18.485-.192 9.463-.222 11.751-.55 2.288-.327 4.151-.802 1.863-.476 2.88-.87 1.016-.395 1.788-.798.773-.403 1.716-1.108.944-.705 2.113-1.875 1.168-1.17 1.717-1.876.549-.705 2.158-3.367 1.609-2.661 2.395-4.385.786-1.724 2.431-6.44 1.646-4.716 2.272-6.746.625-2.029 1.379-4.572t1.774-5.899q1.02-3.355 1.651-5.602.631-2.247 1.117-4.124.486-1.878.771-3.147.284-1.269.602-4.312.317-3.042.255-4.535-.062-1.492-.184-2.28-.122-.788-.199-1.091-.076-.304-.478-1.581-.401-1.277-1.884-4.246-1.482-2.97-2.496-4.53-1.013-1.561-3.329-4.727-2.317-3.167-3.827-5.106-1.51-1.939-2.826-3.589t-2.287-2.864q-.972-1.214-2.697-3.363t-2.974-3.603q-1.25-1.454-3.539-3.945-2.29-2.492-3.656-3.967-1.367-1.475-4.482-4.677"/><path d="M1836.524 638.552q-.983.803-1.871 1.797-.887.994-1.298 1.481-.411.486-.708.768-.297.282-.81.782-.513.5-.788.745t-.397.308q-2.02 1.863-3.002 2.982-.982 1.119-1.268 1.543l-.577.854q-.291.429-.373.757-.591 1.112-.959 2.416-.368 1.304-.551 2.28-.182.977-.23 1.328l-.165 1.187q-.118.835-.123 1.052-.005.216-.199 3.287-.193 3.071-.227 5.13-.034 2.058-.035 3.214-.002 1.155-.028 1.208-.026.053-.053 1.376-.027 1.324.022 2.955t.08 2.785q.031 1.155.086 1.638.056.483.04.568-.016.085.317 3.038.333 2.954.52 4.339.188 1.385.383 2.445.195 1.06.379 1.768.184.707.509 1.537.325.829.437 1.087.11.258.469.907.359.65 1.059 1.381.699.732 1.404 1.21.705.479.759.527.055.049 1.086.442 1.031.393 1.886.625.855.231 1.53.4t2.964.544q2.29.376 3.641.549 1.351.173 2.643.292 1.292.119 2.924.196 1.633.078 4.88.406t5.44.481q2.193.152 3.267.246 1.074.095 1.678.129.604.034 2.891.302 2.287.269 2.509.29.222.022.276.056.054.034 4.34.308 4.285.274 9.876-.051 5.591-.325 8.311-.443 2.719-.117 3.631-.126.912-.008 1.947-.061l2.176-.112q1.143-.059 2.052-.058.908 0 1.866.031.958.032 2.798.042 1.839.01 3.768-.079 1.929-.089 4.019-.151 2.089-.063 3.831-.191 1.742-.127 4.871-.391 3.128-.263 5.842-.494 2.714-.231 5.142-.548 2.428-.316 4.213-.474 1.786-.157 2.48-.204.693-.048 3.637-.3t4.572-.436q1.628-.183 3.059-.333 1.431-.15 2.645-.309t2.599-.325q1.385-.165 2.117-.262.731-.096 1.528-.215.796-.118 1.297-.202.5-.085.665-.092.165-.007.864-.129.7-.122 1.253-.221.554-.098 1.187-.264.634-.166 1.121-.301.488-.134 1.359-.553.87-.419 1.261-.722.391-.303.823-.803.432-.499.52-.664l.387-.71q.298-.546.514-1.129.216-.583.345-1.14.129-.558.399-1.942.269-1.385.345-1.939.075-.555.471-2.945.397-2.39.593-3.905.196-1.515.252-3.508.056-1.993.073-3.352.016-1.359-.056-3.863-.073-2.505-.247-4.57-.174-2.066-.503-4.145-.329-2.079-.502-2.972-.174-.892-.318-1.46-.144-.569-.347-1.7-.204-1.131-.539-2.765-.334-1.634-.501-2.528-.166-.895-.356-1.659-.19-.764-.207-.861-.016-.097-.25-.905-.234-.807-.565-1.724-.33-.917-.387-1.025-.057-.108-1.17-2.426-.99-1.613-1.247-1.953-.258-.341-.618-.688-.359-.347-.388-.385-.029-.039-.522-.388-.492-.349-.557-.419-.066-.07-1.179-.48-.717-.294-2.177-.77"/><path fill="#00bfa4" d="M2079.598 726.672q-3.627 4.501-5.146 6.413-1.519 1.912-2.835 3.596-1.317 1.683-3.492 4.358t-3.771 4.73q-1.597 2.054-2.878 3.839-1.28 1.784-2.276 3.228-.995 1.445-1.829 2.728-.834 1.283-1.732 2.892-.898 1.61-1.301 2.457-.403.847-1.05 2.525-.647 1.677-.907 2.554-.261.878-.692 2.802-.141 1.561-.22 4.246-.079 2.685.023 4.447.103 1.762.539 4.929.437 3.166.736 4.71.3 1.543 1.552 6.788 1.253 5.244 2.21 8.665.958 3.422 1.743 6.013.785 2.591 1.175 3.753t1.111 3.037q.722 1.875 1.061 2.638.339.762 1.67 3.19 1.33 2.427 2.798 4.235 1.467 1.808 2.566 2.817.703.559 1.68 1.117.978.558 3.822 1.512 2.845.954 13.064 1.425 10.219.471 18.831.306 8.613-.165 12.921-.181 4.309-.016 9.277-.003 4.968.013 13.991.043 9.024.031 18.486-.192 9.463-.222 11.751-.55 2.288-.327 4.151-.802 1.863-.476 2.879-.87 1.017-.395 1.789-.798t1.716-1.108q.944-.705 2.113-1.875 1.168-1.17 1.717-1.876.548-.705 2.157-3.367 1.609-2.661 2.396-4.385.786-1.724 2.431-6.44t2.271-6.746q.626-2.029 1.38-4.572.754-2.543 1.774-5.899 1.019-3.355 1.65-5.602.631-2.247 1.118-4.124.486-1.878.771-3.147.284-1.269.602-4.312.317-3.042.255-4.535-.062-1.492-.184-2.28-.122-.788-.199-1.091-.077-.304-.478-1.581-.402-1.277-1.884-4.246-1.482-2.97-2.496-4.53-1.013-1.561-3.33-4.727-2.316-3.167-3.826-5.106-1.51-1.939-2.826-3.589t-2.288-2.864q-.971-1.213-2.696-3.363-1.725-2.149-2.975-3.603-1.249-1.454-3.539-3.945-2.29-2.492-3.656-3.967t-4.481-4.676"/><path d="M2060.955 637.432q-.984.803-1.871 1.797-.887.994-1.298 1.481-.411.486-.708.768-.297.282-.81.782-.513.5-.788.745-.276.245-.397.308-2.02 1.863-3.002 2.982-.983 1.119-1.269 1.544-.285.424-.576.853t-.374.757q-.591 1.112-.958 2.416-.368 1.304-.551 2.28-.183.977-.23 1.328l-.165 1.187q-.118.835-.123 1.052-.005.217-.199 3.287-.193 3.071-.227 5.13-.034 2.059-.035 3.214-.002 1.155-.028 1.208-.026.053-.053 1.376-.027 1.324.022 2.955t.08 2.785q.03 1.155.086 1.638.056.483.04.568-.016.085.317 3.038.333 2.954.52 4.339.187 1.385.382 2.445.195 1.06.38 1.768.184.707.509 1.537.325.829.436 1.087.111.258.47.907.359.65 1.058 1.382.7.731 1.405 1.209.705.479.759.527.055.049 1.085.442 1.031.393 1.886.625.855.231 1.53.4.676.169 2.965.544 2.289.376 3.64.549 1.352.173 2.644.292t2.924.196q1.632.078 4.88.406 3.247.328 5.44.481 2.193.152 3.267.246 1.074.095 1.678.129.604.034 2.891.302 2.287.269 2.509.29.222.022.276.056.054.034 4.339.308 4.286.274 9.877-.051 5.591-.325 8.31-.443 2.719-.117 3.632-.126.912-.008 1.946-.061l2.177-.112q1.142-.059 2.051-.058.909 0 1.867.031.958.032 2.798.042 1.839.01 3.768-.079 1.929-.089 4.019-.151 2.089-.063 3.831-.19 1.742-.128 4.871-.392 3.128-.263 5.842-.494 2.714-.231 5.141-.548 2.428-.316 4.214-.474 1.785-.157 2.479-.204.694-.048 3.638-.3t4.572-.435q1.628-.184 3.059-.334 1.43-.15 2.645-.309 1.214-.159 2.599-.325 1.385-.165 2.117-.262.731-.096 1.527-.214.797-.119 1.298-.203.5-.085.665-.092.164-.007.864-.129t1.253-.221q.553-.098 1.187-.264.633-.166 1.121-.3.488-.134 1.359-.554.87-.419 1.26-.722.391-.303.823-.803.433-.499.521-.664l.386-.71q.298-.546.514-1.129.216-.583.346-1.14.129-.558.399-1.942.269-1.384.344-1.939.076-.555.472-2.945.397-2.39.593-3.905.196-1.514.252-3.507.056-1.993.072-3.353.017-1.359-.056-3.863-.072-2.505-.246-4.57-.174-2.066-.503-4.145-.329-2.079-.503-2.971-.173-.893-.317-1.461-.144-.569-.348-1.7-.203-1.131-.538-2.765-.335-1.634-.501-2.528-.167-.895-.356-1.659-.19-.764-.207-.861-.017-.097-.25-.905-.234-.807-.565-1.724-.33-.917-.387-1.025-.058-.108-1.171-2.426-.989-1.613-1.247-1.953-.257-.34-.617-.687-.359-.347-.388-.386-.03-.039-.522-.388-.492-.349-.557-.419-.066-.07-1.179-.48-.717-.294-2.178-.77m-548.935 88.642q-3.627 4.501-5.146 6.413-1.519 1.913-2.835 3.596-1.317 1.683-3.492 4.358-2.174 2.675-3.772 4.73-1.596 2.054-2.877 3.839-1.28 1.784-2.276 3.229-.995 1.444-1.829 2.727t-1.732 2.892q-.897 1.61-1.301 2.457-.403.848-1.05 2.525t-.907 2.554q-.261.878-.692 2.802-.141 1.561-.22 4.246-.079 2.685.023 4.447.103 1.762.539 4.929.437 3.166.736 4.71.3 1.544 1.552 6.788 1.253 5.244 2.21 8.666.958 3.421 1.743 6.012.785 2.592 1.175 3.753.39 1.162 1.111 3.037.722 1.875 1.061 2.638.338.762 1.669 3.19 1.331 2.427 2.799 4.235 1.467 1.808 2.566 2.817.703.559 1.68 1.117.978.558 3.822 1.512 2.845.954 13.064 1.425 10.219.471 18.831.306 8.613-.165 12.921-.181 4.309-.016 9.277-.003 4.968.013 13.991.044 9.024.03 18.486-.193 9.463-.222 11.751-.549 2.288-.328 4.151-.803 1.863-.475 2.879-.87 1.017-.395 1.789-.798t1.716-1.108q.944-.705 2.113-1.875 1.168-1.17 1.717-1.875.548-.706 2.157-3.368 1.609-2.661 2.396-4.385.786-1.723 2.431-6.44 1.646-4.716 2.271-6.745.626-2.03 1.38-4.573.754-2.543 1.773-5.898 1.02-3.356 1.651-5.603t1.118-4.124q.486-1.877.771-3.147.284-1.269.601-4.312.318-3.042.256-4.534-.062-1.493-.184-2.281t-.199-1.091q-.077-.304-.478-1.581-.402-1.277-1.884-4.246-1.482-2.97-2.496-4.53-1.013-1.56-3.33-4.727-2.316-3.167-3.826-5.106-1.51-1.939-2.826-3.589t-2.288-2.864q-.971-1.213-2.696-3.363-1.725-2.149-2.974-3.603-1.25-1.454-3.54-3.945-2.289-2.491-3.656-3.966-1.366-1.475-4.481-4.677m-107.833-84.281q-.984.803-1.871 1.797-.887.994-1.298 1.481-.411.487-.708.768-.298.282-.81.782-.513.5-.788.745-.276.246-.398.308-2.019 1.863-3.001 2.982-.983 1.119-1.268 1.544l-.577.853q-.291.429-.374.758-.591 1.111-.958 2.415-.368 1.304-.551 2.281-.182.976-.23 1.328l-.165 1.186q-.118.835-.123 1.052-.005.217-.199 3.287-.193 3.071-.227 5.13-.034 2.059-.035 3.214-.002 1.155-.028 1.208-.026.053-.053 1.376-.027 1.324.022 2.955t.08 2.785q.03 1.155.086 1.638.056.483.04.568-.016.085.317 3.038.333 2.954.52 4.339.188 1.385.382 2.445.195 1.06.38 1.768.184.708.509 1.537t.436 1.087q.111.258.47.908.359.649 1.058 1.381.7.731 1.405 1.21.705.478.759.526.054.049 1.086.442 1.03.393 1.885.625.855.231 1.531.4.675.169 2.964.544 2.289.376 3.641.549 1.351.173 2.643.292 1.292.119 2.924.196 1.632.078 4.88.406 3.247.328 5.44.481 2.193.152 3.267.247 1.074.094 1.678.128.604.034 2.891.302 2.287.269 2.509.29.222.022.276.056.054.034 4.34.308 4.285.274 9.876-.051 5.591-.325 8.31-.442 2.72-.118 3.632-.126.912-.009 1.946-.062l2.177-.111q1.143-.059 2.051-.059.909 0 1.867.031.958.032 2.798.042 1.839.01 3.768-.079 1.929-.089 4.018-.151 2.09-.063 3.832-.19 1.742-.128 4.871-.392 3.128-.263 5.842-.494 2.714-.231 5.142-.547 2.427-.317 4.213-.475 1.785-.157 2.479-.204.694-.048 3.638-.3t4.572-.435q1.628-.184 3.059-.334 1.43-.15 2.645-.309 1.214-.159 2.599-.325 1.385-.165 2.117-.262.731-.096 1.528-.214.796-.119 1.297-.203.5-.084.665-.092.164-.007.864-.129l1.253-.22q.553-.099 1.187-.265.633-.166 1.121-.3.488-.134 1.358-.554.871-.419 1.262-.722.39-.303.823-.802.432-.5.52-.665l.386-.71q.298-.546.514-1.129.217-.583.346-1.14.129-.557.399-1.942.269-1.384.344-1.939.076-.555.472-2.945.397-2.39.593-3.905.196-1.514.252-3.507.056-1.993.072-3.353.017-1.359-.056-3.863-.072-2.504-.246-4.57-.174-2.066-.503-4.145-.329-2.079-.503-2.971-.173-.893-.317-1.461-.144-.568-.348-1.7-.203-1.131-.538-2.765-.335-1.634-.501-2.528-.166-.895-.356-1.659-.19-.764-.207-.861-.017-.097-.25-.904-.234-.808-.565-1.725-.33-.917-.387-1.025-.058-.108-1.17-2.426-.99-1.613-1.248-1.953-.257-.34-.617-.687-.359-.347-.388-.386-.029-.038-.522-.387-.492-.349-.558-.42-.065-.07-1.178-.479-.717-.295-2.177-.771"/><path opacity=".17" fill="#f85db3" d="M2294.156 722.803q-3.627 4.501-5.146 6.414-1.519 1.912-2.835 3.595-1.316 1.683-3.491 4.358-2.175 2.676-3.772 4.73-1.597 2.055-2.878 3.839-1.28 1.784-2.275 3.229-.995 1.444-1.83 2.727-.834 1.283-1.731 2.893-.898 1.609-1.302 2.456-.403.848-1.05 2.525t-.907 2.554q-.26.878-.691 2.802-.142 1.561-.221 4.246-.079 2.685.024 4.447.102 1.762.539 4.929.436 3.167.736 4.71.299 1.544 1.552 6.788 1.252 5.244 2.209 8.666.958 3.421 1.743 6.013.785 2.591 1.175 3.753.39 1.161 1.111 3.036.722 1.876 1.061 2.638.339.763 1.67 3.19t2.798 4.235q1.468 1.809 2.566 2.817.704.559 1.681 1.117.977.558 3.822 1.512 2.844.954 13.063 1.425 10.219.471 18.832.306 8.612-.165 12.921-.181 4.308-.016 9.276-.003 4.968.013 13.992.044 9.023.03 18.486-.192 9.462-.223 11.75-.55 2.289-.328 4.152-.803 1.862-.475 2.879-.87 1.016-.395 1.789-.798.772-.403 1.715-1.108.944-.705 2.113-1.875 1.168-1.17 1.717-1.875.549-.706 2.158-3.367 1.609-2.662 2.395-4.386.786-1.723 2.431-6.44 1.646-4.716 2.272-6.745.626-2.029 1.379-4.573.754-2.543 1.774-5.898 1.02-3.356 1.651-5.603.631-2.246 1.117-4.124.486-1.877.771-3.147.285-1.269.602-4.311.317-3.043.255-4.535-.062-1.493-.184-2.281-.122-.787-.199-1.091-.076-.303-.478-1.58-.401-1.277-1.884-4.247-1.482-2.97-2.495-4.53-1.014-1.56-3.33-4.727-2.317-3.166-3.827-5.106-1.51-1.939-2.826-3.589t-2.287-2.864q-.971-1.213-2.696-3.363-1.726-2.149-2.975-3.603-1.25-1.453-3.539-3.945-2.29-2.491-3.656-3.966-1.367-1.475-4.481-4.677"/><path d="M2275.513 633.563q-.983.803-1.87 1.797-.888.995-1.299 1.481-.411.487-.708.768-.297.282-.81.782-.513.501-.788.746t-.397.308q-2.02 1.862-3.002 2.981-.982 1.119-1.268 1.544l-.577.853q-.291.429-.373.758-.591 1.111-.959 2.415t-.55 2.281q-.183.976-.231 1.328-.047.351-.165 1.187-.118.835-.123 1.051-.005.217-.198 3.287-.194 3.071-.228 5.13-.033 2.059-.035 3.214-.002 1.155-.028 1.208-.026.053-.053 1.377-.027 1.323.022 2.954.049 1.631.08 2.786.031 1.154.087 1.637.055.483.039.568-.016.085.317 3.038.333 2.954.521 4.339.187 1.385.382 2.445.195 1.06.379 1.768t.51 1.537q.325.829.436 1.087.111.258.469.908.359.649 1.059 1.381t1.404 1.21q.705.478.759.527.055.048 1.086.441 1.031.393 1.886.625.855.232 1.53.4.675.169 2.964.545 2.29.375 3.641.548 1.351.174 2.643.292 1.292.119 2.925.197 1.632.077 4.879.405t5.44.481q2.193.152 3.267.247 1.074.094 1.678.128.604.034 2.891.303 2.287.268 2.509.29.222.021.276.055.054.034 4.34.308 4.285.275 9.876-.051 5.591-.325 8.311-.442 2.719-.118 3.631-.126.912-.009 1.947-.062l2.176-.111q1.143-.059 2.052-.059.908 0 1.866.032.958.031 2.798.041 1.84.01 3.769-.078 1.929-.089 4.018-.152 2.089-.063 3.831-.19 1.743-.128 4.871-.391 3.128-.264 5.842-.495 2.714-.231 5.142-.547 2.428-.317 4.213-.474 1.786-.158 2.48-.205.694-.047 3.637-.3 2.944-.252 4.572-.435 1.629-.183 3.059-.334 1.431-.15 2.645-.309 1.215-.159 2.599-.325 1.385-.165 2.117-.261.731-.097 1.528-.215.796-.119 1.297-.203.5-.084.665-.092.165-.007.865-.129l1.253-.22q.553-.099 1.186-.265.634-.166 1.122-.3.487-.134 1.358-.554.87-.419 1.261-.722.391-.303.823-.802.432-.5.521-.665.088-.164.386-.71.298-.546.514-1.129.216-.583.345-1.14.13-.557.399-1.942.269-1.384.345-1.939.075-.554.472-2.945.396-2.39.592-3.905.196-1.514.252-3.507.056-1.993.073-3.352.016-1.36-.056-3.864-.072-2.504-.246-4.57-.175-2.066-.504-4.145-.329-2.079-.502-2.971-.174-.893-.318-1.461-.144-.568-.347-1.699-.204-1.132-.538-2.766-.335-1.633-.502-2.528-.166-.895-.356-1.659-.19-.764-.207-.861-.016-.097-.25-.904-.234-.808-.564-1.725-.331-.916-.388-1.025-.057-.108-1.17-2.426-.989-1.612-1.247-1.953-.258-.34-.617-.687-.359-.347-.389-.386-.029-.038-.521-.387-.493-.349-.558-.42-.065-.07-1.178-.479-.718-.295-2.178-.771"/><path fill="#fff" d="M1928.443 737.278q2.359-.65 3.269-.851.91-.202 2.54-.474 1.63-.271 3.445-.34t2.571.016q.757.085 1.365.238.609.153 1.353.444.744.29 2.347 1.251 1.602.961 2.69 1.855 1.088.894 2.556 2.385 1.467 1.491 2.164 2.33.696.839 1.7 2.154 1.003 1.315 1.881 2.508.879 1.193 1.726 2.362.846 1.168 3.179 4.688 2.333 3.52 2.844 4.419.511.899 2.355 4.985l.467 1.38q.106.453.232 2.133t.085 2.996q-.041 1.316-.185 2.584-.145 1.268-.651 4.116-.507 2.848-.701 3.724-.194.876-.419 1.806l-.565 2.345q-.341 1.417-.711 2.989l-.851 3.618q-.48 2.045-.866 3.734-.386 1.688-.857 3.718-.472 2.031-1.521 5.573-1.051 3.542-2.102 5.65-1.05 2.107-1.876 3.194-.825 1.087-1.063 1.333-.238.245-.875.787l-1.286.742q-3.073.914-5.126.691-2.053-.222-2.368-.393-.315-.172-.75-.514-.434-.342-.767-.959-.332-.616-.763-2.977-.431-2.36-.288-4.942.144-2.582.43-4.451.286-1.87.672-3.88.386-2.01.586-2.953.2-.944.521-2.348.321-1.403.628-2.68l.938-3.899q.632-2.623.998-4.395.367-1.772.685-4.285.318-2.513.354-4.617.036-2.104-.26-4.551-.243-1.048-.581-2.095-.339-1.047-.997-2.558-.658-1.512-1.656-3.54-.998-2.028-1.784-3.501-.786-1.473-1.347-2.463-.561-.99-1.702-2.892t-2.381-3.959q-1.239-2.057-1.833-3.007-.594-.95-1.273-1.974-.679-1.025-1.143-1.685-.464-.661-1.28-1.762-.816-1.101-1.551-2.054-1.093-.881-2.202-1.749Z"/><path fill="none" stroke="#000" stroke-width="5" stroke-linecap="round" stroke-linejoin="round" d="m1823.511 652.234-.049.262-.076.095-.044.273-.082.11q-.012.347-.154 5.171-.141 4.823-.446 8.796-.305 3.972-.468 5.721-.164 1.748-.226 2.799-.063 1.05-.076 2.398-.012 1.347-.011 2.815l.002 2.343q.002.875-.004.901-.006.026.002.796.009.769.11 1.956.101 1.187.161 1.559.059.371.204 1.324.146.953.347 1.961.201 1.007.27 1.477.069.469.112.696.044.226.161.704.116.477.328 1.13.212.652.28.839.068.188.066.224.259.605.348.796.088.191.149.215.056.028.31.369.254.341.474.604.219.263.248.279.029.016.208.192t.633.71q.264.188.548.37.284.182.756.336.472.154.768.235.297.082.976.219.68.137.723.15.043.012.439.026.396.013.382.061-.015.048 3.766.732 3.78.684 6.039 1.014 2.258.33 4.055.629 1.798.3 2.603.421.806.121 2.067.301 1.261.18 5.803.448t10.252.594q5.71.327 7.658.249 1.949-.078 7.851.211 5.901.288 10.078.498 4.176.21 6.235.166 2.058-.044 2.433-.022t3.335.126q2.96.104 4.272-.026 1.313-.129 4.969-.236 3.656-.106 5.316-.12 1.66-.014 8.662-.701 7.002-.687 10.601-1.07 3.599-.383 5.324-.627 1.725-.244 2.41-.371.684-.127.894-.196.209-.069.25-.063.042.006 2.198-.402 2.156-.409 4.356-.638 2.2-.229 4.777-.603 2.578-.374 4.721-.691 2.143-.317 2.711-.439.569-.123.829-.202.261-.079.808-.234.547-.155.85-.281.303-.127.398-.194.094-.068.479-.303.385-.236.554-.359l.189-.137q.02-.016.366-.449.346-.432.66-1.028.315-.595.544-1.26.228-.665.333-1.109.104-.443.235-1.346.13-.903.213-1.423.083-.52.157-1.08.074-.559.124-1.846t.118-2.47q.069-1.183.006-2.199-.063-1.016-.069-1.226-.006-.209.006-2.888.011-2.679.011-6.405.001-3.725-.075-5.728-.076-2.002-.133-4.727-.058-2.725-.11-5.599-.051-2.874-.326-5.152l-.379-3.154q-.106-.875-.311-1.943-.206-1.067-.419-1.783-.214-.716-.44-1.392-.227-.676-.712-1.853-.486-1.176-.838-1.664-.353-.487-.532-.636-.178-.148-.192-.168-.013-.02-.303-.203-.291-.183-.721-.429-.43-.247-.518-.282l-1.119-.453q-1.032-.418-2.133-.662-1.101-.244-1.595-.313-.493-.068-.518-.078-.024-.01-.81-.15-.787-.139-5.89-.141-5.103-.002-9.436-.008-4.332-.005-6.591-.115-2.26-.11-3.196-.148-.936-.038-5.645-.204-4.709-.167-7.619-.115-2.909.053-4.663.011-1.754-.043-2.683-.082-.928-.04-1.584.006-.657.046-1.991.076-1.335.029-1.87.047-.536.017-6.222.145-5.687.128-9.105.314-3.419.187-6.14.31-2.722.123-4.274.212-1.553.089-6.675.088-5.121-.001-9.124.008-4.002.008-6.08-.046-2.078-.055-7.115.15-5.037.204-7.508.235-2.471.03-3.61.2-1.14.17-1.56.2-.419.031-1.459.165-1.041.135-1.491.225-.45.09-.68.144-.229.054-.239.063-.011.01-.711.237-.701.227-1.139.44-.438.214-.531.279-.093.065-.387.257-.293.192-.31.214-.017.021-.2.15-.183.128-.425.29-.242.162-.251.176-.01.013-.169.15-.159.137-.203.139-.044.003-.19 1.304"/><path fill="#fff" d="m1926.794 647.099.02.88q-.009.648.074 2.173.083 1.525.159 3.63.075 2.105.102 4.1.027 1.995.077 4.44.05 2.446.192 5.337l.298 6.062q.157 3.17.248 6.184.092 3.014.214 5.939.122 2.925.248 4.149.126 1.224.251 1.731.126.507.429 1.131l.387.18q.309.011.576.065.267.054.94.05.673-.003 1.323-.047.65-.044 1.61-.21.96-.166 2.761-.429 1.801-.262 2.559-.378.758-.116 1.208-.168.45-.052.467-.066.017-.015.805-.166.788-.152 1.967-.37 1.18-.217 1.218-.249.038-.032 1.893-.561.639-.344.942-.525l.374-1.122q.043-.782.034-2.263-.009-1.481-.105-3.469-.096-1.988-.093-2.327.002-.339-.059-.886-.062-.546-.316-7.55-.255-7.004-.302-10.535-.047-3.532-.06-6.517-.013-2.984-.068-3.645-.056-.662-.09-.983-.033-.321-.064-.588-.031-.268-.244-.965l-.001-.077q-.116-.312-.357-.444t-.383-.23q-.142-.097-1.107-.381-.965-.283-2.302-.393-1.337-.109-1.996-.111-.659-.001-2.127.033l-2.718.063q-1.251.029-2.361.045-1.11.016-1.46-.008-.35-.025-3.15-.062m224.067 88.592q2.359-.65 3.269-.851.909-.202 2.54-.474 1.629-.271 3.445-.34 1.815-.069 2.571.016.756.085 1.365.238.609.153 1.353.444.744.29 2.346 1.251 1.603.961 2.691 1.855 1.088.894 2.555 2.385 1.468 1.491 2.164 2.33.697.839 1.7 2.154 1.003 1.315 1.882 2.508.879 1.194 1.725 2.362.847 1.168 3.18 4.688 2.332 3.52 2.844 4.419.511.899 2.355 4.985l.467 1.38q.106.454.232 2.133.126 1.68.085 2.996-.041 1.316-.185 2.584-.145 1.268-.652 4.116-.506 2.848-.7 3.724-.194.876-.419 1.806-.225.929-.565 2.345-.341 1.417-.711 2.989l-.851 3.618q-.48 2.046-.866 3.734-.386 1.688-.857 3.718-.472 2.031-1.522 5.573-1.05 3.542-2.101 5.65-1.051 2.107-1.876 3.194-.826 1.087-1.063 1.333-.238.245-.875.787l-1.287.742q-3.072.914-5.125.692-2.053-.223-2.368-.394-.315-.171-.75-.514-.434-.342-.767-.959-.333-.616-.764-2.977-.431-2.36-.287-4.942.143-2.582.43-4.451.286-1.87.672-3.88.386-2.01.586-2.953.2-.944.521-2.348.321-1.403.628-2.679.306-1.277.938-3.9.631-2.623.998-4.395.366-1.772.684-4.285.318-2.513.355-4.617.036-2.104-.26-4.551-.243-1.048-.582-2.095-.338-1.047-.996-2.558-.658-1.512-1.656-3.54-.999-2.028-1.785-3.501-.785-1.473-1.346-2.463t-1.702-2.892q-1.141-1.902-2.381-3.959-1.239-2.057-1.833-3.007-.594-.95-1.273-1.974-.679-1.025-1.143-1.685-.464-.661-1.28-1.762-.816-1.101-1.551-2.054-1.093-.881-2.202-1.749Z"/><path fill="none" stroke="#000" stroke-width="5" stroke-linecap="round" stroke-linejoin="round" d="m2047.942 651.114-.049.263-.076.094-.045.273-.081.11q-.012.347-.154 5.171-.142 4.823-.446 8.796-.305 3.973-.469 5.721-.163 1.748-.226 2.799-.062 1.05-.075 2.398-.013 1.347-.012 2.815l.003 2.343q.002.875-.004.901-.007.027.002.796.009.769.11 1.956.101 1.187.161 1.559.059.371.204 1.324.145.953.347 1.961.201 1.007.269 1.477.069.469.113.696.044.226.161.704.116.477.328 1.13.212.652.28.839.068.188.066.224.258.605.347.796.089.191.149.215.057.028.311.369.254.341.474.604.219.263.248.279.029.016.208.192t.633.71q.264.188.548.37.284.182.756.336.472.154.768.235.296.082.976.219.679.137.722.15.043.012.44.026.396.013.382.061-.015.048 3.765.732 3.781.684 6.039 1.014 2.259.33 4.056.63 1.797.299 2.603.42.806.121 2.067.301 1.261.18 5.803.448t10.252.595q5.709.326 7.658.248 1.949-.078 7.85.211 5.902.288 10.078.498 4.177.21 6.235.166 2.059-.044 2.434-.022.374.022 3.335.126 2.96.104 4.272-.025 1.313-.13 4.969-.236 3.656-.107 5.316-.121 1.66-.014 8.662-.701 7.002-.687 10.601-1.07 3.599-.383 5.324-.627 1.725-.244 2.41-.371.684-.127.893-.196.21-.069.251-.063.042.006 2.198-.402 2.156-.409 4.356-.638 2.199-.228 4.777-.603 2.578-.374 4.721-.691 2.142-.317 2.711-.439.568-.123.829-.202.261-.079.807-.234.547-.154.851-.281.303-.127.398-.194.094-.068.479-.303.385-.236.554-.359l.189-.137q.02-.016.366-.449.345-.432.66-1.028.315-.595.544-1.26.228-.665.333-1.109.104-.443.234-1.346.131-.903.214-1.423.083-.52.157-1.08.074-.559.124-1.846.049-1.287.118-2.47.069-1.183.006-2.199-.063-1.016-.069-1.226-.006-.209.005-2.888.012-2.679.012-6.405.001-3.725-.075-5.728-.076-2.002-.134-4.727-.057-2.725-.109-5.599t-.326-5.152l-.38-3.154q-.105-.875-.311-1.943-.205-1.067-.418-1.783-.214-.716-.441-1.392-.226-.676-.712-1.853-.485-1.176-.838-1.664-.352-.487-.531-.636-.179-.148-.192-.168-.013-.02-.303-.203-.291-.183-.721-.429-.431-.247-.518-.282l-1.119-.453q-1.032-.418-2.133-.662-1.101-.244-1.595-.313-.494-.068-.518-.078-.024-.01-.811-.149-.786-.14-5.889-.142-5.104-.002-9.436-.008-4.332-.005-6.592-.115-2.259-.11-3.195-.148-.936-.038-5.645-.204-4.709-.167-7.619-.115-2.909.053-4.664.011-1.754-.042-2.682-.082-.928-.04-1.585.006-.656.046-1.991.076-1.334.029-1.869.047-.536.017-6.222.145-5.687.128-9.105.314-3.419.187-6.141.31-2.721.123-4.273.212-1.553.089-6.675.088-5.122-.001-9.124.008-4.002.009-6.08-.046-2.078-.055-7.115.15-5.037.204-7.508.235-2.471.03-3.611.2-1.139.17-1.559.2-.419.031-1.46.165-1.04.135-1.49.225-.45.09-.68.144-.229.054-.24.063-.01.01-.71.237-.701.227-1.139.44-.438.214-.531.279-.094.065-.387.257-.293.192-.31.214-.017.021-.2.15t-.425.291q-.242.161-.252.175-.01.013-.169.15-.159.137-.202.139-.044.003-.191 1.304"/><path fill="#fff" d="m2151.224 645.979.021.88q-.01.648.073 2.173.083 1.525.159 3.63t.103 4.1q.027 1.995.077 4.441.049 2.445.192 5.337l.298 6.061q.156 3.17.248 6.184.092 3.014.214 5.939.122 2.925.248 4.149.126 1.225.251 1.731.126.507.429 1.131l.387.18q.309.012.576.065.267.054.94.05.673-.003 1.323-.047.65-.044 1.61-.21.96-.166 2.761-.429 1.801-.262 2.559-.378.758-.116 1.208-.168.45-.052.467-.066.017-.015.804-.166.788-.152 1.968-.37 1.18-.217 1.218-.249.038-.032 1.893-.561.639-.344.941-.525l.375-1.122q.043-.782.034-2.263-.009-1.481-.105-3.469-.096-1.988-.094-2.327.003-.339-.058-.886-.062-.546-.317-7.55t-.301-10.535q-.047-3.532-.06-6.516-.013-2.985-.069-3.646-.056-.662-.089-.983-.034-.321-.065-.588-.031-.268-.243-.965l-.001-.077q-.116-.312-.357-.444t-.383-.23q-.142-.097-1.107-.381-.966-.283-2.303-.393-1.336-.109-1.995-.111-.659-.001-2.127.034l-2.718.062q-1.251.029-2.361.045-1.111.016-1.461-.008-.349-.024-3.15-.062m-445.112 87.363q2.359-.649 3.269-.851.91-.202 2.54-.473 1.629-.272 3.445-.341 1.815-.069 2.571.016.756.085 1.365.238.609.153 1.353.444.744.29 2.346 1.251 1.603.961 2.691 1.855 1.088.894 2.555 2.385 1.468 1.491 2.165 2.33.696.839 1.699 2.154 1.004 1.315 1.882 2.509.879 1.193 1.725 2.361.847 1.168 3.18 4.688 2.333 3.52 2.844 4.419.511.899 2.355 4.985l.467 1.38q.106.454.232 2.133.126 1.68.085 2.996-.041 1.316-.186 2.584-.144 1.268-.651 4.116-.506 2.848-.7 3.725-.194.876-.419 1.805-.225.929-.565 2.345-.341 1.417-.711 2.989l-.851 3.618q-.48 2.046-.866 3.734-.386 1.688-.857 3.719-.472 2.03-1.522 5.572-1.05 3.542-2.101 5.65-1.051 2.108-1.876 3.194-.826 1.087-1.063 1.333-.238.246-.875.787l-1.287.742q-3.072.914-5.125.692-2.053-.223-2.368-.394-.315-.171-.75-.514-.434-.342-.767-.959-.333-.616-.764-2.977-.431-2.36-.287-4.942.143-2.582.43-4.451.286-1.87.672-3.879.386-2.01.586-2.954.2-.944.521-2.347.321-1.404.628-2.68l.938-3.9q.632-2.623.998-4.395.366-1.772.684-4.285.318-2.513.355-4.617.036-2.103-.26-4.551-.243-1.048-.582-2.095-.338-1.046-.996-2.558-.658-1.512-1.656-3.54-.999-2.028-1.784-3.501-.786-1.473-1.347-2.463-.561-.99-1.702-2.892t-2.381-3.959q-1.239-2.057-1.833-3.007-.594-.95-1.273-1.974-.679-1.024-1.143-1.685-.464-.66-1.28-1.762-.816-1.101-1.551-2.054-1.093-.881-2.202-1.749Z"/><path fill="none" stroke="#000" stroke-width="5" stroke-linecap="round" stroke-linejoin="round" d="m1603.193 648.765-.049.263-.076.094-.045.273-.081.11q-.012.347-.154 5.171-.142 4.823-.446 8.796-.305 3.973-.469 5.721-.163 1.748-.226 2.799-.062 1.05-.075 2.398-.013 1.348-.012 2.815l.003 2.343q.002.875-.004.901-.007.027.002.796.009.769.11 1.956.101 1.188.161 1.559.059.371.204 1.324.145.953.347 1.961.201 1.008.269 1.477.069.469.113.696.044.226.161.704.116.477.328 1.13.212.652.28.839.068.188.066.224.259.605.347.796.089.191.149.216.057.027.311.368.254.341.474.604.219.263.248.279.029.016.208.192t.633.71q.264.188.548.37.284.182.756.336.472.154.768.236.297.081.976.218t.722.15q.043.012.44.026.396.013.382.061-.015.048 3.766.732 3.78.684 6.038 1.014 2.259.33 4.056.63 1.797.299 2.603.42.806.121 2.067.301 1.261.181 5.803.448 4.542.268 10.251.595 5.71.326 7.659.248 1.949-.078 7.85.211 5.902.288 10.078.498 4.177.21 6.236.166 2.058-.044 2.433-.022.374.022 3.335.126 2.96.104 4.272-.025 1.313-.13 4.969-.236 3.656-.107 5.316-.121 1.66-.014 8.662-.701 7.002-.687 10.601-1.07 3.599-.383 5.324-.627 1.725-.244 2.409-.371.685-.127.894-.196.21-.069.251-.063.042.006 2.198-.402 2.156-.409 4.356-.637 2.199-.229 4.777-.604 2.578-.374 4.721-.691 2.143-.317 2.711-.439.568-.123.829-.202.261-.079.808-.233.546-.155.85-.282.303-.127.398-.194.094-.067.479-.303t.554-.358l.189-.138q.02-.016.366-.448.345-.433.66-1.029.315-.595.543-1.26.229-.665.334-1.109.104-.443.234-1.346.131-.903.214-1.423.083-.52.157-1.079.074-.56.124-1.847.049-1.287.118-2.47.069-1.183.006-2.199-.063-1.016-.069-1.225-.006-.21.005-2.889.012-2.679.012-6.404.001-3.726-.075-5.728-.076-2.003-.134-4.728-.057-2.724-.109-5.599-.052-2.874-.326-5.152l-.38-3.154q-.105-.875-.31-1.943-.206-1.067-.419-1.783-.214-.716-.44-1.392-.227-.676-.713-1.853-.485-1.176-.838-1.664-.352-.487-.531-.635-.179-.149-.192-.169-.013-.02-.303-.203-.291-.183-.721-.429-.43-.247-.518-.282l-1.119-.453q-1.032-.418-2.133-.662-1.101-.244-1.595-.313-.493-.068-.518-.078-.024-.01-.811-.149-.786-.14-5.889-.142-5.104-.002-9.436-.007-4.332-.006-6.592-.116-2.259-.11-3.195-.148-.936-.038-5.645-.204-4.709-.167-7.619-.114-2.909.052-4.664.01-1.754-.042-2.682-.082-.928-.039-1.585.007-.656.045-1.991.075-1.334.03-1.87.047-.535.017-6.222.145-5.686.128-9.104.314-3.419.187-6.14.31-2.722.123-4.275.212-1.552.089-6.674.088-5.122-.001-9.124.008-4.002.009-6.08-.046-2.078-.055-7.115.15-5.037.204-7.508.235-2.471.03-3.611.2-1.139.17-1.559.201-.419.03-1.46.164-1.04.135-1.49.225-.45.091-.68.144-.229.054-.24.063-.01.01-.71.237-.701.227-1.139.441-.438.213-.531.278-.094.065-.387.257-.293.192-.31.214-.017.022-.2.15-.183.129-.425.291-.242.162-.252.175-.009.013-.169.15-.159.137-.202.14-.044.002-.191 1.303"/><path fill="#fff" d="m1706.475 643.63.021.88q-.01.648.073 2.173.083 1.525.159 3.63t.103 4.1q.027 1.995.077 4.441.049 2.445.191 5.337l.299 6.061q.156 3.17.248 6.184.092 3.015.214 5.939.122 2.925.248 4.149.126 1.225.251 1.731.126.507.429 1.131l.387.18q.309.012.576.065.267.054.94.05.673-.003 1.323-.047.65-.044 1.61-.21.959-.166 2.761-.429 1.801-.262 2.559-.378.758-.116 1.208-.168.45-.052.467-.066.016-.015.805-.166.788-.152 1.967-.369 1.18-.218 1.218-.25.038-.032 1.893-.561.639-.344.941-.525l.375-1.122q.043-.782.034-2.263-.009-1.481-.105-3.469-.096-1.987-.094-2.327.003-.339-.059-.885-.061-.547-.316-7.551-.254-7.003-.301-10.535-.047-3.532-.06-6.516-.013-2.985-.069-3.646-.056-.662-.089-.983-.034-.32-.065-.588-.031-.268-.243-.965l-.001-.076q-.116-.313-.357-.445t-.383-.23q-.142-.097-1.107-.381-.966-.283-2.302-.393-1.337-.109-1.996-.111-.659-.001-2.127.034l-2.718.063q-1.251.028-2.361.044-1.111.016-1.46-.008-.35-.024-3.151-.062m658.944 88.192q2.359-.649 3.269-.851.91-.202 2.54-.473 1.63-.271 3.445-.341 1.815-.069 2.571.016.757.085 1.366.238.608.153 1.352.444.744.29 2.347 1.251 1.602.962 2.69 1.856 1.088.894 2.556 2.385 1.467 1.491 2.164 2.329.697.839 1.7 2.154 1.003 1.315 1.882 2.509.878 1.193 1.725 2.361.846 1.168 3.179 4.688 2.333 3.52 2.844 4.419.511.899 2.355 4.985l.467 1.381q.106.453.232 2.133.126 1.679.085 2.995-.041 1.316-.185 2.584t-.651 4.117q-.507 2.848-.701 3.724-.194.876-.418 1.805l-.566 2.346q-.341 1.416-.711 2.988l-.851 3.618q-.48 2.046-.866 3.734-.385 1.689-.857 3.719-.471 2.03-1.521 5.572-1.05 3.542-2.101 5.65-1.051 2.108-1.877 3.195-.825 1.086-1.063 1.332t-.875.788l-1.286.741q-3.073.914-5.126.692-2.052-.223-2.368-.394-.315-.171-.749-.513-.435-.343-.768-.959-.332-.617-.763-2.977-.431-2.361-.288-4.943.144-2.582.43-4.451.287-1.869.672-3.879.386-2.01.586-2.954.2-.943.521-2.347.322-1.404.628-2.68l.938-3.9q.632-2.623.998-4.395.367-1.771.685-4.285.318-2.513.354-4.617.036-2.103-.26-4.55-.243-1.049-.581-2.096-.339-1.046-.997-2.558-.657-1.512-1.656-3.54-.998-2.028-1.784-3.501-.786-1.473-1.347-2.463-.561-.99-1.702-2.892-1.141-1.901-2.38-3.958-1.24-2.058-1.834-3.008-.593-.95-1.273-1.974-.679-1.024-1.143-1.685-.464-.66-1.28-1.761-.816-1.102-1.55-2.055-1.094-.881-2.203-1.749Z"/><path fill="none" stroke="#000" stroke-width="5" stroke-linecap="round" stroke-linejoin="round" d="m2262.5 647.245-.049.263-.076.094-.044.273-.081.11q-.013.347-.155 5.171-.141 4.823-.446 8.796-.305 3.973-.468 5.721-.164 1.749-.226 2.799-.063 1.05-.076 2.398-.012 1.348-.011 2.815l.003 2.343q.001.875-.005.901-.006.027.002.796.009.769.11 1.956.102 1.188.161 1.559.059.371.205 1.324.145.953.346 1.961.201 1.008.27 1.477.069.469.113.696.044.227.16.704.117.478.329 1.13.211.652.279.84.068.187.066.224.259.605.348.795.088.191.149.216.056.027.31.368.255.341.474.604.219.263.249.279.028.017.207.192.179.176.633.71.264.189.548.371.284.182.756.335.472.154.769.236.296.081.975.218.68.138.723.15.043.012.439.026.397.014.382.061-.015.048 3.766.732 3.781.684 6.039 1.014 2.258.33 4.055.63 1.798.299 2.604.42.805.121 2.066.302 1.261.18 5.803.448 4.542.267 10.252.594 5.71.326 7.658.248 1.949-.078 7.851.211 5.901.288 10.078.499 4.176.21 6.235.165 2.058-.044 2.433-.022.375.023 3.335.126 2.96.104 4.272-.025 1.313-.13 4.969-.236 3.656-.107 5.317-.121 1.659-.014 8.661-.701 7.002-.687 10.601-1.07 3.6-.383 5.324-.627 1.725-.243 2.41-.371.684-.127.894-.196.209-.069.251-.063.041.006 2.197-.402 2.157-.408 4.356-.637 2.2-.229 4.777-.603 2.578-.375 4.721-.692 2.143-.317 2.711-.439.569-.122.829-.201.261-.079.808-.234.547-.155.85-.282.303-.126.398-.194.095-.067.48-.303.384-.236.553-.358l.189-.138q.021-.016.366-.448.346-.433.66-1.028.315-.596.544-1.261.228-.665.333-1.109.104-.443.235-1.346.13-.903.213-1.423.083-.52.157-1.079.074-.56.124-1.847.05-1.286.119-2.47.068-1.183.005-2.199-.063-1.016-.069-1.225-.006-.21.006-2.889.011-2.679.011-6.404.001-3.726-.075-5.728-.075-2.003-.133-4.728-.058-2.724-.109-5.598-.052-2.875-.326-5.153l-.38-3.153q-.106-.876-.311-1.943-.205-1.068-.419-1.784-.213-.716-.44-1.392-.227-.676-.712-1.852-.486-1.177-.838-1.664-.353-.488-.531-.636-.179-.149-.192-.169-.014-.02-.304-.203-.291-.183-.721-.429-.43-.247-.518-.282l-1.119-.453q-1.032-.418-2.133-.662-1.101-.244-1.595-.312-.493-.069-.517-.079-.025-.01-.811-.149-.787-.139-5.89-.142-5.103-.002-9.436-.007-4.332-.006-6.591-.116-2.259-.11-3.195-.148-.937-.038-5.646-.204-4.709-.167-7.619-.114-2.909.052-4.663.01-1.754-.042-2.682-.082-.929-.039-1.585.007-.657.046-1.991.075-1.334.03-1.87.047t-6.222.145q-5.687.128-9.105.315-3.418.186-6.14.309-2.722.124-4.274.212-1.553.089-6.675.088-5.121-.001-9.124.008-4.002.009-6.08-.046-2.077-.054-7.115.15-5.037.205-7.508.235-2.471.031-3.61.201-1.14.169-1.559.2-.42.03-1.46.165-1.04.134-1.491.224-.45.091-.68.144-.229.054-.239.063-.011.01-.711.237-.7.227-1.138.441-.439.213-.532.278-.093.065-.387.257-.293.192-.31.214-.017.022-.2.15-.182.129-.425.291-.242.162-.251.175-.01.013-.169.15-.159.137-.203.14-.044.002-.19 1.304"/><path fill="#fff" d="m2365.783 642.111.02.879q-.009.648.074 2.173.083 1.525.159 3.63t.103 4.1q.027 1.995.076 4.441.05 2.446.192 5.337l.299 6.061q.156 3.171.248 6.185.091 3.014.213 5.938.123 2.925.248 4.149.126 1.225.252 1.731.125.507.428 1.132l.387.179q.309.012.576.065.267.054.94.05.673-.003 1.323-.047.65-.044 1.61-.21.96-.166 2.761-.429 1.801-.262 2.559-.378.758-.115 1.208-.168.45-.052.467-.066.017-.014.805-.166t1.968-.369q1.179-.218 1.217-.25.038-.032 1.893-.561.639-.344.942-.525l.374-1.122q.043-.781.034-2.263-.009-1.481-.105-3.468-.096-1.988-.093-2.327.002-.339-.059-.886-.062-.547-.316-7.551-.255-7.003-.302-10.535-.047-3.532-.06-6.516-.013-2.985-.068-3.646-.056-.662-.09-.982-.033-.321-.064-.589-.031-.268-.244-.965l-.001-.076q-.115-.313-.357-.445-.241-.132-.383-.229-.142-.098-1.107-.382-.965-.283-2.302-.392-1.337-.11-1.996-.111-.659-.002-2.126.033l-2.719.063q-1.25.028-2.361.044-1.11.016-1.46-.008-.35-.024-3.15-.062"/><path d="M1616.677 842.798q1.874.307 2.77.439.896.132 1.581.26.686.128 2.311.346 1.625.219 3.125.365 1.499.145 2.531.182 1.031.037 3.617.116 2.587.078 3.403.131.816.053 1.275.092.458.039 1.44.085.981.046 2.862.139 1.881.094 5.104.129 3.222.035 6.526.229t7.031.23q3.726.036 5.085.031 1.36-.005 2.182.021.821.025 3.102.084 2.281.058 3.761.091 1.479.032 2.316-.01.836-.042 3.378-.04 2.541.001 5.271.076t4.835.091q2.106.016 3.585-.02 1.478-.037 2.941-.089 1.462-.053 4.305-.111 2.843-.057 7.007-.329 4.164-.271 7.249-.422 3.085-.15 5.859-.343 2.774-.193 3.989-.332 1.214-.139 1.65-.164.435-.025 1.97-.17 1.534-.145 2.084-.17.551-.026.948-.008.398.018.996 0t1.643-.091q1.044-.073 1.054-.068.009.005 1.433-.092 1.424-.097 2.894-.355 1.47-.258 2.649-.514t2.196-.472q.475-.024.692-.045.218-.021-.015.22-.234.242-.208.284.025.043-1.819 1.056-1.845 1.014-3.621 1.691-1.775.677-3.921 1.285-2.145.607-4.406 1.417-2.26.81-3.606 1.36-1.346.551-2.065.814-.719.264-1.446.494-.726.23-.866.308-.14.078-6.767 1.706-6.627 1.629-12.628 2.562-6.001.932-8.63 1.244-2.629.312-4.105.447-1.476.135-4.394.365-2.917.23-4.035.314-1.117.084-2.307.236-1.19.152-1.963.237-.772.085-1.491.146-.718.061-2.64.165-1.922.104-6.345.405-4.424.301-8.666.542-4.243.241-7.925.388-3.681.147-5.648.29-1.966.144-3.88.079-1.915-.064-4.018-.121-2.104-.057-11.12-.185-9.017-.129-13.731-.191-4.714-.063-6.993-.168-2.278-.104-2.574-.146-.296-.041-2.391-.111-2.096-.07-3.706-.212-1.61-.143-3.22-.401t-2.597-.492q-.987-.234-2.326-.706-1.34-.473-1.534-.57-.194-.097-.372-.149-.177-.051-1.671-1.138-1.494-1.086-2.544-2.785-1.05-1.698-1.192-2.481-.141-.782-.095-1.322.046-.54.133-.893.088-.354.519-1.496.14-.334 1.023-1.454.883-1.12 1.748-1.863.866-.743 3.493-2.254 2.628-1.512 3.432-1.91.805-.398 2.17-.96 1.365-.561 1.928-.814.563-.252 1.589-.572 1.026-.319 2.868-.75 1.843-.431 2.142-.491.299-.059 1.288-.17.989-.111 1.299-.088.31.023 1.449.026l1.057.227m231.168 9.55q1.874.306 2.77.438.896.132 1.581.26.685.128 2.311.346 1.625.219 3.125.365 1.499.145 2.531.182 1.031.037 3.617.116 2.587.078 3.403.131.816.053 1.274.092.459.04 1.44.085.982.046 2.863.139 1.881.094 5.104.129 3.222.035 6.526.229t7.031.23q3.726.036 5.085.031 1.36-.005 2.182.021.821.025 3.102.084 2.281.058 3.76.091 1.48.032 2.317-.01.836-.042 3.378-.04 2.541.001 5.271.076 2.729.075 4.835.091t3.585-.02q1.478-.037 2.941-.09 1.462-.052 4.305-.109 2.843-.058 7.007-.329 4.164-.272 7.249-.423 3.085-.15 5.859-.343 2.774-.193 3.989-.332 1.214-.139 1.649-.164.436-.025 1.971-.17 1.534-.145 2.084-.17.551-.026.948-.008.398.018.996 0t1.643-.091q1.044-.073 1.054-.068.009.005 1.433-.092 1.424-.097 2.894-.355 1.47-.258 2.649-.514t2.196-.472q.474-.024.692-.045.218-.021-.016.22-.233.242-.208.284.026.043-1.818 1.056-1.845 1.014-3.621 1.691-1.775.677-3.921 1.285-2.145.607-4.406 1.417-2.26.81-3.606 1.36-1.346.551-2.065.814-.72.264-1.446.494-.726.23-.866.308-.14.078-6.767 1.706-6.627 1.629-12.628 2.562-6.001.932-8.63 1.244-2.629.312-4.105.447-1.476.135-4.394.365-2.917.23-4.035.314-1.117.084-2.307.236-1.19.153-1.963.237-.772.085-1.491.146-.718.061-2.64.165-1.922.104-6.345.405-4.424.301-8.666.542-4.243.241-7.925.388-3.681.147-5.648.29-1.966.144-3.88.079-1.915-.064-4.018-.121-2.104-.057-11.12-.185-9.017-.129-13.731-.191-4.714-.063-6.993-.168-2.278-.104-2.574-.146-.296-.041-2.391-.111-2.096-.07-3.706-.212-1.61-.143-3.22-.401t-2.597-.492q-.987-.234-2.326-.706-1.34-.473-1.534-.57-.194-.097-.372-.149-.177-.051-1.671-1.138-1.494-1.086-2.544-2.785-1.05-1.698-1.192-2.481-.141-.782-.095-1.322.046-.54.133-.893.088-.354.518-1.496.141-.334 1.024-1.454.883-1.12 1.748-1.863.866-.743 3.493-2.254 2.628-1.512 3.432-1.91.805-.398 2.17-.96 1.365-.561 1.928-.814.563-.252 1.589-.572 1.026-.319 2.868-.75 1.843-.431 2.142-.49.299-.06 1.288-.171.989-.111 1.299-.088.31.023 1.449.026l1.057.227m229.77 6.035q1.874.307 2.769.439.896.131 1.582.259.685.128 2.31.347 1.626.218 3.125.364 1.5.146 2.531.183 1.031.037 3.618.115 2.586.079 3.402.132.816.052 1.275.092.458.039 1.44.085.981.045 2.863.139 1.881.094 5.103.129 3.222.035 6.526.229 3.305.194 7.031.23 3.726.035 5.086.03 1.359-.005 2.181.021.822.026 3.103.084 2.28.059 3.76.091 1.479.032 2.316-.01.837-.042 3.378-.04 2.541.002 5.271.077t4.836.09q2.105.016 3.584-.02 1.479-.036 2.941-.089 1.462-.053 4.305-.11t7.007-.329q4.165-.272 7.25-.422 3.084-.151 5.859-.344 2.774-.192 3.988-.331 1.214-.14 1.65-.164.435-.025 1.97-.17 1.534-.145 2.085-.171.55-.026.948-.008.397.018.995 0t1.643-.091q1.045-.073 1.054-.068.009.006 1.433-.091 1.424-.098 2.894-.355 1.47-.258 2.649-.514 1.18-.256 2.196-.472.475-.024.693-.046.218-.021-.016.221-.234.241-.208.284.025.042-1.819 1.056-1.844 1.013-3.62 1.69t-3.922 1.285q-2.145.608-4.405 1.417-2.261.81-3.607 1.361-1.345.55-2.065.814-.719.263-1.446.493-.726.23-.866.308-.14.078-6.767 1.707-6.627 1.628-12.628 2.561t-8.63 1.245q-2.628.312-4.105.447-1.476.135-4.393.364-2.918.23-4.035.314-1.118.084-2.308.237-1.19.152-1.962.237-.773.084-1.491.145-.719.061-2.641.165-1.921.104-6.345.405-4.423.302-8.666.543-4.243.241-7.924.387-3.682.147-5.648.291-1.966.143-3.881.079-1.915-.065-4.018-.122-2.103-.057-11.12-.185t-13.731-.191q-4.714-.063-6.992-.167-2.279-.105-2.575-.146-.295-.042-2.391-.112t-3.706-.212q-1.61-.142-3.22-.4t-2.597-.492q-.987-.234-2.326-.707t-1.534-.569q-.194-.097-.371-.149-.178-.052-1.672-1.138-1.494-1.087-2.544-2.785-1.05-1.699-1.191-2.481-.142-.782-.096-1.322.046-.54.134-.894.087-.354.518-1.495.14-.335 1.023-1.454.883-1.12 1.749-1.863.865-.743 3.492-2.255 2.628-1.512 3.433-1.91.804-.398 2.169-.959 1.365-.561 1.928-.814.564-.253 1.589-.572 1.026-.32 2.869-.751 1.842-.43 2.141-.49.299-.06 1.288-.17.989-.111 1.299-.088.311.023 1.45.025l1.057.227m225.99 3.768q1.873.307 2.769.438.896.132 1.581.26.686.128 2.311.347 1.625.218 3.125.364 1.5.145 2.531.183 1.031.037 3.617.115 2.587.079 3.403.132.816.052 1.275.092.458.039 1.44.084.981.046 2.862.14 1.882.093 5.104.129 3.222.035 6.526.229 3.305.194 7.031.229 3.726.036 5.086.031 1.359-.005 2.181.021.822.026 3.102.084 2.281.059 3.761.091 1.479.032 2.316-.01.837-.042 3.378-.04 2.541.002 5.271.077t4.835.09q2.106.016 3.585-.02 1.478-.036 2.941-.089 1.462-.053 4.305-.11t7.007-.329q4.164-.272 7.249-.423 3.085-.15 5.86-.343 2.773-.192 3.988-.332 1.214-.139 1.65-.163.435-.025 1.97-.17 1.534-.145 2.085-.171.55-.026.948-.008.397.018.995 0t1.643-.091q1.045-.073 1.054-.068.009.006 1.433-.091 1.424-.098 2.894-.356 1.47-.258 2.649-.513 1.18-.256 2.196-.472.475-.025.693-.046.218-.021-.016.221-.234.241-.208.284.025.042-1.819 1.055-1.844 1.014-3.62 1.691t-3.922 1.285q-2.145.608-4.405 1.417-2.261.81-3.607 1.361-1.345.55-2.065.814-.719.263-1.446.493-.726.23-.866.308-.14.078-6.767 1.707-6.627 1.628-12.628 2.561t-8.63 1.245q-2.628.312-4.105.446-1.476.135-4.393.365-2.918.23-4.035.314-1.118.084-2.308.237-1.19.152-1.962.237-.773.084-1.491.145-.719.061-2.641.165-1.921.104-6.345.405-4.423.301-8.666.543-4.243.241-7.924.387-3.682.147-5.648.291-1.967.143-3.881.079-1.915-.065-4.018-.122-2.103-.057-11.12-.185t-13.731-.191q-4.714-.063-6.992-.167-2.279-.105-2.575-.146-.295-.042-2.391-.112t-3.706-.212q-1.61-.142-3.22-.4t-2.597-.492q-.987-.235-2.326-.707-1.34-.473-1.534-.57-.194-.096-.372-.148-.177-.052-1.671-1.138-1.494-1.087-2.544-2.785-1.05-1.699-1.191-2.481-.142-.783-.096-1.322.046-.54.134-.894.087-.354.518-1.495.14-.335 1.023-1.454.883-1.12 1.749-1.863.865-.743 3.492-2.255 2.628-1.512 3.432-1.91.805-.398 2.17-.959 1.365-.561 1.928-.814.564-.253 1.589-.572 1.026-.32 2.868-.751 1.843-.43 2.142-.49.299-.06 1.288-.17.989-.111 1.299-.088.31.023 1.449.025l1.058.227"/><path d="M1849.456 720.522q-.145.528-.259.885-.113.357-.233.78-.12.423-.305.872t-.382.964q-.196.515-.235.645-.038.13-1.543 2.479-3.207 3.493-3.913 4.149-.706.656-1.599 1.515-.894.858-1.778 1.662-.883.804-1.569 1.407-.686.603-1.88 1.615t-1.961 1.712q-.767.7-1.362 1.262-.596.561-1.187 1.145l-1.915 1.894q-1.325 1.309-2.055 2.043-.73.735-1.275 1.308-.545.573-1.5 1.553-.955.979-1.426 1.45-.47.472-.585.618-.116.145-.857.962-.741.816-2.207 2.609-2.32 2.923-2.54 3.244-.22.322-.74 1.075-.52.753-1.267 1.938-.748 1.184-1.602 2.702-.854 1.517-.948 1.653-.095.136-.554 1.134-.459.998-.653 1.455-.194.458-.543 1.496-.349 1.039-.593 2.431-.243 1.392-.288 2.001-.046.61.034 2.547.08 1.938.201 2.867.121.93.355 2.086.233 1.156.274 1.41.04.255.418 1.835t.749 2.936l.695 2.543q.324 1.187.809 3.095.485 1.909.995 4.077.509 2.168.666 2.863.156.695.46 1.894.304 1.198.473 1.925.169.726.342 1.413.173.686.424 1.695t.924 3.395q.672 2.387 1.229 4.227 1.209 3.703 1.319 3.983.109.279.496 1.404.387 1.124.621 1.765.234.641.915 2.319t1.354 3.204q.673 1.527.995 2.233.322.706.616 1.302.294.596 1.236 2.457.942 1.86 1.6 3.068.659 1.208 1.452 2.43.794 1.222 1.125 1.673.33.451.888 1.095.557.644 1.046 1.107.489.463 1.257 1.028.767.564 1.545 1.012.778.448 1.532.807.754.36 1.205.523.704.327 1.389.566.686.239 1.957.552 1.272.313 4.114.745 2.842.432 5.297.596 2.454.164 3.135.212.681.049 2.512.116 1.831.068 2.287.078.455.009 1.669.079 1.215.069 1.828.075.612.007 1.786.049t1.828.035q.653-.007 1.303.009.649.017 1.728.024 1.079.006 2.804.008 1.725.002 2.711-.002.985-.004 1.353-.019.368-.014 3.246-.04 2.877-.026 4.696-.065 1.818-.04 2.773-.076.955-.036 1.509-.04.555-.004 2.008-.069 1.452-.065 2.466-.102 1.014-.037 2.347-.053t2.383-.068q1.05-.052 1.901-.071.851-.02 1.38-.045.529-.025 2.549-.058l3.392-.054q1.372-.022 2.835-.021 1.463.001 3.272.007 1.809.005 3.487-.02 1.678-.025 3.829-.079 2.151-.055 3.502-.094 1.352-.04 2.18-.078.829-.037 2.69-.096 1.86-.059 3.422-.096 1.562-.038 2.434-.08.872-.043 1.626-.046.754-.003 1.731-.048.977-.045 1.934-.077.956-.033 1.322-.043.366-.009 1.155-.05t2.218-.105q1.429-.064 3.017-.168 1.587-.104 2.488-.185t1.406-.14q.504-.058 1.031-.1.527-.042 2.842-.339 2.315-.297 3.089-.442.774-.145 1.08-.187.305-.043.687-.137.382-.094 1.256-.268.874-.174 1.908-.435 1.033-.262 1.802-.509.768-.246 1.471-.481.139-.095.532-.235.392-.14 2.141-1.004.226-.109 1.118-.716.892-.607 1.802-1.409.91-.801 1.491-1.416.58-.614 1.444-1.765.863-1.151 1.397-2.07.533-.919.921-1.694.388-.776.794-1.601.407-.825.951-2.178t.76-1.894q.217-.541.868-2.554.652-2.012 1.313-4.205.662-2.193.937-3.063.275-.87.573-1.907.297-1.037.709-2.532.412-1.494.737-2.701t.681-2.587q.356-1.379.964-3.486.607-2.107 1.005-3.606.397-1.499.623-2.293.226-.795.593-2.048.367-1.253.633-2.192.265-.938.731-2.523.465-1.585.902-3.358.436-1.772.754-3.112t.573-2.603q.255-1.263.309-1.473.054-.211.284-1.581.23-1.37.326-3.018.096-1.647.054-2.686t-.12-1.707q-.078-.667-.19-1.446-.112-.778-.339-1.679-.227-.902-.339-1.305-.112-.403-.286-.885-.174-.483-.582-1.529-.409-1.046-.635-1.53-.226-.483-.736-1.395t-.536-.983q-.025-.072-.739-1.141-.715-1.068-2.061-2.741t-2.537-3.118q-1.19-1.446-1.587-1.948-.398-.501-1.247-1.514-.849-1.012-1.776-2.075-.928-1.063-1.412-1.574-.485-.511-1.243-1.233-.758-.722-1.951-1.826l-1.986-1.835q-.792-.731-1.38-1.271-.587-.539-1.234-1.151-.648-.612-1.191-1.093t-1.341-1.214q-.799-.734-1.256-1.137-.458-.403-1.266-1.086-.808-.684-2.118-1.783l-2.127-1.784-1.301-1.095q-.484-.409-1.547-1.388-1.063-.98-1.404-1.325-.341-.344-.822-.808l-1.052-1.147q-.277-.299-.672-.785-.395-.487-.678-.847-.282-.359-.8-1.123-.517-.763-1.243-2.127-.231-.423-.566-1.31l-1.261-5.04-.371-1.717m-96.959-8.748-1.464.016q-.192.041-.942.034l-1.119.116-.571.083-1.015.127q-.104.039-2.085.576-.142.09-.849.467-.706.378-.99.708-.284.33-.348.773-.064.444-.022.488.048.255.39.656.343.401 1.487 1.098 1.625.567 2.595.765.971.199 1.625.319.654.121.903.185.25.064 1.861.346l.605.057q.244.084 2.767.318 2.522.234 3.686.317 1.163.083 2.264.123 1.102.041 1.647.082.546.042.735.028.189-.015.722-.016.533-.001 1.398.027.866.027 4.444.067 1.522.064 2.707.079l.538-.019 1.541.028.995-.03q1.98.029 4.173.134 4.195.151 5.845.196 1.65.045 3.114.09 1.465.044 2.819.076 1.355.033 2.143.041.788.007 1.873-.009 1.086-.016 2.525-.031 1.439-.015 1.634-.03.196-.015 2-.065 1.803-.05 3.924-.115 2.12-.064 3.151-.092 1.031-.028 1.768-.052.736-.024 3.011-.107 2.274-.084 4.089-.087 1.815-.004 2.519.017.704.021 1.581.034.877.014 1.867.046.989.033 1.359.056t1.132.025q.762.003 1.512.034.75.032 1.784.036 1.034.003 2.161.017 1.127.013 2.34-.006 1.212-.018 2.408-.082 1.196-.063 1.567-.07.37-.006 1.381-.099 1.011-.093 3.407-.337 2.397-.244 3.463-.404 1.066-.159 2.188-.378 1.122-.218 3.926-.892l1.645-.527q.296-.117 2.894-1.358l.665-.468q.166-.19.486-.489.32-.3.356-.358l.518-.842q.17-.229-.161-1.642l-.456-.542q-.322-.218-.788-.484-.466-.265-1.299-.549-.832-.283-1.298-.381-.465-.098-1.086-.182-.621-.084-1.005-.107-.385-.022-.548-.058-.483-.042-1.791-.165m123.54 17.28q-.145.528-.259.885-.114.357-.233.78-.12.424-.306.872-.185.449-.381.964-.196.515-.235.645-.039.13-1.544 2.479-3.207 3.493-3.912 4.149-.706.656-1.6 1.515-.894.858-1.777 1.662-.884.804-1.57 1.407-.685.603-1.88 1.615-1.193 1.012-1.96 1.712-.767.701-1.362 1.262-.596.561-1.187 1.145l-1.916 1.894q-1.324 1.309-2.055 2.044-.73.734-1.274 1.307-.545.573-1.5 1.553-.956.979-1.426 1.45-.47.472-.586.618-.115.146-.856.962t-2.208 2.61q-2.319 2.922-2.539 3.243-.22.322-.74 1.075-.52.754-1.267 1.938-.748 1.184-1.602 2.702-.854 1.518-.949 1.653-.094.136-.553 1.134-.46.998-.653 1.455-.194.458-.543 1.496-.35 1.039-.593 2.431-.243 1.392-.289 2.002-.045.609.035 2.546.079 1.938.2 2.867.121.93.355 2.086.234 1.156.274 1.41.041.255.419 1.835t.749 2.936q.371 1.355.694 2.543.324 1.187.809 3.095.485 1.909.995 4.077t.666 2.863q.157.695.461 1.894.304 1.198.473 1.925.169.726.342 1.413l.424 1.695q.251 1.009.923 3.396.673 2.386 1.23 4.226 1.209 3.703 1.318 3.983.11.279.496 1.404.387 1.124.622 1.765.234.641.915 2.319.68 1.679 1.354 3.205.673 1.526.995 2.232.322.706.616 1.302.294.596 1.235 2.457.942 1.86 1.601 3.068t1.452 2.43q.794 1.223 1.124 1.673.331.451.888 1.095.558.644 1.047 1.107.489.464 1.257 1.028.767.564 1.545 1.012.777.448 1.531.807.755.36 1.205.523.704.328 1.39.566.686.239 1.957.552 1.272.314 4.114.745 2.842.432 5.296.596 2.455.164 3.136.212.681.049 2.512.117 1.831.067 2.286.077.456.009 1.67.079 1.215.069 1.827.075.613.007 1.787.049t1.828.035q.653-.007 1.302.01.649.016 1.729.023 1.079.006 2.804.008 1.725.002 2.71-.002.986-.004 1.354-.019.368-.014 3.246-.04 2.877-.025 4.695-.065 1.819-.04 2.774-.076.954-.036 1.509-.04.555-.004 2.007-.069 1.453-.065 2.467-.102 1.013-.037 2.346-.053 1.333-.016 2.384-.068 1.05-.051 1.901-.071.851-.02 1.379-.045.53-.025 2.55-.057l3.392-.055q1.371-.022 2.834-.021 1.464.001 3.272.007 1.809.005 3.487-.02 1.679-.025 3.829-.079 2.151-.055 3.503-.094 1.351-.04 2.18-.077.829-.038 2.689-.097 1.861-.059 3.423-.096 1.562-.038 2.434-.08.871-.042 1.625-.046.755-.003 1.732-.048t1.933-.077q.957-.033 1.323-.042.366-.01 1.155-.051.789-.041 2.218-.105 1.429-.064 3.016-.168 1.588-.104 2.489-.185.901-.081 1.406-.14.504-.058 1.031-.1.526-.042 2.842-.339 2.315-.297 3.089-.442.774-.145 1.079-.187.306-.043.688-.137.382-.094 1.256-.268.874-.174 1.907-.435 1.034-.262 1.803-.508.768-.247 1.47-.481.139-.096.532-.236.393-.14 2.141-1.004.227-.109 1.119-.716t1.802-1.409q.91-.801 1.491-1.415.58-.615 1.443-1.766.864-1.151 1.398-2.07.533-.919.921-1.694.387-.775.794-1.601.407-.825.951-2.178l.76-1.894q.216-.541.868-2.553.652-2.013 1.313-4.206.661-2.193.937-3.063.275-.87.572-1.907.298-1.037.71-2.532.412-1.494.737-2.701.324-1.207.681-2.586.356-1.38.964-3.487.607-2.107 1.004-3.606.397-1.499.623-2.293.227-.795.594-2.048.367-1.253.633-2.192.265-.938.731-2.523.465-1.585.901-3.358.437-1.772.755-3.112.317-1.34.573-2.603.255-1.263.309-1.473.053-.211.284-1.581.23-1.37.326-3.018.096-1.647.054-2.686t-.12-1.706q-.078-.668-.19-1.447-.112-.778-.339-1.679-.227-.902-.339-1.305-.112-.403-.286-.885-.174-.483-.583-1.529-.408-1.046-.634-1.529-.226-.484-.736-1.396-.511-.912-.536-.983-.025-.072-.74-1.14-.714-1.069-2.061-2.742-1.346-1.673-2.536-3.118-1.191-1.446-1.588-1.947-.397-.502-1.246-1.515-.849-1.012-1.777-2.075-.927-1.063-1.411-1.574-.485-.511-1.243-1.233-.758-.722-1.951-1.826l-1.986-1.835q-.792-.731-1.38-1.27-.587-.539-1.235-1.152-.647-.612-1.19-1.093-.543-.481-1.342-1.214-.798-.733-1.256-1.136-.457-.403-1.265-1.087-.808-.684-2.118-1.783l-2.127-1.784q-.817-.686-1.301-1.095-.485-.409-1.547-1.388-1.063-.98-1.404-1.325-.342-.344-.822-.808l-1.053-1.146q-.276-.3-.671-.786-.395-.487-.678-.847-.283-.359-.8-1.123-.517-.763-1.243-2.127-.231-.423-.567-1.31l-1.26-5.04-.372-1.717m-96.958-8.748-1.465.016q-.192.041-.942.035l-1.119.115-.571.083-1.015.127q-.104.039-2.085.576-.142.09-.848.467-.706.378-.99.708-.284.33-.348.774-.064.443-.023.487.049.255.391.656.343.401 1.487 1.098 1.624.567 2.595.765.971.199 1.625.319.654.121.903.185.25.064 1.861.346l.605.057q.244.084 2.766.318 2.522.234 3.686.317 1.164.083 2.265.123 1.101.041 1.647.082.546.042.735.028.189-.015.722-.016.533-.001 1.398.027.865.028 4.443.067 1.523.064 2.708.079l.538-.019 1.541.028.994-.03q1.981.029 4.174.134 4.194.152 5.844.196 1.65.045 3.115.09 1.464.044 2.819.077 1.355.032 2.143.04.788.007 1.873-.009t2.525-.031q1.439-.015 1.634-.03.196-.015 2-.065 1.803-.05 3.924-.115 2.12-.064 3.151-.092 1.031-.028 1.767-.052.737-.024 3.011-.107 2.275-.083 4.09-.087 1.815-.004 2.519.017.704.021 1.581.034.877.014 1.867.046.989.033 1.359.056t1.132.025q.762.003 1.512.034.75.032 1.784.036 1.034.003 2.161.017 1.127.013 2.34-.005 1.212-.019 2.408-.082 1.196-.064 1.566-.07.371-.007 1.381-.1 1.011-.092 3.408-.337 2.397-.243 3.463-.403 1.066-.16 2.188-.378 1.121-.219 3.925-.892l1.646-.528q.295-.117 2.894-1.358l.665-.468q.165-.189.485-.489.321-.3.356-.358l.518-.842q.171-.229-.16-1.642l-.456-.542q-.322-.218-.788-.484-.466-.265-1.299-.548-.833-.284-1.298-.382-.466-.098-1.087-.182-.621-.084-1.005-.107-.384-.022-.547-.057-.484-.042-1.792-.166m-545.639 16.051q-.145.528-.259.885-.114.357-.233.78-.12.424-.305.872-.185.449-.382.964-.196.516-.235.646-.039.13-1.544 2.478-3.207 3.493-3.912 4.149-.706.657-1.6 1.515-.894.858-1.777 1.663-.884.804-1.569 1.406-.686.603-1.88 1.615t-1.961 1.713q-.767.7-1.362 1.261-.596.561-1.187 1.146l-1.916 1.893q-1.324 1.309-2.054 2.044-.73.734-1.275 1.307-.545.574-1.5 1.553t-1.426 1.451q-.47.471-.586.617-.115.146-.856.962-.741.817-2.208 2.61-2.319 2.922-2.539 3.243-.22.322-.74 1.075-.52.754-1.267 1.938-.748 1.184-1.602 2.702-.854 1.518-.948 1.654-.095.135-.554 1.133-.459.998-.653 1.456-.194.457-.543 1.496-.349 1.038-.593 2.43-.243 1.392-.288 2.002-.046.609.034 2.546.08 1.938.201 2.867.121.93.354 2.086.234 1.156.274 1.41.041.255.419 1.835t.749 2.936l.695 2.543q.323 1.187.808 3.095.486 1.909.995 4.077.51 2.168.667 2.863.156.695.46 1.894.304 1.198.473 1.925.169.726.342 1.413l.424 1.695q.251 1.009.923 3.396.673 2.386 1.23 4.226 1.209 3.703 1.318 3.983.11.279.497 1.404.386 1.124.621 1.765.234.642.915 2.32t1.354 3.204q.673 1.526.995 2.232.321.706.616 1.302.294.597 1.236 2.457.941 1.86 1.6 3.068.659 1.208 1.452 2.43.793 1.223 1.124 1.674.331.45.889 1.094.557.644 1.046 1.108.489.463 1.257 1.027.767.565 1.545 1.012.778.448 1.532.807.754.36 1.205.523.703.328 1.389.567.685.238 1.957.552 1.272.313 4.114.745 2.842.432 5.297.595 2.454.164 3.135.213.681.048 2.512.116 1.831.067 2.286.077.456.01 1.67.079t1.827.076q.613.006 1.787.048t1.828.035q.653-.007 1.302.01.65.017 1.729.023 1.079.007 2.804.008 1.725.002 2.71-.002.986-.004 1.354-.019.368-.014 3.246-.04 2.877-.025 4.695-.065 1.819-.04 2.774-.076.955-.036 1.509-.04.555-.004 2.007-.069 1.453-.065 2.467-.102 1.014-.036 2.347-.053 1.333-.016 2.383-.068 1.05-.051 1.901-.071.851-.02 1.38-.045.529-.025 2.549-.057l3.392-.055q1.371-.022 2.835-.021 1.463.001 3.272.007 1.808.006 3.486-.02 1.679-.025 3.829-.079 2.151-.055 3.503-.094 1.351-.04 2.18-.077.829-.038 2.69-.097 1.86-.059 3.422-.096 1.562-.038 2.434-.08.871-.042 1.625-.045.755-.003 1.732-.049.977-.045 1.933-.077.957-.033 1.323-.042.366-.01 1.155-.051.789-.04 2.218-.105 1.429-.064 3.016-.168 1.588-.104 2.489-.185.901-.081 1.406-.139.504-.059 1.031-.101.526-.042 2.842-.339 2.315-.297 3.089-.442.774-.145 1.079-.187.306-.043.688-.137.382-.094 1.256-.268.874-.174 1.908-.435 1.033-.261 1.802-.508.768-.247 1.47-.481.14-.095.532-.236.393-.14 2.141-1.004.227-.109 1.119-.716t1.802-1.409q.91-.801 1.491-1.415.58-.615 1.443-1.766.864-1.15 1.397-2.07.534-.919.922-1.694.387-.775.794-1.601.407-.825.951-2.178l.76-1.894q.216-.541.868-2.553.652-2.013 1.313-4.206.662-2.193.937-3.063.275-.87.572-1.907.298-1.037.71-2.532.412-1.494.737-2.701t.681-2.586q.356-1.379.964-3.487.607-2.107 1.004-3.606.398-1.499.624-2.293.226-.795.593-2.048.367-1.253.633-2.192.265-.938.731-2.523.465-1.585.902-3.358.436-1.772.754-3.112t.573-2.602q.255-1.263.309-1.474.053-.211.284-1.581.23-1.37.326-3.018.096-1.647.054-2.686t-.12-1.706q-.078-.668-.19-1.446-.112-.779-.339-1.68-.227-.901-.339-1.304-.112-.403-.286-.886t-.583-1.529q-.408-1.046-.634-1.529-.227-.484-.737-1.396-.51-.912-.535-.983-.025-.072-.74-1.14-.714-1.069-2.06-2.742-1.347-1.672-2.537-3.118-1.19-1.445-1.588-1.947-.397-.502-1.246-1.515-.849-1.012-1.777-2.075-.927-1.063-1.411-1.574-.485-.511-1.243-1.233-.758-.722-1.951-1.826l-1.986-1.835q-.792-.731-1.38-1.27-.587-.539-1.234-1.152-.648-.612-1.191-1.093t-1.341-1.214q-.799-.733-1.256-1.136-.458-.403-1.266-1.087-.808-.684-2.118-1.783l-2.127-1.784q-.817-.686-1.301-1.095-.485-.409-1.547-1.388-1.063-.98-1.404-1.325-.342-.344-.822-.808-.776-.847-1.053-1.146-.276-.299-.671-.786-.395-.487-.678-.847-.283-.359-.8-1.122-.517-.764-1.243-2.128-.231-.423-.567-1.31l-1.26-5.039-.372-1.718m-96.958-8.748-1.465.016q-.192.041-.942.035l-1.119.115-.571.083-1.014.127q-.104.039-2.086.577-.141.089-.848.466-.706.378-.99.708-.284.33-.348.774-.064.443-.023.487.049.255.391.656.343.401 1.487 1.098 1.624.567 2.595.766.971.198 1.625.319.654.12.903.184.25.064 1.861.346l.605.057q.244.084 2.766.318 2.523.234 3.686.317 1.164.083 2.265.124 1.102.04 1.647.081.546.042.735.028.189-.014.722-.016.533-.001 1.398.027.866.028 4.443.067 1.523.064 2.708.079l.538-.019 1.541.028.994-.029q1.981.028 4.174.133 4.194.152 5.844.197 1.65.045 3.115.089 1.464.044 2.819.077 1.355.032 2.143.04.788.008 1.873-.009 1.085-.016 2.524-.031 1.44-.015 1.635-.03.196-.015 2-.065 1.803-.05 3.924-.115 2.12-.064 3.151-.092 1.031-.028 1.768-.052.736-.024 3.011-.107 2.274-.083 4.089-.087 1.815-.004 2.519.017.704.021 1.581.034.877.014 1.867.047.989.032 1.359.055t1.132.025q.762.003 1.512.035.75.031 1.784.035 1.034.004 2.161.017 1.127.013 2.34-.005 1.212-.019 2.408-.082 1.196-.064 1.566-.07.371-.007 1.382-.1 1.01-.092 3.407-.336 2.397-.244 3.463-.404 1.066-.16 2.188-.378 1.121-.218 3.925-.892l1.646-.528q.296-.117 2.894-1.358l.665-.468q.165-.189.486-.489.32-.3.356-.358l.517-.842q.171-.229-.16-1.642l-.456-.542q-.322-.218-.788-.483-.466-.266-1.299-.549-.833-.284-1.298-.382-.466-.098-1.087-.182-.62-.084-1.005-.106-.384-.023-.547-.058-.484-.042-1.792-.166m558.417 16.88q-.144.528-.258.885-.114.357-.234.78-.12.424-.305.872-.185.449-.381.964-.197.516-.235.646-.039.13-1.544 2.478-3.207 3.493-3.913 4.15-.705.656-1.599 1.514-.894.859-1.778 1.663-.883.804-1.569 1.406-.686.603-1.88 1.615t-1.961 1.713q-.767.7-1.362 1.261-.595.561-1.186 1.146l-1.916 1.894q-1.325 1.309-2.055 2.043-.73.734-1.275 1.307-.544.574-1.5 1.553-.955.979-1.425 1.451-.471.471-.586.617-.116.146-.857.962-.741.817-2.207 2.61-2.32 2.922-2.54 3.244-.219.321-.739 1.074-.52.754-1.267 1.938-.748 1.184-1.602 2.702-.855 1.518-.949 1.654-.094.135-.553 1.133-.46.998-.654 1.456-.194.457-.543 1.496-.349 1.038-.592 2.43-.243 1.393-.289 2.002-.045.609.034 2.547.08 1.937.201 2.867.121.929.355 2.085.233 1.156.274 1.411.04.254.418 1.834.379 1.581.749 2.936l.695 2.543q.324 1.187.809 3.096.485 1.908.995 4.076.51 2.168.666 2.863.156.695.46 1.894.304 1.198.473 1.925.169.726.342 1.413.173.687.424 1.695.251 1.009.924 3.396.672 2.386 1.229 4.226 1.21 3.703 1.319 3.983.109.279.496 1.404.387 1.124.621 1.765.234.642.915 2.32t1.354 3.204q.674 1.526.995 2.232.322.706.616 1.303.295.596 1.236 2.456.942 1.86 1.601 3.068.658 1.208 1.452 2.43.793 1.223 1.124 1.674.331.451.888 1.095.557.644 1.046 1.107.489.463 1.257 1.027.768.565 1.546 1.012.777.448 1.531.807.754.36 1.205.523.704.328 1.389.567.686.239 1.958.552 1.272.313 4.114.745 2.842.432 5.296.595 2.454.164 3.135.213.681.048 2.512.116 1.832.068 2.287.077.455.01 1.67.079 1.214.069 1.827.076.613.006 1.787.048 1.173.042 1.827.035.653-.007 1.302.01.65.017 1.729.023 1.079.007 2.804.008 1.725.002 2.711-.002.985-.004 1.353-.018.368-.015 3.246-.041 2.878-.025 4.696-.065 1.818-.039 2.773-.076.955-.036 1.51-.04.554-.004 2.007-.069 1.452-.065 2.466-.102 1.014-.036 2.347-.053 1.333-.016 2.383-.068 1.05-.051 1.901-.071.851-.02 1.38-.045.529-.025 2.549-.057l3.392-.055q1.372-.022 2.835-.021 1.463.001 3.272.007 1.809.006 3.487-.02 1.678-.025 3.829-.079 2.151-.054 3.502-.094 1.352-.04 2.181-.077.828-.038 2.689-.097 1.861-.059 3.422-.096 1.562-.038 2.434-.08.872-.042 1.626-.045.754-.003 1.731-.049.978-.045 1.934-.077t1.322-.042q.366-.01 1.155-.051.789-.04 2.218-.105 1.429-.064 3.017-.168 1.587-.104 2.489-.185.901-.081 1.405-.139.505-.059 1.031-.101.527-.042 2.842-.339 2.315-.297 3.089-.442.774-.144 1.08-.187.306-.042.688-.137.382-.094 1.256-.268.873-.173 1.907-.435 1.034-.261 1.802-.508.769-.247 1.471-.481.139-.095.532-.236.392-.14 2.141-1.003.227-.11 1.118-.717.892-.607 1.802-1.408.911-.802 1.491-1.416.58-.614 1.444-1.765.863-1.151 1.397-2.071.534-.919.921-1.694.388-.775.795-1.6.406-.826.95-2.179.544-1.353.76-1.894.217-.541.869-2.553.651-2.013 1.313-4.205.661-2.193.936-3.064.275-.87.573-1.907.297-1.037.709-2.532.412-1.494.737-2.701t.681-2.586q.357-1.379.964-3.486.608-2.108 1.005-3.607.397-1.499.623-2.293.226-.795.593-2.048.368-1.253.633-2.192.266-.938.731-2.523.466-1.585.902-3.358.436-1.772.754-3.112.318-1.339.573-2.602.255-1.263.309-1.474.054-.211.284-1.581.231-1.37.327-3.017.096-1.648.053-2.687-.042-1.038-.12-1.706-.077-.668-.19-1.446-.112-.779-.338-1.68-.227-.901-.339-1.304-.112-.403-.286-.886-.174-.482-.583-1.529-.409-1.046-.635-1.529-.226-.483-.736-1.395t-.535-.984q-.026-.072-.74-1.14-.715-1.069-2.061-2.742-1.346-1.672-2.537-3.118-1.19-1.445-1.587-1.947t-1.247-1.515q-.849-1.012-1.776-2.075-.927-1.062-1.412-1.573-.485-.512-1.243-1.234-.758-.722-1.951-1.826l-1.985-1.835-1.38-1.27q-.588-.539-1.235-1.152-.647-.612-1.191-1.093-.543-.481-1.341-1.214-.798-.733-1.256-1.136-.458-.403-1.265-1.087-.808-.684-2.119-1.783l-2.127-1.784-1.301-1.095q-.484-.408-1.547-1.388-1.062-.98-1.404-1.324-.341-.345-.822-.809-.776-.847-1.052-1.146-.277-.299-.672-.786-.395-.487-.678-.846-.282-.36-.799-1.123-.518-.764-1.244-2.128-.231-.423-.566-1.31l-1.26-5.039-.372-1.718m-96.959-8.748-1.464.016q-.192.041-.942.035l-1.119.115-.571.083-1.015.128q-.104.038-2.085.576-.142.089-.848.467-.707.377-.991.707-.283.33-.347.774-.064.443-.023.487.048.255.391.656.342.401 1.487 1.099 1.624.566 2.595.765.97.198 1.624.319.654.12.904.184.249.064 1.86.346l.606.058q.244.083 2.766.317 2.522.234 3.686.317 1.164.083 2.265.124 1.101.04 1.647.082.546.041.735.027.189-.014.721-.016.533-.001 1.398.027.866.028 4.444.067 1.522.065 2.708.079l.538-.019 1.541.028.994-.029q1.98.029 4.174.133 4.194.152 5.844.197 1.65.045 3.114.089 1.465.044 2.819.077 1.355.033 2.143.04.788.008 1.874-.008 1.085-.017 2.524-.031 1.439-.015 1.635-.031.196-.015 1.999-.065 1.804-.05 3.924-.114 2.121-.065 3.152-.093 1.03-.028 1.767-.052.736-.024 3.011-.107 2.275-.083 4.09-.087 1.815-.004 2.518.017.704.021 1.581.035.877.013 1.867.046.989.032 1.359.055t1.132.026q.762.002 1.512.034.75.031 1.784.035 1.034.004 2.161.017 1.128.013 2.34-.005 1.212-.019 2.408-.082 1.196-.064 1.567-.07.37-.007 1.381-.099 1.011-.093 3.407-.337 2.397-.244 3.463-.404 1.066-.16 2.188-.378t3.926-.892l1.646-.528q.295-.116 2.893-1.358l.665-.468q.166-.189.486-.489.32-.3.356-.358l.518-.841q.17-.23-.161-1.642l-.455-.542q-.323-.219-.789-.484-.466-.266-1.299-.549-.832-.283-1.298-.382-.465-.098-1.086-.182-.621-.084-1.005-.106-.385-.023-.547-.058-.484-.042-1.792-.166" fill="none" stroke="#000" stroke-width="5.3" stroke-linecap="round" stroke-linejoin="round"/></svg>