<svg id="Layer_1" data-name="Layer 1" xmlns="http://www.w3.org/2000/svg" viewBox="0 0 732.24 242.55"><defs><style>.cls-1,.cls-3{fill:#000;stroke-width:0;}.cls-1{stroke:#000;fill:none;stroke-width:8px;}.cls-2{fill:none;fill:#FFF;stroke:#000;stroke-width:8px;}</style></defs><path class="cls-1" d="M39 187.76h6.36V68.87h-5.3a5.12 5.12 0 0 1-4.77-3Q34.08 62.59 34.08 54q0-13 5.83-13H71.2q7.8 0 7.8 7.16 0 20.72-6.18 20.71h-4.45l1.76 46.53.18 72.36h5.3q6.19.24 6.19 7.45-.36 20.72-8.66 20.71H39.73a4.86 4.86 0 0 1-4.41-3q-1.24-3.25-1.24-12.1 0-13.05 4.92-13.06ZM139.42 96.79q13.08 0 19.18 10.7t6.1 37.69v70.74a6.2 6.2 0 0 1-.18 1.86q-.89 1.86-6.81 1.86a65.85 65.85 0 0 1-12.1-1.16q-6.2-1.17-6.19-2.56l-.18-70.74q0-26.06-2.82-26.06-6.37 0-17 8.38v88.42a6.2 6.2 0 0 1-.18 1.86q-.88 1.86-6.8 1.86a67.33 67.33 0 0 1-12.2-1.16Q94 217.31 94 215.92V100.51c0-2.48 2.35-3.72 7.07-3.72q11.13 0 12.72 3.72c0 .31.06.47.18.47l3.36 8.84q14.85-13.03 22.09-13.03ZM204.29 215.92a6.2 6.2 0 0 1-.18 1.86q-.88 1.86-6.72 1.86a57.25 57.25 0 0 1-11.48-1.16c-3.78-.78-5.66-1.63-5.66-2.56V41c0-2.48 2.06-3.73 6.19-3.73a41.89 41.89 0 0 1 10.25 1.05q4.06 1 4.24 2.68l3.36 74.68Zm52.85 1.16c0 1.7-2.19 2.56-6.54 2.56a69.21 69.21 0 0 1-12.73-1.16c-4.13-.78-6.36-1.63-6.72-2.56l-.17-.24-23-63.05v-7.45l18.73-44.44c.12 0 .18-.07.18-.23q1.59-3.72 7.07-3.72 12.56 0 16.09 2.79c.47.31.64.62.53.93l-20 44.67L257 215.92a4.77 4.77 0 0 1 .14 1.16Z" transform="translate(-33.58 -36.72)"/><path class="cls-2" d="M264.74 157.75q0-25.37 3.35-38.39t10.61-17.8q7.24-4.77 21.39-4.77t21.38 4.77q7.25 4.77 10.61 17.8t3.36 38.39q0 34.91-7.6 48.39t-27.75 13.5q-20.16 0-27.75-13.5t-7.6-48.39Zm24 0q0 39.09 5.66 39.09 7.77 0 11.49-3.26c1.29-1.24 2.18-3.49 2.65-6.75q1.41-9.77 1.41-29.08 0-38.62-5.65-38.63-10.6 0-13.08 6.4t-2.45 32.23ZM386.87 227.08l-15 .24q-11 0-13.17-2.33a7.78 7.78 0 0 1-2.21-5.58 33.27 33.27 0 0 1 .88-7.22l6.19-24.66q-8.49-4.89-12.2-16.05t-3.71-27.93q0-16.74 1.59-25.36t6.1-13.49A21.16 21.16 0 0 1 366 98.3q6.19-1.51 17-1.51h38.53q2.83 0 2.83 9.3 0 4.66-2.83 5.59l-.53.23-7.6 1.86q5 10.71 4.95 27.69 0 26.76-7.86 38.51T383 191.72h-3.89l-1.59 10.93q20 .48 26 1.87t8.3 3.25a18.63 18.63 0 0 1 4.33 5.59 21.88 21.88 0 0 1 2.45 8.64q.43 4.88.44 12.79 0 19.32-8.13 28.16t-29 8.84q-9.72 0-24.39-3.73-2.65-.69-2.65-11.86t2.48-11.2h.36a185 185 0 0 0 25.36 2.33c6.3 0 10.22-.63 11.76-1.86s2.29-4.31 2.29-9.19-.68-7.65-2-8.26-4.12-.94-8.25-.94Zm-13.34-104.81q-2.38 3.14-2.39 17.45t1 20.7q1 6.41 2 7.45t5.21 1a52.33 52.33 0 0 0 6.72-.35c1.7-.24 3.27-1.36 4.68-3.38a15 15 0 0 0 2.39-7.91q.25-4.87.26-15.35a93.2 93.2 0 0 0-1-15.71c-.65-3.49-1.33-5.54-2-6.17a4.48 4.48 0 0 0-3-.93q-11.49.05-13.87 3.2ZM481.25 96.79q13.08 0 19.18 10.7t6.1 37.69v70.74a6.2 6.2 0 0 1-.18 1.86c-.59 1.24-2.85 1.86-6.8 1.86a65.88 65.88 0 0 1-12.11-1.16c-4.12-.78-6.19-1.63-6.19-2.56l-.17-70.74q0-26.06-2.83-26.06-6.36 0-17 8.38v88.42a6.67 6.67 0 0 1-.17 1.86c-.6 1.24-2.86 1.86-6.81 1.86a67.42 67.42 0 0 1-12.2-1.16q-6.27-1.17-6.27-2.56V100.51q0-3.72 7.07-3.72 11.13 0 12.73 3.72c0 .31.05.47.17.47l3.36 8.84Q474 96.79 481.25 96.79ZM533.4 70.73q-12.74 0-12.73-16.75t12.73-16.76q12.72 0 12.72 16.76T533.4 70.73Zm-11 145.19V100.51q0-3.72 6.36-3.72a60 60 0 0 1 12 1.16q5.65 1.17 5.66 2.56v115.41a6.2 6.2 0 0 1-.18 1.86q-.88 1.86-6.72 1.86a57.27 57.27 0 0 1-11.49-1.16q-5.59-1.17-5.59-2.56ZM570.69 119.12h-14.14c-1.42 0-2.21-.42-2.39-1.28a14.87 14.87 0 0 1-.26-2.9q0-10 2.65-10.71l14.14-3.72 9.9-26.29q2.11-3.5 8.13-3.49 1.59 0 3 8.37t3 21.41h17q2.82 0 2.82 9.31t-2.82 9.3h-17.17v74l2.83 26.3v.23a5 5 0 0 1 0 1.86q-.89 1.86-8.84 1.86t-9.54-4.2l-8.31-22.1ZM620.35 157.75q0-25.37 3.36-38.39t10.61-17.8q7.24-4.77 21.39-4.77t21.38 4.77q7.24 4.77 10.61 17.8t3.35 38.39q0 34.91-7.59 48.39t-27.75 13.5q-20.16 0-27.75-13.5t-7.61-48.39Zm24 0q0 39.09 5.66 39.09 7.77 0 11.49-3.26c1.29-1.24 2.18-3.49 2.65-6.75q1.41-9.77 1.41-29.08 0-38.62-5.65-38.63-10.61 0-13.08 6.4t-2.44 32.23ZM754.69 128l-1.06-.47-6.72-4.42q-7.6-4-13.08-4-8 .48-8 10a7.24 7.24 0 0 0 3.09 6.05q3.09 2.32 5 3.61c1.29.85 3.18 2.05 5.65 3.6q13.26 7.46 19.71 16.52t6.45 17.92q0 19.3-7.78 31.06t-21.12 11.75q-13.35 0-20.94-4.65a38 38 0 0 1-12.73-13.27 1.56 1.56 0 0 1-.71-1.39 12.7 12.7 0 0 1 .27-2.33q.27-1.4 4.15-7.56t6.19-6.17a1.9 1.9 0 0 1 1.41.93q9.38 9.78 18.21 9.78a8.3 8.3 0 0 0 7.42-3.73 14.39 14.39 0 0 0 2.48-8.14 9.7 9.7 0 0 0-2.83-7.21 43.14 43.14 0 0 0-7-5.47c-2.77-1.78-4.28-2.75-4.51-2.91s-.56-.39-1-.7a6.56 6.56 0 0 0-1.15-.7 56 56 0 0 1-15.29-14.54 32.5 32.5 0 0 1-6.27-19.43q0-18.6 7.33-27t23.24-8.37a35.47 35.47 0 0 1 11.49 1.86q7.42 2.56 10.61 6h.17a4.45 4.45 0 0 1 1.68 2.79 34.61 34.61 0 0 1-.26 7q-1.63 13.59-4.1 13.59Z" transform="translate(-33.58 -36.72)"/><path class="cls-3" d="M443.53 237q6.66 0 9.23 2.12t2.56 6.66c0 3-.62 5.32-1.87 6.86q2.74 2.17 2.75 7.34 0 9.9-11.8 9.89-1.39 0-9.09-.67v-31.52a56.06 56.06 0 0 1 8.22-.68Zm-1.3 13.71q3.78 0 5.15-.88c.92-.59 1.37-1.89 1.37-3.9a4.87 4.87 0 0 0-.76-2.83 2.08 2.08 0 0 0-1.63-1.11c-2.47 0-4 .15-4.48.46a1.28 1.28 0 0 0-.44.5v7.09c0 .34.06.53.18.59a2.49 2.49 0 0 0 .61.09Zm6.55 13c.56-.62.84-1.87.84-3.77s-.21-3.05-.65-3.44-1.56-.59-3.37-.59-3 0-3.44.08-.72.23-.72.51v7.5c0 .31.2.49.59.55s1.47.08 3.24.08 2.94-.3 3.51-.91ZM459.72 248.29c0-.37.53-.55 1.59-.55a19.63 19.63 0 0 1 3 .21c.91.14 1.38.3 1.41.46l3.87 14.34 3.4-14.34c.12-.44.58-.67 1.39-.67a12.41 12.41 0 0 1 3.18.26c.52.16.78.29.78.37l-8.7 30.24c-.12.44-.58.67-1.39.67a18.31 18.31 0 0 1-2-.09c-1.13-.14-1.66-.33-1.61-.58a.41.41 0 0 1 .05-.21l2.22-9.19-7.1-20.71v-.09a.24.24 0 0 1-.09-.12ZM504.06 237q4.76 0 7.18 1.3a7.63 7.63 0 0 1 3.53 4.72 35.24 35.24 0 0 1 1.09 10.12q0 9.32-2.53 13t-9.27 3.71q-1.65 0-9.53-.67v-31.46q6.62-.72 9.53-.72Zm2.31 5a42.92 42.92 0 0 0-4.74.15c-.64.09-1 .37-1 .81v21c0 .31.2.49.59.55a23.16 23.16 0 0 0 2.39.08 11.55 11.55 0 0 0 2.55-.19 3.72 3.72 0 0 0 1.37-.67 2.84 2.84 0 0 0 .85-1.86 57.31 57.31 0 0 0 .43-8.31q.04-11.56-2.44-11.56ZM528.39 269.88c-3.1 0-5.26-.81-6.46-2.43s-1.81-4.53-1.81-8.72a22.08 22.08 0 0 1 .83-6.9 5.4 5.4 0 0 1 2.5-3.23 11.22 11.22 0 0 1 4.94-.86 11 11 0 0 1 4.94.88 5.34 5.34 0 0 1 2.46 3.27 23 23 0 0 1 .78 6.8v.5c0 .17-.34.32-1 .46a12.39 12.39 0 0 1-2.46.21h-6.7c.06 3.27.3 5.13.74 5.58a1.94 1.94 0 0 0 1.26.33 36.75 36.75 0 0 0 7.79-.54.3.3 0 0 1 .13 0c.2-.06.37.05.5.33a5.93 5.93 0 0 1 .2 2c0 1-.23 1.61-.7 1.72q-1.8.61-7.94.6Zm-2-16.64v3.27h4.4c-.12-3.25-.46-4.87-1-4.87a6.06 6.06 0 0 0-2.43.42c-.65.28-.97.67-.97 1.18ZM555.5 249.17c.2.11.31.37.31.77a6.06 6.06 0 0 1-.31 1.62c-.37 1.23-.78 1.75-1.22 1.55l-1.52-.59a7.81 7.81 0 0 0-3.07-.54 2.17 2.17 0 0 0-2.31 1.42 19.8 19.8 0 0 0-.5 5.5 15.55 15.55 0 0 0 .63 5.47 2.39 2.39 0 0 0 2.42 1.4 20.71 20.71 0 0 0 4-.29l1.48-.29c.2-.06.37.05.5.33a5.93 5.93 0 0 1 .2 2c0 1-.23 1.61-.7 1.72a21.83 21.83 0 0 1-5.31.67q-5.26 0-7.2-2.41c-1.29-1.6-1.94-4.52-1.94-8.74a21.43 21.43 0 0 1 .85-6.9 5.38 5.38 0 0 1 2.72-3.21 13.33 13.33 0 0 1 5.44-.88 9.28 9.28 0 0 1 5.53 1.43ZM568.21 269.88c-3.1 0-5.26-.81-6.46-2.43s-1.81-4.53-1.81-8.72a22.08 22.08 0 0 1 .83-6.9 5.4 5.4 0 0 1 2.5-3.23 11.19 11.19 0 0 1 4.94-.86 11 11 0 0 1 4.94.88 5.34 5.34 0 0 1 2.46 3.27 23 23 0 0 1 .78 6.8v.5c0 .17-.34.32-1 .46a12.39 12.39 0 0 1-2.46.21h-6.7c.06 3.27.3 5.13.74 5.58a1.94 1.94 0 0 0 1.26.33 36.75 36.75 0 0 0 7.79-.54.3.3 0 0 1 .13 0c.2-.06.37.05.5.33a5.93 5.93 0 0 1 .2 2c0 1-.24 1.61-.7 1.72q-1.8.61-7.94.6Zm-2-16.64v3.27h4.39c-.11-3.25-.45-4.87-1-4.87a6.06 6.06 0 0 0-2.43.42c-.64.28-.96.67-.96 1.18ZM592.32 247.74a5.62 5.62 0 0 1 4.72 1.93q1.5 1.94 1.5 6.79v12.75a.88.88 0 0 1 0 .34q-.22.33-1.68.33a21.87 21.87 0 0 1-3-.21c-1-.14-1.52-.29-1.52-.46l-.05-12.75c0-3.13-.23-4.69-.69-4.69a9.09 9.09 0 0 0-4.18 1.51v15.93a.88.88 0 0 1 0 .34q-.23.33-1.68.33a22.27 22.27 0 0 1-3-.21c-1-.14-1.55-.29-1.55-.46v-20.8c0-.44.58-.67 1.75-.67 1.82 0 2.87.23 3.13.67v.09l.83 1.59c2.42-1.56 4.23-2.35 5.42-2.35ZM605.55 251.77h-3.48c-.35 0-.55-.08-.59-.23a1.74 1.74 0 0 1-.07-.53c0-1.2.22-1.84.66-1.93l3.48-.67 2.43-4.73a2.54 2.54 0 0 1 2-.63c.26 0 .5.5.74 1.51s.48 2.29.74 3.85h4.17c.47 0 .7.56.7 1.68s-.23 1.68-.7 1.68h-4.22v13.33l.7 4.74a.62.62 0 0 1 0 .34c-.15.22-.87.33-2.18.33s-2.09-.25-2.35-.75l-2-4ZM631.88 269.21v-31.53h15c1.54 0 2.31.43 2.31 1.22a6.49 6.49 0 0 1-.48 3 2.16 2.16 0 0 1-2.05.84h-9.22l.43 7.42H647c1.19 0 1.78.45 1.78 1.35a7.46 7.46 0 0 1-.39 3 1.67 1.67 0 0 1-1.66.78H638v14a.83.83 0 0 1-.05.34c-.14.22-.7.33-1.67.33a20.59 20.59 0 0 1-2.92-.21c-1-.22-1.48-.37-1.48-.54ZM662 267.91a6.51 6.51 0 0 1-4 2 13.72 13.72 0 0 1-2.85-.23 4 4 0 0 1-3.15-3.28 17.6 17.6 0 0 1-.35-3.9 4.65 4.65 0 0 1 3.44-4.65l6.22-1.55a7.82 7.82 0 0 0-.56-3.53c-.35-.53-1.11-.79-2.27-.79a7.58 7.58 0 0 0-3 .54l-1.52.59c-.27.14-.5 0-.7-.34a6.21 6.21 0 0 1-.78-2.49c0-.6.05-.94.15-1s.15-.11.15-.14a10.29 10.29 0 0 1 5.64-1.39 13 13 0 0 1 5.33.88 5.41 5.41 0 0 1 2.72 3.21 21.43 21.43 0 0 1 .85 6.9l-.09 10.48a.48.48 0 0 1-.09.34c-.11.22-.67.33-1.65.33-1.8 0-2.7-.22-2.7-.67Zm-5.57-5.32q0 3 1.83 3.18a3.05 3.05 0 0 0 1.83-.42q1.21-.8 1.22-6a8 8 0 0 0-3.57 1.2 2.49 2.49 0 0 0-1.28 2.04ZM686.27 249.17c.21.11.31.37.31.77a5.69 5.69 0 0 1-.31 1.62c-.37 1.23-.78 1.75-1.22 1.55l-1.52-.59a7.81 7.81 0 0 0-3.07-.54 2.17 2.17 0 0 0-2.31 1.42 19.8 19.8 0 0 0-.5 5.5 15.55 15.55 0 0 0 .63 5.47 2.39 2.39 0 0 0 2.42 1.4 20.71 20.71 0 0 0 4-.29l1.48-.29c.2-.06.37.05.5.33a5.93 5.93 0 0 1 .2 2c0 1-.23 1.61-.7 1.72a21.83 21.83 0 0 1-5.31.67q-5.26 0-7.2-2.41c-1.29-1.6-1.94-4.52-1.94-8.74a21.43 21.43 0 0 1 .85-6.9 5.38 5.38 0 0 1 2.72-3.21 13.33 13.33 0 0 1 5.44-.88 9.28 9.28 0 0 1 5.53 1.43ZM693.15 251.77h-3.48c-.35 0-.55-.08-.59-.23a2.13 2.13 0 0 1-.08-.54c0-1.2.22-1.84.66-1.93l3.48-.67 2.44-4.73a2.5 2.5 0 0 1 2-.63c.26 0 .5.5.74 1.51s.48 2.29.74 3.85h4.17c.47 0 .7.56.7 1.68s-.23 1.68-.7 1.68H699v13.34l.7 4.74a.62.62 0 0 1 0 .34c-.15.22-.87.33-2.18.33s-2.08-.25-2.35-.75l-2-4ZM706.46 258.73a22 22 0 0 1 .83-6.92 5.31 5.31 0 0 1 2.61-3.21 16.55 16.55 0 0 1 10.53 0 5.35 5.35 0 0 1 2.62 3.21 22.1 22.1 0 0 1 .82 6.92q0 6.28-1.87 8.72c-1.25 1.62-3.52 2.43-6.83 2.43s-5.59-.81-6.83-2.43-1.88-4.53-1.88-8.72Zm5.92 0c0 4.7.47 7 1.4 7a5.32 5.32 0 0 0 2.82-.58 1.89 1.89 0 0 0 .66-1.22 29.5 29.5 0 0 0 .34-5.24q0-7-1.39-7c-1.74 0-2.81.38-3.22 1.15s-.61 2.79-.61 5.89ZM733.62 250.09c2.38-1.56 4-2.35 4.72-2.35a5 5 0 0 1 2.09.42 4.94 4.94 0 0 1 1.37.84l.39.38a19.23 19.23 0 0 1-1 3.35 1 1 0 0 1-.93.67 3.51 3.51 0 0 1-1.51-.46 3.79 3.79 0 0 0-1.65-.46 8.28 8.28 0 0 0-3 1.3v15.43a.48.48 0 0 1-.09.34c-.11.22-.65.33-1.61.33a16 16 0 0 1-2.67-.21c-.83-.14-1.24-.29-1.24-.46v-20.8c0-.44.65-.67 2-.67s2.06.23 2.26.67v.09ZM744.59 248.29c0-.37.53-.55 1.58-.55a19.54 19.54 0 0 1 3 .21c.92.14 1.39.3 1.42.46l3.87 14.34 3.4-14.34c.11-.44.58-.67 1.39-.67a12.52 12.52 0 0 1 3.18.26c.52.16.78.29.78.37l-8.71 30.24c-.11.44-.58.67-1.39.67a18.11 18.11 0 0 1-2-.09c-1.13-.14-1.67-.33-1.61-.58a.41.41 0 0 1 0-.21l2.22-9.19-7.09-20.71v-.09a.24.24 0 0 1-.04-.12Z" transform="translate(-33.58 -36.72)"/></svg>