<svg data-name="Layer 1" xmlns="http://www.w3.org/2000/svg" viewBox="0 0 105.31 106.83"><ellipse cx="53.7" cy="48.55" rx="51.61" ry="48.55" style="fill:#fcee21"/><path d="M101.11 52.12c.22-21.4-15.44-41.19-35.64-47.47C44.59-1.88 21.54 8.02 9.11 25.37A48.1 48.1 0 0 0 .01 54.3a55.72 55.72 0 0 0 8.53 28.1 53.56 53.56 0 0 0 21.42 19.81 45.14 45.14 0 0 0 29.5 3.59c19.8-4.27 37.44-21.14 40.55-41.47a43.14 43.14 0 0 0 .51-7.53c0-1.93-3-1.94-3 0 .41 19.68-14.05 37.35-32 44.09A43.11 43.11 0 0 1 37.47 102a47.71 47.71 0 0 1-22.34-15.54c-12-14.59-16.09-35.68-7.46-52.9 9-18 29.47-30.12 49.69-27.64 19.85 2.44 36.86 19.31 40.21 38.9a40.34 40.34 0 0 1 .55 7.29 1.5 1.5 0 0 0 3 0Z"/><path d="M16.84 47.78a21.42 21.42 0 0 1 3.55-5.77 24 24 0 0 1 2.24-2.27c.41-.36.83-.71 1.27-1a5.71 5.71 0 0 0 .69-.49c.22-.12.18-.14-.12 0h.26a10 10 0 0 1 3.52 1.58 10.52 10.52 0 0 1 2.59 3.12 12.54 12.54 0 0 1 1.28 8.17 9.09 9.09 0 0 1-1.57 3.7 7.16 7.16 0 0 1-1.36 1.39c-.14.12-.75.4-.46.36.48-.06-.49-.1-.47-.1a7 7 0 0 1-.8-.14 11.48 11.48 0 0 1-8.8-9.3A1.51 1.51 0 0 0 16.84 46a1.54 1.54 0 0 0-1.05 1.85 14.45 14.45 0 0 0 9.44 11 11.71 11.71 0 0 0 3.65.71 4.32 4.32 0 0 0 2.76-1.44 11 11 0 0 0 3-4.69c2.29-6.74-1.22-16-8.5-17.92a8.17 8.17 0 0 0-1.7-.29 3.19 3.19 0 0 0-2.08 1 24.81 24.81 0 0 0-3.33 2.9 25.52 25.52 0 0 0-5.11 8 1.51 1.51 0 0 0 1.05 1.84 1.53 1.53 0 0 0 1.84-1ZM64.22 17.53a1.53 1.53 0 0 0-.23 1.82c4.74 7.4 17.57 5.76 20.32-2.58.61-1.83-2.29-2.62-2.89-.79-1.93 5.84-11.54 7-14.84 1.85l-.24 1.82 7.5-7.11c1.4-1.33-.73-3.45-2.12-2.12M78.11 71.12c1.55-5.4 9.53-7.49 13.07-3a8.53 8.53 0 0 1 1.27 7.9 6.8 6.8 0 0 1-5.92 4.51 8.08 8.08 0 0 1-7.84-3.86c-.92-1.7-3.51-.18-2.59 1.51 3.73 6.84 15.07 7.36 18.64.09a11.59 11.59 0 0 0-.42-10.84 9.72 9.72 0 0 0-9.54-4.71 11.11 11.11 0 0 0-9.57 7.6 1.51 1.51 0 0 0 2.9.8ZM91.29 55.03c-1.11 3.28 2.44 6 5.45 5.85a4.46 4.46 0 0 0 2.22-.66 3.37 3.37 0 0 0 1.61-2.49 8.84 8.84 0 0 0-8.13-8.79 1.5 1.5 0 0 0-1.5 1.5 1.54 1.54 0 0 0 1.5 1.5s.29 0 .31 0h-.09.15a4.74 4.74 0 0 1 .65.16 1.67 1.67 0 0 1 .58.2h-.12l.14.06.28.14c.18.1.36.2.53.31l.26.17.16.13c-.15-.12-.18-.15-.09-.08a7.83 7.83 0 0 1 .93.89l.21.23c.23.27-.19-.26 0 0s.24.34.35.52.22.38.32.58l.14.28v-.12l.07.19a6.18 6.18 0 0 1 .33 1.19 1.42 1.42 0 0 1 0 .2v-.19 1.03l.2-.76c-.06.13-.12.26-.19.38a1.77 1.77 0 0 0-.12.17s.23-.25.14-.17a.63.63 0 0 0-.11.12l-.15.13c-.15.15.3-.19.1-.08l-.35.2c-.08 0 .37-.13.12-.06l-.19.06H96.71h.21-.88c.13 0 .37.07.12 0h-.2a3.17 3.17 0 0 1-.44-.12 1.17 1.17 0 0 0-.24-.09c.11 0 .34.16.1 0s-.27-.13-.4-.21l-.35-.23c-.08 0 .29.24.09.06l-.18-.15c-.1-.1-.19-.22-.29-.32s.21.32.08.1l-.13-.2a1.74 1.74 0 0 0-.1-.19c-.07-.11.09.22.09.21a.61.61 0 0 0-.05-.12l-.06-.21v-.1.21-.49.23-.13c0-.04 0-.19.08-.28a1.49 1.49 0 0 0-1-1.84 1.54 1.54 0 0 0-1.85 1Z"/></svg>