<svg id="Layer_1" data-name="Layer 1" xmlns="http://www.w3.org/2000/svg" viewBox="0 0 315.18 120.57"><defs><style>.cls-1{fill:#e6e6e6}.cls-2{fill:#231f20}</style></defs><path class="cls-1" d="M53.64 124.39a321.17 321.17 0 0 1 48.48-2c7.23.25 14.4.74 21.66.77 9 0 17.78-.63 26.62-1.08a591.52 591.52 0 0 1 80.53 1.34c4.69.41 10.23 1.22 10.45 2.76.09.68-.95 1.32-2.15 1.88-8.55 4-24.88 5.37-39.91 6.11-59.54 2.93-120.26.6-180.07-1.73 10.68-1.68 19.58-4.47 25-7.85" transform="translate(-19.25 -19.51)"/><path class="cls-1" d="M146.69 128.89a322.29 322.29 0 0 1 48.47-2c7.23.25 14.4.74 21.67.77 9 0 17.77-.62 26.62-1.08A591.37 591.37 0 0 1 324 128c4.69.41 10.23 1.22 10.45 2.76.1.68-.95 1.32-2.15 1.88-8.54 4-24.87 5.37-39.9 6.11-59.55 2.94-120.27.6-180.08-1.73 10.69-1.68 19.59-4.47 25-7.85" transform="translate(-19.25 -19.51)"/><path class="cls-2" d="M168.77 68a22.51 22.51 0 0 1 .14 6.19 9.81 9.81 0 0 1-.51 2.62 3 3 0 0 1-2.2 1.53c-4 1.17-8 2.2-12 3.3-3.37.94-7.34 1.62-9.8 4.34s-3 6.33-3.71 9.67A102.17 102.17 0 0 0 139 108a53 53 0 0 0-.08 10.76 15.23 15.23 0 0 0 3.38 8.45c2.31 2.6 5.71 3.6 9 4a202 202 0 0 0 24.7 1.4 231 231 0 0 0 25.51-.82 10.43 10.43 0 0 0 4.84-1.45 11.5 11.5 0 0 0 3.33-3.71 26.09 26.09 0 0 0 3.2-10.18 53.92 53.92 0 0 0 .12-11.36 29.14 29.14 0 0 0-2.73-10.57c-2.76-5.53-7.67-9.59-12.88-12.72-2.7-1.61-5.52-3-8.36-4.35q-2.16-1-4.34-2a6.75 6.75 0 0 1-2.2-1.17c-.6-.67-.32-1.88-.28-2.72l.32-6.3c.08-1.6-2.42-1.6-2.5 0l-.3 5.82c-.08 1.63-.38 3.53.84 4.85 1 1.06 2.56 1.54 3.86 2.12s2.9 1.33 4.34 2c5.43 2.58 10.93 5.5 15.16 9.87a22.76 22.76 0 0 1 4.72 7 31.4 31.4 0 0 1 2 11.36A43.74 43.74 0 0 1 210 119c-.7 3.19-2 7.2-4.84 9.15a9.1 9.1 0 0 1-4.66 1.2c-2.13.16-4.27.28-6.41.39q-6.17.31-12.34.35-12.35.1-24.67-.85c-3.37-.26-7.09-.3-10.2-1.78s-4.51-4.16-5.18-7.27a37.31 37.31 0 0 1-.33-10.07A97 97 0 0 1 142.81 98c.64-3.43 1.11-8.12 3.8-10.65a12.52 12.52 0 0 1 5.3-2.45l6.54-1.81 6.63-1.83c1.7-.47 3.67-.82 4.88-2.23s1.34-3.54 1.5-5.29a25.34 25.34 0 0 0-.28-6.39c-.25-1.58-2.66-.91-2.41.67Z" transform="translate(-19.25 -19.51)"/><path class="cls-2" d="M175.1 60.84a53 53 0 0 0-5.64.32c-1.54.17-3.54.16-4.87 1.05a2 2 0 0 0-.23 3.37 3.4 3.4 0 0 0 1.85.46l2.87.12c3.68.15 7.4.47 11.08.41 2.07 0 7.79-.68 6.79-4-.47-1.59-2.88-2.11-4.28-2.35a12.54 12.54 0 0 0-5.55.26 1.25 1.25 0 0 0 .66 2.41 10 10 0 0 1 4.22-.26 9.64 9.64 0 0 1 2 .56 5 5 0 0 1 .48.21c.23.16.23 0 0-.34.07 0-.82.48-.77.46-2.66 1.09-6 .54-8.75.42l-4.91-.2-2.46-.1-1.22-.05h-.41c-.43-.11-.47.16-.11.81a6.11 6.11 0 0 0 .69-.27 12 12 0 0 1 1.2-.2c.75-.11 1.51-.2 2.27-.28 1.68-.16 3.36-.24 5-.25a1.25 1.25 0 0 0 0-2.5ZM137.91 123a292.83 292.83 0 0 1-31.32 1.91c-2.46 0-5 .11-7.4-.08-2.12-.17-3.81-1-4.54-3.11a27.61 27.61 0 0 1-1-6.84c-.2-2.6-.3-5.2-.33-7.81-.06-5.14.17-10.28.51-15.41.17-2.61.37-5.22.58-7.82a27.49 27.49 0 0 1 .93-6.77c1.19-3.47 4.56-4.71 7.8-5.64s6.46-1.62 9.11-3.63c3.56-2.7 4.61-7.09 4.87-11.33.35-5.48.13-11 .15-16.53a1.25 1.25 0 0 0-2.5 0c0 5.12.09 10.26-.09 15.38-.14 3.92-.78 8.41-4.31 10.77-5.56 3.71-14.35 2.47-17.23 9.74A23.22 23.22 0 0 0 92 82.64q-.33 4-.62 8.06c-.36 5.29-.62 10.6-.58 15.9 0 2.69.12 5.38.32 8.06a39.62 39.62 0 0 0 .87 7 7.17 7.17 0 0 0 3.29 4.65 12.73 12.73 0 0 0 6.07 1.07 291.25 291.25 0 0 0 36.52-1.9c1.58-.18 1.59-2.68 0-2.5Z" transform="translate(-19.25 -19.51)"/><path class="cls-2" d="M130.93 42.76c-1 11.4-2 25.07 7 33.81A16.72 16.72 0 0 0 144 80.4c1.17.41 2.61.64 3.1 1.93.57 1.47.16 3.59.14 5.14l-.24 20.79c-.06 3.61.17 7.35-.35 10.93-.38 2.62-2.07 7-5.49 6.44-1.57-.24-2.25 2.17-.66 2.41a6.91 6.91 0 0 0 6.77-3.27c1.74-2.53 2-5.77 2.1-8.75.21-7.29.24-14.58.35-21.87.06-3.6.39-7.33.14-10.93a5.11 5.11 0 0 0-1.49-3.53 9.76 9.76 0 0 0-3.61-1.7c-5.25-1.83-8.67-7-10.34-12.06-2.45-7.44-1.64-15.51-.94-23.17.14-1.6-2.36-1.59-2.5 0Z" transform="translate(-19.25 -19.51)"/><path class="cls-2" d="M123.64 43.46a20.46 20.46 0 0 0 12.41 0c1.74-.56 3.94-1.31 4.77-3.09a4.09 4.09 0 0 0-1.3-4.72c-1.56-1.32-3.74-1.67-5.69-2a42.91 42.91 0 0 0-6.69-.63 40.45 40.45 0 0 0-13.59 2.07c-1.66.57-3.5 1.78-3 3.83.59 2.37 4 2 5.85 1.9 1.59-.12 1.61-2.63 0-2.5-.3 0-3.26.27-3.35-.07s1.23-.77 1.59-.89a39.35 39.35 0 0 1 5.78-1.36 38.45 38.45 0 0 1 12.3 0c1.63.26 4.09.45 5.32 1.68 1.82 1.82-1.07 2.86-2.45 3.33a18.15 18.15 0 0 1-11.29.08c-1.53-.48-2.19 1.93-.66 2.41Z" transform="translate(-19.25 -19.51)"/><path class="cls-2" d="m121.05 32.91-.9-5.94-.45-3a3.78 3.78 0 0 1-.12-.81c0 .1-.39.06 0 0s1-.14 1.52-.2q3-.37 6.1-.62c1-.09 2-.16 3.06-.23l1.44-.08a4.47 4.47 0 0 1 1.63 0l-.75-.57a6.08 6.08 0 0 1-.15 1.49l-.16 1.62L132 28l-.7 7-.16 1.62c0 .22 0 1-.14 1.17s-1 0-1.26 0l-1.82-.15-7.1-.56c-1.61-.12-1.6 2.38 0 2.5l6.55.52c1.62.13 4.09.82 5.39-.5a3.58 3.58 0 0 0 .81-2.22c.12-1.08.21-2.16.32-3.24l.62-6.3c.21-2.07.6-4.22.63-6.3 0-2.56-2.69-2-4.45-1.9q-3.15.2-6.29.51c-1 .1-2 .22-3.05.34a12.36 12.36 0 0 0-2.84.44c-2.26.88-1.17 3.88-.9 5.65l1.06 7a1.26 1.26 0 0 0 1.53.88 1.29 1.29 0 0 0 .88-1.54ZM172 60.67l-.93-4.17c-.27-1.22-.64-2.46-.81-3.71a1.91 1.91 0 0 1 .1-1.25 2 2 0 0 1 1.12-.52c1.34-.35 2.69-.66 4-1a15.39 15.39 0 0 0 2.13-.53c-.22-.32-.31-.41-.27-.28a1.8 1.8 0 0 1 .05.19 2.69 2.69 0 0 0 0 .8v4.21c0 2.85 0 5.71-.1 8.56a1.25 1.25 0 0 0 2.5 0c.06-2.71.1-5.42.1-8.13v-4.06c0-1 .12-2.26-.6-3.1-1-1.14-2.41-.58-3.64-.28l-4 1a6.1 6.1 0 0 0-3.07 1.31 3.76 3.76 0 0 0-.9 3.09 38.2 38.2 0 0 0 .84 4.1l1 4.45c.35 1.57 2.76.9 2.41-.67ZM197.46 81.35q-21.35 2.4-42.78 3.82c-1.6.1-1.61 2.6 0 2.5q21.44-1.42 42.78-3.82c1.58-.18 1.6-2.68 0-2.5ZM212.33 69.68a6 6 0 0 0-4.88 2.68 4.72 4.72 0 0 0 0 5.29 4.86 4.86 0 0 0 4.84 2.19 4 4 0 0 0 3.07-3.23c.3-1.71-.26-3.75-2-4.51a1.29 1.29 0 0 0-1.71.45 1.26 1.26 0 0 0 .44 1.71c.13 0 .24.12.36.18s-.06 0-.07 0 .1.08.12.1a1.59 1.59 0 0 0 .13.13c.16.16-.05 0 0 0s.16.27.19.32 0-.06 0-.08 0 .14.07.18a3.38 3.38 0 0 1 .08.34c.07.35 0-.2 0 .1v.6c0 .01.05-.27 0-.09a2.74 2.74 0 0 1-.09.39s-.12.27-.1.3.13-.25 0 0l-.12.21s-.11.16-.11.17.21-.24 0-.07a2.83 2.83 0 0 1-.24.25c-.18.18 0-.05 0 0l-.13.09-.14.08c-.15.07-.18 0 0 0-.16 0-.31.09-.47.12.27-.06 0 0-.15 0a1.85 1.85 0 0 0-.24 0c-.16 0 .28.07 0 0l-.46-.13c-.29-.08.14.09 0 0l-.22-.11-.33-.2s-.26-.2-.11-.08l-.1-.09a3 3 0 0 1-.35-.36c-.15-.17 0 0 0 0l-.14-.2a3.72 3.72 0 0 1-.21-.39c-.11-.2 0 0 0 0s-.05-.16-.07-.23a2.17 2.17 0 0 1-.07-.24v-.06a2.67 2.67 0 0 1 0-.4V74.8c0-.01.07-.27.11-.4s.13-.31.05-.14.08-.14.09-.17a3.94 3.94 0 0 1 .31-.48 2.29 2.29 0 0 1 .21-.23c.12-.13.25-.24.38-.36s-.13.07.05 0 .17-.12.26-.18a5.12 5.12 0 0 1 .52-.27c-.05 0-.23.08 0 0l.3-.1.52-.13c.32-.07-.17 0 0 0h.37a1.25 1.25 0 0 0 0-2.5Z" transform="translate(-19.25 -19.51)"/><path d="M213.69 65.63 268 60.91c2.51-.22 5.31-.35 7.23 1.29 1.7 1.44 2.16 3.83 2.52 6q4.68 29.19 7.62 58.62c.24 2.48.36 5.31-1.4 7.07s-4.21 1.68-6.52 1.62l-34.43-1c-6.48-.18-25.08 2.68-29.29-2.92s-.61-23.4-.53-30.21Z" transform="translate(-19.25 -19.51)" style="fill:#bbbdbf"/><path class="cls-2" d="M213.91 64.82q26.75-2.8 53.67-3.59 3.33-.1 6.66-.16c1 0 2-.09 3 0s1.58.42 1.78 1.49c.42 2.22.53 4.55.79 6.79s.49 4.45.73 6.67q1.47 13.45 2.72 26.92.63 6.67 1.2 13.36c.37 4.35 1 8.76 1.07 13.13 0 1-.1 1.78-1.09 2.16a12 12 0 0 1-2.86.45c-2.19.24-4.39.46-6.58.65q-6.6.58-13.22.86c-8.9.38-17.82.35-26.71-.08q-6.74-.33-13.45-1c-1.5-.14-4.34.08-5.38-1.26s-.65-3.77-.68-5.29q-.56-27.21 0-54.44c0-2.25.1-4.49.15-6.74a1.25 1.25 0 0 0-2.5 0q-.74 29-.22 57.93c0 2.23 0 4.51.17 6.73a5.48 5.48 0 0 0 2.07 4.26c1.55 1 3.61 1 5.4 1.22q3.54.34 7.08.61 14.19 1.05 28.43.72 7.11-.16 14.2-.68c4.56-.32 9.22-.57 13.72-1.32a4.35 4.35 0 0 0 3.73-2.82c.61-1.92.06-4.26-.1-6.21q-.57-7.19-1.22-14.35-1.28-14.35-2.78-28.67-.75-7.16-1.56-14.32a48 48 0 0 0-.78-6.33 3.82 3.82 0 0 0-3.57-2.92 50.25 50.25 0 0 0-6.72.06c-2.38 0-4.77.12-7.15.2q-7.15.24-14.3.63-14.29.78-28.55 2.13-3.57.34-7.12.72c-1.59.16-1.6 2.66 0 2.5Z" transform="translate(-19.25 -19.51)"/><path class="cls-2" d="M282.57 74.33c-.38 5.56-.82 11.58-4 16.36-2.92 4.38-8 6.44-13.08 6.91a45.53 45.53 0 0 1-16-1.89A74.62 74.62 0 0 1 232.88 89a75 75 0 0 1-16-11.88c-1.16-1.12-2.93.65-1.77 1.77A78.25 78.25 0 0 0 248 97.9c10.07 2.86 24.07 4.73 31.61-4.45 4.37-5.34 5-12.5 5.46-19.12.1-1.61-2.4-1.6-2.5 0Z" transform="translate(-19.25 -19.51)"/><path d="M217.42 70.45a5.25 5.25 0 0 1 7.27.75c2.06 2.55.46 5.4.95 8.29.42 2.49 2.56 4.39 5.15 3.58s3.6-3.5 3.65-6a18.82 18.82 0 0 1 0-3.52c.39-1.9 2-.37 2.23.84a21.93 21.93 0 0 1-.09 4.65c-.09 1.75-.22 3.5-.27 5.24-.06 2.23.31 4.91 2.59 5.94s4.63-.43 5.74-2.36c1.49-2.61.41-5.69-.1-8.41a6.53 6.53 0 0 1 .19-4c.24-.49.8-1.28 1.45-1.14s1 .86 1.63 1.11a3.64 3.64 0 0 0 3.47-.6c.87-.62 2-2.4 3.22-2 1.45.46 1.55 2.35 1.45 3.57-.14 1.57-.52 3.12-.64 4.7-.2 2.82-.18 6.42 1.16 9 1.12 2.16 3.76 2.89 5.51 1 2.1-2.32.49-5.47.12-8.1-.42-2.94-.34-6.79 1.16-9.45.57-1 2.61-2.16 2.56-.2 0 1.27-.52 2.44-.12 3.71.87 2.74 4.45 2.45 6 .53a9 9 0 0 0 1.48-4.19 6.14 6.14 0 0 1 .73-2.25 4.75 4.75 0 0 1 2-1.41 10.54 10.54 0 0 0 5.59-6.44c.48-1.54-1.94-2.2-2.41-.66a7.76 7.76 0 0 1-1.91 3.23 15.77 15.77 0 0 1-3.6 2.25 5.44 5.44 0 0 0-2.33 2.74c-.53 1.34-.53 2.8-1 4.15a2.35 2.35 0 0 1-1.12 1.5c-.49.2-1 .17-1.12-.39-.28-1 .37-2.3.27-3.38a3.4 3.4 0 0 0-4.83-2.73c-2.52 1-3.31 4.15-3.73 6.54a22.49 22.49 0 0 0 .41 9.31c.21.87 1 3.48-.44 3.83-1.22.29-1.55-2.35-1.68-3.1-.55-3.35 0-6.44.36-9.77.28-2.48-.42-5.46-3.08-6.37a3.73 3.73 0 0 0-3.23.42c-.86.53-2 2.34-3.11 2.27-.54 0-1-.77-1.54-1a2.72 2.72 0 0 0-1.4-.32 4 4 0 0 0-3.01 1.72c-1.67 2.3-1.15 5.27-.58 7.84.33 1.46.79 3.13.33 4.61-.3 1-1.38 2.31-2.57 2s-1.31-1.78-1.35-2.71c-.06-1.6.11-3.22.19-4.81.14-2.66 1-6.35-.71-8.69-1.33-1.88-4.27-2.45-5.68-.33-1.65 2.46.32 5.7-1.24 8.15-.8 1.25-2.46 1.6-3.08 0s.09-3.44.1-5.08a7.74 7.74 0 0 0-12.21-6.31c-1.29.94 0 3.11 1.27 2.16Z" transform="translate(-19.25 -19.51)"/><path d="M141.69 83.82a31.94 31.94 0 0 1-10.33-16.53 4.35 4.35 0 0 0-1.1-2.37 4.09 4.09 0 0 0-3.11-.53l-6.39.61a6.19 6.19 0 0 0-2.59.64 8.72 8.72 0 0 0-2.33 2.77c-3.38 4.78-10 6.11-14.06 10.34-3.85 4-4.76 10-5.16 15.5a146.4 146.4 0 0 0-.26 16.75c.18 4.1 1 8.91 4.63 10.79a12.31 12.31 0 0 0 5.63.89h22.59c3.14 0 6.5-.07 9.06-1.88 3-2.12 4.07-6 4.69-9.64a82.9 82.9 0 0 0 .27-26.16" transform="translate(-19.25 -19.51)" style="fill:#002aff"/><path d="m156.75 89.31-5.51.61a5.68 5.68 0 0 0-3.41 1.16c-1 1-1.17 2.56-1.24 4l-1 19.79c-.1 2-.15 4.12 1 5.74 1.3 1.86 3.74 2.45 6 2.85a143.54 143.54 0 0 0 46 .73 9.24 9.24 0 0 0 4.38-1.46 7.74 7.74 0 0 0 2.41-4.16c1.72-6.09.67-12.58-.4-18.82a16.44 16.44 0 0 0-2.06-6.47c-2.09-3.13-6.05-4.43-9.78-4.94-5-.69-10.09-.33-15.13 0l-20.48 1.47" transform="translate(-19.25 -19.51)" style="fill:#8cc63f"/><path d="M216.15 64.32c14.25-5.9 30.44-3.15 45.76-5 3.9-.47 7.76-1.24 11.62-2 2-.39 4.43-.63 5.78.91 1.74 2 .15 5.15-1.87 6.85s-4.63 3.14-5.33 5.69c-.32 1.17-.18 2.45-.59 3.6s-1.8 2.13-2.83 1.46c-1.26-.82-.46-2.79-.79-4.26-.6-2.63-4.89-2.47-6.32-.2s-.84 5.24-.08 7.82 1.65 5.38.68 7.89a2.7 2.7 0 0 1-1.09 1.43c-1.11.63-2.59-.16-3.16-1.31a7.06 7.06 0 0 1-.34-3.77l.69-7.77c.2-2.3 0-5.32-2.28-5.93-2.56-.71-4.5 2.66-7.12 3-.87.12-1.75-.09-2.6.09-2 .42-2.91 2.78-2.85 4.81s.78 4 .62 6-1.73 4.2-3.74 3.94c-1.64-.22-2.68-2-2.8-3.63a21.73 21.73 0 0 1 .67-4.91 14.7 14.7 0 0 0-2.48-10.63c-1.88 1.39-2 4.08-2.5 6.36s-2.41 4.85-4.64 4.12c-1.42-.46-2.11-2.09-2.23-3.58a33.22 33.22 0 0 0-.17-4.47 5.89 5.89 0 0 0-6.16-4.37c-1.11.11-2.18.54-3.3.55a2.4 2.4 0 0 1-2.52-1.74c-.13-1.1 1.66-2 2.15-1" transform="translate(-19.25 -19.51)" style="fill:#0000d0"/><path d="M137.36 97.94c.75-1.66-.32-3.73-1.87-4.62a10.25 10.25 0 0 0-5.15-.92c-12.7 0-25.42-.06-38 1.22-1.58.16-3.33.43-4.34 1.71a6.68 6.68 0 0 0-1.06 3.37c-.41 3.23-.7 6.91 1.38 9.33 1.59 1.85 4.11 2.4 6.47 2.72 13.55 1.84 27.26-.53 40.74-2.89a3.14 3.14 0 0 0 1.82-.76 3.19 3.19 0 0 0 .61-1.92 28.37 28.37 0 0 0-.15-6" transform="translate(-19.25 -19.51)" style="fill:#fff"/><path d="M91.78 99.34a38.86 38.86 0 0 0 .2 7.15 1 1 0 0 0 .92 1 1 1 0 0 0 .93-1 38 38 0 0 1-.2-7.15 1 1 0 0 0-.93-1 1 1 0 0 0-.92 1Z" transform="translate(-19.25 -19.51)"/><path d="M93.79 99.62a5.63 5.63 0 0 1 1.12-.3h-.24a5.94 5.94 0 0 1 1.19 0 .88.88 0 0 0 .66-.28 1 1 0 0 0 .27-.68.94.94 0 0 0-.93-1 5.76 5.76 0 0 0-2.56.36 1 1 0 0 0-.55.44 1 1 0 0 0-.09.74 1 1 0 0 0 .42.58.93.93 0 0 0 .71.1ZM94 103.74l.11-.06-.22.1a1.81 1.81 0 0 1 .31-.09h-.24a1.08 1.08 0 0 1 .31 0h-.24a1.4 1.4 0 0 1 .29.09l-.22-.1.12.06a.93.93 0 0 0 .71.1.73.73 0 0 0 .31-.17.78.78 0 0 0 .24-.27 1 1 0 0 0 .09-.75 1 1 0 0 0-.42-.57 2.21 2.21 0 0 0-.35-.16l-.15-.06-.38-.06H94c-.13 0-.26 0-.39.06h-.15c-.12.06-.24.1-.36.17a.67.67 0 0 0-.25.25.65.65 0 0 0-.17.33.81.81 0 0 0 0 .38.89.89 0 0 0 .11.36 1 1 0 0 0 .55.44 1 1 0 0 0 .72-.1ZM93 107.47l2 .32a.78.78 0 0 0 .37 0 .7.7 0 0 0 .34-.12 1 1 0 0 0 .43-.57 1 1 0 0 0-.1-.75.92.92 0 0 0-.55-.44l-2-.32a.63.63 0 0 0-.36 0 .73.73 0 0 0-.35.12.94.94 0 0 0-.42.57 1.05 1.05 0 0 0 .09.74.91.91 0 0 0 .55.45ZM97.32 100.71a10.25 10.25 0 0 0-.12 5.07.94.94 0 0 0 1.14.68 1 1 0 0 0 .64-1.19l-.12-.57v-.33a8.48 8.48 0 0 1 0-1.13 5.07 5.07 0 0 1 0-.55 2 2 0 0 0 0-.25c0-.11 0-.11 0 0v-.13a10.26 10.26 0 0 1 .24-1.1 1 1 0 0 0-.64-1.18.92.92 0 0 0-1.13.67Z" transform="translate(-19.25 -19.51)"/><path d="M99.12 99.66a2 2 0 0 1 1-1.44 1.26 1.26 0 0 1 .77-.17.92.92 0 0 1 .37.09 1 1 0 0 1 .29.22.64.64 0 0 1 .1.65 1.43 1.43 0 0 1-.42.76 3.47 3.47 0 0 1-2.38.55 1 1 0 0 0-.65 1.65l3.88 4.29c.81.9 2.11-.46 1.3-1.36l-3.88-4.29-.65 1.64c1.38 0 3-.16 3.9-1.36a3.07 3.07 0 0 0 .18-3.8 3 3 0 0 0-3.6-.61 4 4 0 0 0-2.08 3.18 1 1 0 0 0 .93 1 1 1 0 0 0 .92-1ZM106.85 97c-1.33-.44-2.29.76-2.7 1.93a7.92 7.92 0 0 0-.06 3.93 7 7 0 0 0 1.57 3.52c.88.94 2.29 1.41 3.29.38.84-.87-.46-2.23-1.31-1.36-.22.24 0 0 0 0h-.12s-.14 0 0 0a1.74 1.74 0 0 1-.69-.6 6.25 6.25 0 0 1-.91-2.46 7.94 7.94 0 0 1-.13-1.28v-.71a2.64 2.64 0 0 1 0-.49 2.35 2.35 0 0 1 .35-.88c0-.06.16-.11.19-.17s-.08 0-.1 0h.09c-.1 0-.1 0 0 0 1.13.37 1.62-1.49.49-1.86ZM109.51 101.94l2.35.85a.94.94 0 0 0 .71-.09 1 1 0 0 0 .33-1.32 1 1 0 0 0-.55-.44l-2.35-.86a.89.89 0 0 0-.71.1 1 1 0 0 0-.43.58 1 1 0 0 0 .65 1.18ZM114.9 97.39l-.61 8.43a.93.93 0 1 0 1.85 0l.6-8.43a1 1 0 0 0-.92-1 1 1 0 0 0-.92 1ZM117.86 97.39l-.36 8.76a.93.93 0 1 0 1.85 0l.35-8.76a.92.92 0 1 0-1.84 0ZM121 97.45a6 6 0 0 0-.22 3.09.94.94 0 0 0 .89.71h.24c.06 0 .06 0 0 0h.1a3.62 3.62 0 0 1 .47.13l.17.06.15.08.17.1s.22.17.13.09a2.42 2.42 0 0 1 .31.33c0 .06 0 0 0 0v.08l.12.21c0 .06 0 .06 0 0v.09c0 .08 0 .16.07.23a2 2 0 0 1 0 .24V103.22c0 .07 0 .13 0 0a1.89 1.89 0 0 1 0 .23c0 .06 0 .06 0 0v.09s-.13.23-.07.13-.07.07-.08.09l-.17.1c.11-.06 0 0 0 0h-.19c.08 0 .11 0 0 0s-.24 0 0 0h-.15c-.21 0 .08 0 0 0s-.11-.1 0 0l-.16-.18a.89.89 0 0 0-1.3 0 1 1 0 0 0 0 1.36 2.22 2.22 0 0 0 2.49.66 2.75 2.75 0 0 0 1.71-2.47 3.69 3.69 0 0 0-1.06-2.81 4.35 4.35 0 0 0-2.83-1.16l.89.7a4 4 0 0 1 .12-1.96 1 1 0 0 0-.64-1.18.94.94 0 0 0-1.14.67Z" transform="translate(-19.25 -19.51)"/><path d="M122.51 98h2.9a1 1 0 0 0 0-1.93h-2.9a1 1 0 0 0 0 1.93ZM128 97.13l-.77 2.31a1 1 0 0 0 .42 1.09 3.56 3.56 0 0 1 .65.38c.12.09-.09-.08 0 0a.74.74 0 0 1 .13.12 3.83 3.83 0 0 1 .28.29s.07.11 0 0 .07.1.1.16l.08.15c.14.23 0-.08 0 .06a2.3 2.3 0 0 1 .1.35c0 .15 0-.14 0 0v.22c0 .12 0 .05 0 0a.66.66 0 0 0 0 .15c0 .1 0 .07 0 0s0 .09-.07.14-.12.2-.05.09l-.11.11s-.14.12 0 0-.31.13-.06 0h-.2c-.17 0 .12 0 0 0s.15.08 0 0-.17-.13 0 0a.9.9 0 0 0-1.3 0 1 1 0 0 0 0 1.36 1.94 1.94 0 0 0 2.27.27 2.78 2.78 0 0 0 1.35-1.76 3.77 3.77 0 0 0-2.26-4L129 100l.77-2.31a1 1 0 0 0-.64-1.18.94.94 0 0 0-1.14.67Z" transform="translate(-19.25 -19.51)"/><path d="M129.17 98h3.48a1 1 0 0 0 0-1.93h-3.48a1 1 0 0 0 0 1.93ZM134.7 58.7a37.14 37.14 0 0 1-23.21 2.06c-1.88-.44-2.68 2.45-.8 2.89a40.54 40.54 0 0 0 25.52-2.36c1.76-.77.24-3.36-1.51-2.59Z" transform="translate(-19.25 -19.51)"/><path d="M133.51 89.78c-14.41-3-29.19-.56-43.45 2.14a3.38 3.38 0 0 0-2.93 2.2 40.48 40.48 0 0 0-1 5.4c-.52 2.88-1.5 6.15-.71 9.07.84 3.1 3.59 4.23 6.53 4.52 3.59.35 7.24.44 10.85.52a220.15 220.15 0 0 0 25.29-.9c1.91-.18 1.93-3.18 0-3q-10 .93-20.13 1-4.92 0-9.83-.21c-1.64-.08-3.28-.16-4.91-.27-1.34-.09-3.06-.09-4.12-1-1.77-1.62-.78-5-.42-7l.86-4.71a9.14 9.14 0 0 1 .4-2.24s.19-.39 0-.24c.21-.19.84-.19 1.13-.25 6.51-1.22 13-2.37 19.65-3a74 74 0 0 1 22 .88c1.88.4 2.68-2.49.79-2.89Z" transform="translate(-19.25 -19.51)"/></svg>