<svg version="1.1" id="Layer_1" xmlns="http://www.w3.org/2000/svg" x="0" y="0" viewBox="0 0 222.48 150.91" xml:space="preserve"><style>.st0{fill:#3ed1b9}.st2{fill:none;stroke:#000;stroke-width:.4908;stroke-linecap:round;stroke-linejoin:round;stroke-miterlimit:2.1813}.st3{fill:#231f20}</style><g id="New_Layer_3"><path id="STROKE_4daa65a9-86dc-43a1-bd39-aa9400676d78" class="st0" d="M9.44 2.99l-.72-.21-.59-.07c-1.15.12-1.73.2-1.76.23-.02.04-.13.11-.32.22s-.4.29-.63.52c-.24.23-.37.38-.4.44-.03.06-.11.19-.23.4-.12.21-.27.7-.44 1.46-.17.76-.29 1.46-.34 2.1-.05.64-.08.97-.08 1l-.06 3.36c-.05 2.21-.08 4.42-.11 6.62s-.04 3.81-.03 4.83c.01 1.02.01 1.86.02 2.52.01.66.02 1.18.05 1.56.03.38.04.9.05 1.55.01.65.02 1.64.05 2.95.03 1.32.04 2.59.04 3.82s-.03 2.69-.07 4.38c-.05 1.69-.11 3.39-.19 5.1-.08 1.71-.13 2.98-.16 3.82-.03.84-.08 1.75-.16 2.74-.08.98-.12 2.12-.13 3.41-.01 1.29-.02 2.3-.04 3.04-.02.74-.04 1.85-.07 3.33-.03 1.48-.04 2.59-.04 3.34s.03 1.61.07 2.58c.05.97.12 1.98.21 3.02.1 1.04.17 1.86.21 2.44.05.58.08.89.09.91.01.02.04.42.09 1.19.05.77.09 1.63.13 2.57.03.94.04 1.67.03 2.17s0 1.29.03 2.36c.03 1.07.05 1.92.05 2.58.01.65 0 1.48-.03 2.48-.02 1-.05 2.13-.07 3.4-.03 1.27-.05 2.18-.07 2.74-.02.56-.06 2.02-.11 4.39-.05 2.37-.1 4.48-.14 6.31-.04 1.83-.09 3.06-.15 3.68-.05.62-.1 1.3-.13 2.06s-.05 1.59-.06 2.51c-.01.91-.01 1.55-.02 1.91-.01.36.04 1.41.12 3.16.09 1.74.17 2.95.24 3.62.07.67.14 1.67.19 3 .05 1.33.11 2.75.17 4.26.06 1.51.11 2.68.14 3.51.03.83.07 1.41.1 1.74.03.32.06.66.09 1.02.03.35.07.78.13 1.27l.12 1.34.28 1.42c.03.22.13.63.3 1.23.17.59.28.92.31.97.2.51.41.96.63 1.36.22.4.36.62.43.67.13.21.47.5 1.01.86s.96.62 1.26.79c.3.16.54.28.72.35.19.07.29.12.32.15.03.03.4.15 1.11.36.71.21 1.43.37 2.15.49s1.22.19 1.51.22c.28.03.49.04.61.04s.43.01.92.03c.49.02.86.04 1.09.06.23.01.43.02.59 0 .16-.01.44-.01.84 0 .4.01 1.08.02 2.02.02.95 0 1.95.04 3.01.12 1.06.08 1.84.15 2.35.22s1.17.15 1.99.25c.82.1 1.65.18 2.5.25.85.07 1.29.11 1.34.12.05.01.67.05 1.87.13 1.19.08 2.44.13 3.74.14 1.3.02 2.22.02 2.78.01.56-.01 1.02-.01 1.38-.01.36 0 .83-.01 1.41-.03.58-.02.94-.03 1.08-.05l1.72-.12c1-.06 2.37-.18 4.09-.34 1.72-.17 3.66-.27 5.81-.32 2.15-.05 3.97-.03 5.47.04 1.49.07 2.79.12 3.88.16 1.1.04 2 .06 2.71.07.71.01 2.18.04 4.4.08 2.22.05 4.19.06 5.9.05 1.72-.01 2.93-.02 3.64-.02s1.32.01 1.83.03c.51.02.89.04 1.11.06.23.02.35.03.38.04.03.01.28.03.76.05.48.03 1.27.05 2.38.07 1.11.02 2.17.05 3.16.1 1 .05 1.65.08 1.95.1s.55.03.72.05c.17.02.99.03 2.44.03 1.46 0 2.88 0 4.27-.01 1.39-.01 2.36-.01 2.93 0 .57.01 2.07.01 4.51.02s4.46 0 6.06-.01c1.59-.02 2.78-.01 3.57.02s2.02.04 3.69.03c1.67-.01 3.06-.02 4.15-.04 1.1-.01 1.98-.04 2.66-.06.67-.03 1.29-.05 1.86-.07.56-.02 1.21-.03 1.94-.04.73-.01 1.75-.05 3.05-.13 1.3-.07 2.76-.11 4.36-.1 1.6.01 2.81.02 3.63.03a494.017 494.017 0 019.61.28c2.02.08 3.66.13 4.92.16 1.26.03 2.32.06 3.19.09.87.03 2.51.06 4.93.09s5.01.03 7.77-.02c2.76-.04 4.86-.05 6.29-.03 1.43.02 2.8.04 4.09.05 1.3.01 1.98.02 2.04.02.07.01.6 0 1.61-.01 1.01-.02 1.99-.07 2.94-.16s1.83-.16 2.64-.21c.81-.05 1.37-.09 1.69-.11.32-.02.56-.05.73-.08.17-.03.53-.08 1.11-.16.57-.07 1.06-.13 1.45-.15.4-.03.76-.06 1.09-.09.33-.03.52-.05.59-.05.07 0 .46.01 1.18.04s1.46.04 2.23.02 1.57-.02 2.39-.01c.12-.06.46-.1 1.02-.12.57-.01 1.14-.06 1.72-.13.58-.07 1.13-.18 1.63-.33.51-.14.91-.26 1.22-.35.31-.09.51-.15.6-.18l1.14-.39c.67-.23 1.52-.52 2.55-.89l.46-.27c.51-.28.95-.58 1.32-.91.37-.33.62-.58.77-.76.15-.18.35-.56.61-1.13.26-.58.42-1.02.49-1.33.07-.31.15-.72.25-1.24s.16-.79.18-.82l.05-.54.09-.49c.03-.12.14-1.44.32-3.94.19-2.5.27-4.53.24-6.08-.02-1.55-.05-2.69-.08-3.43-.03-.74-.05-1.34-.05-1.79 0-.46-.03-1.59-.07-3.38-.04-1.8-.09-3.35-.14-4.67-.06-1.32-.1-2.24-.13-2.77-.03-.53-.05-.92-.06-1.16-.01-.24-.03-.73-.07-1.45-.04-.73-.06-1.22-.07-1.48-.01-.26-.04-1.52-.09-3.76-.06-2.24-.13-4.13-.22-5.65-.09-1.52-.15-2.51-.19-2.96-.04-.46-.1-1.54-.18-3.24-.08-1.71-.13-3.06-.16-4.08-.03-1.01-.04-2.73-.05-5.15-.01-2.42-.01-4.51-.01-6.27 0-1.76.01-3.29.02-4.59.01-1.31.01-2.17-.01-2.58-.02-.42-.02-.84-.02-1.26v-3.52c0-1.92-.01-3.51-.03-4.77-.02-1.26-.04-2.21-.07-2.85-.03-.64-.05-1.18-.05-1.62 0-.44-.01-1.85-.03-4.23-.02-2.39-.02-4.21-.01-5.46s.04-2.6.1-4.03c.06-1.43.09-2.34.09-2.71 0-.38.03-1.32.08-2.84.05-1.52.09-2.56.12-3.13.03-.57.04-1.12.03-1.64-.01-.52 0-1 .03-1.43.02-.43.04-.67.05-.74.01-.07.02-.22.04-.47.01-.25.01-.49 0-.72a2.32 2.32 0 010-.47c.02-.08.04-.41.05-.98s.04-2.51.08-5.82c.03-3.3.05-4.96.05-4.97 0-.01.02-.27.03-.77.02-.5.02-.98.01-1.42-.01-.44-.01-.93 0-1.48l-.09-.41c-.06-.56-.12-.89-.17-.98-.15-.47-.25-.78-.31-.91s-.1-.26-.11-.37c-.01-.12-.22-.47-.63-1.06-.41-.59-.87-1.1-1.38-1.53-.52-.43-.86-.72-1.03-.87l-1.09-.59-.07-.08-.52-.19c-.58-.33-.9-.49-.96-.48-.44-.25-.68-.36-.72-.33-.22-.05-.34-.09-.37-.12-.03-.04-.27-.05-.72-.03-2.1-.01-4.2-.02-6.3-.02-2.1-.01-4.2-.02-6.3-.02-2.1-.01-4.2-.02-6.3-.02-2.1-.01-4.2-.02-6.3-.02-2.1-.01-4.2-.02-6.3-.02-2.1-.01-4.2-.02-6.3-.02-2.1-.01-4.2-.02-6.3-.02-2.1-.01-4.2-.02-6.3-.02-2.1-.01-4.2-.02-6.3-.02-2.1-.01-4.2-.02-6.3-.02-2.1-.01-4.2-.02-6.3-.02-2.1-.01-4.2-.02-6.3-.02-2.1-.01-4.2-.02-6.3-.02-2.1-.01-4.2-.02-6.3-.02-2.1-.01-4.2-.02-6.3-.02-2.1-.01-4.2-.02-6.3-.02-2.1-.01-4.2-.02-6.3-.02-2.1-.01-4.2-.02-6.3-.02-2.1-.01-4.2-.02-6.3-.02-2.1-.01-4.2-.02-6.3-.02-2.1-.01-4.2-.02-6.3-.02-2.1-.01-4.2-.02-6.3-.02-2.1-.01-4.2-.02-6.3-.02s-4.2-.02-6.3-.02c-2.1-.01-4.2-.02-6.3-.02-2.1-.01-4.2-.02-6.3-.02-2.1-.01-4.2-.02-6.3-.02-2.1-.01-4.2-.02-6.3-.02-2.1-.01-4.2-.02-6.3-.02s-4.2-.02-6.3-.02c-2.1-.01-4.2-.02-6.3-.02-2.11-.07-4.22-.08-6.32-.08z"/></g><g id="New_Layer_6"><path id="STROKE_beb5d020-a061-4b06-a270-9876351ed8b2" d="M4.56 82.83c.07-.02.74-.03 2-.02 1.26.01 2.39.02 3.39.04.99.02 1.91.02 2.74.01.83-.01 1.97.03 3.4.13s2.69.14 3.77.12c1.08-.02 2.4-.01 3.98.02s3.16.07 4.74.1c1.58.04 3.26.04 5.02.02 1.76-.02 4.06-.03 6.88-.04 2.83 0 4.98.01 6.46.05 1.48.04 2.66.08 3.55.12.89.05 1.72.08 2.51.1.79.02 2.18.08 4.16.2 1.99.12 4.5.14 7.55.07s5.75-.15 8.11-.23c2.36-.09 4.11-.16 5.25-.22 1.14-.06 2.14-.09 3-.11.86-.02 1.59-.03 2.2-.05.61-.02 1.72-.04 3.32-.08 1.6-.04 2.92-.05 3.94-.04 1.02.01 1.75.02 2.2.02.45 0 1.33.01 2.64.02s3.12.03 5.44.06c2.32.03 4.38.05 6.2.07 1.82.02 3.71.04 5.68.05 1.97.01 3.75.02 5.33 0 1.58-.01 2.89-.02 3.94-.02h1.99c.28 0 .83-.01 1.65-.03.82-.02 1.7-.02 2.62.01.93.03 1.66.04 2.21.04h2.3c.99 0 2.08-.01 3.27-.01h9.03c1.36 0 2.78.01 4.26.02s2.9.03 4.26.06c1.36.03 2.8.03 4.31 0 1.51-.03 2.34-.04 2.46-.03.13.01.85.02 2.17.03 1.32.01 3.25.03 5.81.05 2.55.02 4.9.03 7.06.03 2.15 0 4.1-.02 5.85-.04 1.75-.03 3.25-.05 4.5-.07s2.43-.04 3.55-.06c1.12-.02 1.99-.04 2.61-.07.62-.03 1.34-.03 2.17-.02.83.01 1.87 0 3.13-.03 1.26-.03 2.41-.04 3.44-.04h2.59c.7 0 1.74-.01 3.13-.03 1.39-.02 2.44-.02 3.17-.02.72 0 1.25.01 1.6.02.34.01.58.01.71.01s.2 0 .22.01c.02.01.36.01 1.01-.01.66-.02 2.07.1 4.25.36.59.28.89.42.9.43l.3.3c.19.19.38.41.55.66.18.25.27.39.29.43s.06.1.14.18c.08.08.21.35.4.81.19.46.29.9.32 1.3.03.4.02.77-.02 1.09-.04.32-.07.55-.08.68-.01.13-.06.35-.14.67-.08.31-.2.8-.35 1.46-.15.66-.25 1.12-.29 1.36-.04.25-.07.49-.1.74-.02.24-.04.6-.04 1.06v.84c0 .1.03.3.08.61-.01.1.05.49.18 1.17.13.68.23 1.29.31 1.82.08.53.12.89.13 1.07.01.18-.01.44-.04.76-.04.32-.06.54-.07.65-.01.11-.07.24-.17.41-.1.16-.23.31-.39.44s-.37.25-.62.34c-.25.1-.39.14-.4.14-.01 0-.38.04-1.1.14-.72.09-1.78.14-3.17.15-1.39.01-2.53 0-3.42-.01-.88-.02-1.56-.02-2.02-.01-.47.01-1.52.01-3.15 0s-3.41-.04-5.31-.09c-1.91-.05-3.36-.08-4.35-.1s-1.88-.03-2.67-.02c-.79 0-1.98 0-3.58-.01s-3.01-.02-4.23-.03c-1.22-.01-2.3-.02-3.24-.05-.94-.02-2.96-.07-6.08-.13-3.11-.06-5.5-.11-7.15-.14-1.65-.04-3.02-.06-4.11-.07-1.09-.01-2.42-.03-3.97-.06-1.56-.03-2.79-.06-3.7-.08-.91-.02-1.72-.04-2.43-.07-.71-.02-1.53-.04-2.45-.05-.93-.01-2.18-.02-3.76-.04-1.58-.01-3.75-.09-6.53-.23-2.77-.14-5.64-.23-8.6-.27-2.96-.04-5.18-.08-6.65-.11-1.47-.03-2.55-.05-3.22-.07-.67-.02-2.11-.05-4.32-.1-2.2-.04-3.97-.09-5.3-.14-1.33-.05-3.46-.08-6.4-.1-2.93-.01-5.13-.01-6.59.01s-3.13.02-5.01-.01-3.62-.05-5.22-.07c-1.6-.02-2.87-.03-3.8-.03-.93-.01-2.31-.02-4.16-.05-1.85-.03-3.52-.05-5.03-.06l-4.94-.03c-1.78-.01-3.33-.01-4.64-.02l-3.84-.03c-1.25-.01-2.3-.03-3.16-.05a594.386 594.386 0 00-8.34-.14c-1.19-.01-2.08-.03-2.69-.06-.6-.03-1.75-.05-3.43-.06-1.69-.01-3.7-.06-6.05-.15-2.34-.09-5.03-.13-8.05-.12-3.02.01-5.41.01-7.17 0-1.75-.01-3.32-.01-4.68 0-1.37.01-2.38.01-3.03-.01-.65-.02-1.2-.04-1.64-.05-.44-.02-1.03-.03-1.77-.04-.74-.01-1.36-.02-1.84-.04-.49-.02-1.28-.08-2.37-.16-1.09-.09-2.12-.15-3.07-.18-.96-.04-1.58-.07-1.87-.09-.31.01-.59-.01-.88-.03-.29-.02-.53-.04-.73-.05-.13-.09-.22-.14-.26-.14" fill="#abb1b1"/><path id="STROKE_c03b2fbc-f82c-4936-b786-194f78fd95cf" class="st2" d="M3.6 82.83c.78 0 1.52.03 2.21.09.7.06 1.17.1 1.42.11.25.01.47.03.67.06.2.03.39.06.57.09.18.03.62.07 1.31.13.69.05 1.57.08 2.64.07 1.07 0 1.88-.01 2.45-.01.57-.01.98 0 1.23.01s.44.02.56.02c.12 0 .43.01.93.04s1.12.06 1.87.09 1.45.04 2.12.05c.66.01 1.24.02 1.72.03.48.01.97.03 1.45.06.49.02.8.04.95.04.15.01.33.01.56.01.22 0 .5 0 .84.01.33.01.51.01.52 0 .01 0 .83-.03 2.46-.08s3.16-.08 4.59-.09c1.43-.02 2.75-.04 3.94-.08s2.08-.05 2.67-.04c.59.01.98.02 1.18.02h1.36c.71 0 1.48-.01 2.3-.04.82-.02 1.44-.04 1.88-.04.44 0 .99.01 1.66.04.67.03 1.23.04 1.68.04h1.13c.31 0 .68-.01 1.11-.04.44-.03.77-.04 1-.04.23 0 .5-.01.83-.02.32-.02.87-.03 1.65-.03.78-.01 1.36 0 1.74.01.38.01 1.3.06 2.75.13s3.05.14 4.79.2c1.74.06 3.18.09 4.32.08 1.14-.01 1.91-.01 2.33.01.42.02 1.45.01 3.08-.03 1.64-.04 2.92-.06 3.86-.06.93 0 1.54 0 1.83.01.29.01.75.01 1.39.01h1.52c.37 0 .72-.01 1.05-.02.32-.01 1.17-.03 2.55-.06s2.41-.05 3.09-.05c.68-.01 1.25-.02 1.71-.04.46-.02.75-.04.87-.06.12-.02.8-.04 2.04-.05 1.24-.02 2.47-.03 3.69-.03h4.07c.43 0 1.01 0 1.74.02s1.71.04 2.94.06c1.23.02 2.19.04 2.88.04.68 0 1.34.01 1.97.03.63.02 1.2.04 1.71.05.51.01 1.88.04 4.13.09 2.24.05 4.17.09 5.8.12 1.62.03 2.79.05 3.51.07.71.02 1.61.05 2.67.08 1.07.04 1.86.05 2.39.03.52-.02 1.42 0 2.68.04 1.26.04 2.18.07 2.75.08.57.01 1.52.02 2.86.03 1.34.01 2.6.01 3.77.01 1.18 0 2.38-.04 3.61-.12 1.23-.08 2.17-.13 2.83-.16.66-.03 1.22-.04 1.71-.05.48-.01 1.29-.03 2.43-.06 1.14-.04 1.89-.06 2.26-.07.37-.01.69-.02.98-.04.29-.02.6-.03.92-.03s.69 0 1.1-.01c.41 0 1.37-.01 2.88-.03 1.51-.01 2.8-.02 3.87-.02 1.07 0 2.56-.03 4.48-.07 1.91-.05 3.35-.08 4.32-.09.97-.01 1.62-.02 1.95-.02.33 0 .89-.01 1.65-.04.77-.03 1.2-.04 1.29-.04.09 0 .24-.01.46-.03.21-.02.84-.03 1.88-.03s1.82 0 2.34.01c.52.01 1.18 0 1.96-.03.78-.04 1.52-.06 2.2-.09.68-.02 1.29-.03 1.84-.03.54 0 1.24.01 2.1.04.86.03 1.48.04 1.85.04.37 0 .75.01 1.14 0h.74c.11 0 .45.01 1.03.01.58 0 1.19.01 1.82.04.63.03 1.39.06 2.27.08.88.02 1.49.04 1.83.04.34 0 .61 0 .8-.01.2-.01.72-.01 1.58 0 .86.01 1.6.03 2.21.06.61.03 1.05.05 1.3.05s.69 0 1.31.01c.62 0 1.15.01 1.58 0 .43 0 .99-.02 1.68-.06l3.15-.09.14-.03"/><path id="STROKE_bdaf64b6-5fb4-4c50-8c24-2180430256de" class="st2" d="M4.2 100.21c.28-.05.51-.09.68-.13s.63-.12 1.39-.24l1.32-.21c.13-.02.65-.05 1.56-.11s1.7-.09 2.35-.1l2.08-.03c.73-.01 1.36 0 1.9.03.53.03.96.05 1.27.06.31.01.59.03.82.05.23.02 1.12.06 2.67.1 1.55.04 3.3.1 5.27.18 1.96.08 3.74.14 5.32.2s3 .09 4.25.11c1.25.02 2.34.03 3.26.02.92-.01 1.61-.01 2.05-.01.44 0 .68.01.69.01.02.01 1.14.01 3.38.01h7.98c3.09 0 5.43 0 7.03.01 1.6.01 2.72.01 3.35-.01.63-.02 1.11-.02 1.45-.02.33 0 .51.01.54.01.03.01.63.01 1.81.01 1.17 0 2.4-.02 3.67-.05 1.27-.03 2.62-.04 4.05-.02 1.43.02 2.56.04 3.4.05.84.01 1.47.03 1.88.05.42.02.7.04.85.04.15 0 .26.02.33.04s1.54.07 4.42.15c2.88.08 5.01.12 6.38.12 1.38 0 2.41.01 3.1.02s1.34.03 1.96.04c.62.02 1.28.02 1.98.02s1.52-.01 2.45-.02c.93-.02 1.76-.01 2.49.02.73.03 1.77.07 3.11.12 1.34.05 2.93.11 4.76.17 1.83.06 3.3.12 4.39.17 1.1.05 2.29.1 3.57.14 1.29.04 2.37.07 3.24.11.88.03 1.67.04 2.38.04.71-.01 1.59-.01 2.64.01 1.05.01 2.62.02 4.71.02s3.6.02 4.51.06c.91.04 1.64.06 2.17.08.54.02 1.3.03 2.28.03.99 0 1.8.02 2.43.04.64.02 1.12.05 1.45.07.33.03.84.04 1.53.06l4.08.06c2.03.03 3.65.05 4.84.06 1.19.01 2.31 0 3.36-.03 1.05-.03 1.68-.04 1.89-.03.21.01 1.11.02 2.7.04 1.58.01 2.84.02 3.78.02s1.66.01 2.17.02.88.03 1.12.04c.24.02.75.02 1.54.02.78 0 1.34 0 1.67.01.33.01.83.01 1.5.01s1.46.01 2.38.05c.92.04 1.51.07 1.78.08.27.01.6.03 1.01.05.41.03.87.05 1.39.06.52.01.96.02 1.32.01s.95.01 1.75.05 1.51.06 2.14.06c.63 0 1.3.01 2.03.01.72 0 1.45 0 2.17-.01s1.31-.02 1.77-.02c.45 0 1.03-.01 1.73-.02l2.17-.03c.75-.01 1.22-.02 1.42-.03.19-.01.35-.02.48-.04s.34-.03.65-.05c.31-.02.93-.04 1.88-.07.94-.03 2.09-.08 3.44-.16s2.31-.14 2.88-.19c.57-.05 1.29-.09 2.15-.11.86-.02 1.61-.04 2.25-.05.63-.01 1.18-.02 1.65-.03.47-.01.96-.03 1.47-.06.51-.02 1.3-.06 2.36-.09"/><path id="STROKE_1941b198-b8a1-404e-a999-7f030dbc38f2" class="st0" d="M103.87 74.57c.16.45.28.82.35 1.09.07.28.12.42.13.44.01.02.08.54.19 1.58.11 1.03.16 1.71.16 2.04-.01.33.02 1.06.08 2.2.06 1.14.12 1.99.18 2.52.06.54.11 1.05.17 1.54.06.49.12 1.22.19 2.21s.14 1.88.2 2.67.12 1.55.17 2.27c.05.72.08 1.39.1 2 .01.62.04 1.35.09 2.21.05.85.08 1.43.1 1.73.02.3.03.53.03.7 0 .17.05.91.14 2.21.09 1.3.17 2.38.23 3.25.06.86.12 1.51.19 1.94.07.43.15.79.25 1.08.1.29.27.59.49.9.24.07.45.12.65.15s.42.07.67.11c.25.04.44.05.58.05h.9c.46 0 1.04-.03 1.74-.09s1.59-.14 2.66-.22c1.08-.09 1.78-.14 2.12-.15.34-.02.57-.02.71 0 .14.01.31.02.53.01.21-.01.4-.02.57-.02.16 0 .33 0 .5.01.17.01.5.02.99.02.49.01.85.02 1.1.04.25.02.7.03 1.35.05l.99.03c.01 0 .34.03 1.01.06.66.04 1.16.05 1.5.04.34-.01.6-.05.8-.1s.37-.13.54-.22c.16-.09.25-.13.26-.14s.07-.06.16-.16c.1-.1.18-.23.24-.39.07-.16.11-.24.13-.26.02-.02.06-.15.11-.39.05-.25.09-.53.11-.87.02-.33.03-.76.03-1.29 0-.52-.03-1.4-.1-2.64-.07-1.24-.11-2.11-.12-2.64-.01-.52-.05-1.26-.11-2.22-.06-.96-.1-1.61-.11-1.95a6.46 6.46 0 00-.03-.58c-.01-.05-.11-1.94-.29-5.67s-.24-6.2-.2-7.41c.04-1.21.07-1.93.07-2.17l.03-.66c.01-.2.03-.47.06-.81.03-.34.06-1.88.11-4.62"/><path id="STROKE_e7f16b4b-9ced-4587-b98f-da80c8205e80" class="st2" d="M99.1 74.15l.46-.11c.06.01.94.05 2.65.12.25.21.44.41.57.59.13.19.25.41.36.66.11.26.23.53.34.83.12.3.21.53.27.71.07.18.34 1.14.82 2.87.18.69.29 1.06.32 1.12.04.1.11.58.21 1.43.1.85.16 1.6.19 2.25.02.65.05 1.21.08 1.69s.04.85.05 1.11c0 .26.01.47.03.61.02.15.03.31.03.5s.01.73 0 1.63c0 .9.02 1.7.06 2.4.04.7.09 1.3.15 1.81.06.5.1.99.14 1.47.04.47.07.85.09 1.13.02.28.04.64.08 1.08.03.44.06.86.1 1.24.03.38.05.84.05 1.36 0 .52-.01.79-.01.82-.01.02-.04.23-.09.63-.05.4-.12.8-.21 1.21-.24.4-.38.63-.44.69l-.52.39-.36.21c-.47.17-.7.26-.72.28l-1.14.18c-.03-.02-.5.02-1.41.13"/><path id="STROKE_3b36f5c0-3db9-4e82-9ff8-ab0a7a53bd60" class="st2" d="M129.03 70.55l-.68.5-.19.27c-.04.02-.18.38-.44 1.09-.25.71-.42 1.33-.5 1.85-.08.52-.13 2.07-.15 4.63-.02 2.57-.03 3.86-.02 3.88.01.02.02.27.03.75.01.48.03 1.11.04 1.88.01.77.04 1.41.07 1.92.03.51.06.88.07 1.12a14.58 14.58 0 00.13 1.63c.05.48.13 1.23.23 2.26.1 1.03.16 1.78.19 2.23.02.45.07 1.18.14 2.19.07 1 .11 1.6.12 1.78.01.18.04.6.1 1.24.06.64.1 1.1.12 1.36.02.26.04.54.08.83.03.29.06.57.08.83.02.26.03.44.04.52 0 .08.05.31.13.67v.2l.19.62-.01.1.13.37.23.56c.03.01.17.1.42.26l.2.11c.25.09.38.16.39.2.02.05.46.18 1.3.38l.42.2"/><path id="STROKE_fe582c0d-b49a-44b6-b936-9cdc62b9b8a1" class="st2" d="M6.22 91.63l.07-.04.43.01.38-.03.41-.06c.45-.04.94-.14 1.46-.3"/><path id="STROKE_b4d0985d-7a53-4ef6-be81-7e94f34f862a" class="st2" d="M14.33 90.88c.25 0 .4.01.43.03.25.01.38.02.4.03.02.01.17.03.44.05.28.02.65.06 1.11.11l.02.02 1.05.08"/><path id="STROKE_3fc212b2-737b-45a9-8901-f54caad39508" class="st2" d="M22.67 90.79c.22.03.46.03.72 0l.3-.01c.22.08.47.12.75.11.14.05.36.05.67.01.04.02.14.02.3 0 .16-.02.39-.03.71-.02"/><path id="STROKE_de6e8db7-fd22-4250-829f-dc3bd88f0891" class="st2" d="M31.73 90.67c.72-.01 1.11 0 1.15.02.72.01 1.14.03 1.27.03.13.01.29.03.49.06s.58.03 1.15.01"/><path id="STROKE_30b8ba21-b634-4b7e-b78c-cba6bfefd277" class="st2" d="M40.07 90.79l.66.04c.19-.01.32-.02.39-.05.14.01.32.05.52.1.3-.03.54-.05.7-.08.05.03.41.06 1.07.08"/><path id="STROKE_28cbd891-1e44-4d6b-b900-c175d4851c62" class="st2" d="M50.93 90.79c.13.01.34.04.62.09.28.05.49.09.62.1.13.01.28.02.44.03.16.01.5.01 1.03.02l.62.07"/><path id="STROKE_e6fd1bec-e9da-4ee2-8695-691ecc0565da" class="st2" d="M62 90.88l.29-.07.24.05.55-.02c.03.02.16.01.4-.05l.79.09"/><path id="STROKE_0d0e8d8e-8cd8-48f1-9d5d-ae2ddbdd7672" class="st2" d="M70.12 90.58l.23-.02c.6.06 1.63.14 3.1.23"/><path id="STROKE_e10dfdd5-07c3-4f62-8ab6-ca90c5ff91a4" class="st2" d="M78.94 90.79l.07-.04.69-.12.77-.07c.06-.02.19-.03.41-.02.21.01.64-.02 1.28-.07"/><path id="STROKE_33902612-953b-4246-a695-73cd04f9a743" class="st2" d="M88.11 91l.08-.03c.37.06.58.08.61.06.03-.02.08-.03.14-.04s.21.02.47.08c.25.06.69.09 1.32.08.06.03.46-.02 1.21-.15"/><path id="STROKE_36a8022e-8b00-42f7-a8af-03dc954d4d43" class="st2" d="M97.65 91.21l.06.02c.05-.01.48-.03 1.29-.06.58-.06 1.03-.1 1.36-.13l.11.02c.25-.03.5-.06.75-.07"/><path id="STROKE_6e83ecd4-3cd1-4a16-b295-22747a4fbb2d" class="st2" d="M136.63 91.85c.02-.01.32.06.9.19l.02-.01c.06.07 1.1.08 3.14.04"/><path id="STROKE_e4c14f2c-05cf-4a5f-9c67-dbd781d092c7" class="st2" d="M147.25 91.85c.52.03.89.04 1.13.04.23 0 .44 0 .62-.01s.74.02 1.7.07"/><path id="STROKE_956f03ed-9379-459d-926a-c9f4db234b36" class="st2" d="M157.13 92.06c.96-.08 2.07-.12 3.34-.12"/><path id="STROKE_c4b444b9-8b3c-4b69-8433-53e8bc3283da" class="st2" d="M164.28 92.17l.32-.03c.52-.1.79-.14.82-.14.02.01.77-.08 2.25-.27.04-.03.1-.03.18-.02.08.01.36-.02.85-.08"/><path id="STROKE_4aa5ef46-c478-4f4e-8dc8-23d022123124" class="st2" d="M190.98 91.85l.44-.04c.13.05.29.09.49.11.19.02.4.04.62.04.22 0 .53.02.93.05.4.03.7.08.89.15.19.07.35.1.47.1s.63.04 1.52.13"/><path id="STROKE_1a141cac-7752-4d64-93aa-b0844a1ccfdc" class="st2" d="M200.17 92.17c.27-.02.48-.04.64-.04.16 0 .49 0 .98.01.5.01 1.08.01 1.75.01.09-.03.26-.02.52.02l.99.01"/><path id="STROKE_0bdf7ead-3926-4ea2-b98e-79de60ec11a3" class="st2" d="M210.05 91.85c.07.03 1.42.02 4.07-.03l.7.13"/></g><g id="New_Layer_7"><path id="STROKE_7b86972f-ce57-4f0a-aa75-27140c828db2" class="st2" d="M172.14 91.77l.08.04.44.05c.35.01.66 0 .93-.01.03 0 .46-.03 1.28-.09l.11.01.4-.02.54-.05"/><path id="STROKE_2a4cd200-6bbb-49f8-b37b-46787fb9d87c" class="st2" d="M179.93 91.54l.88-.01.24-.01.29-.02.5-.03c.43 0 .66 0 .7-.01h.4c.23 0 .44.01.61.03.17.01.32.03.45.03.12.01.38.03.77.05.02-.01.37-.02 1.05-.03"/><path id="STROKE_a8e762d9-c44d-4154-8ab1-13a90c2b1cb5" class="st2" d="M128.75 92.16l.25-.03c.39-.02.6-.04.63-.05.03-.01.31-.03.85-.06l.25-.01.76.04"/></g><g id="New_Layer_4"><path id="STROKE_b9a0b4b5-48a6-4e71-9d60-c0dde8199b1e" class="st2" d="M11.85 3.74l-1.08.07c-.34 0-.66-.01-.95-.04l-.45-.07c-.37-.01-.58-.02-.63-.03-.32.02-.5.03-.56.02-.05-.01-.21-.01-.46 0-.26 0-.6 0-1.04.01-.34.05-.64.09-.89.11l-.56.13c-.34.2-.53.3-.56.31-.04.01-.12.08-.27.21-.14.12-.26.27-.37.43-.1.16-.19.32-.26.45-.06.14-.1.25-.12.34-.02.08-.07.29-.14.61s-.11.55-.12.7c-.02.14-.05.37-.11.69l-.12 1.95c-.06.39-.08.61-.06.65v6.03l.05.56.03.93.05.32c-.02.14.04 1.08.19 2.84.14 1.76.26 3.22.34 4.4.08 1.17.13 2.06.16 2.67.02.61.03.96.03 1.04-.01.09 0 .33.03.74.01.4.02.76.02 1.09v.82c0 .22 0 .68-.02 1.38-.01.7-.03 1.43-.06 2.21s-.05 1.42-.07 1.91c-.02.49-.04 1.57-.05 3.24-.01 1.67-.01 3.08 0 4.24.01 1.16 0 2.08-.02 2.75-.02.68-.04 1.12-.06 1.35-.02.22-.03.45-.04.68-.01.23-.02.49-.03.78-.01.29-.03.82-.06 1.58-.02.76-.04 1.34-.05 1.76-.01.42-.02.72-.04.9-.02.18-.03.36-.03.54 0 .18-.01.97-.01 2.39-.01 1.42-.01 2.36 0 2.82.01.46.01.85.02 1.19.01.33.02.69.04 1.08.02.39.03.78.05 1.17.02.39.02.77.01 1.14-.01.37-.02.56-.02.59-.01.03.02.8.08 2.33.06 1.52.12 2.69.17 3.5a48 48 0 01.09 2.05c.01.55.01 1.29.02 2.19 0 .91-.02 1.77-.06 2.58-.04.81-.11 1.67-.18 2.58-.08.91-.13 1.68-.16 2.31-.03.63-.06 1.17-.09 1.63-.03.46-.05.77-.07.93-.02.16-.03.39-.03.7 0 .3-.02.65-.04 1.03-.03.38-.04.71-.04 1 0 .28-.01.54-.01.77-.01.23-.01.36 0 .38 0 .02 0 .28-.01.78-.01.49-.03 1.32-.06 2.48-.02 1.16-.04 2-.04 2.54v1.22c0 .28.01.66.02 1.15.02.49.03.88.04 1.19.01.3.02.58.02.81 0 .24.01.94.01 2.11.01 1.17 0 2.12-.02 2.85s-.05 1.71-.11 2.94c-.05 1.23-.09 2.42-.11 3.57-.02 1.15 0 2.52.06 4.1.06 1.58.1 2.55.12 2.91.02.35.03.6.04.74.01.14.02.43.03.88.01.44.02.76.03.96.01.2.01.31.01.35-.01.04-.01.15-.01.32 0 .18.01.49.04.93.02.44.03.85.04 1.23v1.38c0 .54 0 .99-.02 1.36-.01.36-.02.86-.03 1.49-.01.63-.01 1-.01 1.12 0 .11.01.18.02.19.01.02 0 .35-.01 1.02-.01.66-.01 1.08-.01 1.24 0 .17.02.42.03.74.02.33.03.66.03 1.02 0 .35 0 .64-.01.85-.01.21-.01.4-.01.56 0 .16.02.52.05 1.07.03.55.06 1.05.09 1.51.03.46.06.86.08 1.21.02.35.04.55.04.59 0 .04.01.12.04.23.02.11.05.27.06.48.02.21.03.33.04.38.01.04.06.3.15.76s.17.83.24 1.11c.07.28.19.66.36 1.16.05.09.23.45.54 1.06.57.77 1.04 1.3 1.43 1.58.39.28.61.42.68.44.94.29 1.67.49 2.19.59.17.04.27.06.29.07.03 0 .64.1 1.83.27 1.19.18 2.34.3 3.45.36 1.11.06 1.92.09 2.44.1.52.01.9.01 1.13.02.23 0 .47.01.72 0 .25 0 .46-.01.62-.03.16-.01.6-.03 1.31-.05.71-.02 1.45-.03 2.22-.04.77-.01 1.41-.03 1.93-.05.52-.02.92-.03 1.21-.02.29.01.73.02 1.34.03.61.02.97.03 1.09.06.12.02.31.03.58.04.27.01.59.02.95.03.37.02.75.04 1.16.07.41.03 1.04.06 1.9.09.86.03 1.58.06 2.18.08.6.02 1.08.04 1.45.05.37.02.62.03.76.04.14.01.37.02.68.01h1.07c.4 0 .9.02 1.5.04.6.03 1.52.06 2.76.1 1.24.04 2.18.07 2.83.07.65.01 1.17.02 1.58.04.41.02.87.03 1.39.02.52-.01.89-.01 1.11 0 .22.01.97.01 2.25.01s2.17 0 2.69-.01 1.03-.03 1.55-.05c.52-.03.94-.05 1.26-.07.32-.02.63-.05.92-.07.29-.03.57-.05.82-.08.26-.02.4-.04.42-.04.02 0 .5-.05 1.43-.13a62.5 62.5 0 013.47-.18c1.39-.04 2.41-.07 3.06-.08.65-.01 1-.02 1.04-.01.04 0 .2 0 .48-.02.28-.02.77-.04 1.45-.06.69-.02 1.65-.03 2.88-.02 1.24.01 2.4.02 3.49.02 1.09.01 2.08.02 2.96.03.88.02 1.5.03 1.86.05.36.02.65.04.87.06.22.02.51.05.88.07.36.02.57.03.62.03.05 0 .35.02.92.05.57.03 1.24.07 2.02.11.78.04 1.34.06 1.68.05h.83c.21 0 .35 0 .43.01.07.01.35.01.83.02h2.41c1.13-.01 2.12 0 2.99.01.87.01 1.49.02 1.88.04.39.02.78.03 1.19.03.41.01 1.35.01 2.83.02s2.45.02 2.9.03c.45.01 1.44.02 2.98.01 1.54 0 2.34-.01 2.4-.01.06 0 .52 0 1.36-.01.85-.01 2.1-.02 3.75-.03l4.55-.03c1.38-.01 2.9-.01 4.57-.02 1.66 0 3-.01 4.01-.02 1.01-.01 1.75-.01 2.21-.02a36.541 36.541 0 001.91-.05c.17-.01.57-.02 1.18-.03.61-.01 1.07-.02 1.37-.03.3-.01.63-.01.98-.01s.84-.01 1.47-.02c.64-.01 1.16-.03 1.57-.04.41-.01 1.49-.02 3.23-.02 1.75 0 3.22.01 4.4.02 1.19.01 2.18.01 2.99.01s1.39 0 1.76.01c.37.01.64.01.82.03.18.01.64.01 1.38.01.74-.01 1.28-.01 1.62-.03.35-.01 1.12-.02 2.32-.03 1.2-.01 2.27-.01 3.21-.01H164c.3 0 .65-.01 1.07-.02.41-.01.96-.02 1.66-.03.7-.01 1.12-.01 1.27-.01.15 0 .43 0 .84-.01s.7-.01.87-.01c.17 0 .29 0 .36-.01s.49-.02 1.26-.02c.77-.01 1.21-.02 1.29-.02.09-.01.64-.03 1.66-.06s1.75-.05 2.21-.05c.45 0 .89 0 1.31.02.42.01.7.02.85.03.15 0 .25 0 .3-.01.05-.01.6 0 1.64 0 1.04.01 1.9.02 2.59.02.69.01 1.46.03 2.32.07.86.04 1.31.06 1.35.07.04.01.31.02.81.03.5.01.94.03 1.32.05s.73.04 1.05.05c.32.01.65.02.99.04.34.02.69.03 1.05.03.36 0 .84 0 1.45.01.6.01 1.14.01 1.61 0 .47-.01.97-.01 1.5 0s.95 0 1.27.01h1.03c.37 0 .82.01 1.33.03.51.02.98.04 1.41.05.43.02 1.01.02 1.75.01s1.14-.01 1.21-.01c.06 0 .35-.02.84-.06.5-.04.99-.09 1.48-.15.49-.05.9-.1 1.24-.15.34-.05.65-.09.92-.13.27-.04.41-.06.42-.07.01 0 .22-.03.63-.07.41-.04.82-.1 1.24-.16.41-.06.79-.12 1.12-.17.33-.05.5-.08.5-.08s1-.29 3-.85l.02-.03c.16-.07.37-.17.61-.31.24-.14.43-.26.56-.36.13-.1.25-.21.37-.33.11-.12.27-.33.46-.65s.3-.51.33-.57a7.655 7.655 0 00.44-1.72c.07-.46.12-.92.13-1.38.01-.45.02-.75.01-.88-.01-.14-.01-.37-.02-.7-.01-.33-.01-.56-.01-.7 0-.14-.01-.31-.03-.53-.02-.22-.05-1.17-.09-2.84-.04-1.68-.03-3.07.03-4.17s.11-1.94.16-2.53c.05-.59.13-1.67.24-3.25.11-1.58.19-2.74.23-3.47.04-.74.07-1.25.08-1.54.02-.29.02-.66.02-1.12v-1.21c0-.35-.01-1.11-.02-2.28-.01-1.17-.04-2.36-.09-3.56-.05-1.2-.08-2.06-.11-2.59-.03-.53-.05-.97-.07-1.34-.02-.36-.03-.64-.03-.83 0-.19-.01-.77-.03-1.74-.02-.97-.03-1.84-.05-2.61-.01-.77-.02-1.28-.03-1.52-.01-.24-.01-.48 0-.73s.01-.49.01-.74-.01-.7-.03-1.37c-.02-.67-.04-1.5-.04-2.49-.01-.99-.01-1.63-.01-1.93 0-.3 0-.64-.01-1.03-.01-.38-.02-.67-.03-.87-.01-.2-.03-.47-.04-.82-.01-.35-.02-.56-.02-.63 0-.07-.01-.32-.04-.76s-.05-.75-.05-.93c0-.18-.01-.43-.03-.73-.01-.3-.04-.69-.06-1.18-.03-.49-.04-.86-.05-1.11 0-.25-.02-.57-.04-.96s-.04-.74-.04-1.07c-.01-.32-.03-.67-.06-1.04-.04-.37-.05-.59-.05-.66 0-.07-.01-.28-.03-.63-.02-.35-.06-.93-.12-1.72-.06-.79-.11-1.45-.14-1.98-.03-.53-.06-.91-.06-1.14-.01-.23-.03-.43-.05-.61-.03-.18-.04-.36-.04-.54 0-.18-.01-.35-.02-.53-.01-.18-.02-.42-.05-.73-.02-.31-.04-.74-.06-1.3-.02-.56-.03-1.26-.04-2.11-.01-.84 0-1.75.01-2.71.01-.97.03-1.76.06-2.39.02-.63.04-1.17.06-1.63.02-.45.02-.76.02-.91 0-.15 0-.67.01-1.55s.01-1.53 0-1.94c0-.41-.01-.71-.02-.89-.01-.18-.01-.74-.01-1.66 0-.93.01-2.12.03-3.59.01-1.47.03-3.35.06-5.67.02-2.31.04-4.22.06-5.71.01-1.5.03-2.76.04-3.78.01-1.02.04-2.14.07-3.35.04-1.21.07-2.15.09-2.83.02-.67.04-1.05.05-1.14.02-.09.03-.4.05-.92.02-.52.04-1.01.06-1.48.02-.46.04-.81.06-1.03.02-.22.04-.72.06-1.5l.03-1.22c0-.03.02-.32.05-.85.03-.53.05-1.19.06-1.97.01-.78.02-1.21.03-1.29.01-.08.02-.95.04-2.62-.02-.12-.04-.91-.06-2.38-.01-1.47-.02-2.22-.02-2.26 0-.04-.01-.17-.04-.38s-.04-.38-.04-.49c0-.12 0-.27-.02-.46a4.87 4.87 0 00-.06-.55c-.03-.17-.04-.29-.05-.36 0-.07-.05-.37-.14-.92-.09-.55-.14-.89-.16-1.02-.02-.14-.05-.28-.09-.43-.03-.15-.14-.49-.3-1-.03-.1-.11-.28-.25-.55-.13-.27-.26-.5-.38-.67-.19-.2-.3-.33-.31-.38-.02-.05-.15-.17-.39-.34-.24-.17-.49-.32-.75-.45-.25-.13-.84-.34-1.77-.63-.1-.05-.53-.15-1.31-.3l-.24-.06c-.43-.05-.66-.09-.68-.1l-.94-.08-.45-.06-1.06-.06-.48-.05c-.39-.03-.94-.05-1.66-.08-.71-.02-1.48-.04-2.3-.04h-1.32c-.06 0-.37 0-.95-.01-.57-.01-1.05-.03-1.43-.05-.38-.02-.59-.03-.66-.03-.06 0-.22-.01-.47-.03-.26-.02-.45-.03-.59-.03-.13 0-.37-.01-.71-.03-.34-.02-.67-.04-1.01-.04-.34-.01-.75-.01-1.24-.02s-.84-.01-1.03-.01c-.19.01-.36.01-.5 0s-.74.01-1.78.04c-1.05.04-1.82.07-2.32.1-.5.03-.91.05-1.23.08-.32.02-1.1.07-2.33.14-1.24.07-2.22.11-2.95.14-.73.03-1.27.05-1.64.05-.36 0-.56.01-.58.02-.03.01-.42.02-1.2.04-.77.02-1.37.02-1.79 0-.42-.02-.79-.04-1.12-.06a9.28 9.28 0 00-.84-.04c-.23 0-.41-.01-.55-.03-.14-.02-.24-.02-.29-.03-.05 0-1.16-.05-3.31-.15-2.16-.1-3.88-.16-5.18-.17-1.3-.02-2.24-.03-2.81-.04-.58-.01-1.06-.02-1.44-.04-.38-.01-.72-.03-1.01-.05-.29-.02-1.24-.05-2.85-.08s-3.13-.07-4.57-.12c-1.44-.05-2.71-.09-3.81-.13l-2.52-.09c-.58-.02-1.17-.05-1.77-.07-.6-.02-1.18-.05-1.75-.09-.57-.04-1.06-.06-1.46-.07s-.9-.03-1.49-.07c-.59-.04-1.3-.07-2.11-.09-.82-.02-1.3-.03-1.46-.04-.16-.01-.33-.01-.52-.01s-.29 0-.32.01c-.02.01-.48.01-1.38.01-.9 0-1.68.01-2.35.02-.67.02-1.18.04-1.54.07-.35.03-1.23.06-2.64.1-1.41.04-2.39.07-2.93.09-.55.01-1.07.02-1.57.02s-1.16 0-1.96-.01c-.81 0-1.81-.01-3-.01s-2.37 0-3.53.03c-1.16.02-2.06.04-2.71.04-.65.01-1.13.01-1.46.02-.32.01-.83.03-1.54.07-.7.04-1.32.07-1.85.09-.53.02-.83.04-.88.04-.05.01-.53.05-1.45.13-.91.08-1.93.16-3.06.25-1.12.09-2.08.15-2.88.2-.8.04-1.32.07-1.55.07-.24 0-.53.01-.88.02s-.76.01-1.23.02c-.47 0-.84.01-1.13.02-.28.01-.55.01-.79.01s-.52-.01-.83-.01c-.31 0-.61-.01-.9-.02-.29-.01-.54-.03-.75-.04-.21-.02-.48-.03-.81-.05-.33-.02-.63-.03-.89-.04-.26-.01-.59-.04-.98-.09s-.69-.08-.91-.1a6.28 6.28 0 01-.58-.08c-.17-.03-.45-.07-.85-.11-.4-.04-.78-.07-1.12-.1-.35-.03-.69-.05-1.04-.06-.35-.02-.68-.04-.99-.08-.31-.04-1.23-.07-2.76-.11-1.53-.04-2.72-.05-3.59-.03-.86.02-1.65.02-2.36.01s-1.52-.02-2.42-.04c-.9-.02-1.73-.04-2.49-.06-.76-.02-1.23-.02-1.39-.02-.17 0-.44.01-.82.02-.38.01-.9.02-1.57.01h-1.04c-.03 0-.97-.03-2.83-.11s-3.68-.13-5.46-.17c-1.78-.04-3.12-.04-4 0-.89.04-1.61.06-2.18.08-.57.01-.95.03-1.15.04-.2.01-.48.03-.84.05s-.56.03-.6.05l-.39.03c-.36.01-.56.03-.58.04-.03.01-.43.03-1.21.06s-1.43.05-1.96.07c-.53.02-1.12.03-1.78.03-.65 0-1.46 0-2.41.01-.95 0-1.7.01-2.25.01-.55.01-1 .02-1.36.03-.36.01-.67.02-.92.02-.26 0-.55.01-.86.01-.32.01-.61.01-.87.01s-.44 0-.52.01c-.08 0-.39.01-.92.02s-.9.01-1.11 0c-.21-.01-.41-.01-.61 0-.19.01-.37.02-.52.02-.15 0-.4 0-.73.01-.33.01-.65.01-.95.01-.3 0-.58 0-.82.01h-.53c-.11-.01-.38-.01-.8-.02-.42-.01-.78-.02-1.07-.04-.29-.02-.51-.03-.65-.03s-.45-.02-.93-.04c-.48-.03-1.26-.05-2.35-.06-1.09-.01-2-.02-2.73-.02s-1.35.01-1.86.02-.92.02-1.22.04c-.31.01-.8.02-1.49.03-.69.01-1.17.02-1.44.02s-.55.02-.83.06c-.14-.01-.49 0-1.03.03"/></g><path d="M36.84 46.79h1.33V21.87h-1.11c-.49-.03-.83-.24-1-.63-.17-.45-.26-1.28-.26-2.49 0-1.82.41-2.73 1.22-2.73h6.56c1.09 0 1.63.5 1.63 1.51 0 2.89-.43 4.34-1.3 4.34h-.93l.37 9.75.04 15.16h1.11c.86.03 1.3.55 1.3 1.56-.05 2.89-.66 4.34-1.82 4.34h-7c-.45-.03-.75-.24-.93-.63-.17-.46-.26-1.3-.26-2.54.02-1.81.36-2.72 1.05-2.72zM57.88 27.73c1.83 0 3.17.75 4.02 2.24.85 1.5 1.28 4.13 1.28 7.9v14.82c0 .2-.01.32-.04.39-.12.26-.6.39-1.43.39s-1.67-.08-2.54-.24c-.86-.16-1.3-.34-1.3-.54l-.04-14.82c0-3.64-.2-5.46-.59-5.46-.89 0-2.07.58-3.56 1.76V52.7c0 .2-.01.32-.04.39-.12.26-.6.39-1.43.39s-1.68-.08-2.56-.24c-.88-.16-1.31-.34-1.31-.54V28.51c0-.52.49-.78 1.48-.78 1.56 0 2.44.26 2.67.78 0 .07.01.1.04.1l.7 1.85c2.1-1.82 3.64-2.73 4.65-2.73zM71.47 52.69c0 .2-.01.32-.04.39-.12.26-.59.39-1.41.39s-1.62-.08-2.41-.24c-.79-.16-1.19-.34-1.19-.54V16.02c0-.52.43-.78 1.3-.78.86 0 1.58.07 2.15.22.57.15.86.33.89.56l.7 15.65v21.02zm11.08.24c0 .36-.46.54-1.37.54-.91 0-1.8-.08-2.67-.24-.86-.16-1.33-.34-1.41-.54l-.04-.05-4.82-13.21v-1.56l3.93-9.31c.02 0 .04-.02.04-.05.22-.52.72-.78 1.48-.78 1.75 0 2.88.2 3.37.59.1.06.14.13.11.19l-4.19 9.36 5.52 14.82c.04.1.05.18.05.24zM84.14 40.5c0-3.54.23-6.22.7-8.04.47-1.82 1.21-3.06 2.22-3.73 1.01-.67 2.51-1 4.48-1s3.47.33 4.48 1c1.01.67 1.75 1.91 2.22 3.73.47 1.82.7 4.5.7 8.04 0 4.88-.53 8.26-1.59 10.14-1.06 1.89-3 2.83-5.82 2.83-2.81 0-4.75-.94-5.82-2.83-1.04-1.88-1.57-5.26-1.57-10.14zm5.04 0c0 5.46.39 8.19 1.19 8.19 1.09 0 1.89-.23 2.41-.68.27-.26.46-.73.56-1.41.2-1.37.3-3.4.3-6.1 0-5.4-.4-8.09-1.19-8.09-1.48 0-2.4.45-2.74 1.34-.36.89-.53 3.14-.53 6.75zM109.74 55.03l-3.15.05c-1.53 0-2.45-.16-2.76-.49-.31-.32-.46-.71-.46-1.17 0-.46.06-.96.19-1.51l1.3-5.17c-1.19-.68-2.04-1.8-2.56-3.36-.52-1.56-.78-3.51-.78-5.85s.11-4.11.33-5.31c.22-1.2.65-2.15 1.28-2.83.63-.68 1.38-1.13 2.24-1.34.86-.21 2.05-.32 3.56-.32H117c.39 0 .59.65.59 1.95 0 .65-.2 1.04-.59 1.17l-.11.05-1.59.39c.69 1.5 1.04 3.43 1.04 5.8 0 3.74-.55 6.43-1.65 8.07-1.1 1.64-3.02 2.46-5.76 2.46h-.82l-.33 2.29c2.79.07 4.61.19 5.45.39.84.19 1.42.42 1.74.68.32.26.62.65.91 1.17.28.52.46 1.12.52 1.8.06.68.09 1.58.09 2.68 0 2.7-.57 4.66-1.7 5.9-1.14 1.24-3.16 1.85-6.08 1.85-1.36 0-3.06-.26-5.11-.78-.37-.1-.56-.93-.56-2.49s.17-2.34.52-2.34h.08c2.22.33 3.99.49 5.32.49 1.32 0 2.14-.13 2.46-.39.32-.26.48-.9.48-1.93 0-1.02-.14-1.6-.43-1.73-.3-.11-.87-.18-1.73-.18zm-2.8-21.97c-.33.44-.5 1.66-.5 3.66s.07 3.45.2 4.34c.14.89.28 1.41.43 1.56.15.15.51.22 1.09.22s1.05-.02 1.41-.07c.36-.05.69-.28.98-.71.3-.42.46-.98.5-1.66.04-.68.06-1.76.06-3.22 0-1.46-.07-2.56-.2-3.29-.14-.73-.28-1.16-.43-1.29-.15-.13-.36-.19-.63-.19-1.61 0-2.58.22-2.91.65zM129.52 27.73c1.83 0 3.17.75 4.02 2.24.85 1.5 1.28 4.13 1.28 7.9v14.82c0 .2-.01.32-.04.39-.12.26-.6.39-1.43.39s-1.67-.08-2.54-.24c-.86-.16-1.3-.34-1.3-.54l-.04-14.82c0-3.64-.2-5.46-.59-5.46-.89 0-2.07.58-3.56 1.76V52.7c0 .2-.01.32-.04.39-.12.26-.6.39-1.43.39s-1.68-.08-2.56-.24c-.88-.16-1.31-.34-1.31-.54V28.51c0-.52.49-.78 1.48-.78 1.56 0 2.44.26 2.67.78 0 .07.01.1.04.1l.7 1.85c2.09-1.82 3.63-2.73 4.65-2.73zM140.44 22.26c-1.78 0-2.67-1.17-2.67-3.51s.89-3.51 2.67-3.51c1.78 0 2.67 1.17 2.67 3.51s-.89 3.51-2.67 3.51zm-2.29 30.43V28.51c0-.52.44-.78 1.33-.78.89 0 1.73.08 2.52.24.79.16 1.19.34 1.19.54V52.7c0 .2-.01.32-.04.39-.12.26-.59.39-1.41.39-.81 0-1.62-.08-2.41-.24-.79-.18-1.18-.35-1.18-.55zM148.26 32.41h-2.96c-.3 0-.46-.09-.5-.27-.04-.18-.06-.38-.06-.61 0-1.4.19-2.15.56-2.24l2.96-.78 2.07-5.51c.3-.49.86-.73 1.7-.73.22 0 .43.58.63 1.76.2 1.17.41 2.67.63 4.49h3.56c.39 0 .59.65.59 1.95 0 1.3-.2 1.95-.59 1.95h-3.59v15.5l.59 5.51v.05c.02.2.02.32 0 .39-.12.26-.74.39-1.85.39s-1.78-.29-2-.88l-1.74-4.63V32.41zM158.67 40.5c0-3.54.23-6.22.7-8.04.47-1.82 1.21-3.06 2.22-3.73 1.01-.67 2.51-1 4.48-1s3.47.33 4.48 1c1.01.67 1.75 1.91 2.22 3.73.47 1.82.7 4.5.7 8.04 0 4.88-.53 8.26-1.59 10.14-1.06 1.89-3 2.83-5.82 2.83-2.81 0-4.75-.94-5.82-2.83-1.04-1.88-1.57-5.26-1.57-10.14zm5.03 0c0 5.46.39 8.19 1.19 8.19 1.09 0 1.89-.23 2.41-.68.27-.26.46-.73.56-1.41.2-1.37.3-3.4.3-6.1 0-5.4-.4-8.09-1.19-8.09-1.48 0-2.4.45-2.74 1.34-.35.89-.53 3.14-.53 6.75zM186.82 34.26l-.22-.1-1.41-.93c-1.06-.55-1.98-.83-2.74-.83-1.11.07-1.67.76-1.67 2.1 0 .52.22.94.65 1.27.43.32.78.58 1.06.76.27.18.67.43 1.19.76 1.85 1.04 3.23 2.19 4.13 3.46.9 1.27 1.35 2.52 1.35 3.75 0 2.7-.54 4.87-1.63 6.51-1.09 1.64-2.56 2.46-4.43 2.46-1.86 0-3.33-.33-4.39-.98-1.06-.65-1.95-1.58-2.67-2.78-.1-.06-.15-.16-.15-.29s.02-.29.06-.49c.04-.2.33-.72.87-1.59.54-.86.98-1.29 1.3-1.29.1 0 .2.07.3.19 1.31 1.37 2.58 2.05 3.82 2.05.69 0 1.21-.26 1.56-.78.35-.52.52-1.09.52-1.71s-.2-1.12-.59-1.51c-.4-.39-.88-.77-1.46-1.15-.58-.37-.9-.58-.94-.61a1.46 1.46 0 01-.2-.15c-.09-.07-.17-.11-.24-.15-1.26-.81-2.33-1.83-3.2-3.05s-1.31-2.58-1.31-4.07c0-2.6.51-4.49 1.54-5.66 1.02-1.17 2.65-1.76 4.87-1.76.84 0 1.64.13 2.41.39 1.04.36 1.78.78 2.22 1.27h.04c.2.16.32.36.35.59.04.23.02.71-.06 1.46-.29 1.92-.59 2.86-.93 2.86z"/><g><path class="st3" d="M57.82 132.45c0-.23.18-.54.54-.94.36-.4.6-.61.71-.65.12-.03.23-.05.33-.05.11 0 .28.08.53.23 1.14.98 2.14 1.47 3 1.47.86 0 1.42-.22 1.68-.66s.39-1.01.39-1.72-.23-1.28-.69-1.72c-.46-.44-1.22-.97-2.27-1.6-1.05-.62-1.97-1.44-2.76-2.43s-1.18-2.03-1.18-3.09c0-1.89.45-3.27 1.35-4.14.9-.87 2.22-1.3 3.96-1.3 1.06 0 2.1.28 3.12.84.54.24.79.48.76.73-.02.1-.03.25-.05.46-.29.91-.52 1.44-.67 1.57-.04.04-.15.05-.31.05s-.59-.14-1.28-.42c-.69-.28-1.28-.42-1.76-.42-.49 0-.89.18-1.21.56-.32.37-.49.9-.49 1.57s.28 1.29.83 1.84 1.41 1.12 2.56 1.71c1.21.69 2.13 1.41 2.73 2.15.61.74.91 1.74.91 2.99 0 4.15-1.6 6.23-4.8 6.23-2.39 0-4.21-.75-5.47-2.25-.3-.45-.46-.78-.46-1.01zM71.38 124.77h-1.85c-.18 0-.29-.05-.31-.14-.02-.09-.04-.2-.04-.32 0-.73.12-1.11.35-1.16l1.85-.41 1.29-2.86c.19-.25.54-.38 1.06-.38.14 0 .27.3.39.91.12.61.25 1.38.39 2.33h2.22c.25 0 .37.34.37 1.01s-.12 1.01-.37 1.01H74.5v8.05l.37 2.86v.03c.01.1.01.17 0 .2-.08.14-.46.2-1.16.2-.69 0-1.11-.15-1.25-.46l-1.08-2.41v-8.46zM81.28 135.71c-1.14 0-1.97-.39-2.5-1.16-.53-.78-.8-2.14-.8-4.1v-7.7c0-.27.28-.4.84-.4.56 0 1.11.04 1.65.13.54.09.81.18.81.28l.02 7.7c0 1.89.12 2.84.37 2.84.55 0 1.29-.3 2.21-.91v-9.63c0-.27.28-.4.84-.4.56 0 1.11.04 1.66.13.55.09.82.18.82.28v12.56c0 .1-.01.17-.04.2-.06.13-.46.2-1.19.2s-1.18-.13-1.35-.4l-.49-.78c-1.06.76-2.02 1.16-2.85 1.16zM91.94 135.71c-1.14 0-1.97-.51-2.5-1.53s-.8-2.8-.8-5.33c0-2.53.34-4.25 1-5.16.67-.9 1.93-1.35 3.8-1.35h1.11v-6.08c0-.27.27-.4.81-.4s.98.04 1.34.11.54.17.55.29l.39 8.08v10.97c0 .1-.01.17-.02.2-.08.13-.36.2-.85.2s-.91-.04-1.26-.11-.52-.17-.52-.29l-.44-.78c-.45.32-.76.55-.95.68-.5.33-1.06.5-1.66.5zm.34-10.17c-.21.51-.31 1.38-.31 2.61 0 1.22 0 2.03.01 2.42.01.39.02.84.04 1.34.03.91.14 1.37.32 1.37.56 0 1.29-.3 2.22-.91v-7.6h-1.11c-.58 0-.96.25-1.17.77zM101.17 119.5c-1.11 0-1.66-.61-1.66-1.82s.55-1.82 1.66-1.82c1.11 0 1.66.61 1.66 1.82s-.55 1.82-1.66 1.82zm-1.43 15.8v-12.56c0-.27.28-.4.83-.4.56 0 1.08.04 1.57.13s.74.18.74.28v12.56c0 .1-.01.17-.02.2-.08.13-.37.2-.88.2s-1.01-.04-1.5-.13-.74-.18-.74-.28zM104.75 128.97c0-1.84.14-3.23.44-4.18.29-.95.75-1.59 1.39-1.94.63-.35 1.56-.52 2.79-.52s2.16.17 2.79.52c.63.35 1.09.99 1.39 1.94.29.95.44 2.34.44 4.18 0 2.53-.33 4.29-.99 5.27-.66.98-1.87 1.47-3.62 1.47s-2.96-.49-3.62-1.47c-.68-.98-1.01-2.74-1.01-5.27zm3.14 0c0 2.84.25 4.26.74 4.26.68 0 1.18-.12 1.5-.35.17-.14.28-.38.35-.74.12-.71.18-1.77.18-3.17 0-2.8-.25-4.2-.74-4.2-.92 0-1.49.23-1.71.69-.22.47-.32 1.64-.32 3.51zM122.01 134.75v-18.49c1.55-.27 2.92-.4 4.11-.4 2.09 0 3.55.48 4.37 1.44.82.96 1.23 2.47 1.23 4.53 0 2.43-.56 4.09-1.66 4.99-.72.57-1.43.93-2.12 1.06-.89.15-1.91.23-3.05.23v6.61c0 .32-.02.53-.05.63-.04.24-.34.35-.88.35-1.3.01-1.95-.31-1.95-.95zm2.97-10.17c.05.03.1.04.14.05.04.01.21.01.53.01s.6-.01.87-.03c.26-.02.54-.07.84-.16.3-.09.51-.24.63-.44.28-.51.42-1.21.42-2.1 0-.9-.12-1.62-.37-2.19-.25-.57-.51-.85-.78-.85-1.11 0-1.78.03-2.01.08-.23.05-.35.22-.35.51v4.81c-.01.18.02.28.08.31zM137.89 134.52c-.8.79-1.51 1.19-2.14 1.19-.62 0-1.13-.05-1.51-.14-.39-.09-.73-.3-1.04-.61-.31-.31-.52-.76-.65-1.35s-.18-1.38-.18-2.35c0-1.37.61-2.31 1.82-2.81l3.3-.94c-.02-1.1-.12-1.81-.3-2.13s-.58-.48-1.2-.48-1.15.11-1.59.33l-.81.35h-.02c-.14.09-.26.02-.37-.2-.28-.64-.42-1.14-.42-1.51 0-.36.03-.56.08-.61.05-.04.08-.07.08-.09.77-.56 1.76-.84 2.99-.84 1.22 0 2.17.18 2.83.53.66.36 1.14 1 1.44 1.94.3.94.45 2.33.45 4.17l-.04 6.33c0 .1-.02.17-.05.2-.06.13-.35.2-.88.2-.95 0-1.43-.13-1.43-.4l-.36-.78zm-2.96-3.22c0 1.21.32 1.86.97 1.92.45 0 .77-.09.97-.25.43-.32.65-1.52.65-3.6-.8.12-1.43.36-1.89.72-.47.37-.7.77-.7 1.21zM149.05 125.73l-.14-.05-.88-.48c-.66-.29-1.23-.43-1.71-.43-.69.03-1.04.4-1.04 1.09 0 .27.13.49.4.66.27.17.49.3.66.39.17.09.42.22.74.39 1.15.54 2.01 1.14 2.57 1.8.56.66.84 1.31.84 1.95 0 1.4-.34 2.53-1.02 3.38-.68.85-1.6 1.28-2.76 1.28-1.16 0-2.07-.17-2.74-.51-.66-.34-1.22-.82-1.66-1.44a.155.155 0 01-.09-.15c0-.07.01-.15.03-.25.02-.1.21-.38.54-.82s.61-.67.81-.67c.06 0 .12.03.18.1.81.71 1.61 1.06 2.38 1.06.43 0 .75-.14.97-.41.21-.27.32-.56.32-.89a.98.98 0 00-.37-.79c-.25-.2-.55-.4-.91-.6-.36-.19-.56-.3-.59-.32-.03-.02-.07-.04-.13-.08-.05-.04-.11-.06-.15-.08-.79-.42-1.45-.95-2-1.58-.55-.63-.82-1.34-.82-2.12 0-1.35.32-2.33.96-2.94.64-.61 1.65-.91 3.03-.91.52 0 1.02.07 1.5.2.65.19 1.11.4 1.39.66h.02c.12.08.2.18.22.3.02.12.01.37-.04.76-.11 1.01-.29 1.5-.51 1.5zM158.63 125.73l-.14-.05-.88-.48c-.66-.29-1.23-.43-1.71-.43-.69.03-1.04.4-1.04 1.09 0 .27.14.49.4.66.27.17.49.3.66.39.17.09.42.22.74.39 1.16.54 2.01 1.14 2.57 1.8.56.66.84 1.31.84 1.95 0 1.4-.34 2.53-1.02 3.38-.68.85-1.59 1.28-2.76 1.28-1.16 0-2.07-.17-2.74-.51-.66-.34-1.22-.82-1.66-1.44a.155.155 0 01-.09-.15c0-.07.01-.15.03-.25.02-.1.21-.38.54-.82s.61-.67.81-.67c.06 0 .12.03.18.1.81.71 1.61 1.06 2.38 1.06.43 0 .75-.14.97-.41.21-.27.32-.56.32-.89a.98.98 0 00-.37-.79c-.25-.2-.55-.4-.91-.6-.36-.19-.56-.3-.59-.32-.03-.02-.07-.04-.13-.08-.05-.04-.1-.06-.15-.08-.78-.42-1.45-.95-2-1.58-.55-.63-.82-1.34-.82-2.12 0-1.35.32-2.33.96-2.94.64-.61 1.65-.91 3.03-.91.52 0 1.02.07 1.5.2.65.19 1.11.4 1.38.66h.07c.12.08.2.18.22.3.02.12.01.37-.04.76-.15 1.01-.33 1.5-.55 1.5z"/></g></svg>