<svg id="Layer_1" data-name="Layer 1" xmlns="http://www.w3.org/2000/svg" viewBox="0 0 821.72 519"><defs><style>.cls-1{fill:#0ff}.cls-2{fill:#00f}.cls-4{fill:#00a99d}</style></defs><path d="m471.69 59.44 25.47-1.88a25.48 25.48 0 0 0-8.16-19 7 7 0 0 0-2.82-1.85c-3.95-1.15-7 3-8.22 6.34q-3.46 9.2-6.96 18.38M166.05 319.13c83.74-19.14 169.49-28.71 255.25-32a1862.49 1862.49 0 0 1 262.77 8.75q71.34 7.32 141.93 20.28c6.29 1.16 9-8.48 2.66-9.65a1868.47 1868.47 0 0 0-257.43-28.93c-88.93-3.88-178.3-1.75-266.79 8.27a1274.68 1274.68 0 0 0-141.07 23.64c-6.27 1.43-3.62 11.07 2.66 9.64Z" transform="translate(-10.57 -34.32)"/><path d="M260.59 553.24c39.82-6.78 79-17.78 117.54-29.83 45.71-14.3 91-30.78 134.37-51.09 18.89-8.84 37.51-18.46 55.06-29.77 13.34-8.6 26.72-18.26 37-30.47 7.71-9.15 14.1-20.34 13-32.71-1.82-19.71-16-36.8-29.4-50.27a259.89 259.89 0 0 0-52-39.93 137.7 137.7 0 0 0-21.79-10.82c-8.39-3.12-16.31-1.37-25.14-.94-4.37.22-8.74.37-13.11.38-4.79 0-7 7-2.52 9.32a108.46 108.46 0 0 1 28.76 21.72c8.11 8.53 15.72 19.27 17.25 31.25 4.35 33.94-42 47.86-66.6 55.86-37.66 12.21-76.51 20.82-115.38 28.13-48.24 9.08-96.91 15.82-145.74 20.76a1763.33 1763.33 0 0 1-176.49 9.29c-6.43 0-6.44 10 0 10a1775.36 1775.36 0 0 0 317.21-29c41.09-7.51 82.18-16.4 122-29.21 28.77-9.27 73.74-23.58 75.23-60.25.6-15-7.4-28.89-16.81-39.93a115.21 115.21 0 0 0-34.37-27.28l-2.53 9.32c4.11 0 8.21-.15 12.31-.34 5.82-.27 12-1.55 17.8-1.13-1.17-.09 1.47.36 2 .52 1.26.36 2.5.79 3.72 1.25a88.82 88.82 0 0 1 8.77 4 244 244 0 0 1 49.14 33.66c14.43 12.57 30.48 28.11 36.19 47 3.51 11.61.42 20.7-6.89 30.18-8.81 11.44-20.82 20.45-32.73 28.41-16.26 10.88-33.6 20.13-51.2 28.64C473.81 480 430.4 496.1 386.6 510.23c-38.51 12.42-77.67 23.59-117.41 31.31q-5.62 1.1-11.26 2.05c-6.33 1.08-3.64 10.72 2.66 9.65Z" transform="translate(-10.57 -34.32)"/><path class="cls-1" d="M464.24 92.31c-.55 3.46-1.06 7-.5 10.47s2.45 6.82 5.26 7.75a9.85 9.85 0 0 0 4.39.12c3.08-.39 6.54-1 8.35-4.06 1.63-2.72 1.33-6.48.5-9.69-.65-2.53-1.74-5.14-3.7-6.32a7.17 7.17 0 0 0-4.24-.76 24.92 24.92 0 0 0-9.47 2.51" transform="translate(-10.57 -34.32)"/><path d="M467 97.48a5.76 5.76 0 0 1 4.72-6.33 10.57 10.57 0 0 1 5.51 1 12.36 12.36 0 0 1 1.82 1 3.35 3.35 0 0 1 1 1.38 16.11 16.11 0 0 1 .51 5.44 14.24 14.24 0 0 1-.68 5.12c-.32.9.13-.21-.13.28l-.3.52c-.25.42.24-.25-.07.12a4.35 4.35 0 0 1-.48.48 4.73 4.73 0 0 1-2 .85 10.5 10.5 0 0 1-4.94.17l-.67-.2c-.07 0-.69-.28-.42-.15a6.31 6.31 0 0 1-.63-.34s-.89-.63-.45-.28a7.23 7.23 0 0 1-1-1c.08.1.25.39-.08-.12-.14-.21-.28-.43-.41-.65s-.2-.36-.29-.55-.1-.18 0 0l-.12-.29a13.14 13.14 0 0 1-.42-1.52 6.14 6.14 0 0 1 .13-2.15 3 3 0 0 0-5.79-1.6 12.25 12.25 0 0 0 6.09 13.7 14.68 14.68 0 0 0 8.79 1.14c2.72-.4 5.47-1.37 7.24-3.58s2.39-5.06 2.59-7.89a29.14 29.14 0 0 0-.38-8.08c-1.3-5.88-7.9-8.92-13.5-8.86A11.81 11.81 0 0 0 461 97.48a3.07 3.07 0 0 0 3 3 3 3 0 0 0 3-3Z" transform="translate(-10.57 -34.32)"/><path class="cls-2" d="M464.28 123.73c-.54 3.46-1.06 7-.49 10.47s2.45 6.82 5.26 7.75a9.85 9.85 0 0 0 4.39.12c3.08-.39 6.53-1 8.35-4.06 1.63-2.72 1.33-6.48.5-9.69-.66-2.53-1.74-5.14-3.71-6.32a7.14 7.14 0 0 0-4.23-.76 25 25 0 0 0-9.48 2.51" transform="translate(-10.57 -34.32)"/><path d="M467 128.9a5.77 5.77 0 0 1 4.73-6.33 10.58 10.58 0 0 1 5.51 1 12.28 12.28 0 0 1 1.81 1 3.35 3.35 0 0 1 1 1.38 15.62 15.62 0 0 1 .51 5.44 13.81 13.81 0 0 1-.68 5.12c-.31.9.13-.21-.13.28-.09.17-.2.35-.3.52-.25.42.25-.25-.07.12a3.55 3.55 0 0 1-.47.48 4.84 4.84 0 0 1-2 .85 10.5 10.5 0 0 1-4.91.24c-.22-.06-.45-.12-.67-.2-.06 0-.68-.28-.42-.15-.21-.1-.42-.22-.62-.34 0 0-.9-.63-.46-.28a7.78 7.78 0 0 1-1-1c.09.1.26.39-.08-.12-.14-.21-.28-.43-.41-.65l-.29-.55c-.09-.18-.09-.18 0 0l-.11-.29a11.4 11.4 0 0 1-.42-1.52 6.37 6.37 0 0 1 .12-2.15 3 3 0 1 0-5.78-1.6 12.23 12.23 0 0 0 6.08 13.7 14.72 14.72 0 0 0 8.8 1.14c2.72-.4 5.47-1.37 7.24-3.58a13.7 13.7 0 0 0 2.58-7.89 28.77 28.77 0 0 0-.38-8.08c-1.3-5.88-7.89-8.92-13.49-8.86A11.82 11.82 0 0 0 461 128.9a3.07 3.07 0 0 0 3 3 3 3 0 0 0 3-3Z" transform="translate(-10.57 -34.32)"/><path d="M464.33 155.15c-.55 3.46-1.06 7-.5 10.47s2.45 6.82 5.26 7.75a9.85 9.85 0 0 0 4.39.12c3.08-.39 6.54-1 8.35-4.06 1.63-2.72 1.34-6.48.5-9.69-.65-2.53-1.74-5.14-3.7-6.32a7.16 7.16 0 0 0-4.24-.76 24.92 24.92 0 0 0-9.47 2.51" transform="translate(-10.57 -34.32)" style="fill:#39b54a"/><path d="M467.06 160.32a5.76 5.76 0 0 1 4.73-6.33 10.6 10.6 0 0 1 5.51 1 12.81 12.81 0 0 1 1.81 1 3.35 3.35 0 0 1 1 1.38 16.11 16.11 0 0 1 .51 5.44 14.24 14.24 0 0 1-.68 5.12c-.32.9.13-.21-.13.28l-.3.52c-.25.42.24-.25-.07.12a5.55 5.55 0 0 1-.48.49 4.86 4.86 0 0 1-2 .84 10.5 10.5 0 0 1-4.94.17c-.23-.06-.45-.12-.67-.2-.07 0-.69-.28-.42-.15-.21-.1-.43-.22-.63-.34 0 0-.89-.63-.45-.28a7.23 7.23 0 0 1-1-1c.08.1.25.39-.08-.12-.14-.21-.28-.43-.41-.65s-.2-.36-.29-.55-.1-.18 0 0l-.11-.29a11.44 11.44 0 0 1-.43-1.52 6.14 6.14 0 0 1 .13-2.15 3 3 0 0 0-5.79-1.59 12.24 12.24 0 0 0 6.09 13.69 14.68 14.68 0 0 0 8.79 1.14c2.72-.4 5.47-1.37 7.24-3.58s2.39-5.06 2.59-7.89a29.14 29.14 0 0 0-.38-8.08c-1.3-5.88-7.9-8.91-13.5-8.86a11.81 11.81 0 0 0-11.61 12.38 3.07 3.07 0 0 0 3 3 3 3 0 0 0 3-3Z" transform="translate(-10.57 -34.32)"/><path class="cls-4" d="M464.37 186.57c-.54 3.46-1.06 7-.49 10.47s2.45 6.82 5.26 7.75a9.85 9.85 0 0 0 4.39.12c3.08-.39 6.53-1 8.35-4.06 1.63-2.72 1.33-6.48.5-9.69-.66-2.53-1.74-5.14-3.71-6.32a7.14 7.14 0 0 0-4.23-.76 25 25 0 0 0-9.48 2.51" transform="translate(-10.57 -34.32)"/><path d="M467.1 191.74a5.77 5.77 0 0 1 4.73-6.33 10.58 10.58 0 0 1 5.51 1 12.28 12.28 0 0 1 1.81 1 3.35 3.35 0 0 1 1 1.38 15.62 15.62 0 0 1 .51 5.44 13.81 13.81 0 0 1-.68 5.12c-.31.9.13-.21-.13.28-.09.17-.2.35-.3.52-.25.42.25-.25-.07.12a4.34 4.34 0 0 1-.47.49 4.91 4.91 0 0 1-2 .84 10.5 10.5 0 0 1-4.94.17c-.22-.06-.45-.12-.67-.2-.06 0-.68-.28-.42-.15-.21-.1-.42-.22-.62-.34 0 0-.9-.63-.46-.28a7.78 7.78 0 0 1-1-1c.09.1.26.39-.08-.12-.14-.21-.28-.43-.41-.65l-.29-.55c-.08-.18-.09-.18 0 0l-.11-.29a11.4 11.4 0 0 1-.42-1.52 6.37 6.37 0 0 1 .12-2.15 3 3 0 1 0-5.78-1.59 12.22 12.22 0 0 0 6.07 13.7 14.68 14.68 0 0 0 8.79 1.14c2.72-.4 5.47-1.37 7.24-3.58a13.7 13.7 0 0 0 2.58-7.89 28.41 28.41 0 0 0-.38-8.08c-1.3-5.88-7.89-8.91-13.49-8.86a11.83 11.83 0 0 0-11.62 12.38 3.07 3.07 0 0 0 3 3 3 3 0 0 0 3-3Z" transform="translate(-10.57 -34.32)"/><path d="M464.42 218c-.54 3.46-1.06 7-.5 10.47s2.46 6.82 5.26 7.75a9.85 9.85 0 0 0 4.39.12c3.08-.39 6.54-1 8.35-4.06 1.63-2.72 1.34-6.48.5-9.69-.65-2.53-1.74-5.14-3.7-6.32a7.14 7.14 0 0 0-4.23-.76A24.92 24.92 0 0 0 465 218" transform="translate(-10.57 -34.32)" style="fill:#0f0"/><path d="M467.15 223.16a5.76 5.76 0 0 1 4.73-6.33 10.6 10.6 0 0 1 5.51 1 12.81 12.81 0 0 1 1.81 1 3.35 3.35 0 0 1 1 1.38 16.11 16.11 0 0 1 .51 5.44 14.24 14.24 0 0 1-.68 5.12c-.32.9.13-.2-.13.28l-.3.52c-.25.42.24-.25-.07.12a5.55 5.55 0 0 1-.48.49 4.86 4.86 0 0 1-2 .84 10.5 10.5 0 0 1-4.94.17c-.23-.06-.45-.12-.67-.2s-.69-.28-.42-.15c-.21-.1-.43-.22-.63-.34 0 0-.89-.63-.45-.28a7.23 7.23 0 0 1-1-1c.09.1.25.39-.08-.12-.14-.21-.28-.43-.41-.65s-.2-.36-.29-.55-.1-.18 0 0l-.11-.29a10.07 10.07 0 0 1-.42-1.52 5.89 5.89 0 0 1 .12-2.15 3 3 0 0 0-5.79-1.59 12.24 12.24 0 0 0 6.04 13.7 14.68 14.68 0 0 0 8.79 1.14c2.72-.4 5.47-1.37 7.24-3.58s2.39-5.06 2.59-7.89a29.16 29.16 0 0 0-.38-8.08c-1.3-5.88-7.9-8.91-13.5-8.86a11.82 11.82 0 0 0-11.61 12.38 3.07 3.07 0 0 0 3 3 3 3 0 0 0 3-3Z" transform="translate(-10.57 -34.32)"/><path class="cls-4" d="M464.47 249.41c-.55 3.46-1.06 7-.5 10.47s2.45 6.82 5.26 7.75a9.85 9.85 0 0 0 4.39.12c3.08-.39 6.54-1 8.35-4.06 1.63-2.72 1.33-6.48.5-9.69-.66-2.53-1.74-5.13-3.71-6.32a7.14 7.14 0 0 0-4.23-.76 24.92 24.92 0 0 0-9.47 2.51" transform="translate(-10.57 -34.32)"/><path d="M467.2 254.58a5.75 5.75 0 0 1 4.72-6.33 10.58 10.58 0 0 1 5.51 1 12.28 12.28 0 0 1 1.81 1 3.26 3.26 0 0 1 1 1.38 15.62 15.62 0 0 1 .51 5.44 13.81 13.81 0 0 1-.68 5.12c-.31.9.13-.2-.13.28a5.39 5.39 0 0 1-.3.52c-.25.43.25-.25-.07.12a4.34 4.34 0 0 1-.47.49 4.92 4.92 0 0 1-2 .84 10.55 10.55 0 0 1-4.95.17c-.22-.06-.44-.12-.66-.2-.07 0-.69-.28-.43-.15-.21-.1-.42-.22-.62-.34 0 0-.9-.63-.46-.28a7.71 7.71 0 0 1-1-1c.08.1.25.39-.09-.12-.14-.21-.28-.43-.4-.65s-.2-.36-.3-.55-.09-.18 0 0l-.11-.29a11.4 11.4 0 0 1-.42-1.52 6.37 6.37 0 0 1 .12-2.15 3 3 0 1 0-5.78-1.59 12.23 12.23 0 0 0 6.09 13.69 14.68 14.68 0 0 0 8.79 1.14c2.72-.4 5.47-1.37 7.24-3.58a13.7 13.7 0 0 0 2.58-7.89 28.41 28.41 0 0 0-.38-8.08c-1.29-5.88-7.89-8.91-13.49-8.86a11.81 11.81 0 0 0-11.61 12.38 3 3 0 0 0 6 0Z" transform="translate(-10.57 -34.32)"/><path d="M495.44 92.27c-.55 3.45-1.06 7-.5 10.47s2.45 6.82 5.26 7.75a10 10 0 0 0 4.39.11c3.08-.38 6.54-1 8.35-4 1.63-2.72 1.34-6.49.5-9.69-.65-2.54-1.74-5.14-3.7-6.33a7.25 7.25 0 0 0-4.24-.76 24.92 24.92 0 0 0-9.5 2.46" transform="translate(-10.57 -34.32)" style="fill:#f2f2f2"/><path d="M498.17 97.44a5.75 5.75 0 0 1 4.72-6.33 10.66 10.66 0 0 1 5.51 1 14.5 14.5 0 0 1 1.82 1 3.38 3.38 0 0 1 1 1.39 16.08 16.08 0 0 1 .51 5.43 14.21 14.21 0 0 1-.68 5.12c-.32.91.13-.2-.13.28l-.3.53c-.25.42.24-.26-.07.12a5.44 5.44 0 0 1-.48.48 4.6 4.6 0 0 1-2 .84 10.38 10.38 0 0 1-4.94.17l-.67-.19c-.07 0-.69-.28-.42-.16a6.31 6.31 0 0 1-.63-.34s-.89-.63-.45-.27a7.86 7.86 0 0 1-1-1c.08.1.25.39-.08-.11-.14-.22-.28-.43-.41-.65l-.29-.55c-.09-.19-.1-.19 0 0l-.12-.29a13 13 0 0 1-.42-1.51 6.18 6.18 0 0 1 .13-2.16 3 3 0 0 0-5.77-1.61 12.24 12.24 0 0 0 6 13.69 14.68 14.68 0 0 0 8.79 1.15c2.72-.4 5.47-1.37 7.24-3.58s2.39-5.07 2.59-7.9a29.18 29.18 0 0 0-.38-8.08c-1.3-5.88-7.9-8.91-13.5-8.85a11.81 11.81 0 0 0-11.61 12.38 3.08 3.08 0 0 0 3 3 3 3 0 0 0 3-3Z" transform="translate(-10.57 -34.32)"/><path class="cls-2" d="M495.48 123.69c-.54 3.45-1.06 7-.49 10.47s2.45 6.82 5.26 7.75a10 10 0 0 0 4.39.11c3.08-.38 6.53-1 8.35-4.05 1.63-2.72 1.33-6.49.5-9.69-.66-2.54-1.74-5.14-3.71-6.33a7.22 7.22 0 0 0-4.23-.76 25 25 0 0 0-9.48 2.51" transform="translate(-10.57 -34.32)"/><path d="M498.21 128.86a5.76 5.76 0 0 1 4.73-6.33 10.68 10.68 0 0 1 5.51 1 14.39 14.39 0 0 1 1.81 1 3.38 3.38 0 0 1 1 1.39 15.59 15.59 0 0 1 .51 5.43 13.78 13.78 0 0 1-.68 5.12c-.31.91.13-.2-.13.28-.09.18-.2.35-.3.53-.25.42.25-.26-.07.12a4.25 4.25 0 0 1-.47.48 4.7 4.7 0 0 1-2 .84 10.37 10.37 0 0 1-4.94.17l-.67-.19c-.06 0-.68-.28-.42-.16-.21-.1-.42-.22-.62-.34 0 0-.9-.63-.46-.27a8.51 8.51 0 0 1-1-1c.09.1.26.39-.08-.11-.14-.22-.28-.43-.41-.65l-.29-.55c-.09-.19-.09-.19 0 0l-.11-.29a11.26 11.26 0 0 1-.42-1.51 6.41 6.41 0 0 1 .12-2.16 3 3 0 1 0-5.78-1.59 12.22 12.22 0 0 0 6.09 13.69 14.68 14.68 0 0 0 8.79 1.15c2.72-.4 5.47-1.37 7.24-3.58a13.73 13.73 0 0 0 2.58-7.9 28.8 28.8 0 0 0-.38-8.08c-1.3-5.88-7.89-8.91-13.49-8.85a11.82 11.82 0 0 0-11.62 12.38 3.08 3.08 0 0 0 3 3 3 3 0 0 0 3-3Z" transform="translate(-10.57 -34.32)"/><path d="M495.53 155.11c-.54 3.45-1.06 7-.5 10.47s2.46 6.82 5.26 7.75a10 10 0 0 0 4.39.11c3.08-.38 6.54-1 8.35-4.05 1.63-2.72 1.34-6.49.5-9.69-.65-2.54-1.74-5.14-3.7-6.33a7.23 7.23 0 0 0-4.24-.76 24.92 24.92 0 0 0-9.47 2.51" transform="translate(-10.57 -34.32)" style="fill:#ccc"/><path d="M498.26 160.28A5.75 5.75 0 0 1 503 154a10.69 10.69 0 0 1 5.51 1 15.13 15.13 0 0 1 1.81 1 3.44 3.44 0 0 1 1 1.39 16.08 16.08 0 0 1 .51 5.43 14.21 14.21 0 0 1-.68 5.12c-.32.91.13-.2-.13.28l-.3.53c-.25.42.24-.26-.07.12a5.44 5.44 0 0 1-.48.48 4.6 4.6 0 0 1-2 .84 10.38 10.38 0 0 1-4.94.17l-.67-.19c-.07 0-.69-.28-.42-.16-.21-.1-.43-.22-.63-.34 0 0-.89-.63-.45-.27a7.86 7.86 0 0 1-1-1c.09.1.25.39-.08-.11-.14-.22-.28-.43-.41-.65l-.29-.55c-.09-.19-.1-.19 0 0l-.11-.29a11.3 11.3 0 0 1-.43-1.51 6.11 6.11 0 0 1 .13-2.15 3 3 0 1 0-5.79-1.6 12.24 12.24 0 0 0 6.09 13.69 14.68 14.68 0 0 0 8.79 1.15c2.72-.4 5.47-1.37 7.24-3.58s2.39-5.07 2.59-7.9a29.18 29.18 0 0 0-.38-8.08c-1.3-5.88-7.9-8.91-13.5-8.85a11.81 11.81 0 0 0-11.61 12.38 3.08 3.08 0 0 0 3 3 3 3 0 0 0 3-3Z" transform="translate(-10.57 -34.32)"/><path class="cls-1" d="M495.58 186.53c-.55 3.45-1.06 7-.5 10.47s2.45 6.82 5.26 7.75a10 10 0 0 0 4.39.11c3.08-.38 6.54-1 8.35-4.05 1.63-2.72 1.33-6.49.5-9.69-.66-2.54-1.74-5.14-3.71-6.33a7.22 7.22 0 0 0-4.23-.76 25 25 0 0 0-9.48 2.51" transform="translate(-10.57 -34.32)"/><path d="M498.3 191.7a5.76 5.76 0 0 1 4.73-6.33 10.68 10.68 0 0 1 5.51 1 14.39 14.39 0 0 1 1.81 1 3.44 3.44 0 0 1 1 1.39 15.59 15.59 0 0 1 .51 5.43 13.78 13.78 0 0 1-.68 5.12c-.31.91.13-.2-.13.28-.09.18-.2.35-.3.53-.25.42.25-.26-.07.12a4.25 4.25 0 0 1-.47.48 4.65 4.65 0 0 1-2 .84 10.37 10.37 0 0 1-4.94.17l-.67-.19c-.06 0-.68-.28-.42-.16-.21-.1-.42-.22-.62-.34 0 0-.9-.63-.46-.27a8.51 8.51 0 0 1-1-1c.09.1.26.39-.08-.11-.14-.22-.28-.43-.4-.65s-.2-.37-.3-.55-.09-.19 0 0l-.11-.29a11.26 11.26 0 0 1-.42-1.51 6.34 6.34 0 0 1 .12-2.15 3 3 0 1 0-5.78-1.6 12.22 12.22 0 0 0 6.09 13.69 14.68 14.68 0 0 0 8.79 1.15c2.72-.4 5.47-1.37 7.24-3.58a13.73 13.73 0 0 0 2.58-7.9 28.43 28.43 0 0 0-.38-8.08c-1.3-5.88-7.89-8.91-13.49-8.85a11.82 11.82 0 0 0-11.66 12.36 3.08 3.08 0 0 0 3 3 3 3 0 0 0 3-3Z" transform="translate(-10.57 -34.32)"/><path d="M495.62 218c-.54 3.45-1.06 7-.5 10.47s2.46 6.82 5.26 7.75a10 10 0 0 0 4.39.11c3.08-.38 6.54-1 8.35-4.05 1.63-2.72 1.34-6.49.5-9.69-.65-2.54-1.74-5.14-3.7-6.33a7.22 7.22 0 0 0-4.23-.76 24.92 24.92 0 0 0-9.48 2.51" transform="translate(-10.57 -34.32)" style="fill:#666"/><path d="M498.35 223.12a5.75 5.75 0 0 1 4.73-6.33 10.69 10.69 0 0 1 5.51 1 15.13 15.13 0 0 1 1.81 1 3.44 3.44 0 0 1 1 1.39 16.08 16.08 0 0 1 .51 5.43 14.21 14.21 0 0 1-.68 5.12c-.32.91.13-.2-.13.28l-.3.53c-.25.42.24-.26-.07.12a5.44 5.44 0 0 1-.48.48 4.6 4.6 0 0 1-2 .84 10.38 10.38 0 0 1-4.94.17l-.67-.19c-.07 0-.69-.28-.42-.16-.21-.1-.43-.22-.63-.34 0 0-.89-.63-.45-.27a7.86 7.86 0 0 1-1-1c.09.1.25.39-.08-.11-.14-.22-.28-.43-.41-.65l-.29-.55c-.09-.19-.1-.19 0 0l-.11-.29a10 10 0 0 1-.42-1.51 6.1 6.1 0 0 1 .12-2.15 3 3 0 1 0-5.79-1.6 12.24 12.24 0 0 0 6.06 13.67 14.68 14.68 0 0 0 8.79 1.15c2.72-.4 5.47-1.37 7.24-3.58s2.39-5.07 2.59-7.9a29.18 29.18 0 0 0-.38-8.08c-1.3-5.88-7.9-8.91-13.5-8.85a11.81 11.81 0 0 0-11.61 12.38 3.08 3.08 0 0 0 3 3 3 3 0 0 0 3-3Z" transform="translate(-10.57 -34.32)"/><path d="M495.67 249.37c-.55 3.46-1.06 7-.5 10.47s2.45 6.82 5.26 7.75a10 10 0 0 0 4.39.11c3.08-.38 6.54-1 8.35-4.05 1.63-2.72 1.33-6.49.5-9.69-.66-2.54-1.74-5.14-3.71-6.33a7.22 7.22 0 0 0-4.23-.76 24.92 24.92 0 0 0-9.47 2.51" transform="translate(-10.57 -34.32)" style="fill:#333"/><path d="M498.4 254.54a5.74 5.74 0 0 1 4.72-6.33 10.68 10.68 0 0 1 5.51 1 14.39 14.39 0 0 1 1.81 1 3.35 3.35 0 0 1 1 1.39 15.59 15.59 0 0 1 .51 5.43 13.78 13.78 0 0 1-.68 5.12c-.31.91.13-.2-.13.28-.09.18-.19.35-.3.53-.25.42.25-.26-.07.12a4.25 4.25 0 0 1-.47.48 4.66 4.66 0 0 1-2 .84 10.42 10.42 0 0 1-4.95.17l-.66-.19c-.07 0-.69-.28-.43-.16-.21-.1-.42-.22-.62-.34 0 0-.9-.63-.46-.27a8.43 8.43 0 0 1-1-1c.08.1.25.39-.09-.11-.14-.22-.28-.43-.4-.65s-.2-.37-.3-.55-.09-.19 0 0l-.11-.29a11.26 11.26 0 0 1-.42-1.51 6.36 6.36 0 0 1 .12-2.15 3 3 0 1 0-5.78-1.6 12.23 12.23 0 0 0 6.09 13.69 14.68 14.68 0 0 0 8.79 1.15c2.72-.4 5.47-1.37 7.24-3.58a13.73 13.73 0 0 0 2.58-7.9 28.43 28.43 0 0 0-.38-8.08c-1.29-5.88-7.89-8.91-13.49-8.85a11.81 11.81 0 0 0-11.61 12.38 3 3 0 0 0 6 0Z" transform="translate(-10.57 -34.32)"/><path d="M461.17 275.46q-3.36-47.83-3.32-95.82 0-24.09.91-48.19c.29-7.66.38-15.41 1.44-23a78.67 78.67 0 0 1 6.36-21c3.55-8 7.4-15.86 11.12-23.77l11.66-24.81-4.71.61C493.75 50.68 502.84 62 510 74.66a105.31 105.31 0 0 1 8.8 19.48 97.26 97.26 0 0 1 4.38 23.24c.63 8.44.63 16.91.76 25.37q.21 13 .37 25.94.34 26.07.55 52.15t.28 52.15v6.49l3-3a273.94 273.94 0 0 1-54.55.36q-7.62-.72-15.19-1.88a3.1 3.1 0 0 0-3.69 2.1c-.39 1.42.48 3.44 2.09 3.69a277.43 277.43 0 0 0 55.53 3q7.92-.39 15.81-1.23a3.08 3.08 0 0 0 3-3q-.06-26.33-.26-52.65t-.52-52.65q-.17-13.22-.36-26.44c-.13-8.59-.14-17.2-.56-25.78a116.92 116.92 0 0 0-3.54-25 106 106 0 0 0-8.29-21c-6.87-13.22-16-25.08-25.33-36.64l-3.41-4.2a3 3 0 0 0-4.71.6c-6.89 14.66-13.83 29.31-20.68 44-3.15 6.75-6.21 13.63-7.92 20.91-1.84 7.79-2.18 15.84-2.52 23.8q-2 48.41-.59 96.88.81 27.06 2.72 54.08a3.08 3.08 0 0 0 3 3 3 3 0 0 0 3-3Z" transform="translate(-10.57 -34.32)"/><path d="M452.15 215c-5.5 15.58-12.34 30.69-16.95 46.57q-2 7-3.44 14.18a3.18 3.18 0 0 0 1.38 3.39c7.45 5.55 16.77 1.16 25 .92 3.85-.11 3.87-6.11 0-6-4.2.13-8.3 1.13-12.43 1.67-3.59.47-6.65.4-9.57-1.77l1.38 3.38c3.18-16.24 9.28-31.52 15.23-46.9 1.77-4.59 3.51-9.2 5.15-13.84a3 3 0 1 0-5.78-1.6ZM525.05 219.79c6.33 17.25 11.35 35 17.54 52.25.11.31 1 3.15 1.06 3.15s.08-.27.11-.32c.28-.39 0-.09 0-.1-.24 0-.75.17-.85.17-3.5.14-7 .48-10.5.71a3.07 3.07 0 0 0-3 3 3 3 0 0 0 3 3l10-.67c2.86-.21 5.93-1.05 6.9-4.11.82-2.58-.56-5.18-1.41-7.58-.78-2.19-1.53-4.39-2.28-6.6-3.33-9.86-6.47-19.78-9.74-29.66-1.65-5-3.31-9.92-5.11-14.83a3.09 3.09 0 0 0-3.69-2.1 3 3 0 0 0-2.1 3.69Z" transform="translate(-10.57 -34.32)"/></svg>