<svg version="1.1" id="Layer_1" xmlns="http://www.w3.org/2000/svg" x="0" y="0" viewBox="0 0 576 576" style="enable-background:new 0 0 576 576" xml:space="preserve"><style>.st0,.st1,.st4{fill:none;stroke:#d1d3d4;stroke-miterlimit:10}.st1,.st4{stroke-dasharray:1.4562,1.4562}.st4{stroke-dasharray:1.9941,1.9941}</style><path class="st0" d="M259.34 361.76h1v1"/><path class="st1" d="M260.34 364.22v2.18"/><path class="st0" d="M260.34 367.13v1h-1"/><path d="M257.35 368.13h-5.6c-13.5 0-24.44 10.94-24.44 24.44v70.01c0 13.5 10.94 24.44 24.44 24.44h72.51c13.5 0 24.44-10.94 24.44-24.44v-70.01c0-13.5-10.94-24.44-24.44-24.44h-6.6" style="fill:none;stroke:#d1d3d4;stroke-miterlimit:10;stroke-dasharray:1.996,1.996"/><path class="st0" d="M316.66 368.13h-1v-1"/><path class="st1" d="M315.66 365.67v-2.18"/><path class="st0" d="M315.66 362.76v-1h1"/><path d="M318.66 361.76h53.9c19.68 0 35.63-15.95 35.63-35.63V189.88c0-19.68-15.95-35.63-35.63-35.63H203.44c-19.68 0-35.63 15.95-35.63 35.63v136.26c0 19.68 15.95 35.63 35.63 35.63h54.9" style="fill:none;stroke:#d1d3d4;stroke-miterlimit:10;stroke-dasharray:1.998,1.998"/><path class="st4" d="M376.01 295.54h-52.99c-14.45 0-26.17-11.72-26.17-26.17v-22.35c0-14.45 11.72-26.17 26.17-26.17h52.99c14.45 0 26.17 11.72 26.17 26.17v22.35c0 14.45-11.72 26.17-26.17 26.17zM252.98 295.54h-52.99c-14.45 0-26.17-11.72-26.17-26.17v-22.35c0-14.45 11.72-26.17 26.17-26.17h52.99c14.45 0 26.17 11.72 26.17 26.17v22.35c0 14.45-11.72 26.17-26.17 26.17z"/><path style="fill:none;stroke:#bcbec0;stroke-miterlimit:10" d="M0 0h576v576H0z"/></svg>